<?xml version="1.0" encoding="utf-8" standalone="no"?>
<!DOCTYPE svg PUBLIC "-//W3C//DTD SVG 1.1//EN"
  "http://www.w3.org/Graphics/SVG/1.1/DTD/svg11.dtd">
<svg height="261.94775pt" version="1.1" viewBox="0 0 945.588 261.94775" width="945.588pt" xmlns="http://www.w3.org/2000/svg" xmlns:xlink="http://www.w3.org/1999/xlink">
 <metadata>
  <rdf:RDF xmlns:cc="http://creativecommons.org/ns#" xmlns:dc="http://purl.org/dc/elements/1.1/" xmlns:rdf="http://www.w3.org/1999/02/22-rdf-syntax-ns#">
   <cc:Work>
    <dc:type rdf:resource="http://purl.org/dc/dcmitype/StillImage"/>
    <dc:date>2022-04-29T16:27:52.662112</dc:date>
    <dc:format>image/svg+xml</dc:format>
    <dc:creator>
     <cc:Agent>
      <dc:title>Matplotlib v3.4.3, https://matplotlib.org/</dc:title>
     </cc:Agent>
    </dc:creator>
   </cc:Work>
  </rdf:RDF>
 </metadata>
 <defs>
  <style type="text/css">*{stroke-linecap:butt;stroke-linejoin:round;}</style>
 </defs>
 <g id="figure_1">
  <g id="patch_1">
   <path d="M 0 261.94775 
L 945.588 261.94775 
L 945.588 0 
L 0 0 
z
" style="fill:none;"/>
  </g>
  <g id="axes_1">
   <g id="patch_2">
    <path d="M 45.588 224.64 
L 451.406182 224.64 
L 451.406182 7.2 
L 45.588 7.2 
z
" style="fill:#ffffff;"/>
   </g>
   <g id="patch_3">
    <path clip-path="url(#pe13aa2f7c1)" d="M 64.034281 224.64 
L 69.798744 224.64 
L 69.798744 179.548756 
L 64.034281 179.548756 
z
" style="fill:#ff7f0e;fill-opacity:0.5;stroke:#000000;stroke-linejoin:miter;stroke-width:0.576446;"/>
   </g>
   <g id="patch_4">
    <path clip-path="url(#pe13aa2f7c1)" d="M 69.798744 224.64 
L 75.563207 224.64 
L 75.563207 24.23447 
L 69.798744 24.23447 
z
" style="fill:#ff7f0e;fill-opacity:0.5;stroke:#000000;stroke-linejoin:miter;stroke-width:0.576446;"/>
   </g>
   <g id="patch_5">
    <path clip-path="url(#pe13aa2f7c1)" d="M 75.563207 224.64 
L 81.327669 224.64 
L 81.327669 22.564424 
L 75.563207 22.564424 
z
" style="fill:#ff7f0e;fill-opacity:0.5;stroke:#000000;stroke-linejoin:miter;stroke-width:0.576446;"/>
   </g>
   <g id="patch_6">
    <path clip-path="url(#pe13aa2f7c1)" d="M 81.327669 224.64 
L 87.092132 224.64 
L 87.092132 79.345991 
L 81.327669 79.345991 
z
" style="fill:#ff7f0e;fill-opacity:0.5;stroke:#000000;stroke-linejoin:miter;stroke-width:0.576446;"/>
   </g>
   <g id="patch_7">
    <path clip-path="url(#pe13aa2f7c1)" d="M 87.092132 224.64 
L 92.856595 224.64 
L 92.856595 141.137696 
L 87.092132 141.137696 
z
" style="fill:#ff7f0e;fill-opacity:0.5;stroke:#000000;stroke-linejoin:miter;stroke-width:0.576446;"/>
   </g>
   <g id="patch_8">
    <path clip-path="url(#pe13aa2f7c1)" d="M 92.856595 224.64 
L 98.621058 224.64 
L 98.621058 147.81788 
L 92.856595 147.81788 
z
" style="fill:#ff7f0e;fill-opacity:0.5;stroke:#000000;stroke-linejoin:miter;stroke-width:0.576446;"/>
   </g>
   <g id="patch_9">
    <path clip-path="url(#pe13aa2f7c1)" d="M 98.621058 224.64 
L 104.385521 224.64 
L 104.385521 164.518341 
L 98.621058 164.518341 
z
" style="fill:#ff7f0e;fill-opacity:0.5;stroke:#000000;stroke-linejoin:miter;stroke-width:0.576446;"/>
   </g>
   <g id="patch_10">
    <path clip-path="url(#pe13aa2f7c1)" d="M 104.385521 224.64 
L 110.149983 224.64 
L 110.149983 167.858433 
L 104.385521 167.858433 
z
" style="fill:#ff7f0e;fill-opacity:0.5;stroke:#000000;stroke-linejoin:miter;stroke-width:0.576446;"/>
   </g>
   <g id="patch_11">
    <path clip-path="url(#pe13aa2f7c1)" d="M 110.149983 224.64 
L 115.914446 224.64 
L 115.914446 192.909124 
L 110.149983 192.909124 
z
" style="fill:#ff7f0e;fill-opacity:0.5;stroke:#000000;stroke-linejoin:miter;stroke-width:0.576446;"/>
   </g>
   <g id="patch_12">
    <path clip-path="url(#pe13aa2f7c1)" d="M 115.914446 224.64 
L 121.678909 224.64 
L 121.678909 189.569032 
L 115.914446 189.569032 
z
" style="fill:#ff7f0e;fill-opacity:0.5;stroke:#000000;stroke-linejoin:miter;stroke-width:0.576446;"/>
   </g>
   <g id="patch_13">
    <path clip-path="url(#pe13aa2f7c1)" d="M 121.678909 224.64 
L 127.443372 224.64 
L 127.443372 194.579171 
L 121.678909 194.579171 
z
" style="fill:#ff7f0e;fill-opacity:0.5;stroke:#000000;stroke-linejoin:miter;stroke-width:0.576446;"/>
   </g>
   <g id="patch_14">
    <path clip-path="url(#pe13aa2f7c1)" d="M 127.443372 224.64 
L 133.207835 224.64 
L 133.207835 206.269493 
L 127.443372 206.269493 
z
" style="fill:#ff7f0e;fill-opacity:0.5;stroke:#000000;stroke-linejoin:miter;stroke-width:0.576446;"/>
   </g>
   <g id="patch_15">
    <path clip-path="url(#pe13aa2f7c1)" d="M 133.207835 224.64 
L 138.972298 224.64 
L 138.972298 197.919263 
L 133.207835 197.919263 
z
" style="fill:#ff7f0e;fill-opacity:0.5;stroke:#000000;stroke-linejoin:miter;stroke-width:0.576446;"/>
   </g>
   <g id="patch_16">
    <path clip-path="url(#pe13aa2f7c1)" d="M 138.972298 224.64 
L 144.73676 224.64 
L 144.73676 206.269493 
L 138.972298 206.269493 
z
" style="fill:#ff7f0e;fill-opacity:0.5;stroke:#000000;stroke-linejoin:miter;stroke-width:0.576446;"/>
   </g>
   <g id="patch_17">
    <path clip-path="url(#pe13aa2f7c1)" d="M 144.73676 224.64 
L 150.501223 224.64 
L 150.501223 209.609585 
L 144.73676 209.609585 
z
" style="fill:#ff7f0e;fill-opacity:0.5;stroke:#000000;stroke-linejoin:miter;stroke-width:0.576446;"/>
   </g>
   <g id="patch_18">
    <path clip-path="url(#pe13aa2f7c1)" d="M 150.501223 224.64 
L 156.265686 224.64 
L 156.265686 217.959816 
L 150.501223 217.959816 
z
" style="fill:#ff7f0e;fill-opacity:0.5;stroke:#000000;stroke-linejoin:miter;stroke-width:0.576446;"/>
   </g>
   <g id="patch_19">
    <path clip-path="url(#pe13aa2f7c1)" d="M 156.265686 224.64 
L 162.030149 224.64 
L 162.030149 219.629862 
L 156.265686 219.629862 
z
" style="fill:#ff7f0e;fill-opacity:0.5;stroke:#000000;stroke-linejoin:miter;stroke-width:0.576446;"/>
   </g>
   <g id="patch_20">
    <path clip-path="url(#pe13aa2f7c1)" d="M 162.030149 224.64 
L 167.794612 224.64 
L 167.794612 221.299908 
L 162.030149 221.299908 
z
" style="fill:#ff7f0e;fill-opacity:0.5;stroke:#000000;stroke-linejoin:miter;stroke-width:0.576446;"/>
   </g>
   <g id="patch_21">
    <path clip-path="url(#pe13aa2f7c1)" d="M 167.794612 224.64 
L 173.559074 224.64 
L 173.559074 216.28977 
L 167.794612 216.28977 
z
" style="fill:#ff7f0e;fill-opacity:0.5;stroke:#000000;stroke-linejoin:miter;stroke-width:0.576446;"/>
   </g>
   <g id="patch_22">
    <path clip-path="url(#pe13aa2f7c1)" d="M 173.559074 224.64 
L 179.323537 224.64 
L 179.323537 222.969954 
L 173.559074 222.969954 
z
" style="fill:#ff7f0e;fill-opacity:0.5;stroke:#000000;stroke-linejoin:miter;stroke-width:0.576446;"/>
   </g>
   <g id="patch_23">
    <path clip-path="url(#pe13aa2f7c1)" d="M 179.323537 224.64 
L 185.088 224.64 
L 185.088 219.629862 
L 179.323537 219.629862 
z
" style="fill:#ff7f0e;fill-opacity:0.5;stroke:#000000;stroke-linejoin:miter;stroke-width:0.576446;"/>
   </g>
   <g id="patch_24">
    <path clip-path="url(#pe13aa2f7c1)" d="M 185.088 224.64 
L 190.852463 224.64 
L 190.852463 222.969954 
L 185.088 222.969954 
z
" style="fill:#ff7f0e;fill-opacity:0.5;stroke:#000000;stroke-linejoin:miter;stroke-width:0.576446;"/>
   </g>
   <g id="patch_25">
    <path clip-path="url(#pe13aa2f7c1)" d="M 190.852463 224.64 
L 196.616926 224.64 
L 196.616926 219.629862 
L 190.852463 219.629862 
z
" style="fill:#ff7f0e;fill-opacity:0.5;stroke:#000000;stroke-linejoin:miter;stroke-width:0.576446;"/>
   </g>
   <g id="patch_26">
    <path clip-path="url(#pe13aa2f7c1)" d="M 196.616926 224.64 
L 202.381388 224.64 
L 202.381388 224.64 
L 196.616926 224.64 
z
" style="fill:#ff7f0e;fill-opacity:0.5;stroke:#000000;stroke-linejoin:miter;stroke-width:0.576446;"/>
   </g>
   <g id="patch_27">
    <path clip-path="url(#pe13aa2f7c1)" d="M 202.381388 224.64 
L 208.145851 224.64 
L 208.145851 222.969954 
L 202.381388 222.969954 
z
" style="fill:#ff7f0e;fill-opacity:0.5;stroke:#000000;stroke-linejoin:miter;stroke-width:0.576446;"/>
   </g>
   <g id="patch_28">
    <path clip-path="url(#pe13aa2f7c1)" d="M 208.145851 224.64 
L 213.910314 224.64 
L 213.910314 221.299908 
L 208.145851 221.299908 
z
" style="fill:#ff7f0e;fill-opacity:0.5;stroke:#000000;stroke-linejoin:miter;stroke-width:0.576446;"/>
   </g>
   <g id="patch_29">
    <path clip-path="url(#pe13aa2f7c1)" d="M 213.910314 224.64 
L 219.674777 224.64 
L 219.674777 224.64 
L 213.910314 224.64 
z
" style="fill:#ff7f0e;fill-opacity:0.5;stroke:#000000;stroke-linejoin:miter;stroke-width:0.576446;"/>
   </g>
   <g id="patch_30">
    <path clip-path="url(#pe13aa2f7c1)" d="M 219.674777 224.64 
L 225.43924 224.64 
L 225.43924 224.64 
L 219.674777 224.64 
z
" style="fill:#ff7f0e;fill-opacity:0.5;stroke:#000000;stroke-linejoin:miter;stroke-width:0.576446;"/>
   </g>
   <g id="patch_31">
    <path clip-path="url(#pe13aa2f7c1)" d="M 225.43924 224.64 
L 231.203702 224.64 
L 231.203702 224.64 
L 225.43924 224.64 
z
" style="fill:#ff7f0e;fill-opacity:0.5;stroke:#000000;stroke-linejoin:miter;stroke-width:0.576446;"/>
   </g>
   <g id="patch_32">
    <path clip-path="url(#pe13aa2f7c1)" d="M 231.203702 224.64 
L 236.968165 224.64 
L 236.968165 224.64 
L 231.203702 224.64 
z
" style="fill:#ff7f0e;fill-opacity:0.5;stroke:#000000;stroke-linejoin:miter;stroke-width:0.576446;"/>
   </g>
   <g id="patch_33">
    <path clip-path="url(#pe13aa2f7c1)" d="M 236.968165 224.64 
L 242.732628 224.64 
L 242.732628 222.969954 
L 236.968165 222.969954 
z
" style="fill:#ff7f0e;fill-opacity:0.5;stroke:#000000;stroke-linejoin:miter;stroke-width:0.576446;"/>
   </g>
   <g id="patch_34">
    <path clip-path="url(#pe13aa2f7c1)" d="M 242.732628 224.64 
L 248.497091 224.64 
L 248.497091 222.969954 
L 242.732628 222.969954 
z
" style="fill:#ff7f0e;fill-opacity:0.5;stroke:#000000;stroke-linejoin:miter;stroke-width:0.576446;"/>
   </g>
   <g id="patch_35">
    <path clip-path="url(#pe13aa2f7c1)" d="M 248.497091 224.64 
L 254.261554 224.64 
L 254.261554 224.64 
L 248.497091 224.64 
z
" style="fill:#ff7f0e;fill-opacity:0.5;stroke:#000000;stroke-linejoin:miter;stroke-width:0.576446;"/>
   </g>
   <g id="patch_36">
    <path clip-path="url(#pe13aa2f7c1)" d="M 254.261554 224.64 
L 260.026017 224.64 
L 260.026017 224.64 
L 254.261554 224.64 
z
" style="fill:#ff7f0e;fill-opacity:0.5;stroke:#000000;stroke-linejoin:miter;stroke-width:0.576446;"/>
   </g>
   <g id="patch_37">
    <path clip-path="url(#pe13aa2f7c1)" d="M 260.026017 224.64 
L 265.790479 224.64 
L 265.790479 224.64 
L 260.026017 224.64 
z
" style="fill:#ff7f0e;fill-opacity:0.5;stroke:#000000;stroke-linejoin:miter;stroke-width:0.576446;"/>
   </g>
   <g id="patch_38">
    <path clip-path="url(#pe13aa2f7c1)" d="M 265.790479 224.64 
L 271.554942 224.64 
L 271.554942 221.299908 
L 265.790479 221.299908 
z
" style="fill:#ff7f0e;fill-opacity:0.5;stroke:#000000;stroke-linejoin:miter;stroke-width:0.576446;"/>
   </g>
   <g id="patch_39">
    <path clip-path="url(#pe13aa2f7c1)" d="M 271.554942 224.64 
L 277.319405 224.64 
L 277.319405 222.969954 
L 271.554942 222.969954 
z
" style="fill:#ff7f0e;fill-opacity:0.5;stroke:#000000;stroke-linejoin:miter;stroke-width:0.576446;"/>
   </g>
   <g id="patch_40">
    <path clip-path="url(#pe13aa2f7c1)" d="M 277.319405 224.64 
L 283.083868 224.64 
L 283.083868 224.64 
L 277.319405 224.64 
z
" style="fill:#ff7f0e;fill-opacity:0.5;stroke:#000000;stroke-linejoin:miter;stroke-width:0.576446;"/>
   </g>
   <g id="patch_41">
    <path clip-path="url(#pe13aa2f7c1)" d="M 283.083868 224.64 
L 288.848331 224.64 
L 288.848331 224.64 
L 283.083868 224.64 
z
" style="fill:#ff7f0e;fill-opacity:0.5;stroke:#000000;stroke-linejoin:miter;stroke-width:0.576446;"/>
   </g>
   <g id="patch_42">
    <path clip-path="url(#pe13aa2f7c1)" d="M 288.848331 224.64 
L 294.612793 224.64 
L 294.612793 224.64 
L 288.848331 224.64 
z
" style="fill:#ff7f0e;fill-opacity:0.5;stroke:#000000;stroke-linejoin:miter;stroke-width:0.576446;"/>
   </g>
   <g id="patch_43">
    <path clip-path="url(#pe13aa2f7c1)" d="M 294.612793 224.64 
L 300.377256 224.64 
L 300.377256 224.64 
L 294.612793 224.64 
z
" style="fill:#ff7f0e;fill-opacity:0.5;stroke:#000000;stroke-linejoin:miter;stroke-width:0.576446;"/>
   </g>
   <g id="patch_44">
    <path clip-path="url(#pe13aa2f7c1)" d="M 300.377256 224.64 
L 306.141719 224.64 
L 306.141719 222.969954 
L 300.377256 222.969954 
z
" style="fill:#ff7f0e;fill-opacity:0.5;stroke:#000000;stroke-linejoin:miter;stroke-width:0.576446;"/>
   </g>
   <g id="patch_45">
    <path clip-path="url(#pe13aa2f7c1)" d="M 306.141719 224.64 
L 311.906182 224.64 
L 311.906182 222.969954 
L 306.141719 222.969954 
z
" style="fill:#ff7f0e;fill-opacity:0.5;stroke:#000000;stroke-linejoin:miter;stroke-width:0.576446;"/>
   </g>
   <g id="patch_46">
    <path clip-path="url(#pe13aa2f7c1)" d="M 311.906182 224.64 
L 317.670645 224.64 
L 317.670645 221.299908 
L 311.906182 221.299908 
z
" style="fill:#ff7f0e;fill-opacity:0.5;stroke:#000000;stroke-linejoin:miter;stroke-width:0.576446;"/>
   </g>
   <g id="patch_47">
    <path clip-path="url(#pe13aa2f7c1)" d="M 317.670645 224.64 
L 323.435107 224.64 
L 323.435107 224.64 
L 317.670645 224.64 
z
" style="fill:#ff7f0e;fill-opacity:0.5;stroke:#000000;stroke-linejoin:miter;stroke-width:0.576446;"/>
   </g>
   <g id="patch_48">
    <path clip-path="url(#pe13aa2f7c1)" d="M 323.435107 224.64 
L 329.19957 224.64 
L 329.19957 224.64 
L 323.435107 224.64 
z
" style="fill:#ff7f0e;fill-opacity:0.5;stroke:#000000;stroke-linejoin:miter;stroke-width:0.576446;"/>
   </g>
   <g id="patch_49">
    <path clip-path="url(#pe13aa2f7c1)" d="M 329.19957 224.64 
L 334.964033 224.64 
L 334.964033 224.64 
L 329.19957 224.64 
z
" style="fill:#ff7f0e;fill-opacity:0.5;stroke:#000000;stroke-linejoin:miter;stroke-width:0.576446;"/>
   </g>
   <g id="patch_50">
    <path clip-path="url(#pe13aa2f7c1)" d="M 334.964033 224.64 
L 340.728496 224.64 
L 340.728496 224.64 
L 334.964033 224.64 
z
" style="fill:#ff7f0e;fill-opacity:0.5;stroke:#000000;stroke-linejoin:miter;stroke-width:0.576446;"/>
   </g>
   <g id="patch_51">
    <path clip-path="url(#pe13aa2f7c1)" d="M 340.728496 224.64 
L 346.492959 224.64 
L 346.492959 222.969954 
L 340.728496 222.969954 
z
" style="fill:#ff7f0e;fill-opacity:0.5;stroke:#000000;stroke-linejoin:miter;stroke-width:0.576446;"/>
   </g>
   <g id="patch_52">
    <path clip-path="url(#pe13aa2f7c1)" d="M 346.492959 224.64 
L 352.257421 224.64 
L 352.257421 224.64 
L 346.492959 224.64 
z
" style="fill:#ff7f0e;fill-opacity:0.5;stroke:#000000;stroke-linejoin:miter;stroke-width:0.576446;"/>
   </g>
   <g id="patch_53">
    <path clip-path="url(#pe13aa2f7c1)" d="M 352.257421 224.64 
L 358.021884 224.64 
L 358.021884 222.969954 
L 352.257421 222.969954 
z
" style="fill:#ff7f0e;fill-opacity:0.5;stroke:#000000;stroke-linejoin:miter;stroke-width:0.576446;"/>
   </g>
   <g id="patch_54">
    <path clip-path="url(#pe13aa2f7c1)" d="M 358.021884 224.64 
L 363.786347 224.64 
L 363.786347 224.64 
L 358.021884 224.64 
z
" style="fill:#ff7f0e;fill-opacity:0.5;stroke:#000000;stroke-linejoin:miter;stroke-width:0.576446;"/>
   </g>
   <g id="patch_55">
    <path clip-path="url(#pe13aa2f7c1)" d="M 363.786347 224.64 
L 369.55081 224.64 
L 369.55081 224.64 
L 363.786347 224.64 
z
" style="fill:#ff7f0e;fill-opacity:0.5;stroke:#000000;stroke-linejoin:miter;stroke-width:0.576446;"/>
   </g>
   <g id="patch_56">
    <path clip-path="url(#pe13aa2f7c1)" d="M 369.55081 224.64 
L 375.315273 224.64 
L 375.315273 224.64 
L 369.55081 224.64 
z
" style="fill:#ff7f0e;fill-opacity:0.5;stroke:#000000;stroke-linejoin:miter;stroke-width:0.576446;"/>
   </g>
   <g id="patch_57">
    <path clip-path="url(#pe13aa2f7c1)" d="M 375.315273 224.64 
L 381.079736 224.64 
L 381.079736 224.64 
L 375.315273 224.64 
z
" style="fill:#ff7f0e;fill-opacity:0.5;stroke:#000000;stroke-linejoin:miter;stroke-width:0.576446;"/>
   </g>
   <g id="patch_58">
    <path clip-path="url(#pe13aa2f7c1)" d="M 381.079736 224.64 
L 386.844198 224.64 
L 386.844198 224.64 
L 381.079736 224.64 
z
" style="fill:#ff7f0e;fill-opacity:0.5;stroke:#000000;stroke-linejoin:miter;stroke-width:0.576446;"/>
   </g>
   <g id="patch_59">
    <path clip-path="url(#pe13aa2f7c1)" d="M 386.844198 224.64 
L 392.608661 224.64 
L 392.608661 224.64 
L 386.844198 224.64 
z
" style="fill:#ff7f0e;fill-opacity:0.5;stroke:#000000;stroke-linejoin:miter;stroke-width:0.576446;"/>
   </g>
   <g id="patch_60">
    <path clip-path="url(#pe13aa2f7c1)" d="M 392.608661 224.64 
L 398.373124 224.64 
L 398.373124 224.64 
L 392.608661 224.64 
z
" style="fill:#ff7f0e;fill-opacity:0.5;stroke:#000000;stroke-linejoin:miter;stroke-width:0.576446;"/>
   </g>
   <g id="patch_61">
    <path clip-path="url(#pe13aa2f7c1)" d="M 398.373124 224.64 
L 404.137587 224.64 
L 404.137587 224.64 
L 398.373124 224.64 
z
" style="fill:#ff7f0e;fill-opacity:0.5;stroke:#000000;stroke-linejoin:miter;stroke-width:0.576446;"/>
   </g>
   <g id="patch_62">
    <path clip-path="url(#pe13aa2f7c1)" d="M 404.137587 224.64 
L 409.90205 224.64 
L 409.90205 224.64 
L 404.137587 224.64 
z
" style="fill:#ff7f0e;fill-opacity:0.5;stroke:#000000;stroke-linejoin:miter;stroke-width:0.576446;"/>
   </g>
   <g id="patch_63">
    <path clip-path="url(#pe13aa2f7c1)" d="M 409.90205 224.64 
L 415.666512 224.64 
L 415.666512 224.64 
L 409.90205 224.64 
z
" style="fill:#ff7f0e;fill-opacity:0.5;stroke:#000000;stroke-linejoin:miter;stroke-width:0.576446;"/>
   </g>
   <g id="patch_64">
    <path clip-path="url(#pe13aa2f7c1)" d="M 415.666512 224.64 
L 421.430975 224.64 
L 421.430975 224.64 
L 415.666512 224.64 
z
" style="fill:#ff7f0e;fill-opacity:0.5;stroke:#000000;stroke-linejoin:miter;stroke-width:0.576446;"/>
   </g>
   <g id="patch_65">
    <path clip-path="url(#pe13aa2f7c1)" d="M 421.430975 224.64 
L 427.195438 224.64 
L 427.195438 224.64 
L 421.430975 224.64 
z
" style="fill:#ff7f0e;fill-opacity:0.5;stroke:#000000;stroke-linejoin:miter;stroke-width:0.576446;"/>
   </g>
   <g id="patch_66">
    <path clip-path="url(#pe13aa2f7c1)" d="M 427.195438 224.64 
L 432.959901 224.64 
L 432.959901 221.299908 
L 427.195438 221.299908 
z
" style="fill:#ff7f0e;fill-opacity:0.5;stroke:#000000;stroke-linejoin:miter;stroke-width:0.576446;"/>
   </g>
   <g id="patch_67">
    <path clip-path="url(#pe13aa2f7c1)" d="M 64.034281 224.64 
L 69.798744 224.64 
L 69.798744 202.929401 
L 64.034281 202.929401 
z
" style="fill:#1f77b4;fill-opacity:0.5;stroke:#000000;stroke-linejoin:miter;stroke-width:0.576446;"/>
   </g>
   <g id="patch_68">
    <path clip-path="url(#pe13aa2f7c1)" d="M 69.798744 224.64 
L 75.563207 224.64 
L 75.563207 50.955207 
L 69.798744 50.955207 
z
" style="fill:#1f77b4;fill-opacity:0.5;stroke:#000000;stroke-linejoin:miter;stroke-width:0.576446;"/>
   </g>
   <g id="patch_69">
    <path clip-path="url(#pe13aa2f7c1)" d="M 75.563207 224.64 
L 81.327669 224.64 
L 81.327669 17.554286 
L 75.563207 17.554286 
z
" style="fill:#1f77b4;fill-opacity:0.5;stroke:#000000;stroke-linejoin:miter;stroke-width:0.576446;"/>
   </g>
   <g id="patch_70">
    <path clip-path="url(#pe13aa2f7c1)" d="M 81.327669 224.64 
L 87.092132 224.64 
L 87.092132 57.635392 
L 81.327669 57.635392 
z
" style="fill:#1f77b4;fill-opacity:0.5;stroke:#000000;stroke-linejoin:miter;stroke-width:0.576446;"/>
   </g>
   <g id="patch_71">
    <path clip-path="url(#pe13aa2f7c1)" d="M 87.092132 224.64 
L 92.856595 224.64 
L 92.856595 99.386544 
L 87.092132 99.386544 
z
" style="fill:#1f77b4;fill-opacity:0.5;stroke:#000000;stroke-linejoin:miter;stroke-width:0.576446;"/>
   </g>
   <g id="patch_72">
    <path clip-path="url(#pe13aa2f7c1)" d="M 92.856595 224.64 
L 98.621058 224.64 
L 98.621058 151.157972 
L 92.856595 151.157972 
z
" style="fill:#1f77b4;fill-opacity:0.5;stroke:#000000;stroke-linejoin:miter;stroke-width:0.576446;"/>
   </g>
   <g id="patch_73">
    <path clip-path="url(#pe13aa2f7c1)" d="M 98.621058 224.64 
L 104.385521 224.64 
L 104.385521 169.528479 
L 98.621058 169.528479 
z
" style="fill:#1f77b4;fill-opacity:0.5;stroke:#000000;stroke-linejoin:miter;stroke-width:0.576446;"/>
   </g>
   <g id="patch_74">
    <path clip-path="url(#pe13aa2f7c1)" d="M 104.385521 224.64 
L 110.149983 224.64 
L 110.149983 172.868571 
L 104.385521 172.868571 
z
" style="fill:#1f77b4;fill-opacity:0.5;stroke:#000000;stroke-linejoin:miter;stroke-width:0.576446;"/>
   </g>
   <g id="patch_75">
    <path clip-path="url(#pe13aa2f7c1)" d="M 110.149983 224.64 
L 115.914446 224.64 
L 115.914446 192.909124 
L 110.149983 192.909124 
z
" style="fill:#1f77b4;fill-opacity:0.5;stroke:#000000;stroke-linejoin:miter;stroke-width:0.576446;"/>
   </g>
   <g id="patch_76">
    <path clip-path="url(#pe13aa2f7c1)" d="M 115.914446 224.64 
L 121.678909 224.64 
L 121.678909 196.249217 
L 115.914446 196.249217 
z
" style="fill:#1f77b4;fill-opacity:0.5;stroke:#000000;stroke-linejoin:miter;stroke-width:0.576446;"/>
   </g>
   <g id="patch_77">
    <path clip-path="url(#pe13aa2f7c1)" d="M 121.678909 224.64 
L 127.443372 224.64 
L 127.443372 197.919263 
L 121.678909 197.919263 
z
" style="fill:#1f77b4;fill-opacity:0.5;stroke:#000000;stroke-linejoin:miter;stroke-width:0.576446;"/>
   </g>
   <g id="patch_78">
    <path clip-path="url(#pe13aa2f7c1)" d="M 127.443372 224.64 
L 133.207835 224.64 
L 133.207835 204.599447 
L 127.443372 204.599447 
z
" style="fill:#1f77b4;fill-opacity:0.5;stroke:#000000;stroke-linejoin:miter;stroke-width:0.576446;"/>
   </g>
   <g id="patch_79">
    <path clip-path="url(#pe13aa2f7c1)" d="M 133.207835 224.64 
L 138.972298 224.64 
L 138.972298 194.579171 
L 133.207835 194.579171 
z
" style="fill:#1f77b4;fill-opacity:0.5;stroke:#000000;stroke-linejoin:miter;stroke-width:0.576446;"/>
   </g>
   <g id="patch_80">
    <path clip-path="url(#pe13aa2f7c1)" d="M 138.972298 224.64 
L 144.73676 224.64 
L 144.73676 209.609585 
L 138.972298 209.609585 
z
" style="fill:#1f77b4;fill-opacity:0.5;stroke:#000000;stroke-linejoin:miter;stroke-width:0.576446;"/>
   </g>
   <g id="patch_81">
    <path clip-path="url(#pe13aa2f7c1)" d="M 144.73676 224.64 
L 150.501223 224.64 
L 150.501223 212.949677 
L 144.73676 212.949677 
z
" style="fill:#1f77b4;fill-opacity:0.5;stroke:#000000;stroke-linejoin:miter;stroke-width:0.576446;"/>
   </g>
   <g id="patch_82">
    <path clip-path="url(#pe13aa2f7c1)" d="M 150.501223 224.64 
L 156.265686 224.64 
L 156.265686 206.269493 
L 150.501223 206.269493 
z
" style="fill:#1f77b4;fill-opacity:0.5;stroke:#000000;stroke-linejoin:miter;stroke-width:0.576446;"/>
   </g>
   <g id="patch_83">
    <path clip-path="url(#pe13aa2f7c1)" d="M 156.265686 224.64 
L 162.030149 224.64 
L 162.030149 214.619724 
L 156.265686 214.619724 
z
" style="fill:#1f77b4;fill-opacity:0.5;stroke:#000000;stroke-linejoin:miter;stroke-width:0.576446;"/>
   </g>
   <g id="patch_84">
    <path clip-path="url(#pe13aa2f7c1)" d="M 162.030149 224.64 
L 167.794612 224.64 
L 167.794612 212.949677 
L 162.030149 212.949677 
z
" style="fill:#1f77b4;fill-opacity:0.5;stroke:#000000;stroke-linejoin:miter;stroke-width:0.576446;"/>
   </g>
   <g id="patch_85">
    <path clip-path="url(#pe13aa2f7c1)" d="M 167.794612 224.64 
L 173.559074 224.64 
L 173.559074 217.959816 
L 167.794612 217.959816 
z
" style="fill:#1f77b4;fill-opacity:0.5;stroke:#000000;stroke-linejoin:miter;stroke-width:0.576446;"/>
   </g>
   <g id="patch_86">
    <path clip-path="url(#pe13aa2f7c1)" d="M 173.559074 224.64 
L 179.323537 224.64 
L 179.323537 209.609585 
L 173.559074 209.609585 
z
" style="fill:#1f77b4;fill-opacity:0.5;stroke:#000000;stroke-linejoin:miter;stroke-width:0.576446;"/>
   </g>
   <g id="patch_87">
    <path clip-path="url(#pe13aa2f7c1)" d="M 179.323537 224.64 
L 185.088 224.64 
L 185.088 209.609585 
L 179.323537 209.609585 
z
" style="fill:#1f77b4;fill-opacity:0.5;stroke:#000000;stroke-linejoin:miter;stroke-width:0.576446;"/>
   </g>
   <g id="patch_88">
    <path clip-path="url(#pe13aa2f7c1)" d="M 185.088 224.64 
L 190.852463 224.64 
L 190.852463 212.949677 
L 185.088 212.949677 
z
" style="fill:#1f77b4;fill-opacity:0.5;stroke:#000000;stroke-linejoin:miter;stroke-width:0.576446;"/>
   </g>
   <g id="patch_89">
    <path clip-path="url(#pe13aa2f7c1)" d="M 190.852463 224.64 
L 196.616926 224.64 
L 196.616926 219.629862 
L 190.852463 219.629862 
z
" style="fill:#1f77b4;fill-opacity:0.5;stroke:#000000;stroke-linejoin:miter;stroke-width:0.576446;"/>
   </g>
   <g id="patch_90">
    <path clip-path="url(#pe13aa2f7c1)" d="M 196.616926 224.64 
L 202.381388 224.64 
L 202.381388 216.28977 
L 196.616926 216.28977 
z
" style="fill:#1f77b4;fill-opacity:0.5;stroke:#000000;stroke-linejoin:miter;stroke-width:0.576446;"/>
   </g>
   <g id="patch_91">
    <path clip-path="url(#pe13aa2f7c1)" d="M 202.381388 224.64 
L 208.145851 224.64 
L 208.145851 214.619724 
L 202.381388 214.619724 
z
" style="fill:#1f77b4;fill-opacity:0.5;stroke:#000000;stroke-linejoin:miter;stroke-width:0.576446;"/>
   </g>
   <g id="patch_92">
    <path clip-path="url(#pe13aa2f7c1)" d="M 208.145851 224.64 
L 213.910314 224.64 
L 213.910314 219.629862 
L 208.145851 219.629862 
z
" style="fill:#1f77b4;fill-opacity:0.5;stroke:#000000;stroke-linejoin:miter;stroke-width:0.576446;"/>
   </g>
   <g id="patch_93">
    <path clip-path="url(#pe13aa2f7c1)" d="M 213.910314 224.64 
L 219.674777 224.64 
L 219.674777 219.629862 
L 213.910314 219.629862 
z
" style="fill:#1f77b4;fill-opacity:0.5;stroke:#000000;stroke-linejoin:miter;stroke-width:0.576446;"/>
   </g>
   <g id="patch_94">
    <path clip-path="url(#pe13aa2f7c1)" d="M 219.674777 224.64 
L 225.43924 224.64 
L 225.43924 219.629862 
L 219.674777 219.629862 
z
" style="fill:#1f77b4;fill-opacity:0.5;stroke:#000000;stroke-linejoin:miter;stroke-width:0.576446;"/>
   </g>
   <g id="patch_95">
    <path clip-path="url(#pe13aa2f7c1)" d="M 225.43924 224.64 
L 231.203702 224.64 
L 231.203702 224.64 
L 225.43924 224.64 
z
" style="fill:#1f77b4;fill-opacity:0.5;stroke:#000000;stroke-linejoin:miter;stroke-width:0.576446;"/>
   </g>
   <g id="patch_96">
    <path clip-path="url(#pe13aa2f7c1)" d="M 231.203702 224.64 
L 236.968165 224.64 
L 236.968165 224.64 
L 231.203702 224.64 
z
" style="fill:#1f77b4;fill-opacity:0.5;stroke:#000000;stroke-linejoin:miter;stroke-width:0.576446;"/>
   </g>
   <g id="patch_97">
    <path clip-path="url(#pe13aa2f7c1)" d="M 236.968165 224.64 
L 242.732628 224.64 
L 242.732628 222.969954 
L 236.968165 222.969954 
z
" style="fill:#1f77b4;fill-opacity:0.5;stroke:#000000;stroke-linejoin:miter;stroke-width:0.576446;"/>
   </g>
   <g id="patch_98">
    <path clip-path="url(#pe13aa2f7c1)" d="M 242.732628 224.64 
L 248.497091 224.64 
L 248.497091 221.299908 
L 242.732628 221.299908 
z
" style="fill:#1f77b4;fill-opacity:0.5;stroke:#000000;stroke-linejoin:miter;stroke-width:0.576446;"/>
   </g>
   <g id="patch_99">
    <path clip-path="url(#pe13aa2f7c1)" d="M 248.497091 224.64 
L 254.261554 224.64 
L 254.261554 222.969954 
L 248.497091 222.969954 
z
" style="fill:#1f77b4;fill-opacity:0.5;stroke:#000000;stroke-linejoin:miter;stroke-width:0.576446;"/>
   </g>
   <g id="patch_100">
    <path clip-path="url(#pe13aa2f7c1)" d="M 254.261554 224.64 
L 260.026017 224.64 
L 260.026017 221.299908 
L 254.261554 221.299908 
z
" style="fill:#1f77b4;fill-opacity:0.5;stroke:#000000;stroke-linejoin:miter;stroke-width:0.576446;"/>
   </g>
   <g id="patch_101">
    <path clip-path="url(#pe13aa2f7c1)" d="M 260.026017 224.64 
L 265.790479 224.64 
L 265.790479 221.299908 
L 260.026017 221.299908 
z
" style="fill:#1f77b4;fill-opacity:0.5;stroke:#000000;stroke-linejoin:miter;stroke-width:0.576446;"/>
   </g>
   <g id="patch_102">
    <path clip-path="url(#pe13aa2f7c1)" d="M 265.790479 224.64 
L 271.554942 224.64 
L 271.554942 222.969954 
L 265.790479 222.969954 
z
" style="fill:#1f77b4;fill-opacity:0.5;stroke:#000000;stroke-linejoin:miter;stroke-width:0.576446;"/>
   </g>
   <g id="patch_103">
    <path clip-path="url(#pe13aa2f7c1)" d="M 271.554942 224.64 
L 277.319405 224.64 
L 277.319405 224.64 
L 271.554942 224.64 
z
" style="fill:#1f77b4;fill-opacity:0.5;stroke:#000000;stroke-linejoin:miter;stroke-width:0.576446;"/>
   </g>
   <g id="patch_104">
    <path clip-path="url(#pe13aa2f7c1)" d="M 277.319405 224.64 
L 283.083868 224.64 
L 283.083868 222.969954 
L 277.319405 222.969954 
z
" style="fill:#1f77b4;fill-opacity:0.5;stroke:#000000;stroke-linejoin:miter;stroke-width:0.576446;"/>
   </g>
   <g id="patch_105">
    <path clip-path="url(#pe13aa2f7c1)" d="M 283.083868 224.64 
L 288.848331 224.64 
L 288.848331 224.64 
L 283.083868 224.64 
z
" style="fill:#1f77b4;fill-opacity:0.5;stroke:#000000;stroke-linejoin:miter;stroke-width:0.576446;"/>
   </g>
   <g id="patch_106">
    <path clip-path="url(#pe13aa2f7c1)" d="M 288.848331 224.64 
L 294.612793 224.64 
L 294.612793 221.299908 
L 288.848331 221.299908 
z
" style="fill:#1f77b4;fill-opacity:0.5;stroke:#000000;stroke-linejoin:miter;stroke-width:0.576446;"/>
   </g>
   <g id="patch_107">
    <path clip-path="url(#pe13aa2f7c1)" d="M 294.612793 224.64 
L 300.377256 224.64 
L 300.377256 221.299908 
L 294.612793 221.299908 
z
" style="fill:#1f77b4;fill-opacity:0.5;stroke:#000000;stroke-linejoin:miter;stroke-width:0.576446;"/>
   </g>
   <g id="patch_108">
    <path clip-path="url(#pe13aa2f7c1)" d="M 300.377256 224.64 
L 306.141719 224.64 
L 306.141719 216.28977 
L 300.377256 216.28977 
z
" style="fill:#1f77b4;fill-opacity:0.5;stroke:#000000;stroke-linejoin:miter;stroke-width:0.576446;"/>
   </g>
   <g id="patch_109">
    <path clip-path="url(#pe13aa2f7c1)" d="M 306.141719 224.64 
L 311.906182 224.64 
L 311.906182 222.969954 
L 306.141719 222.969954 
z
" style="fill:#1f77b4;fill-opacity:0.5;stroke:#000000;stroke-linejoin:miter;stroke-width:0.576446;"/>
   </g>
   <g id="patch_110">
    <path clip-path="url(#pe13aa2f7c1)" d="M 311.906182 224.64 
L 317.670645 224.64 
L 317.670645 222.969954 
L 311.906182 222.969954 
z
" style="fill:#1f77b4;fill-opacity:0.5;stroke:#000000;stroke-linejoin:miter;stroke-width:0.576446;"/>
   </g>
   <g id="patch_111">
    <path clip-path="url(#pe13aa2f7c1)" d="M 317.670645 224.64 
L 323.435107 224.64 
L 323.435107 222.969954 
L 317.670645 222.969954 
z
" style="fill:#1f77b4;fill-opacity:0.5;stroke:#000000;stroke-linejoin:miter;stroke-width:0.576446;"/>
   </g>
   <g id="patch_112">
    <path clip-path="url(#pe13aa2f7c1)" d="M 323.435107 224.64 
L 329.19957 224.64 
L 329.19957 224.64 
L 323.435107 224.64 
z
" style="fill:#1f77b4;fill-opacity:0.5;stroke:#000000;stroke-linejoin:miter;stroke-width:0.576446;"/>
   </g>
   <g id="patch_113">
    <path clip-path="url(#pe13aa2f7c1)" d="M 329.19957 224.64 
L 334.964033 224.64 
L 334.964033 222.969954 
L 329.19957 222.969954 
z
" style="fill:#1f77b4;fill-opacity:0.5;stroke:#000000;stroke-linejoin:miter;stroke-width:0.576446;"/>
   </g>
   <g id="patch_114">
    <path clip-path="url(#pe13aa2f7c1)" d="M 334.964033 224.64 
L 340.728496 224.64 
L 340.728496 224.64 
L 334.964033 224.64 
z
" style="fill:#1f77b4;fill-opacity:0.5;stroke:#000000;stroke-linejoin:miter;stroke-width:0.576446;"/>
   </g>
   <g id="patch_115">
    <path clip-path="url(#pe13aa2f7c1)" d="M 340.728496 224.64 
L 346.492959 224.64 
L 346.492959 224.64 
L 340.728496 224.64 
z
" style="fill:#1f77b4;fill-opacity:0.5;stroke:#000000;stroke-linejoin:miter;stroke-width:0.576446;"/>
   </g>
   <g id="patch_116">
    <path clip-path="url(#pe13aa2f7c1)" d="M 346.492959 224.64 
L 352.257421 224.64 
L 352.257421 222.969954 
L 346.492959 222.969954 
z
" style="fill:#1f77b4;fill-opacity:0.5;stroke:#000000;stroke-linejoin:miter;stroke-width:0.576446;"/>
   </g>
   <g id="patch_117">
    <path clip-path="url(#pe13aa2f7c1)" d="M 352.257421 224.64 
L 358.021884 224.64 
L 358.021884 221.299908 
L 352.257421 221.299908 
z
" style="fill:#1f77b4;fill-opacity:0.5;stroke:#000000;stroke-linejoin:miter;stroke-width:0.576446;"/>
   </g>
   <g id="patch_118">
    <path clip-path="url(#pe13aa2f7c1)" d="M 358.021884 224.64 
L 363.786347 224.64 
L 363.786347 224.64 
L 358.021884 224.64 
z
" style="fill:#1f77b4;fill-opacity:0.5;stroke:#000000;stroke-linejoin:miter;stroke-width:0.576446;"/>
   </g>
   <g id="patch_119">
    <path clip-path="url(#pe13aa2f7c1)" d="M 363.786347 224.64 
L 369.55081 224.64 
L 369.55081 222.969954 
L 363.786347 222.969954 
z
" style="fill:#1f77b4;fill-opacity:0.5;stroke:#000000;stroke-linejoin:miter;stroke-width:0.576446;"/>
   </g>
   <g id="patch_120">
    <path clip-path="url(#pe13aa2f7c1)" d="M 369.55081 224.64 
L 375.315273 224.64 
L 375.315273 224.64 
L 369.55081 224.64 
z
" style="fill:#1f77b4;fill-opacity:0.5;stroke:#000000;stroke-linejoin:miter;stroke-width:0.576446;"/>
   </g>
   <g id="patch_121">
    <path clip-path="url(#pe13aa2f7c1)" d="M 375.315273 224.64 
L 381.079736 224.64 
L 381.079736 224.64 
L 375.315273 224.64 
z
" style="fill:#1f77b4;fill-opacity:0.5;stroke:#000000;stroke-linejoin:miter;stroke-width:0.576446;"/>
   </g>
   <g id="patch_122">
    <path clip-path="url(#pe13aa2f7c1)" d="M 381.079736 224.64 
L 386.844198 224.64 
L 386.844198 224.64 
L 381.079736 224.64 
z
" style="fill:#1f77b4;fill-opacity:0.5;stroke:#000000;stroke-linejoin:miter;stroke-width:0.576446;"/>
   </g>
   <g id="patch_123">
    <path clip-path="url(#pe13aa2f7c1)" d="M 386.844198 224.64 
L 392.608661 224.64 
L 392.608661 224.64 
L 386.844198 224.64 
z
" style="fill:#1f77b4;fill-opacity:0.5;stroke:#000000;stroke-linejoin:miter;stroke-width:0.576446;"/>
   </g>
   <g id="patch_124">
    <path clip-path="url(#pe13aa2f7c1)" d="M 392.608661 224.64 
L 398.373124 224.64 
L 398.373124 224.64 
L 392.608661 224.64 
z
" style="fill:#1f77b4;fill-opacity:0.5;stroke:#000000;stroke-linejoin:miter;stroke-width:0.576446;"/>
   </g>
   <g id="patch_125">
    <path clip-path="url(#pe13aa2f7c1)" d="M 398.373124 224.64 
L 404.137587 224.64 
L 404.137587 224.64 
L 398.373124 224.64 
z
" style="fill:#1f77b4;fill-opacity:0.5;stroke:#000000;stroke-linejoin:miter;stroke-width:0.576446;"/>
   </g>
   <g id="patch_126">
    <path clip-path="url(#pe13aa2f7c1)" d="M 404.137587 224.64 
L 409.90205 224.64 
L 409.90205 224.64 
L 404.137587 224.64 
z
" style="fill:#1f77b4;fill-opacity:0.5;stroke:#000000;stroke-linejoin:miter;stroke-width:0.576446;"/>
   </g>
   <g id="patch_127">
    <path clip-path="url(#pe13aa2f7c1)" d="M 409.90205 224.64 
L 415.666512 224.64 
L 415.666512 224.64 
L 409.90205 224.64 
z
" style="fill:#1f77b4;fill-opacity:0.5;stroke:#000000;stroke-linejoin:miter;stroke-width:0.576446;"/>
   </g>
   <g id="patch_128">
    <path clip-path="url(#pe13aa2f7c1)" d="M 415.666512 224.64 
L 421.430975 224.64 
L 421.430975 224.64 
L 415.666512 224.64 
z
" style="fill:#1f77b4;fill-opacity:0.5;stroke:#000000;stroke-linejoin:miter;stroke-width:0.576446;"/>
   </g>
   <g id="patch_129">
    <path clip-path="url(#pe13aa2f7c1)" d="M 421.430975 224.64 
L 427.195438 224.64 
L 427.195438 224.64 
L 421.430975 224.64 
z
" style="fill:#1f77b4;fill-opacity:0.5;stroke:#000000;stroke-linejoin:miter;stroke-width:0.576446;"/>
   </g>
   <g id="patch_130">
    <path clip-path="url(#pe13aa2f7c1)" d="M 427.195438 224.64 
L 432.959901 224.64 
L 432.959901 222.969954 
L 427.195438 222.969954 
z
" style="fill:#1f77b4;fill-opacity:0.5;stroke:#000000;stroke-linejoin:miter;stroke-width:0.576446;"/>
   </g>
   <g id="matplotlib.axis_1">
    <g id="xtick_1">
     <g id="line2d_1">
      <defs>
       <path d="M 0 0 
L 0 4.8 
" id="mbe5e0a9997" style="stroke:#000000;"/>
      </defs>
      <g>
       <use style="stroke:#000000;" x="63.977806" xlink:href="#mbe5e0a9997" y="224.64"/>
      </g>
     </g>
     <g id="text_1">
      <!-- 0 -->
      <g transform="translate(61.178306 239.626625)scale(0.088 -0.088)">
       <defs>
        <path d="M 2034 4250 
Q 1547 4250 1301 3770 
Q 1056 3291 1056 2328 
Q 1056 1369 1301 889 
Q 1547 409 2034 409 
Q 2525 409 2770 889 
Q 3016 1369 3016 2328 
Q 3016 3291 2770 3770 
Q 2525 4250 2034 4250 
z
M 2034 4750 
Q 2819 4750 3233 4129 
Q 3647 3509 3647 2328 
Q 3647 1150 3233 529 
Q 2819 -91 2034 -91 
Q 1250 -91 836 529 
Q 422 1150 422 2328 
Q 422 3509 836 4129 
Q 1250 4750 2034 4750 
z
" id="DejaVuSans-30" transform="scale(0.015625)"/>
       </defs>
       <use xlink:href="#DejaVuSans-30"/>
      </g>
     </g>
    </g>
    <g id="xtick_2">
     <g id="line2d_2">
      <g>
       <use style="stroke:#000000;" x="133.348888" xlink:href="#mbe5e0a9997" y="224.64"/>
      </g>
     </g>
     <g id="text_2">
      <!-- 2000 -->
      <g transform="translate(122.150888 239.626625)scale(0.088 -0.088)">
       <defs>
        <path d="M 1228 531 
L 3431 531 
L 3431 0 
L 469 0 
L 469 531 
Q 828 903 1448 1529 
Q 2069 2156 2228 2338 
Q 2531 2678 2651 2914 
Q 2772 3150 2772 3378 
Q 2772 3750 2511 3984 
Q 2250 4219 1831 4219 
Q 1534 4219 1204 4116 
Q 875 4013 500 3803 
L 500 4441 
Q 881 4594 1212 4672 
Q 1544 4750 1819 4750 
Q 2544 4750 2975 4387 
Q 3406 4025 3406 3419 
Q 3406 3131 3298 2873 
Q 3191 2616 2906 2266 
Q 2828 2175 2409 1742 
Q 1991 1309 1228 531 
z
" id="DejaVuSans-32" transform="scale(0.015625)"/>
       </defs>
       <use xlink:href="#DejaVuSans-32"/>
       <use x="63.623047" xlink:href="#DejaVuSans-30"/>
       <use x="127.246094" xlink:href="#DejaVuSans-30"/>
       <use x="190.869141" xlink:href="#DejaVuSans-30"/>
      </g>
     </g>
    </g>
    <g id="xtick_3">
     <g id="line2d_3">
      <g>
       <use style="stroke:#000000;" x="202.719969" xlink:href="#mbe5e0a9997" y="224.64"/>
      </g>
     </g>
     <g id="text_3">
      <!-- 4000 -->
      <g transform="translate(191.521969 239.626625)scale(0.088 -0.088)">
       <defs>
        <path d="M 2419 4116 
L 825 1625 
L 2419 1625 
L 2419 4116 
z
M 2253 4666 
L 3047 4666 
L 3047 1625 
L 3713 1625 
L 3713 1100 
L 3047 1100 
L 3047 0 
L 2419 0 
L 2419 1100 
L 313 1100 
L 313 1709 
L 2253 4666 
z
" id="DejaVuSans-34" transform="scale(0.015625)"/>
       </defs>
       <use xlink:href="#DejaVuSans-34"/>
       <use x="63.623047" xlink:href="#DejaVuSans-30"/>
       <use x="127.246094" xlink:href="#DejaVuSans-30"/>
       <use x="190.869141" xlink:href="#DejaVuSans-30"/>
      </g>
     </g>
    </g>
    <g id="xtick_4">
     <g id="line2d_4">
      <g>
       <use style="stroke:#000000;" x="272.09105" xlink:href="#mbe5e0a9997" y="224.64"/>
      </g>
     </g>
     <g id="text_4">
      <!-- 6000 -->
      <g transform="translate(260.89305 239.626625)scale(0.088 -0.088)">
       <defs>
        <path d="M 2113 2584 
Q 1688 2584 1439 2293 
Q 1191 2003 1191 1497 
Q 1191 994 1439 701 
Q 1688 409 2113 409 
Q 2538 409 2786 701 
Q 3034 994 3034 1497 
Q 3034 2003 2786 2293 
Q 2538 2584 2113 2584 
z
M 3366 4563 
L 3366 3988 
Q 3128 4100 2886 4159 
Q 2644 4219 2406 4219 
Q 1781 4219 1451 3797 
Q 1122 3375 1075 2522 
Q 1259 2794 1537 2939 
Q 1816 3084 2150 3084 
Q 2853 3084 3261 2657 
Q 3669 2231 3669 1497 
Q 3669 778 3244 343 
Q 2819 -91 2113 -91 
Q 1303 -91 875 529 
Q 447 1150 447 2328 
Q 447 3434 972 4092 
Q 1497 4750 2381 4750 
Q 2619 4750 2861 4703 
Q 3103 4656 3366 4563 
z
" id="DejaVuSans-36" transform="scale(0.015625)"/>
       </defs>
       <use xlink:href="#DejaVuSans-36"/>
       <use x="63.623047" xlink:href="#DejaVuSans-30"/>
       <use x="127.246094" xlink:href="#DejaVuSans-30"/>
       <use x="190.869141" xlink:href="#DejaVuSans-30"/>
      </g>
     </g>
    </g>
    <g id="xtick_5">
     <g id="line2d_5">
      <g>
       <use style="stroke:#000000;" x="341.462132" xlink:href="#mbe5e0a9997" y="224.64"/>
      </g>
     </g>
     <g id="text_5">
      <!-- 8000 -->
      <g transform="translate(330.264132 239.626625)scale(0.088 -0.088)">
       <defs>
        <path d="M 2034 2216 
Q 1584 2216 1326 1975 
Q 1069 1734 1069 1313 
Q 1069 891 1326 650 
Q 1584 409 2034 409 
Q 2484 409 2743 651 
Q 3003 894 3003 1313 
Q 3003 1734 2745 1975 
Q 2488 2216 2034 2216 
z
M 1403 2484 
Q 997 2584 770 2862 
Q 544 3141 544 3541 
Q 544 4100 942 4425 
Q 1341 4750 2034 4750 
Q 2731 4750 3128 4425 
Q 3525 4100 3525 3541 
Q 3525 3141 3298 2862 
Q 3072 2584 2669 2484 
Q 3125 2378 3379 2068 
Q 3634 1759 3634 1313 
Q 3634 634 3220 271 
Q 2806 -91 2034 -91 
Q 1263 -91 848 271 
Q 434 634 434 1313 
Q 434 1759 690 2068 
Q 947 2378 1403 2484 
z
M 1172 3481 
Q 1172 3119 1398 2916 
Q 1625 2713 2034 2713 
Q 2441 2713 2670 2916 
Q 2900 3119 2900 3481 
Q 2900 3844 2670 4047 
Q 2441 4250 2034 4250 
Q 1625 4250 1398 4047 
Q 1172 3844 1172 3481 
z
" id="DejaVuSans-38" transform="scale(0.015625)"/>
       </defs>
       <use xlink:href="#DejaVuSans-38"/>
       <use x="63.623047" xlink:href="#DejaVuSans-30"/>
       <use x="127.246094" xlink:href="#DejaVuSans-30"/>
       <use x="190.869141" xlink:href="#DejaVuSans-30"/>
      </g>
     </g>
    </g>
    <g id="xtick_6">
     <g id="line2d_6">
      <g>
       <use style="stroke:#000000;" x="410.833213" xlink:href="#mbe5e0a9997" y="224.64"/>
      </g>
     </g>
     <g id="text_6">
      <!-- 10000 -->
      <g transform="translate(396.835713 239.626625)scale(0.088 -0.088)">
       <defs>
        <path d="M 794 531 
L 1825 531 
L 1825 4091 
L 703 3866 
L 703 4441 
L 1819 4666 
L 2450 4666 
L 2450 531 
L 3481 531 
L 3481 0 
L 794 0 
L 794 531 
z
" id="DejaVuSans-31" transform="scale(0.015625)"/>
       </defs>
       <use xlink:href="#DejaVuSans-31"/>
       <use x="63.623047" xlink:href="#DejaVuSans-30"/>
       <use x="127.246094" xlink:href="#DejaVuSans-30"/>
       <use x="190.869141" xlink:href="#DejaVuSans-30"/>
       <use x="254.492188" xlink:href="#DejaVuSans-30"/>
      </g>
     </g>
    </g>
    <g id="text_7">
     <!-- MeanSqErr -->
     <g transform="translate(222.428591 252.75125)scale(0.096 -0.096)">
      <defs>
       <path d="M 628 4666 
L 1569 4666 
L 2759 1491 
L 3956 4666 
L 4897 4666 
L 4897 0 
L 4281 0 
L 4281 4097 
L 3078 897 
L 2444 897 
L 1241 4097 
L 1241 0 
L 628 0 
L 628 4666 
z
" id="DejaVuSans-4d" transform="scale(0.015625)"/>
       <path d="M 3597 1894 
L 3597 1613 
L 953 1613 
Q 991 1019 1311 708 
Q 1631 397 2203 397 
Q 2534 397 2845 478 
Q 3156 559 3463 722 
L 3463 178 
Q 3153 47 2828 -22 
Q 2503 -91 2169 -91 
Q 1331 -91 842 396 
Q 353 884 353 1716 
Q 353 2575 817 3079 
Q 1281 3584 2069 3584 
Q 2775 3584 3186 3129 
Q 3597 2675 3597 1894 
z
M 3022 2063 
Q 3016 2534 2758 2815 
Q 2500 3097 2075 3097 
Q 1594 3097 1305 2825 
Q 1016 2553 972 2059 
L 3022 2063 
z
" id="DejaVuSans-65" transform="scale(0.015625)"/>
       <path d="M 2194 1759 
Q 1497 1759 1228 1600 
Q 959 1441 959 1056 
Q 959 750 1161 570 
Q 1363 391 1709 391 
Q 2188 391 2477 730 
Q 2766 1069 2766 1631 
L 2766 1759 
L 2194 1759 
z
M 3341 1997 
L 3341 0 
L 2766 0 
L 2766 531 
Q 2569 213 2275 61 
Q 1981 -91 1556 -91 
Q 1019 -91 701 211 
Q 384 513 384 1019 
Q 384 1609 779 1909 
Q 1175 2209 1959 2209 
L 2766 2209 
L 2766 2266 
Q 2766 2663 2505 2880 
Q 2244 3097 1772 3097 
Q 1472 3097 1187 3025 
Q 903 2953 641 2809 
L 641 3341 
Q 956 3463 1253 3523 
Q 1550 3584 1831 3584 
Q 2591 3584 2966 3190 
Q 3341 2797 3341 1997 
z
" id="DejaVuSans-61" transform="scale(0.015625)"/>
       <path d="M 3513 2113 
L 3513 0 
L 2938 0 
L 2938 2094 
Q 2938 2591 2744 2837 
Q 2550 3084 2163 3084 
Q 1697 3084 1428 2787 
Q 1159 2491 1159 1978 
L 1159 0 
L 581 0 
L 581 3500 
L 1159 3500 
L 1159 2956 
Q 1366 3272 1645 3428 
Q 1925 3584 2291 3584 
Q 2894 3584 3203 3211 
Q 3513 2838 3513 2113 
z
" id="DejaVuSans-6e" transform="scale(0.015625)"/>
       <path d="M 3425 4513 
L 3425 3897 
Q 3066 4069 2747 4153 
Q 2428 4238 2131 4238 
Q 1616 4238 1336 4038 
Q 1056 3838 1056 3469 
Q 1056 3159 1242 3001 
Q 1428 2844 1947 2747 
L 2328 2669 
Q 3034 2534 3370 2195 
Q 3706 1856 3706 1288 
Q 3706 609 3251 259 
Q 2797 -91 1919 -91 
Q 1588 -91 1214 -16 
Q 841 59 441 206 
L 441 856 
Q 825 641 1194 531 
Q 1563 422 1919 422 
Q 2459 422 2753 634 
Q 3047 847 3047 1241 
Q 3047 1584 2836 1778 
Q 2625 1972 2144 2069 
L 1759 2144 
Q 1053 2284 737 2584 
Q 422 2884 422 3419 
Q 422 4038 858 4394 
Q 1294 4750 2059 4750 
Q 2388 4750 2728 4690 
Q 3069 4631 3425 4513 
z
" id="DejaVuSans-53" transform="scale(0.015625)"/>
       <path d="M 947 1747 
Q 947 1113 1208 752 
Q 1469 391 1925 391 
Q 2381 391 2643 752 
Q 2906 1113 2906 1747 
Q 2906 2381 2643 2742 
Q 2381 3103 1925 3103 
Q 1469 3103 1208 2742 
Q 947 2381 947 1747 
z
M 2906 525 
Q 2725 213 2448 61 
Q 2172 -91 1784 -91 
Q 1150 -91 751 415 
Q 353 922 353 1747 
Q 353 2572 751 3078 
Q 1150 3584 1784 3584 
Q 2172 3584 2448 3432 
Q 2725 3281 2906 2969 
L 2906 3500 
L 3481 3500 
L 3481 -1331 
L 2906 -1331 
L 2906 525 
z
" id="DejaVuSans-71" transform="scale(0.015625)"/>
       <path d="M 628 4666 
L 3578 4666 
L 3578 4134 
L 1259 4134 
L 1259 2753 
L 3481 2753 
L 3481 2222 
L 1259 2222 
L 1259 531 
L 3634 531 
L 3634 0 
L 628 0 
L 628 4666 
z
" id="DejaVuSans-45" transform="scale(0.015625)"/>
       <path d="M 2631 2963 
Q 2534 3019 2420 3045 
Q 2306 3072 2169 3072 
Q 1681 3072 1420 2755 
Q 1159 2438 1159 1844 
L 1159 0 
L 581 0 
L 581 3500 
L 1159 3500 
L 1159 2956 
Q 1341 3275 1631 3429 
Q 1922 3584 2338 3584 
Q 2397 3584 2469 3576 
Q 2541 3569 2628 3553 
L 2631 2963 
z
" id="DejaVuSans-72" transform="scale(0.015625)"/>
      </defs>
      <use xlink:href="#DejaVuSans-4d"/>
      <use x="86.279297" xlink:href="#DejaVuSans-65"/>
      <use x="147.802734" xlink:href="#DejaVuSans-61"/>
      <use x="209.082031" xlink:href="#DejaVuSans-6e"/>
      <use x="272.460938" xlink:href="#DejaVuSans-53"/>
      <use x="335.9375" xlink:href="#DejaVuSans-71"/>
      <use x="399.414062" xlink:href="#DejaVuSans-45"/>
      <use x="462.597656" xlink:href="#DejaVuSans-72"/>
      <use x="501.960938" xlink:href="#DejaVuSans-72"/>
     </g>
    </g>
   </g>
   <g id="matplotlib.axis_2">
    <g id="ytick_1">
     <g id="line2d_7">
      <defs>
       <path d="M 0 0 
L -4.8 0 
" id="m3e8af38c49" style="stroke:#000000;"/>
      </defs>
      <g>
       <use style="stroke:#000000;" x="45.588" xlink:href="#m3e8af38c49" y="224.64"/>
      </g>
     </g>
     <g id="text_8">
      <!-- 0 -->
      <g transform="translate(31.689 227.983312)scale(0.088 -0.088)">
       <use xlink:href="#DejaVuSans-30"/>
      </g>
     </g>
    </g>
    <g id="ytick_2">
     <g id="line2d_8">
      <g>
       <use style="stroke:#000000;" x="45.588" xlink:href="#m3e8af38c49" y="191.239078"/>
      </g>
     </g>
     <g id="text_9">
      <!-- 20 -->
      <g transform="translate(26.09 194.582391)scale(0.088 -0.088)">
       <use xlink:href="#DejaVuSans-32"/>
       <use x="63.623047" xlink:href="#DejaVuSans-30"/>
      </g>
     </g>
    </g>
    <g id="ytick_3">
     <g id="line2d_9">
      <g>
       <use style="stroke:#000000;" x="45.588" xlink:href="#m3e8af38c49" y="157.838157"/>
      </g>
     </g>
     <g id="text_10">
      <!-- 40 -->
      <g transform="translate(26.09 161.181469)scale(0.088 -0.088)">
       <use xlink:href="#DejaVuSans-34"/>
       <use x="63.623047" xlink:href="#DejaVuSans-30"/>
      </g>
     </g>
    </g>
    <g id="ytick_4">
     <g id="line2d_10">
      <g>
       <use style="stroke:#000000;" x="45.588" xlink:href="#m3e8af38c49" y="124.437235"/>
      </g>
     </g>
     <g id="text_11">
      <!-- 60 -->
      <g transform="translate(26.09 127.780548)scale(0.088 -0.088)">
       <use xlink:href="#DejaVuSans-36"/>
       <use x="63.623047" xlink:href="#DejaVuSans-30"/>
      </g>
     </g>
    </g>
    <g id="ytick_5">
     <g id="line2d_11">
      <g>
       <use style="stroke:#000000;" x="45.588" xlink:href="#m3e8af38c49" y="91.036313"/>
      </g>
     </g>
     <g id="text_12">
      <!-- 80 -->
      <g transform="translate(26.09 94.379626)scale(0.088 -0.088)">
       <use xlink:href="#DejaVuSans-38"/>
       <use x="63.623047" xlink:href="#DejaVuSans-30"/>
      </g>
     </g>
    </g>
    <g id="ytick_6">
     <g id="line2d_12">
      <g>
       <use style="stroke:#000000;" x="45.588" xlink:href="#m3e8af38c49" y="57.635392"/>
      </g>
     </g>
     <g id="text_13">
      <!-- 100 -->
      <g transform="translate(20.491 60.978704)scale(0.088 -0.088)">
       <use xlink:href="#DejaVuSans-31"/>
       <use x="63.623047" xlink:href="#DejaVuSans-30"/>
       <use x="127.246094" xlink:href="#DejaVuSans-30"/>
      </g>
     </g>
    </g>
    <g id="ytick_7">
     <g id="line2d_13">
      <g>
       <use style="stroke:#000000;" x="45.588" xlink:href="#m3e8af38c49" y="24.23447"/>
      </g>
     </g>
     <g id="text_14">
      <!-- 120 -->
      <g transform="translate(20.491 27.577783)scale(0.088 -0.088)">
       <use xlink:href="#DejaVuSans-31"/>
       <use x="63.623047" xlink:href="#DejaVuSans-32"/>
       <use x="127.246094" xlink:href="#DejaVuSans-30"/>
      </g>
     </g>
    </g>
    <g id="text_15">
     <!-- Count -->
     <g transform="translate(14.4945 130.1745)rotate(-90)scale(0.096 -0.096)">
      <defs>
       <path d="M 4122 4306 
L 4122 3641 
Q 3803 3938 3442 4084 
Q 3081 4231 2675 4231 
Q 1875 4231 1450 3742 
Q 1025 3253 1025 2328 
Q 1025 1406 1450 917 
Q 1875 428 2675 428 
Q 3081 428 3442 575 
Q 3803 722 4122 1019 
L 4122 359 
Q 3791 134 3420 21 
Q 3050 -91 2638 -91 
Q 1578 -91 968 557 
Q 359 1206 359 2328 
Q 359 3453 968 4101 
Q 1578 4750 2638 4750 
Q 3056 4750 3426 4639 
Q 3797 4528 4122 4306 
z
" id="DejaVuSans-43" transform="scale(0.015625)"/>
       <path d="M 1959 3097 
Q 1497 3097 1228 2736 
Q 959 2375 959 1747 
Q 959 1119 1226 758 
Q 1494 397 1959 397 
Q 2419 397 2687 759 
Q 2956 1122 2956 1747 
Q 2956 2369 2687 2733 
Q 2419 3097 1959 3097 
z
M 1959 3584 
Q 2709 3584 3137 3096 
Q 3566 2609 3566 1747 
Q 3566 888 3137 398 
Q 2709 -91 1959 -91 
Q 1206 -91 779 398 
Q 353 888 353 1747 
Q 353 2609 779 3096 
Q 1206 3584 1959 3584 
z
" id="DejaVuSans-6f" transform="scale(0.015625)"/>
       <path d="M 544 1381 
L 544 3500 
L 1119 3500 
L 1119 1403 
Q 1119 906 1312 657 
Q 1506 409 1894 409 
Q 2359 409 2629 706 
Q 2900 1003 2900 1516 
L 2900 3500 
L 3475 3500 
L 3475 0 
L 2900 0 
L 2900 538 
Q 2691 219 2414 64 
Q 2138 -91 1772 -91 
Q 1169 -91 856 284 
Q 544 659 544 1381 
z
M 1991 3584 
L 1991 3584 
z
" id="DejaVuSans-75" transform="scale(0.015625)"/>
       <path d="M 1172 4494 
L 1172 3500 
L 2356 3500 
L 2356 3053 
L 1172 3053 
L 1172 1153 
Q 1172 725 1289 603 
Q 1406 481 1766 481 
L 2356 481 
L 2356 0 
L 1766 0 
Q 1100 0 847 248 
Q 594 497 594 1153 
L 594 3053 
L 172 3053 
L 172 3500 
L 594 3500 
L 594 4494 
L 1172 4494 
z
" id="DejaVuSans-74" transform="scale(0.015625)"/>
      </defs>
      <use xlink:href="#DejaVuSans-43"/>
      <use x="69.824219" xlink:href="#DejaVuSans-6f"/>
      <use x="131.005859" xlink:href="#DejaVuSans-75"/>
      <use x="194.384766" xlink:href="#DejaVuSans-6e"/>
      <use x="257.763672" xlink:href="#DejaVuSans-74"/>
     </g>
    </g>
   </g>
   <g id="line2d_14">
    <path clip-path="url(#pe13aa2f7c1)" d="M 64.034281 161.05946 
L 69.595974 128.625243 
L 71.449871 118.950631 
L 73.303769 110.573778 
L 75.157667 103.853718 
L 77.011564 99.049847 
L 78.865462 96.30074 
L 80.719359 95.616284 
L 82.573257 96.883713 
L 84.427154 99.886059 
L 86.281052 104.329784 
L 88.13495 109.877351 
L 89.988847 116.180154 
L 97.404438 143.023375 
L 99.258335 149.124797 
L 101.112233 154.774981 
L 102.96613 159.952194 
L 104.820028 164.664158 
L 106.673925 168.936931 
L 108.527823 172.805685 
L 110.381721 176.307994 
L 112.235618 179.479705 
L 114.089516 182.353065 
L 115.943413 184.956532 
L 117.797311 187.315647 
L 119.651209 189.454382 
L 121.505106 191.396475 
L 125.212901 194.789984 
L 128.920697 197.705445 
L 134.482389 201.635938 
L 149.31357 211.750782 
L 153.021365 213.926727 
L 156.72916 215.747707 
L 160.436956 217.172339 
L 164.144751 218.228966 
L 167.852546 218.998021 
L 173.414239 219.823041 
L 182.683727 220.863535 
L 197.514907 222.292349 
L 214.199986 223.592968 
L 221.615576 224.036457 
L 227.177269 224.173058 
L 234.592859 224.093623 
L 249.42404 223.850905 
L 262.401323 223.654115 
L 269.816913 223.58951 
L 277.232504 223.787133 
L 286.501991 224.118199 
L 292.063684 224.107151 
L 299.479275 223.785272 
L 308.748762 223.359901 
L 314.310455 223.385431 
L 321.726046 223.741785 
L 329.141636 224.106084 
L 334.703329 224.200499 
L 343.972817 224.090683 
L 353.242305 224.039271 
L 362.511793 224.234637 
L 377.342973 224.57418 
L 394.028051 224.635979 
L 408.859232 224.541834 
L 418.12872 224.278256 
L 429.252106 223.953144 
L 432.959901 223.960162 
L 432.959901 223.960162 
" style="fill:none;stroke:#ff7f0e;stroke-linecap:square;stroke-width:2;"/>
   </g>
   <g id="line2d_15">
    <path clip-path="url(#pe13aa2f7c1)" d="M 64.034281 162.940309 
L 69.595974 138.453295 
L 71.449871 130.956662 
L 73.303769 124.180601 
L 75.157667 118.334417 
L 77.011564 113.593665 
L 78.865462 110.08969 
L 80.719359 107.902346 
L 82.573257 107.056502 
L 84.427154 107.522548 
L 86.281052 109.220694 
L 88.13495 112.028496 
L 89.988847 115.790746 
L 91.842745 120.330708 
L 93.696642 125.461627 
L 97.404438 136.76265 
L 102.96613 153.963851 
L 106.673925 164.309109 
L 108.527823 168.96097 
L 110.381721 173.233758 
L 112.235618 177.123953 
L 114.089516 180.640192 
L 115.943413 183.800075 
L 117.797311 186.627392 
L 119.651209 189.14983 
L 121.505106 191.397154 
L 123.359004 193.399781 
L 125.212901 195.187693 
L 127.066799 196.789592 
L 130.774594 199.53997 
L 134.482389 201.833589 
L 138.190184 203.80519 
L 141.89798 205.540344 
L 145.605775 207.082316 
L 149.31357 208.444264 
L 153.021365 209.622687 
L 156.72916 210.609159 
L 160.436956 211.399818 
L 164.144751 212.003314 
L 169.706443 212.622791 
L 184.537624 213.93155 
L 190.099317 214.719177 
L 197.514907 216.012891 
L 212.346088 218.902175 
L 221.615576 220.662091 
L 227.177269 221.516295 
L 232.738961 222.11257 
L 238.300654 222.432555 
L 243.862347 222.532156 
L 267.963016 222.641979 
L 277.232504 222.723512 
L 282.794196 222.583805 
L 292.063684 222.061968 
L 299.479275 221.718994 
L 305.040967 221.721087 
L 310.60266 221.984226 
L 321.726046 222.891152 
L 329.141636 223.363088 
L 336.557226 223.563788 
L 347.680612 223.539679 
L 356.9501 223.572863 
L 366.219588 223.818441 
L 386.612461 224.46503 
L 399.589744 224.596383 
L 414.420925 224.525723 
L 432.959901 224.361616 
L 432.959901 224.361616 
" style="fill:none;stroke:#1f77b4;stroke-linecap:square;stroke-width:2;"/>
   </g>
   <g id="patch_131">
    <path d="M 45.588 224.64 
L 45.588 7.2 
" style="fill:none;stroke:#000000;stroke-linecap:square;stroke-linejoin:miter;"/>
   </g>
   <g id="patch_132">
    <path d="M 451.406182 224.64 
L 451.406182 7.2 
" style="fill:none;stroke:#000000;stroke-linecap:square;stroke-linejoin:miter;"/>
   </g>
   <g id="patch_133">
    <path d="M 45.588 224.64 
L 451.406182 224.64 
" style="fill:none;stroke:#000000;stroke-linecap:square;stroke-linejoin:miter;"/>
   </g>
   <g id="patch_134">
    <path d="M 45.588 7.2 
L 451.406182 7.2 
" style="fill:none;stroke:#000000;stroke-linecap:square;stroke-linejoin:miter;"/>
   </g>
   <g id="legend_1">
    <g id="patch_135">
     <path d="M 372.345057 53.7645 
L 445.246182 53.7645 
Q 447.006182 53.7645 447.006182 52.0045 
L 447.006182 13.36 
Q 447.006182 11.6 445.246182 11.6 
L 372.345057 11.6 
Q 370.585057 11.6 370.585057 13.36 
L 370.585057 52.0045 
Q 370.585057 53.7645 372.345057 53.7645 
z
" style="fill:#ffffff;opacity:0.8;stroke:#cccccc;stroke-linejoin:miter;stroke-width:0.8;"/>
    </g>
    <g id="text_16">
     <!-- Group -->
     <g transform="translate(394.184869 22.4145)scale(0.096 -0.096)">
      <defs>
       <path d="M 3809 666 
L 3809 1919 
L 2778 1919 
L 2778 2438 
L 4434 2438 
L 4434 434 
Q 4069 175 3628 42 
Q 3188 -91 2688 -91 
Q 1594 -91 976 548 
Q 359 1188 359 2328 
Q 359 3472 976 4111 
Q 1594 4750 2688 4750 
Q 3144 4750 3555 4637 
Q 3966 4525 4313 4306 
L 4313 3634 
Q 3963 3931 3569 4081 
Q 3175 4231 2741 4231 
Q 1884 4231 1454 3753 
Q 1025 3275 1025 2328 
Q 1025 1384 1454 906 
Q 1884 428 2741 428 
Q 3075 428 3337 486 
Q 3600 544 3809 666 
z
" id="DejaVuSans-47" transform="scale(0.015625)"/>
       <path d="M 1159 525 
L 1159 -1331 
L 581 -1331 
L 581 3500 
L 1159 3500 
L 1159 2969 
Q 1341 3281 1617 3432 
Q 1894 3584 2278 3584 
Q 2916 3584 3314 3078 
Q 3713 2572 3713 1747 
Q 3713 922 3314 415 
Q 2916 -91 2278 -91 
Q 1894 -91 1617 61 
Q 1341 213 1159 525 
z
M 3116 1747 
Q 3116 2381 2855 2742 
Q 2594 3103 2138 3103 
Q 1681 3103 1420 2742 
Q 1159 2381 1159 1747 
Q 1159 1113 1420 752 
Q 1681 391 2138 391 
Q 2594 391 2855 752 
Q 3116 1113 3116 1747 
z
" id="DejaVuSans-70" transform="scale(0.015625)"/>
      </defs>
      <use xlink:href="#DejaVuSans-47"/>
      <use x="77.490234" xlink:href="#DejaVuSans-72"/>
      <use x="116.353516" xlink:href="#DejaVuSans-6f"/>
      <use x="177.535156" xlink:href="#DejaVuSans-75"/>
      <use x="240.914062" xlink:href="#DejaVuSans-70"/>
     </g>
    </g>
    <g id="patch_136">
     <path d="M 374.105057 35.497625 
L 391.705057 35.497625 
L 391.705057 29.337625 
L 374.105057 29.337625 
z
" style="fill:#1f77b4;fill-opacity:0.5;stroke:#000000;stroke-linejoin:miter;stroke-width:0.8;"/>
    </g>
    <g id="text_17">
     <!-- NoReward -->
     <g transform="translate(398.745057 35.497625)scale(0.088 -0.088)">
      <defs>
       <path d="M 628 4666 
L 1478 4666 
L 3547 763 
L 3547 4666 
L 4159 4666 
L 4159 0 
L 3309 0 
L 1241 3903 
L 1241 0 
L 628 0 
L 628 4666 
z
" id="DejaVuSans-4e" transform="scale(0.015625)"/>
       <path d="M 2841 2188 
Q 3044 2119 3236 1894 
Q 3428 1669 3622 1275 
L 4263 0 
L 3584 0 
L 2988 1197 
Q 2756 1666 2539 1819 
Q 2322 1972 1947 1972 
L 1259 1972 
L 1259 0 
L 628 0 
L 628 4666 
L 2053 4666 
Q 2853 4666 3247 4331 
Q 3641 3997 3641 3322 
Q 3641 2881 3436 2590 
Q 3231 2300 2841 2188 
z
M 1259 4147 
L 1259 2491 
L 2053 2491 
Q 2509 2491 2742 2702 
Q 2975 2913 2975 3322 
Q 2975 3731 2742 3939 
Q 2509 4147 2053 4147 
L 1259 4147 
z
" id="DejaVuSans-52" transform="scale(0.015625)"/>
       <path d="M 269 3500 
L 844 3500 
L 1563 769 
L 2278 3500 
L 2956 3500 
L 3675 769 
L 4391 3500 
L 4966 3500 
L 4050 0 
L 3372 0 
L 2619 2869 
L 1863 0 
L 1184 0 
L 269 3500 
z
" id="DejaVuSans-77" transform="scale(0.015625)"/>
       <path d="M 2906 2969 
L 2906 4863 
L 3481 4863 
L 3481 0 
L 2906 0 
L 2906 525 
Q 2725 213 2448 61 
Q 2172 -91 1784 -91 
Q 1150 -91 751 415 
Q 353 922 353 1747 
Q 353 2572 751 3078 
Q 1150 3584 1784 3584 
Q 2172 3584 2448 3432 
Q 2725 3281 2906 2969 
z
M 947 1747 
Q 947 1113 1208 752 
Q 1469 391 1925 391 
Q 2381 391 2643 752 
Q 2906 1113 2906 1747 
Q 2906 2381 2643 2742 
Q 2381 3103 1925 3103 
Q 1469 3103 1208 2742 
Q 947 2381 947 1747 
z
" id="DejaVuSans-64" transform="scale(0.015625)"/>
      </defs>
      <use xlink:href="#DejaVuSans-4e"/>
      <use x="74.804688" xlink:href="#DejaVuSans-6f"/>
      <use x="135.986328" xlink:href="#DejaVuSans-52"/>
      <use x="200.96875" xlink:href="#DejaVuSans-65"/>
      <use x="262.492188" xlink:href="#DejaVuSans-77"/>
      <use x="344.279297" xlink:href="#DejaVuSans-61"/>
      <use x="405.558594" xlink:href="#DejaVuSans-72"/>
      <use x="444.921875" xlink:href="#DejaVuSans-64"/>
     </g>
    </g>
    <g id="patch_137">
     <path d="M 374.105057 48.414375 
L 391.705057 48.414375 
L 391.705057 42.254375 
L 374.105057 42.254375 
z
" style="fill:#ff7f0e;fill-opacity:0.5;stroke:#000000;stroke-linejoin:miter;stroke-width:0.8;"/>
    </g>
    <g id="text_18">
     <!-- Reward -->
     <g transform="translate(398.745057 48.414375)scale(0.088 -0.088)">
      <use xlink:href="#DejaVuSans-52"/>
      <use x="64.982422" xlink:href="#DejaVuSans-65"/>
      <use x="126.505859" xlink:href="#DejaVuSans-77"/>
      <use x="208.292969" xlink:href="#DejaVuSans-61"/>
      <use x="269.572266" xlink:href="#DejaVuSans-72"/>
      <use x="308.935547" xlink:href="#DejaVuSans-64"/>
     </g>
    </g>
   </g>
  </g>
  <g id="axes_2">
   <g id="patch_138">
    <path d="M 532.569818 224.64 
L 938.388 224.64 
L 938.388 7.2 
L 532.569818 7.2 
z
" style="fill:#ffffff;"/>
   </g>
   <g id="patch_139">
    <path clip-path="url(#p9cee4ae796)" d="M 551.016099 224.64 
L 559.595765 224.64 
L 559.595765 222.629459 
L 551.016099 222.629459 
z
" style="fill:#ff7f0e;fill-opacity:0.5;stroke:#000000;stroke-linejoin:miter;stroke-width:0.8;"/>
   </g>
   <g id="patch_140">
    <path clip-path="url(#p9cee4ae796)" d="M 559.595765 224.64 
L 568.17543 224.64 
L 568.17543 224.64 
L 559.595765 224.64 
z
" style="fill:#ff7f0e;fill-opacity:0.5;stroke:#000000;stroke-linejoin:miter;stroke-width:0.8;"/>
   </g>
   <g id="patch_141">
    <path clip-path="url(#p9cee4ae796)" d="M 568.17543 224.64 
L 576.755096 224.64 
L 576.755096 222.629459 
L 568.17543 222.629459 
z
" style="fill:#ff7f0e;fill-opacity:0.5;stroke:#000000;stroke-linejoin:miter;stroke-width:0.8;"/>
   </g>
   <g id="patch_142">
    <path clip-path="url(#p9cee4ae796)" d="M 576.755096 224.64 
L 585.334761 224.64 
L 585.334761 190.460804 
L 576.755096 190.460804 
z
" style="fill:#ff7f0e;fill-opacity:0.5;stroke:#000000;stroke-linejoin:miter;stroke-width:0.8;"/>
   </g>
   <g id="patch_143">
    <path clip-path="url(#p9cee4ae796)" d="M 585.334761 224.64 
L 593.914427 224.64 
L 593.914427 160.302691 
L 585.334761 160.302691 
z
" style="fill:#ff7f0e;fill-opacity:0.5;stroke:#000000;stroke-linejoin:miter;stroke-width:0.8;"/>
   </g>
   <g id="patch_144">
    <path clip-path="url(#p9cee4ae796)" d="M 593.914427 224.64 
L 602.494093 224.64 
L 602.494093 114.06025 
L 593.914427 114.06025 
z
" style="fill:#ff7f0e;fill-opacity:0.5;stroke:#000000;stroke-linejoin:miter;stroke-width:0.8;"/>
   </g>
   <g id="patch_145">
    <path clip-path="url(#p9cee4ae796)" d="M 602.494093 224.64 
L 611.073758 224.64 
L 611.073758 37.659695 
L 602.494093 37.659695 
z
" style="fill:#ff7f0e;fill-opacity:0.5;stroke:#000000;stroke-linejoin:miter;stroke-width:0.8;"/>
   </g>
   <g id="patch_146">
    <path clip-path="url(#p9cee4ae796)" d="M 611.073758 224.64 
L 619.653424 224.64 
L 619.653424 41.680777 
L 611.073758 41.680777 
z
" style="fill:#ff7f0e;fill-opacity:0.5;stroke:#000000;stroke-linejoin:miter;stroke-width:0.8;"/>
   </g>
   <g id="patch_147">
    <path clip-path="url(#p9cee4ae796)" d="M 619.653424 224.64 
L 628.233089 224.64 
L 628.233089 79.881054 
L 619.653424 79.881054 
z
" style="fill:#ff7f0e;fill-opacity:0.5;stroke:#000000;stroke-linejoin:miter;stroke-width:0.8;"/>
   </g>
   <g id="patch_148">
    <path clip-path="url(#p9cee4ae796)" d="M 628.233089 224.64 
L 636.812755 224.64 
L 636.812755 120.091872 
L 628.233089 120.091872 
z
" style="fill:#ff7f0e;fill-opacity:0.5;stroke:#000000;stroke-linejoin:miter;stroke-width:0.8;"/>
   </g>
   <g id="patch_149">
    <path clip-path="url(#p9cee4ae796)" d="M 636.812755 224.64 
L 645.392421 224.64 
L 645.392421 128.134036 
L 636.812755 128.134036 
z
" style="fill:#ff7f0e;fill-opacity:0.5;stroke:#000000;stroke-linejoin:miter;stroke-width:0.8;"/>
   </g>
   <g id="patch_150">
    <path clip-path="url(#p9cee4ae796)" d="M 645.392421 224.64 
L 653.972086 224.64 
L 653.972086 142.207822 
L 645.392421 142.207822 
z
" style="fill:#ff7f0e;fill-opacity:0.5;stroke:#000000;stroke-linejoin:miter;stroke-width:0.8;"/>
   </g>
   <g id="patch_151">
    <path clip-path="url(#p9cee4ae796)" d="M 653.972086 224.64 
L 662.551752 224.64 
L 662.551752 162.313232 
L 653.972086 162.313232 
z
" style="fill:#ff7f0e;fill-opacity:0.5;stroke:#000000;stroke-linejoin:miter;stroke-width:0.8;"/>
   </g>
   <g id="patch_152">
    <path clip-path="url(#p9cee4ae796)" d="M 662.551752 224.64 
L 671.131417 224.64 
L 671.131417 168.344854 
L 662.551752 168.344854 
z
" style="fill:#ff7f0e;fill-opacity:0.5;stroke:#000000;stroke-linejoin:miter;stroke-width:0.8;"/>
   </g>
   <g id="patch_153">
    <path clip-path="url(#p9cee4ae796)" d="M 671.131417 224.64 
L 679.711083 224.64 
L 679.711083 194.481886 
L 671.131417 194.481886 
z
" style="fill:#ff7f0e;fill-opacity:0.5;stroke:#000000;stroke-linejoin:miter;stroke-width:0.8;"/>
   </g>
   <g id="patch_154">
    <path clip-path="url(#p9cee4ae796)" d="M 679.711083 224.64 
L 688.290748 224.64 
L 688.290748 168.344854 
L 679.711083 168.344854 
z
" style="fill:#ff7f0e;fill-opacity:0.5;stroke:#000000;stroke-linejoin:miter;stroke-width:0.8;"/>
   </g>
   <g id="patch_155">
    <path clip-path="url(#p9cee4ae796)" d="M 688.290748 224.64 
L 696.870414 224.64 
L 696.870414 196.492427 
L 688.290748 196.492427 
z
" style="fill:#ff7f0e;fill-opacity:0.5;stroke:#000000;stroke-linejoin:miter;stroke-width:0.8;"/>
   </g>
   <g id="patch_156">
    <path clip-path="url(#p9cee4ae796)" d="M 696.870414 224.64 
L 705.45008 224.64 
L 705.45008 206.545132 
L 696.870414 206.545132 
z
" style="fill:#ff7f0e;fill-opacity:0.5;stroke:#000000;stroke-linejoin:miter;stroke-width:0.8;"/>
   </g>
   <g id="patch_157">
    <path clip-path="url(#p9cee4ae796)" d="M 705.45008 224.64 
L 714.029745 224.64 
L 714.029745 216.597836 
L 705.45008 216.597836 
z
" style="fill:#ff7f0e;fill-opacity:0.5;stroke:#000000;stroke-linejoin:miter;stroke-width:0.8;"/>
   </g>
   <g id="patch_158">
    <path clip-path="url(#p9cee4ae796)" d="M 714.029745 224.64 
L 722.609411 224.64 
L 722.609411 202.52405 
L 714.029745 202.52405 
z
" style="fill:#ff7f0e;fill-opacity:0.5;stroke:#000000;stroke-linejoin:miter;stroke-width:0.8;"/>
   </g>
   <g id="patch_159">
    <path clip-path="url(#p9cee4ae796)" d="M 722.609411 224.64 
L 731.189076 224.64 
L 731.189076 218.608377 
L 722.609411 218.608377 
z
" style="fill:#ff7f0e;fill-opacity:0.5;stroke:#000000;stroke-linejoin:miter;stroke-width:0.8;"/>
   </g>
   <g id="patch_160">
    <path clip-path="url(#p9cee4ae796)" d="M 731.189076 224.64 
L 739.768742 224.64 
L 739.768742 222.629459 
L 731.189076 222.629459 
z
" style="fill:#ff7f0e;fill-opacity:0.5;stroke:#000000;stroke-linejoin:miter;stroke-width:0.8;"/>
   </g>
   <g id="patch_161">
    <path clip-path="url(#p9cee4ae796)" d="M 739.768742 224.64 
L 748.348407 224.64 
L 748.348407 222.629459 
L 739.768742 222.629459 
z
" style="fill:#ff7f0e;fill-opacity:0.5;stroke:#000000;stroke-linejoin:miter;stroke-width:0.8;"/>
   </g>
   <g id="patch_162">
    <path clip-path="url(#p9cee4ae796)" d="M 748.348407 224.64 
L 756.928073 224.64 
L 756.928073 222.629459 
L 748.348407 222.629459 
z
" style="fill:#ff7f0e;fill-opacity:0.5;stroke:#000000;stroke-linejoin:miter;stroke-width:0.8;"/>
   </g>
   <g id="patch_163">
    <path clip-path="url(#p9cee4ae796)" d="M 756.928073 224.64 
L 765.507739 224.64 
L 765.507739 222.629459 
L 756.928073 222.629459 
z
" style="fill:#ff7f0e;fill-opacity:0.5;stroke:#000000;stroke-linejoin:miter;stroke-width:0.8;"/>
   </g>
   <g id="patch_164">
    <path clip-path="url(#p9cee4ae796)" d="M 765.507739 224.64 
L 774.087404 224.64 
L 774.087404 222.629459 
L 765.507739 222.629459 
z
" style="fill:#ff7f0e;fill-opacity:0.5;stroke:#000000;stroke-linejoin:miter;stroke-width:0.8;"/>
   </g>
   <g id="patch_165">
    <path clip-path="url(#p9cee4ae796)" d="M 774.087404 224.64 
L 782.66707 224.64 
L 782.66707 222.629459 
L 774.087404 222.629459 
z
" style="fill:#ff7f0e;fill-opacity:0.5;stroke:#000000;stroke-linejoin:miter;stroke-width:0.8;"/>
   </g>
   <g id="patch_166">
    <path clip-path="url(#p9cee4ae796)" d="M 782.66707 224.64 
L 791.246735 224.64 
L 791.246735 222.629459 
L 782.66707 222.629459 
z
" style="fill:#ff7f0e;fill-opacity:0.5;stroke:#000000;stroke-linejoin:miter;stroke-width:0.8;"/>
   </g>
   <g id="patch_167">
    <path clip-path="url(#p9cee4ae796)" d="M 791.246735 224.64 
L 799.826401 224.64 
L 799.826401 222.629459 
L 791.246735 222.629459 
z
" style="fill:#ff7f0e;fill-opacity:0.5;stroke:#000000;stroke-linejoin:miter;stroke-width:0.8;"/>
   </g>
   <g id="patch_168">
    <path clip-path="url(#p9cee4ae796)" d="M 799.826401 224.64 
L 808.406067 224.64 
L 808.406067 222.629459 
L 799.826401 222.629459 
z
" style="fill:#ff7f0e;fill-opacity:0.5;stroke:#000000;stroke-linejoin:miter;stroke-width:0.8;"/>
   </g>
   <g id="patch_169">
    <path clip-path="url(#p9cee4ae796)" d="M 808.406067 224.64 
L 816.985732 224.64 
L 816.985732 220.618918 
L 808.406067 220.618918 
z
" style="fill:#ff7f0e;fill-opacity:0.5;stroke:#000000;stroke-linejoin:miter;stroke-width:0.8;"/>
   </g>
   <g id="patch_170">
    <path clip-path="url(#p9cee4ae796)" d="M 816.985732 224.64 
L 825.565398 224.64 
L 825.565398 222.629459 
L 816.985732 222.629459 
z
" style="fill:#ff7f0e;fill-opacity:0.5;stroke:#000000;stroke-linejoin:miter;stroke-width:0.8;"/>
   </g>
   <g id="patch_171">
    <path clip-path="url(#p9cee4ae796)" d="M 825.565398 224.64 
L 834.145063 224.64 
L 834.145063 224.64 
L 825.565398 224.64 
z
" style="fill:#ff7f0e;fill-opacity:0.5;stroke:#000000;stroke-linejoin:miter;stroke-width:0.8;"/>
   </g>
   <g id="patch_172">
    <path clip-path="url(#p9cee4ae796)" d="M 834.145063 224.64 
L 842.724729 224.64 
L 842.724729 220.618918 
L 834.145063 220.618918 
z
" style="fill:#ff7f0e;fill-opacity:0.5;stroke:#000000;stroke-linejoin:miter;stroke-width:0.8;"/>
   </g>
   <g id="patch_173">
    <path clip-path="url(#p9cee4ae796)" d="M 842.724729 224.64 
L 851.304394 224.64 
L 851.304394 222.629459 
L 842.724729 222.629459 
z
" style="fill:#ff7f0e;fill-opacity:0.5;stroke:#000000;stroke-linejoin:miter;stroke-width:0.8;"/>
   </g>
   <g id="patch_174">
    <path clip-path="url(#p9cee4ae796)" d="M 851.304394 224.64 
L 859.88406 224.64 
L 859.88406 224.64 
L 851.304394 224.64 
z
" style="fill:#ff7f0e;fill-opacity:0.5;stroke:#000000;stroke-linejoin:miter;stroke-width:0.8;"/>
   </g>
   <g id="patch_175">
    <path clip-path="url(#p9cee4ae796)" d="M 859.88406 224.64 
L 868.463726 224.64 
L 868.463726 224.64 
L 859.88406 224.64 
z
" style="fill:#ff7f0e;fill-opacity:0.5;stroke:#000000;stroke-linejoin:miter;stroke-width:0.8;"/>
   </g>
   <g id="patch_176">
    <path clip-path="url(#p9cee4ae796)" d="M 868.463726 224.64 
L 877.043391 224.64 
L 877.043391 222.629459 
L 868.463726 222.629459 
z
" style="fill:#ff7f0e;fill-opacity:0.5;stroke:#000000;stroke-linejoin:miter;stroke-width:0.8;"/>
   </g>
   <g id="patch_177">
    <path clip-path="url(#p9cee4ae796)" d="M 877.043391 224.64 
L 885.623057 224.64 
L 885.623057 224.64 
L 877.043391 224.64 
z
" style="fill:#ff7f0e;fill-opacity:0.5;stroke:#000000;stroke-linejoin:miter;stroke-width:0.8;"/>
   </g>
   <g id="patch_178">
    <path clip-path="url(#p9cee4ae796)" d="M 885.623057 224.64 
L 894.202722 224.64 
L 894.202722 224.64 
L 885.623057 224.64 
z
" style="fill:#ff7f0e;fill-opacity:0.5;stroke:#000000;stroke-linejoin:miter;stroke-width:0.8;"/>
   </g>
   <g id="patch_179">
    <path clip-path="url(#p9cee4ae796)" d="M 894.202722 224.64 
L 902.782388 224.64 
L 902.782388 222.629459 
L 894.202722 222.629459 
z
" style="fill:#ff7f0e;fill-opacity:0.5;stroke:#000000;stroke-linejoin:miter;stroke-width:0.8;"/>
   </g>
   <g id="patch_180">
    <path clip-path="url(#p9cee4ae796)" d="M 902.782388 224.64 
L 911.362053 224.64 
L 911.362053 222.629459 
L 902.782388 222.629459 
z
" style="fill:#ff7f0e;fill-opacity:0.5;stroke:#000000;stroke-linejoin:miter;stroke-width:0.8;"/>
   </g>
   <g id="patch_181">
    <path clip-path="url(#p9cee4ae796)" d="M 911.362053 224.64 
L 919.941719 224.64 
L 919.941719 224.64 
L 911.362053 224.64 
z
" style="fill:#ff7f0e;fill-opacity:0.5;stroke:#000000;stroke-linejoin:miter;stroke-width:0.8;"/>
   </g>
   <g id="patch_182">
    <path clip-path="url(#p9cee4ae796)" d="M 551.016099 224.64 
L 559.595765 224.64 
L 559.595765 222.629459 
L 551.016099 222.629459 
z
" style="fill:#1f77b4;fill-opacity:0.5;stroke:#000000;stroke-linejoin:miter;stroke-width:0.8;"/>
   </g>
   <g id="patch_183">
    <path clip-path="url(#p9cee4ae796)" d="M 559.595765 224.64 
L 568.17543 224.64 
L 568.17543 224.64 
L 559.595765 224.64 
z
" style="fill:#1f77b4;fill-opacity:0.5;stroke:#000000;stroke-linejoin:miter;stroke-width:0.8;"/>
   </g>
   <g id="patch_184">
    <path clip-path="url(#p9cee4ae796)" d="M 568.17543 224.64 
L 576.755096 224.64 
L 576.755096 222.629459 
L 568.17543 222.629459 
z
" style="fill:#1f77b4;fill-opacity:0.5;stroke:#000000;stroke-linejoin:miter;stroke-width:0.8;"/>
   </g>
   <g id="patch_185">
    <path clip-path="url(#p9cee4ae796)" d="M 576.755096 224.64 
L 585.334761 224.64 
L 585.334761 218.608377 
L 576.755096 218.608377 
z
" style="fill:#1f77b4;fill-opacity:0.5;stroke:#000000;stroke-linejoin:miter;stroke-width:0.8;"/>
   </g>
   <g id="patch_186">
    <path clip-path="url(#p9cee4ae796)" d="M 585.334761 224.64 
L 593.914427 224.64 
L 593.914427 178.397559 
L 585.334761 178.397559 
z
" style="fill:#1f77b4;fill-opacity:0.5;stroke:#000000;stroke-linejoin:miter;stroke-width:0.8;"/>
   </g>
   <g id="patch_187">
    <path clip-path="url(#p9cee4ae796)" d="M 593.914427 224.64 
L 602.494093 224.64 
L 602.494093 134.165659 
L 593.914427 134.165659 
z
" style="fill:#1f77b4;fill-opacity:0.5;stroke:#000000;stroke-linejoin:miter;stroke-width:0.8;"/>
   </g>
   <g id="patch_188">
    <path clip-path="url(#p9cee4ae796)" d="M 602.494093 224.64 
L 611.073758 224.64 
L 611.073758 17.554286 
L 602.494093 17.554286 
z
" style="fill:#1f77b4;fill-opacity:0.5;stroke:#000000;stroke-linejoin:miter;stroke-width:0.8;"/>
   </g>
   <g id="patch_189">
    <path clip-path="url(#p9cee4ae796)" d="M 611.073758 224.64 
L 619.653424 224.64 
L 619.653424 73.849431 
L 611.073758 73.849431 
z
" style="fill:#1f77b4;fill-opacity:0.5;stroke:#000000;stroke-linejoin:miter;stroke-width:0.8;"/>
   </g>
   <g id="patch_190">
    <path clip-path="url(#p9cee4ae796)" d="M 619.653424 224.64 
L 628.233089 224.64 
L 628.233089 33.638613 
L 619.653424 33.638613 
z
" style="fill:#1f77b4;fill-opacity:0.5;stroke:#000000;stroke-linejoin:miter;stroke-width:0.8;"/>
   </g>
   <g id="patch_191">
    <path clip-path="url(#p9cee4ae796)" d="M 628.233089 224.64 
L 636.812755 224.64 
L 636.812755 71.83889 
L 628.233089 71.83889 
z
" style="fill:#1f77b4;fill-opacity:0.5;stroke:#000000;stroke-linejoin:miter;stroke-width:0.8;"/>
   </g>
   <g id="patch_192">
    <path clip-path="url(#p9cee4ae796)" d="M 636.812755 224.64 
L 645.392421 224.64 
L 645.392421 126.123495 
L 636.812755 126.123495 
z
" style="fill:#1f77b4;fill-opacity:0.5;stroke:#000000;stroke-linejoin:miter;stroke-width:0.8;"/>
   </g>
   <g id="patch_193">
    <path clip-path="url(#p9cee4ae796)" d="M 645.392421 224.64 
L 653.972086 224.64 
L 653.972086 148.239445 
L 645.392421 148.239445 
z
" style="fill:#1f77b4;fill-opacity:0.5;stroke:#000000;stroke-linejoin:miter;stroke-width:0.8;"/>
   </g>
   <g id="patch_194">
    <path clip-path="url(#p9cee4ae796)" d="M 653.972086 224.64 
L 662.551752 224.64 
L 662.551752 158.29215 
L 653.972086 158.29215 
z
" style="fill:#1f77b4;fill-opacity:0.5;stroke:#000000;stroke-linejoin:miter;stroke-width:0.8;"/>
   </g>
   <g id="patch_195">
    <path clip-path="url(#p9cee4ae796)" d="M 662.551752 224.64 
L 671.131417 224.64 
L 671.131417 180.4081 
L 662.551752 180.4081 
z
" style="fill:#1f77b4;fill-opacity:0.5;stroke:#000000;stroke-linejoin:miter;stroke-width:0.8;"/>
   </g>
   <g id="patch_196">
    <path clip-path="url(#p9cee4ae796)" d="M 671.131417 224.64 
L 679.711083 224.64 
L 679.711083 188.450264 
L 671.131417 188.450264 
z
" style="fill:#1f77b4;fill-opacity:0.5;stroke:#000000;stroke-linejoin:miter;stroke-width:0.8;"/>
   </g>
   <g id="patch_197">
    <path clip-path="url(#p9cee4ae796)" d="M 679.711083 224.64 
L 688.290748 224.64 
L 688.290748 182.418641 
L 679.711083 182.418641 
z
" style="fill:#1f77b4;fill-opacity:0.5;stroke:#000000;stroke-linejoin:miter;stroke-width:0.8;"/>
   </g>
   <g id="patch_198">
    <path clip-path="url(#p9cee4ae796)" d="M 688.290748 224.64 
L 696.870414 224.64 
L 696.870414 200.513509 
L 688.290748 200.513509 
z
" style="fill:#1f77b4;fill-opacity:0.5;stroke:#000000;stroke-linejoin:miter;stroke-width:0.8;"/>
   </g>
   <g id="patch_199">
    <path clip-path="url(#p9cee4ae796)" d="M 696.870414 224.64 
L 705.45008 224.64 
L 705.45008 194.481886 
L 696.870414 194.481886 
z
" style="fill:#1f77b4;fill-opacity:0.5;stroke:#000000;stroke-linejoin:miter;stroke-width:0.8;"/>
   </g>
   <g id="patch_200">
    <path clip-path="url(#p9cee4ae796)" d="M 705.45008 224.64 
L 714.029745 224.64 
L 714.029745 194.481886 
L 705.45008 194.481886 
z
" style="fill:#1f77b4;fill-opacity:0.5;stroke:#000000;stroke-linejoin:miter;stroke-width:0.8;"/>
   </g>
   <g id="patch_201">
    <path clip-path="url(#p9cee4ae796)" d="M 714.029745 224.64 
L 722.609411 224.64 
L 722.609411 208.555673 
L 714.029745 208.555673 
z
" style="fill:#1f77b4;fill-opacity:0.5;stroke:#000000;stroke-linejoin:miter;stroke-width:0.8;"/>
   </g>
   <g id="patch_202">
    <path clip-path="url(#p9cee4ae796)" d="M 722.609411 224.64 
L 731.189076 224.64 
L 731.189076 206.545132 
L 722.609411 206.545132 
z
" style="fill:#1f77b4;fill-opacity:0.5;stroke:#000000;stroke-linejoin:miter;stroke-width:0.8;"/>
   </g>
   <g id="patch_203">
    <path clip-path="url(#p9cee4ae796)" d="M 731.189076 224.64 
L 739.768742 224.64 
L 739.768742 198.502968 
L 731.189076 198.502968 
z
" style="fill:#1f77b4;fill-opacity:0.5;stroke:#000000;stroke-linejoin:miter;stroke-width:0.8;"/>
   </g>
   <g id="patch_204">
    <path clip-path="url(#p9cee4ae796)" d="M 739.768742 224.64 
L 748.348407 224.64 
L 748.348407 204.534591 
L 739.768742 204.534591 
z
" style="fill:#1f77b4;fill-opacity:0.5;stroke:#000000;stroke-linejoin:miter;stroke-width:0.8;"/>
   </g>
   <g id="patch_205">
    <path clip-path="url(#p9cee4ae796)" d="M 748.348407 224.64 
L 756.928073 224.64 
L 756.928073 212.576755 
L 748.348407 212.576755 
z
" style="fill:#1f77b4;fill-opacity:0.5;stroke:#000000;stroke-linejoin:miter;stroke-width:0.8;"/>
   </g>
   <g id="patch_206">
    <path clip-path="url(#p9cee4ae796)" d="M 756.928073 224.64 
L 765.507739 224.64 
L 765.507739 214.587295 
L 756.928073 214.587295 
z
" style="fill:#1f77b4;fill-opacity:0.5;stroke:#000000;stroke-linejoin:miter;stroke-width:0.8;"/>
   </g>
   <g id="patch_207">
    <path clip-path="url(#p9cee4ae796)" d="M 765.507739 224.64 
L 774.087404 224.64 
L 774.087404 222.629459 
L 765.507739 222.629459 
z
" style="fill:#1f77b4;fill-opacity:0.5;stroke:#000000;stroke-linejoin:miter;stroke-width:0.8;"/>
   </g>
   <g id="patch_208">
    <path clip-path="url(#p9cee4ae796)" d="M 774.087404 224.64 
L 782.66707 224.64 
L 782.66707 220.618918 
L 774.087404 220.618918 
z
" style="fill:#1f77b4;fill-opacity:0.5;stroke:#000000;stroke-linejoin:miter;stroke-width:0.8;"/>
   </g>
   <g id="patch_209">
    <path clip-path="url(#p9cee4ae796)" d="M 782.66707 224.64 
L 791.246735 224.64 
L 791.246735 214.587295 
L 782.66707 214.587295 
z
" style="fill:#1f77b4;fill-opacity:0.5;stroke:#000000;stroke-linejoin:miter;stroke-width:0.8;"/>
   </g>
   <g id="patch_210">
    <path clip-path="url(#p9cee4ae796)" d="M 791.246735 224.64 
L 799.826401 224.64 
L 799.826401 220.618918 
L 791.246735 220.618918 
z
" style="fill:#1f77b4;fill-opacity:0.5;stroke:#000000;stroke-linejoin:miter;stroke-width:0.8;"/>
   </g>
   <g id="patch_211">
    <path clip-path="url(#p9cee4ae796)" d="M 799.826401 224.64 
L 808.406067 224.64 
L 808.406067 218.608377 
L 799.826401 218.608377 
z
" style="fill:#1f77b4;fill-opacity:0.5;stroke:#000000;stroke-linejoin:miter;stroke-width:0.8;"/>
   </g>
   <g id="patch_212">
    <path clip-path="url(#p9cee4ae796)" d="M 808.406067 224.64 
L 816.985732 224.64 
L 816.985732 220.618918 
L 808.406067 220.618918 
z
" style="fill:#1f77b4;fill-opacity:0.5;stroke:#000000;stroke-linejoin:miter;stroke-width:0.8;"/>
   </g>
   <g id="patch_213">
    <path clip-path="url(#p9cee4ae796)" d="M 816.985732 224.64 
L 825.565398 224.64 
L 825.565398 214.587295 
L 816.985732 214.587295 
z
" style="fill:#1f77b4;fill-opacity:0.5;stroke:#000000;stroke-linejoin:miter;stroke-width:0.8;"/>
   </g>
   <g id="patch_214">
    <path clip-path="url(#p9cee4ae796)" d="M 825.565398 224.64 
L 834.145063 224.64 
L 834.145063 220.618918 
L 825.565398 220.618918 
z
" style="fill:#1f77b4;fill-opacity:0.5;stroke:#000000;stroke-linejoin:miter;stroke-width:0.8;"/>
   </g>
   <g id="patch_215">
    <path clip-path="url(#p9cee4ae796)" d="M 834.145063 224.64 
L 842.724729 224.64 
L 842.724729 218.608377 
L 834.145063 218.608377 
z
" style="fill:#1f77b4;fill-opacity:0.5;stroke:#000000;stroke-linejoin:miter;stroke-width:0.8;"/>
   </g>
   <g id="patch_216">
    <path clip-path="url(#p9cee4ae796)" d="M 842.724729 224.64 
L 851.304394 224.64 
L 851.304394 224.64 
L 842.724729 224.64 
z
" style="fill:#1f77b4;fill-opacity:0.5;stroke:#000000;stroke-linejoin:miter;stroke-width:0.8;"/>
   </g>
   <g id="patch_217">
    <path clip-path="url(#p9cee4ae796)" d="M 851.304394 224.64 
L 859.88406 224.64 
L 859.88406 220.618918 
L 851.304394 220.618918 
z
" style="fill:#1f77b4;fill-opacity:0.5;stroke:#000000;stroke-linejoin:miter;stroke-width:0.8;"/>
   </g>
   <g id="patch_218">
    <path clip-path="url(#p9cee4ae796)" d="M 859.88406 224.64 
L 868.463726 224.64 
L 868.463726 222.629459 
L 859.88406 222.629459 
z
" style="fill:#1f77b4;fill-opacity:0.5;stroke:#000000;stroke-linejoin:miter;stroke-width:0.8;"/>
   </g>
   <g id="patch_219">
    <path clip-path="url(#p9cee4ae796)" d="M 868.463726 224.64 
L 877.043391 224.64 
L 877.043391 224.64 
L 868.463726 224.64 
z
" style="fill:#1f77b4;fill-opacity:0.5;stroke:#000000;stroke-linejoin:miter;stroke-width:0.8;"/>
   </g>
   <g id="patch_220">
    <path clip-path="url(#p9cee4ae796)" d="M 877.043391 224.64 
L 885.623057 224.64 
L 885.623057 222.629459 
L 877.043391 222.629459 
z
" style="fill:#1f77b4;fill-opacity:0.5;stroke:#000000;stroke-linejoin:miter;stroke-width:0.8;"/>
   </g>
   <g id="patch_221">
    <path clip-path="url(#p9cee4ae796)" d="M 885.623057 224.64 
L 894.202722 224.64 
L 894.202722 224.64 
L 885.623057 224.64 
z
" style="fill:#1f77b4;fill-opacity:0.5;stroke:#000000;stroke-linejoin:miter;stroke-width:0.8;"/>
   </g>
   <g id="patch_222">
    <path clip-path="url(#p9cee4ae796)" d="M 894.202722 224.64 
L 902.782388 224.64 
L 902.782388 224.64 
L 894.202722 224.64 
z
" style="fill:#1f77b4;fill-opacity:0.5;stroke:#000000;stroke-linejoin:miter;stroke-width:0.8;"/>
   </g>
   <g id="patch_223">
    <path clip-path="url(#p9cee4ae796)" d="M 902.782388 224.64 
L 911.362053 224.64 
L 911.362053 224.64 
L 902.782388 224.64 
z
" style="fill:#1f77b4;fill-opacity:0.5;stroke:#000000;stroke-linejoin:miter;stroke-width:0.8;"/>
   </g>
   <g id="patch_224">
    <path clip-path="url(#p9cee4ae796)" d="M 911.362053 224.64 
L 919.941719 224.64 
L 919.941719 222.629459 
L 911.362053 222.629459 
z
" style="fill:#1f77b4;fill-opacity:0.5;stroke:#000000;stroke-linejoin:miter;stroke-width:0.8;"/>
   </g>
   <g id="matplotlib.axis_3">
    <g id="xtick_7">
     <g id="line2d_16">
      <g>
       <use style="stroke:#000000;" x="547.050924" xlink:href="#mbe5e0a9997" y="224.64"/>
      </g>
     </g>
     <g id="text_19">
      <!-- 0 -->
      <g transform="translate(544.251424 239.626625)scale(0.088 -0.088)">
       <use xlink:href="#DejaVuSans-30"/>
      </g>
     </g>
    </g>
    <g id="xtick_8">
     <g id="line2d_17">
      <g>
       <use style="stroke:#000000;" x="629.107045" xlink:href="#mbe5e0a9997" y="224.64"/>
      </g>
     </g>
     <g id="text_20">
      <!-- 20 -->
      <g transform="translate(623.508045 239.626625)scale(0.088 -0.088)">
       <use xlink:href="#DejaVuSans-32"/>
       <use x="63.623047" xlink:href="#DejaVuSans-30"/>
      </g>
     </g>
    </g>
    <g id="xtick_9">
     <g id="line2d_18">
      <g>
       <use style="stroke:#000000;" x="711.163166" xlink:href="#mbe5e0a9997" y="224.64"/>
      </g>
     </g>
     <g id="text_21">
      <!-- 40 -->
      <g transform="translate(705.564166 239.626625)scale(0.088 -0.088)">
       <use xlink:href="#DejaVuSans-34"/>
       <use x="63.623047" xlink:href="#DejaVuSans-30"/>
      </g>
     </g>
    </g>
    <g id="xtick_10">
     <g id="line2d_19">
      <g>
       <use style="stroke:#000000;" x="793.219287" xlink:href="#mbe5e0a9997" y="224.64"/>
      </g>
     </g>
     <g id="text_22">
      <!-- 60 -->
      <g transform="translate(787.620287 239.626625)scale(0.088 -0.088)">
       <use xlink:href="#DejaVuSans-36"/>
       <use x="63.623047" xlink:href="#DejaVuSans-30"/>
      </g>
     </g>
    </g>
    <g id="xtick_11">
     <g id="line2d_20">
      <g>
       <use style="stroke:#000000;" x="875.275408" xlink:href="#mbe5e0a9997" y="224.64"/>
      </g>
     </g>
     <g id="text_23">
      <!-- 80 -->
      <g transform="translate(869.676408 239.626625)scale(0.088 -0.088)">
       <use xlink:href="#DejaVuSans-38"/>
       <use x="63.623047" xlink:href="#DejaVuSans-30"/>
      </g>
     </g>
    </g>
    <g id="text_24">
     <!-- MeanAbsErr -->
     <g transform="translate(706.673659 252.75125)scale(0.096 -0.096)">
      <defs>
       <path d="M 2188 4044 
L 1331 1722 
L 3047 1722 
L 2188 4044 
z
M 1831 4666 
L 2547 4666 
L 4325 0 
L 3669 0 
L 3244 1197 
L 1141 1197 
L 716 0 
L 50 0 
L 1831 4666 
z
" id="DejaVuSans-41" transform="scale(0.015625)"/>
       <path d="M 3116 1747 
Q 3116 2381 2855 2742 
Q 2594 3103 2138 3103 
Q 1681 3103 1420 2742 
Q 1159 2381 1159 1747 
Q 1159 1113 1420 752 
Q 1681 391 2138 391 
Q 2594 391 2855 752 
Q 3116 1113 3116 1747 
z
M 1159 2969 
Q 1341 3281 1617 3432 
Q 1894 3584 2278 3584 
Q 2916 3584 3314 3078 
Q 3713 2572 3713 1747 
Q 3713 922 3314 415 
Q 2916 -91 2278 -91 
Q 1894 -91 1617 61 
Q 1341 213 1159 525 
L 1159 0 
L 581 0 
L 581 4863 
L 1159 4863 
L 1159 2969 
z
" id="DejaVuSans-62" transform="scale(0.015625)"/>
       <path d="M 2834 3397 
L 2834 2853 
Q 2591 2978 2328 3040 
Q 2066 3103 1784 3103 
Q 1356 3103 1142 2972 
Q 928 2841 928 2578 
Q 928 2378 1081 2264 
Q 1234 2150 1697 2047 
L 1894 2003 
Q 2506 1872 2764 1633 
Q 3022 1394 3022 966 
Q 3022 478 2636 193 
Q 2250 -91 1575 -91 
Q 1294 -91 989 -36 
Q 684 19 347 128 
L 347 722 
Q 666 556 975 473 
Q 1284 391 1588 391 
Q 1994 391 2212 530 
Q 2431 669 2431 922 
Q 2431 1156 2273 1281 
Q 2116 1406 1581 1522 
L 1381 1569 
Q 847 1681 609 1914 
Q 372 2147 372 2553 
Q 372 3047 722 3315 
Q 1072 3584 1716 3584 
Q 2034 3584 2315 3537 
Q 2597 3491 2834 3397 
z
" id="DejaVuSans-73" transform="scale(0.015625)"/>
      </defs>
      <use xlink:href="#DejaVuSans-4d"/>
      <use x="86.279297" xlink:href="#DejaVuSans-65"/>
      <use x="147.802734" xlink:href="#DejaVuSans-61"/>
      <use x="209.082031" xlink:href="#DejaVuSans-6e"/>
      <use x="272.460938" xlink:href="#DejaVuSans-41"/>
      <use x="340.869141" xlink:href="#DejaVuSans-62"/>
      <use x="404.345703" xlink:href="#DejaVuSans-73"/>
      <use x="456.445312" xlink:href="#DejaVuSans-45"/>
      <use x="519.628906" xlink:href="#DejaVuSans-72"/>
      <use x="558.992188" xlink:href="#DejaVuSans-72"/>
     </g>
    </g>
   </g>
   <g id="matplotlib.axis_4">
    <g id="ytick_8">
     <g id="line2d_21">
      <g>
       <use style="stroke:#000000;" x="532.569818" xlink:href="#m3e8af38c49" y="224.64"/>
      </g>
     </g>
     <g id="text_25">
      <!-- 0 -->
      <g transform="translate(518.670818 227.983312)scale(0.088 -0.088)">
       <use xlink:href="#DejaVuSans-30"/>
      </g>
     </g>
    </g>
    <g id="ytick_9">
     <g id="line2d_22">
      <g>
       <use style="stroke:#000000;" x="532.569818" xlink:href="#m3e8af38c49" y="184.429182"/>
      </g>
     </g>
     <g id="text_26">
      <!-- 20 -->
      <g transform="translate(513.071818 187.772494)scale(0.088 -0.088)">
       <use xlink:href="#DejaVuSans-32"/>
       <use x="63.623047" xlink:href="#DejaVuSans-30"/>
      </g>
     </g>
    </g>
    <g id="ytick_10">
     <g id="line2d_23">
      <g>
       <use style="stroke:#000000;" x="532.569818" xlink:href="#m3e8af38c49" y="144.218363"/>
      </g>
     </g>
     <g id="text_27">
      <!-- 40 -->
      <g transform="translate(513.071818 147.561676)scale(0.088 -0.088)">
       <use xlink:href="#DejaVuSans-34"/>
       <use x="63.623047" xlink:href="#DejaVuSans-30"/>
      </g>
     </g>
    </g>
    <g id="ytick_11">
     <g id="line2d_24">
      <g>
       <use style="stroke:#000000;" x="532.569818" xlink:href="#m3e8af38c49" y="104.007545"/>
      </g>
     </g>
     <g id="text_28">
      <!-- 60 -->
      <g transform="translate(513.071818 107.350858)scale(0.088 -0.088)">
       <use xlink:href="#DejaVuSans-36"/>
       <use x="63.623047" xlink:href="#DejaVuSans-30"/>
      </g>
     </g>
    </g>
    <g id="ytick_12">
     <g id="line2d_25">
      <g>
       <use style="stroke:#000000;" x="532.569818" xlink:href="#m3e8af38c49" y="63.796727"/>
      </g>
     </g>
     <g id="text_29">
      <!-- 80 -->
      <g transform="translate(513.071818 67.140039)scale(0.088 -0.088)">
       <use xlink:href="#DejaVuSans-38"/>
       <use x="63.623047" xlink:href="#DejaVuSans-30"/>
      </g>
     </g>
    </g>
    <g id="ytick_13">
     <g id="line2d_26">
      <g>
       <use style="stroke:#000000;" x="532.569818" xlink:href="#m3e8af38c49" y="23.585908"/>
      </g>
     </g>
     <g id="text_30">
      <!-- 100 -->
      <g transform="translate(507.472818 26.929221)scale(0.088 -0.088)">
       <use xlink:href="#DejaVuSans-31"/>
       <use x="63.623047" xlink:href="#DejaVuSans-30"/>
       <use x="127.246094" xlink:href="#DejaVuSans-30"/>
      </g>
     </g>
    </g>
    <g id="text_31">
     <!-- Count -->
     <g transform="translate(501.476318 130.1745)rotate(-90)scale(0.096 -0.096)">
      <use xlink:href="#DejaVuSans-43"/>
      <use x="69.824219" xlink:href="#DejaVuSans-6f"/>
      <use x="131.005859" xlink:href="#DejaVuSans-75"/>
      <use x="194.384766" xlink:href="#DejaVuSans-6e"/>
      <use x="257.763672" xlink:href="#DejaVuSans-74"/>
     </g>
    </g>
   </g>
   <g id="line2d_27">
    <path clip-path="url(#p9cee4ae796)" d="M 551.016099 223.615404 
L 554.723894 222.871866 
L 556.577792 222.321299 
L 558.43169 221.606965 
L 560.285587 220.688469 
L 562.139485 219.52063 
L 563.993382 218.054707 
L 565.84728 216.240035 
L 567.701177 214.025961 
L 569.555075 211.363913 
L 571.408973 208.209478 
L 573.26287 204.524341 
L 575.116768 200.278063 
L 576.970665 195.449694 
L 578.824563 190.029292 
L 580.678461 184.019451 
L 582.532358 177.436896 
L 584.386256 170.314191 
L 588.094051 154.667987 
L 591.801846 137.717899 
L 597.363539 112.026691 
L 599.217436 104.021436 
L 601.071334 96.581808 
L 602.925232 89.8752 
L 604.779129 84.054146 
L 606.633027 79.247657 
L 608.486924 75.553418 
L 610.340822 73.031607 
L 612.19472 71.701015 
L 614.048617 71.537906 
L 615.902515 72.477799 
L 617.756412 74.420043 
L 619.61031 77.234785 
L 621.464207 80.771687 
L 623.318105 84.869592 
L 627.0259 94.107618 
L 632.587593 108.524164 
L 636.295388 117.438971 
L 640.003183 125.450794 
L 643.710979 132.598779 
L 647.418774 139.069855 
L 651.126569 145.078018 
L 656.688262 153.568371 
L 662.249954 161.602838 
L 665.95775 166.63495 
L 669.665545 171.300695 
L 673.37334 175.55299 
L 677.081135 179.450098 
L 691.912316 194.511406 
L 695.620111 198.265221 
L 699.327906 201.683567 
L 703.035701 204.589597 
L 704.889599 205.827635 
L 708.597394 207.905746 
L 712.305189 209.582065 
L 725.282472 214.948684 
L 732.698063 218.215313 
L 736.405858 219.570139 
L 740.113653 220.60765 
L 743.821448 221.323133 
L 747.529243 221.777915 
L 753.090936 222.168457 
L 764.214322 222.628647 
L 771.629912 222.762336 
L 780.8994 222.643732 
L 808.707864 222.108257 
L 816.123454 222.26864 
L 829.100737 222.691832 
L 843.931918 222.9779 
L 864.324791 223.89344 
L 875.448177 223.884259 
L 888.42546 223.675454 
L 899.548846 223.463704 
L 905.110538 223.575516 
L 914.380026 224.048553 
L 919.941719 224.322482 
L 919.941719 224.322482 
" style="fill:none;stroke:#ff7f0e;stroke-linecap:square;stroke-width:2;"/>
   </g>
   <g id="line2d_28">
    <path clip-path="url(#p9cee4ae796)" d="M 551.016099 223.424019 
L 554.723894 222.830324 
L 556.577792 222.400018 
L 558.43169 221.847441 
L 560.285587 221.142174 
L 562.139485 220.249453 
L 563.993382 219.130421 
L 565.84728 217.742643 
L 567.701177 216.040912 
L 569.555075 213.978385 
L 571.408973 211.508041 
L 573.26287 208.584478 
L 575.116768 205.166007 
L 576.970665 201.216974 
L 578.824563 196.710252 
L 580.678461 191.629756 
L 582.532358 185.972852 
L 584.386256 179.752494 
L 586.240153 172.998911 
L 589.947949 158.104978 
L 593.655744 141.898715 
L 599.217436 117.068144 
L 602.925232 101.689424 
L 604.779129 94.745644 
L 606.633027 88.455307 
L 608.486924 82.917916 
L 610.340822 78.215154 
L 612.19472 74.408897 
L 614.048617 71.540117 
L 615.902515 69.628641 
L 617.756412 68.673653 
L 619.61031 68.654826 
L 621.464207 69.533943 
L 623.318105 71.256898 
L 625.172003 73.755968 
L 627.0259 76.952289 
L 628.879798 80.758478 
L 630.733695 85.081362 
L 632.587593 89.824749 
L 636.295388 100.18964 
L 645.564876 127.284082 
L 649.272671 137.278789 
L 652.980466 146.371314 
L 656.688262 154.469547 
L 658.542159 158.141079 
L 660.396057 161.565174 
L 662.249954 164.747585 
L 664.103852 167.695393 
L 665.95775 170.416757 
L 667.811647 172.920881 
L 669.665545 175.218101 
L 671.519442 177.320011 
L 673.37334 179.239528 
L 675.227238 180.990838 
L 678.935033 184.050548 
L 682.642828 186.626919 
L 686.350623 188.843815 
L 690.058418 190.807392 
L 695.620111 193.448094 
L 703.035701 196.633496 
L 708.597394 198.822178 
L 714.159087 200.757228 
L 717.866882 201.840721 
L 721.574677 202.729384 
L 727.13637 203.740327 
L 736.405858 205.238818 
L 740.113653 206.077674 
L 743.821448 207.162437 
L 747.529243 208.49882 
L 753.090936 210.858834 
L 760.506527 214.134972 
L 764.214322 215.56913 
L 767.922117 216.745269 
L 771.629912 217.620995 
L 775.337707 218.201801 
L 779.045502 218.534846 
L 784.607195 218.729142 
L 799.438376 218.788183 
L 821.685147 218.819035 
L 827.24684 219.129342 
L 834.66243 219.822891 
L 851.347508 221.529913 
L 868.032587 222.849066 
L 881.00987 223.720346 
L 890.279358 224.129181 
L 899.548846 224.289023 
L 910.672231 224.21257 
L 919.941719 224.151168 
L 919.941719 224.151168 
" style="fill:none;stroke:#1f77b4;stroke-linecap:square;stroke-width:2;"/>
   </g>
   <g id="patch_225">
    <path d="M 532.569818 224.64 
L 532.569818 7.2 
" style="fill:none;stroke:#000000;stroke-linecap:square;stroke-linejoin:miter;"/>
   </g>
   <g id="patch_226">
    <path d="M 938.388 224.64 
L 938.388 7.2 
" style="fill:none;stroke:#000000;stroke-linecap:square;stroke-linejoin:miter;"/>
   </g>
   <g id="patch_227">
    <path d="M 532.569818 224.64 
L 938.388 224.64 
" style="fill:none;stroke:#000000;stroke-linecap:square;stroke-linejoin:miter;"/>
   </g>
   <g id="patch_228">
    <path d="M 532.569818 7.2 
L 938.388 7.2 
" style="fill:none;stroke:#000000;stroke-linecap:square;stroke-linejoin:miter;"/>
   </g>
   <g id="legend_2">
    <g id="patch_229">
     <path d="M 859.326875 53.7645 
L 932.228 53.7645 
Q 933.988 53.7645 933.988 52.0045 
L 933.988 13.36 
Q 933.988 11.6 932.228 11.6 
L 859.326875 11.6 
Q 857.566875 11.6 857.566875 13.36 
L 857.566875 52.0045 
Q 857.566875 53.7645 859.326875 53.7645 
z
" style="fill:#ffffff;opacity:0.8;stroke:#cccccc;stroke-linejoin:miter;stroke-width:0.8;"/>
    </g>
    <g id="text_32">
     <!-- Group -->
     <g transform="translate(881.166687 22.4145)scale(0.096 -0.096)">
      <use xlink:href="#DejaVuSans-47"/>
      <use x="77.490234" xlink:href="#DejaVuSans-72"/>
      <use x="116.353516" xlink:href="#DejaVuSans-6f"/>
      <use x="177.535156" xlink:href="#DejaVuSans-75"/>
      <use x="240.914062" xlink:href="#DejaVuSans-70"/>
     </g>
    </g>
    <g id="patch_230">
     <path d="M 861.086875 35.497625 
L 878.686875 35.497625 
L 878.686875 29.337625 
L 861.086875 29.337625 
z
" style="fill:#1f77b4;fill-opacity:0.5;stroke:#000000;stroke-linejoin:miter;stroke-width:0.8;"/>
    </g>
    <g id="text_33">
     <!-- NoReward -->
     <g transform="translate(885.726875 35.497625)scale(0.088 -0.088)">
      <use xlink:href="#DejaVuSans-4e"/>
      <use x="74.804688" xlink:href="#DejaVuSans-6f"/>
      <use x="135.986328" xlink:href="#DejaVuSans-52"/>
      <use x="200.96875" xlink:href="#DejaVuSans-65"/>
      <use x="262.492188" xlink:href="#DejaVuSans-77"/>
      <use x="344.279297" xlink:href="#DejaVuSans-61"/>
      <use x="405.558594" xlink:href="#DejaVuSans-72"/>
      <use x="444.921875" xlink:href="#DejaVuSans-64"/>
     </g>
    </g>
    <g id="patch_231">
     <path d="M 861.086875 48.414375 
L 878.686875 48.414375 
L 878.686875 42.254375 
L 861.086875 42.254375 
z
" style="fill:#ff7f0e;fill-opacity:0.5;stroke:#000000;stroke-linejoin:miter;stroke-width:0.8;"/>
    </g>
    <g id="text_34">
     <!-- Reward -->
     <g transform="translate(885.726875 48.414375)scale(0.088 -0.088)">
      <use xlink:href="#DejaVuSans-52"/>
      <use x="64.982422" xlink:href="#DejaVuSans-65"/>
      <use x="126.505859" xlink:href="#DejaVuSans-77"/>
      <use x="208.292969" xlink:href="#DejaVuSans-61"/>
      <use x="269.572266" xlink:href="#DejaVuSans-72"/>
      <use x="308.935547" xlink:href="#DejaVuSans-64"/>
     </g>
    </g>
   </g>
  </g>
 </g>
 <defs>
  <clipPath id="pe13aa2f7c1">
   <rect height="217.44" width="405.818182" x="45.588" y="7.2"/>
  </clipPath>
  <clipPath id="p9cee4ae796">
   <rect height="217.44" width="405.818182" x="532.569818" y="7.2"/>
  </clipPath>
 </defs>
</svg>
