<?xml version="1.0" encoding="utf-8" standalone="no"?>
<!DOCTYPE svg PUBLIC "-//W3C//DTD SVG 1.1//EN"
  "http://www.w3.org/Graphics/SVG/1.1/DTD/svg11.dtd">
<svg height="259.30775pt" version="1.1" viewBox="0 0 256.213 259.30775" width="256.213pt" xmlns="http://www.w3.org/2000/svg" xmlns:xlink="http://www.w3.org/1999/xlink">
 <metadata>
  <rdf:RDF xmlns:cc="http://creativecommons.org/ns#" xmlns:dc="http://purl.org/dc/elements/1.1/" xmlns:rdf="http://www.w3.org/1999/02/22-rdf-syntax-ns#">
   <cc:Work>
    <dc:type rdf:resource="http://purl.org/dc/dcmitype/StillImage"/>
    <dc:date>2022-04-29T16:37:23.011944</dc:date>
    <dc:format>image/svg+xml</dc:format>
    <dc:creator>
     <cc:Agent>
      <dc:title>Matplotlib v3.4.3, https://matplotlib.org/</dc:title>
     </cc:Agent>
    </dc:creator>
   </cc:Work>
  </rdf:RDF>
 </metadata>
 <defs>
  <style type="text/css">*{stroke-linecap:butt;stroke-linejoin:round;}</style>
 </defs>
 <g id="figure_1">
  <g id="patch_1">
   <path d="M 0 259.30775 
L 256.213 259.30775 
L 256.213 0 
L 0 0 
z
" style="fill:none;"/>
  </g>
  <g id="axes_1">
   <g id="patch_2">
    <path d="M 45.588 222 
L 126.5505 222 
L 126.5505 7.2 
L 45.588 7.2 
z
" style="fill:#ffffff;"/>
   </g>
   <g id="patch_3">
    <path clip-path="url(#p574ed0a1ab)" d="M 49.268114 222 
L 52.334875 222 
L 52.334875 27.97349 
L 49.268114 27.97349 
z
" style="fill:#1f77b4;fill-opacity:0.5;stroke:#000000;stroke-linejoin:miter;stroke-width:0.380871;"/>
   </g>
   <g id="patch_4">
    <path clip-path="url(#p574ed0a1ab)" d="M 52.334875 222 
L 55.401636 222 
L 55.401636 17.428571 
L 52.334875 17.428571 
z
" style="fill:#1f77b4;fill-opacity:0.5;stroke:#000000;stroke-linejoin:miter;stroke-width:0.380871;"/>
   </g>
   <g id="patch_5">
    <path clip-path="url(#p574ed0a1ab)" d="M 55.401636 222 
L 58.468398 222 
L 58.468398 124.986745 
L 55.401636 124.986745 
z
" style="fill:#1f77b4;fill-opacity:0.5;stroke:#000000;stroke-linejoin:miter;stroke-width:0.380871;"/>
   </g>
   <g id="patch_6">
    <path clip-path="url(#p574ed0a1ab)" d="M 58.468398 222 
L 61.535159 222 
L 61.535159 129.204713 
L 58.468398 129.204713 
z
" style="fill:#1f77b4;fill-opacity:0.5;stroke:#000000;stroke-linejoin:miter;stroke-width:0.380871;"/>
   </g>
   <g id="patch_7">
    <path clip-path="url(#p574ed0a1ab)" d="M 61.535159 222 
L 64.60192 222 
L 64.60192 165.057437 
L 61.535159 165.057437 
z
" style="fill:#1f77b4;fill-opacity:0.5;stroke:#000000;stroke-linejoin:miter;stroke-width:0.380871;"/>
   </g>
   <g id="patch_8">
    <path clip-path="url(#p574ed0a1ab)" d="M 64.60192 222 
L 67.668682 222 
L 67.668682 186.147275 
L 64.60192 186.147275 
z
" style="fill:#1f77b4;fill-opacity:0.5;stroke:#000000;stroke-linejoin:miter;stroke-width:0.380871;"/>
   </g>
   <g id="patch_9">
    <path clip-path="url(#p574ed0a1ab)" d="M 67.668682 222 
L 70.735443 222 
L 70.735443 177.71134 
L 67.668682 177.71134 
z
" style="fill:#1f77b4;fill-opacity:0.5;stroke:#000000;stroke-linejoin:miter;stroke-width:0.380871;"/>
   </g>
   <g id="patch_10">
    <path clip-path="url(#p574ed0a1ab)" d="M 70.735443 222 
L 73.802205 222 
L 73.802205 194.583211 
L 70.735443 194.583211 
z
" style="fill:#1f77b4;fill-opacity:0.5;stroke:#000000;stroke-linejoin:miter;stroke-width:0.380871;"/>
   </g>
   <g id="patch_11">
    <path clip-path="url(#p574ed0a1ab)" d="M 73.802205 222 
L 76.868966 222 
L 76.868966 200.910162 
L 73.802205 200.910162 
z
" style="fill:#1f77b4;fill-opacity:0.5;stroke:#000000;stroke-linejoin:miter;stroke-width:0.380871;"/>
   </g>
   <g id="patch_12">
    <path clip-path="url(#p574ed0a1ab)" d="M 76.868966 222 
L 79.935727 222 
L 79.935727 203.019146 
L 76.868966 203.019146 
z
" style="fill:#1f77b4;fill-opacity:0.5;stroke:#000000;stroke-linejoin:miter;stroke-width:0.380871;"/>
   </g>
   <g id="patch_13">
    <path clip-path="url(#p574ed0a1ab)" d="M 79.935727 222 
L 83.002489 222 
L 83.002489 215.673049 
L 79.935727 215.673049 
z
" style="fill:#1f77b4;fill-opacity:0.5;stroke:#000000;stroke-linejoin:miter;stroke-width:0.380871;"/>
   </g>
   <g id="patch_14">
    <path clip-path="url(#p574ed0a1ab)" d="M 83.002489 222 
L 86.06925 222 
L 86.06925 207.237113 
L 83.002489 207.237113 
z
" style="fill:#1f77b4;fill-opacity:0.5;stroke:#000000;stroke-linejoin:miter;stroke-width:0.380871;"/>
   </g>
   <g id="patch_15">
    <path clip-path="url(#p574ed0a1ab)" d="M 86.06925 222 
L 89.136011 222 
L 89.136011 211.455081 
L 86.06925 211.455081 
z
" style="fill:#1f77b4;fill-opacity:0.5;stroke:#000000;stroke-linejoin:miter;stroke-width:0.380871;"/>
   </g>
   <g id="patch_16">
    <path clip-path="url(#p574ed0a1ab)" d="M 89.136011 222 
L 92.202773 222 
L 92.202773 217.782032 
L 89.136011 217.782032 
z
" style="fill:#1f77b4;fill-opacity:0.5;stroke:#000000;stroke-linejoin:miter;stroke-width:0.380871;"/>
   </g>
   <g id="patch_17">
    <path clip-path="url(#p574ed0a1ab)" d="M 92.202773 222 
L 95.269534 222 
L 95.269534 211.455081 
L 92.202773 211.455081 
z
" style="fill:#1f77b4;fill-opacity:0.5;stroke:#000000;stroke-linejoin:miter;stroke-width:0.380871;"/>
   </g>
   <g id="patch_18">
    <path clip-path="url(#p574ed0a1ab)" d="M 95.269534 222 
L 98.336295 222 
L 98.336295 219.891016 
L 95.269534 219.891016 
z
" style="fill:#1f77b4;fill-opacity:0.5;stroke:#000000;stroke-linejoin:miter;stroke-width:0.380871;"/>
   </g>
   <g id="patch_19">
    <path clip-path="url(#p574ed0a1ab)" d="M 98.336295 222 
L 101.403057 222 
L 101.403057 222 
L 98.336295 222 
z
" style="fill:#1f77b4;fill-opacity:0.5;stroke:#000000;stroke-linejoin:miter;stroke-width:0.380871;"/>
   </g>
   <g id="patch_20">
    <path clip-path="url(#p574ed0a1ab)" d="M 101.403057 222 
L 104.469818 222 
L 104.469818 217.782032 
L 101.403057 217.782032 
z
" style="fill:#1f77b4;fill-opacity:0.5;stroke:#000000;stroke-linejoin:miter;stroke-width:0.380871;"/>
   </g>
   <g id="patch_21">
    <path clip-path="url(#p574ed0a1ab)" d="M 104.469818 222 
L 107.53658 222 
L 107.53658 222 
L 104.469818 222 
z
" style="fill:#1f77b4;fill-opacity:0.5;stroke:#000000;stroke-linejoin:miter;stroke-width:0.380871;"/>
   </g>
   <g id="patch_22">
    <path clip-path="url(#p574ed0a1ab)" d="M 107.53658 222 
L 110.603341 222 
L 110.603341 222 
L 107.53658 222 
z
" style="fill:#1f77b4;fill-opacity:0.5;stroke:#000000;stroke-linejoin:miter;stroke-width:0.380871;"/>
   </g>
   <g id="patch_23">
    <path clip-path="url(#p574ed0a1ab)" d="M 110.603341 222 
L 113.670102 222 
L 113.670102 222 
L 110.603341 222 
z
" style="fill:#1f77b4;fill-opacity:0.5;stroke:#000000;stroke-linejoin:miter;stroke-width:0.380871;"/>
   </g>
   <g id="patch_24">
    <path clip-path="url(#p574ed0a1ab)" d="M 113.670102 222 
L 116.736864 222 
L 116.736864 222 
L 113.670102 222 
z
" style="fill:#1f77b4;fill-opacity:0.5;stroke:#000000;stroke-linejoin:miter;stroke-width:0.380871;"/>
   </g>
   <g id="patch_25">
    <path clip-path="url(#p574ed0a1ab)" d="M 116.736864 222 
L 119.803625 222 
L 119.803625 222 
L 116.736864 222 
z
" style="fill:#1f77b4;fill-opacity:0.5;stroke:#000000;stroke-linejoin:miter;stroke-width:0.380871;"/>
   </g>
   <g id="patch_26">
    <path clip-path="url(#p574ed0a1ab)" d="M 119.803625 222 
L 122.870386 222 
L 122.870386 219.891016 
L 119.803625 219.891016 
z
" style="fill:#1f77b4;fill-opacity:0.5;stroke:#000000;stroke-linejoin:miter;stroke-width:0.380871;"/>
   </g>
   <g id="matplotlib.axis_1">
    <g id="xtick_1">
     <g id="line2d_1">
      <defs>
       <path d="M 0 0 
L 0 4.8 
" id="m78fc7f575b" style="stroke:#000000;"/>
      </defs>
      <g>
       <use style="stroke:#000000;" x="48.46145" xlink:href="#m78fc7f575b" y="222"/>
      </g>
     </g>
     <g id="text_1">
      <!-- 0 -->
      <g transform="translate(45.66195 236.986625)scale(0.088 -0.088)">
       <defs>
        <path d="M 2034 4250 
Q 1547 4250 1301 3770 
Q 1056 3291 1056 2328 
Q 1056 1369 1301 889 
Q 1547 409 2034 409 
Q 2525 409 2770 889 
Q 3016 1369 3016 2328 
Q 3016 3291 2770 3770 
Q 2525 4250 2034 4250 
z
M 2034 4750 
Q 2819 4750 3233 4129 
Q 3647 3509 3647 2328 
Q 3647 1150 3233 529 
Q 2819 -91 2034 -91 
Q 1250 -91 836 529 
Q 422 1150 422 2328 
Q 422 3509 836 4129 
Q 1250 4750 2034 4750 
z
" id="DejaVuSans-30" transform="scale(0.015625)"/>
       </defs>
       <use xlink:href="#DejaVuSans-30"/>
      </g>
     </g>
    </g>
    <g id="xtick_2">
     <g id="line2d_2">
      <g>
       <use style="stroke:#000000;" x="101.229923" xlink:href="#m78fc7f575b" y="222"/>
      </g>
     </g>
     <g id="text_2">
      <!-- 5000 -->
      <g transform="translate(90.031923 236.986625)scale(0.088 -0.088)">
       <defs>
        <path d="M 691 4666 
L 3169 4666 
L 3169 4134 
L 1269 4134 
L 1269 2991 
Q 1406 3038 1543 3061 
Q 1681 3084 1819 3084 
Q 2600 3084 3056 2656 
Q 3513 2228 3513 1497 
Q 3513 744 3044 326 
Q 2575 -91 1722 -91 
Q 1428 -91 1123 -41 
Q 819 9 494 109 
L 494 744 
Q 775 591 1075 516 
Q 1375 441 1709 441 
Q 2250 441 2565 725 
Q 2881 1009 2881 1497 
Q 2881 1984 2565 2268 
Q 2250 2553 1709 2553 
Q 1456 2553 1204 2497 
Q 953 2441 691 2322 
L 691 4666 
z
" id="DejaVuSans-35" transform="scale(0.015625)"/>
       </defs>
       <use xlink:href="#DejaVuSans-35"/>
       <use x="63.623047" xlink:href="#DejaVuSans-30"/>
       <use x="127.246094" xlink:href="#DejaVuSans-30"/>
       <use x="190.869141" xlink:href="#DejaVuSans-30"/>
      </g>
     </g>
    </g>
    <g id="text_3">
     <!-- MeanSqErr -->
     <g transform="translate(60.00075 250.11125)scale(0.096 -0.096)">
      <defs>
       <path d="M 628 4666 
L 1569 4666 
L 2759 1491 
L 3956 4666 
L 4897 4666 
L 4897 0 
L 4281 0 
L 4281 4097 
L 3078 897 
L 2444 897 
L 1241 4097 
L 1241 0 
L 628 0 
L 628 4666 
z
" id="DejaVuSans-4d" transform="scale(0.015625)"/>
       <path d="M 3597 1894 
L 3597 1613 
L 953 1613 
Q 991 1019 1311 708 
Q 1631 397 2203 397 
Q 2534 397 2845 478 
Q 3156 559 3463 722 
L 3463 178 
Q 3153 47 2828 -22 
Q 2503 -91 2169 -91 
Q 1331 -91 842 396 
Q 353 884 353 1716 
Q 353 2575 817 3079 
Q 1281 3584 2069 3584 
Q 2775 3584 3186 3129 
Q 3597 2675 3597 1894 
z
M 3022 2063 
Q 3016 2534 2758 2815 
Q 2500 3097 2075 3097 
Q 1594 3097 1305 2825 
Q 1016 2553 972 2059 
L 3022 2063 
z
" id="DejaVuSans-65" transform="scale(0.015625)"/>
       <path d="M 2194 1759 
Q 1497 1759 1228 1600 
Q 959 1441 959 1056 
Q 959 750 1161 570 
Q 1363 391 1709 391 
Q 2188 391 2477 730 
Q 2766 1069 2766 1631 
L 2766 1759 
L 2194 1759 
z
M 3341 1997 
L 3341 0 
L 2766 0 
L 2766 531 
Q 2569 213 2275 61 
Q 1981 -91 1556 -91 
Q 1019 -91 701 211 
Q 384 513 384 1019 
Q 384 1609 779 1909 
Q 1175 2209 1959 2209 
L 2766 2209 
L 2766 2266 
Q 2766 2663 2505 2880 
Q 2244 3097 1772 3097 
Q 1472 3097 1187 3025 
Q 903 2953 641 2809 
L 641 3341 
Q 956 3463 1253 3523 
Q 1550 3584 1831 3584 
Q 2591 3584 2966 3190 
Q 3341 2797 3341 1997 
z
" id="DejaVuSans-61" transform="scale(0.015625)"/>
       <path d="M 3513 2113 
L 3513 0 
L 2938 0 
L 2938 2094 
Q 2938 2591 2744 2837 
Q 2550 3084 2163 3084 
Q 1697 3084 1428 2787 
Q 1159 2491 1159 1978 
L 1159 0 
L 581 0 
L 581 3500 
L 1159 3500 
L 1159 2956 
Q 1366 3272 1645 3428 
Q 1925 3584 2291 3584 
Q 2894 3584 3203 3211 
Q 3513 2838 3513 2113 
z
" id="DejaVuSans-6e" transform="scale(0.015625)"/>
       <path d="M 3425 4513 
L 3425 3897 
Q 3066 4069 2747 4153 
Q 2428 4238 2131 4238 
Q 1616 4238 1336 4038 
Q 1056 3838 1056 3469 
Q 1056 3159 1242 3001 
Q 1428 2844 1947 2747 
L 2328 2669 
Q 3034 2534 3370 2195 
Q 3706 1856 3706 1288 
Q 3706 609 3251 259 
Q 2797 -91 1919 -91 
Q 1588 -91 1214 -16 
Q 841 59 441 206 
L 441 856 
Q 825 641 1194 531 
Q 1563 422 1919 422 
Q 2459 422 2753 634 
Q 3047 847 3047 1241 
Q 3047 1584 2836 1778 
Q 2625 1972 2144 2069 
L 1759 2144 
Q 1053 2284 737 2584 
Q 422 2884 422 3419 
Q 422 4038 858 4394 
Q 1294 4750 2059 4750 
Q 2388 4750 2728 4690 
Q 3069 4631 3425 4513 
z
" id="DejaVuSans-53" transform="scale(0.015625)"/>
       <path d="M 947 1747 
Q 947 1113 1208 752 
Q 1469 391 1925 391 
Q 2381 391 2643 752 
Q 2906 1113 2906 1747 
Q 2906 2381 2643 2742 
Q 2381 3103 1925 3103 
Q 1469 3103 1208 2742 
Q 947 2381 947 1747 
z
M 2906 525 
Q 2725 213 2448 61 
Q 2172 -91 1784 -91 
Q 1150 -91 751 415 
Q 353 922 353 1747 
Q 353 2572 751 3078 
Q 1150 3584 1784 3584 
Q 2172 3584 2448 3432 
Q 2725 3281 2906 2969 
L 2906 3500 
L 3481 3500 
L 3481 -1331 
L 2906 -1331 
L 2906 525 
z
" id="DejaVuSans-71" transform="scale(0.015625)"/>
       <path d="M 628 4666 
L 3578 4666 
L 3578 4134 
L 1259 4134 
L 1259 2753 
L 3481 2753 
L 3481 2222 
L 1259 2222 
L 1259 531 
L 3634 531 
L 3634 0 
L 628 0 
L 628 4666 
z
" id="DejaVuSans-45" transform="scale(0.015625)"/>
       <path d="M 2631 2963 
Q 2534 3019 2420 3045 
Q 2306 3072 2169 3072 
Q 1681 3072 1420 2755 
Q 1159 2438 1159 1844 
L 1159 0 
L 581 0 
L 581 3500 
L 1159 3500 
L 1159 2956 
Q 1341 3275 1631 3429 
Q 1922 3584 2338 3584 
Q 2397 3584 2469 3576 
Q 2541 3569 2628 3553 
L 2631 2963 
z
" id="DejaVuSans-72" transform="scale(0.015625)"/>
      </defs>
      <use xlink:href="#DejaVuSans-4d"/>
      <use x="86.279297" xlink:href="#DejaVuSans-65"/>
      <use x="147.802734" xlink:href="#DejaVuSans-61"/>
      <use x="209.082031" xlink:href="#DejaVuSans-6e"/>
      <use x="272.460938" xlink:href="#DejaVuSans-53"/>
      <use x="335.9375" xlink:href="#DejaVuSans-71"/>
      <use x="399.414062" xlink:href="#DejaVuSans-45"/>
      <use x="462.597656" xlink:href="#DejaVuSans-72"/>
      <use x="501.960938" xlink:href="#DejaVuSans-72"/>
     </g>
    </g>
   </g>
   <g id="matplotlib.axis_2">
    <g id="ytick_1">
     <g id="line2d_3">
      <defs>
       <path d="M 0 0 
L -4.8 0 
" id="m3aaed345f3" style="stroke:#000000;"/>
      </defs>
      <g>
       <use style="stroke:#000000;" x="45.588" xlink:href="#m3aaed345f3" y="222"/>
      </g>
     </g>
     <g id="text_4">
      <!-- 0 -->
      <g transform="translate(31.689 225.343312)scale(0.088 -0.088)">
       <use xlink:href="#DejaVuSans-30"/>
      </g>
     </g>
    </g>
    <g id="ytick_2">
     <g id="line2d_4">
      <g>
       <use style="stroke:#000000;" x="45.588" xlink:href="#m3aaed345f3" y="179.820324"/>
      </g>
     </g>
     <g id="text_5">
      <!-- 20 -->
      <g transform="translate(26.09 183.163637)scale(0.088 -0.088)">
       <defs>
        <path d="M 1228 531 
L 3431 531 
L 3431 0 
L 469 0 
L 469 531 
Q 828 903 1448 1529 
Q 2069 2156 2228 2338 
Q 2531 2678 2651 2914 
Q 2772 3150 2772 3378 
Q 2772 3750 2511 3984 
Q 2250 4219 1831 4219 
Q 1534 4219 1204 4116 
Q 875 4013 500 3803 
L 500 4441 
Q 881 4594 1212 4672 
Q 1544 4750 1819 4750 
Q 2544 4750 2975 4387 
Q 3406 4025 3406 3419 
Q 3406 3131 3298 2873 
Q 3191 2616 2906 2266 
Q 2828 2175 2409 1742 
Q 1991 1309 1228 531 
z
" id="DejaVuSans-32" transform="scale(0.015625)"/>
       </defs>
       <use xlink:href="#DejaVuSans-32"/>
       <use x="63.623047" xlink:href="#DejaVuSans-30"/>
      </g>
     </g>
    </g>
    <g id="ytick_3">
     <g id="line2d_5">
      <g>
       <use style="stroke:#000000;" x="45.588" xlink:href="#m3aaed345f3" y="137.640648"/>
      </g>
     </g>
     <g id="text_6">
      <!-- 40 -->
      <g transform="translate(26.09 140.983961)scale(0.088 -0.088)">
       <defs>
        <path d="M 2419 4116 
L 825 1625 
L 2419 1625 
L 2419 4116 
z
M 2253 4666 
L 3047 4666 
L 3047 1625 
L 3713 1625 
L 3713 1100 
L 3047 1100 
L 3047 0 
L 2419 0 
L 2419 1100 
L 313 1100 
L 313 1709 
L 2253 4666 
z
" id="DejaVuSans-34" transform="scale(0.015625)"/>
       </defs>
       <use xlink:href="#DejaVuSans-34"/>
       <use x="63.623047" xlink:href="#DejaVuSans-30"/>
      </g>
     </g>
    </g>
    <g id="ytick_4">
     <g id="line2d_6">
      <g>
       <use style="stroke:#000000;" x="45.588" xlink:href="#m3aaed345f3" y="95.460972"/>
      </g>
     </g>
     <g id="text_7">
      <!-- 60 -->
      <g transform="translate(26.09 98.804285)scale(0.088 -0.088)">
       <defs>
        <path d="M 2113 2584 
Q 1688 2584 1439 2293 
Q 1191 2003 1191 1497 
Q 1191 994 1439 701 
Q 1688 409 2113 409 
Q 2538 409 2786 701 
Q 3034 994 3034 1497 
Q 3034 2003 2786 2293 
Q 2538 2584 2113 2584 
z
M 3366 4563 
L 3366 3988 
Q 3128 4100 2886 4159 
Q 2644 4219 2406 4219 
Q 1781 4219 1451 3797 
Q 1122 3375 1075 2522 
Q 1259 2794 1537 2939 
Q 1816 3084 2150 3084 
Q 2853 3084 3261 2657 
Q 3669 2231 3669 1497 
Q 3669 778 3244 343 
Q 2819 -91 2113 -91 
Q 1303 -91 875 529 
Q 447 1150 447 2328 
Q 447 3434 972 4092 
Q 1497 4750 2381 4750 
Q 2619 4750 2861 4703 
Q 3103 4656 3366 4563 
z
" id="DejaVuSans-36" transform="scale(0.015625)"/>
       </defs>
       <use xlink:href="#DejaVuSans-36"/>
       <use x="63.623047" xlink:href="#DejaVuSans-30"/>
      </g>
     </g>
    </g>
    <g id="ytick_5">
     <g id="line2d_7">
      <g>
       <use style="stroke:#000000;" x="45.588" xlink:href="#m3aaed345f3" y="53.281296"/>
      </g>
     </g>
     <g id="text_8">
      <!-- 80 -->
      <g transform="translate(26.09 56.624609)scale(0.088 -0.088)">
       <defs>
        <path d="M 2034 2216 
Q 1584 2216 1326 1975 
Q 1069 1734 1069 1313 
Q 1069 891 1326 650 
Q 1584 409 2034 409 
Q 2484 409 2743 651 
Q 3003 894 3003 1313 
Q 3003 1734 2745 1975 
Q 2488 2216 2034 2216 
z
M 1403 2484 
Q 997 2584 770 2862 
Q 544 3141 544 3541 
Q 544 4100 942 4425 
Q 1341 4750 2034 4750 
Q 2731 4750 3128 4425 
Q 3525 4100 3525 3541 
Q 3525 3141 3298 2862 
Q 3072 2584 2669 2484 
Q 3125 2378 3379 2068 
Q 3634 1759 3634 1313 
Q 3634 634 3220 271 
Q 2806 -91 2034 -91 
Q 1263 -91 848 271 
Q 434 634 434 1313 
Q 434 1759 690 2068 
Q 947 2378 1403 2484 
z
M 1172 3481 
Q 1172 3119 1398 2916 
Q 1625 2713 2034 2713 
Q 2441 2713 2670 2916 
Q 2900 3119 2900 3481 
Q 2900 3844 2670 4047 
Q 2441 4250 2034 4250 
Q 1625 4250 1398 4047 
Q 1172 3844 1172 3481 
z
" id="DejaVuSans-38" transform="scale(0.015625)"/>
       </defs>
       <use xlink:href="#DejaVuSans-38"/>
       <use x="63.623047" xlink:href="#DejaVuSans-30"/>
      </g>
     </g>
    </g>
    <g id="ytick_6">
     <g id="line2d_8">
      <g>
       <use style="stroke:#000000;" x="45.588" xlink:href="#m3aaed345f3" y="11.10162"/>
      </g>
     </g>
     <g id="text_9">
      <!-- 100 -->
      <g transform="translate(20.491 14.444933)scale(0.088 -0.088)">
       <defs>
        <path d="M 794 531 
L 1825 531 
L 1825 4091 
L 703 3866 
L 703 4441 
L 1819 4666 
L 2450 4666 
L 2450 531 
L 3481 531 
L 3481 0 
L 794 0 
L 794 531 
z
" id="DejaVuSans-31" transform="scale(0.015625)"/>
       </defs>
       <use xlink:href="#DejaVuSans-31"/>
       <use x="63.623047" xlink:href="#DejaVuSans-30"/>
       <use x="127.246094" xlink:href="#DejaVuSans-30"/>
      </g>
     </g>
    </g>
    <g id="text_10">
     <!-- Count -->
     <g transform="translate(14.4945 128.8545)rotate(-90)scale(0.096 -0.096)">
      <defs>
       <path d="M 4122 4306 
L 4122 3641 
Q 3803 3938 3442 4084 
Q 3081 4231 2675 4231 
Q 1875 4231 1450 3742 
Q 1025 3253 1025 2328 
Q 1025 1406 1450 917 
Q 1875 428 2675 428 
Q 3081 428 3442 575 
Q 3803 722 4122 1019 
L 4122 359 
Q 3791 134 3420 21 
Q 3050 -91 2638 -91 
Q 1578 -91 968 557 
Q 359 1206 359 2328 
Q 359 3453 968 4101 
Q 1578 4750 2638 4750 
Q 3056 4750 3426 4639 
Q 3797 4528 4122 4306 
z
" id="DejaVuSans-43" transform="scale(0.015625)"/>
       <path d="M 1959 3097 
Q 1497 3097 1228 2736 
Q 959 2375 959 1747 
Q 959 1119 1226 758 
Q 1494 397 1959 397 
Q 2419 397 2687 759 
Q 2956 1122 2956 1747 
Q 2956 2369 2687 2733 
Q 2419 3097 1959 3097 
z
M 1959 3584 
Q 2709 3584 3137 3096 
Q 3566 2609 3566 1747 
Q 3566 888 3137 398 
Q 2709 -91 1959 -91 
Q 1206 -91 779 398 
Q 353 888 353 1747 
Q 353 2609 779 3096 
Q 1206 3584 1959 3584 
z
" id="DejaVuSans-6f" transform="scale(0.015625)"/>
       <path d="M 544 1381 
L 544 3500 
L 1119 3500 
L 1119 1403 
Q 1119 906 1312 657 
Q 1506 409 1894 409 
Q 2359 409 2629 706 
Q 2900 1003 2900 1516 
L 2900 3500 
L 3475 3500 
L 3475 0 
L 2900 0 
L 2900 538 
Q 2691 219 2414 64 
Q 2138 -91 1772 -91 
Q 1169 -91 856 284 
Q 544 659 544 1381 
z
M 1991 3584 
L 1991 3584 
z
" id="DejaVuSans-75" transform="scale(0.015625)"/>
       <path d="M 1172 4494 
L 1172 3500 
L 2356 3500 
L 2356 3053 
L 1172 3053 
L 1172 1153 
Q 1172 725 1289 603 
Q 1406 481 1766 481 
L 2356 481 
L 2356 0 
L 1766 0 
Q 1100 0 847 248 
Q 594 497 594 1153 
L 594 3053 
L 172 3053 
L 172 3500 
L 594 3500 
L 594 4494 
L 1172 4494 
z
" id="DejaVuSans-74" transform="scale(0.015625)"/>
      </defs>
      <use xlink:href="#DejaVuSans-43"/>
      <use x="69.824219" xlink:href="#DejaVuSans-6f"/>
      <use x="131.005859" xlink:href="#DejaVuSans-75"/>
      <use x="194.384766" xlink:href="#DejaVuSans-6e"/>
      <use x="257.763672" xlink:href="#DejaVuSans-74"/>
     </g>
    </g>
   </g>
   <g id="line2d_9">
    <path clip-path="url(#p574ed0a1ab)" d="M 49.268114 127.101336 
L 50.747556 94.636631 
L 51.487278 81.882886 
L 52.226999 72.728463 
L 52.59686 69.679609 
L 52.96672 67.689816 
L 53.336581 66.75335 
L 53.706442 66.836875 
L 54.076302 67.881763 
L 54.446163 69.807432 
L 55.185884 75.894625 
L 56.295466 88.855522 
L 59.254352 126.420196 
L 60.733794 141.041179 
L 62.213237 153.103024 
L 63.69268 163.325069 
L 64.802262 169.726205 
L 65.911844 174.855388 
L 67.021426 178.723638 
L 68.131008 181.618476 
L 72.939196 192.597695 
L 76.637803 202.010931 
L 78.117246 205.257715 
L 79.226828 207.238717 
L 79.966549 208.257373 
L 80.70627 209.005556 
L 81.445992 209.493273 
L 82.185713 209.765791 
L 83.665156 209.976854 
L 84.774738 210.178545 
L 85.88432 210.634546 
L 86.993902 211.366097 
L 91.062369 214.419828 
L 94.021254 216.292938 
L 98.459582 219.552098 
L 99.569164 219.944428 
L 101.048607 220.167641 
L 103.637632 220.438997 
L 105.486935 220.891219 
L 108.44582 221.646418 
L 110.295124 221.883028 
L 112.884148 221.977882 
L 116.212894 221.900119 
L 118.801919 221.636 
L 122.500526 221.216322 
L 122.870386 221.211298 
L 122.870386 221.211298 
" style="fill:none;stroke:#1f77b4;stroke-linecap:square;stroke-width:2;"/>
   </g>
   <g id="patch_27">
    <path d="M 45.588 222 
L 45.588 7.2 
" style="fill:none;stroke:#000000;stroke-linecap:square;stroke-linejoin:miter;"/>
   </g>
   <g id="patch_28">
    <path d="M 126.5505 222 
L 126.5505 7.2 
" style="fill:none;stroke:#000000;stroke-linecap:square;stroke-linejoin:miter;"/>
   </g>
   <g id="patch_29">
    <path d="M 45.588 222 
L 126.5505 222 
" style="fill:none;stroke:#000000;stroke-linecap:square;stroke-linejoin:miter;"/>
   </g>
   <g id="patch_30">
    <path d="M 45.588 7.2 
L 126.5505 7.2 
" style="fill:none;stroke:#000000;stroke-linecap:square;stroke-linejoin:miter;"/>
   </g>
  </g>
  <g id="axes_2">
   <g id="patch_31">
    <path d="M 168.0505 222 
L 249.013 222 
L 249.013 7.2 
L 168.0505 7.2 
z
" style="fill:#ffffff;"/>
   </g>
   <g id="patch_32">
    <path clip-path="url(#pffe6bb4ada)" d="M 171.730614 222 
L 175.604417 222 
L 175.604417 168.755382 
L 171.730614 168.755382 
z
" style="fill:#ff0000;fill-opacity:0.5;stroke:#000000;stroke-linejoin:miter;stroke-width:0.38738;"/>
   </g>
   <g id="patch_33">
    <path clip-path="url(#pffe6bb4ada)" d="M 175.604417 222 
L 179.478221 222 
L 179.478221 87.48728 
L 175.604417 87.48728 
z
" style="fill:#ff0000;fill-opacity:0.5;stroke:#000000;stroke-linejoin:miter;stroke-width:0.38738;"/>
   </g>
   <g id="patch_34">
    <path clip-path="url(#pffe6bb4ada)" d="M 179.478221 222 
L 183.352025 222 
L 183.352025 48.254403 
L 179.478221 48.254403 
z
" style="fill:#ff0000;fill-opacity:0.5;stroke:#000000;stroke-linejoin:miter;stroke-width:0.38738;"/>
   </g>
   <g id="patch_35">
    <path clip-path="url(#pffe6bb4ada)" d="M 183.352025 222 
L 187.225829 222 
L 187.225829 17.428571 
L 183.352025 17.428571 
z
" style="fill:#ff0000;fill-opacity:0.5;stroke:#000000;stroke-linejoin:miter;stroke-width:0.38738;"/>
   </g>
   <g id="patch_36">
    <path clip-path="url(#pffe6bb4ada)" d="M 187.225829 222 
L 191.099633 222 
L 191.099633 84.684932 
L 187.225829 84.684932 
z
" style="fill:#ff0000;fill-opacity:0.5;stroke:#000000;stroke-linejoin:miter;stroke-width:0.38738;"/>
   </g>
   <g id="patch_37">
    <path clip-path="url(#pffe6bb4ada)" d="M 191.099633 222 
L 194.973437 222 
L 194.973437 121.11546 
L 191.099633 121.11546 
z
" style="fill:#ff0000;fill-opacity:0.5;stroke:#000000;stroke-linejoin:miter;stroke-width:0.38738;"/>
   </g>
   <g id="patch_38">
    <path clip-path="url(#pffe6bb4ada)" d="M 194.973437 222 
L 198.84724 222 
L 198.84724 140.731898 
L 194.973437 140.731898 
z
" style="fill:#ff0000;fill-opacity:0.5;stroke:#000000;stroke-linejoin:miter;stroke-width:0.38738;"/>
   </g>
   <g id="patch_39">
    <path clip-path="url(#pffe6bb4ada)" d="M 198.84724 222 
L 202.721044 222 
L 202.721044 165.953033 
L 198.84724 165.953033 
z
" style="fill:#ff0000;fill-opacity:0.5;stroke:#000000;stroke-linejoin:miter;stroke-width:0.38738;"/>
   </g>
   <g id="patch_40">
    <path clip-path="url(#pffe6bb4ada)" d="M 202.721044 222 
L 206.594848 222 
L 206.594848 160.348337 
L 202.721044 160.348337 
z
" style="fill:#ff0000;fill-opacity:0.5;stroke:#000000;stroke-linejoin:miter;stroke-width:0.38738;"/>
   </g>
   <g id="patch_41">
    <path clip-path="url(#pffe6bb4ada)" d="M 206.594848 222 
L 210.468652 222 
L 210.468652 177.162427 
L 206.594848 177.162427 
z
" style="fill:#ff0000;fill-opacity:0.5;stroke:#000000;stroke-linejoin:miter;stroke-width:0.38738;"/>
   </g>
   <g id="patch_42">
    <path clip-path="url(#pffe6bb4ada)" d="M 210.468652 222 
L 214.342456 222 
L 214.342456 205.18591 
L 210.468652 205.18591 
z
" style="fill:#ff0000;fill-opacity:0.5;stroke:#000000;stroke-linejoin:miter;stroke-width:0.38738;"/>
   </g>
   <g id="patch_43">
    <path clip-path="url(#pffe6bb4ada)" d="M 214.342456 222 
L 218.21626 222 
L 218.21626 191.174168 
L 214.342456 191.174168 
z
" style="fill:#ff0000;fill-opacity:0.5;stroke:#000000;stroke-linejoin:miter;stroke-width:0.38738;"/>
   </g>
   <g id="patch_44">
    <path clip-path="url(#pffe6bb4ada)" d="M 218.21626 222 
L 222.090063 222 
L 222.090063 210.790607 
L 218.21626 210.790607 
z
" style="fill:#ff0000;fill-opacity:0.5;stroke:#000000;stroke-linejoin:miter;stroke-width:0.38738;"/>
   </g>
   <g id="patch_45">
    <path clip-path="url(#pffe6bb4ada)" d="M 222.090063 222 
L 225.963867 222 
L 225.963867 210.790607 
L 222.090063 210.790607 
z
" style="fill:#ff0000;fill-opacity:0.5;stroke:#000000;stroke-linejoin:miter;stroke-width:0.38738;"/>
   </g>
   <g id="patch_46">
    <path clip-path="url(#pffe6bb4ada)" d="M 225.963867 222 
L 229.837671 222 
L 229.837671 219.197652 
L 225.963867 219.197652 
z
" style="fill:#ff0000;fill-opacity:0.5;stroke:#000000;stroke-linejoin:miter;stroke-width:0.38738;"/>
   </g>
   <g id="patch_47">
    <path clip-path="url(#pffe6bb4ada)" d="M 229.837671 222 
L 233.711475 222 
L 233.711475 219.197652 
L 229.837671 219.197652 
z
" style="fill:#ff0000;fill-opacity:0.5;stroke:#000000;stroke-linejoin:miter;stroke-width:0.38738;"/>
   </g>
   <g id="patch_48">
    <path clip-path="url(#pffe6bb4ada)" d="M 233.711475 222 
L 237.585279 222 
L 237.585279 222 
L 233.711475 222 
z
" style="fill:#ff0000;fill-opacity:0.5;stroke:#000000;stroke-linejoin:miter;stroke-width:0.38738;"/>
   </g>
   <g id="patch_49">
    <path clip-path="url(#pffe6bb4ada)" d="M 237.585279 222 
L 241.459083 222 
L 241.459083 222 
L 237.585279 222 
z
" style="fill:#ff0000;fill-opacity:0.5;stroke:#000000;stroke-linejoin:miter;stroke-width:0.38738;"/>
   </g>
   <g id="patch_50">
    <path clip-path="url(#pffe6bb4ada)" d="M 241.459083 222 
L 245.332886 222 
L 245.332886 219.197652 
L 241.459083 219.197652 
z
" style="fill:#ff0000;fill-opacity:0.5;stroke:#000000;stroke-linejoin:miter;stroke-width:0.38738;"/>
   </g>
   <g id="matplotlib.axis_3">
    <g id="xtick_3">
     <g id="line2d_10">
      <g>
       <use style="stroke:#000000;" x="192.643501" xlink:href="#m78fc7f575b" y="222"/>
      </g>
     </g>
     <g id="text_11">
      <!-- 25 -->
      <g transform="translate(187.044501 236.986625)scale(0.088 -0.088)">
       <use xlink:href="#DejaVuSans-32"/>
       <use x="63.623047" xlink:href="#DejaVuSans-35"/>
      </g>
     </g>
    </g>
    <g id="xtick_4">
     <g id="line2d_11">
      <g>
       <use style="stroke:#000000;" x="221.026059" xlink:href="#m78fc7f575b" y="222"/>
      </g>
     </g>
     <g id="text_12">
      <!-- 50 -->
      <g transform="translate(215.427059 236.986625)scale(0.088 -0.088)">
       <use xlink:href="#DejaVuSans-35"/>
       <use x="63.623047" xlink:href="#DejaVuSans-30"/>
      </g>
     </g>
    </g>
    <g id="text_13">
     <!-- MeanAbsErr -->
     <g transform="translate(179.7265 250.11125)scale(0.096 -0.096)">
      <defs>
       <path d="M 2188 4044 
L 1331 1722 
L 3047 1722 
L 2188 4044 
z
M 1831 4666 
L 2547 4666 
L 4325 0 
L 3669 0 
L 3244 1197 
L 1141 1197 
L 716 0 
L 50 0 
L 1831 4666 
z
" id="DejaVuSans-41" transform="scale(0.015625)"/>
       <path d="M 3116 1747 
Q 3116 2381 2855 2742 
Q 2594 3103 2138 3103 
Q 1681 3103 1420 2742 
Q 1159 2381 1159 1747 
Q 1159 1113 1420 752 
Q 1681 391 2138 391 
Q 2594 391 2855 752 
Q 3116 1113 3116 1747 
z
M 1159 2969 
Q 1341 3281 1617 3432 
Q 1894 3584 2278 3584 
Q 2916 3584 3314 3078 
Q 3713 2572 3713 1747 
Q 3713 922 3314 415 
Q 2916 -91 2278 -91 
Q 1894 -91 1617 61 
Q 1341 213 1159 525 
L 1159 0 
L 581 0 
L 581 4863 
L 1159 4863 
L 1159 2969 
z
" id="DejaVuSans-62" transform="scale(0.015625)"/>
       <path d="M 2834 3397 
L 2834 2853 
Q 2591 2978 2328 3040 
Q 2066 3103 1784 3103 
Q 1356 3103 1142 2972 
Q 928 2841 928 2578 
Q 928 2378 1081 2264 
Q 1234 2150 1697 2047 
L 1894 2003 
Q 2506 1872 2764 1633 
Q 3022 1394 3022 966 
Q 3022 478 2636 193 
Q 2250 -91 1575 -91 
Q 1294 -91 989 -36 
Q 684 19 347 128 
L 347 722 
Q 666 556 975 473 
Q 1284 391 1588 391 
Q 1994 391 2212 530 
Q 2431 669 2431 922 
Q 2431 1156 2273 1281 
Q 2116 1406 1581 1522 
L 1381 1569 
Q 847 1681 609 1914 
Q 372 2147 372 2553 
Q 372 3047 722 3315 
Q 1072 3584 1716 3584 
Q 2034 3584 2315 3537 
Q 2597 3491 2834 3397 
z
" id="DejaVuSans-73" transform="scale(0.015625)"/>
      </defs>
      <use xlink:href="#DejaVuSans-4d"/>
      <use x="86.279297" xlink:href="#DejaVuSans-65"/>
      <use x="147.802734" xlink:href="#DejaVuSans-61"/>
      <use x="209.082031" xlink:href="#DejaVuSans-6e"/>
      <use x="272.460938" xlink:href="#DejaVuSans-41"/>
      <use x="340.869141" xlink:href="#DejaVuSans-62"/>
      <use x="404.345703" xlink:href="#DejaVuSans-73"/>
      <use x="456.445312" xlink:href="#DejaVuSans-45"/>
      <use x="519.628906" xlink:href="#DejaVuSans-72"/>
      <use x="558.992188" xlink:href="#DejaVuSans-72"/>
     </g>
    </g>
   </g>
   <g id="matplotlib.axis_4">
    <g id="ytick_7">
     <g id="line2d_12">
      <g>
       <use style="stroke:#000000;" x="168.0505" xlink:href="#m3aaed345f3" y="222"/>
      </g>
     </g>
     <g id="text_14">
      <!-- 0 -->
      <g transform="translate(154.1515 225.343312)scale(0.088 -0.088)">
       <use xlink:href="#DejaVuSans-30"/>
      </g>
     </g>
    </g>
    <g id="ytick_8">
     <g id="line2d_13">
      <g>
       <use style="stroke:#000000;" x="168.0505" xlink:href="#m3aaed345f3" y="193.976517"/>
      </g>
     </g>
     <g id="text_15">
      <!-- 10 -->
      <g transform="translate(148.5525 197.319829)scale(0.088 -0.088)">
       <use xlink:href="#DejaVuSans-31"/>
       <use x="63.623047" xlink:href="#DejaVuSans-30"/>
      </g>
     </g>
    </g>
    <g id="ytick_9">
     <g id="line2d_14">
      <g>
       <use style="stroke:#000000;" x="168.0505" xlink:href="#m3aaed345f3" y="165.953033"/>
      </g>
     </g>
     <g id="text_16">
      <!-- 20 -->
      <g transform="translate(148.5525 169.296346)scale(0.088 -0.088)">
       <use xlink:href="#DejaVuSans-32"/>
       <use x="63.623047" xlink:href="#DejaVuSans-30"/>
      </g>
     </g>
    </g>
    <g id="ytick_10">
     <g id="line2d_15">
      <g>
       <use style="stroke:#000000;" x="168.0505" xlink:href="#m3aaed345f3" y="137.92955"/>
      </g>
     </g>
     <g id="text_17">
      <!-- 30 -->
      <g transform="translate(148.5525 141.272862)scale(0.088 -0.088)">
       <defs>
        <path d="M 2597 2516 
Q 3050 2419 3304 2112 
Q 3559 1806 3559 1356 
Q 3559 666 3084 287 
Q 2609 -91 1734 -91 
Q 1441 -91 1130 -33 
Q 819 25 488 141 
L 488 750 
Q 750 597 1062 519 
Q 1375 441 1716 441 
Q 2309 441 2620 675 
Q 2931 909 2931 1356 
Q 2931 1769 2642 2001 
Q 2353 2234 1838 2234 
L 1294 2234 
L 1294 2753 
L 1863 2753 
Q 2328 2753 2575 2939 
Q 2822 3125 2822 3475 
Q 2822 3834 2567 4026 
Q 2313 4219 1838 4219 
Q 1578 4219 1281 4162 
Q 984 4106 628 3988 
L 628 4550 
Q 988 4650 1302 4700 
Q 1616 4750 1894 4750 
Q 2613 4750 3031 4423 
Q 3450 4097 3450 3541 
Q 3450 3153 3228 2886 
Q 3006 2619 2597 2516 
z
" id="DejaVuSans-33" transform="scale(0.015625)"/>
       </defs>
       <use xlink:href="#DejaVuSans-33"/>
       <use x="63.623047" xlink:href="#DejaVuSans-30"/>
      </g>
     </g>
    </g>
    <g id="ytick_11">
     <g id="line2d_16">
      <g>
       <use style="stroke:#000000;" x="168.0505" xlink:href="#m3aaed345f3" y="109.906067"/>
      </g>
     </g>
     <g id="text_18">
      <!-- 40 -->
      <g transform="translate(148.5525 113.249379)scale(0.088 -0.088)">
       <use xlink:href="#DejaVuSans-34"/>
       <use x="63.623047" xlink:href="#DejaVuSans-30"/>
      </g>
     </g>
    </g>
    <g id="ytick_12">
     <g id="line2d_17">
      <g>
       <use style="stroke:#000000;" x="168.0505" xlink:href="#m3aaed345f3" y="81.882583"/>
      </g>
     </g>
     <g id="text_19">
      <!-- 50 -->
      <g transform="translate(148.5525 85.225896)scale(0.088 -0.088)">
       <use xlink:href="#DejaVuSans-35"/>
       <use x="63.623047" xlink:href="#DejaVuSans-30"/>
      </g>
     </g>
    </g>
    <g id="ytick_13">
     <g id="line2d_18">
      <g>
       <use style="stroke:#000000;" x="168.0505" xlink:href="#m3aaed345f3" y="53.8591"/>
      </g>
     </g>
     <g id="text_20">
      <!-- 60 -->
      <g transform="translate(148.5525 57.202412)scale(0.088 -0.088)">
       <use xlink:href="#DejaVuSans-36"/>
       <use x="63.623047" xlink:href="#DejaVuSans-30"/>
      </g>
     </g>
    </g>
    <g id="ytick_14">
     <g id="line2d_19">
      <g>
       <use style="stroke:#000000;" x="168.0505" xlink:href="#m3aaed345f3" y="25.835616"/>
      </g>
     </g>
     <g id="text_21">
      <!-- 70 -->
      <g transform="translate(148.5525 29.178929)scale(0.088 -0.088)">
       <defs>
        <path d="M 525 4666 
L 3525 4666 
L 3525 4397 
L 1831 0 
L 1172 0 
L 2766 4134 
L 525 4134 
L 525 4666 
z
" id="DejaVuSans-37" transform="scale(0.015625)"/>
       </defs>
       <use xlink:href="#DejaVuSans-37"/>
       <use x="63.623047" xlink:href="#DejaVuSans-30"/>
      </g>
     </g>
    </g>
    <g id="text_22">
     <!-- Count -->
     <g transform="translate(142.556 128.8545)rotate(-90)scale(0.096 -0.096)">
      <use xlink:href="#DejaVuSans-43"/>
      <use x="69.824219" xlink:href="#DejaVuSans-6f"/>
      <use x="131.005859" xlink:href="#DejaVuSans-75"/>
      <use x="194.384766" xlink:href="#DejaVuSans-6e"/>
      <use x="257.763672" xlink:href="#DejaVuSans-74"/>
     </g>
    </g>
   </g>
   <g id="line2d_20">
    <path clip-path="url(#pffe6bb4ada)" d="M 171.730614 185.643044 
L 172.840196 171.859143 
L 174.319638 150.371273 
L 178.757966 82.291856 
L 179.867548 68.989586 
L 180.97713 58.479111 
L 181.716852 53.21062 
L 182.456573 49.429682 
L 183.196294 47.192192 
L 183.566155 46.66103 
L 183.936016 46.521063 
L 184.305876 46.767901 
L 184.675737 47.393534 
L 185.045598 48.386102 
L 185.785319 51.405094 
L 186.52504 55.654653 
L 187.634622 63.850998 
L 189.114065 76.893682 
L 193.182532 114.023051 
L 195.031836 128.792409 
L 196.511278 138.993727 
L 197.62086 145.417663 
L 198.730442 150.660413 
L 199.840024 154.773026 
L 200.949606 157.996787 
L 203.16877 163.353595 
L 204.648213 167.322953 
L 206.127656 172.144389 
L 207.976959 179.146741 
L 210.196123 187.552009 
L 211.305705 191.117968 
L 212.415287 194.023427 
L 213.524869 196.266025 
L 214.634451 197.986223 
L 216.483754 200.306606 
L 218.333058 202.705015 
L 220.182361 205.479672 
L 226.839853 215.98557 
L 228.319296 217.687631 
L 229.428878 218.649742 
L 230.53846 219.360692 
L 232.017902 220.021872 
L 234.237066 220.718334 
L 236.826091 221.321219 
L 238.675394 221.504633 
L 240.524698 221.406728 
L 245.332886 220.799509 
L 245.332886 220.799509 
" style="fill:none;stroke:#ff0000;stroke-linecap:square;stroke-width:2;"/>
   </g>
   <g id="patch_51">
    <path d="M 168.0505 222 
L 168.0505 7.2 
" style="fill:none;stroke:#000000;stroke-linecap:square;stroke-linejoin:miter;"/>
   </g>
   <g id="patch_52">
    <path d="M 249.013 222 
L 249.013 7.2 
" style="fill:none;stroke:#000000;stroke-linecap:square;stroke-linejoin:miter;"/>
   </g>
   <g id="patch_53">
    <path d="M 168.0505 222 
L 249.013 222 
" style="fill:none;stroke:#000000;stroke-linecap:square;stroke-linejoin:miter;"/>
   </g>
   <g id="patch_54">
    <path d="M 168.0505 7.2 
L 249.013 7.2 
" style="fill:none;stroke:#000000;stroke-linecap:square;stroke-linejoin:miter;"/>
   </g>
  </g>
 </g>
 <defs>
  <clipPath id="p574ed0a1ab">
   <rect height="214.8" width="80.9625" x="45.588" y="7.2"/>
  </clipPath>
  <clipPath id="pffe6bb4ada">
   <rect height="214.8" width="80.9625" x="168.0505" y="7.2"/>
  </clipPath>
 </defs>
</svg>
