<?xml version="1.0" encoding="utf-8" standalone="no"?>
<!DOCTYPE svg PUBLIC "-//W3C//DTD SVG 1.1//EN"
  "http://www.w3.org/Graphics/SVG/1.1/DTD/svg11.dtd">
<svg height="257.70775pt" version="1.1" viewBox="0 0 542.613 257.70775" width="542.613pt" xmlns="http://www.w3.org/2000/svg" xmlns:xlink="http://www.w3.org/1999/xlink">
 <metadata>
  <rdf:RDF xmlns:cc="http://creativecommons.org/ns#" xmlns:dc="http://purl.org/dc/elements/1.1/" xmlns:rdf="http://www.w3.org/1999/02/22-rdf-syntax-ns#">
   <cc:Work>
    <dc:type rdf:resource="http://purl.org/dc/dcmitype/StillImage"/>
    <dc:date>2022-06-28T10:19:12.290806</dc:date>
    <dc:format>image/svg+xml</dc:format>
    <dc:creator>
     <cc:Agent>
      <dc:title>Matplotlib v3.4.3, https://matplotlib.org/</dc:title>
     </cc:Agent>
    </dc:creator>
   </cc:Work>
  </rdf:RDF>
 </metadata>
 <defs>
  <style type="text/css">*{stroke-linecap:butt;stroke-linejoin:round;}</style>
 </defs>
 <g id="figure_1">
  <g id="patch_1">
   <path d="M 0 257.70775 
L 542.613 257.70775 
L 542.613 0 
L 0 0 
z
" style="fill:none;"/>
  </g>
  <g id="axes_1">
   <g id="patch_2">
    <path d="M 45.588 220.4 
L 269.3505 220.4 
L 269.3505 7.2 
L 45.588 7.2 
z
" style="fill:#ffffff;"/>
   </g>
   <g id="patch_3">
    <path clip-path="url(#p44a3d1d711)" d="M 55.759023 220.4 
L 58.841151 220.4 
L 58.841151 188.579104 
L 55.759023 188.579104 
z
" style="fill:#1f77b4;fill-opacity:0.5;stroke:#000000;stroke-linejoin:miter;stroke-width:0.335193;"/>
   </g>
   <g id="patch_4">
    <path clip-path="url(#p44a3d1d711)" d="M 58.841151 220.4 
L 61.923279 220.4 
L 61.923279 67.356645 
L 58.841151 67.356645 
z
" style="fill:#1f77b4;fill-opacity:0.5;stroke:#000000;stroke-linejoin:miter;stroke-width:0.335193;"/>
   </g>
   <g id="patch_5">
    <path clip-path="url(#p44a3d1d711)" d="M 61.923279 220.4 
L 65.005407 220.4 
L 65.005407 17.352381 
L 61.923279 17.352381 
z
" style="fill:#1f77b4;fill-opacity:0.5;stroke:#000000;stroke-linejoin:miter;stroke-width:0.335193;"/>
   </g>
   <g id="patch_6">
    <path clip-path="url(#p44a3d1d711)" d="M 65.005407 220.4 
L 68.087535 220.4 
L 68.087535 71.902488 
L 65.005407 71.902488 
z
" style="fill:#1f77b4;fill-opacity:0.5;stroke:#000000;stroke-linejoin:miter;stroke-width:0.335193;"/>
   </g>
   <g id="patch_7">
    <path clip-path="url(#p44a3d1d711)" d="M 68.087535 220.4 
L 71.169663 220.4 
L 71.169663 109.026866 
L 68.087535 109.026866 
z
" style="fill:#1f77b4;fill-opacity:0.5;stroke:#000000;stroke-linejoin:miter;stroke-width:0.335193;"/>
   </g>
   <g id="patch_8">
    <path clip-path="url(#p44a3d1d711)" d="M 71.169663 220.4 
L 74.251791 220.4 
L 74.251791 152.212367 
L 71.169663 152.212367 
z
" style="fill:#1f77b4;fill-opacity:0.5;stroke:#000000;stroke-linejoin:miter;stroke-width:0.335193;"/>
   </g>
   <g id="patch_9">
    <path clip-path="url(#p44a3d1d711)" d="M 74.251791 220.4 
L 77.333919 220.4 
L 77.333919 165.849893 
L 74.251791 165.849893 
z
" style="fill:#1f77b4;fill-opacity:0.5;stroke:#000000;stroke-linejoin:miter;stroke-width:0.335193;"/>
   </g>
   <g id="patch_10">
    <path clip-path="url(#p44a3d1d711)" d="M 77.333919 220.4 
L 80.416048 220.4 
L 80.416048 174.941578 
L 77.333919 174.941578 
z
" style="fill:#1f77b4;fill-opacity:0.5;stroke:#000000;stroke-linejoin:miter;stroke-width:0.335193;"/>
   </g>
   <g id="patch_11">
    <path clip-path="url(#p44a3d1d711)" d="M 80.416048 220.4 
L 83.498176 220.4 
L 83.498176 188.579104 
L 80.416048 188.579104 
z
" style="fill:#1f77b4;fill-opacity:0.5;stroke:#000000;stroke-linejoin:miter;stroke-width:0.335193;"/>
   </g>
   <g id="patch_12">
    <path clip-path="url(#p44a3d1d711)" d="M 83.498176 220.4 
L 86.580304 220.4 
L 86.580304 185.548543 
L 83.498176 185.548543 
z
" style="fill:#1f77b4;fill-opacity:0.5;stroke:#000000;stroke-linejoin:miter;stroke-width:0.335193;"/>
   </g>
   <g id="patch_13">
    <path clip-path="url(#p44a3d1d711)" d="M 86.580304 220.4 
L 89.662432 220.4 
L 89.662432 199.18607 
L 86.580304 199.18607 
z
" style="fill:#1f77b4;fill-opacity:0.5;stroke:#000000;stroke-linejoin:miter;stroke-width:0.335193;"/>
   </g>
   <g id="patch_14">
    <path clip-path="url(#p44a3d1d711)" d="M 89.662432 220.4 
L 92.74456 220.4 
L 92.74456 202.974271 
L 89.662432 202.974271 
z
" style="fill:#1f77b4;fill-opacity:0.5;stroke:#000000;stroke-linejoin:miter;stroke-width:0.335193;"/>
   </g>
   <g id="patch_15">
    <path clip-path="url(#p44a3d1d711)" d="M 92.74456 220.4 
L 95.826688 220.4 
L 95.826688 189.336745 
L 92.74456 189.336745 
z
" style="fill:#1f77b4;fill-opacity:0.5;stroke:#000000;stroke-linejoin:miter;stroke-width:0.335193;"/>
   </g>
   <g id="patch_16">
    <path clip-path="url(#p44a3d1d711)" d="M 95.826688 220.4 
L 98.908816 220.4 
L 98.908816 205.247193 
L 95.826688 205.247193 
z
" style="fill:#1f77b4;fill-opacity:0.5;stroke:#000000;stroke-linejoin:miter;stroke-width:0.335193;"/>
   </g>
   <g id="patch_17">
    <path clip-path="url(#p44a3d1d711)" d="M 98.908816 220.4 
L 101.990944 220.4 
L 101.990944 210.550675 
L 98.908816 210.550675 
z
" style="fill:#1f77b4;fill-opacity:0.5;stroke:#000000;stroke-linejoin:miter;stroke-width:0.335193;"/>
   </g>
   <g id="patch_18">
    <path clip-path="url(#p44a3d1d711)" d="M 101.990944 220.4 
L 105.073072 220.4 
L 105.073072 207.520114 
L 101.990944 207.520114 
z
" style="fill:#1f77b4;fill-opacity:0.5;stroke:#000000;stroke-linejoin:miter;stroke-width:0.335193;"/>
   </g>
   <g id="patch_19">
    <path clip-path="url(#p44a3d1d711)" d="M 105.073072 220.4 
L 108.1552 220.4 
L 108.1552 210.550675 
L 105.073072 210.550675 
z
" style="fill:#1f77b4;fill-opacity:0.5;stroke:#000000;stroke-linejoin:miter;stroke-width:0.335193;"/>
   </g>
   <g id="patch_20">
    <path clip-path="url(#p44a3d1d711)" d="M 108.1552 220.4 
L 111.237329 220.4 
L 111.237329 214.338877 
L 108.1552 214.338877 
z
" style="fill:#1f77b4;fill-opacity:0.5;stroke:#000000;stroke-linejoin:miter;stroke-width:0.335193;"/>
   </g>
   <g id="patch_21">
    <path clip-path="url(#p44a3d1d711)" d="M 111.237329 220.4 
L 114.319457 220.4 
L 114.319457 212.823596 
L 111.237329 212.823596 
z
" style="fill:#1f77b4;fill-opacity:0.5;stroke:#000000;stroke-linejoin:miter;stroke-width:0.335193;"/>
   </g>
   <g id="patch_22">
    <path clip-path="url(#p44a3d1d711)" d="M 114.319457 220.4 
L 117.401585 220.4 
L 117.401585 216.611798 
L 114.319457 216.611798 
z
" style="fill:#1f77b4;fill-opacity:0.5;stroke:#000000;stroke-linejoin:miter;stroke-width:0.335193;"/>
   </g>
   <g id="patch_23">
    <path clip-path="url(#p44a3d1d711)" d="M 117.401585 220.4 
L 120.483713 220.4 
L 120.483713 208.277754 
L 117.401585 208.277754 
z
" style="fill:#1f77b4;fill-opacity:0.5;stroke:#000000;stroke-linejoin:miter;stroke-width:0.335193;"/>
   </g>
   <g id="patch_24">
    <path clip-path="url(#p44a3d1d711)" d="M 120.483713 220.4 
L 123.565841 220.4 
L 123.565841 214.338877 
L 120.483713 214.338877 
z
" style="fill:#1f77b4;fill-opacity:0.5;stroke:#000000;stroke-linejoin:miter;stroke-width:0.335193;"/>
   </g>
   <g id="patch_25">
    <path clip-path="url(#p44a3d1d711)" d="M 123.565841 220.4 
L 126.647969 220.4 
L 126.647969 212.823596 
L 123.565841 212.823596 
z
" style="fill:#1f77b4;fill-opacity:0.5;stroke:#000000;stroke-linejoin:miter;stroke-width:0.335193;"/>
   </g>
   <g id="patch_26">
    <path clip-path="url(#p44a3d1d711)" d="M 126.647969 220.4 
L 129.730097 220.4 
L 129.730097 218.884719 
L 126.647969 218.884719 
z
" style="fill:#1f77b4;fill-opacity:0.5;stroke:#000000;stroke-linejoin:miter;stroke-width:0.335193;"/>
   </g>
   <g id="patch_27">
    <path clip-path="url(#p44a3d1d711)" d="M 129.730097 220.4 
L 132.812225 220.4 
L 132.812225 216.611798 
L 129.730097 216.611798 
z
" style="fill:#1f77b4;fill-opacity:0.5;stroke:#000000;stroke-linejoin:miter;stroke-width:0.335193;"/>
   </g>
   <g id="patch_28">
    <path clip-path="url(#p44a3d1d711)" d="M 132.812225 220.4 
L 135.894353 220.4 
L 135.894353 213.581237 
L 132.812225 213.581237 
z
" style="fill:#1f77b4;fill-opacity:0.5;stroke:#000000;stroke-linejoin:miter;stroke-width:0.335193;"/>
   </g>
   <g id="patch_29">
    <path clip-path="url(#p44a3d1d711)" d="M 135.894353 220.4 
L 138.976481 220.4 
L 138.976481 218.127079 
L 135.894353 218.127079 
z
" style="fill:#1f77b4;fill-opacity:0.5;stroke:#000000;stroke-linejoin:miter;stroke-width:0.335193;"/>
   </g>
   <g id="patch_30">
    <path clip-path="url(#p44a3d1d711)" d="M 138.976481 220.4 
L 142.05861 220.4 
L 142.05861 218.884719 
L 138.976481 218.884719 
z
" style="fill:#1f77b4;fill-opacity:0.5;stroke:#000000;stroke-linejoin:miter;stroke-width:0.335193;"/>
   </g>
   <g id="patch_31">
    <path clip-path="url(#p44a3d1d711)" d="M 142.05861 220.4 
L 145.140738 220.4 
L 145.140738 218.127079 
L 142.05861 218.127079 
z
" style="fill:#1f77b4;fill-opacity:0.5;stroke:#000000;stroke-linejoin:miter;stroke-width:0.335193;"/>
   </g>
   <g id="patch_32">
    <path clip-path="url(#p44a3d1d711)" d="M 145.140738 220.4 
L 148.222866 220.4 
L 148.222866 220.4 
L 145.140738 220.4 
z
" style="fill:#1f77b4;fill-opacity:0.5;stroke:#000000;stroke-linejoin:miter;stroke-width:0.335193;"/>
   </g>
   <g id="patch_33">
    <path clip-path="url(#p44a3d1d711)" d="M 148.222866 220.4 
L 151.304994 220.4 
L 151.304994 220.4 
L 148.222866 220.4 
z
" style="fill:#1f77b4;fill-opacity:0.5;stroke:#000000;stroke-linejoin:miter;stroke-width:0.335193;"/>
   </g>
   <g id="patch_34">
    <path clip-path="url(#p44a3d1d711)" d="M 151.304994 220.4 
L 154.387122 220.4 
L 154.387122 218.884719 
L 151.304994 218.884719 
z
" style="fill:#1f77b4;fill-opacity:0.5;stroke:#000000;stroke-linejoin:miter;stroke-width:0.335193;"/>
   </g>
   <g id="patch_35">
    <path clip-path="url(#p44a3d1d711)" d="M 154.387122 220.4 
L 157.46925 220.4 
L 157.46925 218.127079 
L 154.387122 218.127079 
z
" style="fill:#1f77b4;fill-opacity:0.5;stroke:#000000;stroke-linejoin:miter;stroke-width:0.335193;"/>
   </g>
   <g id="patch_36">
    <path clip-path="url(#p44a3d1d711)" d="M 157.46925 220.4 
L 160.551378 220.4 
L 160.551378 219.64236 
L 157.46925 219.64236 
z
" style="fill:#1f77b4;fill-opacity:0.5;stroke:#000000;stroke-linejoin:miter;stroke-width:0.335193;"/>
   </g>
   <g id="patch_37">
    <path clip-path="url(#p44a3d1d711)" d="M 160.551378 220.4 
L 163.633506 220.4 
L 163.633506 219.64236 
L 160.551378 219.64236 
z
" style="fill:#1f77b4;fill-opacity:0.5;stroke:#000000;stroke-linejoin:miter;stroke-width:0.335193;"/>
   </g>
   <g id="patch_38">
    <path clip-path="url(#p44a3d1d711)" d="M 163.633506 220.4 
L 166.715634 220.4 
L 166.715634 218.127079 
L 163.633506 218.127079 
z
" style="fill:#1f77b4;fill-opacity:0.5;stroke:#000000;stroke-linejoin:miter;stroke-width:0.335193;"/>
   </g>
   <g id="patch_39">
    <path clip-path="url(#p44a3d1d711)" d="M 166.715634 220.4 
L 169.797762 220.4 
L 169.797762 218.127079 
L 166.715634 218.127079 
z
" style="fill:#1f77b4;fill-opacity:0.5;stroke:#000000;stroke-linejoin:miter;stroke-width:0.335193;"/>
   </g>
   <g id="patch_40">
    <path clip-path="url(#p44a3d1d711)" d="M 169.797762 220.4 
L 172.87989 220.4 
L 172.87989 219.64236 
L 169.797762 219.64236 
z
" style="fill:#1f77b4;fill-opacity:0.5;stroke:#000000;stroke-linejoin:miter;stroke-width:0.335193;"/>
   </g>
   <g id="patch_41">
    <path clip-path="url(#p44a3d1d711)" d="M 172.87989 220.4 
L 175.962019 220.4 
L 175.962019 219.64236 
L 172.87989 219.64236 
z
" style="fill:#1f77b4;fill-opacity:0.5;stroke:#000000;stroke-linejoin:miter;stroke-width:0.335193;"/>
   </g>
   <g id="patch_42">
    <path clip-path="url(#p44a3d1d711)" d="M 175.962019 220.4 
L 179.044147 220.4 
L 179.044147 220.4 
L 175.962019 220.4 
z
" style="fill:#1f77b4;fill-opacity:0.5;stroke:#000000;stroke-linejoin:miter;stroke-width:0.335193;"/>
   </g>
   <g id="patch_43">
    <path clip-path="url(#p44a3d1d711)" d="M 179.044147 220.4 
L 182.126275 220.4 
L 182.126275 218.884719 
L 179.044147 218.884719 
z
" style="fill:#1f77b4;fill-opacity:0.5;stroke:#000000;stroke-linejoin:miter;stroke-width:0.335193;"/>
   </g>
   <g id="patch_44">
    <path clip-path="url(#p44a3d1d711)" d="M 182.126275 220.4 
L 185.208403 220.4 
L 185.208403 220.4 
L 182.126275 220.4 
z
" style="fill:#1f77b4;fill-opacity:0.5;stroke:#000000;stroke-linejoin:miter;stroke-width:0.335193;"/>
   </g>
   <g id="patch_45">
    <path clip-path="url(#p44a3d1d711)" d="M 185.208403 220.4 
L 188.290531 220.4 
L 188.290531 216.611798 
L 185.208403 216.611798 
z
" style="fill:#1f77b4;fill-opacity:0.5;stroke:#000000;stroke-linejoin:miter;stroke-width:0.335193;"/>
   </g>
   <g id="patch_46">
    <path clip-path="url(#p44a3d1d711)" d="M 188.290531 220.4 
L 191.372659 220.4 
L 191.372659 216.611798 
L 188.290531 216.611798 
z
" style="fill:#1f77b4;fill-opacity:0.5;stroke:#000000;stroke-linejoin:miter;stroke-width:0.335193;"/>
   </g>
   <g id="patch_47">
    <path clip-path="url(#p44a3d1d711)" d="M 191.372659 220.4 
L 194.454787 220.4 
L 194.454787 218.884719 
L 191.372659 218.884719 
z
" style="fill:#1f77b4;fill-opacity:0.5;stroke:#000000;stroke-linejoin:miter;stroke-width:0.335193;"/>
   </g>
   <g id="patch_48">
    <path clip-path="url(#p44a3d1d711)" d="M 194.454787 220.4 
L 197.536915 220.4 
L 197.536915 219.64236 
L 194.454787 219.64236 
z
" style="fill:#1f77b4;fill-opacity:0.5;stroke:#000000;stroke-linejoin:miter;stroke-width:0.335193;"/>
   </g>
   <g id="patch_49">
    <path clip-path="url(#p44a3d1d711)" d="M 197.536915 220.4 
L 200.619043 220.4 
L 200.619043 219.64236 
L 197.536915 219.64236 
z
" style="fill:#1f77b4;fill-opacity:0.5;stroke:#000000;stroke-linejoin:miter;stroke-width:0.335193;"/>
   </g>
   <g id="patch_50">
    <path clip-path="url(#p44a3d1d711)" d="M 200.619043 220.4 
L 203.701171 220.4 
L 203.701171 220.4 
L 200.619043 220.4 
z
" style="fill:#1f77b4;fill-opacity:0.5;stroke:#000000;stroke-linejoin:miter;stroke-width:0.335193;"/>
   </g>
   <g id="patch_51">
    <path clip-path="url(#p44a3d1d711)" d="M 203.701171 220.4 
L 206.7833 220.4 
L 206.7833 219.64236 
L 203.701171 219.64236 
z
" style="fill:#1f77b4;fill-opacity:0.5;stroke:#000000;stroke-linejoin:miter;stroke-width:0.335193;"/>
   </g>
   <g id="patch_52">
    <path clip-path="url(#p44a3d1d711)" d="M 206.7833 220.4 
L 209.865428 220.4 
L 209.865428 220.4 
L 206.7833 220.4 
z
" style="fill:#1f77b4;fill-opacity:0.5;stroke:#000000;stroke-linejoin:miter;stroke-width:0.335193;"/>
   </g>
   <g id="patch_53">
    <path clip-path="url(#p44a3d1d711)" d="M 209.865428 220.4 
L 212.947556 220.4 
L 212.947556 219.64236 
L 209.865428 219.64236 
z
" style="fill:#1f77b4;fill-opacity:0.5;stroke:#000000;stroke-linejoin:miter;stroke-width:0.335193;"/>
   </g>
   <g id="patch_54">
    <path clip-path="url(#p44a3d1d711)" d="M 212.947556 220.4 
L 216.029684 220.4 
L 216.029684 218.884719 
L 212.947556 218.884719 
z
" style="fill:#1f77b4;fill-opacity:0.5;stroke:#000000;stroke-linejoin:miter;stroke-width:0.335193;"/>
   </g>
   <g id="patch_55">
    <path clip-path="url(#p44a3d1d711)" d="M 216.029684 220.4 
L 219.111812 220.4 
L 219.111812 218.884719 
L 216.029684 218.884719 
z
" style="fill:#1f77b4;fill-opacity:0.5;stroke:#000000;stroke-linejoin:miter;stroke-width:0.335193;"/>
   </g>
   <g id="patch_56">
    <path clip-path="url(#p44a3d1d711)" d="M 219.111812 220.4 
L 222.19394 220.4 
L 222.19394 220.4 
L 219.111812 220.4 
z
" style="fill:#1f77b4;fill-opacity:0.5;stroke:#000000;stroke-linejoin:miter;stroke-width:0.335193;"/>
   </g>
   <g id="patch_57">
    <path clip-path="url(#p44a3d1d711)" d="M 222.19394 220.4 
L 225.276068 220.4 
L 225.276068 219.64236 
L 222.19394 219.64236 
z
" style="fill:#1f77b4;fill-opacity:0.5;stroke:#000000;stroke-linejoin:miter;stroke-width:0.335193;"/>
   </g>
   <g id="patch_58">
    <path clip-path="url(#p44a3d1d711)" d="M 225.276068 220.4 
L 228.358196 220.4 
L 228.358196 220.4 
L 225.276068 220.4 
z
" style="fill:#1f77b4;fill-opacity:0.5;stroke:#000000;stroke-linejoin:miter;stroke-width:0.335193;"/>
   </g>
   <g id="patch_59">
    <path clip-path="url(#p44a3d1d711)" d="M 228.358196 220.4 
L 231.440324 220.4 
L 231.440324 220.4 
L 228.358196 220.4 
z
" style="fill:#1f77b4;fill-opacity:0.5;stroke:#000000;stroke-linejoin:miter;stroke-width:0.335193;"/>
   </g>
   <g id="patch_60">
    <path clip-path="url(#p44a3d1d711)" d="M 231.440324 220.4 
L 234.522452 220.4 
L 234.522452 220.4 
L 231.440324 220.4 
z
" style="fill:#1f77b4;fill-opacity:0.5;stroke:#000000;stroke-linejoin:miter;stroke-width:0.335193;"/>
   </g>
   <g id="patch_61">
    <path clip-path="url(#p44a3d1d711)" d="M 234.522452 220.4 
L 237.604581 220.4 
L 237.604581 220.4 
L 234.522452 220.4 
z
" style="fill:#1f77b4;fill-opacity:0.5;stroke:#000000;stroke-linejoin:miter;stroke-width:0.335193;"/>
   </g>
   <g id="patch_62">
    <path clip-path="url(#p44a3d1d711)" d="M 237.604581 220.4 
L 240.686709 220.4 
L 240.686709 220.4 
L 237.604581 220.4 
z
" style="fill:#1f77b4;fill-opacity:0.5;stroke:#000000;stroke-linejoin:miter;stroke-width:0.335193;"/>
   </g>
   <g id="patch_63">
    <path clip-path="url(#p44a3d1d711)" d="M 240.686709 220.4 
L 243.768837 220.4 
L 243.768837 220.4 
L 240.686709 220.4 
z
" style="fill:#1f77b4;fill-opacity:0.5;stroke:#000000;stroke-linejoin:miter;stroke-width:0.335193;"/>
   </g>
   <g id="patch_64">
    <path clip-path="url(#p44a3d1d711)" d="M 243.768837 220.4 
L 246.850965 220.4 
L 246.850965 220.4 
L 243.768837 220.4 
z
" style="fill:#1f77b4;fill-opacity:0.5;stroke:#000000;stroke-linejoin:miter;stroke-width:0.335193;"/>
   </g>
   <g id="patch_65">
    <path clip-path="url(#p44a3d1d711)" d="M 246.850965 220.4 
L 249.933093 220.4 
L 249.933093 220.4 
L 246.850965 220.4 
z
" style="fill:#1f77b4;fill-opacity:0.5;stroke:#000000;stroke-linejoin:miter;stroke-width:0.335193;"/>
   </g>
   <g id="patch_66">
    <path clip-path="url(#p44a3d1d711)" d="M 249.933093 220.4 
L 253.015221 220.4 
L 253.015221 220.4 
L 249.933093 220.4 
z
" style="fill:#1f77b4;fill-opacity:0.5;stroke:#000000;stroke-linejoin:miter;stroke-width:0.335193;"/>
   </g>
   <g id="patch_67">
    <path clip-path="url(#p44a3d1d711)" d="M 253.015221 220.4 
L 256.097349 220.4 
L 256.097349 220.4 
L 253.015221 220.4 
z
" style="fill:#1f77b4;fill-opacity:0.5;stroke:#000000;stroke-linejoin:miter;stroke-width:0.335193;"/>
   </g>
   <g id="patch_68">
    <path clip-path="url(#p44a3d1d711)" d="M 256.097349 220.4 
L 259.179477 220.4 
L 259.179477 218.127079 
L 256.097349 218.127079 
z
" style="fill:#1f77b4;fill-opacity:0.5;stroke:#000000;stroke-linejoin:miter;stroke-width:0.335193;"/>
   </g>
   <g id="matplotlib.axis_1">
    <g id="xtick_1">
     <g id="line2d_1">
      <defs>
       <path d="M 0 0 
L 0 4.8 
" id="me82ecfbee1" style="stroke:#000000;"/>
      </defs>
      <g>
       <use style="stroke:#000000;" x="55.727883" xlink:href="#me82ecfbee1" y="220.4"/>
      </g>
     </g>
     <g id="text_1">
      <!-- 0 -->
      <g transform="translate(52.928383 235.386625)scale(0.088 -0.088)">
       <defs>
        <path d="M 2034 4250 
Q 1547 4250 1301 3770 
Q 1056 3291 1056 2328 
Q 1056 1369 1301 889 
Q 1547 409 2034 409 
Q 2525 409 2770 889 
Q 3016 1369 3016 2328 
Q 3016 3291 2770 3770 
Q 2525 4250 2034 4250 
z
M 2034 4750 
Q 2819 4750 3233 4129 
Q 3647 3509 3647 2328 
Q 3647 1150 3233 529 
Q 2819 -91 2034 -91 
Q 1250 -91 836 529 
Q 422 1150 422 2328 
Q 422 3509 836 4129 
Q 1250 4750 2034 4750 
z
" id="DejaVuSans-30" transform="scale(0.015625)"/>
       </defs>
       <use xlink:href="#DejaVuSans-30"/>
      </g>
     </g>
    </g>
    <g id="xtick_2">
     <g id="line2d_2">
      <g>
       <use style="stroke:#000000;" x="93.978133" xlink:href="#me82ecfbee1" y="220.4"/>
      </g>
     </g>
     <g id="text_2">
      <!-- 2000 -->
      <g transform="translate(82.780133 235.386625)scale(0.088 -0.088)">
       <defs>
        <path d="M 1228 531 
L 3431 531 
L 3431 0 
L 469 0 
L 469 531 
Q 828 903 1448 1529 
Q 2069 2156 2228 2338 
Q 2531 2678 2651 2914 
Q 2772 3150 2772 3378 
Q 2772 3750 2511 3984 
Q 2250 4219 1831 4219 
Q 1534 4219 1204 4116 
Q 875 4013 500 3803 
L 500 4441 
Q 881 4594 1212 4672 
Q 1544 4750 1819 4750 
Q 2544 4750 2975 4387 
Q 3406 4025 3406 3419 
Q 3406 3131 3298 2873 
Q 3191 2616 2906 2266 
Q 2828 2175 2409 1742 
Q 1991 1309 1228 531 
z
" id="DejaVuSans-32" transform="scale(0.015625)"/>
       </defs>
       <use xlink:href="#DejaVuSans-32"/>
       <use x="63.623047" xlink:href="#DejaVuSans-30"/>
       <use x="127.246094" xlink:href="#DejaVuSans-30"/>
       <use x="190.869141" xlink:href="#DejaVuSans-30"/>
      </g>
     </g>
    </g>
    <g id="xtick_3">
     <g id="line2d_3">
      <g>
       <use style="stroke:#000000;" x="132.228382" xlink:href="#me82ecfbee1" y="220.4"/>
      </g>
     </g>
     <g id="text_3">
      <!-- 4000 -->
      <g transform="translate(121.030382 235.386625)scale(0.088 -0.088)">
       <defs>
        <path d="M 2419 4116 
L 825 1625 
L 2419 1625 
L 2419 4116 
z
M 2253 4666 
L 3047 4666 
L 3047 1625 
L 3713 1625 
L 3713 1100 
L 3047 1100 
L 3047 0 
L 2419 0 
L 2419 1100 
L 313 1100 
L 313 1709 
L 2253 4666 
z
" id="DejaVuSans-34" transform="scale(0.015625)"/>
       </defs>
       <use xlink:href="#DejaVuSans-34"/>
       <use x="63.623047" xlink:href="#DejaVuSans-30"/>
       <use x="127.246094" xlink:href="#DejaVuSans-30"/>
       <use x="190.869141" xlink:href="#DejaVuSans-30"/>
      </g>
     </g>
    </g>
    <g id="xtick_4">
     <g id="line2d_4">
      <g>
       <use style="stroke:#000000;" x="170.478631" xlink:href="#me82ecfbee1" y="220.4"/>
      </g>
     </g>
     <g id="text_4">
      <!-- 6000 -->
      <g transform="translate(159.280631 235.386625)scale(0.088 -0.088)">
       <defs>
        <path d="M 2113 2584 
Q 1688 2584 1439 2293 
Q 1191 2003 1191 1497 
Q 1191 994 1439 701 
Q 1688 409 2113 409 
Q 2538 409 2786 701 
Q 3034 994 3034 1497 
Q 3034 2003 2786 2293 
Q 2538 2584 2113 2584 
z
M 3366 4563 
L 3366 3988 
Q 3128 4100 2886 4159 
Q 2644 4219 2406 4219 
Q 1781 4219 1451 3797 
Q 1122 3375 1075 2522 
Q 1259 2794 1537 2939 
Q 1816 3084 2150 3084 
Q 2853 3084 3261 2657 
Q 3669 2231 3669 1497 
Q 3669 778 3244 343 
Q 2819 -91 2113 -91 
Q 1303 -91 875 529 
Q 447 1150 447 2328 
Q 447 3434 972 4092 
Q 1497 4750 2381 4750 
Q 2619 4750 2861 4703 
Q 3103 4656 3366 4563 
z
" id="DejaVuSans-36" transform="scale(0.015625)"/>
       </defs>
       <use xlink:href="#DejaVuSans-36"/>
       <use x="63.623047" xlink:href="#DejaVuSans-30"/>
       <use x="127.246094" xlink:href="#DejaVuSans-30"/>
       <use x="190.869141" xlink:href="#DejaVuSans-30"/>
      </g>
     </g>
    </g>
    <g id="xtick_5">
     <g id="line2d_5">
      <g>
       <use style="stroke:#000000;" x="208.72888" xlink:href="#me82ecfbee1" y="220.4"/>
      </g>
     </g>
     <g id="text_5">
      <!-- 8000 -->
      <g transform="translate(197.53088 235.386625)scale(0.088 -0.088)">
       <defs>
        <path d="M 2034 2216 
Q 1584 2216 1326 1975 
Q 1069 1734 1069 1313 
Q 1069 891 1326 650 
Q 1584 409 2034 409 
Q 2484 409 2743 651 
Q 3003 894 3003 1313 
Q 3003 1734 2745 1975 
Q 2488 2216 2034 2216 
z
M 1403 2484 
Q 997 2584 770 2862 
Q 544 3141 544 3541 
Q 544 4100 942 4425 
Q 1341 4750 2034 4750 
Q 2731 4750 3128 4425 
Q 3525 4100 3525 3541 
Q 3525 3141 3298 2862 
Q 3072 2584 2669 2484 
Q 3125 2378 3379 2068 
Q 3634 1759 3634 1313 
Q 3634 634 3220 271 
Q 2806 -91 2034 -91 
Q 1263 -91 848 271 
Q 434 634 434 1313 
Q 434 1759 690 2068 
Q 947 2378 1403 2484 
z
M 1172 3481 
Q 1172 3119 1398 2916 
Q 1625 2713 2034 2713 
Q 2441 2713 2670 2916 
Q 2900 3119 2900 3481 
Q 2900 3844 2670 4047 
Q 2441 4250 2034 4250 
Q 1625 4250 1398 4047 
Q 1172 3844 1172 3481 
z
" id="DejaVuSans-38" transform="scale(0.015625)"/>
       </defs>
       <use xlink:href="#DejaVuSans-38"/>
       <use x="63.623047" xlink:href="#DejaVuSans-30"/>
       <use x="127.246094" xlink:href="#DejaVuSans-30"/>
       <use x="190.869141" xlink:href="#DejaVuSans-30"/>
      </g>
     </g>
    </g>
    <g id="xtick_6">
     <g id="line2d_6">
      <g>
       <use style="stroke:#000000;" x="246.979129" xlink:href="#me82ecfbee1" y="220.4"/>
      </g>
     </g>
     <g id="text_6">
      <!-- 10000 -->
      <g transform="translate(232.981629 235.386625)scale(0.088 -0.088)">
       <defs>
        <path d="M 794 531 
L 1825 531 
L 1825 4091 
L 703 3866 
L 703 4441 
L 1819 4666 
L 2450 4666 
L 2450 531 
L 3481 531 
L 3481 0 
L 794 0 
L 794 531 
z
" id="DejaVuSans-31" transform="scale(0.015625)"/>
       </defs>
       <use xlink:href="#DejaVuSans-31"/>
       <use x="63.623047" xlink:href="#DejaVuSans-30"/>
       <use x="127.246094" xlink:href="#DejaVuSans-30"/>
       <use x="190.869141" xlink:href="#DejaVuSans-30"/>
       <use x="254.492188" xlink:href="#DejaVuSans-30"/>
      </g>
     </g>
    </g>
    <g id="text_7">
     <!-- MeanSqErr -->
     <g transform="translate(131.40075 248.51125)scale(0.096 -0.096)">
      <defs>
       <path d="M 628 4666 
L 1569 4666 
L 2759 1491 
L 3956 4666 
L 4897 4666 
L 4897 0 
L 4281 0 
L 4281 4097 
L 3078 897 
L 2444 897 
L 1241 4097 
L 1241 0 
L 628 0 
L 628 4666 
z
" id="DejaVuSans-4d" transform="scale(0.015625)"/>
       <path d="M 3597 1894 
L 3597 1613 
L 953 1613 
Q 991 1019 1311 708 
Q 1631 397 2203 397 
Q 2534 397 2845 478 
Q 3156 559 3463 722 
L 3463 178 
Q 3153 47 2828 -22 
Q 2503 -91 2169 -91 
Q 1331 -91 842 396 
Q 353 884 353 1716 
Q 353 2575 817 3079 
Q 1281 3584 2069 3584 
Q 2775 3584 3186 3129 
Q 3597 2675 3597 1894 
z
M 3022 2063 
Q 3016 2534 2758 2815 
Q 2500 3097 2075 3097 
Q 1594 3097 1305 2825 
Q 1016 2553 972 2059 
L 3022 2063 
z
" id="DejaVuSans-65" transform="scale(0.015625)"/>
       <path d="M 2194 1759 
Q 1497 1759 1228 1600 
Q 959 1441 959 1056 
Q 959 750 1161 570 
Q 1363 391 1709 391 
Q 2188 391 2477 730 
Q 2766 1069 2766 1631 
L 2766 1759 
L 2194 1759 
z
M 3341 1997 
L 3341 0 
L 2766 0 
L 2766 531 
Q 2569 213 2275 61 
Q 1981 -91 1556 -91 
Q 1019 -91 701 211 
Q 384 513 384 1019 
Q 384 1609 779 1909 
Q 1175 2209 1959 2209 
L 2766 2209 
L 2766 2266 
Q 2766 2663 2505 2880 
Q 2244 3097 1772 3097 
Q 1472 3097 1187 3025 
Q 903 2953 641 2809 
L 641 3341 
Q 956 3463 1253 3523 
Q 1550 3584 1831 3584 
Q 2591 3584 2966 3190 
Q 3341 2797 3341 1997 
z
" id="DejaVuSans-61" transform="scale(0.015625)"/>
       <path d="M 3513 2113 
L 3513 0 
L 2938 0 
L 2938 2094 
Q 2938 2591 2744 2837 
Q 2550 3084 2163 3084 
Q 1697 3084 1428 2787 
Q 1159 2491 1159 1978 
L 1159 0 
L 581 0 
L 581 3500 
L 1159 3500 
L 1159 2956 
Q 1366 3272 1645 3428 
Q 1925 3584 2291 3584 
Q 2894 3584 3203 3211 
Q 3513 2838 3513 2113 
z
" id="DejaVuSans-6e" transform="scale(0.015625)"/>
       <path d="M 3425 4513 
L 3425 3897 
Q 3066 4069 2747 4153 
Q 2428 4238 2131 4238 
Q 1616 4238 1336 4038 
Q 1056 3838 1056 3469 
Q 1056 3159 1242 3001 
Q 1428 2844 1947 2747 
L 2328 2669 
Q 3034 2534 3370 2195 
Q 3706 1856 3706 1288 
Q 3706 609 3251 259 
Q 2797 -91 1919 -91 
Q 1588 -91 1214 -16 
Q 841 59 441 206 
L 441 856 
Q 825 641 1194 531 
Q 1563 422 1919 422 
Q 2459 422 2753 634 
Q 3047 847 3047 1241 
Q 3047 1584 2836 1778 
Q 2625 1972 2144 2069 
L 1759 2144 
Q 1053 2284 737 2584 
Q 422 2884 422 3419 
Q 422 4038 858 4394 
Q 1294 4750 2059 4750 
Q 2388 4750 2728 4690 
Q 3069 4631 3425 4513 
z
" id="DejaVuSans-53" transform="scale(0.015625)"/>
       <path d="M 947 1747 
Q 947 1113 1208 752 
Q 1469 391 1925 391 
Q 2381 391 2643 752 
Q 2906 1113 2906 1747 
Q 2906 2381 2643 2742 
Q 2381 3103 1925 3103 
Q 1469 3103 1208 2742 
Q 947 2381 947 1747 
z
M 2906 525 
Q 2725 213 2448 61 
Q 2172 -91 1784 -91 
Q 1150 -91 751 415 
Q 353 922 353 1747 
Q 353 2572 751 3078 
Q 1150 3584 1784 3584 
Q 2172 3584 2448 3432 
Q 2725 3281 2906 2969 
L 2906 3500 
L 3481 3500 
L 3481 -1331 
L 2906 -1331 
L 2906 525 
z
" id="DejaVuSans-71" transform="scale(0.015625)"/>
       <path d="M 628 4666 
L 3578 4666 
L 3578 4134 
L 1259 4134 
L 1259 2753 
L 3481 2753 
L 3481 2222 
L 1259 2222 
L 1259 531 
L 3634 531 
L 3634 0 
L 628 0 
L 628 4666 
z
" id="DejaVuSans-45" transform="scale(0.015625)"/>
       <path d="M 2631 2963 
Q 2534 3019 2420 3045 
Q 2306 3072 2169 3072 
Q 1681 3072 1420 2755 
Q 1159 2438 1159 1844 
L 1159 0 
L 581 0 
L 581 3500 
L 1159 3500 
L 1159 2956 
Q 1341 3275 1631 3429 
Q 1922 3584 2338 3584 
Q 2397 3584 2469 3576 
Q 2541 3569 2628 3553 
L 2631 2963 
z
" id="DejaVuSans-72" transform="scale(0.015625)"/>
      </defs>
      <use xlink:href="#DejaVuSans-4d"/>
      <use x="86.279297" xlink:href="#DejaVuSans-65"/>
      <use x="147.802734" xlink:href="#DejaVuSans-61"/>
      <use x="209.082031" xlink:href="#DejaVuSans-6e"/>
      <use x="272.460938" xlink:href="#DejaVuSans-53"/>
      <use x="335.9375" xlink:href="#DejaVuSans-71"/>
      <use x="399.414062" xlink:href="#DejaVuSans-45"/>
      <use x="462.597656" xlink:href="#DejaVuSans-72"/>
      <use x="501.960938" xlink:href="#DejaVuSans-72"/>
     </g>
    </g>
   </g>
   <g id="matplotlib.axis_2">
    <g id="ytick_1">
     <g id="line2d_7">
      <defs>
       <path d="M 0 0 
L -4.8 0 
" id="m0067e9b6c9" style="stroke:#000000;"/>
      </defs>
      <g>
       <use style="stroke:#000000;" x="45.588" xlink:href="#m0067e9b6c9" y="220.4"/>
      </g>
     </g>
     <g id="text_8">
      <!-- 0 -->
      <g transform="translate(31.689 223.743312)scale(0.088 -0.088)">
       <use xlink:href="#DejaVuSans-30"/>
      </g>
     </g>
    </g>
    <g id="ytick_2">
     <g id="line2d_8">
      <g>
       <use style="stroke:#000000;" x="45.588" xlink:href="#m0067e9b6c9" y="182.517982"/>
      </g>
     </g>
     <g id="text_9">
      <!-- 50 -->
      <g transform="translate(26.09 185.861294)scale(0.088 -0.088)">
       <defs>
        <path d="M 691 4666 
L 3169 4666 
L 3169 4134 
L 1269 4134 
L 1269 2991 
Q 1406 3038 1543 3061 
Q 1681 3084 1819 3084 
Q 2600 3084 3056 2656 
Q 3513 2228 3513 1497 
Q 3513 744 3044 326 
Q 2575 -91 1722 -91 
Q 1428 -91 1123 -41 
Q 819 9 494 109 
L 494 744 
Q 775 591 1075 516 
Q 1375 441 1709 441 
Q 2250 441 2565 725 
Q 2881 1009 2881 1497 
Q 2881 1984 2565 2268 
Q 2250 2553 1709 2553 
Q 1456 2553 1204 2497 
Q 953 2441 691 2322 
L 691 4666 
z
" id="DejaVuSans-35" transform="scale(0.015625)"/>
       </defs>
       <use xlink:href="#DejaVuSans-35"/>
       <use x="63.623047" xlink:href="#DejaVuSans-30"/>
      </g>
     </g>
    </g>
    <g id="ytick_3">
     <g id="line2d_9">
      <g>
       <use style="stroke:#000000;" x="45.588" xlink:href="#m0067e9b6c9" y="144.635963"/>
      </g>
     </g>
     <g id="text_10">
      <!-- 100 -->
      <g transform="translate(20.491 147.979276)scale(0.088 -0.088)">
       <use xlink:href="#DejaVuSans-31"/>
       <use x="63.623047" xlink:href="#DejaVuSans-30"/>
       <use x="127.246094" xlink:href="#DejaVuSans-30"/>
      </g>
     </g>
    </g>
    <g id="ytick_4">
     <g id="line2d_10">
      <g>
       <use style="stroke:#000000;" x="45.588" xlink:href="#m0067e9b6c9" y="106.753945"/>
      </g>
     </g>
     <g id="text_11">
      <!-- 150 -->
      <g transform="translate(20.491 110.097257)scale(0.088 -0.088)">
       <use xlink:href="#DejaVuSans-31"/>
       <use x="63.623047" xlink:href="#DejaVuSans-35"/>
       <use x="127.246094" xlink:href="#DejaVuSans-30"/>
      </g>
     </g>
    </g>
    <g id="ytick_5">
     <g id="line2d_11">
      <g>
       <use style="stroke:#000000;" x="45.588" xlink:href="#m0067e9b6c9" y="68.871926"/>
      </g>
     </g>
     <g id="text_12">
      <!-- 200 -->
      <g transform="translate(20.491 72.215239)scale(0.088 -0.088)">
       <use xlink:href="#DejaVuSans-32"/>
       <use x="63.623047" xlink:href="#DejaVuSans-30"/>
       <use x="127.246094" xlink:href="#DejaVuSans-30"/>
      </g>
     </g>
    </g>
    <g id="ytick_6">
     <g id="line2d_12">
      <g>
       <use style="stroke:#000000;" x="45.588" xlink:href="#m0067e9b6c9" y="30.989908"/>
      </g>
     </g>
     <g id="text_13">
      <!-- 250 -->
      <g transform="translate(20.491 34.33322)scale(0.088 -0.088)">
       <use xlink:href="#DejaVuSans-32"/>
       <use x="63.623047" xlink:href="#DejaVuSans-35"/>
       <use x="127.246094" xlink:href="#DejaVuSans-30"/>
      </g>
     </g>
    </g>
    <g id="text_14">
     <!-- Count -->
     <g transform="translate(14.4945 128.0545)rotate(-90)scale(0.096 -0.096)">
      <defs>
       <path d="M 4122 4306 
L 4122 3641 
Q 3803 3938 3442 4084 
Q 3081 4231 2675 4231 
Q 1875 4231 1450 3742 
Q 1025 3253 1025 2328 
Q 1025 1406 1450 917 
Q 1875 428 2675 428 
Q 3081 428 3442 575 
Q 3803 722 4122 1019 
L 4122 359 
Q 3791 134 3420 21 
Q 3050 -91 2638 -91 
Q 1578 -91 968 557 
Q 359 1206 359 2328 
Q 359 3453 968 4101 
Q 1578 4750 2638 4750 
Q 3056 4750 3426 4639 
Q 3797 4528 4122 4306 
z
" id="DejaVuSans-43" transform="scale(0.015625)"/>
       <path d="M 1959 3097 
Q 1497 3097 1228 2736 
Q 959 2375 959 1747 
Q 959 1119 1226 758 
Q 1494 397 1959 397 
Q 2419 397 2687 759 
Q 2956 1122 2956 1747 
Q 2956 2369 2687 2733 
Q 2419 3097 1959 3097 
z
M 1959 3584 
Q 2709 3584 3137 3096 
Q 3566 2609 3566 1747 
Q 3566 888 3137 398 
Q 2709 -91 1959 -91 
Q 1206 -91 779 398 
Q 353 888 353 1747 
Q 353 2609 779 3096 
Q 1206 3584 1959 3584 
z
" id="DejaVuSans-6f" transform="scale(0.015625)"/>
       <path d="M 544 1381 
L 544 3500 
L 1119 3500 
L 1119 1403 
Q 1119 906 1312 657 
Q 1506 409 1894 409 
Q 2359 409 2629 706 
Q 2900 1003 2900 1516 
L 2900 3500 
L 3475 3500 
L 3475 0 
L 2900 0 
L 2900 538 
Q 2691 219 2414 64 
Q 2138 -91 1772 -91 
Q 1169 -91 856 284 
Q 544 659 544 1381 
z
M 1991 3584 
L 1991 3584 
z
" id="DejaVuSans-75" transform="scale(0.015625)"/>
       <path d="M 1172 4494 
L 1172 3500 
L 2356 3500 
L 2356 3053 
L 1172 3053 
L 1172 1153 
Q 1172 725 1289 603 
Q 1406 481 1766 481 
L 2356 481 
L 2356 0 
L 1766 0 
Q 1100 0 847 248 
Q 594 497 594 1153 
L 594 3053 
L 172 3053 
L 172 3500 
L 594 3500 
L 594 4494 
L 1172 4494 
z
" id="DejaVuSans-74" transform="scale(0.015625)"/>
      </defs>
      <use xlink:href="#DejaVuSans-43"/>
      <use x="69.824219" xlink:href="#DejaVuSans-6f"/>
      <use x="131.005859" xlink:href="#DejaVuSans-75"/>
      <use x="194.384766" xlink:href="#DejaVuSans-6e"/>
      <use x="257.763672" xlink:href="#DejaVuSans-74"/>
     </g>
    </g>
   </g>
   <g id="line2d_13">
    <path clip-path="url(#p44a3d1d711)" d="M 55.759023 164.837737 
L 59.847876 123.218284 
L 60.870089 114.442802 
L 61.892303 107.171656 
L 62.914516 101.717251 
L 63.936729 98.277065 
L 64.958943 96.91939 
L 65.981156 97.583487 
L 67.003369 100.093341 
L 68.025583 104.182296 
L 69.047796 109.52442 
L 71.092223 122.566855 
L 74.158863 143.399875 
L 76.20329 155.732136 
L 78.247716 166.048138 
L 80.292143 174.372357 
L 82.33657 180.984953 
L 84.380996 186.204816 
L 86.425423 190.308751 
L 88.46985 193.539412 
L 90.514276 196.134773 
L 92.558703 198.332495 
L 96.647556 202.28778 
L 100.73641 206.08156 
L 103.80305 208.600064 
L 105.847476 209.996484 
L 107.891903 211.122437 
L 109.93633 211.967604 
L 111.980756 212.548299 
L 114.025183 212.913532 
L 123.225103 214.145789 
L 144.691583 218.856143 
L 147.758223 219.194275 
L 150.824863 219.289769 
L 156.958143 219.141096 
L 165.13585 218.981071 
L 170.246917 219.142415 
L 175.357983 219.353152 
L 178.424623 219.285096 
L 182.513477 218.901189 
L 186.60233 218.480229 
L 189.66897 218.413451 
L 192.73561 218.635413 
L 202.957744 219.7669 
L 207.046597 219.793042 
L 217.26873 219.623417 
L 223.40201 219.955858 
L 230.557504 220.281673 
L 238.73521 220.389661 
L 247.935131 220.297978 
L 259.179477 219.937087 
L 259.179477 219.937087 
" style="fill:none;stroke:#1f77b4;stroke-linecap:square;stroke-width:2;"/>
   </g>
   <g id="patch_69">
    <path d="M 45.588 220.4 
L 45.588 7.2 
" style="fill:none;stroke:#000000;stroke-linecap:square;stroke-linejoin:miter;"/>
   </g>
   <g id="patch_70">
    <path d="M 269.3505 220.4 
L 269.3505 7.2 
" style="fill:none;stroke:#000000;stroke-linecap:square;stroke-linejoin:miter;"/>
   </g>
   <g id="patch_71">
    <path d="M 45.588 220.4 
L 269.3505 220.4 
" style="fill:none;stroke:#000000;stroke-linecap:square;stroke-linejoin:miter;"/>
   </g>
   <g id="patch_72">
    <path d="M 45.588 7.2 
L 269.3505 7.2 
" style="fill:none;stroke:#000000;stroke-linecap:square;stroke-linejoin:miter;"/>
   </g>
  </g>
  <g id="axes_2">
   <g id="patch_73">
    <path d="M 311.6505 220.4 
L 535.413 220.4 
L 535.413 7.2 
L 311.6505 7.2 
z
" style="fill:#ffffff;"/>
   </g>
   <g id="patch_74">
    <path clip-path="url(#pe827c69995)" d="M 321.821523 220.4 
L 326.341977 220.4 
L 326.341977 219.302445 
L 321.821523 219.302445 
z
" style="fill:#ff0000;fill-opacity:0.5;stroke:#000000;stroke-linejoin:miter;stroke-width:0.452045;"/>
   </g>
   <g id="patch_75">
    <path clip-path="url(#pe827c69995)" d="M 326.341977 220.4 
L 330.862432 220.4 
L 330.862432 219.302445 
L 326.341977 219.302445 
z
" style="fill:#ff0000;fill-opacity:0.5;stroke:#000000;stroke-linejoin:miter;stroke-width:0.452045;"/>
   </g>
   <g id="patch_76">
    <path clip-path="url(#pe827c69995)" d="M 330.862432 220.4 
L 335.382886 220.4 
L 335.382886 218.204891 
L 330.862432 218.204891 
z
" style="fill:#ff0000;fill-opacity:0.5;stroke:#000000;stroke-linejoin:miter;stroke-width:0.452045;"/>
   </g>
   <g id="patch_77">
    <path clip-path="url(#pe827c69995)" d="M 335.382886 220.4 
L 339.903341 220.4 
L 339.903341 201.74157 
L 335.382886 201.74157 
z
" style="fill:#ff0000;fill-opacity:0.5;stroke:#000000;stroke-linejoin:miter;stroke-width:0.452045;"/>
   </g>
   <g id="patch_78">
    <path clip-path="url(#pe827c69995)" d="M 339.903341 220.4 
L 344.423795 220.4 
L 344.423795 178.692921 
L 339.903341 178.692921 
z
" style="fill:#ff0000;fill-opacity:0.5;stroke:#000000;stroke-linejoin:miter;stroke-width:0.452045;"/>
   </g>
   <g id="patch_79">
    <path clip-path="url(#pe827c69995)" d="M 344.423795 220.4 
L 348.94425 220.4 
L 348.94425 109.546976 
L 344.423795 109.546976 
z
" style="fill:#ff0000;fill-opacity:0.5;stroke:#000000;stroke-linejoin:miter;stroke-width:0.452045;"/>
   </g>
   <g id="patch_80">
    <path clip-path="url(#pe827c69995)" d="M 348.94425 220.4 
L 353.464705 220.4 
L 353.464705 29.425483 
L 348.94425 29.425483 
z
" style="fill:#ff0000;fill-opacity:0.5;stroke:#000000;stroke-linejoin:miter;stroke-width:0.452045;"/>
   </g>
   <g id="patch_81">
    <path clip-path="url(#pe827c69995)" d="M 353.464705 220.4 
L 357.985159 220.4 
L 357.985159 17.352381 
L 353.464705 17.352381 
z
" style="fill:#ff0000;fill-opacity:0.5;stroke:#000000;stroke-linejoin:miter;stroke-width:0.452045;"/>
   </g>
   <g id="patch_82">
    <path clip-path="url(#pe827c69995)" d="M 357.985159 220.4 
L 362.505614 220.4 
L 362.505614 32.718147 
L 357.985159 32.718147 
z
" style="fill:#ff0000;fill-opacity:0.5;stroke:#000000;stroke-linejoin:miter;stroke-width:0.452045;"/>
   </g>
   <g id="patch_83">
    <path clip-path="url(#pe827c69995)" d="M 362.505614 220.4 
L 367.026068 220.4 
L 367.026068 68.937452 
L 362.505614 68.937452 
z
" style="fill:#ff0000;fill-opacity:0.5;stroke:#000000;stroke-linejoin:miter;stroke-width:0.452045;"/>
   </g>
   <g id="patch_84">
    <path clip-path="url(#pe827c69995)" d="M 367.026068 220.4 
L 371.546523 220.4 
L 371.546523 102.961647 
L 367.026068 102.961647 
z
" style="fill:#ff0000;fill-opacity:0.5;stroke:#000000;stroke-linejoin:miter;stroke-width:0.452045;"/>
   </g>
   <g id="patch_85">
    <path clip-path="url(#pe827c69995)" d="M 371.546523 220.4 
L 376.066977 220.4 
L 376.066977 122.717632 
L 371.546523 122.717632 
z
" style="fill:#ff0000;fill-opacity:0.5;stroke:#000000;stroke-linejoin:miter;stroke-width:0.452045;"/>
   </g>
   <g id="patch_86">
    <path clip-path="url(#pe827c69995)" d="M 376.066977 220.4 
L 380.587432 220.4 
L 380.587432 153.449163 
L 376.066977 153.449163 
z
" style="fill:#ff0000;fill-opacity:0.5;stroke:#000000;stroke-linejoin:miter;stroke-width:0.452045;"/>
   </g>
   <g id="patch_87">
    <path clip-path="url(#pe827c69995)" d="M 380.587432 220.4 
L 385.107886 220.4 
L 385.107886 151.254054 
L 380.587432 151.254054 
z
" style="fill:#ff0000;fill-opacity:0.5;stroke:#000000;stroke-linejoin:miter;stroke-width:0.452045;"/>
   </g>
   <g id="patch_88">
    <path clip-path="url(#pe827c69995)" d="M 385.107886 220.4 
L 389.628341 220.4 
L 389.628341 174.302703 
L 385.107886 174.302703 
z
" style="fill:#ff0000;fill-opacity:0.5;stroke:#000000;stroke-linejoin:miter;stroke-width:0.452045;"/>
   </g>
   <g id="patch_89">
    <path clip-path="url(#pe827c69995)" d="M 389.628341 220.4 
L 394.148795 220.4 
L 394.148795 176.497812 
L 389.628341 176.497812 
z
" style="fill:#ff0000;fill-opacity:0.5;stroke:#000000;stroke-linejoin:miter;stroke-width:0.452045;"/>
   </g>
   <g id="patch_90">
    <path clip-path="url(#pe827c69995)" d="M 394.148795 220.4 
L 398.66925 220.4 
L 398.66925 176.497812 
L 394.148795 176.497812 
z
" style="fill:#ff0000;fill-opacity:0.5;stroke:#000000;stroke-linejoin:miter;stroke-width:0.452045;"/>
   </g>
   <g id="patch_91">
    <path clip-path="url(#pe827c69995)" d="M 398.66925 220.4 
L 403.189705 220.4 
L 403.189705 200.644015 
L 398.66925 200.644015 
z
" style="fill:#ff0000;fill-opacity:0.5;stroke:#000000;stroke-linejoin:miter;stroke-width:0.452045;"/>
   </g>
   <g id="patch_92">
    <path clip-path="url(#pe827c69995)" d="M 403.189705 220.4 
L 407.710159 220.4 
L 407.710159 192.961133 
L 403.189705 192.961133 
z
" style="fill:#ff0000;fill-opacity:0.5;stroke:#000000;stroke-linejoin:miter;stroke-width:0.452045;"/>
   </g>
   <g id="patch_93">
    <path clip-path="url(#pe827c69995)" d="M 407.710159 220.4 
L 412.230614 220.4 
L 412.230614 201.74157 
L 407.710159 201.74157 
z
" style="fill:#ff0000;fill-opacity:0.5;stroke:#000000;stroke-linejoin:miter;stroke-width:0.452045;"/>
   </g>
   <g id="patch_94">
    <path clip-path="url(#pe827c69995)" d="M 412.230614 220.4 
L 416.751068 220.4 
L 416.751068 200.644015 
L 412.230614 200.644015 
z
" style="fill:#ff0000;fill-opacity:0.5;stroke:#000000;stroke-linejoin:miter;stroke-width:0.452045;"/>
   </g>
   <g id="patch_95">
    <path clip-path="url(#pe827c69995)" d="M 416.751068 220.4 
L 421.271523 220.4 
L 421.271523 207.229344 
L 416.751068 207.229344 
z
" style="fill:#ff0000;fill-opacity:0.5;stroke:#000000;stroke-linejoin:miter;stroke-width:0.452045;"/>
   </g>
   <g id="patch_96">
    <path clip-path="url(#pe827c69995)" d="M 421.271523 220.4 
L 425.791977 220.4 
L 425.791977 205.034234 
L 421.271523 205.034234 
z
" style="fill:#ff0000;fill-opacity:0.5;stroke:#000000;stroke-linejoin:miter;stroke-width:0.452045;"/>
   </g>
   <g id="patch_97">
    <path clip-path="url(#pe827c69995)" d="M 425.791977 220.4 
L 430.312432 220.4 
L 430.312432 208.326898 
L 425.791977 208.326898 
z
" style="fill:#ff0000;fill-opacity:0.5;stroke:#000000;stroke-linejoin:miter;stroke-width:0.452045;"/>
   </g>
   <g id="patch_98">
    <path clip-path="url(#pe827c69995)" d="M 430.312432 220.4 
L 434.832886 220.4 
L 434.832886 213.814672 
L 430.312432 213.814672 
z
" style="fill:#ff0000;fill-opacity:0.5;stroke:#000000;stroke-linejoin:miter;stroke-width:0.452045;"/>
   </g>
   <g id="patch_99">
    <path clip-path="url(#pe827c69995)" d="M 434.832886 220.4 
L 439.353341 220.4 
L 439.353341 212.717117 
L 434.832886 212.717117 
z
" style="fill:#ff0000;fill-opacity:0.5;stroke:#000000;stroke-linejoin:miter;stroke-width:0.452045;"/>
   </g>
   <g id="patch_100">
    <path clip-path="url(#pe827c69995)" d="M 439.353341 220.4 
L 443.873795 220.4 
L 443.873795 218.204891 
L 439.353341 218.204891 
z
" style="fill:#ff0000;fill-opacity:0.5;stroke:#000000;stroke-linejoin:miter;stroke-width:0.452045;"/>
   </g>
   <g id="patch_101">
    <path clip-path="url(#pe827c69995)" d="M 443.873795 220.4 
L 448.39425 220.4 
L 448.39425 220.4 
L 443.873795 220.4 
z
" style="fill:#ff0000;fill-opacity:0.5;stroke:#000000;stroke-linejoin:miter;stroke-width:0.452045;"/>
   </g>
   <g id="patch_102">
    <path clip-path="url(#pe827c69995)" d="M 448.39425 220.4 
L 452.914705 220.4 
L 452.914705 211.619562 
L 448.39425 211.619562 
z
" style="fill:#ff0000;fill-opacity:0.5;stroke:#000000;stroke-linejoin:miter;stroke-width:0.452045;"/>
   </g>
   <g id="patch_103">
    <path clip-path="url(#pe827c69995)" d="M 452.914705 220.4 
L 457.435159 220.4 
L 457.435159 217.107336 
L 452.914705 217.107336 
z
" style="fill:#ff0000;fill-opacity:0.5;stroke:#000000;stroke-linejoin:miter;stroke-width:0.452045;"/>
   </g>
   <g id="patch_104">
    <path clip-path="url(#pe827c69995)" d="M 457.435159 220.4 
L 461.955614 220.4 
L 461.955614 217.107336 
L 457.435159 217.107336 
z
" style="fill:#ff0000;fill-opacity:0.5;stroke:#000000;stroke-linejoin:miter;stroke-width:0.452045;"/>
   </g>
   <g id="patch_105">
    <path clip-path="url(#pe827c69995)" d="M 461.955614 220.4 
L 466.476068 220.4 
L 466.476068 216.009781 
L 461.955614 216.009781 
z
" style="fill:#ff0000;fill-opacity:0.5;stroke:#000000;stroke-linejoin:miter;stroke-width:0.452045;"/>
   </g>
   <g id="patch_106">
    <path clip-path="url(#pe827c69995)" d="M 466.476068 220.4 
L 470.996523 220.4 
L 470.996523 214.912227 
L 466.476068 214.912227 
z
" style="fill:#ff0000;fill-opacity:0.5;stroke:#000000;stroke-linejoin:miter;stroke-width:0.452045;"/>
   </g>
   <g id="patch_107">
    <path clip-path="url(#pe827c69995)" d="M 470.996523 220.4 
L 475.516977 220.4 
L 475.516977 216.009781 
L 470.996523 216.009781 
z
" style="fill:#ff0000;fill-opacity:0.5;stroke:#000000;stroke-linejoin:miter;stroke-width:0.452045;"/>
   </g>
   <g id="patch_108">
    <path clip-path="url(#pe827c69995)" d="M 475.516977 220.4 
L 480.037432 220.4 
L 480.037432 217.107336 
L 475.516977 217.107336 
z
" style="fill:#ff0000;fill-opacity:0.5;stroke:#000000;stroke-linejoin:miter;stroke-width:0.452045;"/>
   </g>
   <g id="patch_109">
    <path clip-path="url(#pe827c69995)" d="M 480.037432 220.4 
L 484.557886 220.4 
L 484.557886 217.107336 
L 480.037432 217.107336 
z
" style="fill:#ff0000;fill-opacity:0.5;stroke:#000000;stroke-linejoin:miter;stroke-width:0.452045;"/>
   </g>
   <g id="patch_110">
    <path clip-path="url(#pe827c69995)" d="M 484.557886 220.4 
L 489.078341 220.4 
L 489.078341 219.302445 
L 484.557886 219.302445 
z
" style="fill:#ff0000;fill-opacity:0.5;stroke:#000000;stroke-linejoin:miter;stroke-width:0.452045;"/>
   </g>
   <g id="patch_111">
    <path clip-path="url(#pe827c69995)" d="M 489.078341 220.4 
L 493.598795 220.4 
L 493.598795 217.107336 
L 489.078341 217.107336 
z
" style="fill:#ff0000;fill-opacity:0.5;stroke:#000000;stroke-linejoin:miter;stroke-width:0.452045;"/>
   </g>
   <g id="patch_112">
    <path clip-path="url(#pe827c69995)" d="M 493.598795 220.4 
L 498.11925 220.4 
L 498.11925 220.4 
L 493.598795 220.4 
z
" style="fill:#ff0000;fill-opacity:0.5;stroke:#000000;stroke-linejoin:miter;stroke-width:0.452045;"/>
   </g>
   <g id="patch_113">
    <path clip-path="url(#pe827c69995)" d="M 498.11925 220.4 
L 502.639705 220.4 
L 502.639705 218.204891 
L 498.11925 218.204891 
z
" style="fill:#ff0000;fill-opacity:0.5;stroke:#000000;stroke-linejoin:miter;stroke-width:0.452045;"/>
   </g>
   <g id="patch_114">
    <path clip-path="url(#pe827c69995)" d="M 502.639705 220.4 
L 507.160159 220.4 
L 507.160159 220.4 
L 502.639705 220.4 
z
" style="fill:#ff0000;fill-opacity:0.5;stroke:#000000;stroke-linejoin:miter;stroke-width:0.452045;"/>
   </g>
   <g id="patch_115">
    <path clip-path="url(#pe827c69995)" d="M 507.160159 220.4 
L 511.680614 220.4 
L 511.680614 220.4 
L 507.160159 220.4 
z
" style="fill:#ff0000;fill-opacity:0.5;stroke:#000000;stroke-linejoin:miter;stroke-width:0.452045;"/>
   </g>
   <g id="patch_116">
    <path clip-path="url(#pe827c69995)" d="M 511.680614 220.4 
L 516.201068 220.4 
L 516.201068 218.204891 
L 511.680614 218.204891 
z
" style="fill:#ff0000;fill-opacity:0.5;stroke:#000000;stroke-linejoin:miter;stroke-width:0.452045;"/>
   </g>
   <g id="patch_117">
    <path clip-path="url(#pe827c69995)" d="M 516.201068 220.4 
L 520.721523 220.4 
L 520.721523 220.4 
L 516.201068 220.4 
z
" style="fill:#ff0000;fill-opacity:0.5;stroke:#000000;stroke-linejoin:miter;stroke-width:0.452045;"/>
   </g>
   <g id="patch_118">
    <path clip-path="url(#pe827c69995)" d="M 520.721523 220.4 
L 525.241977 220.4 
L 525.241977 219.302445 
L 520.721523 219.302445 
z
" style="fill:#ff0000;fill-opacity:0.5;stroke:#000000;stroke-linejoin:miter;stroke-width:0.452045;"/>
   </g>
   <g id="matplotlib.axis_3">
    <g id="xtick_7">
     <g id="line2d_14">
      <g>
       <use style="stroke:#000000;" x="319.63518" xlink:href="#me82ecfbee1" y="220.4"/>
      </g>
     </g>
     <g id="text_15">
      <!-- 0 -->
      <g transform="translate(316.83568 235.386625)scale(0.088 -0.088)">
       <use xlink:href="#DejaVuSans-30"/>
      </g>
     </g>
    </g>
    <g id="xtick_8">
     <g id="line2d_15">
      <g>
       <use style="stroke:#000000;" x="364.879784" xlink:href="#me82ecfbee1" y="220.4"/>
      </g>
     </g>
     <g id="text_16">
      <!-- 20 -->
      <g transform="translate(359.280784 235.386625)scale(0.088 -0.088)">
       <use xlink:href="#DejaVuSans-32"/>
       <use x="63.623047" xlink:href="#DejaVuSans-30"/>
      </g>
     </g>
    </g>
    <g id="xtick_9">
     <g id="line2d_16">
      <g>
       <use style="stroke:#000000;" x="410.124387" xlink:href="#me82ecfbee1" y="220.4"/>
      </g>
     </g>
     <g id="text_17">
      <!-- 40 -->
      <g transform="translate(404.525387 235.386625)scale(0.088 -0.088)">
       <use xlink:href="#DejaVuSans-34"/>
       <use x="63.623047" xlink:href="#DejaVuSans-30"/>
      </g>
     </g>
    </g>
    <g id="xtick_10">
     <g id="line2d_17">
      <g>
       <use style="stroke:#000000;" x="455.368991" xlink:href="#me82ecfbee1" y="220.4"/>
      </g>
     </g>
     <g id="text_18">
      <!-- 60 -->
      <g transform="translate(449.769991 235.386625)scale(0.088 -0.088)">
       <use xlink:href="#DejaVuSans-36"/>
       <use x="63.623047" xlink:href="#DejaVuSans-30"/>
      </g>
     </g>
    </g>
    <g id="xtick_11">
     <g id="line2d_18">
      <g>
       <use style="stroke:#000000;" x="500.613595" xlink:href="#me82ecfbee1" y="220.4"/>
      </g>
     </g>
     <g id="text_19">
      <!-- 80 -->
      <g transform="translate(495.014595 235.386625)scale(0.088 -0.088)">
       <use xlink:href="#DejaVuSans-38"/>
       <use x="63.623047" xlink:href="#DejaVuSans-30"/>
      </g>
     </g>
    </g>
    <g id="text_20">
     <!-- MeanAbsErr -->
     <g transform="translate(394.7265 248.51125)scale(0.096 -0.096)">
      <defs>
       <path d="M 2188 4044 
L 1331 1722 
L 3047 1722 
L 2188 4044 
z
M 1831 4666 
L 2547 4666 
L 4325 0 
L 3669 0 
L 3244 1197 
L 1141 1197 
L 716 0 
L 50 0 
L 1831 4666 
z
" id="DejaVuSans-41" transform="scale(0.015625)"/>
       <path d="M 3116 1747 
Q 3116 2381 2855 2742 
Q 2594 3103 2138 3103 
Q 1681 3103 1420 2742 
Q 1159 2381 1159 1747 
Q 1159 1113 1420 752 
Q 1681 391 2138 391 
Q 2594 391 2855 752 
Q 3116 1113 3116 1747 
z
M 1159 2969 
Q 1341 3281 1617 3432 
Q 1894 3584 2278 3584 
Q 2916 3584 3314 3078 
Q 3713 2572 3713 1747 
Q 3713 922 3314 415 
Q 2916 -91 2278 -91 
Q 1894 -91 1617 61 
Q 1341 213 1159 525 
L 1159 0 
L 581 0 
L 581 4863 
L 1159 4863 
L 1159 2969 
z
" id="DejaVuSans-62" transform="scale(0.015625)"/>
       <path d="M 2834 3397 
L 2834 2853 
Q 2591 2978 2328 3040 
Q 2066 3103 1784 3103 
Q 1356 3103 1142 2972 
Q 928 2841 928 2578 
Q 928 2378 1081 2264 
Q 1234 2150 1697 2047 
L 1894 2003 
Q 2506 1872 2764 1633 
Q 3022 1394 3022 966 
Q 3022 478 2636 193 
Q 2250 -91 1575 -91 
Q 1294 -91 989 -36 
Q 684 19 347 128 
L 347 722 
Q 666 556 975 473 
Q 1284 391 1588 391 
Q 1994 391 2212 530 
Q 2431 669 2431 922 
Q 2431 1156 2273 1281 
Q 2116 1406 1581 1522 
L 1381 1569 
Q 847 1681 609 1914 
Q 372 2147 372 2553 
Q 372 3047 722 3315 
Q 1072 3584 1716 3584 
Q 2034 3584 2315 3537 
Q 2597 3491 2834 3397 
z
" id="DejaVuSans-73" transform="scale(0.015625)"/>
      </defs>
      <use xlink:href="#DejaVuSans-4d"/>
      <use x="86.279297" xlink:href="#DejaVuSans-65"/>
      <use x="147.802734" xlink:href="#DejaVuSans-61"/>
      <use x="209.082031" xlink:href="#DejaVuSans-6e"/>
      <use x="272.460938" xlink:href="#DejaVuSans-41"/>
      <use x="340.869141" xlink:href="#DejaVuSans-62"/>
      <use x="404.345703" xlink:href="#DejaVuSans-73"/>
      <use x="456.445312" xlink:href="#DejaVuSans-45"/>
      <use x="519.628906" xlink:href="#DejaVuSans-72"/>
      <use x="558.992188" xlink:href="#DejaVuSans-72"/>
     </g>
    </g>
   </g>
   <g id="matplotlib.axis_4">
    <g id="ytick_7">
     <g id="line2d_19">
      <g>
       <use style="stroke:#000000;" x="311.6505" xlink:href="#m0067e9b6c9" y="220.4"/>
      </g>
     </g>
     <g id="text_21">
      <!-- 0 -->
      <g transform="translate(297.7515 223.743312)scale(0.088 -0.088)">
       <use xlink:href="#DejaVuSans-30"/>
      </g>
     </g>
    </g>
    <g id="ytick_8">
     <g id="line2d_20">
      <g>
       <use style="stroke:#000000;" x="311.6505" xlink:href="#m0067e9b6c9" y="192.961133"/>
      </g>
     </g>
     <g id="text_22">
      <!-- 25 -->
      <g transform="translate(292.1525 196.304445)scale(0.088 -0.088)">
       <use xlink:href="#DejaVuSans-32"/>
       <use x="63.623047" xlink:href="#DejaVuSans-35"/>
      </g>
     </g>
    </g>
    <g id="ytick_9">
     <g id="line2d_21">
      <g>
       <use style="stroke:#000000;" x="311.6505" xlink:href="#m0067e9b6c9" y="165.522265"/>
      </g>
     </g>
     <g id="text_23">
      <!-- 50 -->
      <g transform="translate(292.1525 168.865578)scale(0.088 -0.088)">
       <use xlink:href="#DejaVuSans-35"/>
       <use x="63.623047" xlink:href="#DejaVuSans-30"/>
      </g>
     </g>
    </g>
    <g id="ytick_10">
     <g id="line2d_22">
      <g>
       <use style="stroke:#000000;" x="311.6505" xlink:href="#m0067e9b6c9" y="138.083398"/>
      </g>
     </g>
     <g id="text_24">
      <!-- 75 -->
      <g transform="translate(292.1525 141.42671)scale(0.088 -0.088)">
       <defs>
        <path d="M 525 4666 
L 3525 4666 
L 3525 4397 
L 1831 0 
L 1172 0 
L 2766 4134 
L 525 4134 
L 525 4666 
z
" id="DejaVuSans-37" transform="scale(0.015625)"/>
       </defs>
       <use xlink:href="#DejaVuSans-37"/>
       <use x="63.623047" xlink:href="#DejaVuSans-35"/>
      </g>
     </g>
    </g>
    <g id="ytick_11">
     <g id="line2d_23">
      <g>
       <use style="stroke:#000000;" x="311.6505" xlink:href="#m0067e9b6c9" y="110.64453"/>
      </g>
     </g>
     <g id="text_25">
      <!-- 100 -->
      <g transform="translate(286.5535 113.987843)scale(0.088 -0.088)">
       <use xlink:href="#DejaVuSans-31"/>
       <use x="63.623047" xlink:href="#DejaVuSans-30"/>
       <use x="127.246094" xlink:href="#DejaVuSans-30"/>
      </g>
     </g>
    </g>
    <g id="ytick_12">
     <g id="line2d_24">
      <g>
       <use style="stroke:#000000;" x="311.6505" xlink:href="#m0067e9b6c9" y="83.205663"/>
      </g>
     </g>
     <g id="text_26">
      <!-- 125 -->
      <g transform="translate(286.5535 86.548975)scale(0.088 -0.088)">
       <use xlink:href="#DejaVuSans-31"/>
       <use x="63.623047" xlink:href="#DejaVuSans-32"/>
       <use x="127.246094" xlink:href="#DejaVuSans-35"/>
      </g>
     </g>
    </g>
    <g id="ytick_13">
     <g id="line2d_25">
      <g>
       <use style="stroke:#000000;" x="311.6505" xlink:href="#m0067e9b6c9" y="55.766795"/>
      </g>
     </g>
     <g id="text_27">
      <!-- 150 -->
      <g transform="translate(286.5535 59.110108)scale(0.088 -0.088)">
       <use xlink:href="#DejaVuSans-31"/>
       <use x="63.623047" xlink:href="#DejaVuSans-35"/>
       <use x="127.246094" xlink:href="#DejaVuSans-30"/>
      </g>
     </g>
    </g>
    <g id="ytick_14">
     <g id="line2d_26">
      <g>
       <use style="stroke:#000000;" x="311.6505" xlink:href="#m0067e9b6c9" y="28.327928"/>
      </g>
     </g>
     <g id="text_28">
      <!-- 175 -->
      <g transform="translate(286.5535 31.67124)scale(0.088 -0.088)">
       <use xlink:href="#DejaVuSans-31"/>
       <use x="63.623047" xlink:href="#DejaVuSans-37"/>
       <use x="127.246094" xlink:href="#DejaVuSans-35"/>
      </g>
     </g>
    </g>
    <g id="text_29">
     <!-- Count -->
     <g transform="translate(280.557 128.0545)rotate(-90)scale(0.096 -0.096)">
      <use xlink:href="#DejaVuSans-43"/>
      <use x="69.824219" xlink:href="#DejaVuSans-6f"/>
      <use x="131.005859" xlink:href="#DejaVuSans-75"/>
      <use x="194.384766" xlink:href="#DejaVuSans-6e"/>
      <use x="257.763672" xlink:href="#DejaVuSans-74"/>
     </g>
    </g>
   </g>
   <g id="line2d_27">
    <path clip-path="url(#pe827c69995)" d="M 321.821523 219.495056 
L 323.865949 219.031986 
L 324.888163 218.681951 
L 325.910376 218.21364 
L 326.932589 217.589105 
L 327.954803 216.763604 
L 328.977016 215.686059 
L 329.999229 214.299927 
L 331.021443 212.544445 
L 332.043656 210.356222 
L 333.065869 207.671123 
L 334.088083 204.426414 
L 335.110296 200.563127 
L 336.132509 196.028682 
L 337.154723 190.779769 
L 338.176936 184.785525 
L 339.199149 178.031013 
L 341.243576 162.283311 
L 343.288003 143.87508 
L 346.354643 113.167578 
L 349.421283 83.017362 
L 351.46571 66.072866 
L 352.487923 59.136771 
L 353.510136 53.418916 
L 354.53235 49.012635 
L 355.554563 45.965343 
L 356.576776 44.279099 
L 357.59899 43.914161 
L 358.621203 44.794787 
L 359.643416 46.81636 
L 360.66563 49.852975 
L 361.687843 53.764782 
L 362.710056 58.404644 
L 364.754483 69.277356 
L 372.93219 116.434646 
L 374.976616 126.297681 
L 377.021043 135.114879 
L 379.06547 143.026014 
L 381.109896 150.181008 
L 383.154323 156.659406 
L 385.19875 162.445508 
L 387.243176 167.476877 
L 389.287603 171.740192 
L 391.33203 175.347877 
L 394.39867 180.049551 
L 402.576377 191.895182 
L 404.620803 194.396034 
L 406.66523 196.549749 
L 408.709657 198.399166 
L 411.776297 200.77121 
L 414.842937 202.815329 
L 417.909577 204.564865 
L 420.976217 206.032166 
L 430.176137 210.141927 
L 434.26499 212.402433 
L 438.353843 214.631966 
L 440.39827 215.511854 
L 442.442697 216.119947 
L 444.487123 216.429229 
L 446.53155 216.483941 
L 458.79811 216.136606 
L 464.93139 215.999359 
L 469.020244 215.975524 
L 472.086884 216.138632 
L 476.175737 216.585984 
L 493.553364 218.843354 
L 500.708857 219.386842 
L 506.842137 219.642744 
L 513.997631 219.648433 
L 520.130911 219.747152 
L 525.241977 219.929526 
L 525.241977 219.929526 
" style="fill:none;stroke:#ff0000;stroke-linecap:square;stroke-width:2;"/>
   </g>
   <g id="patch_119">
    <path d="M 311.6505 220.4 
L 311.6505 7.2 
" style="fill:none;stroke:#000000;stroke-linecap:square;stroke-linejoin:miter;"/>
   </g>
   <g id="patch_120">
    <path d="M 535.413 220.4 
L 535.413 7.2 
" style="fill:none;stroke:#000000;stroke-linecap:square;stroke-linejoin:miter;"/>
   </g>
   <g id="patch_121">
    <path d="M 311.6505 220.4 
L 535.413 220.4 
" style="fill:none;stroke:#000000;stroke-linecap:square;stroke-linejoin:miter;"/>
   </g>
   <g id="patch_122">
    <path d="M 311.6505 7.2 
L 535.413 7.2 
" style="fill:none;stroke:#000000;stroke-linecap:square;stroke-linejoin:miter;"/>
   </g>
  </g>
 </g>
 <defs>
  <clipPath id="p44a3d1d711">
   <rect height="213.2" width="223.7625" x="45.588" y="7.2"/>
  </clipPath>
  <clipPath id="pe827c69995">
   <rect height="213.2" width="223.7625" x="311.6505" y="7.2"/>
  </clipPath>
 </defs>
</svg>
