<?xml version="1.0" encoding="utf-8" standalone="no"?>
<!DOCTYPE svg PUBLIC "-//W3C//DTD SVG 1.1//EN"
  "http://www.w3.org/Graphics/SVG/1.1/DTD/svg11.dtd">
<svg height="266.206125pt" version="1.1" viewBox="0 0 386.247375 266.206125" width="386.247375pt" xmlns="http://www.w3.org/2000/svg" xmlns:xlink="http://www.w3.org/1999/xlink">
 <metadata>
  <rdf:RDF xmlns:cc="http://creativecommons.org/ns#" xmlns:dc="http://purl.org/dc/elements/1.1/" xmlns:rdf="http://www.w3.org/1999/02/22-rdf-syntax-ns#">
   <cc:Work>
    <dc:type rdf:resource="http://purl.org/dc/dcmitype/StillImage"/>
    <dc:date>2022-06-30T13:05:48.397836</dc:date>
    <dc:format>image/svg+xml</dc:format>
    <dc:creator>
     <cc:Agent>
      <dc:title>Matplotlib v3.4.3, https://matplotlib.org/</dc:title>
     </cc:Agent>
    </dc:creator>
   </cc:Work>
  </rdf:RDF>
 </metadata>
 <defs>
  <style type="text/css">*{stroke-linecap:butt;stroke-linejoin:round;}</style>
 </defs>
 <g id="figure_1">
  <g id="patch_1">
   <path d="M 0 266.206125 
L 386.247375 266.206125 
L 386.247375 0 
L 0 0 
z
" style="fill:none;"/>
  </g>
  <g id="axes_1">
   <g id="patch_2">
    <path d="M 44.247375 224.64 
L 379.047375 224.64 
L 379.047375 7.2 
L 44.247375 7.2 
z
" style="fill:#ffffff;"/>
   </g>
   <g id="PolyCollection_1">
    <defs>
     <path d="M 59.465557 -151.838514 
L 59.465557 -137.299408 
L 65.10192 -101.643969 
L 70.738284 -111.73454 
L 76.374648 -93.24166 
L 82.011011 -81.730311 
L 87.647375 -88.108371 
L 93.283739 -84.354742 
L 98.920102 -94.921685 
L 104.556466 -92.859769 
L 110.19283 -100.09328 
L 115.829193 -100.409113 
L 121.465557 -98.989755 
L 127.10192 -206.180975 
L 132.738284 -159.050266 
L 138.374648 -197.055767 
L 144.011011 -176.260505 
L 149.647375 -158.528358 
L 155.283739 -174.641009 
L 160.920102 -174.110457 
L 166.556466 -186.40884 
L 172.19283 -142.835296 
L 177.829193 -142.722153 
L 183.465557 -124.09244 
L 189.10192 -136.404375 
L 194.738284 -122.006079 
L 200.374648 -113.151105 
L 206.011011 -135.458446 
L 211.647375 -120.798093 
L 217.283739 -123.569953 
L 222.920102 -179.000638 
L 228.556466 -161.181234 
L 234.19283 -144.701252 
L 239.829193 -155.49597 
L 245.465557 -134.292677 
L 251.10192 -126.773837 
L 256.738284 -130.379465 
L 262.374648 -133.05973 
L 268.011011 -139.543642 
L 273.647375 -145.641994 
L 279.283739 -150.286261 
L 284.920102 -135.355514 
L 290.556466 -110.985306 
L 296.19283 -109.238241 
L 301.829193 -99.876753 
L 307.465557 -97.569336 
L 313.10192 -69.22832 
L 318.738284 -75.174147 
L 324.374648 -78.695742 
L 330.011011 -72.396776 
L 335.647375 -69.82967 
L 341.283739 -66.444519 
L 346.920102 -55.119691 
L 352.556466 -80.16028 
L 358.19283 -54.150388 
L 363.829193 -51.449761 
L 363.829193 -51.449761 
L 363.829193 -51.449761 
L 358.19283 -67.126789 
L 352.556466 -113.639289 
L 346.920102 -97.354654 
L 341.283739 -100.597955 
L 335.647375 -109.687915 
L 330.011011 -108.629944 
L 324.374648 -132.043134 
L 318.738284 -119.928474 
L 313.10192 -116.292528 
L 307.465557 -134.308582 
L 301.829193 -143.82354 
L 296.19283 -142.468819 
L 290.556466 -139.606504 
L 284.920102 -163.394007 
L 279.283739 -188.098241 
L 273.647375 -182.901881 
L 268.011011 -180.427905 
L 262.374648 -170.627555 
L 256.738284 -149.849719 
L 251.10192 -156.426767 
L 245.465557 -157.274003 
L 239.829193 -191.192653 
L 234.19283 -176.503571 
L 228.556466 -190.377643 
L 222.920102 -216.559317 
L 217.283739 -158.891856 
L 211.647375 -145.572514 
L 206.011011 -160.426644 
L 200.374648 -133.279963 
L 194.738284 -143.838409 
L 189.10192 -161.362042 
L 183.465557 -152.958795 
L 177.829193 -164.46256 
L 172.19283 -162.01463 
L 166.556466 -241.202378 
L 160.920102 -213.391966 
L 155.283739 -205.65646 
L 149.647375 -180.42595 
L 144.011011 -214.058594 
L 138.374648 -227.358095 
L 132.738284 -180.913713 
L 127.10192 -225.776815 
L 121.465557 -127.176496 
L 115.829193 -130.696815 
L 110.19283 -126.233732 
L 104.556466 -116.322362 
L 98.920102 -114.925511 
L 93.283739 -92.612096 
L 87.647375 -102.050705 
L 82.011011 -87.171767 
L 76.374648 -110.22322 
L 70.738284 -123.141001 
L 65.10192 -113.426407 
L 59.465557 -151.838514 
z
" id="md51eaad9b0" style="stroke:#721f81;stroke-opacity:0.2;stroke-width:0.8;"/>
    </defs>
    <g clip-path="url(#p96434b5e6c)">
     <use style="fill:#721f81;fill-opacity:0.2;stroke:#721f81;stroke-opacity:0.2;stroke-width:0.8;" x="0" xlink:href="#md51eaad9b0" y="266.206125"/>
    </g>
   </g>
   <g id="PolyCollection_2">
    <defs>
     <path d="M 59.465557 -176.670886 
L 59.465557 -158.009794 
L 65.10192 -111.661034 
L 70.738284 -92.524067 
L 76.374648 -115.952832 
L 82.011011 -96.098266 
L 87.647375 -109.719857 
L 93.283739 -97.243166 
L 98.920102 -78.186956 
L 104.556466 -78.05646 
L 110.19283 -73.870539 
L 115.829193 -75.78529 
L 121.465557 -71.674903 
L 127.10192 -216.022191 
L 132.738284 -155.339914 
L 138.374648 -145.532864 
L 144.011011 -135.06976 
L 149.647375 -161.401503 
L 155.283739 -130.277371 
L 160.920102 -158.627021 
L 166.556466 -127.580509 
L 172.19283 -112.065829 
L 177.829193 -119.816807 
L 183.465557 -111.992397 
L 189.10192 -127.464286 
L 194.738284 -126.981253 
L 200.374648 -108.088873 
L 206.011011 -118.681522 
L 211.647375 -110.549357 
L 217.283739 -101.871631 
L 222.920102 -104.691384 
L 228.556466 -109.076533 
L 234.19283 -108.121038 
L 239.829193 -99.831227 
L 245.465557 -108.250746 
L 251.10192 -131.413277 
L 256.738284 -95.325465 
L 262.374648 -109.401566 
L 268.011011 -112.24551 
L 273.647375 -127.470354 
L 279.283739 -117.512891 
L 284.920102 -121.901397 
L 290.556466 -101.535134 
L 296.19283 -111.744162 
L 301.829193 -78.663462 
L 307.465557 -64.456711 
L 313.10192 -54.580406 
L 318.738284 -64.817715 
L 324.374648 -64.046811 
L 330.011011 -52.630053 
L 335.647375 -67.930769 
L 341.283739 -55.220564 
L 346.920102 -55.350003 
L 352.556466 -52.512158 
L 358.19283 -58.02547 
L 358.19283 -74.028115 
L 358.19283 -74.028115 
L 352.556466 -62.550398 
L 346.920102 -63.935807 
L 341.283739 -64.175426 
L 335.647375 -80.552896 
L 330.011011 -60.585936 
L 324.374648 -76.742385 
L 318.738284 -76.265588 
L 313.10192 -63.45913 
L 307.465557 -71.99627 
L 301.829193 -92.599506 
L 296.19283 -139.934209 
L 290.556466 -146.653493 
L 284.920102 -145.077652 
L 279.283739 -138.304268 
L 273.647375 -192.324705 
L 268.011011 -130.987005 
L 262.374648 -129.393663 
L 256.738284 -130.358235 
L 251.10192 -157.879226 
L 245.465557 -130.161013 
L 239.829193 -118.778614 
L 234.19283 -127.356193 
L 228.556466 -134.143439 
L 222.920102 -128.603868 
L 217.283739 -122.86711 
L 211.647375 -134.573983 
L 206.011011 -184.20471 
L 200.374648 -131.287011 
L 194.738284 -148.700423 
L 189.10192 -148.220629 
L 183.465557 -130.209907 
L 177.829193 -141.548235 
L 172.19283 -133.739917 
L 166.556466 -147.255242 
L 160.920102 -204.359141 
L 155.283739 -169.052269 
L 149.647375 -200.091477 
L 144.011011 -153.117506 
L 138.374648 -164.60339 
L 132.738284 -178.433552 
L 127.10192 -249.122489 
L 121.465557 -80.245971 
L 115.829193 -97.565987 
L 110.19283 -87.843403 
L 104.556466 -90.906324 
L 98.920102 -88.364518 
L 93.283739 -126.018752 
L 87.647375 -141.492003 
L 82.011011 -111.219944 
L 76.374648 -138.092428 
L 70.738284 -106.997235 
L 65.10192 -122.513077 
L 59.465557 -176.670886 
z
" id="mb1502f0a4d" style="stroke:#f1605d;stroke-opacity:0.2;stroke-width:0.8;"/>
    </defs>
    <g clip-path="url(#p96434b5e6c)">
     <use style="fill:#f1605d;fill-opacity:0.2;stroke:#f1605d;stroke-opacity:0.2;stroke-width:0.8;" x="0" xlink:href="#mb1502f0a4d" y="266.206125"/>
    </g>
   </g>
   <g id="matplotlib.axis_1">
    <g id="xtick_1">
     <g id="line2d_1">
      <defs>
       <path d="M 0 0 
L 0 4.8 
" id="md2b0009450" style="stroke:#000000;"/>
      </defs>
      <g>
       <use style="stroke:#000000;" x="59.465557" xlink:href="#md2b0009450" y="224.64"/>
      </g>
     </g>
     <g id="text_1">
      <!-- 0 -->
      <g transform="translate(56.666057 239.626625)scale(0.088 -0.088)">
       <defs>
        <path d="M 2034 4250 
Q 1547 4250 1301 3770 
Q 1056 3291 1056 2328 
Q 1056 1369 1301 889 
Q 1547 409 2034 409 
Q 2525 409 2770 889 
Q 3016 1369 3016 2328 
Q 3016 3291 2770 3770 
Q 2525 4250 2034 4250 
z
M 2034 4750 
Q 2819 4750 3233 4129 
Q 3647 3509 3647 2328 
Q 3647 1150 3233 529 
Q 2819 -91 2034 -91 
Q 1250 -91 836 529 
Q 422 1150 422 2328 
Q 422 3509 836 4129 
Q 1250 4750 2034 4750 
z
" id="DejaVuSans-30" transform="scale(0.015625)"/>
       </defs>
       <use xlink:href="#DejaVuSans-30"/>
      </g>
     </g>
    </g>
    <g id="xtick_2">
     <g id="line2d_2">
      <g>
       <use style="stroke:#000000;" x="115.829193" xlink:href="#md2b0009450" y="224.64"/>
      </g>
     </g>
     <g id="text_2">
      <!-- 10 -->
      <g transform="translate(110.230193 239.626625)scale(0.088 -0.088)">
       <defs>
        <path d="M 794 531 
L 1825 531 
L 1825 4091 
L 703 3866 
L 703 4441 
L 1819 4666 
L 2450 4666 
L 2450 531 
L 3481 531 
L 3481 0 
L 794 0 
L 794 531 
z
" id="DejaVuSans-31" transform="scale(0.015625)"/>
       </defs>
       <use xlink:href="#DejaVuSans-31"/>
       <use x="63.623047" xlink:href="#DejaVuSans-30"/>
      </g>
     </g>
    </g>
    <g id="xtick_3">
     <g id="line2d_3">
      <g>
       <use style="stroke:#000000;" x="172.19283" xlink:href="#md2b0009450" y="224.64"/>
      </g>
     </g>
     <g id="text_3">
      <!-- 20 -->
      <g transform="translate(166.59383 239.626625)scale(0.088 -0.088)">
       <defs>
        <path d="M 1228 531 
L 3431 531 
L 3431 0 
L 469 0 
L 469 531 
Q 828 903 1448 1529 
Q 2069 2156 2228 2338 
Q 2531 2678 2651 2914 
Q 2772 3150 2772 3378 
Q 2772 3750 2511 3984 
Q 2250 4219 1831 4219 
Q 1534 4219 1204 4116 
Q 875 4013 500 3803 
L 500 4441 
Q 881 4594 1212 4672 
Q 1544 4750 1819 4750 
Q 2544 4750 2975 4387 
Q 3406 4025 3406 3419 
Q 3406 3131 3298 2873 
Q 3191 2616 2906 2266 
Q 2828 2175 2409 1742 
Q 1991 1309 1228 531 
z
" id="DejaVuSans-32" transform="scale(0.015625)"/>
       </defs>
       <use xlink:href="#DejaVuSans-32"/>
       <use x="63.623047" xlink:href="#DejaVuSans-30"/>
      </g>
     </g>
    </g>
    <g id="xtick_4">
     <g id="line2d_4">
      <g>
       <use style="stroke:#000000;" x="228.556466" xlink:href="#md2b0009450" y="224.64"/>
      </g>
     </g>
     <g id="text_4">
      <!-- 30 -->
      <g transform="translate(222.957466 239.626625)scale(0.088 -0.088)">
       <defs>
        <path d="M 2597 2516 
Q 3050 2419 3304 2112 
Q 3559 1806 3559 1356 
Q 3559 666 3084 287 
Q 2609 -91 1734 -91 
Q 1441 -91 1130 -33 
Q 819 25 488 141 
L 488 750 
Q 750 597 1062 519 
Q 1375 441 1716 441 
Q 2309 441 2620 675 
Q 2931 909 2931 1356 
Q 2931 1769 2642 2001 
Q 2353 2234 1838 2234 
L 1294 2234 
L 1294 2753 
L 1863 2753 
Q 2328 2753 2575 2939 
Q 2822 3125 2822 3475 
Q 2822 3834 2567 4026 
Q 2313 4219 1838 4219 
Q 1578 4219 1281 4162 
Q 984 4106 628 3988 
L 628 4550 
Q 988 4650 1302 4700 
Q 1616 4750 1894 4750 
Q 2613 4750 3031 4423 
Q 3450 4097 3450 3541 
Q 3450 3153 3228 2886 
Q 3006 2619 2597 2516 
z
" id="DejaVuSans-33" transform="scale(0.015625)"/>
       </defs>
       <use xlink:href="#DejaVuSans-33"/>
       <use x="63.623047" xlink:href="#DejaVuSans-30"/>
      </g>
     </g>
    </g>
    <g id="xtick_5">
     <g id="line2d_5">
      <g>
       <use style="stroke:#000000;" x="284.920102" xlink:href="#md2b0009450" y="224.64"/>
      </g>
     </g>
     <g id="text_5">
      <!-- 40 -->
      <g transform="translate(279.321102 239.626625)scale(0.088 -0.088)">
       <defs>
        <path d="M 2419 4116 
L 825 1625 
L 2419 1625 
L 2419 4116 
z
M 2253 4666 
L 3047 4666 
L 3047 1625 
L 3713 1625 
L 3713 1100 
L 3047 1100 
L 3047 0 
L 2419 0 
L 2419 1100 
L 313 1100 
L 313 1709 
L 2253 4666 
z
" id="DejaVuSans-34" transform="scale(0.015625)"/>
       </defs>
       <use xlink:href="#DejaVuSans-34"/>
       <use x="63.623047" xlink:href="#DejaVuSans-30"/>
      </g>
     </g>
    </g>
    <g id="xtick_6">
     <g id="line2d_6">
      <g>
       <use style="stroke:#000000;" x="341.283739" xlink:href="#md2b0009450" y="224.64"/>
      </g>
     </g>
     <g id="text_6">
      <!-- 50 -->
      <g transform="translate(335.684739 239.626625)scale(0.088 -0.088)">
       <defs>
        <path d="M 691 4666 
L 3169 4666 
L 3169 4134 
L 1269 4134 
L 1269 2991 
Q 1406 3038 1543 3061 
Q 1681 3084 1819 3084 
Q 2600 3084 3056 2656 
Q 3513 2228 3513 1497 
Q 3513 744 3044 326 
Q 2575 -91 1722 -91 
Q 1428 -91 1123 -41 
Q 819 9 494 109 
L 494 744 
Q 775 591 1075 516 
Q 1375 441 1709 441 
Q 2250 441 2565 725 
Q 2881 1009 2881 1497 
Q 2881 1984 2565 2268 
Q 2250 2553 1709 2553 
Q 1456 2553 1204 2497 
Q 953 2441 691 2322 
L 691 4666 
z
" id="DejaVuSans-35" transform="scale(0.015625)"/>
       </defs>
       <use xlink:href="#DejaVuSans-35"/>
       <use x="63.623047" xlink:href="#DejaVuSans-30"/>
      </g>
     </g>
    </g>
    <g id="text_7">
     <!-- Trial -->
     <g transform="translate(197.347687 256.094562)scale(0.14 -0.14)">
      <defs>
       <path d="M -19 4666 
L 3928 4666 
L 3928 4134 
L 2272 4134 
L 2272 0 
L 1638 0 
L 1638 4134 
L -19 4134 
L -19 4666 
z
" id="DejaVuSans-54" transform="scale(0.015625)"/>
       <path d="M 2631 2963 
Q 2534 3019 2420 3045 
Q 2306 3072 2169 3072 
Q 1681 3072 1420 2755 
Q 1159 2438 1159 1844 
L 1159 0 
L 581 0 
L 581 3500 
L 1159 3500 
L 1159 2956 
Q 1341 3275 1631 3429 
Q 1922 3584 2338 3584 
Q 2397 3584 2469 3576 
Q 2541 3569 2628 3553 
L 2631 2963 
z
" id="DejaVuSans-72" transform="scale(0.015625)"/>
       <path d="M 603 3500 
L 1178 3500 
L 1178 0 
L 603 0 
L 603 3500 
z
M 603 4863 
L 1178 4863 
L 1178 4134 
L 603 4134 
L 603 4863 
z
" id="DejaVuSans-69" transform="scale(0.015625)"/>
       <path d="M 2194 1759 
Q 1497 1759 1228 1600 
Q 959 1441 959 1056 
Q 959 750 1161 570 
Q 1363 391 1709 391 
Q 2188 391 2477 730 
Q 2766 1069 2766 1631 
L 2766 1759 
L 2194 1759 
z
M 3341 1997 
L 3341 0 
L 2766 0 
L 2766 531 
Q 2569 213 2275 61 
Q 1981 -91 1556 -91 
Q 1019 -91 701 211 
Q 384 513 384 1019 
Q 384 1609 779 1909 
Q 1175 2209 1959 2209 
L 2766 2209 
L 2766 2266 
Q 2766 2663 2505 2880 
Q 2244 3097 1772 3097 
Q 1472 3097 1187 3025 
Q 903 2953 641 2809 
L 641 3341 
Q 956 3463 1253 3523 
Q 1550 3584 1831 3584 
Q 2591 3584 2966 3190 
Q 3341 2797 3341 1997 
z
" id="DejaVuSans-61" transform="scale(0.015625)"/>
       <path d="M 603 4863 
L 1178 4863 
L 1178 0 
L 603 0 
L 603 4863 
z
" id="DejaVuSans-6c" transform="scale(0.015625)"/>
      </defs>
      <use xlink:href="#DejaVuSans-54"/>
      <use x="46.333984" xlink:href="#DejaVuSans-72"/>
      <use x="87.447266" xlink:href="#DejaVuSans-69"/>
      <use x="115.230469" xlink:href="#DejaVuSans-61"/>
      <use x="176.509766" xlink:href="#DejaVuSans-6c"/>
     </g>
    </g>
   </g>
   <g id="matplotlib.axis_2">
    <g id="ytick_1">
     <g id="line2d_7">
      <defs>
       <path d="M 0 0 
L -4.8 0 
" id="m7ef5f15fc5" style="stroke:#000000;"/>
      </defs>
      <g>
       <use style="stroke:#000000;" x="44.247375" xlink:href="#m7ef5f15fc5" y="197.429891"/>
      </g>
     </g>
     <g id="text_8">
      <!-- 15 -->
      <g transform="translate(24.749375 200.773204)scale(0.088 -0.088)">
       <use xlink:href="#DejaVuSans-31"/>
       <use x="63.623047" xlink:href="#DejaVuSans-35"/>
      </g>
     </g>
    </g>
    <g id="ytick_2">
     <g id="line2d_8">
      <g>
       <use style="stroke:#000000;" x="44.247375" xlink:href="#m7ef5f15fc5" y="160.433614"/>
      </g>
     </g>
     <g id="text_9">
      <!-- 20 -->
      <g transform="translate(24.749375 163.776927)scale(0.088 -0.088)">
       <use xlink:href="#DejaVuSans-32"/>
       <use x="63.623047" xlink:href="#DejaVuSans-30"/>
      </g>
     </g>
    </g>
    <g id="ytick_3">
     <g id="line2d_9">
      <g>
       <use style="stroke:#000000;" x="44.247375" xlink:href="#m7ef5f15fc5" y="123.437337"/>
      </g>
     </g>
     <g id="text_10">
      <!-- 25 -->
      <g transform="translate(24.749375 126.780649)scale(0.088 -0.088)">
       <use xlink:href="#DejaVuSans-32"/>
       <use x="63.623047" xlink:href="#DejaVuSans-35"/>
      </g>
     </g>
    </g>
    <g id="ytick_4">
     <g id="line2d_10">
      <g>
       <use style="stroke:#000000;" x="44.247375" xlink:href="#m7ef5f15fc5" y="86.44106"/>
      </g>
     </g>
     <g id="text_11">
      <!-- 30 -->
      <g transform="translate(24.749375 89.784372)scale(0.088 -0.088)">
       <use xlink:href="#DejaVuSans-33"/>
       <use x="63.623047" xlink:href="#DejaVuSans-30"/>
      </g>
     </g>
    </g>
    <g id="ytick_5">
     <g id="line2d_11">
      <g>
       <use style="stroke:#000000;" x="44.247375" xlink:href="#m7ef5f15fc5" y="49.444783"/>
      </g>
     </g>
     <g id="text_12">
      <!-- 35 -->
      <g transform="translate(24.749375 52.788095)scale(0.088 -0.088)">
       <use xlink:href="#DejaVuSans-33"/>
       <use x="63.623047" xlink:href="#DejaVuSans-35"/>
      </g>
     </g>
    </g>
    <g id="ytick_6">
     <g id="line2d_12">
      <g>
       <use style="stroke:#000000;" x="44.247375" xlink:href="#m7ef5f15fc5" y="12.448506"/>
      </g>
     </g>
     <g id="text_13">
      <!-- 40 -->
      <g transform="translate(24.749375 15.791818)scale(0.088 -0.088)">
       <use xlink:href="#DejaVuSans-34"/>
       <use x="63.623047" xlink:href="#DejaVuSans-30"/>
      </g>
     </g>
    </g>
    <g id="text_14">
     <!-- MAE (Degrees) -->
     <g transform="translate(17.837813 167.980312)rotate(-90)scale(0.14 -0.14)">
      <defs>
       <path d="M 628 4666 
L 1569 4666 
L 2759 1491 
L 3956 4666 
L 4897 4666 
L 4897 0 
L 4281 0 
L 4281 4097 
L 3078 897 
L 2444 897 
L 1241 4097 
L 1241 0 
L 628 0 
L 628 4666 
z
" id="DejaVuSans-4d" transform="scale(0.015625)"/>
       <path d="M 2188 4044 
L 1331 1722 
L 3047 1722 
L 2188 4044 
z
M 1831 4666 
L 2547 4666 
L 4325 0 
L 3669 0 
L 3244 1197 
L 1141 1197 
L 716 0 
L 50 0 
L 1831 4666 
z
" id="DejaVuSans-41" transform="scale(0.015625)"/>
       <path d="M 628 4666 
L 3578 4666 
L 3578 4134 
L 1259 4134 
L 1259 2753 
L 3481 2753 
L 3481 2222 
L 1259 2222 
L 1259 531 
L 3634 531 
L 3634 0 
L 628 0 
L 628 4666 
z
" id="DejaVuSans-45" transform="scale(0.015625)"/>
       <path id="DejaVuSans-20" transform="scale(0.015625)"/>
       <path d="M 1984 4856 
Q 1566 4138 1362 3434 
Q 1159 2731 1159 2009 
Q 1159 1288 1364 580 
Q 1569 -128 1984 -844 
L 1484 -844 
Q 1016 -109 783 600 
Q 550 1309 550 2009 
Q 550 2706 781 3412 
Q 1013 4119 1484 4856 
L 1984 4856 
z
" id="DejaVuSans-28" transform="scale(0.015625)"/>
       <path d="M 1259 4147 
L 1259 519 
L 2022 519 
Q 2988 519 3436 956 
Q 3884 1394 3884 2338 
Q 3884 3275 3436 3711 
Q 2988 4147 2022 4147 
L 1259 4147 
z
M 628 4666 
L 1925 4666 
Q 3281 4666 3915 4102 
Q 4550 3538 4550 2338 
Q 4550 1131 3912 565 
Q 3275 0 1925 0 
L 628 0 
L 628 4666 
z
" id="DejaVuSans-44" transform="scale(0.015625)"/>
       <path d="M 3597 1894 
L 3597 1613 
L 953 1613 
Q 991 1019 1311 708 
Q 1631 397 2203 397 
Q 2534 397 2845 478 
Q 3156 559 3463 722 
L 3463 178 
Q 3153 47 2828 -22 
Q 2503 -91 2169 -91 
Q 1331 -91 842 396 
Q 353 884 353 1716 
Q 353 2575 817 3079 
Q 1281 3584 2069 3584 
Q 2775 3584 3186 3129 
Q 3597 2675 3597 1894 
z
M 3022 2063 
Q 3016 2534 2758 2815 
Q 2500 3097 2075 3097 
Q 1594 3097 1305 2825 
Q 1016 2553 972 2059 
L 3022 2063 
z
" id="DejaVuSans-65" transform="scale(0.015625)"/>
       <path d="M 2906 1791 
Q 2906 2416 2648 2759 
Q 2391 3103 1925 3103 
Q 1463 3103 1205 2759 
Q 947 2416 947 1791 
Q 947 1169 1205 825 
Q 1463 481 1925 481 
Q 2391 481 2648 825 
Q 2906 1169 2906 1791 
z
M 3481 434 
Q 3481 -459 3084 -895 
Q 2688 -1331 1869 -1331 
Q 1566 -1331 1297 -1286 
Q 1028 -1241 775 -1147 
L 775 -588 
Q 1028 -725 1275 -790 
Q 1522 -856 1778 -856 
Q 2344 -856 2625 -561 
Q 2906 -266 2906 331 
L 2906 616 
Q 2728 306 2450 153 
Q 2172 0 1784 0 
Q 1141 0 747 490 
Q 353 981 353 1791 
Q 353 2603 747 3093 
Q 1141 3584 1784 3584 
Q 2172 3584 2450 3431 
Q 2728 3278 2906 2969 
L 2906 3500 
L 3481 3500 
L 3481 434 
z
" id="DejaVuSans-67" transform="scale(0.015625)"/>
       <path d="M 2834 3397 
L 2834 2853 
Q 2591 2978 2328 3040 
Q 2066 3103 1784 3103 
Q 1356 3103 1142 2972 
Q 928 2841 928 2578 
Q 928 2378 1081 2264 
Q 1234 2150 1697 2047 
L 1894 2003 
Q 2506 1872 2764 1633 
Q 3022 1394 3022 966 
Q 3022 478 2636 193 
Q 2250 -91 1575 -91 
Q 1294 -91 989 -36 
Q 684 19 347 128 
L 347 722 
Q 666 556 975 473 
Q 1284 391 1588 391 
Q 1994 391 2212 530 
Q 2431 669 2431 922 
Q 2431 1156 2273 1281 
Q 2116 1406 1581 1522 
L 1381 1569 
Q 847 1681 609 1914 
Q 372 2147 372 2553 
Q 372 3047 722 3315 
Q 1072 3584 1716 3584 
Q 2034 3584 2315 3537 
Q 2597 3491 2834 3397 
z
" id="DejaVuSans-73" transform="scale(0.015625)"/>
       <path d="M 513 4856 
L 1013 4856 
Q 1481 4119 1714 3412 
Q 1947 2706 1947 2009 
Q 1947 1309 1714 600 
Q 1481 -109 1013 -844 
L 513 -844 
Q 928 -128 1133 580 
Q 1338 1288 1338 2009 
Q 1338 2731 1133 3434 
Q 928 4138 513 4856 
z
" id="DejaVuSans-29" transform="scale(0.015625)"/>
      </defs>
      <use xlink:href="#DejaVuSans-4d"/>
      <use x="86.279297" xlink:href="#DejaVuSans-41"/>
      <use x="154.6875" xlink:href="#DejaVuSans-45"/>
      <use x="217.871094" xlink:href="#DejaVuSans-20"/>
      <use x="249.658203" xlink:href="#DejaVuSans-28"/>
      <use x="288.671875" xlink:href="#DejaVuSans-44"/>
      <use x="365.673828" xlink:href="#DejaVuSans-65"/>
      <use x="427.197266" xlink:href="#DejaVuSans-67"/>
      <use x="490.673828" xlink:href="#DejaVuSans-72"/>
      <use x="529.537109" xlink:href="#DejaVuSans-65"/>
      <use x="591.060547" xlink:href="#DejaVuSans-65"/>
      <use x="652.583984" xlink:href="#DejaVuSans-73"/>
      <use x="704.683594" xlink:href="#DejaVuSans-29"/>
     </g>
    </g>
   </g>
   <g id="line2d_13">
    <path clip-path="url(#p96434b5e6c)" d="M 59.465557 121.186376 
L 65.10192 157.939733 
L 70.738284 148.938933 
L 76.374648 164.045548 
L 82.011011 181.482992 
L 87.647375 171.133745 
L 93.283739 177.00681 
L 98.920102 160.829734 
L 104.556466 160.235724 
L 110.19283 151.429697 
L 115.829193 149.814673 
L 121.465557 150.546206 
L 127.10192 50.218249 
L 132.738284 94.407177 
L 138.374648 54.270854 
L 144.011011 69.574584 
L 149.647375 97.498479 
L 155.283739 75.322025 
L 160.920102 71.063188 
L 166.556466 50.452005 
L 172.19283 114.187274 
L 177.829193 113.396478 
L 183.465557 126.570269 
L 189.10192 116.468989 
L 194.738284 131.879934 
L 200.374648 143.369576 
L 206.011011 117.211508 
L 211.647375 132.136157 
L 217.283739 123.285595 
L 222.920102 68.310123 
L 228.556466 90.140851 
L 234.19283 104.64467 
L 239.829193 93.830498 
L 245.465557 120.828384 
L 251.10192 124.390183 
L 256.738284 126.065434 
L 262.374648 114.405183 
L 268.011011 102.739067 
L 273.647375 100.370222 
L 279.283739 95.065234 
L 284.920102 116.192499 
L 290.556466 139.855556 
L 296.19283 134.151611 
L 301.829193 141.683312 
L 307.465557 147.606652 
L 313.10192 158.021139 
L 318.738284 158.695643 
L 324.374648 160.882806 
L 330.011011 166.4569 
L 335.647375 168.372896 
L 341.283739 171.269567 
L 346.920102 180.899082 
L 352.556466 166.809184 
L 358.19283 206.276382 
L 363.829193 214.756364 
" style="fill:none;stroke:#721f81;stroke-linecap:square;stroke-width:2;"/>
   </g>
   <g id="line2d_14">
    <path clip-path="url(#p96434b5e6c)" d="M 59.465557 97.618965 
L 65.10192 149.263859 
L 70.738284 166.594654 
L 76.374648 138.783433 
L 82.011011 162.585846 
L 87.647375 139.922854 
L 93.283739 154.085329 
L 98.920102 183.108878 
L 104.556466 181.728922 
L 110.19283 185.165228 
L 115.829193 176.971235 
L 121.465557 190.224622 
L 127.10192 33.234252 
L 132.738284 99.545722 
L 138.374648 113.071397 
L 144.011011 122.510769 
L 149.647375 84.449231 
L 155.283739 114.011658 
L 160.920102 82.657227 
L 166.556466 128.950902 
L 172.19283 143.015943 
L 177.829193 135.703064 
L 183.465557 144.915895 
L 189.10192 128.978921 
L 194.738284 128.26586 
L 200.374648 145.916392 
L 206.011011 103.299639 
L 211.647375 142.029255 
L 217.283739 154.651235 
L 222.920102 148.379464 
L 228.556466 144.959964 
L 234.19283 146.939109 
L 239.829193 156.716006 
L 245.465557 146.573387 
L 251.10192 121.649594 
L 256.738284 150.549021 
L 262.374648 146.826481 
L 268.011011 144.28988 
L 273.647375 102.06003 
L 279.283739 137.683244 
L 284.920102 133.26147 
L 290.556466 137.806408 
L 296.19283 140.503494 
L 301.829193 180.743664 
L 307.465557 198.145889 
L 313.10192 207.349674 
L 318.738284 195.12407 
L 324.374648 195.556792 
L 330.011011 210.021442 
L 335.647375 191.915137 
L 341.283739 206.148484 
L 346.920102 206.481027 
L 352.556466 208.887479 
L 358.19283 201.807162 
" style="fill:none;stroke:#f1605d;stroke-linecap:square;stroke-width:2;"/>
   </g>
   <g id="line2d_15"/>
   <g id="line2d_16"/>
   <g id="patch_3">
    <path d="M 44.247375 224.64 
L 44.247375 7.2 
" style="fill:none;stroke:#000000;stroke-linecap:square;stroke-linejoin:miter;"/>
   </g>
   <g id="patch_4">
    <path d="M 379.047375 224.64 
L 379.047375 7.2 
" style="fill:none;stroke:#000000;stroke-linecap:square;stroke-linejoin:miter;"/>
   </g>
   <g id="patch_5">
    <path d="M 44.247375 224.64 
L 379.047375 224.64 
" style="fill:none;stroke:#000000;stroke-linecap:square;stroke-linejoin:miter;"/>
   </g>
   <g id="patch_6">
    <path d="M 44.247375 7.2 
L 379.047375 7.2 
" style="fill:none;stroke:#000000;stroke-linecap:square;stroke-linejoin:miter;"/>
   </g>
   <g id="legend_1">
    <g id="patch_7">
     <path d="M 280.220969 48.291875 
L 371.347375 48.291875 
Q 373.547375 48.291875 373.547375 46.091875 
L 373.547375 14.9 
Q 373.547375 12.7 371.347375 12.7 
L 280.220969 12.7 
Q 278.020969 12.7 278.020969 14.9 
L 278.020969 46.091875 
Q 278.020969 48.291875 280.220969 48.291875 
z
" style="fill:#ffffff;opacity:0.8;stroke:#cccccc;stroke-linejoin:miter;stroke-width:0.8;"/>
    </g>
    <g id="line2d_17">
     <path d="M 282.420969 21.608281 
L 304.420969 21.608281 
" style="fill:none;stroke:#721f81;stroke-linecap:square;stroke-width:2;"/>
    </g>
    <g id="line2d_18"/>
    <g id="text_15">
     <!-- NoReward -->
     <g transform="translate(313.220969 25.458281)scale(0.11 -0.11)">
      <defs>
       <path d="M 628 4666 
L 1478 4666 
L 3547 763 
L 3547 4666 
L 4159 4666 
L 4159 0 
L 3309 0 
L 1241 3903 
L 1241 0 
L 628 0 
L 628 4666 
z
" id="DejaVuSans-4e" transform="scale(0.015625)"/>
       <path d="M 1959 3097 
Q 1497 3097 1228 2736 
Q 959 2375 959 1747 
Q 959 1119 1226 758 
Q 1494 397 1959 397 
Q 2419 397 2687 759 
Q 2956 1122 2956 1747 
Q 2956 2369 2687 2733 
Q 2419 3097 1959 3097 
z
M 1959 3584 
Q 2709 3584 3137 3096 
Q 3566 2609 3566 1747 
Q 3566 888 3137 398 
Q 2709 -91 1959 -91 
Q 1206 -91 779 398 
Q 353 888 353 1747 
Q 353 2609 779 3096 
Q 1206 3584 1959 3584 
z
" id="DejaVuSans-6f" transform="scale(0.015625)"/>
       <path d="M 2841 2188 
Q 3044 2119 3236 1894 
Q 3428 1669 3622 1275 
L 4263 0 
L 3584 0 
L 2988 1197 
Q 2756 1666 2539 1819 
Q 2322 1972 1947 1972 
L 1259 1972 
L 1259 0 
L 628 0 
L 628 4666 
L 2053 4666 
Q 2853 4666 3247 4331 
Q 3641 3997 3641 3322 
Q 3641 2881 3436 2590 
Q 3231 2300 2841 2188 
z
M 1259 4147 
L 1259 2491 
L 2053 2491 
Q 2509 2491 2742 2702 
Q 2975 2913 2975 3322 
Q 2975 3731 2742 3939 
Q 2509 4147 2053 4147 
L 1259 4147 
z
" id="DejaVuSans-52" transform="scale(0.015625)"/>
       <path d="M 269 3500 
L 844 3500 
L 1563 769 
L 2278 3500 
L 2956 3500 
L 3675 769 
L 4391 3500 
L 4966 3500 
L 4050 0 
L 3372 0 
L 2619 2869 
L 1863 0 
L 1184 0 
L 269 3500 
z
" id="DejaVuSans-77" transform="scale(0.015625)"/>
       <path d="M 2906 2969 
L 2906 4863 
L 3481 4863 
L 3481 0 
L 2906 0 
L 2906 525 
Q 2725 213 2448 61 
Q 2172 -91 1784 -91 
Q 1150 -91 751 415 
Q 353 922 353 1747 
Q 353 2572 751 3078 
Q 1150 3584 1784 3584 
Q 2172 3584 2448 3432 
Q 2725 3281 2906 2969 
z
M 947 1747 
Q 947 1113 1208 752 
Q 1469 391 1925 391 
Q 2381 391 2643 752 
Q 2906 1113 2906 1747 
Q 2906 2381 2643 2742 
Q 2381 3103 1925 3103 
Q 1469 3103 1208 2742 
Q 947 2381 947 1747 
z
" id="DejaVuSans-64" transform="scale(0.015625)"/>
      </defs>
      <use xlink:href="#DejaVuSans-4e"/>
      <use x="74.804688" xlink:href="#DejaVuSans-6f"/>
      <use x="135.986328" xlink:href="#DejaVuSans-52"/>
      <use x="200.96875" xlink:href="#DejaVuSans-65"/>
      <use x="262.492188" xlink:href="#DejaVuSans-77"/>
      <use x="344.279297" xlink:href="#DejaVuSans-61"/>
      <use x="405.558594" xlink:href="#DejaVuSans-72"/>
      <use x="444.921875" xlink:href="#DejaVuSans-64"/>
     </g>
    </g>
    <g id="line2d_19">
     <path d="M 282.420969 37.754219 
L 304.420969 37.754219 
" style="fill:none;stroke:#f1605d;stroke-linecap:square;stroke-width:2;"/>
    </g>
    <g id="line2d_20"/>
    <g id="text_16">
     <!-- Reward -->
     <g transform="translate(313.220969 41.604219)scale(0.11 -0.11)">
      <use xlink:href="#DejaVuSans-52"/>
      <use x="64.982422" xlink:href="#DejaVuSans-65"/>
      <use x="126.505859" xlink:href="#DejaVuSans-77"/>
      <use x="208.292969" xlink:href="#DejaVuSans-61"/>
      <use x="269.572266" xlink:href="#DejaVuSans-72"/>
      <use x="308.935547" xlink:href="#DejaVuSans-64"/>
     </g>
    </g>
   </g>
  </g>
 </g>
 <defs>
  <clipPath id="p96434b5e6c">
   <rect height="217.44" width="334.8" x="44.247375" y="7.2"/>
  </clipPath>
 </defs>
</svg>
