<?xml version="1.0" encoding="utf-8" standalone="no"?>
<!DOCTYPE svg PUBLIC "-//W3C//DTD SVG 1.1//EN"
  "http://www.w3.org/Graphics/SVG/1.1/DTD/svg11.dtd">
<svg height="266.206125pt" version="1.1" viewBox="0 0 386.247375 266.206125" width="386.247375pt" xmlns="http://www.w3.org/2000/svg" xmlns:xlink="http://www.w3.org/1999/xlink">
 <metadata>
  <rdf:RDF xmlns:cc="http://creativecommons.org/ns#" xmlns:dc="http://purl.org/dc/elements/1.1/" xmlns:rdf="http://www.w3.org/1999/02/22-rdf-syntax-ns#">
   <cc:Work>
    <dc:type rdf:resource="http://purl.org/dc/dcmitype/StillImage"/>
    <dc:date>2022-06-24T15:31:51.925625</dc:date>
    <dc:format>image/svg+xml</dc:format>
    <dc:creator>
     <cc:Agent>
      <dc:title>Matplotlib v3.4.3, https://matplotlib.org/</dc:title>
     </cc:Agent>
    </dc:creator>
   </cc:Work>
  </rdf:RDF>
 </metadata>
 <defs>
  <style type="text/css">*{stroke-linecap:butt;stroke-linejoin:round;}</style>
 </defs>
 <g id="figure_1">
  <g id="patch_1">
   <path d="M 0 266.206125 
L 386.247375 266.206125 
L 386.247375 0 
L 0 0 
z
" style="fill:none;"/>
  </g>
  <g id="axes_1">
   <g id="patch_2">
    <path d="M 44.247375 224.64 
L 379.047375 224.64 
L 379.047375 7.2 
L 44.247375 7.2 
z
" style="fill:#ffffff;"/>
   </g>
   <g id="PolyCollection_1">
    <defs>
     <path d="M 59.465557 -153.266513 
L 59.465557 -137.451114 
L 65.10192 -102.38916 
L 70.738284 -112.471865 
L 76.374648 -92.498148 
L 82.011011 -81.626795 
L 87.647375 -88.867526 
L 93.283739 -84.724195 
L 98.920102 -95.209452 
L 104.556466 -91.252369 
L 110.19283 -101.593837 
L 115.829193 -100.086752 
L 121.465557 -99.886043 
L 127.10192 -206.711136 
L 132.738284 -160.89314 
L 138.374648 -195.509216 
L 144.011011 -174.968489 
L 149.647375 -158.481064 
L 155.283739 -174.528966 
L 160.920102 -173.957328 
L 166.556466 -182.434129 
L 172.19283 -141.92026 
L 177.829193 -141.69151 
L 183.465557 -123.385306 
L 189.10192 -137.171244 
L 194.738284 -122.006769 
L 200.374648 -111.125323 
L 206.011011 -135.005547 
L 211.647375 -121.082407 
L 217.283739 -123.097073 
L 222.920102 -178.887497 
L 228.556466 -161.514727 
L 234.19283 -145.024892 
L 239.829193 -153.017343 
L 245.465557 -133.167483 
L 251.10192 -127.050143 
L 256.738284 -129.383493 
L 262.374648 -131.37466 
L 268.011011 -140.9467 
L 273.647375 -146.128901 
L 279.283739 -151.231874 
L 284.920102 -136.267771 
L 290.556466 -112.213743 
L 296.19283 -111.590308 
L 301.829193 -98.017755 
L 307.465557 -96.976667 
L 313.10192 -70.705857 
L 318.738284 -75.416522 
L 324.374648 -78.237151 
L 330.011011 -73.123821 
L 335.647375 -70.675874 
L 341.283739 -66.456745 
L 346.920102 -58.741579 
L 352.556466 -79.498827 
L 358.19283 -54.157981 
L 363.829193 -51.449761 
L 363.829193 -51.449761 
L 363.829193 -51.449761 
L 358.19283 -67.170869 
L 352.556466 -111.148901 
L 346.920102 -112.605561 
L 341.283739 -104.421052 
L 335.647375 -109.37905 
L 330.011011 -109.431635 
L 324.374648 -126.89305 
L 318.738284 -119.468918 
L 313.10192 -117.789684 
L 307.465557 -140.630367 
L 301.829193 -136.370451 
L 296.19283 -146.177969 
L 290.556466 -139.309828 
L 284.920102 -162.964069 
L 279.283739 -191.621833 
L 273.647375 -182.737362 
L 268.011011 -180.829372 
L 262.374648 -170.082331 
L 256.738284 -151.638312 
L 251.10192 -156.446201 
L 245.465557 -155.490318 
L 239.829193 -188.204819 
L 234.19283 -178.404643 
L 228.556466 -190.247024 
L 222.920102 -217.32704 
L 217.283739 -158.54154 
L 211.647375 -145.933361 
L 206.011011 -160.723543 
L 200.374648 -131.264755 
L 194.738284 -144.454474 
L 189.10192 -162.281481 
L 183.465557 -153.717535 
L 177.829193 -163.984282 
L 172.19283 -160.71894 
L 166.556466 -242.5086 
L 160.920102 -214.261639 
L 155.283739 -206.193537 
L 149.647375 -178.919625 
L 144.011011 -216.33505 
L 138.374648 -226.673572 
L 132.738284 -183.78363 
L 127.10192 -228.42384 
L 121.465557 -130.659797 
L 115.829193 -126.215082 
L 110.19283 -127.278127 
L 104.556466 -115.479504 
L 98.920102 -113.345924 
L 93.283739 -93.498505 
L 87.647375 -101.742801 
L 82.011011 -87.857718 
L 76.374648 -109.352445 
L 70.738284 -122.147966 
L 65.10192 -114.981728 
L 59.465557 -153.266513 
z
" id="m5f25373513" style="stroke:#721f81;stroke-opacity:0.2;stroke-width:0.8;"/>
    </defs>
    <g clip-path="url(#ped53bc294a)">
     <use style="fill:#721f81;fill-opacity:0.2;stroke:#721f81;stroke-opacity:0.2;stroke-width:0.8;" x="0" xlink:href="#m5f25373513" y="266.206125"/>
    </g>
   </g>
   <g id="PolyCollection_2">
    <defs>
     <path d="M 59.465557 -178.77534 
L 59.465557 -159.537224 
L 65.10192 -111.01498 
L 70.738284 -92.898545 
L 76.374648 -115.193795 
L 82.011011 -95.667994 
L 87.647375 -110.302468 
L 93.283739 -96.864306 
L 98.920102 -77.450513 
L 104.556466 -78.410589 
L 110.19283 -74.628216 
L 115.829193 -74.899794 
L 121.465557 -71.874781 
L 127.10192 -215.291071 
L 132.738284 -155.074619 
L 138.374648 -144.314162 
L 144.011011 -133.538502 
L 149.647375 -161.513423 
L 155.283739 -132.236071 
L 160.920102 -158.019545 
L 166.556466 -127.997375 
L 172.19283 -113.208255 
L 177.829193 -119.698067 
L 183.465557 -112.26036 
L 189.10192 -126.925663 
L 194.738284 -127.236994 
L 200.374648 -108.165551 
L 206.011011 -122.901458 
L 211.647375 -111.096168 
L 217.283739 -100.276058 
L 222.920102 -103.134631 
L 228.556466 -106.968922 
L 234.19283 -107.962851 
L 239.829193 -99.304136 
L 245.465557 -109.604491 
L 251.10192 -133.259959 
L 256.738284 -96.675515 
L 262.374648 -111.246295 
L 268.011011 -112.952149 
L 273.647375 -127.938133 
L 279.283739 -119.142216 
L 284.920102 -121.806815 
L 290.556466 -102.043672 
L 296.19283 -111.324055 
L 301.829193 -77.645335 
L 307.465557 -65.194314 
L 313.10192 -54.718425 
L 318.738284 -63.668038 
L 324.374648 -64.421562 
L 330.011011 -52.755165 
L 335.647375 -67.546864 
L 341.283739 -55.151297 
L 346.920102 -55.700243 
L 352.556466 -52.625049 
L 358.19283 -58.04396 
L 358.19283 -70.826788 
L 358.19283 -70.826788 
L 352.556466 -62.020129 
L 346.920102 -63.398179 
L 341.283739 -64.375207 
L 335.647375 -80.358716 
L 330.011011 -60.179803 
L 324.374648 -76.674364 
L 318.738284 -77.247321 
L 313.10192 -63.077644 
L 307.465557 -71.946656 
L 301.829193 -92.675059 
L 296.19283 -138.432247 
L 290.556466 -144.701542 
L 284.920102 -142.146239 
L 279.283739 -139.895952 
L 273.647375 -189.702214 
L 268.011011 -131.472534 
L 262.374648 -129.293302 
L 256.738284 -132.81427 
L 251.10192 -156.772479 
L 245.465557 -130.269258 
L 239.829193 -118.268214 
L 234.19283 -129.527603 
L 228.556466 -133.505894 
L 222.920102 -127.523713 
L 217.283739 -122.519575 
L 211.647375 -133.231378 
L 206.011011 -184.180354 
L 200.374648 -130.780957 
L 194.738284 -149.035609 
L 189.10192 -147.645165 
L 183.465557 -130.499366 
L 177.829193 -140.755513 
L 172.19283 -133.826473 
L 166.556466 -145.743972 
L 160.920102 -203.603864 
L 155.283739 -169.799337 
L 149.647375 -198.192699 
L 144.011011 -153.191815 
L 138.374648 -163.711884 
L 132.738284 -177.803168 
L 127.10192 -249.122489 
L 121.465557 -80.807818 
L 115.829193 -97.18008 
L 110.19283 -88.170243 
L 104.556466 -90.705873 
L 98.920102 -88.053299 
L 93.283739 -123.967781 
L 87.647375 -139.110131 
L 82.011011 -110.829294 
L 76.374648 -137.781194 
L 70.738284 -106.980971 
L 65.10192 -122.027437 
L 59.465557 -178.77534 
z
" id="mfcf6ef3768" style="stroke:#f1605d;stroke-opacity:0.2;stroke-width:0.8;"/>
    </defs>
    <g clip-path="url(#ped53bc294a)">
     <use style="fill:#f1605d;fill-opacity:0.2;stroke:#f1605d;stroke-opacity:0.2;stroke-width:0.8;" x="0" xlink:href="#mfcf6ef3768" y="266.206125"/>
    </g>
   </g>
   <g id="matplotlib.axis_1">
    <g id="xtick_1">
     <g id="line2d_1">
      <defs>
       <path d="M 0 0 
L 0 4.8 
" id="m2f63805e22" style="stroke:#000000;"/>
      </defs>
      <g>
       <use style="stroke:#000000;" x="59.465557" xlink:href="#m2f63805e22" y="224.64"/>
      </g>
     </g>
     <g id="text_1">
      <!-- 0 -->
      <g transform="translate(56.666057 239.626625)scale(0.088 -0.088)">
       <defs>
        <path d="M 2034 4250 
Q 1547 4250 1301 3770 
Q 1056 3291 1056 2328 
Q 1056 1369 1301 889 
Q 1547 409 2034 409 
Q 2525 409 2770 889 
Q 3016 1369 3016 2328 
Q 3016 3291 2770 3770 
Q 2525 4250 2034 4250 
z
M 2034 4750 
Q 2819 4750 3233 4129 
Q 3647 3509 3647 2328 
Q 3647 1150 3233 529 
Q 2819 -91 2034 -91 
Q 1250 -91 836 529 
Q 422 1150 422 2328 
Q 422 3509 836 4129 
Q 1250 4750 2034 4750 
z
" id="DejaVuSans-30" transform="scale(0.015625)"/>
       </defs>
       <use xlink:href="#DejaVuSans-30"/>
      </g>
     </g>
    </g>
    <g id="xtick_2">
     <g id="line2d_2">
      <g>
       <use style="stroke:#000000;" x="115.829193" xlink:href="#m2f63805e22" y="224.64"/>
      </g>
     </g>
     <g id="text_2">
      <!-- 10 -->
      <g transform="translate(110.230193 239.626625)scale(0.088 -0.088)">
       <defs>
        <path d="M 794 531 
L 1825 531 
L 1825 4091 
L 703 3866 
L 703 4441 
L 1819 4666 
L 2450 4666 
L 2450 531 
L 3481 531 
L 3481 0 
L 794 0 
L 794 531 
z
" id="DejaVuSans-31" transform="scale(0.015625)"/>
       </defs>
       <use xlink:href="#DejaVuSans-31"/>
       <use x="63.623047" xlink:href="#DejaVuSans-30"/>
      </g>
     </g>
    </g>
    <g id="xtick_3">
     <g id="line2d_3">
      <g>
       <use style="stroke:#000000;" x="172.19283" xlink:href="#m2f63805e22" y="224.64"/>
      </g>
     </g>
     <g id="text_3">
      <!-- 20 -->
      <g transform="translate(166.59383 239.626625)scale(0.088 -0.088)">
       <defs>
        <path d="M 1228 531 
L 3431 531 
L 3431 0 
L 469 0 
L 469 531 
Q 828 903 1448 1529 
Q 2069 2156 2228 2338 
Q 2531 2678 2651 2914 
Q 2772 3150 2772 3378 
Q 2772 3750 2511 3984 
Q 2250 4219 1831 4219 
Q 1534 4219 1204 4116 
Q 875 4013 500 3803 
L 500 4441 
Q 881 4594 1212 4672 
Q 1544 4750 1819 4750 
Q 2544 4750 2975 4387 
Q 3406 4025 3406 3419 
Q 3406 3131 3298 2873 
Q 3191 2616 2906 2266 
Q 2828 2175 2409 1742 
Q 1991 1309 1228 531 
z
" id="DejaVuSans-32" transform="scale(0.015625)"/>
       </defs>
       <use xlink:href="#DejaVuSans-32"/>
       <use x="63.623047" xlink:href="#DejaVuSans-30"/>
      </g>
     </g>
    </g>
    <g id="xtick_4">
     <g id="line2d_4">
      <g>
       <use style="stroke:#000000;" x="228.556466" xlink:href="#m2f63805e22" y="224.64"/>
      </g>
     </g>
     <g id="text_4">
      <!-- 30 -->
      <g transform="translate(222.957466 239.626625)scale(0.088 -0.088)">
       <defs>
        <path d="M 2597 2516 
Q 3050 2419 3304 2112 
Q 3559 1806 3559 1356 
Q 3559 666 3084 287 
Q 2609 -91 1734 -91 
Q 1441 -91 1130 -33 
Q 819 25 488 141 
L 488 750 
Q 750 597 1062 519 
Q 1375 441 1716 441 
Q 2309 441 2620 675 
Q 2931 909 2931 1356 
Q 2931 1769 2642 2001 
Q 2353 2234 1838 2234 
L 1294 2234 
L 1294 2753 
L 1863 2753 
Q 2328 2753 2575 2939 
Q 2822 3125 2822 3475 
Q 2822 3834 2567 4026 
Q 2313 4219 1838 4219 
Q 1578 4219 1281 4162 
Q 984 4106 628 3988 
L 628 4550 
Q 988 4650 1302 4700 
Q 1616 4750 1894 4750 
Q 2613 4750 3031 4423 
Q 3450 4097 3450 3541 
Q 3450 3153 3228 2886 
Q 3006 2619 2597 2516 
z
" id="DejaVuSans-33" transform="scale(0.015625)"/>
       </defs>
       <use xlink:href="#DejaVuSans-33"/>
       <use x="63.623047" xlink:href="#DejaVuSans-30"/>
      </g>
     </g>
    </g>
    <g id="xtick_5">
     <g id="line2d_5">
      <g>
       <use style="stroke:#000000;" x="284.920102" xlink:href="#m2f63805e22" y="224.64"/>
      </g>
     </g>
     <g id="text_5">
      <!-- 40 -->
      <g transform="translate(279.321102 239.626625)scale(0.088 -0.088)">
       <defs>
        <path d="M 2419 4116 
L 825 1625 
L 2419 1625 
L 2419 4116 
z
M 2253 4666 
L 3047 4666 
L 3047 1625 
L 3713 1625 
L 3713 1100 
L 3047 1100 
L 3047 0 
L 2419 0 
L 2419 1100 
L 313 1100 
L 313 1709 
L 2253 4666 
z
" id="DejaVuSans-34" transform="scale(0.015625)"/>
       </defs>
       <use xlink:href="#DejaVuSans-34"/>
       <use x="63.623047" xlink:href="#DejaVuSans-30"/>
      </g>
     </g>
    </g>
    <g id="xtick_6">
     <g id="line2d_6">
      <g>
       <use style="stroke:#000000;" x="341.283739" xlink:href="#m2f63805e22" y="224.64"/>
      </g>
     </g>
     <g id="text_6">
      <!-- 50 -->
      <g transform="translate(335.684739 239.626625)scale(0.088 -0.088)">
       <defs>
        <path d="M 691 4666 
L 3169 4666 
L 3169 4134 
L 1269 4134 
L 1269 2991 
Q 1406 3038 1543 3061 
Q 1681 3084 1819 3084 
Q 2600 3084 3056 2656 
Q 3513 2228 3513 1497 
Q 3513 744 3044 326 
Q 2575 -91 1722 -91 
Q 1428 -91 1123 -41 
Q 819 9 494 109 
L 494 744 
Q 775 591 1075 516 
Q 1375 441 1709 441 
Q 2250 441 2565 725 
Q 2881 1009 2881 1497 
Q 2881 1984 2565 2268 
Q 2250 2553 1709 2553 
Q 1456 2553 1204 2497 
Q 953 2441 691 2322 
L 691 4666 
z
" id="DejaVuSans-35" transform="scale(0.015625)"/>
       </defs>
       <use xlink:href="#DejaVuSans-35"/>
       <use x="63.623047" xlink:href="#DejaVuSans-30"/>
      </g>
     </g>
    </g>
    <g id="text_7">
     <!-- Trial -->
     <g transform="translate(197.347687 256.094562)scale(0.14 -0.14)">
      <defs>
       <path d="M -19 4666 
L 3928 4666 
L 3928 4134 
L 2272 4134 
L 2272 0 
L 1638 0 
L 1638 4134 
L -19 4134 
L -19 4666 
z
" id="DejaVuSans-54" transform="scale(0.015625)"/>
       <path d="M 2631 2963 
Q 2534 3019 2420 3045 
Q 2306 3072 2169 3072 
Q 1681 3072 1420 2755 
Q 1159 2438 1159 1844 
L 1159 0 
L 581 0 
L 581 3500 
L 1159 3500 
L 1159 2956 
Q 1341 3275 1631 3429 
Q 1922 3584 2338 3584 
Q 2397 3584 2469 3576 
Q 2541 3569 2628 3553 
L 2631 2963 
z
" id="DejaVuSans-72" transform="scale(0.015625)"/>
       <path d="M 603 3500 
L 1178 3500 
L 1178 0 
L 603 0 
L 603 3500 
z
M 603 4863 
L 1178 4863 
L 1178 4134 
L 603 4134 
L 603 4863 
z
" id="DejaVuSans-69" transform="scale(0.015625)"/>
       <path d="M 2194 1759 
Q 1497 1759 1228 1600 
Q 959 1441 959 1056 
Q 959 750 1161 570 
Q 1363 391 1709 391 
Q 2188 391 2477 730 
Q 2766 1069 2766 1631 
L 2766 1759 
L 2194 1759 
z
M 3341 1997 
L 3341 0 
L 2766 0 
L 2766 531 
Q 2569 213 2275 61 
Q 1981 -91 1556 -91 
Q 1019 -91 701 211 
Q 384 513 384 1019 
Q 384 1609 779 1909 
Q 1175 2209 1959 2209 
L 2766 2209 
L 2766 2266 
Q 2766 2663 2505 2880 
Q 2244 3097 1772 3097 
Q 1472 3097 1187 3025 
Q 903 2953 641 2809 
L 641 3341 
Q 956 3463 1253 3523 
Q 1550 3584 1831 3584 
Q 2591 3584 2966 3190 
Q 3341 2797 3341 1997 
z
" id="DejaVuSans-61" transform="scale(0.015625)"/>
       <path d="M 603 4863 
L 1178 4863 
L 1178 0 
L 603 0 
L 603 4863 
z
" id="DejaVuSans-6c" transform="scale(0.015625)"/>
      </defs>
      <use xlink:href="#DejaVuSans-54"/>
      <use x="46.333984" xlink:href="#DejaVuSans-72"/>
      <use x="87.447266" xlink:href="#DejaVuSans-69"/>
      <use x="115.230469" xlink:href="#DejaVuSans-61"/>
      <use x="176.509766" xlink:href="#DejaVuSans-6c"/>
     </g>
    </g>
   </g>
   <g id="matplotlib.axis_2">
    <g id="ytick_1">
     <g id="line2d_7">
      <defs>
       <path d="M 0 0 
L -4.8 0 
" id="m25c22291e5" style="stroke:#000000;"/>
      </defs>
      <g>
       <use style="stroke:#000000;" x="44.247375" xlink:href="#m25c22291e5" y="197.381173"/>
      </g>
     </g>
     <g id="text_8">
      <!-- 15 -->
      <g transform="translate(24.749375 200.724485)scale(0.088 -0.088)">
       <use xlink:href="#DejaVuSans-31"/>
       <use x="63.623047" xlink:href="#DejaVuSans-35"/>
      </g>
     </g>
    </g>
    <g id="ytick_2">
     <g id="line2d_8">
      <g>
       <use style="stroke:#000000;" x="44.247375" xlink:href="#m25c22291e5" y="160.28087"/>
      </g>
     </g>
     <g id="text_9">
      <!-- 20 -->
      <g transform="translate(24.749375 163.624182)scale(0.088 -0.088)">
       <use xlink:href="#DejaVuSans-32"/>
       <use x="63.623047" xlink:href="#DejaVuSans-30"/>
      </g>
     </g>
    </g>
    <g id="ytick_3">
     <g id="line2d_9">
      <g>
       <use style="stroke:#000000;" x="44.247375" xlink:href="#m25c22291e5" y="123.180567"/>
      </g>
     </g>
     <g id="text_10">
      <!-- 25 -->
      <g transform="translate(24.749375 126.523879)scale(0.088 -0.088)">
       <use xlink:href="#DejaVuSans-32"/>
       <use x="63.623047" xlink:href="#DejaVuSans-35"/>
      </g>
     </g>
    </g>
    <g id="ytick_4">
     <g id="line2d_10">
      <g>
       <use style="stroke:#000000;" x="44.247375" xlink:href="#m25c22291e5" y="86.080264"/>
      </g>
     </g>
     <g id="text_11">
      <!-- 30 -->
      <g transform="translate(24.749375 89.423576)scale(0.088 -0.088)">
       <use xlink:href="#DejaVuSans-33"/>
       <use x="63.623047" xlink:href="#DejaVuSans-30"/>
      </g>
     </g>
    </g>
    <g id="ytick_5">
     <g id="line2d_11">
      <g>
       <use style="stroke:#000000;" x="44.247375" xlink:href="#m25c22291e5" y="48.979961"/>
      </g>
     </g>
     <g id="text_12">
      <!-- 35 -->
      <g transform="translate(24.749375 52.323274)scale(0.088 -0.088)">
       <use xlink:href="#DejaVuSans-33"/>
       <use x="63.623047" xlink:href="#DejaVuSans-35"/>
      </g>
     </g>
    </g>
    <g id="ytick_6">
     <g id="line2d_12">
      <g>
       <use style="stroke:#000000;" x="44.247375" xlink:href="#m25c22291e5" y="11.879658"/>
      </g>
     </g>
     <g id="text_13">
      <!-- 40 -->
      <g transform="translate(24.749375 15.222971)scale(0.088 -0.088)">
       <use xlink:href="#DejaVuSans-34"/>
       <use x="63.623047" xlink:href="#DejaVuSans-30"/>
      </g>
     </g>
    </g>
    <g id="text_14">
     <!-- MAE (Degrees) -->
     <g transform="translate(17.837813 167.980312)rotate(-90)scale(0.14 -0.14)">
      <defs>
       <path d="M 628 4666 
L 1569 4666 
L 2759 1491 
L 3956 4666 
L 4897 4666 
L 4897 0 
L 4281 0 
L 4281 4097 
L 3078 897 
L 2444 897 
L 1241 4097 
L 1241 0 
L 628 0 
L 628 4666 
z
" id="DejaVuSans-4d" transform="scale(0.015625)"/>
       <path d="M 2188 4044 
L 1331 1722 
L 3047 1722 
L 2188 4044 
z
M 1831 4666 
L 2547 4666 
L 4325 0 
L 3669 0 
L 3244 1197 
L 1141 1197 
L 716 0 
L 50 0 
L 1831 4666 
z
" id="DejaVuSans-41" transform="scale(0.015625)"/>
       <path d="M 628 4666 
L 3578 4666 
L 3578 4134 
L 1259 4134 
L 1259 2753 
L 3481 2753 
L 3481 2222 
L 1259 2222 
L 1259 531 
L 3634 531 
L 3634 0 
L 628 0 
L 628 4666 
z
" id="DejaVuSans-45" transform="scale(0.015625)"/>
       <path id="DejaVuSans-20" transform="scale(0.015625)"/>
       <path d="M 1984 4856 
Q 1566 4138 1362 3434 
Q 1159 2731 1159 2009 
Q 1159 1288 1364 580 
Q 1569 -128 1984 -844 
L 1484 -844 
Q 1016 -109 783 600 
Q 550 1309 550 2009 
Q 550 2706 781 3412 
Q 1013 4119 1484 4856 
L 1984 4856 
z
" id="DejaVuSans-28" transform="scale(0.015625)"/>
       <path d="M 1259 4147 
L 1259 519 
L 2022 519 
Q 2988 519 3436 956 
Q 3884 1394 3884 2338 
Q 3884 3275 3436 3711 
Q 2988 4147 2022 4147 
L 1259 4147 
z
M 628 4666 
L 1925 4666 
Q 3281 4666 3915 4102 
Q 4550 3538 4550 2338 
Q 4550 1131 3912 565 
Q 3275 0 1925 0 
L 628 0 
L 628 4666 
z
" id="DejaVuSans-44" transform="scale(0.015625)"/>
       <path d="M 3597 1894 
L 3597 1613 
L 953 1613 
Q 991 1019 1311 708 
Q 1631 397 2203 397 
Q 2534 397 2845 478 
Q 3156 559 3463 722 
L 3463 178 
Q 3153 47 2828 -22 
Q 2503 -91 2169 -91 
Q 1331 -91 842 396 
Q 353 884 353 1716 
Q 353 2575 817 3079 
Q 1281 3584 2069 3584 
Q 2775 3584 3186 3129 
Q 3597 2675 3597 1894 
z
M 3022 2063 
Q 3016 2534 2758 2815 
Q 2500 3097 2075 3097 
Q 1594 3097 1305 2825 
Q 1016 2553 972 2059 
L 3022 2063 
z
" id="DejaVuSans-65" transform="scale(0.015625)"/>
       <path d="M 2906 1791 
Q 2906 2416 2648 2759 
Q 2391 3103 1925 3103 
Q 1463 3103 1205 2759 
Q 947 2416 947 1791 
Q 947 1169 1205 825 
Q 1463 481 1925 481 
Q 2391 481 2648 825 
Q 2906 1169 2906 1791 
z
M 3481 434 
Q 3481 -459 3084 -895 
Q 2688 -1331 1869 -1331 
Q 1566 -1331 1297 -1286 
Q 1028 -1241 775 -1147 
L 775 -588 
Q 1028 -725 1275 -790 
Q 1522 -856 1778 -856 
Q 2344 -856 2625 -561 
Q 2906 -266 2906 331 
L 2906 616 
Q 2728 306 2450 153 
Q 2172 0 1784 0 
Q 1141 0 747 490 
Q 353 981 353 1791 
Q 353 2603 747 3093 
Q 1141 3584 1784 3584 
Q 2172 3584 2450 3431 
Q 2728 3278 2906 2969 
L 2906 3500 
L 3481 3500 
L 3481 434 
z
" id="DejaVuSans-67" transform="scale(0.015625)"/>
       <path d="M 2834 3397 
L 2834 2853 
Q 2591 2978 2328 3040 
Q 2066 3103 1784 3103 
Q 1356 3103 1142 2972 
Q 928 2841 928 2578 
Q 928 2378 1081 2264 
Q 1234 2150 1697 2047 
L 1894 2003 
Q 2506 1872 2764 1633 
Q 3022 1394 3022 966 
Q 3022 478 2636 193 
Q 2250 -91 1575 -91 
Q 1294 -91 989 -36 
Q 684 19 347 128 
L 347 722 
Q 666 556 975 473 
Q 1284 391 1588 391 
Q 1994 391 2212 530 
Q 2431 669 2431 922 
Q 2431 1156 2273 1281 
Q 2116 1406 1581 1522 
L 1381 1569 
Q 847 1681 609 1914 
Q 372 2147 372 2553 
Q 372 3047 722 3315 
Q 1072 3584 1716 3584 
Q 2034 3584 2315 3537 
Q 2597 3491 2834 3397 
z
" id="DejaVuSans-73" transform="scale(0.015625)"/>
       <path d="M 513 4856 
L 1013 4856 
Q 1481 4119 1714 3412 
Q 1947 2706 1947 2009 
Q 1947 1309 1714 600 
Q 1481 -109 1013 -844 
L 513 -844 
Q 928 -128 1133 580 
Q 1338 1288 1338 2009 
Q 1338 2731 1133 3434 
Q 928 4138 513 4856 
z
" id="DejaVuSans-29" transform="scale(0.015625)"/>
      </defs>
      <use xlink:href="#DejaVuSans-4d"/>
      <use x="86.279297" xlink:href="#DejaVuSans-41"/>
      <use x="154.6875" xlink:href="#DejaVuSans-45"/>
      <use x="217.871094" xlink:href="#DejaVuSans-20"/>
      <use x="249.658203" xlink:href="#DejaVuSans-28"/>
      <use x="288.671875" xlink:href="#DejaVuSans-44"/>
      <use x="365.673828" xlink:href="#DejaVuSans-65"/>
      <use x="427.197266" xlink:href="#DejaVuSans-67"/>
      <use x="490.673828" xlink:href="#DejaVuSans-72"/>
      <use x="529.537109" xlink:href="#DejaVuSans-65"/>
      <use x="591.060547" xlink:href="#DejaVuSans-65"/>
      <use x="652.583984" xlink:href="#DejaVuSans-73"/>
      <use x="704.683594" xlink:href="#DejaVuSans-29"/>
     </g>
    </g>
   </g>
   <g id="line2d_13">
    <path clip-path="url(#ped53bc294a)" d="M 59.465557 120.923277 
L 65.10192 157.779976 
L 70.738284 148.753868 
L 76.374648 163.90296 
L 82.011011 181.389434 
L 87.647375 171.011087 
L 93.283739 176.900666 
L 98.920102 160.678103 
L 104.556466 160.082423 
L 110.19283 151.251635 
L 115.829193 149.63207 
L 121.465557 150.36566 
L 127.10192 49.755602 
L 132.738284 94.06878 
L 138.374648 53.819602 
L 144.011011 69.166363 
L 149.647375 97.168775 
L 155.283739 74.929965 
L 160.920102 70.659153 
L 166.556466 49.990015 
L 172.19283 113.904495 
L 177.829193 113.111476 
L 183.465557 126.322308 
L 189.10192 116.192625 
L 194.738284 131.646903 
L 200.374648 143.168851 
L 206.011011 116.937233 
L 211.647375 131.903847 
L 217.283739 123.028399 
L 222.920102 67.898346 
L 228.556466 89.790458 
L 234.19283 104.335059 
L 239.829193 93.490479 
L 245.465557 120.564278 
L 251.10192 124.136092 
L 256.738284 125.816053 
L 262.374648 114.123017 
L 268.011011 102.424097 
L 273.647375 100.048592 
L 279.283739 94.728688 
L 284.920102 115.915357 
L 290.556466 139.64495 
L 296.19283 133.924967 
L 301.829193 141.477845 
L 307.465557 147.417841 
L 313.10192 157.861611 
L 318.738284 158.538012 
L 324.374648 160.731325 
L 330.011011 166.321092 
L 335.647375 168.242475 
L 341.283739 171.147291 
L 346.920102 180.803883 
L 352.556466 166.674367 
L 358.19283 206.252538 
L 363.829193 214.756364 
" style="fill:none;stroke:#721f81;stroke-linecap:square;stroke-width:2;"/>
   </g>
   <g id="line2d_14">
    <path clip-path="url(#ped53bc294a)" d="M 59.465557 97.289599 
L 65.10192 149.079708 
L 70.738284 166.459233 
L 76.374648 138.569813 
L 82.011011 162.439153 
L 87.647375 139.712438 
L 93.283739 153.914735 
L 98.920102 183.019892 
L 104.556466 181.636055 
L 110.19283 185.082023 
L 115.829193 176.864991 
L 121.465557 190.155644 
L 127.10192 32.72385 
L 132.738284 99.221773 
L 138.374648 112.78548 
L 144.011011 122.251393 
L 149.647375 84.082835 
L 155.283739 113.728385 
L 160.920102 82.285792 
L 166.556466 128.709635 
L 172.19283 142.814224 
L 177.829193 135.480783 
L 183.465557 144.719518 
L 189.10192 128.737733 
L 194.738284 128.022666 
L 200.374648 145.722828 
L 206.011011 102.986246 
L 211.647375 141.824761 
L 217.283739 154.482232 
L 222.920102 148.192826 
L 228.556466 144.763711 
L 234.19283 146.748421 
L 239.829193 156.552808 
L 245.465557 146.381671 
L 251.10192 121.387797 
L 256.738284 150.368483 
L 262.374648 146.635476 
L 268.011011 144.091743 
L 273.647375 101.743152 
L 279.283739 137.46653 
L 284.920102 133.032323 
L 290.556466 137.59004 
L 296.19283 140.29471 
L 301.829193 180.648027 
L 307.465557 198.099184 
L 313.10192 207.328847 
L 318.738284 195.068868 
L 324.374648 195.502807 
L 330.011011 210.008129 
L 335.647375 191.850913 
L 341.283739 206.124281 
L 346.920102 206.457759 
L 352.556466 208.870977 
L 358.19283 201.770751 
" style="fill:none;stroke:#f1605d;stroke-linecap:square;stroke-width:2;"/>
   </g>
   <g id="line2d_15"/>
   <g id="line2d_16"/>
   <g id="patch_3">
    <path d="M 44.247375 224.64 
L 44.247375 7.2 
" style="fill:none;stroke:#000000;stroke-linecap:square;stroke-linejoin:miter;"/>
   </g>
   <g id="patch_4">
    <path d="M 379.047375 224.64 
L 379.047375 7.2 
" style="fill:none;stroke:#000000;stroke-linecap:square;stroke-linejoin:miter;"/>
   </g>
   <g id="patch_5">
    <path d="M 44.247375 224.64 
L 379.047375 224.64 
" style="fill:none;stroke:#000000;stroke-linecap:square;stroke-linejoin:miter;"/>
   </g>
   <g id="patch_6">
    <path d="M 44.247375 7.2 
L 379.047375 7.2 
" style="fill:none;stroke:#000000;stroke-linecap:square;stroke-linejoin:miter;"/>
   </g>
   <g id="legend_1">
    <g id="patch_7">
     <path d="M 299.98625 40.0735 
L 372.887375 40.0735 
Q 374.647375 40.0735 374.647375 38.3135 
L 374.647375 13.36 
Q 374.647375 11.6 372.887375 11.6 
L 299.98625 11.6 
Q 298.22625 11.6 298.22625 13.36 
L 298.22625 38.3135 
Q 298.22625 40.0735 299.98625 40.0735 
z
" style="fill:#ffffff;opacity:0.8;stroke:#cccccc;stroke-linejoin:miter;stroke-width:0.8;"/>
    </g>
    <g id="line2d_17">
     <path d="M 301.74625 18.726625 
L 319.34625 18.726625 
" style="fill:none;stroke:#721f81;stroke-linecap:square;stroke-width:2;"/>
    </g>
    <g id="line2d_18"/>
    <g id="text_15">
     <!-- NoReward -->
     <g transform="translate(326.38625 21.806625)scale(0.088 -0.088)">
      <defs>
       <path d="M 628 4666 
L 1478 4666 
L 3547 763 
L 3547 4666 
L 4159 4666 
L 4159 0 
L 3309 0 
L 1241 3903 
L 1241 0 
L 628 0 
L 628 4666 
z
" id="DejaVuSans-4e" transform="scale(0.015625)"/>
       <path d="M 1959 3097 
Q 1497 3097 1228 2736 
Q 959 2375 959 1747 
Q 959 1119 1226 758 
Q 1494 397 1959 397 
Q 2419 397 2687 759 
Q 2956 1122 2956 1747 
Q 2956 2369 2687 2733 
Q 2419 3097 1959 3097 
z
M 1959 3584 
Q 2709 3584 3137 3096 
Q 3566 2609 3566 1747 
Q 3566 888 3137 398 
Q 2709 -91 1959 -91 
Q 1206 -91 779 398 
Q 353 888 353 1747 
Q 353 2609 779 3096 
Q 1206 3584 1959 3584 
z
" id="DejaVuSans-6f" transform="scale(0.015625)"/>
       <path d="M 2841 2188 
Q 3044 2119 3236 1894 
Q 3428 1669 3622 1275 
L 4263 0 
L 3584 0 
L 2988 1197 
Q 2756 1666 2539 1819 
Q 2322 1972 1947 1972 
L 1259 1972 
L 1259 0 
L 628 0 
L 628 4666 
L 2053 4666 
Q 2853 4666 3247 4331 
Q 3641 3997 3641 3322 
Q 3641 2881 3436 2590 
Q 3231 2300 2841 2188 
z
M 1259 4147 
L 1259 2491 
L 2053 2491 
Q 2509 2491 2742 2702 
Q 2975 2913 2975 3322 
Q 2975 3731 2742 3939 
Q 2509 4147 2053 4147 
L 1259 4147 
z
" id="DejaVuSans-52" transform="scale(0.015625)"/>
       <path d="M 269 3500 
L 844 3500 
L 1563 769 
L 2278 3500 
L 2956 3500 
L 3675 769 
L 4391 3500 
L 4966 3500 
L 4050 0 
L 3372 0 
L 2619 2869 
L 1863 0 
L 1184 0 
L 269 3500 
z
" id="DejaVuSans-77" transform="scale(0.015625)"/>
       <path d="M 2906 2969 
L 2906 4863 
L 3481 4863 
L 3481 0 
L 2906 0 
L 2906 525 
Q 2725 213 2448 61 
Q 2172 -91 1784 -91 
Q 1150 -91 751 415 
Q 353 922 353 1747 
Q 353 2572 751 3078 
Q 1150 3584 1784 3584 
Q 2172 3584 2448 3432 
Q 2725 3281 2906 2969 
z
M 947 1747 
Q 947 1113 1208 752 
Q 1469 391 1925 391 
Q 2381 391 2643 752 
Q 2906 1113 2906 1747 
Q 2906 2381 2643 2742 
Q 2381 3103 1925 3103 
Q 1469 3103 1208 2742 
Q 947 2381 947 1747 
z
" id="DejaVuSans-64" transform="scale(0.015625)"/>
      </defs>
      <use xlink:href="#DejaVuSans-4e"/>
      <use x="74.804688" xlink:href="#DejaVuSans-6f"/>
      <use x="135.986328" xlink:href="#DejaVuSans-52"/>
      <use x="200.96875" xlink:href="#DejaVuSans-65"/>
      <use x="262.492188" xlink:href="#DejaVuSans-77"/>
      <use x="344.279297" xlink:href="#DejaVuSans-61"/>
      <use x="405.558594" xlink:href="#DejaVuSans-72"/>
      <use x="444.921875" xlink:href="#DejaVuSans-64"/>
     </g>
    </g>
    <g id="line2d_19">
     <path d="M 301.74625 31.643375 
L 319.34625 31.643375 
" style="fill:none;stroke:#f1605d;stroke-linecap:square;stroke-width:2;"/>
    </g>
    <g id="line2d_20"/>
    <g id="text_16">
     <!-- Reward -->
     <g transform="translate(326.38625 34.723375)scale(0.088 -0.088)">
      <use xlink:href="#DejaVuSans-52"/>
      <use x="64.982422" xlink:href="#DejaVuSans-65"/>
      <use x="126.505859" xlink:href="#DejaVuSans-77"/>
      <use x="208.292969" xlink:href="#DejaVuSans-61"/>
      <use x="269.572266" xlink:href="#DejaVuSans-72"/>
      <use x="308.935547" xlink:href="#DejaVuSans-64"/>
     </g>
    </g>
   </g>
  </g>
 </g>
 <defs>
  <clipPath id="ped53bc294a">
   <rect height="217.44" width="334.8" x="44.247375" y="7.2"/>
  </clipPath>
 </defs>
</svg>
