<?xml version="1.0" encoding="utf-8" standalone="no"?>
<!DOCTYPE svg PUBLIC "-//W3C//DTD SVG 1.1//EN"
  "http://www.w3.org/Graphics/SVG/1.1/DTD/svg11.dtd">
<svg xmlns:xlink="http://www.w3.org/1999/xlink" width="386.247375pt" height="266.206125pt" viewBox="0 0 386.247375 266.206125" xmlns="http://www.w3.org/2000/svg" version="1.1">
 <metadata>
  <rdf:RDF xmlns:dc="http://purl.org/dc/elements/1.1/" xmlns:cc="http://creativecommons.org/ns#" xmlns:rdf="http://www.w3.org/1999/02/22-rdf-syntax-ns#">
   <cc:Work>
    <dc:type rdf:resource="http://purl.org/dc/dcmitype/StillImage"/>
    <dc:date>2022-04-30T21:24:27.755569</dc:date>
    <dc:format>image/svg+xml</dc:format>
    <dc:creator>
     <cc:Agent>
      <dc:title>Matplotlib v3.5.1, https://matplotlib.org/</dc:title>
     </cc:Agent>
    </dc:creator>
   </cc:Work>
  </rdf:RDF>
 </metadata>
 <defs>
  <style type="text/css">*{stroke-linejoin: round; stroke-linecap: butt}</style>
 </defs>
 <g id="figure_1">
  <g id="patch_1">
   <path d="M 0 266.206125 
L 386.247375 266.206125 
L 386.247375 0 
L 0 0 
L 0 266.206125 
z
" style="fill: none"/>
  </g>
  <g id="axes_1">
   <g id="patch_2">
    <path d="M 44.247375 224.64 
L 379.047375 224.64 
L 379.047375 7.2 
L 44.247375 7.2 
z
" style="fill: #ffffff"/>
   </g>
   <g id="PolyCollection_1">
    <defs>
     <path id="m91a0bd277b" d="M 59.465557 -163.039915 
L 59.465557 -140.703508 
L 65.10192 -111.026963 
L 70.738284 -120.192666 
L 76.374648 -102.652554 
L 82.011011 -95.512595 
L 87.647375 -99.627382 
L 93.283739 -97.115517 
L 98.920102 -103.124826 
L 104.556466 -102.086703 
L 110.19283 -107.983552 
L 115.829193 -106.424017 
L 121.465557 -106.362914 
L 127.10192 -196.941472 
L 132.738284 -157.797661 
L 138.374648 -185.53092 
L 144.011011 -167.756018 
L 149.647375 -156.676355 
L 155.283739 -167.627804 
L 160.920102 -168.15191 
L 166.556466 -173.543047 
L 172.19283 -143.467467 
L 177.829193 -143.096444 
L 183.465557 -125.06583 
L 189.10192 -138.088055 
L 194.738284 -127.023203 
L 200.374648 -118.232132 
L 206.011011 -136.728808 
L 211.647375 -124.876476 
L 217.283739 -125.516801 
L 222.920102 -169.97431 
L 228.556466 -156.727699 
L 234.19283 -143.190111 
L 239.829193 -148.366486 
L 245.465557 -134.084456 
L 251.10192 -127.972262 
L 256.738284 -131.050845 
L 262.374648 -129.377697 
L 268.011011 -138.383241 
L 273.647375 -144.275304 
L 279.283739 -145.917761 
L 284.920102 -137.055026 
L 290.556466 -115.537684 
L 296.19283 -113.737076 
L 301.829193 -104.516129 
L 307.465557 -101.975848 
L 313.10192 -83.641921 
L 318.738284 -86.604935 
L 324.374648 -87.118218 
L 330.011011 -85.148731 
L 335.647375 -81.637882 
L 341.283739 -81.246999 
L 346.920102 -70.475493 
L 352.556466 -87.96887 
L 358.19283 -69.72541 
L 363.829193 -51.449761 
L 363.829193 -90.799158 
L 363.829193 -90.799158 
L 358.19283 -87.091771 
L 352.556466 -136.101259 
L 346.920102 -129.575039 
L 341.283739 -136.691506 
L 335.647375 -140.900129 
L 330.011011 -140.153424 
L 324.374648 -147.094871 
L 318.738284 -151.209909 
L 313.10192 -155.841327 
L 307.465557 -154.883182 
L 301.829193 -163.886748 
L 296.19283 -164.325767 
L 290.556466 -154.600705 
L 284.920102 -173.873296 
L 279.283739 -202.955874 
L 273.647375 -192.988573 
L 268.011011 -194.57515 
L 262.374648 -186.142732 
L 256.738284 -160.902022 
L 251.10192 -170.82387 
L 245.465557 -169.86308 
L 239.829193 -199.645706 
L 234.19283 -189.901321 
L 228.556466 -197.674645 
L 222.920102 -221.827592 
L 217.283739 -174.657633 
L 211.647375 -159.630342 
L 206.011011 -173.413354 
L 200.374648 -147.624758 
L 194.738284 -159.933707 
L 189.10192 -172.485661 
L 183.465557 -168.465105 
L 177.829193 -172.244788 
L 172.19283 -172.668482 
L 166.556466 -248.233581 
L 160.920102 -222.449124 
L 155.283739 -212.17378 
L 149.647375 -188.049395 
L 144.011011 -225.329894 
L 138.374648 -232.358339 
L 132.738284 -191.608986 
L 127.10192 -228.10952 
L 121.465557 -145.633068 
L 115.829193 -147.236921 
L 110.19283 -142.013814 
L 104.556466 -134.490013 
L 98.920102 -130.187287 
L 93.283739 -109.685109 
L 87.647375 -117.603267 
L 82.011011 -104.071385 
L 76.374648 -126.044226 
L 70.738284 -135.278488 
L 65.10192 -128.783733 
L 59.465557 -163.039915 
z
" style="stroke: #721f81; stroke-opacity: 0.2; stroke-width: 0.8"/>
    </defs>
    <g clip-path="url(#p17cf39bc74)">
     <use xlink:href="#m91a0bd277b" x="0" y="266.206125" style="fill: #721f81; fill-opacity: 0.2; stroke: #721f81; stroke-opacity: 0.2; stroke-width: 0.8"/>
    </g>
   </g>
   <g id="PolyCollection_2">
    <defs>
     <path id="m2e83a7c15f" d="M 59.465557 -186.411064 
L 59.465557 -159.803112 
L 65.10192 -119.434619 
L 70.738284 -102.18768 
L 76.374648 -120.135007 
L 82.011011 -105.400598 
L 87.647375 -115.507123 
L 93.283739 -101.817935 
L 98.920102 -90.415369 
L 104.556466 -91.028265 
L 110.19283 -87.334279 
L 115.829193 -87.524933 
L 121.465557 -85.927686 
L 127.10192 -205.411729 
L 132.738284 -153.076118 
L 138.374648 -143.756142 
L 144.011011 -137.211478 
L 149.647375 -157.020656 
L 155.283739 -129.623116 
L 160.920102 -152.343857 
L 166.556466 -131.435358 
L 172.19283 -117.268865 
L 177.829193 -124.438945 
L 183.465557 -117.827153 
L 189.10192 -130.836633 
L 194.738284 -130.803309 
L 200.374648 -112.730581 
L 206.011011 -120.939864 
L 211.647375 -117.33011 
L 217.283739 -107.595777 
L 222.920102 -111.092421 
L 228.556466 -113.202362 
L 234.19283 -114.523843 
L 239.829193 -108.554757 
L 245.465557 -114.634127 
L 251.10192 -132.602264 
L 256.738284 -101.662787 
L 262.374648 -116.13024 
L 268.011011 -118.916898 
L 273.647375 -126.709536 
L 279.283739 -121.7205 
L 284.920102 -124.626524 
L 290.556466 -107.787213 
L 296.19283 -114.139508 
L 301.829193 -90.572767 
L 307.465557 -79.801794 
L 313.10192 -71.27473 
L 318.738284 -78.499196 
L 324.374648 -78.362889 
L 330.011011 -69.935916 
L 335.647375 -82.119545 
L 341.283739 -72.182717 
L 346.920102 -72.16881 
L 352.556466 -70.066482 
L 358.19283 -72.798316 
L 358.19283 -92.018963 
L 358.19283 -92.018963 
L 352.556466 -83.074915 
L 346.920102 -84.385987 
L 341.283739 -84.58287 
L 335.647375 -99.866493 
L 330.011011 -80.741929 
L 324.374648 -96.358758 
L 318.738284 -97.3176 
L 313.10192 -83.999214 
L 307.465557 -90.746343 
L 301.829193 -111.025537 
L 296.19283 -153.594196 
L 290.556466 -164.926055 
L 284.920102 -156.520306 
L 279.283739 -153.715135 
L 273.647375 -209.96369 
L 268.011011 -144.49626 
L 262.374648 -142.291492 
L 256.738284 -153.191322 
L 251.10192 -167.73086 
L 245.465557 -145.645607 
L 239.829193 -134.963755 
L 234.19283 -143.680096 
L 228.556466 -148.701471 
L 222.920102 -146.096369 
L 217.283739 -138.202878 
L 211.647375 -149.258412 
L 206.011011 -213.406321 
L 200.374648 -147.048224 
L 194.738284 -160.277553 
L 189.10192 -160.955733 
L 183.465557 -143.308583 
L 177.829193 -154.887597 
L 172.19283 -146.405522 
L 166.556466 -157.20615 
L 160.920102 -216.994178 
L 155.283739 -185.734697 
L 149.647375 -210.667635 
L 144.011011 -164.410278 
L 138.374648 -173.082908 
L 132.738284 -186.790658 
L 127.10192 -249.122489 
L 121.465557 -97.868496 
L 115.829193 -120.079024 
L 110.19283 -105.607692 
L 104.556466 -107.560803 
L 98.920102 -106.010629 
L 93.283739 -142.181655 
L 87.647375 -155.320462 
L 82.011011 -126.998997 
L 76.374648 -152.644483 
L 70.738284 -120.719996 
L 65.10192 -135.616504 
L 59.465557 -186.411064 
z
" style="stroke: #f1605d; stroke-opacity: 0.2; stroke-width: 0.8"/>
    </defs>
    <g clip-path="url(#p17cf39bc74)">
     <use xlink:href="#m2e83a7c15f" x="0" y="266.206125" style="fill: #f1605d; fill-opacity: 0.2; stroke: #f1605d; stroke-opacity: 0.2; stroke-width: 0.8"/>
    </g>
   </g>
   <g id="matplotlib.axis_1">
    <g id="xtick_1">
     <g id="line2d_1">
      <defs>
       <path id="mab0f2b1d5c" d="M 0 0 
L 0 4.8 
" style="stroke: #000000"/>
      </defs>
      <g>
       <use xlink:href="#mab0f2b1d5c" x="59.465557" y="224.64" style="stroke: #000000"/>
      </g>
     </g>
     <g id="text_1">
      <!-- 0 -->
      <g transform="translate(56.666057 239.626625)scale(0.088 -0.088)">
       <defs>
        <path id="DejaVuSans-30" d="M 2034 4250 
Q 1547 4250 1301 3770 
Q 1056 3291 1056 2328 
Q 1056 1369 1301 889 
Q 1547 409 2034 409 
Q 2525 409 2770 889 
Q 3016 1369 3016 2328 
Q 3016 3291 2770 3770 
Q 2525 4250 2034 4250 
z
M 2034 4750 
Q 2819 4750 3233 4129 
Q 3647 3509 3647 2328 
Q 3647 1150 3233 529 
Q 2819 -91 2034 -91 
Q 1250 -91 836 529 
Q 422 1150 422 2328 
Q 422 3509 836 4129 
Q 1250 4750 2034 4750 
z
" transform="scale(0.015625)"/>
       </defs>
       <use xlink:href="#DejaVuSans-30"/>
      </g>
     </g>
    </g>
    <g id="xtick_2">
     <g id="line2d_2">
      <g>
       <use xlink:href="#mab0f2b1d5c" x="115.829193" y="224.64" style="stroke: #000000"/>
      </g>
     </g>
     <g id="text_2">
      <!-- 10 -->
      <g transform="translate(110.230193 239.626625)scale(0.088 -0.088)">
       <defs>
        <path id="DejaVuSans-31" d="M 794 531 
L 1825 531 
L 1825 4091 
L 703 3866 
L 703 4441 
L 1819 4666 
L 2450 4666 
L 2450 531 
L 3481 531 
L 3481 0 
L 794 0 
L 794 531 
z
" transform="scale(0.015625)"/>
       </defs>
       <use xlink:href="#DejaVuSans-31"/>
       <use xlink:href="#DejaVuSans-30" x="63.623047"/>
      </g>
     </g>
    </g>
    <g id="xtick_3">
     <g id="line2d_3">
      <g>
       <use xlink:href="#mab0f2b1d5c" x="172.19283" y="224.64" style="stroke: #000000"/>
      </g>
     </g>
     <g id="text_3">
      <!-- 20 -->
      <g transform="translate(166.59383 239.626625)scale(0.088 -0.088)">
       <defs>
        <path id="DejaVuSans-32" d="M 1228 531 
L 3431 531 
L 3431 0 
L 469 0 
L 469 531 
Q 828 903 1448 1529 
Q 2069 2156 2228 2338 
Q 2531 2678 2651 2914 
Q 2772 3150 2772 3378 
Q 2772 3750 2511 3984 
Q 2250 4219 1831 4219 
Q 1534 4219 1204 4116 
Q 875 4013 500 3803 
L 500 4441 
Q 881 4594 1212 4672 
Q 1544 4750 1819 4750 
Q 2544 4750 2975 4387 
Q 3406 4025 3406 3419 
Q 3406 3131 3298 2873 
Q 3191 2616 2906 2266 
Q 2828 2175 2409 1742 
Q 1991 1309 1228 531 
z
" transform="scale(0.015625)"/>
       </defs>
       <use xlink:href="#DejaVuSans-32"/>
       <use xlink:href="#DejaVuSans-30" x="63.623047"/>
      </g>
     </g>
    </g>
    <g id="xtick_4">
     <g id="line2d_4">
      <g>
       <use xlink:href="#mab0f2b1d5c" x="228.556466" y="224.64" style="stroke: #000000"/>
      </g>
     </g>
     <g id="text_4">
      <!-- 30 -->
      <g transform="translate(222.957466 239.626625)scale(0.088 -0.088)">
       <defs>
        <path id="DejaVuSans-33" d="M 2597 2516 
Q 3050 2419 3304 2112 
Q 3559 1806 3559 1356 
Q 3559 666 3084 287 
Q 2609 -91 1734 -91 
Q 1441 -91 1130 -33 
Q 819 25 488 141 
L 488 750 
Q 750 597 1062 519 
Q 1375 441 1716 441 
Q 2309 441 2620 675 
Q 2931 909 2931 1356 
Q 2931 1769 2642 2001 
Q 2353 2234 1838 2234 
L 1294 2234 
L 1294 2753 
L 1863 2753 
Q 2328 2753 2575 2939 
Q 2822 3125 2822 3475 
Q 2822 3834 2567 4026 
Q 2313 4219 1838 4219 
Q 1578 4219 1281 4162 
Q 984 4106 628 3988 
L 628 4550 
Q 988 4650 1302 4700 
Q 1616 4750 1894 4750 
Q 2613 4750 3031 4423 
Q 3450 4097 3450 3541 
Q 3450 3153 3228 2886 
Q 3006 2619 2597 2516 
z
" transform="scale(0.015625)"/>
       </defs>
       <use xlink:href="#DejaVuSans-33"/>
       <use xlink:href="#DejaVuSans-30" x="63.623047"/>
      </g>
     </g>
    </g>
    <g id="xtick_5">
     <g id="line2d_5">
      <g>
       <use xlink:href="#mab0f2b1d5c" x="284.920102" y="224.64" style="stroke: #000000"/>
      </g>
     </g>
     <g id="text_5">
      <!-- 40 -->
      <g transform="translate(279.321102 239.626625)scale(0.088 -0.088)">
       <defs>
        <path id="DejaVuSans-34" d="M 2419 4116 
L 825 1625 
L 2419 1625 
L 2419 4116 
z
M 2253 4666 
L 3047 4666 
L 3047 1625 
L 3713 1625 
L 3713 1100 
L 3047 1100 
L 3047 0 
L 2419 0 
L 2419 1100 
L 313 1100 
L 313 1709 
L 2253 4666 
z
" transform="scale(0.015625)"/>
       </defs>
       <use xlink:href="#DejaVuSans-34"/>
       <use xlink:href="#DejaVuSans-30" x="63.623047"/>
      </g>
     </g>
    </g>
    <g id="xtick_6">
     <g id="line2d_6">
      <g>
       <use xlink:href="#mab0f2b1d5c" x="341.283739" y="224.64" style="stroke: #000000"/>
      </g>
     </g>
     <g id="text_6">
      <!-- 50 -->
      <g transform="translate(335.684739 239.626625)scale(0.088 -0.088)">
       <defs>
        <path id="DejaVuSans-35" d="M 691 4666 
L 3169 4666 
L 3169 4134 
L 1269 4134 
L 1269 2991 
Q 1406 3038 1543 3061 
Q 1681 3084 1819 3084 
Q 2600 3084 3056 2656 
Q 3513 2228 3513 1497 
Q 3513 744 3044 326 
Q 2575 -91 1722 -91 
Q 1428 -91 1123 -41 
Q 819 9 494 109 
L 494 744 
Q 775 591 1075 516 
Q 1375 441 1709 441 
Q 2250 441 2565 725 
Q 2881 1009 2881 1497 
Q 2881 1984 2565 2268 
Q 2250 2553 1709 2553 
Q 1456 2553 1204 2497 
Q 953 2441 691 2322 
L 691 4666 
z
" transform="scale(0.015625)"/>
       </defs>
       <use xlink:href="#DejaVuSans-35"/>
       <use xlink:href="#DejaVuSans-30" x="63.623047"/>
      </g>
     </g>
    </g>
    <g id="text_7">
     <!-- Trial -->
     <g transform="translate(197.347687 256.094562)scale(0.14 -0.14)">
      <defs>
       <path id="DejaVuSans-54" d="M -19 4666 
L 3928 4666 
L 3928 4134 
L 2272 4134 
L 2272 0 
L 1638 0 
L 1638 4134 
L -19 4134 
L -19 4666 
z
" transform="scale(0.015625)"/>
       <path id="DejaVuSans-72" d="M 2631 2963 
Q 2534 3019 2420 3045 
Q 2306 3072 2169 3072 
Q 1681 3072 1420 2755 
Q 1159 2438 1159 1844 
L 1159 0 
L 581 0 
L 581 3500 
L 1159 3500 
L 1159 2956 
Q 1341 3275 1631 3429 
Q 1922 3584 2338 3584 
Q 2397 3584 2469 3576 
Q 2541 3569 2628 3553 
L 2631 2963 
z
" transform="scale(0.015625)"/>
       <path id="DejaVuSans-69" d="M 603 3500 
L 1178 3500 
L 1178 0 
L 603 0 
L 603 3500 
z
M 603 4863 
L 1178 4863 
L 1178 4134 
L 603 4134 
L 603 4863 
z
" transform="scale(0.015625)"/>
       <path id="DejaVuSans-61" d="M 2194 1759 
Q 1497 1759 1228 1600 
Q 959 1441 959 1056 
Q 959 750 1161 570 
Q 1363 391 1709 391 
Q 2188 391 2477 730 
Q 2766 1069 2766 1631 
L 2766 1759 
L 2194 1759 
z
M 3341 1997 
L 3341 0 
L 2766 0 
L 2766 531 
Q 2569 213 2275 61 
Q 1981 -91 1556 -91 
Q 1019 -91 701 211 
Q 384 513 384 1019 
Q 384 1609 779 1909 
Q 1175 2209 1959 2209 
L 2766 2209 
L 2766 2266 
Q 2766 2663 2505 2880 
Q 2244 3097 1772 3097 
Q 1472 3097 1187 3025 
Q 903 2953 641 2809 
L 641 3341 
Q 956 3463 1253 3523 
Q 1550 3584 1831 3584 
Q 2591 3584 2966 3190 
Q 3341 2797 3341 1997 
z
" transform="scale(0.015625)"/>
       <path id="DejaVuSans-6c" d="M 603 4863 
L 1178 4863 
L 1178 0 
L 603 0 
L 603 4863 
z
" transform="scale(0.015625)"/>
      </defs>
      <use xlink:href="#DejaVuSans-54"/>
      <use xlink:href="#DejaVuSans-72" x="46.333984"/>
      <use xlink:href="#DejaVuSans-69" x="87.447266"/>
      <use xlink:href="#DejaVuSans-61" x="115.230469"/>
      <use xlink:href="#DejaVuSans-6c" x="176.509766"/>
     </g>
    </g>
   </g>
   <g id="matplotlib.axis_2">
    <g id="ytick_1">
     <g id="line2d_7">
      <defs>
       <path id="mb7810b13a1" d="M 0 0 
L -4.8 0 
" style="stroke: #000000"/>
      </defs>
      <g>
       <use xlink:href="#mb7810b13a1" x="44.247375" y="211.977626" style="stroke: #000000"/>
      </g>
     </g>
     <g id="text_8">
      <!-- 10 -->
      <g transform="translate(24.749375 215.320939)scale(0.088 -0.088)">
       <use xlink:href="#DejaVuSans-31"/>
       <use xlink:href="#DejaVuSans-30" x="63.623047"/>
      </g>
     </g>
    </g>
    <g id="ytick_2">
     <g id="line2d_8">
      <g>
       <use xlink:href="#mb7810b13a1" x="44.247375" y="180.198579" style="stroke: #000000"/>
      </g>
     </g>
     <g id="text_9">
      <!-- 15 -->
      <g transform="translate(24.749375 183.541891)scale(0.088 -0.088)">
       <use xlink:href="#DejaVuSans-31"/>
       <use xlink:href="#DejaVuSans-35" x="63.623047"/>
      </g>
     </g>
    </g>
    <g id="ytick_3">
     <g id="line2d_9">
      <g>
       <use xlink:href="#mb7810b13a1" x="44.247375" y="148.419531" style="stroke: #000000"/>
      </g>
     </g>
     <g id="text_10">
      <!-- 20 -->
      <g transform="translate(24.749375 151.762844)scale(0.088 -0.088)">
       <use xlink:href="#DejaVuSans-32"/>
       <use xlink:href="#DejaVuSans-30" x="63.623047"/>
      </g>
     </g>
    </g>
    <g id="ytick_4">
     <g id="line2d_10">
      <g>
       <use xlink:href="#mb7810b13a1" x="44.247375" y="116.640484" style="stroke: #000000"/>
      </g>
     </g>
     <g id="text_11">
      <!-- 25 -->
      <g transform="translate(24.749375 119.983796)scale(0.088 -0.088)">
       <use xlink:href="#DejaVuSans-32"/>
       <use xlink:href="#DejaVuSans-35" x="63.623047"/>
      </g>
     </g>
    </g>
    <g id="ytick_5">
     <g id="line2d_11">
      <g>
       <use xlink:href="#mb7810b13a1" x="44.247375" y="84.861436" style="stroke: #000000"/>
      </g>
     </g>
     <g id="text_12">
      <!-- 30 -->
      <g transform="translate(24.749375 88.204749)scale(0.088 -0.088)">
       <use xlink:href="#DejaVuSans-33"/>
       <use xlink:href="#DejaVuSans-30" x="63.623047"/>
      </g>
     </g>
    </g>
    <g id="ytick_6">
     <g id="line2d_12">
      <g>
       <use xlink:href="#mb7810b13a1" x="44.247375" y="53.082389" style="stroke: #000000"/>
      </g>
     </g>
     <g id="text_13">
      <!-- 35 -->
      <g transform="translate(24.749375 56.425701)scale(0.088 -0.088)">
       <use xlink:href="#DejaVuSans-33"/>
       <use xlink:href="#DejaVuSans-35" x="63.623047"/>
      </g>
     </g>
    </g>
    <g id="ytick_7">
     <g id="line2d_13">
      <g>
       <use xlink:href="#mb7810b13a1" x="44.247375" y="21.303341" style="stroke: #000000"/>
      </g>
     </g>
     <g id="text_14">
      <!-- 40 -->
      <g transform="translate(24.749375 24.646654)scale(0.088 -0.088)">
       <use xlink:href="#DejaVuSans-34"/>
       <use xlink:href="#DejaVuSans-30" x="63.623047"/>
      </g>
     </g>
    </g>
    <g id="text_15">
     <!-- MAE (Degrees) -->
     <g transform="translate(17.837813 167.980312)rotate(-90)scale(0.14 -0.14)">
      <defs>
       <path id="DejaVuSans-4d" d="M 628 4666 
L 1569 4666 
L 2759 1491 
L 3956 4666 
L 4897 4666 
L 4897 0 
L 4281 0 
L 4281 4097 
L 3078 897 
L 2444 897 
L 1241 4097 
L 1241 0 
L 628 0 
L 628 4666 
z
" transform="scale(0.015625)"/>
       <path id="DejaVuSans-41" d="M 2188 4044 
L 1331 1722 
L 3047 1722 
L 2188 4044 
z
M 1831 4666 
L 2547 4666 
L 4325 0 
L 3669 0 
L 3244 1197 
L 1141 1197 
L 716 0 
L 50 0 
L 1831 4666 
z
" transform="scale(0.015625)"/>
       <path id="DejaVuSans-45" d="M 628 4666 
L 3578 4666 
L 3578 4134 
L 1259 4134 
L 1259 2753 
L 3481 2753 
L 3481 2222 
L 1259 2222 
L 1259 531 
L 3634 531 
L 3634 0 
L 628 0 
L 628 4666 
z
" transform="scale(0.015625)"/>
       <path id="DejaVuSans-20" transform="scale(0.015625)"/>
       <path id="DejaVuSans-28" d="M 1984 4856 
Q 1566 4138 1362 3434 
Q 1159 2731 1159 2009 
Q 1159 1288 1364 580 
Q 1569 -128 1984 -844 
L 1484 -844 
Q 1016 -109 783 600 
Q 550 1309 550 2009 
Q 550 2706 781 3412 
Q 1013 4119 1484 4856 
L 1984 4856 
z
" transform="scale(0.015625)"/>
       <path id="DejaVuSans-44" d="M 1259 4147 
L 1259 519 
L 2022 519 
Q 2988 519 3436 956 
Q 3884 1394 3884 2338 
Q 3884 3275 3436 3711 
Q 2988 4147 2022 4147 
L 1259 4147 
z
M 628 4666 
L 1925 4666 
Q 3281 4666 3915 4102 
Q 4550 3538 4550 2338 
Q 4550 1131 3912 565 
Q 3275 0 1925 0 
L 628 0 
L 628 4666 
z
" transform="scale(0.015625)"/>
       <path id="DejaVuSans-65" d="M 3597 1894 
L 3597 1613 
L 953 1613 
Q 991 1019 1311 708 
Q 1631 397 2203 397 
Q 2534 397 2845 478 
Q 3156 559 3463 722 
L 3463 178 
Q 3153 47 2828 -22 
Q 2503 -91 2169 -91 
Q 1331 -91 842 396 
Q 353 884 353 1716 
Q 353 2575 817 3079 
Q 1281 3584 2069 3584 
Q 2775 3584 3186 3129 
Q 3597 2675 3597 1894 
z
M 3022 2063 
Q 3016 2534 2758 2815 
Q 2500 3097 2075 3097 
Q 1594 3097 1305 2825 
Q 1016 2553 972 2059 
L 3022 2063 
z
" transform="scale(0.015625)"/>
       <path id="DejaVuSans-67" d="M 2906 1791 
Q 2906 2416 2648 2759 
Q 2391 3103 1925 3103 
Q 1463 3103 1205 2759 
Q 947 2416 947 1791 
Q 947 1169 1205 825 
Q 1463 481 1925 481 
Q 2391 481 2648 825 
Q 2906 1169 2906 1791 
z
M 3481 434 
Q 3481 -459 3084 -895 
Q 2688 -1331 1869 -1331 
Q 1566 -1331 1297 -1286 
Q 1028 -1241 775 -1147 
L 775 -588 
Q 1028 -725 1275 -790 
Q 1522 -856 1778 -856 
Q 2344 -856 2625 -561 
Q 2906 -266 2906 331 
L 2906 616 
Q 2728 306 2450 153 
Q 2172 0 1784 0 
Q 1141 0 747 490 
Q 353 981 353 1791 
Q 353 2603 747 3093 
Q 1141 3584 1784 3584 
Q 2172 3584 2450 3431 
Q 2728 3278 2906 2969 
L 2906 3500 
L 3481 3500 
L 3481 434 
z
" transform="scale(0.015625)"/>
       <path id="DejaVuSans-73" d="M 2834 3397 
L 2834 2853 
Q 2591 2978 2328 3040 
Q 2066 3103 1784 3103 
Q 1356 3103 1142 2972 
Q 928 2841 928 2578 
Q 928 2378 1081 2264 
Q 1234 2150 1697 2047 
L 1894 2003 
Q 2506 1872 2764 1633 
Q 3022 1394 3022 966 
Q 3022 478 2636 193 
Q 2250 -91 1575 -91 
Q 1294 -91 989 -36 
Q 684 19 347 128 
L 347 722 
Q 666 556 975 473 
Q 1284 391 1588 391 
Q 1994 391 2212 530 
Q 2431 669 2431 922 
Q 2431 1156 2273 1281 
Q 2116 1406 1581 1522 
L 1381 1569 
Q 847 1681 609 1914 
Q 372 2147 372 2553 
Q 372 3047 722 3315 
Q 1072 3584 1716 3584 
Q 2034 3584 2315 3537 
Q 2597 3491 2834 3397 
z
" transform="scale(0.015625)"/>
       <path id="DejaVuSans-29" d="M 513 4856 
L 1013 4856 
Q 1481 4119 1714 3412 
Q 1947 2706 1947 2009 
Q 1947 1309 1714 600 
Q 1481 -109 1013 -844 
L 513 -844 
Q 928 -128 1133 580 
Q 1338 1288 1338 2009 
Q 1338 2731 1133 3434 
Q 928 4138 513 4856 
z
" transform="scale(0.015625)"/>
      </defs>
      <use xlink:href="#DejaVuSans-4d"/>
      <use xlink:href="#DejaVuSans-41" x="86.279297"/>
      <use xlink:href="#DejaVuSans-45" x="154.6875"/>
      <use xlink:href="#DejaVuSans-20" x="217.871094"/>
      <use xlink:href="#DejaVuSans-28" x="249.658203"/>
      <use xlink:href="#DejaVuSans-44" x="288.671875"/>
      <use xlink:href="#DejaVuSans-65" x="365.673828"/>
      <use xlink:href="#DejaVuSans-67" x="427.197266"/>
      <use xlink:href="#DejaVuSans-72" x="490.673828"/>
      <use xlink:href="#DejaVuSans-65" x="529.537109"/>
      <use xlink:href="#DejaVuSans-65" x="591.060547"/>
      <use xlink:href="#DejaVuSans-73" x="652.583984"/>
      <use xlink:href="#DejaVuSans-29" x="704.683594"/>
     </g>
    </g>
   </g>
   <g id="line2d_14">
    <path d="M 59.465557 114.706954 
L 65.10192 146.277338 
L 70.738284 138.545835 
L 76.374648 151.522109 
L 82.011011 166.500518 
L 87.647375 157.610725 
L 93.283739 162.655569 
L 98.920102 148.75979 
L 104.556466 148.249547 
L 110.19283 140.68535 
L 115.829193 139.298077 
L 121.465557 139.926449 
L 127.10192 53.74678 
L 132.738284 91.704169 
L 138.374648 57.227886 
L 144.011011 70.373477 
L 149.647375 94.359534 
L 155.283739 75.310412 
L 160.920102 71.652158 
L 166.556466 53.947572 
L 172.19283 108.694868 
L 177.829193 108.015591 
L 183.465557 119.331609 
L 189.10192 110.654815 
L 194.738284 123.892503 
L 200.374648 133.76187 
L 206.011011 111.292624 
L 211.647375 124.112593 
L 217.283739 116.510141 
L 222.920102 69.287331 
L 228.556466 88.039481 
L 234.19283 100.497966 
L 239.829193 91.208813 
L 245.465557 114.399446 
L 251.10192 117.458959 
L 256.738284 118.897965 
L 262.374648 108.882048 
L 268.011011 98.861092 
L 273.647375 96.826302 
L 279.283739 92.269426 
L 284.920102 110.417315 
L 290.556466 130.743399 
L 296.19283 125.843826 
L 301.829193 132.313404 
L 307.465557 137.401433 
L 313.10192 146.347264 
L 318.738284 146.92665 
L 324.374648 148.805378 
L 330.011011 153.593411 
L 335.647375 155.239212 
L 341.283739 157.727394 
L 346.920102 165.998951 
L 352.556466 153.896016 
L 358.19283 187.797534 
L 363.829193 195.081665 
" clip-path="url(#p17cf39bc74)" style="fill: none; stroke: #721f81; stroke-width: 2; stroke-linecap: square"/>
   </g>
   <g id="line2d_15">
    <path d="M 59.465557 94.463029 
L 65.10192 138.82494 
L 70.738284 153.711739 
L 76.374648 129.822467 
L 82.011011 150.268255 
L 87.647375 130.801207 
L 93.283739 142.966484 
L 98.920102 167.897121 
L 104.556466 166.711766 
L 110.19283 169.663483 
L 115.829193 162.62501 
L 121.465557 174.0094 
L 127.10192 39.157873 
L 132.738284 96.118074 
L 138.374648 107.736353 
L 144.011011 115.84458 
L 149.647375 83.150496 
L 155.283739 108.544018 
L 160.920102 81.611201 
L 166.556466 121.376524 
L 172.19283 133.458107 
L 177.829193 127.176493 
L 183.465557 135.090127 
L 189.10192 121.400592 
L 194.738284 120.788086 
L 200.374648 135.949533 
L 206.011011 99.342612 
L 211.647375 132.610562 
L 217.283739 143.452586 
L 222.920102 138.065262 
L 228.556466 135.127981 
L 234.19283 136.828027 
L 239.829193 145.226181 
L 245.465557 136.513879 
L 251.10192 115.104849 
L 256.738284 139.928867 
L 262.374648 136.731281 
L 268.011011 134.552393 
L 273.647375 98.277813 
L 279.283739 128.877427 
L 284.920102 125.079213 
L 290.556466 128.983222 
L 296.19283 131.299964 
L 301.829193 165.86545 
L 307.465557 180.813607 
L 313.10192 188.71947 
L 318.738284 178.217925 
L 324.374648 178.589625 
L 330.011011 191.014464 
L 335.647375 175.461518 
L 341.283739 187.687673 
L 346.920102 187.97332 
L 352.556466 190.040414 
L 358.19283 183.958565 
" clip-path="url(#p17cf39bc74)" style="fill: none; stroke: #f1605d; stroke-width: 2; stroke-linecap: square"/>
   </g>
   <g id="line2d_16"/>
   <g id="line2d_17"/>
   <g id="patch_3">
    <path d="M 44.247375 224.64 
L 44.247375 7.2 
" style="fill: none; stroke: #000000; stroke-linejoin: miter; stroke-linecap: square"/>
   </g>
   <g id="patch_4">
    <path d="M 379.047375 224.64 
L 379.047375 7.2 
" style="fill: none; stroke: #000000; stroke-linejoin: miter; stroke-linecap: square"/>
   </g>
   <g id="patch_5">
    <path d="M 44.247375 224.64 
L 379.047375 224.64 
" style="fill: none; stroke: #000000; stroke-linejoin: miter; stroke-linecap: square"/>
   </g>
   <g id="patch_6">
    <path d="M 44.247375 7.2 
L 379.047375 7.2 
" style="fill: none; stroke: #000000; stroke-linejoin: miter; stroke-linecap: square"/>
   </g>
   <g id="legend_1">
    <g id="patch_7">
     <path d="M 369.367375 18.64 
L 372.887375 18.64 
Q 374.647375 18.64 374.647375 16.88 
L 374.647375 13.36 
Q 374.647375 11.6 372.887375 11.6 
L 369.367375 11.6 
Q 367.607375 11.6 367.607375 13.36 
L 367.607375 16.88 
Q 367.607375 18.64 369.367375 18.64 
z
" style="fill: #ffffff; opacity: 0.8; stroke: #cccccc; stroke-width: 0.8; stroke-linejoin: miter"/>
    </g>
   </g>
  </g>
 </g>
 <defs>
  <clipPath id="p17cf39bc74">
   <rect x="44.247375" y="7.2" width="334.8" height="217.44"/>
  </clipPath>
 </defs>
</svg>
