<?xml version="1.0" encoding="utf-8" standalone="no"?>
<!DOCTYPE svg PUBLIC "-//W3C//DTD SVG 1.1//EN"
  "http://www.w3.org/Graphics/SVG/1.1/DTD/svg11.dtd">
<svg height="691.085693pt" version="1.1" viewBox="0 0 940.146875 691.085693" width="940.146875pt" xmlns="http://www.w3.org/2000/svg" xmlns:xlink="http://www.w3.org/1999/xlink">
 <metadata>
  <rdf:RDF xmlns:cc="http://creativecommons.org/ns#" xmlns:dc="http://purl.org/dc/elements/1.1/" xmlns:rdf="http://www.w3.org/1999/02/22-rdf-syntax-ns#">
   <cc:Work>
    <dc:type rdf:resource="http://purl.org/dc/dcmitype/StillImage"/>
    <dc:date>2022-04-29T16:40:51.739235</dc:date>
    <dc:format>image/svg+xml</dc:format>
    <dc:creator>
     <cc:Agent>
      <dc:title>Matplotlib v3.4.3, https://matplotlib.org/</dc:title>
     </cc:Agent>
    </dc:creator>
   </cc:Work>
  </rdf:RDF>
 </metadata>
 <defs>
  <style type="text/css">*{stroke-linecap:butt;stroke-linejoin:round;}</style>
 </defs>
 <g id="figure_1">
  <g id="patch_1">
   <path d="M -0 691.085693 
L 940.146875 691.085693 
L 940.146875 0 
L -0 0 
z
" style="fill:none;"/>
  </g>
  <g id="axes_1">
   <g id="patch_2">
    <path d="M 57.94375 637.712256 
L 894.94375 637.712256 
L 894.94375 94.112256 
L 57.94375 94.112256 
z
" style="fill:#ffffff;"/>
   </g>
   <g id="PolyCollection_1">
    <defs>
     <path d="M 328.867674 -93.514916 
L 205.519826 -93.514916 
L 199.464854 -98.350768 
L 193.658144 -103.186621 
L 188.255241 -108.022474 
L 183.409008 -112.858327 
L 179.262311 -117.69418 
L 175.940843 -122.530033 
L 173.546592 -127.365885 
L 172.152428 -132.201738 
L 171.798236 -137.037591 
L 172.488872 -141.873444 
L 174.194106 -146.709297 
L 176.850537 -151.54515 
L 180.365341 -156.381002 
L 184.621524 -161.216855 
L 189.484293 -166.052708 
L 194.80805 -170.888561 
L 200.443522 -175.724414 
L 206.244534 -180.560267 
L 212.074024 -185.396119 
L 217.808963 -190.231972 
L 223.343987 -195.067825 
L 228.593647 -199.903678 
L 233.493308 -204.739531 
L 237.998808 -209.575384 
L 242.085103 -214.411236 
L 245.744112 -219.247089 
L 248.982052 -224.082942 
L 251.816503 -228.918795 
L 254.273453 -233.754648 
L 256.384491 -238.590501 
L 258.184312 -243.426354 
L 259.708607 -248.262206 
L 260.992393 -253.098059 
L 262.068783 -257.933912 
L 262.968159 -262.769765 
L 263.717709 -267.605618 
L 264.341248 -272.441471 
L 264.859277 -277.277323 
L 265.289185 -282.113176 
L 265.645558 -286.949029 
L 265.940534 -291.784882 
L 266.184166 -296.620735 
L 266.384765 -301.456588 
L 266.54921 -306.29244 
L 266.683208 -311.128293 
L 266.791503 -315.964146 
L 266.878046 -320.799999 
L 266.946117 -325.635852 
L 266.998416 -330.471705 
L 267.037124 -335.307557 
L 267.063956 -340.14341 
L 267.080185 -344.979263 
L 267.086675 -349.815116 
L 267.083902 -354.650969 
L 267.071977 -359.486822 
L 267.050677 -364.322675 
L 267.019473 -369.158527 
L 266.977564 -373.99438 
L 266.923917 -378.830233 
L 266.857302 -383.666086 
L 266.776342 -388.501939 
L 266.679551 -393.337792 
L 266.565383 -398.173644 
L 266.43228 -403.009497 
L 266.278721 -407.84535 
L 266.103287 -412.681203 
L 265.90472 -417.517056 
L 265.682011 -422.352909 
L 265.434486 -427.188761 
L 265.161916 -432.024614 
L 264.86463 -436.860467 
L 264.543642 -441.69632 
L 264.200761 -446.532173 
L 263.8387 -451.368026 
L 263.461142 -456.203878 
L 263.072765 -461.039731 
L 262.679214 -465.875584 
L 262.286998 -470.711437 
L 261.903321 -475.54729 
L 261.535851 -480.383143 
L 261.192422 -485.218995 
L 260.880709 -490.054848 
L 260.60789 -494.890701 
L 260.380311 -499.726554 
L 260.203205 -504.562407 
L 260.080465 -509.39826 
L 260.0145 -514.234113 
L 260.006178 -519.069965 
L 260.05486 -523.905818 
L 260.15851 -528.741671 
L 260.31387 -533.577524 
L 260.516676 -538.413377 
L 260.761895 -543.24923 
L 261.043954 -548.085082 
L 261.356962 -552.920935 
L 261.694894 -557.756788 
L 262.051738 -562.592641 
L 262.421616 -567.428494 
L 262.798868 -572.264347 
L 271.588632 -572.264347 
L 271.588632 -572.264347 
L 271.965884 -567.428494 
L 272.335762 -562.592641 
L 272.692606 -557.756788 
L 273.030538 -552.920935 
L 273.343546 -548.085082 
L 273.625605 -543.24923 
L 273.870824 -538.413377 
L 274.07363 -533.577524 
L 274.22899 -528.741671 
L 274.33264 -523.905818 
L 274.381322 -519.069965 
L 274.373 -514.234113 
L 274.307035 -509.39826 
L 274.184295 -504.562407 
L 274.007189 -499.726554 
L 273.77961 -494.890701 
L 273.506791 -490.054848 
L 273.195078 -485.218995 
L 272.851649 -480.383143 
L 272.484179 -475.54729 
L 272.100502 -470.711437 
L 271.708286 -465.875584 
L 271.314735 -461.039731 
L 270.926358 -456.203878 
L 270.5488 -451.368026 
L 270.186739 -446.532173 
L 269.843858 -441.69632 
L 269.52287 -436.860467 
L 269.225584 -432.024614 
L 268.953014 -427.188761 
L 268.705489 -422.352909 
L 268.48278 -417.517056 
L 268.284213 -412.681203 
L 268.108779 -407.84535 
L 267.95522 -403.009497 
L 267.822117 -398.173644 
L 267.707949 -393.337792 
L 267.611158 -388.501939 
L 267.530198 -383.666086 
L 267.463583 -378.830233 
L 267.409936 -373.99438 
L 267.368027 -369.158527 
L 267.336823 -364.322675 
L 267.315523 -359.486822 
L 267.303598 -354.650969 
L 267.300825 -349.815116 
L 267.307315 -344.979263 
L 267.323544 -340.14341 
L 267.350376 -335.307557 
L 267.389084 -330.471705 
L 267.441383 -325.635852 
L 267.509454 -320.799999 
L 267.595997 -315.964146 
L 267.704292 -311.128293 
L 267.83829 -306.29244 
L 268.002735 -301.456588 
L 268.203334 -296.620735 
L 268.446966 -291.784882 
L 268.741942 -286.949029 
L 269.098315 -282.113176 
L 269.528223 -277.277323 
L 270.046252 -272.441471 
L 270.669791 -267.605618 
L 271.419341 -262.769765 
L 272.318717 -257.933912 
L 273.395107 -253.098059 
L 274.678893 -248.262206 
L 276.203188 -243.426354 
L 278.003009 -238.590501 
L 280.114047 -233.754648 
L 282.570997 -228.918795 
L 285.405448 -224.082942 
L 288.643388 -219.247089 
L 292.302397 -214.411236 
L 296.388692 -209.575384 
L 300.894192 -204.739531 
L 305.793853 -199.903678 
L 311.043513 -195.067825 
L 316.578537 -190.231972 
L 322.313476 -185.396119 
L 328.142966 -180.560267 
L 333.943978 -175.724414 
L 339.57945 -170.888561 
L 344.903207 -166.052708 
L 349.765976 -161.216855 
L 354.022159 -156.381002 
L 357.536963 -151.54515 
L 360.193394 -146.709297 
L 361.898628 -141.873444 
L 362.589264 -137.037591 
L 362.235072 -132.201738 
L 360.840908 -127.365885 
L 358.446657 -122.530033 
L 355.125189 -117.69418 
L 350.978492 -112.858327 
L 346.132259 -108.022474 
L 340.729356 -103.186621 
L 334.922646 -98.350768 
L 328.867674 -93.514916 
z
" id="mee384b6935" style="stroke:#676767;stroke-width:2;"/>
    </defs>
    <g clip-path="url(#pb76a1dff25)">
     <use style="fill:#8779dd;stroke:#676767;stroke-width:2;" x="0" xlink:href="#mee384b6935" y="691.085693"/>
    </g>
   </g>
   <g id="PolyCollection_2">
    <defs>
     <path d="M 711.032984 -78.082528 
L 660.354516 -78.082528 
L 656.237116 -79.509321 
L 651.788371 -80.936114 
L 647.056613 -82.362907 
L 642.104713 -83.789699 
L 637.007447 -85.216492 
L 631.847482 -86.643285 
L 626.710233 -88.070078 
L 621.678018 -89.49687 
L 616.824078 -90.923663 
L 612.207105 -92.350456 
L 607.866885 -93.777249 
L 603.821573 -95.204041 
L 600.066931 -96.630834 
L 596.57762 -98.057627 
L 593.310392 -99.48442 
L 590.208782 -100.911212 
L 587.208746 -102.338005 
L 584.244586 -103.764798 
L 581.254519 -105.191591 
L 578.185335 -106.618383 
L 574.995784 -108.045176 
L 571.658525 -109.471969 
L 568.160696 -110.898762 
L 564.503349 -112.325554 
L 560.700126 -113.752347 
L 556.775574 -115.17914 
L 552.763481 -116.605933 
L 548.705495 -118.032725 
L 544.650155 -119.459518 
L 540.652274 -120.886311 
L 536.772514 -122.313104 
L 533.076867 -123.739896 
L 529.635745 -125.166689 
L 526.522447 -126.593482 
L 523.810852 -128.020275 
L 521.572348 -129.447067 
L 519.872181 -130.87386 
L 518.765535 -132.300653 
L 518.29375 -133.727446 
L 518.481126 -135.154238 
L 519.332707 -136.581031 
L 520.833343 -138.007824 
L 522.948173 -139.434617 
L 525.624509 -140.861409 
L 528.794938 -142.288202 
L 532.381328 -143.714995 
L 536.299376 -145.141788 
L 540.463288 -146.56858 
L 544.790232 -147.995373 
L 549.204259 -149.422166 
L 553.639487 -150.848959 
L 558.042411 -152.275752 
L 562.373282 -153.702544 
L 566.606559 -155.129337 
L 570.730468 -156.55613 
L 574.745747 -157.982923 
L 578.663673 -159.409715 
L 582.503518 -160.836508 
L 586.289597 -162.263301 
L 590.048146 -163.690094 
L 593.804259 -165.116886 
L 597.579147 -166.543679 
L 601.387968 -167.970472 
L 605.238388 -169.397265 
L 609.130017 -170.824057 
L 613.054689 -172.25085 
L 616.997515 -173.677643 
L 620.93851 -175.104436 
L 624.854538 -176.531228 
L 628.721308 -177.958021 
L 632.51516 -179.384814 
L 636.21443 -180.811607 
L 639.800302 -182.238399 
L 643.2571 -183.665192 
L 646.572111 -185.091985 
L 649.735065 -186.518778 
L 652.737475 -187.94557 
L 655.57199 -189.372363 
L 658.231941 -190.799156 
L 660.711166 -192.225949 
L 663.004153 -193.652741 
L 665.106452 -195.079534 
L 667.01528 -196.506327 
L 668.730198 -197.93312 
L 670.253712 -199.359912 
L 671.591717 -200.786705 
L 672.753676 -202.213498 
L 673.752521 -203.640291 
L 674.604271 -205.067083 
L 675.327419 -206.493876 
L 675.942149 -207.920669 
L 676.469458 -209.347462 
L 676.93026 -210.774254 
L 677.344527 -212.201047 
L 677.730521 -213.62784 
L 678.104145 -215.054633 
L 678.478436 -216.481425 
L 678.863223 -217.908218 
L 679.264959 -219.335011 
L 692.122541 -219.335011 
L 692.122541 -219.335011 
L 692.524277 -217.908218 
L 692.909064 -216.481425 
L 693.283355 -215.054633 
L 693.656979 -213.62784 
L 694.042973 -212.201047 
L 694.45724 -210.774254 
L 694.918042 -209.347462 
L 695.445351 -207.920669 
L 696.060081 -206.493876 
L 696.783229 -205.067083 
L 697.634979 -203.640291 
L 698.633824 -202.213498 
L 699.795783 -200.786705 
L 701.133788 -199.359912 
L 702.657302 -197.93312 
L 704.37222 -196.506327 
L 706.281048 -195.079534 
L 708.383347 -193.652741 
L 710.676334 -192.225949 
L 713.155559 -190.799156 
L 715.81551 -189.372363 
L 718.650025 -187.94557 
L 721.652435 -186.518778 
L 724.815389 -185.091985 
L 728.1304 -183.665192 
L 731.587198 -182.238399 
L 735.17307 -180.811607 
L 738.87234 -179.384814 
L 742.666192 -177.958021 
L 746.532962 -176.531228 
L 750.44899 -175.104436 
L 754.389985 -173.677643 
L 758.332811 -172.25085 
L 762.257483 -170.824057 
L 766.149112 -169.397265 
L 769.999532 -167.970472 
L 773.808353 -166.543679 
L 777.583241 -165.116886 
L 781.339354 -163.690094 
L 785.097903 -162.263301 
L 788.883982 -160.836508 
L 792.723827 -159.409715 
L 796.641753 -157.982923 
L 800.657032 -156.55613 
L 804.780941 -155.129337 
L 809.014218 -153.702544 
L 813.345089 -152.275752 
L 817.748013 -150.848959 
L 822.183241 -149.422166 
L 826.597268 -147.995373 
L 830.924212 -146.56858 
L 835.088124 -145.141788 
L 839.006172 -143.714995 
L 842.592562 -142.288202 
L 845.762991 -140.861409 
L 848.439327 -139.434617 
L 850.554157 -138.007824 
L 852.054793 -136.581031 
L 852.906374 -135.154238 
L 853.09375 -133.727446 
L 852.621965 -132.300653 
L 851.515319 -130.87386 
L 849.815152 -129.447067 
L 847.576648 -128.020275 
L 844.865053 -126.593482 
L 841.751755 -125.166689 
L 838.310633 -123.739896 
L 834.614986 -122.313104 
L 830.735226 -120.886311 
L 826.737345 -119.459518 
L 822.682005 -118.032725 
L 818.624019 -116.605933 
L 814.611926 -115.17914 
L 810.687374 -113.752347 
L 806.884151 -112.325554 
L 803.226804 -110.898762 
L 799.728975 -109.471969 
L 796.391716 -108.045176 
L 793.202165 -106.618383 
L 790.132981 -105.191591 
L 787.142914 -103.764798 
L 784.178754 -102.338005 
L 781.178718 -100.911212 
L 778.077108 -99.48442 
L 774.80988 -98.057627 
L 771.320569 -96.630834 
L 767.565927 -95.204041 
L 763.520615 -93.777249 
L 759.180395 -92.350456 
L 754.563422 -90.923663 
L 749.709482 -89.49687 
L 744.677267 -88.070078 
L 739.540018 -86.643285 
L 734.380053 -85.216492 
L 729.282787 -83.789699 
L 724.330887 -82.362907 
L 719.599129 -80.936114 
L 715.150384 -79.509321 
L 711.032984 -78.082528 
z
" id="m33d0d4f065" style="stroke:#676767;stroke-width:2;"/>
    </defs>
    <g clip-path="url(#p30c5c0b5fe)">
     <use style="fill:#8779dd;stroke:#676767;stroke-width:2;" x="0" xlink:href="#m33d0d4f065" y="691.085693"/>
    </g>
   </g>
   <g id="PathCollection_1"/>
   <g id="PathCollection_2"/>
   <g id="PathCollection_3"/>
   <g id="PathCollection_4"/>
   <g id="PathCollection_5"/>
   <g id="PathCollection_6"/>
   <g id="PathCollection_7"/>
   <g id="PathCollection_8"/>
   <g id="PathCollection_9"/>
   <g id="PathCollection_10"/>
   <g id="PathCollection_11"/>
   <g id="PathCollection_12"/>
   <g id="PathCollection_13"/>
   <g id="PathCollection_14"/>
   <g id="PathCollection_15"/>
   <g id="PathCollection_16"/>
   <g id="PathCollection_17"/>
   <g id="PathCollection_18"/>
   <g id="PathCollection_19"/>
   <g id="PathCollection_20"/>
   <g id="PathCollection_21"/>
   <g id="PathCollection_22"/>
   <g id="PathCollection_23"/>
   <g id="PathCollection_24"/>
   <g id="PathCollection_25"/>
   <g id="PathCollection_26"/>
   <g id="PathCollection_27"/>
   <g id="PathCollection_28"/>
   <g id="PathCollection_29"/>
   <g id="PathCollection_30"/>
   <g id="PathCollection_31"/>
   <g id="PathCollection_32"/>
   <g id="PathCollection_33"/>
   <g id="PathCollection_34"/>
   <g id="PathCollection_35"/>
   <g id="PathCollection_36"/>
   <g id="PathCollection_37"/>
   <g id="PathCollection_38"/>
   <g id="PathCollection_39"/>
   <g id="PathCollection_40"/>
   <g id="PathCollection_41"/>
   <g id="PathCollection_42"/>
   <g id="PathCollection_43"/>
   <g id="PathCollection_44"/>
   <g id="PathCollection_45"/>
   <g id="PathCollection_46"/>
   <g id="PathCollection_47"/>
   <g id="PathCollection_48"/>
   <g id="PathCollection_49"/>
   <g id="PathCollection_50"/>
   <g id="PathCollection_51"/>
   <g id="PathCollection_52"/>
   <g id="PathCollection_53"/>
   <g id="PathCollection_54"/>
   <g id="PathCollection_55"/>
   <g id="PathCollection_56"/>
   <g id="PathCollection_57"/>
   <g id="PathCollection_58"/>
   <g id="matplotlib.axis_1">
    <g id="xtick_1">
     <g id="line2d_1">
      <defs>
       <path d="M 0 0 
L 0 4.8 
" id="mb28b46f90e" style="stroke:#000000;"/>
      </defs>
      <g>
       <use style="stroke:#000000;" x="267.19375" xlink:href="#mb28b46f90e" y="637.712256"/>
      </g>
     </g>
     <g id="text_1">
      <!-- NoReward -->
      <g transform="translate(229.062109 657.409912)scale(0.15 -0.15)">
       <defs>
        <path d="M 628 4666 
L 1478 4666 
L 3547 763 
L 3547 4666 
L 4159 4666 
L 4159 0 
L 3309 0 
L 1241 3903 
L 1241 0 
L 628 0 
L 628 4666 
z
" id="DejaVuSans-4e" transform="scale(0.015625)"/>
        <path d="M 1959 3097 
Q 1497 3097 1228 2736 
Q 959 2375 959 1747 
Q 959 1119 1226 758 
Q 1494 397 1959 397 
Q 2419 397 2687 759 
Q 2956 1122 2956 1747 
Q 2956 2369 2687 2733 
Q 2419 3097 1959 3097 
z
M 1959 3584 
Q 2709 3584 3137 3096 
Q 3566 2609 3566 1747 
Q 3566 888 3137 398 
Q 2709 -91 1959 -91 
Q 1206 -91 779 398 
Q 353 888 353 1747 
Q 353 2609 779 3096 
Q 1206 3584 1959 3584 
z
" id="DejaVuSans-6f" transform="scale(0.015625)"/>
        <path d="M 2841 2188 
Q 3044 2119 3236 1894 
Q 3428 1669 3622 1275 
L 4263 0 
L 3584 0 
L 2988 1197 
Q 2756 1666 2539 1819 
Q 2322 1972 1947 1972 
L 1259 1972 
L 1259 0 
L 628 0 
L 628 4666 
L 2053 4666 
Q 2853 4666 3247 4331 
Q 3641 3997 3641 3322 
Q 3641 2881 3436 2590 
Q 3231 2300 2841 2188 
z
M 1259 4147 
L 1259 2491 
L 2053 2491 
Q 2509 2491 2742 2702 
Q 2975 2913 2975 3322 
Q 2975 3731 2742 3939 
Q 2509 4147 2053 4147 
L 1259 4147 
z
" id="DejaVuSans-52" transform="scale(0.015625)"/>
        <path d="M 3597 1894 
L 3597 1613 
L 953 1613 
Q 991 1019 1311 708 
Q 1631 397 2203 397 
Q 2534 397 2845 478 
Q 3156 559 3463 722 
L 3463 178 
Q 3153 47 2828 -22 
Q 2503 -91 2169 -91 
Q 1331 -91 842 396 
Q 353 884 353 1716 
Q 353 2575 817 3079 
Q 1281 3584 2069 3584 
Q 2775 3584 3186 3129 
Q 3597 2675 3597 1894 
z
M 3022 2063 
Q 3016 2534 2758 2815 
Q 2500 3097 2075 3097 
Q 1594 3097 1305 2825 
Q 1016 2553 972 2059 
L 3022 2063 
z
" id="DejaVuSans-65" transform="scale(0.015625)"/>
        <path d="M 269 3500 
L 844 3500 
L 1563 769 
L 2278 3500 
L 2956 3500 
L 3675 769 
L 4391 3500 
L 4966 3500 
L 4050 0 
L 3372 0 
L 2619 2869 
L 1863 0 
L 1184 0 
L 269 3500 
z
" id="DejaVuSans-77" transform="scale(0.015625)"/>
        <path d="M 2194 1759 
Q 1497 1759 1228 1600 
Q 959 1441 959 1056 
Q 959 750 1161 570 
Q 1363 391 1709 391 
Q 2188 391 2477 730 
Q 2766 1069 2766 1631 
L 2766 1759 
L 2194 1759 
z
M 3341 1997 
L 3341 0 
L 2766 0 
L 2766 531 
Q 2569 213 2275 61 
Q 1981 -91 1556 -91 
Q 1019 -91 701 211 
Q 384 513 384 1019 
Q 384 1609 779 1909 
Q 1175 2209 1959 2209 
L 2766 2209 
L 2766 2266 
Q 2766 2663 2505 2880 
Q 2244 3097 1772 3097 
Q 1472 3097 1187 3025 
Q 903 2953 641 2809 
L 641 3341 
Q 956 3463 1253 3523 
Q 1550 3584 1831 3584 
Q 2591 3584 2966 3190 
Q 3341 2797 3341 1997 
z
" id="DejaVuSans-61" transform="scale(0.015625)"/>
        <path d="M 2631 2963 
Q 2534 3019 2420 3045 
Q 2306 3072 2169 3072 
Q 1681 3072 1420 2755 
Q 1159 2438 1159 1844 
L 1159 0 
L 581 0 
L 581 3500 
L 1159 3500 
L 1159 2956 
Q 1341 3275 1631 3429 
Q 1922 3584 2338 3584 
Q 2397 3584 2469 3576 
Q 2541 3569 2628 3553 
L 2631 2963 
z
" id="DejaVuSans-72" transform="scale(0.015625)"/>
        <path d="M 2906 2969 
L 2906 4863 
L 3481 4863 
L 3481 0 
L 2906 0 
L 2906 525 
Q 2725 213 2448 61 
Q 2172 -91 1784 -91 
Q 1150 -91 751 415 
Q 353 922 353 1747 
Q 353 2572 751 3078 
Q 1150 3584 1784 3584 
Q 2172 3584 2448 3432 
Q 2725 3281 2906 2969 
z
M 947 1747 
Q 947 1113 1208 752 
Q 1469 391 1925 391 
Q 2381 391 2643 752 
Q 2906 1113 2906 1747 
Q 2906 2381 2643 2742 
Q 2381 3103 1925 3103 
Q 1469 3103 1208 2742 
Q 947 2381 947 1747 
z
" id="DejaVuSans-64" transform="scale(0.015625)"/>
       </defs>
       <use xlink:href="#DejaVuSans-4e"/>
       <use x="74.804688" xlink:href="#DejaVuSans-6f"/>
       <use x="135.986328" xlink:href="#DejaVuSans-52"/>
       <use x="200.96875" xlink:href="#DejaVuSans-65"/>
       <use x="262.492188" xlink:href="#DejaVuSans-77"/>
       <use x="344.279297" xlink:href="#DejaVuSans-61"/>
       <use x="405.558594" xlink:href="#DejaVuSans-72"/>
       <use x="444.921875" xlink:href="#DejaVuSans-64"/>
      </g>
     </g>
    </g>
    <g id="xtick_2">
     <g id="line2d_2">
      <g>
       <use style="stroke:#000000;" x="685.69375" xlink:href="#mb28b46f90e" y="637.712256"/>
      </g>
     </g>
     <g id="text_2">
      <!-- Reward -->
      <g transform="translate(657.762109 657.409912)scale(0.15 -0.15)">
       <use xlink:href="#DejaVuSans-52"/>
       <use x="64.982422" xlink:href="#DejaVuSans-65"/>
       <use x="126.505859" xlink:href="#DejaVuSans-77"/>
       <use x="208.292969" xlink:href="#DejaVuSans-61"/>
       <use x="269.572266" xlink:href="#DejaVuSans-72"/>
       <use x="308.935547" xlink:href="#DejaVuSans-64"/>
      </g>
     </g>
    </g>
    <g id="text_3">
     <!-- Group -->
     <g transform="translate(446.004688 679.726318)scale(0.2 -0.2)">
      <defs>
       <path d="M 3809 666 
L 3809 1919 
L 2778 1919 
L 2778 2438 
L 4434 2438 
L 4434 434 
Q 4069 175 3628 42 
Q 3188 -91 2688 -91 
Q 1594 -91 976 548 
Q 359 1188 359 2328 
Q 359 3472 976 4111 
Q 1594 4750 2688 4750 
Q 3144 4750 3555 4637 
Q 3966 4525 4313 4306 
L 4313 3634 
Q 3963 3931 3569 4081 
Q 3175 4231 2741 4231 
Q 1884 4231 1454 3753 
Q 1025 3275 1025 2328 
Q 1025 1384 1454 906 
Q 1884 428 2741 428 
Q 3075 428 3337 486 
Q 3600 544 3809 666 
z
" id="DejaVuSans-47" transform="scale(0.015625)"/>
       <path d="M 544 1381 
L 544 3500 
L 1119 3500 
L 1119 1403 
Q 1119 906 1312 657 
Q 1506 409 1894 409 
Q 2359 409 2629 706 
Q 2900 1003 2900 1516 
L 2900 3500 
L 3475 3500 
L 3475 0 
L 2900 0 
L 2900 538 
Q 2691 219 2414 64 
Q 2138 -91 1772 -91 
Q 1169 -91 856 284 
Q 544 659 544 1381 
z
M 1991 3584 
L 1991 3584 
z
" id="DejaVuSans-75" transform="scale(0.015625)"/>
       <path d="M 1159 525 
L 1159 -1331 
L 581 -1331 
L 581 3500 
L 1159 3500 
L 1159 2969 
Q 1341 3281 1617 3432 
Q 1894 3584 2278 3584 
Q 2916 3584 3314 3078 
Q 3713 2572 3713 1747 
Q 3713 922 3314 415 
Q 2916 -91 2278 -91 
Q 1894 -91 1617 61 
Q 1341 213 1159 525 
z
M 3116 1747 
Q 3116 2381 2855 2742 
Q 2594 3103 2138 3103 
Q 1681 3103 1420 2742 
Q 1159 2381 1159 1747 
Q 1159 1113 1420 752 
Q 1681 391 2138 391 
Q 2594 391 2855 752 
Q 3116 1113 3116 1747 
z
" id="DejaVuSans-70" transform="scale(0.015625)"/>
      </defs>
      <use xlink:href="#DejaVuSans-47"/>
      <use x="77.490234" xlink:href="#DejaVuSans-72"/>
      <use x="116.353516" xlink:href="#DejaVuSans-6f"/>
      <use x="177.535156" xlink:href="#DejaVuSans-75"/>
      <use x="240.914062" xlink:href="#DejaVuSans-70"/>
     </g>
    </g>
   </g>
   <g id="matplotlib.axis_2">
    <g id="ytick_1">
     <g id="line2d_3">
      <defs>
       <path d="M 0 0 
L -4.8 0 
" id="m33f18a08e0" style="stroke:#000000;"/>
      </defs>
      <g>
       <use style="stroke:#000000;" x="57.94375" xlink:href="#m33f18a08e0" y="588.786166"/>
      </g>
     </g>
     <g id="text_4">
      <!-- 10 -->
      <g transform="translate(30.55625 594.484994)scale(0.15 -0.15)">
       <defs>
        <path d="M 794 531 
L 1825 531 
L 1825 4091 
L 703 3866 
L 703 4441 
L 1819 4666 
L 2450 4666 
L 2450 531 
L 3481 531 
L 3481 0 
L 794 0 
L 794 531 
z
" id="DejaVuSans-31" transform="scale(0.015625)"/>
        <path d="M 2034 4250 
Q 1547 4250 1301 3770 
Q 1056 3291 1056 2328 
Q 1056 1369 1301 889 
Q 1547 409 2034 409 
Q 2525 409 2770 889 
Q 3016 1369 3016 2328 
Q 3016 3291 2770 3770 
Q 2525 4250 2034 4250 
z
M 2034 4750 
Q 2819 4750 3233 4129 
Q 3647 3509 3647 2328 
Q 3647 1150 3233 529 
Q 2819 -91 2034 -91 
Q 1250 -91 836 529 
Q 422 1150 422 2328 
Q 422 3509 836 4129 
Q 1250 4750 2034 4750 
z
" id="DejaVuSans-30" transform="scale(0.015625)"/>
       </defs>
       <use xlink:href="#DejaVuSans-31"/>
       <use x="63.623047" xlink:href="#DejaVuSans-30"/>
      </g>
     </g>
    </g>
    <g id="ytick_2">
     <g id="line2d_4">
      <g>
       <use style="stroke:#000000;" x="57.94375" xlink:href="#m33f18a08e0" y="517.987505"/>
      </g>
     </g>
     <g id="text_5">
      <!-- 20 -->
      <g transform="translate(30.55625 523.686333)scale(0.15 -0.15)">
       <defs>
        <path d="M 1228 531 
L 3431 531 
L 3431 0 
L 469 0 
L 469 531 
Q 828 903 1448 1529 
Q 2069 2156 2228 2338 
Q 2531 2678 2651 2914 
Q 2772 3150 2772 3378 
Q 2772 3750 2511 3984 
Q 2250 4219 1831 4219 
Q 1534 4219 1204 4116 
Q 875 4013 500 3803 
L 500 4441 
Q 881 4594 1212 4672 
Q 1544 4750 1819 4750 
Q 2544 4750 2975 4387 
Q 3406 4025 3406 3419 
Q 3406 3131 3298 2873 
Q 3191 2616 2906 2266 
Q 2828 2175 2409 1742 
Q 1991 1309 1228 531 
z
" id="DejaVuSans-32" transform="scale(0.015625)"/>
       </defs>
       <use xlink:href="#DejaVuSans-32"/>
       <use x="63.623047" xlink:href="#DejaVuSans-30"/>
      </g>
     </g>
    </g>
    <g id="ytick_3">
     <g id="line2d_5">
      <g>
       <use style="stroke:#000000;" x="57.94375" xlink:href="#m33f18a08e0" y="447.188843"/>
      </g>
     </g>
     <g id="text_6">
      <!-- 30 -->
      <g transform="translate(30.55625 452.887671)scale(0.15 -0.15)">
       <defs>
        <path d="M 2597 2516 
Q 3050 2419 3304 2112 
Q 3559 1806 3559 1356 
Q 3559 666 3084 287 
Q 2609 -91 1734 -91 
Q 1441 -91 1130 -33 
Q 819 25 488 141 
L 488 750 
Q 750 597 1062 519 
Q 1375 441 1716 441 
Q 2309 441 2620 675 
Q 2931 909 2931 1356 
Q 2931 1769 2642 2001 
Q 2353 2234 1838 2234 
L 1294 2234 
L 1294 2753 
L 1863 2753 
Q 2328 2753 2575 2939 
Q 2822 3125 2822 3475 
Q 2822 3834 2567 4026 
Q 2313 4219 1838 4219 
Q 1578 4219 1281 4162 
Q 984 4106 628 3988 
L 628 4550 
Q 988 4650 1302 4700 
Q 1616 4750 1894 4750 
Q 2613 4750 3031 4423 
Q 3450 4097 3450 3541 
Q 3450 3153 3228 2886 
Q 3006 2619 2597 2516 
z
" id="DejaVuSans-33" transform="scale(0.015625)"/>
       </defs>
       <use xlink:href="#DejaVuSans-33"/>
       <use x="63.623047" xlink:href="#DejaVuSans-30"/>
      </g>
     </g>
    </g>
    <g id="ytick_4">
     <g id="line2d_6">
      <g>
       <use style="stroke:#000000;" x="57.94375" xlink:href="#m33f18a08e0" y="376.390182"/>
      </g>
     </g>
     <g id="text_7">
      <!-- 40 -->
      <g transform="translate(30.55625 382.08901)scale(0.15 -0.15)">
       <defs>
        <path d="M 2419 4116 
L 825 1625 
L 2419 1625 
L 2419 4116 
z
M 2253 4666 
L 3047 4666 
L 3047 1625 
L 3713 1625 
L 3713 1100 
L 3047 1100 
L 3047 0 
L 2419 0 
L 2419 1100 
L 313 1100 
L 313 1709 
L 2253 4666 
z
" id="DejaVuSans-34" transform="scale(0.015625)"/>
       </defs>
       <use xlink:href="#DejaVuSans-34"/>
       <use x="63.623047" xlink:href="#DejaVuSans-30"/>
      </g>
     </g>
    </g>
    <g id="ytick_5">
     <g id="line2d_7">
      <g>
       <use style="stroke:#000000;" x="57.94375" xlink:href="#m33f18a08e0" y="305.591521"/>
      </g>
     </g>
     <g id="text_8">
      <!-- 50 -->
      <g transform="translate(30.55625 311.290349)scale(0.15 -0.15)">
       <defs>
        <path d="M 691 4666 
L 3169 4666 
L 3169 4134 
L 1269 4134 
L 1269 2991 
Q 1406 3038 1543 3061 
Q 1681 3084 1819 3084 
Q 2600 3084 3056 2656 
Q 3513 2228 3513 1497 
Q 3513 744 3044 326 
Q 2575 -91 1722 -91 
Q 1428 -91 1123 -41 
Q 819 9 494 109 
L 494 744 
Q 775 591 1075 516 
Q 1375 441 1709 441 
Q 2250 441 2565 725 
Q 2881 1009 2881 1497 
Q 2881 1984 2565 2268 
Q 2250 2553 1709 2553 
Q 1456 2553 1204 2497 
Q 953 2441 691 2322 
L 691 4666 
z
" id="DejaVuSans-35" transform="scale(0.015625)"/>
       </defs>
       <use xlink:href="#DejaVuSans-35"/>
       <use x="63.623047" xlink:href="#DejaVuSans-30"/>
      </g>
     </g>
    </g>
    <g id="ytick_6">
     <g id="line2d_8">
      <g>
       <use style="stroke:#000000;" x="57.94375" xlink:href="#m33f18a08e0" y="234.792859"/>
      </g>
     </g>
     <g id="text_9">
      <!-- 60 -->
      <g transform="translate(30.55625 240.491687)scale(0.15 -0.15)">
       <defs>
        <path d="M 2113 2584 
Q 1688 2584 1439 2293 
Q 1191 2003 1191 1497 
Q 1191 994 1439 701 
Q 1688 409 2113 409 
Q 2538 409 2786 701 
Q 3034 994 3034 1497 
Q 3034 2003 2786 2293 
Q 2538 2584 2113 2584 
z
M 3366 4563 
L 3366 3988 
Q 3128 4100 2886 4159 
Q 2644 4219 2406 4219 
Q 1781 4219 1451 3797 
Q 1122 3375 1075 2522 
Q 1259 2794 1537 2939 
Q 1816 3084 2150 3084 
Q 2853 3084 3261 2657 
Q 3669 2231 3669 1497 
Q 3669 778 3244 343 
Q 2819 -91 2113 -91 
Q 1303 -91 875 529 
Q 447 1150 447 2328 
Q 447 3434 972 4092 
Q 1497 4750 2381 4750 
Q 2619 4750 2861 4703 
Q 3103 4656 3366 4563 
z
" id="DejaVuSans-36" transform="scale(0.015625)"/>
       </defs>
       <use xlink:href="#DejaVuSans-36"/>
       <use x="63.623047" xlink:href="#DejaVuSans-30"/>
      </g>
     </g>
    </g>
    <g id="ytick_7">
     <g id="line2d_9">
      <g>
       <use style="stroke:#000000;" x="57.94375" xlink:href="#m33f18a08e0" y="163.994198"/>
      </g>
     </g>
     <g id="text_10">
      <!-- 70 -->
      <g transform="translate(30.55625 169.693026)scale(0.15 -0.15)">
       <defs>
        <path d="M 525 4666 
L 3525 4666 
L 3525 4397 
L 1831 0 
L 1172 0 
L 2766 4134 
L 525 4134 
L 525 4666 
z
" id="DejaVuSans-37" transform="scale(0.015625)"/>
       </defs>
       <use xlink:href="#DejaVuSans-37"/>
       <use x="63.623047" xlink:href="#DejaVuSans-30"/>
      </g>
     </g>
    </g>
    <g id="text_11">
     <!-- MeanAbsErr (Degrees) -->
     <g transform="translate(22.396875 478.507568)rotate(-90)scale(0.2 -0.2)">
      <defs>
       <path d="M 628 4666 
L 1569 4666 
L 2759 1491 
L 3956 4666 
L 4897 4666 
L 4897 0 
L 4281 0 
L 4281 4097 
L 3078 897 
L 2444 897 
L 1241 4097 
L 1241 0 
L 628 0 
L 628 4666 
z
" id="DejaVuSans-4d" transform="scale(0.015625)"/>
       <path d="M 3513 2113 
L 3513 0 
L 2938 0 
L 2938 2094 
Q 2938 2591 2744 2837 
Q 2550 3084 2163 3084 
Q 1697 3084 1428 2787 
Q 1159 2491 1159 1978 
L 1159 0 
L 581 0 
L 581 3500 
L 1159 3500 
L 1159 2956 
Q 1366 3272 1645 3428 
Q 1925 3584 2291 3584 
Q 2894 3584 3203 3211 
Q 3513 2838 3513 2113 
z
" id="DejaVuSans-6e" transform="scale(0.015625)"/>
       <path d="M 2188 4044 
L 1331 1722 
L 3047 1722 
L 2188 4044 
z
M 1831 4666 
L 2547 4666 
L 4325 0 
L 3669 0 
L 3244 1197 
L 1141 1197 
L 716 0 
L 50 0 
L 1831 4666 
z
" id="DejaVuSans-41" transform="scale(0.015625)"/>
       <path d="M 3116 1747 
Q 3116 2381 2855 2742 
Q 2594 3103 2138 3103 
Q 1681 3103 1420 2742 
Q 1159 2381 1159 1747 
Q 1159 1113 1420 752 
Q 1681 391 2138 391 
Q 2594 391 2855 752 
Q 3116 1113 3116 1747 
z
M 1159 2969 
Q 1341 3281 1617 3432 
Q 1894 3584 2278 3584 
Q 2916 3584 3314 3078 
Q 3713 2572 3713 1747 
Q 3713 922 3314 415 
Q 2916 -91 2278 -91 
Q 1894 -91 1617 61 
Q 1341 213 1159 525 
L 1159 0 
L 581 0 
L 581 4863 
L 1159 4863 
L 1159 2969 
z
" id="DejaVuSans-62" transform="scale(0.015625)"/>
       <path d="M 2834 3397 
L 2834 2853 
Q 2591 2978 2328 3040 
Q 2066 3103 1784 3103 
Q 1356 3103 1142 2972 
Q 928 2841 928 2578 
Q 928 2378 1081 2264 
Q 1234 2150 1697 2047 
L 1894 2003 
Q 2506 1872 2764 1633 
Q 3022 1394 3022 966 
Q 3022 478 2636 193 
Q 2250 -91 1575 -91 
Q 1294 -91 989 -36 
Q 684 19 347 128 
L 347 722 
Q 666 556 975 473 
Q 1284 391 1588 391 
Q 1994 391 2212 530 
Q 2431 669 2431 922 
Q 2431 1156 2273 1281 
Q 2116 1406 1581 1522 
L 1381 1569 
Q 847 1681 609 1914 
Q 372 2147 372 2553 
Q 372 3047 722 3315 
Q 1072 3584 1716 3584 
Q 2034 3584 2315 3537 
Q 2597 3491 2834 3397 
z
" id="DejaVuSans-73" transform="scale(0.015625)"/>
       <path d="M 628 4666 
L 3578 4666 
L 3578 4134 
L 1259 4134 
L 1259 2753 
L 3481 2753 
L 3481 2222 
L 1259 2222 
L 1259 531 
L 3634 531 
L 3634 0 
L 628 0 
L 628 4666 
z
" id="DejaVuSans-45" transform="scale(0.015625)"/>
       <path id="DejaVuSans-20" transform="scale(0.015625)"/>
       <path d="M 1984 4856 
Q 1566 4138 1362 3434 
Q 1159 2731 1159 2009 
Q 1159 1288 1364 580 
Q 1569 -128 1984 -844 
L 1484 -844 
Q 1016 -109 783 600 
Q 550 1309 550 2009 
Q 550 2706 781 3412 
Q 1013 4119 1484 4856 
L 1984 4856 
z
" id="DejaVuSans-28" transform="scale(0.015625)"/>
       <path d="M 1259 4147 
L 1259 519 
L 2022 519 
Q 2988 519 3436 956 
Q 3884 1394 3884 2338 
Q 3884 3275 3436 3711 
Q 2988 4147 2022 4147 
L 1259 4147 
z
M 628 4666 
L 1925 4666 
Q 3281 4666 3915 4102 
Q 4550 3538 4550 2338 
Q 4550 1131 3912 565 
Q 3275 0 1925 0 
L 628 0 
L 628 4666 
z
" id="DejaVuSans-44" transform="scale(0.015625)"/>
       <path d="M 2906 1791 
Q 2906 2416 2648 2759 
Q 2391 3103 1925 3103 
Q 1463 3103 1205 2759 
Q 947 2416 947 1791 
Q 947 1169 1205 825 
Q 1463 481 1925 481 
Q 2391 481 2648 825 
Q 2906 1169 2906 1791 
z
M 3481 434 
Q 3481 -459 3084 -895 
Q 2688 -1331 1869 -1331 
Q 1566 -1331 1297 -1286 
Q 1028 -1241 775 -1147 
L 775 -588 
Q 1028 -725 1275 -790 
Q 1522 -856 1778 -856 
Q 2344 -856 2625 -561 
Q 2906 -266 2906 331 
L 2906 616 
Q 2728 306 2450 153 
Q 2172 0 1784 0 
Q 1141 0 747 490 
Q 353 981 353 1791 
Q 353 2603 747 3093 
Q 1141 3584 1784 3584 
Q 2172 3584 2450 3431 
Q 2728 3278 2906 2969 
L 2906 3500 
L 3481 3500 
L 3481 434 
z
" id="DejaVuSans-67" transform="scale(0.015625)"/>
       <path d="M 513 4856 
L 1013 4856 
Q 1481 4119 1714 3412 
Q 1947 2706 1947 2009 
Q 1947 1309 1714 600 
Q 1481 -109 1013 -844 
L 513 -844 
Q 928 -128 1133 580 
Q 1338 1288 1338 2009 
Q 1338 2731 1133 3434 
Q 928 4138 513 4856 
z
" id="DejaVuSans-29" transform="scale(0.015625)"/>
      </defs>
      <use xlink:href="#DejaVuSans-4d"/>
      <use x="86.279297" xlink:href="#DejaVuSans-65"/>
      <use x="147.802734" xlink:href="#DejaVuSans-61"/>
      <use x="209.082031" xlink:href="#DejaVuSans-6e"/>
      <use x="272.460938" xlink:href="#DejaVuSans-41"/>
      <use x="340.869141" xlink:href="#DejaVuSans-62"/>
      <use x="404.345703" xlink:href="#DejaVuSans-73"/>
      <use x="456.445312" xlink:href="#DejaVuSans-45"/>
      <use x="519.628906" xlink:href="#DejaVuSans-72"/>
      <use x="558.992188" xlink:href="#DejaVuSans-72"/>
      <use x="600.105469" xlink:href="#DejaVuSans-20"/>
      <use x="631.892578" xlink:href="#DejaVuSans-28"/>
      <use x="670.90625" xlink:href="#DejaVuSans-44"/>
      <use x="747.908203" xlink:href="#DejaVuSans-65"/>
      <use x="809.431641" xlink:href="#DejaVuSans-67"/>
      <use x="872.908203" xlink:href="#DejaVuSans-72"/>
      <use x="911.771484" xlink:href="#DejaVuSans-65"/>
      <use x="973.294922" xlink:href="#DejaVuSans-65"/>
      <use x="1034.818359" xlink:href="#DejaVuSans-73"/>
      <use x="1086.917969" xlink:href="#DejaVuSans-29"/>
     </g>
    </g>
   </g>
   <g id="line2d_10">
    <path clip-path="url(#pdc59bf804c)" d="M 267.19375 567.691701 
L 267.19375 597.570778 
" style="fill:none;stroke:#3f3f3f;stroke-linecap:square;stroke-width:3;"/>
   </g>
   <g id="line2d_11">
    <path clip-path="url(#pdc59bf804c)" d="M 267.19375 532.383579 
L 267.19375 490.524751 
" style="fill:none;stroke:#3f3f3f;stroke-linecap:square;stroke-width:3;"/>
   </g>
   <g id="line2d_12">
    <path clip-path="url(#pdc59bf804c)" d="M 241.0375 597.570778 
L 293.35 597.570778 
" style="fill:none;stroke:#3f3f3f;stroke-linecap:square;stroke-width:3;"/>
   </g>
   <g id="line2d_13">
    <path clip-path="url(#pdc59bf804c)" d="M 241.0375 490.524751 
L 293.35 490.524751 
" style="fill:none;stroke:#3f3f3f;stroke-linecap:square;stroke-width:3;"/>
   </g>
   <g id="line2d_14">
    <path clip-path="url(#pdc59bf804c)" d="M 685.69375 576.455179 
L 685.69375 613.003165 
" style="fill:none;stroke:#3f3f3f;stroke-linecap:square;stroke-width:3;"/>
   </g>
   <g id="line2d_15">
    <path clip-path="url(#pdc59bf804c)" d="M 685.69375 538.220127 
L 685.69375 485.65568 
" style="fill:none;stroke:#3f3f3f;stroke-linecap:square;stroke-width:3;"/>
   </g>
   <g id="line2d_16">
    <path clip-path="url(#pdc59bf804c)" d="M 659.5375 613.003165 
L 711.85 613.003165 
" style="fill:none;stroke:#3f3f3f;stroke-linecap:square;stroke-width:3;"/>
   </g>
   <g id="line2d_17">
    <path clip-path="url(#pdc59bf804c)" d="M 659.5375 485.65568 
L 711.85 485.65568 
" style="fill:none;stroke:#3f3f3f;stroke-linecap:square;stroke-width:3;"/>
   </g>
   <g id="line2d_18">
    <path d="M 267.19375 77.804256 
L 267.19375 66.932256 
L 685.69375 66.932256 
L 685.69375 77.804256 
" style="fill:none;stroke:#333333;stroke-linecap:square;stroke-width:1.5;"/>
   </g>
   <g id="line2d_19">
    <path clip-path="url(#pdc59bf804c)" d="M 214.88125 553.108632 
L 319.50625 553.108632 
" style="fill:none;stroke:#3f3f3f;stroke-linecap:square;stroke-width:3;"/>
   </g>
   <g id="line2d_20">
    <path clip-path="url(#pdc59bf804c)" d="M 633.38125 556.538097 
L 738.00625 556.538097 
" style="fill:none;stroke:#3f3f3f;stroke-linecap:square;stroke-width:3;"/>
   </g>
   <g id="patch_3">
    <path d="M 57.94375 637.712256 
L 57.94375 94.112256 
" style="fill:none;stroke:#000000;stroke-linecap:square;stroke-linejoin:miter;"/>
   </g>
   <g id="patch_4">
    <path d="M 57.94375 637.712256 
L 894.94375 637.712256 
" style="fill:none;stroke:#000000;stroke-linecap:square;stroke-linejoin:miter;"/>
   </g>
   <g id="PathCollection_59">
    <defs>
     <path d="M 0 3.5 
C 0.928211 3.5 1.81853 3.131218 2.474874 2.474874 
C 3.131218 1.81853 3.5 0.928211 3.5 -0 
C 3.5 -0.928211 3.131218 -1.81853 2.474874 -2.474874 
C 1.81853 -3.131218 0.928211 -3.5 0 -3.5 
C -0.928211 -3.5 -1.81853 -3.131218 -2.474874 -2.474874 
C -3.131218 -1.81853 -3.5 -0.928211 -3.5 0 
C -3.5 0.928211 -3.131218 1.81853 -2.474874 2.474874 
C -1.81853 3.131218 -0.928211 3.5 0 3.5 
z
" id="C0_0_62576a17cc"/>
    </defs>
    <g clip-path="url(#pdc59bf804c)">
     <use style="fill:#00bfff;fill-opacity:0.4;" x="295.264529" xlink:href="#C0_0_62576a17cc" y="533.410196"/>
    </g>
    <g clip-path="url(#pdc59bf804c)">
     <use style="fill:#00bfff;fill-opacity:0.4;" x="329.276612" xlink:href="#C0_0_62576a17cc" y="558.747608"/>
    </g>
    <g clip-path="url(#pdc59bf804c)">
     <use style="fill:#00bfff;fill-opacity:0.4;" x="365.396603" xlink:href="#C0_0_62576a17cc" y="526.297859"/>
    </g>
    <g clip-path="url(#pdc59bf804c)">
     <use style="fill:#00bfff;fill-opacity:0.4;" x="330.40656" xlink:href="#C0_0_62576a17cc" y="545.666582"/>
    </g>
    <g clip-path="url(#pdc59bf804c)">
     <use style="fill:#00bfff;fill-opacity:0.4;" x="316.637224" xlink:href="#C0_0_62576a17cc" y="576.699834"/>
    </g>
    <g clip-path="url(#pdc59bf804c)">
     <use style="fill:#00bfff;fill-opacity:0.4;" x="333.710861" xlink:href="#C0_0_62576a17cc" y="573.107439"/>
    </g>
    <g clip-path="url(#pdc59bf804c)">
     <use style="fill:#00bfff;fill-opacity:0.4;" x="333.818539" xlink:href="#C0_0_62576a17cc" y="522.732611"/>
    </g>
    <g clip-path="url(#pdc59bf804c)">
     <use style="fill:#00bfff;fill-opacity:0.4;" x="312.630111" xlink:href="#C0_0_62576a17cc" y="559.138375"/>
    </g>
    <g clip-path="url(#pdc59bf804c)">
     <use style="fill:#00bfff;fill-opacity:0.4;" x="327.913653" xlink:href="#C0_0_62576a17cc" y="547.69801"/>
    </g>
    <g clip-path="url(#pdc59bf804c)">
     <use style="fill:#00bfff;fill-opacity:0.4;" x="337.649918" xlink:href="#C0_0_62576a17cc" y="530.888202"/>
    </g>
    <g clip-path="url(#pdc59bf804c)">
     <use style="fill:#0000ff;fill-opacity:0.4;" x="314.753376" xlink:href="#C0_0_62576a17cc" y="517.949665"/>
    </g>
    <g clip-path="url(#pdc59bf804c)">
     <use style="fill:#0000ff;fill-opacity:0.4;" x="358.752122" xlink:href="#C0_0_62576a17cc" y="489.462771"/>
    </g>
    <g clip-path="url(#pdc59bf804c)">
     <use style="fill:#0000ff;fill-opacity:0.4;" x="370.43128" xlink:href="#C0_0_62576a17cc" y="531.321599"/>
    </g>
    <g clip-path="url(#pdc59bf804c)">
     <use style="fill:#0000ff;fill-opacity:0.4;" x="310.777719" xlink:href="#C0_0_62576a17cc" y="529.7379"/>
    </g>
    <g clip-path="url(#pdc59bf804c)">
     <use style="fill:#0000ff;fill-opacity:0.4;" x="338.657748" xlink:href="#C0_0_62576a17cc" y="553.262641"/>
    </g>
    <g clip-path="url(#pdc59bf804c)">
     <use style="fill:#0000ff;fill-opacity:0.4;" x="324.394972" xlink:href="#C0_0_62576a17cc" y="536.871761"/>
    </g>
    <g clip-path="url(#pdc59bf804c)">
     <use style="fill:#0000ff;fill-opacity:0.4;" x="337.926459" xlink:href="#C0_0_62576a17cc" y="534.580927"/>
    </g>
    <g clip-path="url(#pdc59bf804c)">
     <use style="fill:#0000ff;fill-opacity:0.4;" x="326.455265" xlink:href="#C0_0_62576a17cc" y="528.993524"/>
    </g>
    <g clip-path="url(#pdc59bf804c)">
     <use style="fill:#0000ff;fill-opacity:0.4;" x="356.084241" xlink:href="#C0_0_62576a17cc" y="554.521233"/>
    </g>
    <g clip-path="url(#pdc59bf804c)">
     <use style="fill:#0000ff;fill-opacity:0.4;" x="317.746464" xlink:href="#C0_0_62576a17cc" y="524.324431"/>
    </g>
    <g clip-path="url(#pdc59bf804c)">
     <use style="fill:#00bfff;fill-opacity:0.4;" x="351.484516" xlink:href="#C0_0_62576a17cc" y="561.211629"/>
    </g>
    <g clip-path="url(#pdc59bf804c)">
     <use style="fill:#00bfff;fill-opacity:0.4;" x="297.950303" xlink:href="#C0_0_62576a17cc" y="547.692925"/>
    </g>
    <g clip-path="url(#pdc59bf804c)">
     <use style="fill:#00bfff;fill-opacity:0.4;" x="304.411733" xlink:href="#C0_0_62576a17cc" y="566.629721"/>
    </g>
    <g clip-path="url(#pdc59bf804c)">
     <use style="fill:#00bfff;fill-opacity:0.4;" x="342.420809" xlink:href="#C0_0_62576a17cc" y="576.615806"/>
    </g>
    <g clip-path="url(#pdc59bf804c)">
     <use style="fill:#00bfff;fill-opacity:0.4;" x="288.231183" xlink:href="#C0_0_62576a17cc" y="545.562019"/>
    </g>
    <g clip-path="url(#pdc59bf804c)">
     <use style="fill:#00bfff;fill-opacity:0.4;" x="343.301508" xlink:href="#C0_0_62576a17cc" y="544.732822"/>
    </g>
    <g clip-path="url(#pdc59bf804c)">
     <use style="fill:#00bfff;fill-opacity:0.4;" x="306.795587" xlink:href="#C0_0_62576a17cc" y="560.864645"/>
    </g>
    <g clip-path="url(#pdc59bf804c)">
     <use style="fill:#00bfff;fill-opacity:0.4;" x="362.267932" xlink:href="#C0_0_62576a17cc" y="567.259407"/>
    </g>
    <g clip-path="url(#pdc59bf804c)">
     <use style="fill:#00bfff;fill-opacity:0.4;" x="306.815465" xlink:href="#C0_0_62576a17cc" y="596.508798"/>
    </g>
    <g clip-path="url(#pdc59bf804c)">
     <use style="fill:#00bfff;fill-opacity:0.4;" x="308.218306" xlink:href="#C0_0_62576a17cc" y="557.936381"/>
    </g>
    <g clip-path="url(#pdc59bf804c)">
     <use style="fill:#00bfff;fill-opacity:0.4;" x="327.661713" xlink:href="#C0_0_62576a17cc" y="542.121626"/>
    </g>
    <g clip-path="url(#pdc59bf804c)">
     <use style="fill:#00bfff;fill-opacity:0.4;" x="348.95501" xlink:href="#C0_0_62576a17cc" y="549.112536"/>
    </g>
    <g clip-path="url(#pdc59bf804c)">
     <use style="fill:#00bfff;fill-opacity:0.4;" x="355.371626" xlink:href="#C0_0_62576a17cc" y="559.314749"/>
    </g>
    <g clip-path="url(#pdc59bf804c)">
     <use style="fill:#00bfff;fill-opacity:0.4;" x="337.052254" xlink:href="#C0_0_62576a17cc" y="566.858303"/>
    </g>
    <g clip-path="url(#pdc59bf804c)">
     <use style="fill:#00bfff;fill-opacity:0.4;" x="291.722276" xlink:href="#C0_0_62576a17cc" y="542.543516"/>
    </g>
    <g clip-path="url(#pdc59bf804c)">
     <use style="fill:#00bfff;fill-opacity:0.4;" x="313.754439" xlink:href="#C0_0_62576a17cc" y="567.815086"/>
    </g>
    <g clip-path="url(#pdc59bf804c)">
     <use style="fill:#00bfff;fill-opacity:0.4;" x="352.335717" xlink:href="#C0_0_62576a17cc" y="556.902705"/>
    </g>
    <g clip-path="url(#pdc59bf804c)">
     <use style="fill:#00bfff;fill-opacity:0.4;" x="356.413651" xlink:href="#C0_0_62576a17cc" y="552.60374"/>
    </g>
    <g clip-path="url(#pdc59bf804c)">
     <use style="fill:#00bfff;fill-opacity:0.4;" x="310.628742" xlink:href="#C0_0_62576a17cc" y="549.855296"/>
    </g>
    <g clip-path="url(#pdc59bf804c)">
     <use style="fill:#00bfff;fill-opacity:0.4;" x="308.22842" xlink:href="#C0_0_62576a17cc" y="517.040618"/>
    </g>
    <g clip-path="url(#pdc59bf804c)">
     <use style="fill:#00bfff;fill-opacity:0.4;" x="333.590722" xlink:href="#C0_0_62576a17cc" y="509.534954"/>
    </g>
    <g clip-path="url(#pdc59bf804c)">
     <use style="fill:#00bfff;fill-opacity:0.4;" x="333.259264" xlink:href="#C0_0_62576a17cc" y="516.543745"/>
    </g>
    <g clip-path="url(#pdc59bf804c)">
     <use style="fill:#00bfff;fill-opacity:0.4;" x="295.340168" xlink:href="#C0_0_62576a17cc" y="548.518798"/>
    </g>
    <g clip-path="url(#pdc59bf804c)">
     <use style="fill:#00bfff;fill-opacity:0.4;" x="343.748385" xlink:href="#C0_0_62576a17cc" y="525.894817"/>
    </g>
    <g clip-path="url(#pdc59bf804c)">
     <use style="fill:#00bfff;fill-opacity:0.4;" x="364.131674" xlink:href="#C0_0_62576a17cc" y="519.770017"/>
    </g>
    <g clip-path="url(#pdc59bf804c)">
     <use style="fill:#00bfff;fill-opacity:0.4;" x="306.938184" xlink:href="#C0_0_62576a17cc" y="548.129838"/>
    </g>
    <g clip-path="url(#pdc59bf804c)">
     <use style="fill:#00bfff;fill-opacity:0.4;" x="318.738927" xlink:href="#C0_0_62576a17cc" y="539.975649"/>
    </g>
    <g clip-path="url(#pdc59bf804c)">
     <use style="fill:#00bfff;fill-opacity:0.4;" x="358.420039" xlink:href="#C0_0_62576a17cc" y="540.170157"/>
    </g>
    <g clip-path="url(#pdc59bf804c)">
     <use style="fill:#00bfff;fill-opacity:0.4;" x="332.534611" xlink:href="#C0_0_62576a17cc" y="563.464074"/>
    </g>
    <g clip-path="url(#pdc59bf804c)">
     <use style="fill:#00bfff;fill-opacity:0.4;" x="298.895018" xlink:href="#C0_0_62576a17cc" y="544.359998"/>
    </g>
    <g clip-path="url(#pdc59bf804c)">
     <use style="fill:#00bfff;fill-opacity:0.4;" x="292.58775" xlink:href="#C0_0_62576a17cc" y="571.829566"/>
    </g>
    <g clip-path="url(#pdc59bf804c)">
     <use style="fill:#00bfff;fill-opacity:0.4;" x="343.805306" xlink:href="#C0_0_62576a17cc" y="569.228853"/>
    </g>
    <g clip-path="url(#pdc59bf804c)">
     <use style="fill:#00bfff;fill-opacity:0.4;" x="293.854697" xlink:href="#C0_0_62576a17cc" y="567.152031"/>
    </g>
    <g clip-path="url(#pdc59bf804c)">
     <use style="fill:#00bfff;fill-opacity:0.4;" x="324.235801" xlink:href="#C0_0_62576a17cc" y="580.176134"/>
    </g>
    <g clip-path="url(#pdc59bf804c)">
     <use style="fill:#00bfff;fill-opacity:0.4;" x="364.391463" xlink:href="#C0_0_62576a17cc" y="571.766881"/>
    </g>
    <g clip-path="url(#pdc59bf804c)">
     <use style="fill:#00bfff;fill-opacity:0.4;" x="368.315731" xlink:href="#C0_0_62576a17cc" y="554.614662"/>
    </g>
    <g clip-path="url(#pdc59bf804c)">
     <use style="fill:#00bfff;fill-opacity:0.4;" x="324.312832" xlink:href="#C0_0_62576a17cc" y="584.0172"/>
    </g>
    <g clip-path="url(#pdc59bf804c)">
     <use style="fill:#00bfff;fill-opacity:0.4;" x="344.351835" xlink:href="#C0_0_62576a17cc" y="552.870107"/>
    </g>
    <g clip-path="url(#pdc59bf804c)">
     <use style="fill:#00bfff;fill-opacity:0.4;" x="319.779422" xlink:href="#C0_0_62576a17cc" y="595.690062"/>
    </g>
    <g clip-path="url(#pdc59bf804c)">
     <use style="fill:#00bfff;fill-opacity:0.4;" x="366.246418" xlink:href="#C0_0_62576a17cc" y="568.299732"/>
    </g>
    <g clip-path="url(#pdc59bf804c)">
     <use style="fill:#00bfff;fill-opacity:0.4;" x="292.905698" xlink:href="#C0_0_62576a17cc" y="533.739319"/>
    </g>
    <g clip-path="url(#pdc59bf804c)">
     <use style="fill:#00bfff;fill-opacity:0.4;" x="365.558436" xlink:href="#C0_0_62576a17cc" y="539.463477"/>
    </g>
    <g clip-path="url(#pdc59bf804c)">
     <use style="fill:#00bfff;fill-opacity:0.4;" x="309.796568" xlink:href="#C0_0_62576a17cc" y="572.504914"/>
    </g>
    <g clip-path="url(#pdc59bf804c)">
     <use style="fill:#00bfff;fill-opacity:0.4;" x="315.253607" xlink:href="#C0_0_62576a17cc" y="568.196021"/>
    </g>
    <g clip-path="url(#pdc59bf804c)">
     <use style="fill:#00bfff;fill-opacity:0.4;" x="365.999267" xlink:href="#C0_0_62576a17cc" y="563.888862"/>
    </g>
    <g clip-path="url(#pdc59bf804c)">
     <use style="fill:#00bfff;fill-opacity:0.4;" x="364.618574" xlink:href="#C0_0_62576a17cc" y="553.826435"/>
    </g>
    <g clip-path="url(#pdc59bf804c)">
     <use style="fill:#00bfff;fill-opacity:0.4;" x="367.782806" xlink:href="#C0_0_62576a17cc" y="582.603093"/>
    </g>
    <g clip-path="url(#pdc59bf804c)">
     <use style="fill:#00bfff;fill-opacity:0.4;" x="301.548879" xlink:href="#C0_0_62576a17cc" y="559.978832"/>
    </g>
    <g clip-path="url(#pdc59bf804c)">
     <use style="fill:#00bfff;fill-opacity:0.4;" x="322.663312" xlink:href="#C0_0_62576a17cc" y="550.941845"/>
    </g>
    <g clip-path="url(#pdc59bf804c)">
     <use style="fill:#00bfff;fill-opacity:0.4;" x="343.744516" xlink:href="#C0_0_62576a17cc" y="556.711783"/>
    </g>
    <g clip-path="url(#pdc59bf804c)">
     <use style="fill:#0000ff;fill-opacity:0.4;" x="316.916341" xlink:href="#C0_0_62576a17cc" y="538.809806"/>
    </g>
    <g clip-path="url(#pdc59bf804c)">
     <use style="fill:#0000ff;fill-opacity:0.4;" x="307.570044" xlink:href="#C0_0_62576a17cc" y="556.147138"/>
    </g>
    <g clip-path="url(#pdc59bf804c)">
     <use style="fill:#0000ff;fill-opacity:0.4;" x="358.052509" xlink:href="#C0_0_62576a17cc" y="561.484544"/>
    </g>
    <g clip-path="url(#pdc59bf804c)">
     <use style="fill:#0000ff;fill-opacity:0.4;" x="288.842826" xlink:href="#C0_0_62576a17cc" y="544.836446"/>
    </g>
    <g clip-path="url(#pdc59bf804c)">
     <use style="fill:#0000ff;fill-opacity:0.4;" x="365.602257" xlink:href="#C0_0_62576a17cc" y="569.694059"/>
    </g>
    <g clip-path="url(#pdc59bf804c)">
     <use style="fill:#0000ff;fill-opacity:0.4;" x="305.295582" xlink:href="#C0_0_62576a17cc" y="552.046652"/>
    </g>
    <g clip-path="url(#pdc59bf804c)">
     <use style="fill:#0000ff;fill-opacity:0.4;" x="362.533319" xlink:href="#C0_0_62576a17cc" y="544.155652"/>
    </g>
    <g clip-path="url(#pdc59bf804c)">
     <use style="fill:#0000ff;fill-opacity:0.4;" x="307.893343" xlink:href="#C0_0_62576a17cc" y="566.46478"/>
    </g>
    <g clip-path="url(#pdc59bf804c)">
     <use style="fill:#0000ff;fill-opacity:0.4;" x="332.184506" xlink:href="#C0_0_62576a17cc" y="586.490545"/>
    </g>
    <g clip-path="url(#pdc59bf804c)">
     <use style="fill:#0000ff;fill-opacity:0.4;" x="356.979947" xlink:href="#C0_0_62576a17cc" y="572.068826"/>
    </g>
    <g clip-path="url(#pdc59bf804c)">
     <use style="fill:#0000ff;fill-opacity:0.4;" x="320.044248" xlink:href="#C0_0_62576a17cc" y="552.473611"/>
    </g>
    <g clip-path="url(#pdc59bf804c)">
     <use style="fill:#0000ff;fill-opacity:0.4;" x="300.003068" xlink:href="#C0_0_62576a17cc" y="561.200915"/>
    </g>
    <g clip-path="url(#pdc59bf804c)">
     <use style="fill:#0000ff;fill-opacity:0.4;" x="306.417018" xlink:href="#C0_0_62576a17cc" y="539.600537"/>
    </g>
    <g clip-path="url(#pdc59bf804c)">
     <use style="fill:#0000ff;fill-opacity:0.4;" x="341.413804" xlink:href="#C0_0_62576a17cc" y="564.500291"/>
    </g>
    <g clip-path="url(#pdc59bf804c)">
     <use style="fill:#0000ff;fill-opacity:0.4;" x="292.488401" xlink:href="#C0_0_62576a17cc" y="557.858423"/>
    </g>
    <g clip-path="url(#pdc59bf804c)">
     <use style="fill:#0000ff;fill-opacity:0.4;" x="323.814816" xlink:href="#C0_0_62576a17cc" y="580.474739"/>
    </g>
    <g clip-path="url(#pdc59bf804c)">
     <use style="fill:#0000ff;fill-opacity:0.4;" x="362.972991" xlink:href="#C0_0_62576a17cc" y="591.661216"/>
    </g>
    <g clip-path="url(#pdc59bf804c)">
     <use style="fill:#0000ff;fill-opacity:0.4;" x="329.314782" xlink:href="#C0_0_62576a17cc" y="578.800972"/>
    </g>
    <g clip-path="url(#pdc59bf804c)">
     <use style="fill:#0000ff;fill-opacity:0.4;" x="365.846859" xlink:href="#C0_0_62576a17cc" y="592.864142"/>
    </g>
    <g clip-path="url(#pdc59bf804c)">
     <use style="fill:#0000ff;fill-opacity:0.4;" x="323.831792" xlink:href="#C0_0_62576a17cc" y="583.807715"/>
    </g>
    <g clip-path="url(#pdc59bf804c)">
     <use style="fill:#0000ff;fill-opacity:0.4;" x="336.493929" xlink:href="#C0_0_62576a17cc" y="589.129525"/>
    </g>
    <g clip-path="url(#pdc59bf804c)">
     <use style="fill:#0000ff;fill-opacity:0.4;" x="295.041526" xlink:href="#C0_0_62576a17cc" y="591.163101"/>
    </g>
    <g clip-path="url(#pdc59bf804c)">
     <use style="fill:#0000ff;fill-opacity:0.4;" x="369.61962" xlink:href="#C0_0_62576a17cc" y="590.819478"/>
    </g>
    <g clip-path="url(#pdc59bf804c)">
     <use style="fill:#0000ff;fill-opacity:0.4;" x="340.289475" xlink:href="#C0_0_62576a17cc" y="470.301094"/>
    </g>
    <g clip-path="url(#pdc59bf804c)">
     <use style="fill:#0000ff;fill-opacity:0.4;" x="362.477051" xlink:href="#C0_0_62576a17cc" y="440.904618"/>
    </g>
    <g clip-path="url(#pdc59bf804c)">
     <use style="fill:#0000ff;fill-opacity:0.4;" x="326.954458" xlink:href="#C0_0_62576a17cc" y="526.024325"/>
    </g>
    <g clip-path="url(#pdc59bf804c)">
     <use style="fill:#0000ff;fill-opacity:0.4;" x="339.901839" xlink:href="#C0_0_62576a17cc" y="478.346272"/>
    </g>
    <g clip-path="url(#pdc59bf804c)">
     <use style="fill:#0000ff;fill-opacity:0.4;" x="358.425764" xlink:href="#C0_0_62576a17cc" y="526.521867"/>
    </g>
    <g clip-path="url(#pdc59bf804c)">
     <use style="fill:#0000ff;fill-opacity:0.4;" x="352.801912" xlink:href="#C0_0_62576a17cc" y="556.628678"/>
    </g>
    <g clip-path="url(#pdc59bf804c)">
     <use style="fill:#0000ff;fill-opacity:0.4;" x="316.351415" xlink:href="#C0_0_62576a17cc" y="549.0367"/>
    </g>
    <g clip-path="url(#pdc59bf804c)">
     <use style="fill:#0000ff;fill-opacity:0.4;" x="368.272929" xlink:href="#C0_0_62576a17cc" y="569.093632"/>
    </g>
    <g clip-path="url(#pdc59bf804c)">
     <use style="fill:#0000ff;fill-opacity:0.4;" x="344.473998" xlink:href="#C0_0_62576a17cc" y="502.361949"/>
    </g>
    <g clip-path="url(#pdc59bf804c)">
     <use style="fill:#0000ff;fill-opacity:0.4;" x="311.644894" xlink:href="#C0_0_62576a17cc" y="541.483102"/>
    </g>
    <g clip-path="url(#pdc59bf804c)">
     <use style="fill:#0000ff;fill-opacity:0.4;" x="353.64002" xlink:href="#C0_0_62576a17cc" y="546.987381"/>
    </g>
    <g clip-path="url(#pdc59bf804c)">
     <use style="fill:#0000ff;fill-opacity:0.4;" x="322.318571" xlink:href="#C0_0_62576a17cc" y="149.544973"/>
    </g>
    <g clip-path="url(#pdc59bf804c)">
     <use style="fill:#0000ff;fill-opacity:0.4;" x="308.352374" xlink:href="#C0_0_62576a17cc" y="189.779906"/>
    </g>
    <g clip-path="url(#pdc59bf804c)">
     <use style="fill:#0000ff;fill-opacity:0.4;" x="304.590765" xlink:href="#C0_0_62576a17cc" y="117.759367"/>
    </g>
    <g clip-path="url(#pdc59bf804c)">
     <use style="fill:#0000ff;fill-opacity:0.4;" x="327.139599" xlink:href="#C0_0_62576a17cc" y="122.327482"/>
    </g>
    <g clip-path="url(#pdc59bf804c)">
     <use style="fill:#0000ff;fill-opacity:0.4;" x="336.034287" xlink:href="#C0_0_62576a17cc" y="158.170926"/>
    </g>
    <g clip-path="url(#pdc59bf804c)">
     <use style="fill:#0000ff;fill-opacity:0.4;" x="342.91605" xlink:href="#C0_0_62576a17cc" y="195.175188"/>
    </g>
    <g clip-path="url(#pdc59bf804c)">
     <use style="fill:#0000ff;fill-opacity:0.4;" x="328.759374" xlink:href="#C0_0_62576a17cc" y="172.858863"/>
    </g>
    <g clip-path="url(#pdc59bf804c)">
     <use style="fill:#0000ff;fill-opacity:0.4;" x="295.640008" xlink:href="#C0_0_62576a17cc" y="196.516466"/>
    </g>
    <g clip-path="url(#pdc59bf804c)">
     <use style="fill:#0000ff;fill-opacity:0.4;" x="315.368418" xlink:href="#C0_0_62576a17cc" y="179.338286"/>
    </g>
    <g clip-path="url(#pdc59bf804c)">
     <use style="fill:#0000ff;fill-opacity:0.4;" x="355.483641" xlink:href="#C0_0_62576a17cc" y="240.45737"/>
    </g>
    <g clip-path="url(#pdc59bf804c)">
     <use style="fill:#00bfff;fill-opacity:0.4;" x="347.01102" xlink:href="#C0_0_62576a17cc" y="498.161221"/>
    </g>
    <g clip-path="url(#pdc59bf804c)">
     <use style="fill:#00bfff;fill-opacity:0.4;" x="359.203564" xlink:href="#C0_0_62576a17cc" y="559.142757"/>
    </g>
    <g clip-path="url(#pdc59bf804c)">
     <use style="fill:#00bfff;fill-opacity:0.4;" x="347.193524" xlink:href="#C0_0_62576a17cc" y="545.305154"/>
    </g>
    <g clip-path="url(#pdc59bf804c)">
     <use style="fill:#00bfff;fill-opacity:0.4;" x="364.651448" xlink:href="#C0_0_62576a17cc" y="538.958644"/>
    </g>
    <g clip-path="url(#pdc59bf804c)">
     <use style="fill:#00bfff;fill-opacity:0.4;" x="310.548346" xlink:href="#C0_0_62576a17cc" y="548.084163"/>
    </g>
    <g clip-path="url(#pdc59bf804c)">
     <use style="fill:#00bfff;fill-opacity:0.4;" x="311.787806" xlink:href="#C0_0_62576a17cc" y="527.762821"/>
    </g>
    <g clip-path="url(#pdc59bf804c)">
     <use style="fill:#00bfff;fill-opacity:0.4;" x="292.127531" xlink:href="#C0_0_62576a17cc" y="560.144287"/>
    </g>
    <g clip-path="url(#pdc59bf804c)">
     <use style="fill:#00bfff;fill-opacity:0.4;" x="303.176093" xlink:href="#C0_0_62576a17cc" y="561.628689"/>
    </g>
    <g clip-path="url(#pdc59bf804c)">
     <use style="fill:#00bfff;fill-opacity:0.4;" x="300.119075" xlink:href="#C0_0_62576a17cc" y="560.681701"/>
    </g>
    <g clip-path="url(#pdc59bf804c)">
     <use style="fill:#00bfff;fill-opacity:0.4;" x="300.827649" xlink:href="#C0_0_62576a17cc" y="572.731904"/>
    </g>
    <g clip-path="url(#pdc59bf804c)">
     <use style="fill:#00bfff;fill-opacity:0.4;" x="341.890722" xlink:href="#C0_0_62576a17cc" y="558.038135"/>
    </g>
   </g>
   <g id="PathCollection_60">
    <defs>
     <path d="M 0 3.5 
C 0.928211 3.5 1.81853 3.131218 2.474874 2.474874 
C 3.131218 1.81853 3.5 0.928211 3.5 -0 
C 3.5 -0.928211 3.131218 -1.81853 2.474874 -2.474874 
C 1.81853 -3.131218 0.928211 -3.5 0 -3.5 
C -0.928211 -3.5 -1.81853 -3.131218 -2.474874 -2.474874 
C -3.131218 -1.81853 -3.5 -0.928211 -3.5 0 
C -3.5 0.928211 -3.131218 1.81853 -2.474874 2.474874 
C -1.81853 3.131218 -0.928211 3.5 0 3.5 
z
" id="C1_0_480e0c455f"/>
    </defs>
    <g clip-path="url(#pdc59bf804c)">
     <use style="fill:#00bfff;fill-opacity:0.4;" x="788.177577" xlink:href="#C1_0_480e0c455f" y="598.701538"/>
    </g>
    <g clip-path="url(#pdc59bf804c)">
     <use style="fill:#00bfff;fill-opacity:0.4;" x="754.696152" xlink:href="#C1_0_480e0c455f" y="595.916577"/>
    </g>
    <g clip-path="url(#pdc59bf804c)">
     <use style="fill:#00bfff;fill-opacity:0.4;" x="751.53647" xlink:href="#C1_0_480e0c455f" y="598.230387"/>
    </g>
    <g clip-path="url(#pdc59bf804c)">
     <use style="fill:#00bfff;fill-opacity:0.4;" x="729.638713" xlink:href="#C1_0_480e0c455f" y="596.490257"/>
    </g>
    <g clip-path="url(#pdc59bf804c)">
     <use style="fill:#00bfff;fill-opacity:0.4;" x="717.804708" xlink:href="#C1_0_480e0c455f" y="592.164655"/>
    </g>
    <g clip-path="url(#pdc59bf804c)">
     <use style="fill:#00bfff;fill-opacity:0.4;" x="739.023912" xlink:href="#C1_0_480e0c455f" y="588.232732"/>
    </g>
    <g clip-path="url(#pdc59bf804c)">
     <use style="fill:#00bfff;fill-opacity:0.4;" x="725.280205" xlink:href="#C1_0_480e0c455f" y="601.098772"/>
    </g>
    <g clip-path="url(#pdc59bf804c)">
     <use style="fill:#00bfff;fill-opacity:0.4;" x="760.581695" xlink:href="#C1_0_480e0c455f" y="611.941185"/>
    </g>
    <g clip-path="url(#pdc59bf804c)">
     <use style="fill:#00bfff;fill-opacity:0.4;" x="721.163606" xlink:href="#C1_0_480e0c455f" y="598.650107"/>
    </g>
    <g clip-path="url(#pdc59bf804c)">
     <use style="fill:#00bfff;fill-opacity:0.4;" x="715.704565" xlink:href="#C1_0_480e0c455f" y="594.670747"/>
    </g>
    <g clip-path="url(#pdc59bf804c)">
     <use style="fill:#0000ff;fill-opacity:0.4;" x="708.498557" xlink:href="#C1_0_480e0c455f" y="526.89457"/>
    </g>
    <g clip-path="url(#pdc59bf804c)">
     <use style="fill:#0000ff;fill-opacity:0.4;" x="710.331441" xlink:href="#C1_0_480e0c455f" y="531.810825"/>
    </g>
    <g clip-path="url(#pdc59bf804c)">
     <use style="fill:#0000ff;fill-opacity:0.4;" x="743.01548" xlink:href="#C1_0_480e0c455f" y="521.498125"/>
    </g>
    <g clip-path="url(#pdc59bf804c)">
     <use style="fill:#0000ff;fill-opacity:0.4;" x="743.614275" xlink:href="#C1_0_480e0c455f" y="511.745856"/>
    </g>
    <g clip-path="url(#pdc59bf804c)">
     <use style="fill:#0000ff;fill-opacity:0.4;" x="787.117911" xlink:href="#C1_0_480e0c455f" y="575.260373"/>
    </g>
    <g clip-path="url(#pdc59bf804c)">
     <use style="fill:#0000ff;fill-opacity:0.4;" x="753.603396" xlink:href="#C1_0_480e0c455f" y="563.756836"/>
    </g>
    <g clip-path="url(#pdc59bf804c)">
     <use style="fill:#0000ff;fill-opacity:0.4;" x="732.959067" xlink:href="#C1_0_480e0c455f" y="536.89415"/>
    </g>
    <g clip-path="url(#pdc59bf804c)">
     <use style="fill:#0000ff;fill-opacity:0.4;" x="766.503227" xlink:href="#C1_0_480e0c455f" y="525.465688"/>
    </g>
    <g clip-path="url(#pdc59bf804c)">
     <use style="fill:#0000ff;fill-opacity:0.4;" x="756.350371" xlink:href="#C1_0_480e0c455f" y="536.681465"/>
    </g>
    <g clip-path="url(#pdc59bf804c)">
     <use style="fill:#0000ff;fill-opacity:0.4;" x="763.776653" xlink:href="#C1_0_480e0c455f" y="539.367815"/>
    </g>
    <g clip-path="url(#pdc59bf804c)">
     <use style="fill:#0000ff;fill-opacity:0.4;" x="782.331144" xlink:href="#C1_0_480e0c455f" y="470.688703"/>
    </g>
    <g clip-path="url(#pdc59bf804c)">
     <use style="fill:#0000ff;fill-opacity:0.4;" x="730.586499" xlink:href="#C1_0_480e0c455f" y="546.741305"/>
    </g>
    <g clip-path="url(#pdc59bf804c)">
     <use style="fill:#0000ff;fill-opacity:0.4;" x="734.899368" xlink:href="#C1_0_480e0c455f" y="564.277514"/>
    </g>
    <g clip-path="url(#pdc59bf804c)">
     <use style="fill:#0000ff;fill-opacity:0.4;" x="755.778797" xlink:href="#C1_0_480e0c455f" y="569.932991"/>
    </g>
    <g clip-path="url(#pdc59bf804c)">
     <use style="fill:#0000ff;fill-opacity:0.4;" x="740.512135" xlink:href="#C1_0_480e0c455f" y="579.007269"/>
    </g>
    <g clip-path="url(#pdc59bf804c)">
     <use style="fill:#0000ff;fill-opacity:0.4;" x="790.128684" xlink:href="#C1_0_480e0c455f" y="576.903466"/>
    </g>
    <g clip-path="url(#pdc59bf804c)">
     <use style="fill:#0000ff;fill-opacity:0.4;" x="738.659334" xlink:href="#C1_0_480e0c455f" y="558.016153"/>
    </g>
    <g clip-path="url(#pdc59bf804c)">
     <use style="fill:#0000ff;fill-opacity:0.4;" x="764.293931" xlink:href="#C1_0_480e0c455f" y="565.784768"/>
    </g>
    <g clip-path="url(#pdc59bf804c)">
     <use style="fill:#0000ff;fill-opacity:0.4;" x="766.722223" xlink:href="#C1_0_480e0c455f" y="568.737464"/>
    </g>
    <g clip-path="url(#pdc59bf804c)">
     <use style="fill:#0000ff;fill-opacity:0.4;" x="789.165518" xlink:href="#C1_0_480e0c455f" y="575.971538"/>
    </g>
    <g clip-path="url(#pdc59bf804c)">
     <use style="fill:#0000ff;fill-opacity:0.4;" x="745.480992" xlink:href="#C1_0_480e0c455f" y="548.970728"/>
    </g>
    <g clip-path="url(#pdc59bf804c)">
     <use style="fill:#00bfff;fill-opacity:0.4;" x="708.594102" xlink:href="#C1_0_480e0c455f" y="568.833824"/>
    </g>
    <g clip-path="url(#pdc59bf804c)">
     <use style="fill:#00bfff;fill-opacity:0.4;" x="789.557304" xlink:href="#C1_0_480e0c455f" y="540.826589"/>
    </g>
    <g clip-path="url(#pdc59bf804c)">
     <use style="fill:#00bfff;fill-opacity:0.4;" x="781.438664" xlink:href="#C1_0_480e0c455f" y="556.545177"/>
    </g>
    <g clip-path="url(#pdc59bf804c)">
     <use style="fill:#00bfff;fill-opacity:0.4;" x="737.354813" xlink:href="#C1_0_480e0c455f" y="555.981341"/>
    </g>
    <g clip-path="url(#pdc59bf804c)">
     <use style="fill:#00bfff;fill-opacity:0.4;" x="785.7491" xlink:href="#C1_0_480e0c455f" y="484.593701"/>
    </g>
    <g clip-path="url(#pdc59bf804c)">
     <use style="fill:#00bfff;fill-opacity:0.4;" x="751.799245" xlink:href="#C1_0_480e0c455f" y="598.301983"/>
    </g>
    <g clip-path="url(#pdc59bf804c)">
     <use style="fill:#00bfff;fill-opacity:0.4;" x="749.934097" xlink:href="#C1_0_480e0c455f" y="520.534927"/>
    </g>
    <g clip-path="url(#pdc59bf804c)">
     <use style="fill:#00bfff;fill-opacity:0.4;" x="760.386131" xlink:href="#C1_0_480e0c455f" y="580.294806"/>
    </g>
    <g clip-path="url(#pdc59bf804c)">
     <use style="fill:#00bfff;fill-opacity:0.4;" x="725.992092" xlink:href="#C1_0_480e0c455f" y="555.110711"/>
    </g>
    <g clip-path="url(#pdc59bf804c)">
     <use style="fill:#00bfff;fill-opacity:0.4;" x="763.717466" xlink:href="#C1_0_480e0c455f" y="557.569409"/>
    </g>
    <g clip-path="url(#pdc59bf804c)">
     <use style="fill:#00bfff;fill-opacity:0.4;" x="729.00397" xlink:href="#C1_0_480e0c455f" y="527.227325"/>
    </g>
    <g clip-path="url(#pdc59bf804c)">
     <use style="fill:#00bfff;fill-opacity:0.4;" x="764.290298" xlink:href="#C1_0_480e0c455f" y="537.166971"/>
    </g>
    <g clip-path="url(#pdc59bf804c)">
     <use style="fill:#00bfff;fill-opacity:0.4;" x="757.33432" xlink:href="#C1_0_480e0c455f" y="551.685571"/>
    </g>
    <g clip-path="url(#pdc59bf804c)">
     <use style="fill:#00bfff;fill-opacity:0.4;" x="744.169772" xlink:href="#C1_0_480e0c455f" y="569.840014"/>
    </g>
    <g clip-path="url(#pdc59bf804c)">
     <use style="fill:#00bfff;fill-opacity:0.4;" x="710.959359" xlink:href="#C1_0_480e0c455f" y="561.071001"/>
    </g>
    <g clip-path="url(#pdc59bf804c)">
     <use style="fill:#00bfff;fill-opacity:0.4;" x="732.723573" xlink:href="#C1_0_480e0c455f" y="538.985973"/>
    </g>
    <g clip-path="url(#pdc59bf804c)">
     <use style="fill:#00bfff;fill-opacity:0.4;" x="787.599991" xlink:href="#C1_0_480e0c455f" y="514.250024"/>
    </g>
    <g clip-path="url(#pdc59bf804c)">
     <use style="fill:#00bfff;fill-opacity:0.4;" x="717.824032" xlink:href="#C1_0_480e0c455f" y="536.357238"/>
    </g>
    <g clip-path="url(#pdc59bf804c)">
     <use style="fill:#00bfff;fill-opacity:0.4;" x="754.456978" xlink:href="#C1_0_480e0c455f" y="553.952677"/>
    </g>
    <g clip-path="url(#pdc59bf804c)">
     <use style="fill:#00bfff;fill-opacity:0.4;" x="767.127145" xlink:href="#C1_0_480e0c455f" y="551.552908"/>
    </g>
    <g clip-path="url(#pdc59bf804c)">
     <use style="fill:#0000ff;fill-opacity:0.4;" x="719.752029" xlink:href="#C1_0_480e0c455f" y="574.433486"/>
    </g>
    <g clip-path="url(#pdc59bf804c)">
     <use style="fill:#0000ff;fill-opacity:0.4;" x="774.185738" xlink:href="#C1_0_480e0c455f" y="548.144124"/>
    </g>
    <g clip-path="url(#pdc59bf804c)">
     <use style="fill:#0000ff;fill-opacity:0.4;" x="756.294985" xlink:href="#C1_0_480e0c455f" y="591.214552"/>
    </g>
    <g clip-path="url(#pdc59bf804c)">
     <use style="fill:#0000ff;fill-opacity:0.4;" x="773.257033" xlink:href="#C1_0_480e0c455f" y="583.712562"/>
    </g>
    <g clip-path="url(#pdc59bf804c)">
     <use style="fill:#0000ff;fill-opacity:0.4;" x="722.403495" xlink:href="#C1_0_480e0c455f" y="562.772249"/>
    </g>
    <g clip-path="url(#pdc59bf804c)">
     <use style="fill:#0000ff;fill-opacity:0.4;" x="728.012948" xlink:href="#C1_0_480e0c455f" y="540.618074"/>
    </g>
    <g clip-path="url(#pdc59bf804c)">
     <use style="fill:#0000ff;fill-opacity:0.4;" x="718.016212" xlink:href="#C1_0_480e0c455f" y="526.431799"/>
    </g>
    <g clip-path="url(#pdc59bf804c)">
     <use style="fill:#0000ff;fill-opacity:0.4;" x="756.572504" xlink:href="#C1_0_480e0c455f" y="570.571779"/>
    </g>
    <g clip-path="url(#pdc59bf804c)">
     <use style="fill:#0000ff;fill-opacity:0.4;" x="779.658683" xlink:href="#C1_0_480e0c455f" y="543.426552"/>
    </g>
    <g clip-path="url(#pdc59bf804c)">
     <use style="fill:#0000ff;fill-opacity:0.4;" x="776.608047" xlink:href="#C1_0_480e0c455f" y="586.013612"/>
    </g>
    <g clip-path="url(#pdc59bf804c)">
     <use style="fill:#00bfff;fill-opacity:0.4;" x="756.204907" xlink:href="#C1_0_480e0c455f" y="500.484975"/>
    </g>
    <g clip-path="url(#pdc59bf804c)">
     <use style="fill:#00bfff;fill-opacity:0.4;" x="764.072489" xlink:href="#C1_0_480e0c455f" y="560.685605"/>
    </g>
    <g clip-path="url(#pdc59bf804c)">
     <use style="fill:#00bfff;fill-opacity:0.4;" x="773.085591" xlink:href="#C1_0_480e0c455f" y="543.819682"/>
    </g>
    <g clip-path="url(#pdc59bf804c)">
     <use style="fill:#00bfff;fill-opacity:0.4;" x="733.648853" xlink:href="#C1_0_480e0c455f" y="501.15496"/>
    </g>
    <g clip-path="url(#pdc59bf804c)">
     <use style="fill:#00bfff;fill-opacity:0.4;" x="763.736121" xlink:href="#C1_0_480e0c455f" y="528.525776"/>
    </g>
    <g clip-path="url(#pdc59bf804c)">
     <use style="fill:#00bfff;fill-opacity:0.4;" x="719.046611" xlink:href="#C1_0_480e0c455f" y="541.778641"/>
    </g>
    <g clip-path="url(#pdc59bf804c)">
     <use style="fill:#00bfff;fill-opacity:0.4;" x="710.082532" xlink:href="#C1_0_480e0c455f" y="515.076909"/>
    </g>
    <g clip-path="url(#pdc59bf804c)">
     <use style="fill:#00bfff;fill-opacity:0.4;" x="723.77914" xlink:href="#C1_0_480e0c455f" y="553.202493"/>
    </g>
    <g clip-path="url(#pdc59bf804c)">
     <use style="fill:#00bfff;fill-opacity:0.4;" x="775.658597" xlink:href="#C1_0_480e0c455f" y="550.705502"/>
    </g>
    <g clip-path="url(#pdc59bf804c)">
     <use style="fill:#00bfff;fill-opacity:0.4;" x="765.18595" xlink:href="#C1_0_480e0c455f" y="557.899118"/>
    </g>
    <g clip-path="url(#pdc59bf804c)">
     <use style="fill:#00bfff;fill-opacity:0.4;" x="775.066574" xlink:href="#C1_0_480e0c455f" y="524.577203"/>
    </g>
    <g clip-path="url(#pdc59bf804c)">
     <use style="fill:#00bfff;fill-opacity:0.4;" x="715.634376" xlink:href="#C1_0_480e0c455f" y="553.499174"/>
    </g>
    <g clip-path="url(#pdc59bf804c)">
     <use style="fill:#00bfff;fill-opacity:0.4;" x="710.118473" xlink:href="#C1_0_480e0c455f" y="554.841783"/>
    </g>
    <g clip-path="url(#pdc59bf804c)">
     <use style="fill:#00bfff;fill-opacity:0.4;" x="719.325237" xlink:href="#C1_0_480e0c455f" y="569.690265"/>
    </g>
    <g clip-path="url(#pdc59bf804c)">
     <use style="fill:#00bfff;fill-opacity:0.4;" x="768.2395" xlink:href="#C1_0_480e0c455f" y="561.47058"/>
    </g>
    <g clip-path="url(#pdc59bf804c)">
     <use style="fill:#00bfff;fill-opacity:0.4;" x="763.559423" xlink:href="#C1_0_480e0c455f" y="552.541828"/>
    </g>
    <g clip-path="url(#pdc59bf804c)">
     <use style="fill:#00bfff;fill-opacity:0.4;" x="783.983556" xlink:href="#C1_0_480e0c455f" y="579.337369"/>
    </g>
    <g clip-path="url(#pdc59bf804c)">
     <use style="fill:#00bfff;fill-opacity:0.4;" x="719.921639" xlink:href="#C1_0_480e0c455f" y="591.086802"/>
    </g>
    <g clip-path="url(#pdc59bf804c)">
     <use style="fill:#00bfff;fill-opacity:0.4;" x="772.295715" xlink:href="#C1_0_480e0c455f" y="558.706534"/>
    </g>
    <g clip-path="url(#pdc59bf804c)">
     <use style="fill:#00bfff;fill-opacity:0.4;" x="757.728805" xlink:href="#C1_0_480e0c455f" y="592.530156"/>
    </g>
    <g clip-path="url(#pdc59bf804c)">
     <use style="fill:#00bfff;fill-opacity:0.4;" x="789.727899" xlink:href="#C1_0_480e0c455f" y="596.240202"/>
    </g>
    <g clip-path="url(#pdc59bf804c)">
     <use style="fill:#00bfff;fill-opacity:0.4;" x="716.365904" xlink:href="#C1_0_480e0c455f" y="585.824764"/>
    </g>
    <g clip-path="url(#pdc59bf804c)">
     <use style="fill:#00bfff;fill-opacity:0.4;" x="725.224941" xlink:href="#C1_0_480e0c455f" y="522.177802"/>
    </g>
    <g clip-path="url(#pdc59bf804c)">
     <use style="fill:#00bfff;fill-opacity:0.4;" x="734.342234" xlink:href="#C1_0_480e0c455f" y="575.791678"/>
    </g>
    <g clip-path="url(#pdc59bf804c)">
     <use style="fill:#00bfff;fill-opacity:0.4;" x="760.400693" xlink:href="#C1_0_480e0c455f" y="575.901965"/>
    </g>
    <g clip-path="url(#pdc59bf804c)">
     <use style="fill:#00bfff;fill-opacity:0.4;" x="729.078003" xlink:href="#C1_0_480e0c455f" y="546.977358"/>
    </g>
    <g clip-path="url(#pdc59bf804c)">
     <use style="fill:#00bfff;fill-opacity:0.4;" x="712.219168" xlink:href="#C1_0_480e0c455f" y="561.056231"/>
    </g>
    <g clip-path="url(#pdc59bf804c)">
     <use style="fill:#00bfff;fill-opacity:0.4;" x="734.159453" xlink:href="#C1_0_480e0c455f" y="564.677232"/>
    </g>
    <g clip-path="url(#pdc59bf804c)">
     <use style="fill:#00bfff;fill-opacity:0.4;" x="717.774809" xlink:href="#C1_0_480e0c455f" y="579.185649"/>
    </g>
    <g clip-path="url(#pdc59bf804c)">
     <use style="fill:#00bfff;fill-opacity:0.4;" x="721.3736" xlink:href="#C1_0_480e0c455f" y="551.998228"/>
    </g>
    <g clip-path="url(#pdc59bf804c)">
     <use style="fill:#00bfff;fill-opacity:0.4;" x="726.808578" xlink:href="#C1_0_480e0c455f" y="572.926677"/>
    </g>
    <g clip-path="url(#pdc59bf804c)">
     <use style="fill:#00bfff;fill-opacity:0.4;" x="723.756051" xlink:href="#C1_0_480e0c455f" y="555.841523"/>
    </g>
    <g clip-path="url(#pdc59bf804c)">
     <use style="fill:#00bfff;fill-opacity:0.4;" x="773.150866" xlink:href="#C1_0_480e0c455f" y="566.680028"/>
    </g>
    <g clip-path="url(#pdc59bf804c)">
     <use style="fill:#00bfff;fill-opacity:0.4;" x="781.694424" xlink:href="#C1_0_480e0c455f" y="520.6475"/>
    </g>
    <g clip-path="url(#pdc59bf804c)">
     <use style="fill:#00bfff;fill-opacity:0.4;" x="718.663188" xlink:href="#C1_0_480e0c455f" y="538.174018"/>
    </g>
    <g clip-path="url(#pdc59bf804c)">
     <use style="fill:#00bfff;fill-opacity:0.4;" x="728.367418" xlink:href="#C1_0_480e0c455f" y="545.301261"/>
    </g>
    <g clip-path="url(#pdc59bf804c)">
     <use style="fill:#00bfff;fill-opacity:0.4;" x="759.874631" xlink:href="#C1_0_480e0c455f" y="503.879733"/>
    </g>
    <g clip-path="url(#pdc59bf804c)">
     <use style="fill:#00bfff;fill-opacity:0.4;" x="787.319736" xlink:href="#C1_0_480e0c455f" y="508.333008"/>
    </g>
    <g clip-path="url(#pdc59bf804c)">
     <use style="fill:#00bfff;fill-opacity:0.4;" x="730.00182" xlink:href="#C1_0_480e0c455f" y="551.13661"/>
    </g>
    <g clip-path="url(#pdc59bf804c)">
     <use style="fill:#00bfff;fill-opacity:0.4;" x="763.850464" xlink:href="#C1_0_480e0c455f" y="527.90628"/>
    </g>
    <g clip-path="url(#pdc59bf804c)">
     <use style="fill:#00bfff;fill-opacity:0.4;" x="714.686492" xlink:href="#C1_0_480e0c455f" y="552.348379"/>
    </g>
    <g clip-path="url(#pdc59bf804c)">
     <use style="fill:#00bfff;fill-opacity:0.4;" x="737.914728" xlink:href="#C1_0_480e0c455f" y="537.131674"/>
    </g>
    <g clip-path="url(#pdc59bf804c)">
     <use style="fill:#00bfff;fill-opacity:0.4;" x="771.014046" xlink:href="#C1_0_480e0c455f" y="517.75189"/>
    </g>
   </g>
   <g id="line2d_21">
    <defs>
     <path d="M 0 5 
C 1.326016 5 2.597899 4.473168 3.535534 3.535534 
C 4.473168 2.597899 5 1.326016 5 0 
C 5 -1.326016 4.473168 -2.597899 3.535534 -3.535534 
C 2.597899 -4.473168 1.326016 -5 0 -5 
C -1.326016 -5 -2.597899 -4.473168 -3.535534 -3.535534 
C -4.473168 -2.597899 -5 -1.326016 -5 0 
C -5 1.326016 -4.473168 2.597899 -3.535534 3.535534 
C -2.597899 4.473168 -1.326016 5 0 5 
z
" id="m451bcfe718" style="stroke:#2ca02c;"/>
    </defs>
    <g clip-path="url(#pdc59bf804c)">
     <use style="fill:#ff8c00;stroke:#2ca02c;" x="267.19375" xlink:href="#m451bcfe718" y="521.744127"/>
    </g>
   </g>
   <g id="line2d_22">
    <g clip-path="url(#pdc59bf804c)">
     <use style="fill:#ff8c00;stroke:#2ca02c;" x="685.69375" xlink:href="#m451bcfe718" y="555.946889"/>
    </g>
   </g>
   <g id="text_12">
    <!-- ns -->
    <g transform="translate(470.90125 63.935756)scale(0.096 -0.096)">
     <use xlink:href="#DejaVuSans-6e"/>
     <use x="63.378906" xlink:href="#DejaVuSans-73"/>
    </g>
   </g>
   <g id="text_13">
    <!-- ['n=58 Phase: Washout'] -->
    <g transform="translate(685.69375 22.396875)scale(0.2 -0.2)">
     <defs>
      <path d="M 550 4863 
L 1875 4863 
L 1875 4416 
L 1125 4416 
L 1125 -397 
L 1875 -397 
L 1875 -844 
L 550 -844 
L 550 4863 
z
" id="DejaVuSans-5b" transform="scale(0.015625)"/>
      <path d="M 1147 4666 
L 1147 2931 
L 616 2931 
L 616 4666 
L 1147 4666 
z
" id="DejaVuSans-27" transform="scale(0.015625)"/>
      <path d="M 678 2906 
L 4684 2906 
L 4684 2381 
L 678 2381 
L 678 2906 
z
M 678 1631 
L 4684 1631 
L 4684 1100 
L 678 1100 
L 678 1631 
z
" id="DejaVuSans-3d" transform="scale(0.015625)"/>
      <path d="M 2034 2216 
Q 1584 2216 1326 1975 
Q 1069 1734 1069 1313 
Q 1069 891 1326 650 
Q 1584 409 2034 409 
Q 2484 409 2743 651 
Q 3003 894 3003 1313 
Q 3003 1734 2745 1975 
Q 2488 2216 2034 2216 
z
M 1403 2484 
Q 997 2584 770 2862 
Q 544 3141 544 3541 
Q 544 4100 942 4425 
Q 1341 4750 2034 4750 
Q 2731 4750 3128 4425 
Q 3525 4100 3525 3541 
Q 3525 3141 3298 2862 
Q 3072 2584 2669 2484 
Q 3125 2378 3379 2068 
Q 3634 1759 3634 1313 
Q 3634 634 3220 271 
Q 2806 -91 2034 -91 
Q 1263 -91 848 271 
Q 434 634 434 1313 
Q 434 1759 690 2068 
Q 947 2378 1403 2484 
z
M 1172 3481 
Q 1172 3119 1398 2916 
Q 1625 2713 2034 2713 
Q 2441 2713 2670 2916 
Q 2900 3119 2900 3481 
Q 2900 3844 2670 4047 
Q 2441 4250 2034 4250 
Q 1625 4250 1398 4047 
Q 1172 3844 1172 3481 
z
" id="DejaVuSans-38" transform="scale(0.015625)"/>
      <path d="M 1259 4147 
L 1259 2394 
L 2053 2394 
Q 2494 2394 2734 2622 
Q 2975 2850 2975 3272 
Q 2975 3691 2734 3919 
Q 2494 4147 2053 4147 
L 1259 4147 
z
M 628 4666 
L 2053 4666 
Q 2838 4666 3239 4311 
Q 3641 3956 3641 3272 
Q 3641 2581 3239 2228 
Q 2838 1875 2053 1875 
L 1259 1875 
L 1259 0 
L 628 0 
L 628 4666 
z
" id="DejaVuSans-50" transform="scale(0.015625)"/>
      <path d="M 3513 2113 
L 3513 0 
L 2938 0 
L 2938 2094 
Q 2938 2591 2744 2837 
Q 2550 3084 2163 3084 
Q 1697 3084 1428 2787 
Q 1159 2491 1159 1978 
L 1159 0 
L 581 0 
L 581 4863 
L 1159 4863 
L 1159 2956 
Q 1366 3272 1645 3428 
Q 1925 3584 2291 3584 
Q 2894 3584 3203 3211 
Q 3513 2838 3513 2113 
z
" id="DejaVuSans-68" transform="scale(0.015625)"/>
      <path d="M 750 794 
L 1409 794 
L 1409 0 
L 750 0 
L 750 794 
z
M 750 3309 
L 1409 3309 
L 1409 2516 
L 750 2516 
L 750 3309 
z
" id="DejaVuSans-3a" transform="scale(0.015625)"/>
      <path d="M 213 4666 
L 850 4666 
L 1831 722 
L 2809 4666 
L 3519 4666 
L 4500 722 
L 5478 4666 
L 6119 4666 
L 4947 0 
L 4153 0 
L 3169 4050 
L 2175 0 
L 1381 0 
L 213 4666 
z
" id="DejaVuSans-57" transform="scale(0.015625)"/>
      <path d="M 1172 4494 
L 1172 3500 
L 2356 3500 
L 2356 3053 
L 1172 3053 
L 1172 1153 
Q 1172 725 1289 603 
Q 1406 481 1766 481 
L 2356 481 
L 2356 0 
L 1766 0 
Q 1100 0 847 248 
Q 594 497 594 1153 
L 594 3053 
L 172 3053 
L 172 3500 
L 594 3500 
L 594 4494 
L 1172 4494 
z
" id="DejaVuSans-74" transform="scale(0.015625)"/>
      <path d="M 1947 4863 
L 1947 -844 
L 622 -844 
L 622 -397 
L 1369 -397 
L 1369 4416 
L 622 4416 
L 622 4863 
L 1947 4863 
z
" id="DejaVuSans-5d" transform="scale(0.015625)"/>
     </defs>
     <use xlink:href="#DejaVuSans-5b"/>
     <use x="39.013672" xlink:href="#DejaVuSans-27"/>
     <use x="66.503906" xlink:href="#DejaVuSans-6e"/>
     <use x="129.882812" xlink:href="#DejaVuSans-3d"/>
     <use x="213.671875" xlink:href="#DejaVuSans-35"/>
     <use x="277.294922" xlink:href="#DejaVuSans-38"/>
     <use x="340.917969" xlink:href="#DejaVuSans-20"/>
     <use x="372.705078" xlink:href="#DejaVuSans-50"/>
     <use x="433.007812" xlink:href="#DejaVuSans-68"/>
     <use x="496.386719" xlink:href="#DejaVuSans-61"/>
     <use x="557.666016" xlink:href="#DejaVuSans-73"/>
     <use x="609.765625" xlink:href="#DejaVuSans-65"/>
     <use x="671.289062" xlink:href="#DejaVuSans-3a"/>
     <use x="704.980469" xlink:href="#DejaVuSans-20"/>
     <use x="736.767578" xlink:href="#DejaVuSans-57"/>
     <use x="829.269531" xlink:href="#DejaVuSans-61"/>
     <use x="890.548828" xlink:href="#DejaVuSans-73"/>
     <use x="942.648438" xlink:href="#DejaVuSans-68"/>
     <use x="1006.027344" xlink:href="#DejaVuSans-6f"/>
     <use x="1067.208984" xlink:href="#DejaVuSans-75"/>
     <use x="1130.587891" xlink:href="#DejaVuSans-74"/>
     <use x="1169.796875" xlink:href="#DejaVuSans-27"/>
     <use x="1197.287109" xlink:href="#DejaVuSans-5d"/>
    </g>
   </g>
   <g id="patch_5">
    <path clip-path="url(#pdc59bf804c)" d="M 214.88125 567.691701 
L 319.50625 567.691701 
L 319.50625 532.383579 
L 214.88125 532.383579 
L 214.88125 567.691701 
z
" style="fill:none;stroke:#3f3f3f;stroke-linejoin:miter;stroke-width:3;"/>
   </g>
   <g id="patch_6">
    <path clip-path="url(#pdc59bf804c)" d="M 633.38125 576.455179 
L 738.00625 576.455179 
L 738.00625 538.220127 
L 633.38125 538.220127 
L 633.38125 576.455179 
z
" style="fill:none;stroke:#3f3f3f;stroke-linejoin:miter;stroke-width:3;"/>
   </g>
  </g>
 </g>
 <defs>
  <clipPath id="pb76a1dff25">
   <rect height="478.749431" width="95.395514" x="171.798236" y="118.821347"/>
  </clipPath>
  <clipPath id="p30c5c0b5fe">
   <rect height="141.252482" width="167.4" x="518.29375" y="471.750683"/>
  </clipPath>
  <clipPath id="pdc59bf804c">
   <rect height="543.6" width="837" x="57.94375" y="94.112256"/>
  </clipPath>
 </defs>
</svg>
