<?xml version="1.0" encoding="utf-8" standalone="no"?>
<!DOCTYPE svg PUBLIC "-//W3C//DTD SVG 1.1//EN"
  "http://www.w3.org/Graphics/SVG/1.1/DTD/svg11.dtd">
<svg height="266.206125pt" version="1.1" viewBox="0 0 394.643125 266.206125" width="394.643125pt" xmlns="http://www.w3.org/2000/svg" xmlns:xlink="http://www.w3.org/1999/xlink">
 <metadata>
  <rdf:RDF xmlns:cc="http://creativecommons.org/ns#" xmlns:dc="http://purl.org/dc/elements/1.1/" xmlns:rdf="http://www.w3.org/1999/02/22-rdf-syntax-ns#">
   <cc:Work>
    <dc:type rdf:resource="http://purl.org/dc/dcmitype/StillImage"/>
    <dc:date>2022-04-30T15:19:54.543609</dc:date>
    <dc:format>image/svg+xml</dc:format>
    <dc:creator>
     <cc:Agent>
      <dc:title>Matplotlib v3.4.3, https://matplotlib.org/</dc:title>
     </cc:Agent>
    </dc:creator>
   </cc:Work>
  </rdf:RDF>
 </metadata>
 <defs>
  <style type="text/css">*{stroke-linecap:butt;stroke-linejoin:round;}</style>
 </defs>
 <g id="figure_1">
  <g id="patch_1">
   <path d="M 0 266.206125 
L 394.643125 266.206125 
L 394.643125 0 
L 0 0 
z
" style="fill:none;"/>
  </g>
  <g id="axes_1">
   <g id="patch_2">
    <path d="M 52.643125 224.64 
L 387.443125 224.64 
L 387.443125 7.2 
L 52.643125 7.2 
z
" style="fill:#ffffff;"/>
   </g>
   <g id="PathCollection_1">
    <defs>
     <path d="M 0 4.511931 
C 1.196578 4.511931 2.344308 4.036525 3.190417 3.190417 
C 4.036525 2.344308 4.511931 1.196578 4.511931 0 
C 4.511931 -1.196578 4.036525 -2.344308 3.190417 -3.190417 
C 2.344308 -4.036525 1.196578 -4.511931 0 -4.511931 
C -1.196578 -4.511931 -2.344308 -4.036525 -3.190417 -3.190417 
C -4.036525 -2.344308 -4.511931 -1.196578 -4.511931 0 
C -4.511931 1.196578 -4.036525 2.344308 -3.190417 3.190417 
C -2.344308 4.036525 -1.196578 4.511931 0 4.511931 
z
" id="m163f4158c4" style="stroke:#fca082;stroke-width:2.7;"/>
    </defs>
    <g clip-path="url(#p2b720bf66f)">
     <use style="fill:#fca082;stroke:#fca082;stroke-width:2.7;" x="58.415539" xlink:href="#m163f4158c4" y="76.145097"/>
     <use style="fill:#fca082;stroke:#fca082;stroke-width:2.7;" x="69.960366" xlink:href="#m163f4158c4" y="56.414853"/>
     <use style="fill:#fca082;stroke:#fca082;stroke-width:2.7;" x="81.505194" xlink:href="#m163f4158c4" y="66.693513"/>
     <use style="fill:#fca082;stroke:#fca082;stroke-width:2.7;" x="93.050022" xlink:href="#m163f4158c4" y="52.995573"/>
     <use style="fill:#fca082;stroke:#fca082;stroke-width:2.7;" x="104.594849" xlink:href="#m163f4158c4" y="57.923318"/>
     <use style="fill:#fca082;stroke:#fca082;stroke-width:2.7;" x="116.139677" xlink:href="#m163f4158c4" y="54.040275"/>
     <use style="fill:#fca082;stroke:#fca082;stroke-width:2.7;" x="127.684504" xlink:href="#m163f4158c4" y="73.468667"/>
     <use style="fill:#fca082;stroke:#fca082;stroke-width:2.7;" x="139.229332" xlink:href="#m163f4158c4" y="72.599891"/>
     <use style="fill:#fca082;stroke:#fca082;stroke-width:2.7;" x="150.774159" xlink:href="#m163f4158c4" y="74.575838"/>
     <use style="fill:#fca082;stroke:#fca082;stroke-width:2.7;" x="162.318987" xlink:href="#m163f4158c4" y="71.912533"/>
     <use style="fill:#fca082;stroke:#fca082;stroke-width:2.7;" x="173.863815" xlink:href="#m163f4158c4" y="126.055694"/>
     <use style="fill:#fca082;stroke:#fca082;stroke-width:2.7;" x="185.408642" xlink:href="#m163f4158c4" y="124.142835"/>
     <use style="fill:#fca082;stroke:#fca082;stroke-width:2.7;" x="196.95347" xlink:href="#m163f4158c4" y="122.889937"/>
     <use style="fill:#fca082;stroke:#fca082;stroke-width:2.7;" x="208.498297" xlink:href="#m163f4158c4" y="118.26962"/>
     <use style="fill:#fca082;stroke:#fca082;stroke-width:2.7;" x="220.043125" xlink:href="#m163f4158c4" y="114.127137"/>
     <use style="fill:#fca082;stroke:#fca082;stroke-width:2.7;" x="231.587953" xlink:href="#m163f4158c4" y="117.070942"/>
     <use style="fill:#fca082;stroke:#fca082;stroke-width:2.7;" x="243.13278" xlink:href="#m163f4158c4" y="115.052165"/>
     <use style="fill:#fca082;stroke:#fca082;stroke-width:2.7;" x="254.677608" xlink:href="#m163f4158c4" y="115.735097"/>
     <use style="fill:#fca082;stroke:#fca082;stroke-width:2.7;" x="266.222435" xlink:href="#m163f4158c4" y="113.865216"/>
     <use style="fill:#fca082;stroke:#fca082;stroke-width:2.7;" x="277.767263" xlink:href="#m163f4158c4" y="110.455681"/>
     <use style="fill:#fca082;stroke:#fca082;stroke-width:2.7;" x="289.312091" xlink:href="#m163f4158c4" y="110.107029"/>
     <use style="fill:#fca082;stroke:#fca082;stroke-width:2.7;" x="300.856918" xlink:href="#m163f4158c4" y="115.258876"/>
     <use style="fill:#fca082;stroke:#fca082;stroke-width:2.7;" x="312.401746" xlink:href="#m163f4158c4" y="119.210898"/>
     <use style="fill:#fca082;stroke:#fca082;stroke-width:2.7;" x="323.946573" xlink:href="#m163f4158c4" y="125.580532"/>
     <use style="fill:#fca082;stroke:#fca082;stroke-width:2.7;" x="335.491401" xlink:href="#m163f4158c4" y="130.98833"/>
     <use style="fill:#fca082;stroke:#fca082;stroke-width:2.7;" x="347.036228" xlink:href="#m163f4158c4" y="133.817728"/>
     <use style="fill:#fca082;stroke:#fca082;stroke-width:2.7;" x="358.581056" xlink:href="#m163f4158c4" y="138.472987"/>
     <use style="fill:#fca082;stroke:#fca082;stroke-width:2.7;" x="370.125884" xlink:href="#m163f4158c4" y="141.400632"/>
     <use style="fill:#fca082;stroke:#fca082;stroke-width:2.7;" x="381.670711" xlink:href="#m163f4158c4" y="149.564528"/>
    </g>
   </g>
   <g id="line2d_1">
    <path clip-path="url(#p2b720bf66f)" d="M 58.415539 76.145097 
L 69.960366 56.414853 
L 81.505194 66.693513 
L 93.050022 52.995573 
L 104.594849 57.923318 
L 116.139677 54.040275 
L 127.684504 73.468667 
L 139.229332 72.599891 
L 150.774159 74.575838 
L 162.318987 71.912533 
L 173.863815 126.055694 
L 185.408642 124.142835 
L 196.95347 122.889937 
L 208.498297 118.26962 
L 220.043125 114.127137 
L 231.587953 117.070942 
L 243.13278 115.052165 
L 254.677608 115.735097 
L 266.222435 113.865216 
L 277.767263 110.455681 
L 289.312091 110.107029 
L 300.856918 115.258876 
L 312.401746 119.210898 
L 323.946573 125.580532 
L 335.491401 130.98833 
L 347.036228 133.817728 
L 358.581056 138.472987 
L 370.125884 141.400632 
L 381.670711 149.564528 
" style="fill:none;stroke:#fca082;stroke-linecap:square;stroke-width:3.6;"/>
   </g>
   <g id="line2d_2">
    <path clip-path="url(#p2b720bf66f)" d="M 58.415539 102.066276 
L 58.415539 49.634619 
" style="fill:none;stroke:#fca082;stroke-linecap:square;stroke-width:3.6;"/>
   </g>
   <g id="line2d_3">
    <path clip-path="url(#p2b720bf66f)" d="M 69.960366 84.731287 
L 69.960366 28.367501 
" style="fill:none;stroke:#fca082;stroke-linecap:square;stroke-width:3.6;"/>
   </g>
   <g id="line2d_4">
    <path clip-path="url(#p2b720bf66f)" d="M 81.505194 88.885403 
L 81.505194 45.151069 
" style="fill:none;stroke:#fca082;stroke-linecap:square;stroke-width:3.6;"/>
   </g>
   <g id="line2d_5">
    <path clip-path="url(#p2b720bf66f)" d="M 93.050022 80.891345 
L 93.050022 24.519433 
" style="fill:none;stroke:#fca082;stroke-linecap:square;stroke-width:3.6;"/>
   </g>
   <g id="line2d_6">
    <path clip-path="url(#p2b720bf66f)" d="M 104.594849 91.250438 
L 104.594849 27.596498 
" style="fill:none;stroke:#fca082;stroke-linecap:square;stroke-width:3.6;"/>
   </g>
   <g id="line2d_7">
    <path clip-path="url(#p2b720bf66f)" d="M 116.139677 92.992831 
L 116.139677 17.083636 
" style="fill:none;stroke:#fca082;stroke-linecap:square;stroke-width:3.6;"/>
   </g>
   <g id="line2d_8">
    <path clip-path="url(#p2b720bf66f)" d="M 127.684504 101.225548 
L 127.684504 38.9343 
" style="fill:none;stroke:#fca082;stroke-linecap:square;stroke-width:3.6;"/>
   </g>
   <g id="line2d_9">
    <path clip-path="url(#p2b720bf66f)" d="M 139.229332 104.620797 
L 139.229332 34.836229 
" style="fill:none;stroke:#fca082;stroke-linecap:square;stroke-width:3.6;"/>
   </g>
   <g id="line2d_10">
    <path clip-path="url(#p2b720bf66f)" d="M 150.774159 116.809946 
L 150.774159 34.117163 
" style="fill:none;stroke:#fca082;stroke-linecap:square;stroke-width:3.6;"/>
   </g>
   <g id="line2d_11">
    <path clip-path="url(#p2b720bf66f)" d="M 162.318987 123.011617 
L 162.318987 21.318153 
" style="fill:none;stroke:#fca082;stroke-linecap:square;stroke-width:3.6;"/>
   </g>
   <g id="line2d_12">
    <path clip-path="url(#p2b720bf66f)" d="M 173.863815 150.305731 
L 173.863815 102.634017 
" style="fill:none;stroke:#fca082;stroke-linecap:square;stroke-width:3.6;"/>
   </g>
   <g id="line2d_13">
    <path clip-path="url(#p2b720bf66f)" d="M 185.408642 151.651682 
L 185.408642 99.379675 
" style="fill:none;stroke:#fca082;stroke-linecap:square;stroke-width:3.6;"/>
   </g>
   <g id="line2d_14">
    <path clip-path="url(#p2b720bf66f)" d="M 196.95347 151.086788 
L 196.95347 96.960683 
" style="fill:none;stroke:#fca082;stroke-linecap:square;stroke-width:3.6;"/>
   </g>
   <g id="line2d_15">
    <path clip-path="url(#p2b720bf66f)" d="M 208.498297 145.15413 
L 208.498297 91.865136 
" style="fill:none;stroke:#fca082;stroke-linecap:square;stroke-width:3.6;"/>
   </g>
   <g id="line2d_16">
    <path clip-path="url(#p2b720bf66f)" d="M 220.043125 140.48156 
L 220.043125 85.700397 
" style="fill:none;stroke:#fca082;stroke-linecap:square;stroke-width:3.6;"/>
   </g>
   <g id="line2d_17">
    <path clip-path="url(#p2b720bf66f)" d="M 231.587953 144.815172 
L 231.587953 87.301335 
" style="fill:none;stroke:#fca082;stroke-linecap:square;stroke-width:3.6;"/>
   </g>
   <g id="line2d_18">
    <path clip-path="url(#p2b720bf66f)" d="M 243.13278 143.599202 
L 243.13278 87.721082 
" style="fill:none;stroke:#fca082;stroke-linecap:square;stroke-width:3.6;"/>
   </g>
   <g id="line2d_19">
    <path clip-path="url(#p2b720bf66f)" d="M 254.677608 145.817127 
L 254.677608 86.555066 
" style="fill:none;stroke:#fca082;stroke-linecap:square;stroke-width:3.6;"/>
   </g>
   <g id="line2d_20">
    <path clip-path="url(#p2b720bf66f)" d="M 266.222435 145.390291 
L 266.222435 79.962353 
" style="fill:none;stroke:#fca082;stroke-linecap:square;stroke-width:3.6;"/>
   </g>
   <g id="line2d_21">
    <path clip-path="url(#p2b720bf66f)" d="M 277.767263 144.272212 
L 277.767263 80.203758 
" style="fill:none;stroke:#fca082;stroke-linecap:square;stroke-width:3.6;"/>
   </g>
   <g id="line2d_22">
    <path clip-path="url(#p2b720bf66f)" d="M 289.312091 145.307109 
L 289.312091 76.611109 
" style="fill:none;stroke:#fca082;stroke-linecap:square;stroke-width:3.6;"/>
   </g>
   <g id="line2d_23">
    <path clip-path="url(#p2b720bf66f)" d="M 300.856918 150.457907 
L 300.856918 80.824383 
" style="fill:none;stroke:#fca082;stroke-linecap:square;stroke-width:3.6;"/>
   </g>
   <g id="line2d_24">
    <path clip-path="url(#p2b720bf66f)" d="M 312.401746 153.893962 
L 312.401746 82.71403 
" style="fill:none;stroke:#fca082;stroke-linecap:square;stroke-width:3.6;"/>
   </g>
   <g id="line2d_25">
    <path clip-path="url(#p2b720bf66f)" d="M 323.946573 162.996126 
L 323.946573 86.02983 
" style="fill:none;stroke:#fca082;stroke-linecap:square;stroke-width:3.6;"/>
   </g>
   <g id="line2d_26">
    <path clip-path="url(#p2b720bf66f)" d="M 335.491401 168.13591 
L 335.491401 89.993416 
" style="fill:none;stroke:#fca082;stroke-linecap:square;stroke-width:3.6;"/>
   </g>
   <g id="line2d_27">
    <path clip-path="url(#p2b720bf66f)" d="M 347.036228 175.378914 
L 347.036228 94.197364 
" style="fill:none;stroke:#fca082;stroke-linecap:square;stroke-width:3.6;"/>
   </g>
   <g id="line2d_28">
    <path clip-path="url(#p2b720bf66f)" d="M 358.581056 178.88973 
L 358.581056 95.2262 
" style="fill:none;stroke:#fca082;stroke-linecap:square;stroke-width:3.6;"/>
   </g>
   <g id="line2d_29">
    <path clip-path="url(#p2b720bf66f)" d="M 370.125884 187.654644 
L 370.125884 94.077689 
" style="fill:none;stroke:#fca082;stroke-linecap:square;stroke-width:3.6;"/>
   </g>
   <g id="line2d_30">
    <path clip-path="url(#p2b720bf66f)" d="M 381.670711 196.16405 
L 381.670711 103.886355 
" style="fill:none;stroke:#fca082;stroke-linecap:square;stroke-width:3.6;"/>
   </g>
   <g id="matplotlib.axis_1">
    <g id="xtick_1">
     <g id="line2d_31">
      <defs>
       <path d="M 0 0 
L 0 4.8 
" id="m2056853254" style="stroke:#000000;"/>
      </defs>
      <g>
       <use style="stroke:#000000;" x="58.415539" xlink:href="#m2056853254" y="224.64"/>
      </g>
     </g>
     <g id="text_1">
      <!-- 14 -->
      <g transform="translate(52.816539 239.626625)scale(0.088 -0.088)">
       <defs>
        <path d="M 794 531 
L 1825 531 
L 1825 4091 
L 703 3866 
L 703 4441 
L 1819 4666 
L 2450 4666 
L 2450 531 
L 3481 531 
L 3481 0 
L 794 0 
L 794 531 
z
" id="DejaVuSans-31" transform="scale(0.015625)"/>
        <path d="M 2419 4116 
L 825 1625 
L 2419 1625 
L 2419 4116 
z
M 2253 4666 
L 3047 4666 
L 3047 1625 
L 3713 1625 
L 3713 1100 
L 3047 1100 
L 3047 0 
L 2419 0 
L 2419 1100 
L 313 1100 
L 313 1709 
L 2253 4666 
z
" id="DejaVuSans-34" transform="scale(0.015625)"/>
       </defs>
       <use xlink:href="#DejaVuSans-31"/>
       <use x="63.623047" xlink:href="#DejaVuSans-34"/>
      </g>
     </g>
    </g>
    <g id="xtick_2">
     <g id="line2d_32">
      <g>
       <use style="stroke:#000000;" x="69.960366" xlink:href="#m2056853254" y="224.64"/>
      </g>
     </g>
     <g id="text_2">
      <!-- 15 -->
      <g transform="translate(64.361366 239.626625)scale(0.088 -0.088)">
       <defs>
        <path d="M 691 4666 
L 3169 4666 
L 3169 4134 
L 1269 4134 
L 1269 2991 
Q 1406 3038 1543 3061 
Q 1681 3084 1819 3084 
Q 2600 3084 3056 2656 
Q 3513 2228 3513 1497 
Q 3513 744 3044 326 
Q 2575 -91 1722 -91 
Q 1428 -91 1123 -41 
Q 819 9 494 109 
L 494 744 
Q 775 591 1075 516 
Q 1375 441 1709 441 
Q 2250 441 2565 725 
Q 2881 1009 2881 1497 
Q 2881 1984 2565 2268 
Q 2250 2553 1709 2553 
Q 1456 2553 1204 2497 
Q 953 2441 691 2322 
L 691 4666 
z
" id="DejaVuSans-35" transform="scale(0.015625)"/>
       </defs>
       <use xlink:href="#DejaVuSans-31"/>
       <use x="63.623047" xlink:href="#DejaVuSans-35"/>
      </g>
     </g>
    </g>
    <g id="xtick_3">
     <g id="line2d_33">
      <g>
       <use style="stroke:#000000;" x="81.505194" xlink:href="#m2056853254" y="224.64"/>
      </g>
     </g>
     <g id="text_3">
      <!-- 16 -->
      <g transform="translate(75.906194 239.626625)scale(0.088 -0.088)">
       <defs>
        <path d="M 2113 2584 
Q 1688 2584 1439 2293 
Q 1191 2003 1191 1497 
Q 1191 994 1439 701 
Q 1688 409 2113 409 
Q 2538 409 2786 701 
Q 3034 994 3034 1497 
Q 3034 2003 2786 2293 
Q 2538 2584 2113 2584 
z
M 3366 4563 
L 3366 3988 
Q 3128 4100 2886 4159 
Q 2644 4219 2406 4219 
Q 1781 4219 1451 3797 
Q 1122 3375 1075 2522 
Q 1259 2794 1537 2939 
Q 1816 3084 2150 3084 
Q 2853 3084 3261 2657 
Q 3669 2231 3669 1497 
Q 3669 778 3244 343 
Q 2819 -91 2113 -91 
Q 1303 -91 875 529 
Q 447 1150 447 2328 
Q 447 3434 972 4092 
Q 1497 4750 2381 4750 
Q 2619 4750 2861 4703 
Q 3103 4656 3366 4563 
z
" id="DejaVuSans-36" transform="scale(0.015625)"/>
       </defs>
       <use xlink:href="#DejaVuSans-31"/>
       <use x="63.623047" xlink:href="#DejaVuSans-36"/>
      </g>
     </g>
    </g>
    <g id="xtick_4">
     <g id="line2d_34">
      <g>
       <use style="stroke:#000000;" x="93.050022" xlink:href="#m2056853254" y="224.64"/>
      </g>
     </g>
     <g id="text_4">
      <!-- 17 -->
      <g transform="translate(87.451022 239.626625)scale(0.088 -0.088)">
       <defs>
        <path d="M 525 4666 
L 3525 4666 
L 3525 4397 
L 1831 0 
L 1172 0 
L 2766 4134 
L 525 4134 
L 525 4666 
z
" id="DejaVuSans-37" transform="scale(0.015625)"/>
       </defs>
       <use xlink:href="#DejaVuSans-31"/>
       <use x="63.623047" xlink:href="#DejaVuSans-37"/>
      </g>
     </g>
    </g>
    <g id="xtick_5">
     <g id="line2d_35">
      <g>
       <use style="stroke:#000000;" x="104.594849" xlink:href="#m2056853254" y="224.64"/>
      </g>
     </g>
     <g id="text_5">
      <!-- 18 -->
      <g transform="translate(98.995849 239.626625)scale(0.088 -0.088)">
       <defs>
        <path d="M 2034 2216 
Q 1584 2216 1326 1975 
Q 1069 1734 1069 1313 
Q 1069 891 1326 650 
Q 1584 409 2034 409 
Q 2484 409 2743 651 
Q 3003 894 3003 1313 
Q 3003 1734 2745 1975 
Q 2488 2216 2034 2216 
z
M 1403 2484 
Q 997 2584 770 2862 
Q 544 3141 544 3541 
Q 544 4100 942 4425 
Q 1341 4750 2034 4750 
Q 2731 4750 3128 4425 
Q 3525 4100 3525 3541 
Q 3525 3141 3298 2862 
Q 3072 2584 2669 2484 
Q 3125 2378 3379 2068 
Q 3634 1759 3634 1313 
Q 3634 634 3220 271 
Q 2806 -91 2034 -91 
Q 1263 -91 848 271 
Q 434 634 434 1313 
Q 434 1759 690 2068 
Q 947 2378 1403 2484 
z
M 1172 3481 
Q 1172 3119 1398 2916 
Q 1625 2713 2034 2713 
Q 2441 2713 2670 2916 
Q 2900 3119 2900 3481 
Q 2900 3844 2670 4047 
Q 2441 4250 2034 4250 
Q 1625 4250 1398 4047 
Q 1172 3844 1172 3481 
z
" id="DejaVuSans-38" transform="scale(0.015625)"/>
       </defs>
       <use xlink:href="#DejaVuSans-31"/>
       <use x="63.623047" xlink:href="#DejaVuSans-38"/>
      </g>
     </g>
    </g>
    <g id="xtick_6">
     <g id="line2d_36">
      <g>
       <use style="stroke:#000000;" x="116.139677" xlink:href="#m2056853254" y="224.64"/>
      </g>
     </g>
     <g id="text_6">
      <!-- 19 -->
      <g transform="translate(110.540677 239.626625)scale(0.088 -0.088)">
       <defs>
        <path d="M 703 97 
L 703 672 
Q 941 559 1184 500 
Q 1428 441 1663 441 
Q 2288 441 2617 861 
Q 2947 1281 2994 2138 
Q 2813 1869 2534 1725 
Q 2256 1581 1919 1581 
Q 1219 1581 811 2004 
Q 403 2428 403 3163 
Q 403 3881 828 4315 
Q 1253 4750 1959 4750 
Q 2769 4750 3195 4129 
Q 3622 3509 3622 2328 
Q 3622 1225 3098 567 
Q 2575 -91 1691 -91 
Q 1453 -91 1209 -44 
Q 966 3 703 97 
z
M 1959 2075 
Q 2384 2075 2632 2365 
Q 2881 2656 2881 3163 
Q 2881 3666 2632 3958 
Q 2384 4250 1959 4250 
Q 1534 4250 1286 3958 
Q 1038 3666 1038 3163 
Q 1038 2656 1286 2365 
Q 1534 2075 1959 2075 
z
" id="DejaVuSans-39" transform="scale(0.015625)"/>
       </defs>
       <use xlink:href="#DejaVuSans-31"/>
       <use x="63.623047" xlink:href="#DejaVuSans-39"/>
      </g>
     </g>
    </g>
    <g id="xtick_7">
     <g id="line2d_37">
      <g>
       <use style="stroke:#000000;" x="127.684504" xlink:href="#m2056853254" y="224.64"/>
      </g>
     </g>
     <g id="text_7">
      <!-- 20 -->
      <g transform="translate(122.085504 239.626625)scale(0.088 -0.088)">
       <defs>
        <path d="M 1228 531 
L 3431 531 
L 3431 0 
L 469 0 
L 469 531 
Q 828 903 1448 1529 
Q 2069 2156 2228 2338 
Q 2531 2678 2651 2914 
Q 2772 3150 2772 3378 
Q 2772 3750 2511 3984 
Q 2250 4219 1831 4219 
Q 1534 4219 1204 4116 
Q 875 4013 500 3803 
L 500 4441 
Q 881 4594 1212 4672 
Q 1544 4750 1819 4750 
Q 2544 4750 2975 4387 
Q 3406 4025 3406 3419 
Q 3406 3131 3298 2873 
Q 3191 2616 2906 2266 
Q 2828 2175 2409 1742 
Q 1991 1309 1228 531 
z
" id="DejaVuSans-32" transform="scale(0.015625)"/>
        <path d="M 2034 4250 
Q 1547 4250 1301 3770 
Q 1056 3291 1056 2328 
Q 1056 1369 1301 889 
Q 1547 409 2034 409 
Q 2525 409 2770 889 
Q 3016 1369 3016 2328 
Q 3016 3291 2770 3770 
Q 2525 4250 2034 4250 
z
M 2034 4750 
Q 2819 4750 3233 4129 
Q 3647 3509 3647 2328 
Q 3647 1150 3233 529 
Q 2819 -91 2034 -91 
Q 1250 -91 836 529 
Q 422 1150 422 2328 
Q 422 3509 836 4129 
Q 1250 4750 2034 4750 
z
" id="DejaVuSans-30" transform="scale(0.015625)"/>
       </defs>
       <use xlink:href="#DejaVuSans-32"/>
       <use x="63.623047" xlink:href="#DejaVuSans-30"/>
      </g>
     </g>
    </g>
    <g id="xtick_8">
     <g id="line2d_38">
      <g>
       <use style="stroke:#000000;" x="139.229332" xlink:href="#m2056853254" y="224.64"/>
      </g>
     </g>
     <g id="text_8">
      <!-- 21 -->
      <g transform="translate(133.630332 239.626625)scale(0.088 -0.088)">
       <use xlink:href="#DejaVuSans-32"/>
       <use x="63.623047" xlink:href="#DejaVuSans-31"/>
      </g>
     </g>
    </g>
    <g id="xtick_9">
     <g id="line2d_39">
      <g>
       <use style="stroke:#000000;" x="150.774159" xlink:href="#m2056853254" y="224.64"/>
      </g>
     </g>
     <g id="text_9">
      <!-- 22 -->
      <g transform="translate(145.175159 239.626625)scale(0.088 -0.088)">
       <use xlink:href="#DejaVuSans-32"/>
       <use x="63.623047" xlink:href="#DejaVuSans-32"/>
      </g>
     </g>
    </g>
    <g id="xtick_10">
     <g id="line2d_40">
      <g>
       <use style="stroke:#000000;" x="162.318987" xlink:href="#m2056853254" y="224.64"/>
      </g>
     </g>
     <g id="text_10">
      <!-- 23 -->
      <g transform="translate(156.719987 239.626625)scale(0.088 -0.088)">
       <defs>
        <path d="M 2597 2516 
Q 3050 2419 3304 2112 
Q 3559 1806 3559 1356 
Q 3559 666 3084 287 
Q 2609 -91 1734 -91 
Q 1441 -91 1130 -33 
Q 819 25 488 141 
L 488 750 
Q 750 597 1062 519 
Q 1375 441 1716 441 
Q 2309 441 2620 675 
Q 2931 909 2931 1356 
Q 2931 1769 2642 2001 
Q 2353 2234 1838 2234 
L 1294 2234 
L 1294 2753 
L 1863 2753 
Q 2328 2753 2575 2939 
Q 2822 3125 2822 3475 
Q 2822 3834 2567 4026 
Q 2313 4219 1838 4219 
Q 1578 4219 1281 4162 
Q 984 4106 628 3988 
L 628 4550 
Q 988 4650 1302 4700 
Q 1616 4750 1894 4750 
Q 2613 4750 3031 4423 
Q 3450 4097 3450 3541 
Q 3450 3153 3228 2886 
Q 3006 2619 2597 2516 
z
" id="DejaVuSans-33" transform="scale(0.015625)"/>
       </defs>
       <use xlink:href="#DejaVuSans-32"/>
       <use x="63.623047" xlink:href="#DejaVuSans-33"/>
      </g>
     </g>
    </g>
    <g id="xtick_11">
     <g id="line2d_41">
      <g>
       <use style="stroke:#000000;" x="173.863815" xlink:href="#m2056853254" y="224.64"/>
      </g>
     </g>
     <g id="text_11">
      <!-- 24 -->
      <g transform="translate(168.264815 239.626625)scale(0.088 -0.088)">
       <use xlink:href="#DejaVuSans-32"/>
       <use x="63.623047" xlink:href="#DejaVuSans-34"/>
      </g>
     </g>
    </g>
    <g id="xtick_12">
     <g id="line2d_42">
      <g>
       <use style="stroke:#000000;" x="185.408642" xlink:href="#m2056853254" y="224.64"/>
      </g>
     </g>
     <g id="text_12">
      <!-- 25 -->
      <g transform="translate(179.809642 239.626625)scale(0.088 -0.088)">
       <use xlink:href="#DejaVuSans-32"/>
       <use x="63.623047" xlink:href="#DejaVuSans-35"/>
      </g>
     </g>
    </g>
    <g id="xtick_13">
     <g id="line2d_43">
      <g>
       <use style="stroke:#000000;" x="196.95347" xlink:href="#m2056853254" y="224.64"/>
      </g>
     </g>
     <g id="text_13">
      <!-- 26 -->
      <g transform="translate(191.35447 239.626625)scale(0.088 -0.088)">
       <use xlink:href="#DejaVuSans-32"/>
       <use x="63.623047" xlink:href="#DejaVuSans-36"/>
      </g>
     </g>
    </g>
    <g id="xtick_14">
     <g id="line2d_44">
      <g>
       <use style="stroke:#000000;" x="208.498297" xlink:href="#m2056853254" y="224.64"/>
      </g>
     </g>
     <g id="text_14">
      <!-- 27 -->
      <g transform="translate(202.899297 239.626625)scale(0.088 -0.088)">
       <use xlink:href="#DejaVuSans-32"/>
       <use x="63.623047" xlink:href="#DejaVuSans-37"/>
      </g>
     </g>
    </g>
    <g id="xtick_15">
     <g id="line2d_45">
      <g>
       <use style="stroke:#000000;" x="220.043125" xlink:href="#m2056853254" y="224.64"/>
      </g>
     </g>
     <g id="text_15">
      <!-- 28 -->
      <g transform="translate(214.444125 239.626625)scale(0.088 -0.088)">
       <use xlink:href="#DejaVuSans-32"/>
       <use x="63.623047" xlink:href="#DejaVuSans-38"/>
      </g>
     </g>
    </g>
    <g id="xtick_16">
     <g id="line2d_46">
      <g>
       <use style="stroke:#000000;" x="231.587953" xlink:href="#m2056853254" y="224.64"/>
      </g>
     </g>
     <g id="text_16">
      <!-- 29 -->
      <g transform="translate(225.988953 239.626625)scale(0.088 -0.088)">
       <use xlink:href="#DejaVuSans-32"/>
       <use x="63.623047" xlink:href="#DejaVuSans-39"/>
      </g>
     </g>
    </g>
    <g id="xtick_17">
     <g id="line2d_47">
      <g>
       <use style="stroke:#000000;" x="243.13278" xlink:href="#m2056853254" y="224.64"/>
      </g>
     </g>
     <g id="text_17">
      <!-- 30 -->
      <g transform="translate(237.53378 239.626625)scale(0.088 -0.088)">
       <use xlink:href="#DejaVuSans-33"/>
       <use x="63.623047" xlink:href="#DejaVuSans-30"/>
      </g>
     </g>
    </g>
    <g id="xtick_18">
     <g id="line2d_48">
      <g>
       <use style="stroke:#000000;" x="254.677608" xlink:href="#m2056853254" y="224.64"/>
      </g>
     </g>
     <g id="text_18">
      <!-- 31 -->
      <g transform="translate(249.078608 239.626625)scale(0.088 -0.088)">
       <use xlink:href="#DejaVuSans-33"/>
       <use x="63.623047" xlink:href="#DejaVuSans-31"/>
      </g>
     </g>
    </g>
    <g id="xtick_19">
     <g id="line2d_49">
      <g>
       <use style="stroke:#000000;" x="266.222435" xlink:href="#m2056853254" y="224.64"/>
      </g>
     </g>
     <g id="text_19">
      <!-- 32 -->
      <g transform="translate(260.623435 239.626625)scale(0.088 -0.088)">
       <use xlink:href="#DejaVuSans-33"/>
       <use x="63.623047" xlink:href="#DejaVuSans-32"/>
      </g>
     </g>
    </g>
    <g id="xtick_20">
     <g id="line2d_50">
      <g>
       <use style="stroke:#000000;" x="277.767263" xlink:href="#m2056853254" y="224.64"/>
      </g>
     </g>
     <g id="text_20">
      <!-- 33 -->
      <g transform="translate(272.168263 239.626625)scale(0.088 -0.088)">
       <use xlink:href="#DejaVuSans-33"/>
       <use x="63.623047" xlink:href="#DejaVuSans-33"/>
      </g>
     </g>
    </g>
    <g id="xtick_21">
     <g id="line2d_51">
      <g>
       <use style="stroke:#000000;" x="289.312091" xlink:href="#m2056853254" y="224.64"/>
      </g>
     </g>
     <g id="text_21">
      <!-- 34 -->
      <g transform="translate(283.713091 239.626625)scale(0.088 -0.088)">
       <use xlink:href="#DejaVuSans-33"/>
       <use x="63.623047" xlink:href="#DejaVuSans-34"/>
      </g>
     </g>
    </g>
    <g id="xtick_22">
     <g id="line2d_52">
      <g>
       <use style="stroke:#000000;" x="300.856918" xlink:href="#m2056853254" y="224.64"/>
      </g>
     </g>
     <g id="text_22">
      <!-- 35 -->
      <g transform="translate(295.257918 239.626625)scale(0.088 -0.088)">
       <use xlink:href="#DejaVuSans-33"/>
       <use x="63.623047" xlink:href="#DejaVuSans-35"/>
      </g>
     </g>
    </g>
    <g id="xtick_23">
     <g id="line2d_53">
      <g>
       <use style="stroke:#000000;" x="312.401746" xlink:href="#m2056853254" y="224.64"/>
      </g>
     </g>
     <g id="text_23">
      <!-- 36 -->
      <g transform="translate(306.802746 239.626625)scale(0.088 -0.088)">
       <use xlink:href="#DejaVuSans-33"/>
       <use x="63.623047" xlink:href="#DejaVuSans-36"/>
      </g>
     </g>
    </g>
    <g id="xtick_24">
     <g id="line2d_54">
      <g>
       <use style="stroke:#000000;" x="323.946573" xlink:href="#m2056853254" y="224.64"/>
      </g>
     </g>
     <g id="text_24">
      <!-- 37 -->
      <g transform="translate(318.347573 239.626625)scale(0.088 -0.088)">
       <use xlink:href="#DejaVuSans-33"/>
       <use x="63.623047" xlink:href="#DejaVuSans-37"/>
      </g>
     </g>
    </g>
    <g id="xtick_25">
     <g id="line2d_55">
      <g>
       <use style="stroke:#000000;" x="335.491401" xlink:href="#m2056853254" y="224.64"/>
      </g>
     </g>
     <g id="text_25">
      <!-- 38 -->
      <g transform="translate(329.892401 239.626625)scale(0.088 -0.088)">
       <use xlink:href="#DejaVuSans-33"/>
       <use x="63.623047" xlink:href="#DejaVuSans-38"/>
      </g>
     </g>
    </g>
    <g id="xtick_26">
     <g id="line2d_56">
      <g>
       <use style="stroke:#000000;" x="347.036228" xlink:href="#m2056853254" y="224.64"/>
      </g>
     </g>
     <g id="text_26">
      <!-- 39 -->
      <g transform="translate(341.437228 239.626625)scale(0.088 -0.088)">
       <use xlink:href="#DejaVuSans-33"/>
       <use x="63.623047" xlink:href="#DejaVuSans-39"/>
      </g>
     </g>
    </g>
    <g id="xtick_27">
     <g id="line2d_57">
      <g>
       <use style="stroke:#000000;" x="358.581056" xlink:href="#m2056853254" y="224.64"/>
      </g>
     </g>
     <g id="text_27">
      <!-- 40 -->
      <g transform="translate(352.982056 239.626625)scale(0.088 -0.088)">
       <use xlink:href="#DejaVuSans-34"/>
       <use x="63.623047" xlink:href="#DejaVuSans-30"/>
      </g>
     </g>
    </g>
    <g id="xtick_28">
     <g id="line2d_58">
      <g>
       <use style="stroke:#000000;" x="370.125884" xlink:href="#m2056853254" y="224.64"/>
      </g>
     </g>
     <g id="text_28">
      <!-- 41 -->
      <g transform="translate(364.526884 239.626625)scale(0.088 -0.088)">
       <use xlink:href="#DejaVuSans-34"/>
       <use x="63.623047" xlink:href="#DejaVuSans-31"/>
      </g>
     </g>
    </g>
    <g id="xtick_29">
     <g id="line2d_59">
      <g>
       <use style="stroke:#000000;" x="381.670711" xlink:href="#m2056853254" y="224.64"/>
      </g>
     </g>
     <g id="text_29">
      <!-- 42 -->
      <g transform="translate(376.071711 239.626625)scale(0.088 -0.088)">
       <use xlink:href="#DejaVuSans-34"/>
       <use x="63.623047" xlink:href="#DejaVuSans-32"/>
      </g>
     </g>
    </g>
    <g id="text_30">
     <!-- Adaptation Stage -->
     <g transform="translate(159.303906 256.094562)scale(0.14 -0.14)">
      <defs>
       <path d="M 2188 4044 
L 1331 1722 
L 3047 1722 
L 2188 4044 
z
M 1831 4666 
L 2547 4666 
L 4325 0 
L 3669 0 
L 3244 1197 
L 1141 1197 
L 716 0 
L 50 0 
L 1831 4666 
z
" id="DejaVuSans-41" transform="scale(0.015625)"/>
       <path d="M 2906 2969 
L 2906 4863 
L 3481 4863 
L 3481 0 
L 2906 0 
L 2906 525 
Q 2725 213 2448 61 
Q 2172 -91 1784 -91 
Q 1150 -91 751 415 
Q 353 922 353 1747 
Q 353 2572 751 3078 
Q 1150 3584 1784 3584 
Q 2172 3584 2448 3432 
Q 2725 3281 2906 2969 
z
M 947 1747 
Q 947 1113 1208 752 
Q 1469 391 1925 391 
Q 2381 391 2643 752 
Q 2906 1113 2906 1747 
Q 2906 2381 2643 2742 
Q 2381 3103 1925 3103 
Q 1469 3103 1208 2742 
Q 947 2381 947 1747 
z
" id="DejaVuSans-64" transform="scale(0.015625)"/>
       <path d="M 2194 1759 
Q 1497 1759 1228 1600 
Q 959 1441 959 1056 
Q 959 750 1161 570 
Q 1363 391 1709 391 
Q 2188 391 2477 730 
Q 2766 1069 2766 1631 
L 2766 1759 
L 2194 1759 
z
M 3341 1997 
L 3341 0 
L 2766 0 
L 2766 531 
Q 2569 213 2275 61 
Q 1981 -91 1556 -91 
Q 1019 -91 701 211 
Q 384 513 384 1019 
Q 384 1609 779 1909 
Q 1175 2209 1959 2209 
L 2766 2209 
L 2766 2266 
Q 2766 2663 2505 2880 
Q 2244 3097 1772 3097 
Q 1472 3097 1187 3025 
Q 903 2953 641 2809 
L 641 3341 
Q 956 3463 1253 3523 
Q 1550 3584 1831 3584 
Q 2591 3584 2966 3190 
Q 3341 2797 3341 1997 
z
" id="DejaVuSans-61" transform="scale(0.015625)"/>
       <path d="M 1159 525 
L 1159 -1331 
L 581 -1331 
L 581 3500 
L 1159 3500 
L 1159 2969 
Q 1341 3281 1617 3432 
Q 1894 3584 2278 3584 
Q 2916 3584 3314 3078 
Q 3713 2572 3713 1747 
Q 3713 922 3314 415 
Q 2916 -91 2278 -91 
Q 1894 -91 1617 61 
Q 1341 213 1159 525 
z
M 3116 1747 
Q 3116 2381 2855 2742 
Q 2594 3103 2138 3103 
Q 1681 3103 1420 2742 
Q 1159 2381 1159 1747 
Q 1159 1113 1420 752 
Q 1681 391 2138 391 
Q 2594 391 2855 752 
Q 3116 1113 3116 1747 
z
" id="DejaVuSans-70" transform="scale(0.015625)"/>
       <path d="M 1172 4494 
L 1172 3500 
L 2356 3500 
L 2356 3053 
L 1172 3053 
L 1172 1153 
Q 1172 725 1289 603 
Q 1406 481 1766 481 
L 2356 481 
L 2356 0 
L 1766 0 
Q 1100 0 847 248 
Q 594 497 594 1153 
L 594 3053 
L 172 3053 
L 172 3500 
L 594 3500 
L 594 4494 
L 1172 4494 
z
" id="DejaVuSans-74" transform="scale(0.015625)"/>
       <path d="M 603 3500 
L 1178 3500 
L 1178 0 
L 603 0 
L 603 3500 
z
M 603 4863 
L 1178 4863 
L 1178 4134 
L 603 4134 
L 603 4863 
z
" id="DejaVuSans-69" transform="scale(0.015625)"/>
       <path d="M 1959 3097 
Q 1497 3097 1228 2736 
Q 959 2375 959 1747 
Q 959 1119 1226 758 
Q 1494 397 1959 397 
Q 2419 397 2687 759 
Q 2956 1122 2956 1747 
Q 2956 2369 2687 2733 
Q 2419 3097 1959 3097 
z
M 1959 3584 
Q 2709 3584 3137 3096 
Q 3566 2609 3566 1747 
Q 3566 888 3137 398 
Q 2709 -91 1959 -91 
Q 1206 -91 779 398 
Q 353 888 353 1747 
Q 353 2609 779 3096 
Q 1206 3584 1959 3584 
z
" id="DejaVuSans-6f" transform="scale(0.015625)"/>
       <path d="M 3513 2113 
L 3513 0 
L 2938 0 
L 2938 2094 
Q 2938 2591 2744 2837 
Q 2550 3084 2163 3084 
Q 1697 3084 1428 2787 
Q 1159 2491 1159 1978 
L 1159 0 
L 581 0 
L 581 3500 
L 1159 3500 
L 1159 2956 
Q 1366 3272 1645 3428 
Q 1925 3584 2291 3584 
Q 2894 3584 3203 3211 
Q 3513 2838 3513 2113 
z
" id="DejaVuSans-6e" transform="scale(0.015625)"/>
       <path id="DejaVuSans-20" transform="scale(0.015625)"/>
       <path d="M 3425 4513 
L 3425 3897 
Q 3066 4069 2747 4153 
Q 2428 4238 2131 4238 
Q 1616 4238 1336 4038 
Q 1056 3838 1056 3469 
Q 1056 3159 1242 3001 
Q 1428 2844 1947 2747 
L 2328 2669 
Q 3034 2534 3370 2195 
Q 3706 1856 3706 1288 
Q 3706 609 3251 259 
Q 2797 -91 1919 -91 
Q 1588 -91 1214 -16 
Q 841 59 441 206 
L 441 856 
Q 825 641 1194 531 
Q 1563 422 1919 422 
Q 2459 422 2753 634 
Q 3047 847 3047 1241 
Q 3047 1584 2836 1778 
Q 2625 1972 2144 2069 
L 1759 2144 
Q 1053 2284 737 2584 
Q 422 2884 422 3419 
Q 422 4038 858 4394 
Q 1294 4750 2059 4750 
Q 2388 4750 2728 4690 
Q 3069 4631 3425 4513 
z
" id="DejaVuSans-53" transform="scale(0.015625)"/>
       <path d="M 2906 1791 
Q 2906 2416 2648 2759 
Q 2391 3103 1925 3103 
Q 1463 3103 1205 2759 
Q 947 2416 947 1791 
Q 947 1169 1205 825 
Q 1463 481 1925 481 
Q 2391 481 2648 825 
Q 2906 1169 2906 1791 
z
M 3481 434 
Q 3481 -459 3084 -895 
Q 2688 -1331 1869 -1331 
Q 1566 -1331 1297 -1286 
Q 1028 -1241 775 -1147 
L 775 -588 
Q 1028 -725 1275 -790 
Q 1522 -856 1778 -856 
Q 2344 -856 2625 -561 
Q 2906 -266 2906 331 
L 2906 616 
Q 2728 306 2450 153 
Q 2172 0 1784 0 
Q 1141 0 747 490 
Q 353 981 353 1791 
Q 353 2603 747 3093 
Q 1141 3584 1784 3584 
Q 2172 3584 2450 3431 
Q 2728 3278 2906 2969 
L 2906 3500 
L 3481 3500 
L 3481 434 
z
" id="DejaVuSans-67" transform="scale(0.015625)"/>
       <path d="M 3597 1894 
L 3597 1613 
L 953 1613 
Q 991 1019 1311 708 
Q 1631 397 2203 397 
Q 2534 397 2845 478 
Q 3156 559 3463 722 
L 3463 178 
Q 3153 47 2828 -22 
Q 2503 -91 2169 -91 
Q 1331 -91 842 396 
Q 353 884 353 1716 
Q 353 2575 817 3079 
Q 1281 3584 2069 3584 
Q 2775 3584 3186 3129 
Q 3597 2675 3597 1894 
z
M 3022 2063 
Q 3016 2534 2758 2815 
Q 2500 3097 2075 3097 
Q 1594 3097 1305 2825 
Q 1016 2553 972 2059 
L 3022 2063 
z
" id="DejaVuSans-65" transform="scale(0.015625)"/>
      </defs>
      <use xlink:href="#DejaVuSans-41"/>
      <use x="66.658203" xlink:href="#DejaVuSans-64"/>
      <use x="130.134766" xlink:href="#DejaVuSans-61"/>
      <use x="191.414062" xlink:href="#DejaVuSans-70"/>
      <use x="254.890625" xlink:href="#DejaVuSans-74"/>
      <use x="294.099609" xlink:href="#DejaVuSans-61"/>
      <use x="355.378906" xlink:href="#DejaVuSans-74"/>
      <use x="394.587891" xlink:href="#DejaVuSans-69"/>
      <use x="422.371094" xlink:href="#DejaVuSans-6f"/>
      <use x="483.552734" xlink:href="#DejaVuSans-6e"/>
      <use x="546.931641" xlink:href="#DejaVuSans-20"/>
      <use x="578.71875" xlink:href="#DejaVuSans-53"/>
      <use x="642.195312" xlink:href="#DejaVuSans-74"/>
      <use x="681.404297" xlink:href="#DejaVuSans-61"/>
      <use x="742.683594" xlink:href="#DejaVuSans-67"/>
      <use x="806.160156" xlink:href="#DejaVuSans-65"/>
     </g>
    </g>
   </g>
   <g id="matplotlib.axis_2">
    <g id="ytick_1">
     <g id="line2d_60">
      <defs>
       <path d="M 0 0 
L -4.8 0 
" id="m9282655746" style="stroke:#000000;"/>
      </defs>
      <g>
       <use style="stroke:#000000;" x="52.643125" xlink:href="#m9282655746" y="213.585928"/>
      </g>
     </g>
     <g id="text_31">
      <!-- 17.5 -->
      <g transform="translate(24.749375 216.92924)scale(0.088 -0.088)">
       <defs>
        <path d="M 684 794 
L 1344 794 
L 1344 0 
L 684 0 
L 684 794 
z
" id="DejaVuSans-2e" transform="scale(0.015625)"/>
       </defs>
       <use xlink:href="#DejaVuSans-31"/>
       <use x="63.623047" xlink:href="#DejaVuSans-37"/>
       <use x="127.246094" xlink:href="#DejaVuSans-2e"/>
       <use x="159.033203" xlink:href="#DejaVuSans-35"/>
      </g>
     </g>
    </g>
    <g id="ytick_2">
     <g id="line2d_61">
      <g>
       <use style="stroke:#000000;" x="52.643125" xlink:href="#m9282655746" y="185.712892"/>
      </g>
     </g>
     <g id="text_32">
      <!-- 20.0 -->
      <g transform="translate(24.749375 189.056205)scale(0.088 -0.088)">
       <use xlink:href="#DejaVuSans-32"/>
       <use x="63.623047" xlink:href="#DejaVuSans-30"/>
       <use x="127.246094" xlink:href="#DejaVuSans-2e"/>
       <use x="159.033203" xlink:href="#DejaVuSans-30"/>
      </g>
     </g>
    </g>
    <g id="ytick_3">
     <g id="line2d_62">
      <g>
       <use style="stroke:#000000;" x="52.643125" xlink:href="#m9282655746" y="157.839856"/>
      </g>
     </g>
     <g id="text_33">
      <!-- 22.5 -->
      <g transform="translate(24.749375 161.183169)scale(0.088 -0.088)">
       <use xlink:href="#DejaVuSans-32"/>
       <use x="63.623047" xlink:href="#DejaVuSans-32"/>
       <use x="127.246094" xlink:href="#DejaVuSans-2e"/>
       <use x="159.033203" xlink:href="#DejaVuSans-35"/>
      </g>
     </g>
    </g>
    <g id="ytick_4">
     <g id="line2d_63">
      <g>
       <use style="stroke:#000000;" x="52.643125" xlink:href="#m9282655746" y="129.966821"/>
      </g>
     </g>
     <g id="text_34">
      <!-- 25.0 -->
      <g transform="translate(24.749375 133.310133)scale(0.088 -0.088)">
       <use xlink:href="#DejaVuSans-32"/>
       <use x="63.623047" xlink:href="#DejaVuSans-35"/>
       <use x="127.246094" xlink:href="#DejaVuSans-2e"/>
       <use x="159.033203" xlink:href="#DejaVuSans-30"/>
      </g>
     </g>
    </g>
    <g id="ytick_5">
     <g id="line2d_64">
      <g>
       <use style="stroke:#000000;" x="52.643125" xlink:href="#m9282655746" y="102.093785"/>
      </g>
     </g>
     <g id="text_35">
      <!-- 27.5 -->
      <g transform="translate(24.749375 105.437098)scale(0.088 -0.088)">
       <use xlink:href="#DejaVuSans-32"/>
       <use x="63.623047" xlink:href="#DejaVuSans-37"/>
       <use x="127.246094" xlink:href="#DejaVuSans-2e"/>
       <use x="159.033203" xlink:href="#DejaVuSans-35"/>
      </g>
     </g>
    </g>
    <g id="ytick_6">
     <g id="line2d_65">
      <g>
       <use style="stroke:#000000;" x="52.643125" xlink:href="#m9282655746" y="74.22075"/>
      </g>
     </g>
     <g id="text_36">
      <!-- 30.0 -->
      <g transform="translate(24.749375 77.564062)scale(0.088 -0.088)">
       <use xlink:href="#DejaVuSans-33"/>
       <use x="63.623047" xlink:href="#DejaVuSans-30"/>
       <use x="127.246094" xlink:href="#DejaVuSans-2e"/>
       <use x="159.033203" xlink:href="#DejaVuSans-30"/>
      </g>
     </g>
    </g>
    <g id="ytick_7">
     <g id="line2d_66">
      <g>
       <use style="stroke:#000000;" x="52.643125" xlink:href="#m9282655746" y="46.347714"/>
      </g>
     </g>
     <g id="text_37">
      <!-- 32.5 -->
      <g transform="translate(24.749375 49.691027)scale(0.088 -0.088)">
       <use xlink:href="#DejaVuSans-33"/>
       <use x="63.623047" xlink:href="#DejaVuSans-32"/>
       <use x="127.246094" xlink:href="#DejaVuSans-2e"/>
       <use x="159.033203" xlink:href="#DejaVuSans-35"/>
      </g>
     </g>
    </g>
    <g id="ytick_8">
     <g id="line2d_67">
      <g>
       <use style="stroke:#000000;" x="52.643125" xlink:href="#m9282655746" y="18.474678"/>
      </g>
     </g>
     <g id="text_38">
      <!-- 35.0 -->
      <g transform="translate(24.749375 21.817991)scale(0.088 -0.088)">
       <use xlink:href="#DejaVuSans-33"/>
       <use x="63.623047" xlink:href="#DejaVuSans-35"/>
       <use x="127.246094" xlink:href="#DejaVuSans-2e"/>
       <use x="159.033203" xlink:href="#DejaVuSans-30"/>
      </g>
     </g>
    </g>
    <g id="text_39">
     <!-- MAE (Degrees) -->
     <g transform="translate(17.837812 167.980312)rotate(-90)scale(0.14 -0.14)">
      <defs>
       <path d="M 628 4666 
L 1569 4666 
L 2759 1491 
L 3956 4666 
L 4897 4666 
L 4897 0 
L 4281 0 
L 4281 4097 
L 3078 897 
L 2444 897 
L 1241 4097 
L 1241 0 
L 628 0 
L 628 4666 
z
" id="DejaVuSans-4d" transform="scale(0.015625)"/>
       <path d="M 628 4666 
L 3578 4666 
L 3578 4134 
L 1259 4134 
L 1259 2753 
L 3481 2753 
L 3481 2222 
L 1259 2222 
L 1259 531 
L 3634 531 
L 3634 0 
L 628 0 
L 628 4666 
z
" id="DejaVuSans-45" transform="scale(0.015625)"/>
       <path d="M 1984 4856 
Q 1566 4138 1362 3434 
Q 1159 2731 1159 2009 
Q 1159 1288 1364 580 
Q 1569 -128 1984 -844 
L 1484 -844 
Q 1016 -109 783 600 
Q 550 1309 550 2009 
Q 550 2706 781 3412 
Q 1013 4119 1484 4856 
L 1984 4856 
z
" id="DejaVuSans-28" transform="scale(0.015625)"/>
       <path d="M 1259 4147 
L 1259 519 
L 2022 519 
Q 2988 519 3436 956 
Q 3884 1394 3884 2338 
Q 3884 3275 3436 3711 
Q 2988 4147 2022 4147 
L 1259 4147 
z
M 628 4666 
L 1925 4666 
Q 3281 4666 3915 4102 
Q 4550 3538 4550 2338 
Q 4550 1131 3912 565 
Q 3275 0 1925 0 
L 628 0 
L 628 4666 
z
" id="DejaVuSans-44" transform="scale(0.015625)"/>
       <path d="M 2631 2963 
Q 2534 3019 2420 3045 
Q 2306 3072 2169 3072 
Q 1681 3072 1420 2755 
Q 1159 2438 1159 1844 
L 1159 0 
L 581 0 
L 581 3500 
L 1159 3500 
L 1159 2956 
Q 1341 3275 1631 3429 
Q 1922 3584 2338 3584 
Q 2397 3584 2469 3576 
Q 2541 3569 2628 3553 
L 2631 2963 
z
" id="DejaVuSans-72" transform="scale(0.015625)"/>
       <path d="M 2834 3397 
L 2834 2853 
Q 2591 2978 2328 3040 
Q 2066 3103 1784 3103 
Q 1356 3103 1142 2972 
Q 928 2841 928 2578 
Q 928 2378 1081 2264 
Q 1234 2150 1697 2047 
L 1894 2003 
Q 2506 1872 2764 1633 
Q 3022 1394 3022 966 
Q 3022 478 2636 193 
Q 2250 -91 1575 -91 
Q 1294 -91 989 -36 
Q 684 19 347 128 
L 347 722 
Q 666 556 975 473 
Q 1284 391 1588 391 
Q 1994 391 2212 530 
Q 2431 669 2431 922 
Q 2431 1156 2273 1281 
Q 2116 1406 1581 1522 
L 1381 1569 
Q 847 1681 609 1914 
Q 372 2147 372 2553 
Q 372 3047 722 3315 
Q 1072 3584 1716 3584 
Q 2034 3584 2315 3537 
Q 2597 3491 2834 3397 
z
" id="DejaVuSans-73" transform="scale(0.015625)"/>
       <path d="M 513 4856 
L 1013 4856 
Q 1481 4119 1714 3412 
Q 1947 2706 1947 2009 
Q 1947 1309 1714 600 
Q 1481 -109 1013 -844 
L 513 -844 
Q 928 -128 1133 580 
Q 1338 1288 1338 2009 
Q 1338 2731 1133 3434 
Q 928 4138 513 4856 
z
" id="DejaVuSans-29" transform="scale(0.015625)"/>
      </defs>
      <use xlink:href="#DejaVuSans-4d"/>
      <use x="86.279297" xlink:href="#DejaVuSans-41"/>
      <use x="154.6875" xlink:href="#DejaVuSans-45"/>
      <use x="217.871094" xlink:href="#DejaVuSans-20"/>
      <use x="249.658203" xlink:href="#DejaVuSans-28"/>
      <use x="288.671875" xlink:href="#DejaVuSans-44"/>
      <use x="365.673828" xlink:href="#DejaVuSans-65"/>
      <use x="427.197266" xlink:href="#DejaVuSans-67"/>
      <use x="490.673828" xlink:href="#DejaVuSans-72"/>
      <use x="529.537109" xlink:href="#DejaVuSans-65"/>
      <use x="591.060547" xlink:href="#DejaVuSans-65"/>
      <use x="652.583984" xlink:href="#DejaVuSans-73"/>
      <use x="704.683594" xlink:href="#DejaVuSans-29"/>
     </g>
    </g>
   </g>
   <g id="PathCollection_2">
    <defs>
     <path d="M 0 4.511931 
C 1.196578 4.511931 2.344308 4.036525 3.190417 3.190417 
C 4.036525 2.344308 4.511931 1.196578 4.511931 0 
C 4.511931 -1.196578 4.036525 -2.344308 3.190417 -3.190417 
C 2.344308 -4.036525 1.196578 -4.511931 0 -4.511931 
C -1.196578 -4.511931 -2.344308 -4.036525 -3.190417 -3.190417 
C -4.036525 -2.344308 -4.511931 -1.196578 -4.511931 0 
C -4.511931 1.196578 -4.036525 2.344308 -3.190417 3.190417 
C -2.344308 4.036525 -1.196578 4.511931 0 4.511931 
z
" id="me97a0dbf28" style="stroke:#e32f27;stroke-width:2.7;"/>
    </defs>
    <g clip-path="url(#p2b720bf66f)">
     <use style="fill:#e32f27;stroke:#e32f27;stroke-width:2.7;" x="58.415539" xlink:href="#me97a0dbf28" y="131.084926"/>
     <use style="fill:#e32f27;stroke:#e32f27;stroke-width:2.7;" x="69.960366" xlink:href="#me97a0dbf28" y="121.245813"/>
     <use style="fill:#e32f27;stroke:#e32f27;stroke-width:2.7;" x="81.505194" xlink:href="#me97a0dbf28" y="110.574491"/>
     <use style="fill:#e32f27;stroke:#e32f27;stroke-width:2.7;" x="93.050022" xlink:href="#me97a0dbf28" y="88.63394"/>
     <use style="fill:#e32f27;stroke:#e32f27;stroke-width:2.7;" x="104.594849" xlink:href="#me97a0dbf28" y="97.63664"/>
     <use style="fill:#e32f27;stroke:#e32f27;stroke-width:2.7;" x="116.139677" xlink:href="#me97a0dbf28" y="96.906216"/>
     <use style="fill:#e32f27;stroke:#e32f27;stroke-width:2.7;" x="127.684504" xlink:href="#me97a0dbf28" y="87.981512"/>
     <use style="fill:#e32f27;stroke:#e32f27;stroke-width:2.7;" x="139.229332" xlink:href="#me97a0dbf28" y="81.907127"/>
     <use style="fill:#e32f27;stroke:#e32f27;stroke-width:2.7;" x="150.774159" xlink:href="#me97a0dbf28" y="85.870759"/>
     <use style="fill:#e32f27;stroke:#e32f27;stroke-width:2.7;" x="162.318987" xlink:href="#me97a0dbf28" y="137.850803"/>
     <use style="fill:#e32f27;stroke:#e32f27;stroke-width:2.7;" x="173.863815" xlink:href="#me97a0dbf28" y="142.230408"/>
     <use style="fill:#e32f27;stroke:#e32f27;stroke-width:2.7;" x="185.408642" xlink:href="#me97a0dbf28" y="144.65509"/>
     <use style="fill:#e32f27;stroke:#e32f27;stroke-width:2.7;" x="196.95347" xlink:href="#me97a0dbf28" y="146.110595"/>
     <use style="fill:#e32f27;stroke:#e32f27;stroke-width:2.7;" x="208.498297" xlink:href="#me97a0dbf28" y="145.174981"/>
     <use style="fill:#e32f27;stroke:#e32f27;stroke-width:2.7;" x="220.043125" xlink:href="#me97a0dbf28" y="145.914836"/>
     <use style="fill:#e32f27;stroke:#e32f27;stroke-width:2.7;" x="231.587953" xlink:href="#me97a0dbf28" y="148.322791"/>
     <use style="fill:#e32f27;stroke:#e32f27;stroke-width:2.7;" x="243.13278" xlink:href="#me97a0dbf28" y="154.077083"/>
     <use style="fill:#e32f27;stroke:#e32f27;stroke-width:2.7;" x="254.677608" xlink:href="#me97a0dbf28" y="164.337437"/>
     <use style="fill:#e32f27;stroke:#e32f27;stroke-width:2.7;" x="266.222435" xlink:href="#me97a0dbf28" y="169.709762"/>
     <use style="fill:#e32f27;stroke:#e32f27;stroke-width:2.7;" x="277.767263" xlink:href="#me97a0dbf28" y="165.855572"/>
     <use style="fill:#e32f27;stroke:#e32f27;stroke-width:2.7;" x="289.312091" xlink:href="#me97a0dbf28" y="167.699876"/>
     <use style="fill:#e32f27;stroke:#e32f27;stroke-width:2.7;" x="300.856918" xlink:href="#me97a0dbf28" y="166.659989"/>
     <use style="fill:#e32f27;stroke:#e32f27;stroke-width:2.7;" x="312.401746" xlink:href="#me97a0dbf28" y="163.510528"/>
     <use style="fill:#e32f27;stroke:#e32f27;stroke-width:2.7;" x="323.946573" xlink:href="#me97a0dbf28" y="166.996064"/>
     <use style="fill:#e32f27;stroke:#e32f27;stroke-width:2.7;" x="335.491401" xlink:href="#me97a0dbf28" y="166.935064"/>
     <use style="fill:#e32f27;stroke:#e32f27;stroke-width:2.7;" x="347.036228" xlink:href="#me97a0dbf28" y="172.278403"/>
     <use style="fill:#e32f27;stroke:#e32f27;stroke-width:2.7;" x="358.581056" xlink:href="#me97a0dbf28" y="180.376449"/>
     <use style="fill:#e32f27;stroke:#e32f27;stroke-width:2.7;" x="370.125884" xlink:href="#me97a0dbf28" y="185.791458"/>
     <use style="fill:#e32f27;stroke:#e32f27;stroke-width:2.7;" x="381.670711" xlink:href="#me97a0dbf28" y="193.455811"/>
    </g>
   </g>
   <g id="line2d_68">
    <path clip-path="url(#p2b720bf66f)" d="M 58.415539 131.084926 
L 69.960366 121.245813 
L 81.505194 110.574491 
L 93.050022 88.63394 
L 104.594849 97.63664 
L 116.139677 96.906216 
L 127.684504 87.981512 
L 139.229332 81.907127 
L 150.774159 85.870759 
L 162.318987 137.850803 
L 173.863815 142.230408 
L 185.408642 144.65509 
L 196.95347 146.110595 
L 208.498297 145.174981 
L 220.043125 145.914836 
L 231.587953 148.322791 
L 243.13278 154.077083 
L 254.677608 164.337437 
L 266.222435 169.709762 
L 277.767263 165.855572 
L 289.312091 167.699876 
L 300.856918 166.659989 
L 312.401746 163.510528 
L 323.946573 166.996064 
L 335.491401 166.935064 
L 347.036228 172.278403 
L 358.581056 180.376449 
L 370.125884 185.791458 
L 381.670711 193.455811 
" style="fill:none;stroke:#e32f27;stroke-linecap:square;stroke-width:3.6;"/>
   </g>
   <g id="line2d_69">
    <path clip-path="url(#p2b720bf66f)" d="M 58.415539 155.213669 
L 58.415539 105.654121 
" style="fill:none;stroke:#e32f27;stroke-linecap:square;stroke-width:3.6;"/>
   </g>
   <g id="line2d_70">
    <path clip-path="url(#p2b720bf66f)" d="M 69.960366 147.042646 
L 69.960366 98.231913 
" style="fill:none;stroke:#e32f27;stroke-linecap:square;stroke-width:3.6;"/>
   </g>
   <g id="line2d_71">
    <path clip-path="url(#p2b720bf66f)" d="M 81.505194 139.465413 
L 81.505194 82.727667 
" style="fill:none;stroke:#e32f27;stroke-linecap:square;stroke-width:3.6;"/>
   </g>
   <g id="line2d_72">
    <path clip-path="url(#p2b720bf66f)" d="M 93.050022 115.83067 
L 93.050022 60.389937 
" style="fill:none;stroke:#e32f27;stroke-linecap:square;stroke-width:3.6;"/>
   </g>
   <g id="line2d_73">
    <path clip-path="url(#p2b720bf66f)" d="M 104.594849 126.803667 
L 104.594849 66.942213 
" style="fill:none;stroke:#e32f27;stroke-linecap:square;stroke-width:3.6;"/>
   </g>
   <g id="line2d_74">
    <path clip-path="url(#p2b720bf66f)" d="M 116.139677 131.642074 
L 116.139677 62.189522 
" style="fill:none;stroke:#e32f27;stroke-linecap:square;stroke-width:3.6;"/>
   </g>
   <g id="line2d_75">
    <path clip-path="url(#p2b720bf66f)" d="M 127.684504 128.305525 
L 127.684504 45.514986 
" style="fill:none;stroke:#e32f27;stroke-linecap:square;stroke-width:3.6;"/>
   </g>
   <g id="line2d_76">
    <path clip-path="url(#p2b720bf66f)" d="M 139.229332 127.754364 
L 139.229332 36.322918 
" style="fill:none;stroke:#e32f27;stroke-linecap:square;stroke-width:3.6;"/>
   </g>
   <g id="line2d_77">
    <path clip-path="url(#p2b720bf66f)" d="M 150.774159 141.701476 
L 150.774159 34.82437 
" style="fill:none;stroke:#e32f27;stroke-linecap:square;stroke-width:3.6;"/>
   </g>
   <g id="line2d_78">
    <path clip-path="url(#p2b720bf66f)" d="M 162.318987 158.766707 
L 162.318987 115.933089 
" style="fill:none;stroke:#e32f27;stroke-linecap:square;stroke-width:3.6;"/>
   </g>
   <g id="line2d_79">
    <path clip-path="url(#p2b720bf66f)" d="M 173.863815 165.879579 
L 173.863815 121.31495 
" style="fill:none;stroke:#e32f27;stroke-linecap:square;stroke-width:3.6;"/>
   </g>
   <g id="line2d_80">
    <path clip-path="url(#p2b720bf66f)" d="M 185.408642 164.755787 
L 185.408642 121.032274 
" style="fill:none;stroke:#e32f27;stroke-linecap:square;stroke-width:3.6;"/>
   </g>
   <g id="line2d_81">
    <path clip-path="url(#p2b720bf66f)" d="M 196.95347 166.439639 
L 196.95347 123.749828 
" style="fill:none;stroke:#e32f27;stroke-linecap:square;stroke-width:3.6;"/>
   </g>
   <g id="line2d_82">
    <path clip-path="url(#p2b720bf66f)" d="M 208.498297 168.580618 
L 208.498297 122.601335 
" style="fill:none;stroke:#e32f27;stroke-linecap:square;stroke-width:3.6;"/>
   </g>
   <g id="line2d_83">
    <path clip-path="url(#p2b720bf66f)" d="M 220.043125 168.062397 
L 220.043125 124.813556 
" style="fill:none;stroke:#e32f27;stroke-linecap:square;stroke-width:3.6;"/>
   </g>
   <g id="line2d_84">
    <path clip-path="url(#p2b720bf66f)" d="M 231.587953 170.984004 
L 231.587953 127.236845 
" style="fill:none;stroke:#e32f27;stroke-linecap:square;stroke-width:3.6;"/>
   </g>
   <g id="line2d_85">
    <path clip-path="url(#p2b720bf66f)" d="M 243.13278 175.754325 
L 243.13278 132.346261 
" style="fill:none;stroke:#e32f27;stroke-linecap:square;stroke-width:3.6;"/>
   </g>
   <g id="line2d_86">
    <path clip-path="url(#p2b720bf66f)" d="M 254.677608 183.586285 
L 254.677608 142.940648 
" style="fill:none;stroke:#e32f27;stroke-linecap:square;stroke-width:3.6;"/>
   </g>
   <g id="line2d_87">
    <path clip-path="url(#p2b720bf66f)" d="M 266.222435 188.17804 
L 266.222435 148.073743 
" style="fill:none;stroke:#e32f27;stroke-linecap:square;stroke-width:3.6;"/>
   </g>
   <g id="line2d_88">
    <path clip-path="url(#p2b720bf66f)" d="M 277.767263 189.13588 
L 277.767263 141.915499 
" style="fill:none;stroke:#e32f27;stroke-linecap:square;stroke-width:3.6;"/>
   </g>
   <g id="line2d_89">
    <path clip-path="url(#p2b720bf66f)" d="M 289.312091 190.353555 
L 289.312091 144.807775 
" style="fill:none;stroke:#e32f27;stroke-linecap:square;stroke-width:3.6;"/>
   </g>
   <g id="line2d_90">
    <path clip-path="url(#p2b720bf66f)" d="M 300.856918 188.008795 
L 300.856918 143.198592 
" style="fill:none;stroke:#e32f27;stroke-linecap:square;stroke-width:3.6;"/>
   </g>
   <g id="line2d_91">
    <path clip-path="url(#p2b720bf66f)" d="M 312.401746 189.057847 
L 312.401746 134.73637 
" style="fill:none;stroke:#e32f27;stroke-linecap:square;stroke-width:3.6;"/>
   </g>
   <g id="line2d_92">
    <path clip-path="url(#p2b720bf66f)" d="M 323.946573 192.716012 
L 323.946573 137.975832 
" style="fill:none;stroke:#e32f27;stroke-linecap:square;stroke-width:3.6;"/>
   </g>
   <g id="line2d_93">
    <path clip-path="url(#p2b720bf66f)" d="M 335.491401 193.610053 
L 335.491401 138.384502 
" style="fill:none;stroke:#e32f27;stroke-linecap:square;stroke-width:3.6;"/>
   </g>
   <g id="line2d_94">
    <path clip-path="url(#p2b720bf66f)" d="M 347.036228 196.717758 
L 347.036228 145.411631 
" style="fill:none;stroke:#e32f27;stroke-linecap:square;stroke-width:3.6;"/>
   </g>
   <g id="line2d_95">
    <path clip-path="url(#p2b720bf66f)" d="M 358.581056 206.190787 
L 358.581056 153.865491 
" style="fill:none;stroke:#e32f27;stroke-linecap:square;stroke-width:3.6;"/>
   </g>
   <g id="line2d_96">
    <path clip-path="url(#p2b720bf66f)" d="M 370.125884 207.800332 
L 370.125884 162.482706 
" style="fill:none;stroke:#e32f27;stroke-linecap:square;stroke-width:3.6;"/>
   </g>
   <g id="line2d_97">
    <path clip-path="url(#p2b720bf66f)" d="M 381.670711 214.756364 
L 381.670711 170.818233 
" style="fill:none;stroke:#e32f27;stroke-linecap:square;stroke-width:3.6;"/>
   </g>
   <g id="patch_3">
    <path d="M 52.643125 224.64 
L 52.643125 7.2 
" style="fill:none;stroke:#000000;stroke-linecap:square;stroke-linejoin:miter;"/>
   </g>
   <g id="patch_4">
    <path d="M 387.443125 224.64 
L 387.443125 7.2 
" style="fill:none;stroke:#000000;stroke-linecap:square;stroke-linejoin:miter;"/>
   </g>
   <g id="patch_5">
    <path d="M 52.643125 224.64 
L 387.443125 224.64 
" style="fill:none;stroke:#000000;stroke-linecap:square;stroke-linejoin:miter;"/>
   </g>
   <g id="patch_6">
    <path d="M 52.643125 7.2 
L 387.443125 7.2 
" style="fill:none;stroke:#000000;stroke-linecap:square;stroke-linejoin:miter;"/>
   </g>
   <g id="legend_1">
    <g id="patch_7">
     <path d="M 308.382 53.7645 
L 381.283125 53.7645 
Q 383.043125 53.7645 383.043125 52.0045 
L 383.043125 13.36 
Q 383.043125 11.6 381.283125 11.6 
L 308.382 11.6 
Q 306.622 11.6 306.622 13.36 
L 306.622 52.0045 
Q 306.622 53.7645 308.382 53.7645 
z
" style="fill:#ffffff;opacity:0.8;stroke:#cccccc;stroke-linejoin:miter;stroke-width:0.8;"/>
    </g>
    <g id="text_40">
     <!-- Group -->
     <g transform="translate(330.221812 22.4145)scale(0.096 -0.096)">
      <defs>
       <path d="M 3809 666 
L 3809 1919 
L 2778 1919 
L 2778 2438 
L 4434 2438 
L 4434 434 
Q 4069 175 3628 42 
Q 3188 -91 2688 -91 
Q 1594 -91 976 548 
Q 359 1188 359 2328 
Q 359 3472 976 4111 
Q 1594 4750 2688 4750 
Q 3144 4750 3555 4637 
Q 3966 4525 4313 4306 
L 4313 3634 
Q 3963 3931 3569 4081 
Q 3175 4231 2741 4231 
Q 1884 4231 1454 3753 
Q 1025 3275 1025 2328 
Q 1025 1384 1454 906 
Q 1884 428 2741 428 
Q 3075 428 3337 486 
Q 3600 544 3809 666 
z
" id="DejaVuSans-47" transform="scale(0.015625)"/>
       <path d="M 544 1381 
L 544 3500 
L 1119 3500 
L 1119 1403 
Q 1119 906 1312 657 
Q 1506 409 1894 409 
Q 2359 409 2629 706 
Q 2900 1003 2900 1516 
L 2900 3500 
L 3475 3500 
L 3475 0 
L 2900 0 
L 2900 538 
Q 2691 219 2414 64 
Q 2138 -91 1772 -91 
Q 1169 -91 856 284 
Q 544 659 544 1381 
z
M 1991 3584 
L 1991 3584 
z
" id="DejaVuSans-75" transform="scale(0.015625)"/>
      </defs>
      <use xlink:href="#DejaVuSans-47"/>
      <use x="77.490234" xlink:href="#DejaVuSans-72"/>
      <use x="116.353516" xlink:href="#DejaVuSans-6f"/>
      <use x="177.535156" xlink:href="#DejaVuSans-75"/>
      <use x="240.914062" xlink:href="#DejaVuSans-70"/>
     </g>
    </g>
    <g id="PathCollection_3">
     <g>
      <use style="fill:#fca082;stroke:#fca082;stroke-width:2.7;" x="318.942" xlink:href="#m163f4158c4" y="33.187625"/>
     </g>
    </g>
    <g id="text_41">
     <!-- NoReward -->
     <g transform="translate(334.782 35.497625)scale(0.088 -0.088)">
      <defs>
       <path d="M 628 4666 
L 1478 4666 
L 3547 763 
L 3547 4666 
L 4159 4666 
L 4159 0 
L 3309 0 
L 1241 3903 
L 1241 0 
L 628 0 
L 628 4666 
z
" id="DejaVuSans-4e" transform="scale(0.015625)"/>
       <path d="M 2841 2188 
Q 3044 2119 3236 1894 
Q 3428 1669 3622 1275 
L 4263 0 
L 3584 0 
L 2988 1197 
Q 2756 1666 2539 1819 
Q 2322 1972 1947 1972 
L 1259 1972 
L 1259 0 
L 628 0 
L 628 4666 
L 2053 4666 
Q 2853 4666 3247 4331 
Q 3641 3997 3641 3322 
Q 3641 2881 3436 2590 
Q 3231 2300 2841 2188 
z
M 1259 4147 
L 1259 2491 
L 2053 2491 
Q 2509 2491 2742 2702 
Q 2975 2913 2975 3322 
Q 2975 3731 2742 3939 
Q 2509 4147 2053 4147 
L 1259 4147 
z
" id="DejaVuSans-52" transform="scale(0.015625)"/>
       <path d="M 269 3500 
L 844 3500 
L 1563 769 
L 2278 3500 
L 2956 3500 
L 3675 769 
L 4391 3500 
L 4966 3500 
L 4050 0 
L 3372 0 
L 2619 2869 
L 1863 0 
L 1184 0 
L 269 3500 
z
" id="DejaVuSans-77" transform="scale(0.015625)"/>
      </defs>
      <use xlink:href="#DejaVuSans-4e"/>
      <use x="74.804688" xlink:href="#DejaVuSans-6f"/>
      <use x="135.986328" xlink:href="#DejaVuSans-52"/>
      <use x="200.96875" xlink:href="#DejaVuSans-65"/>
      <use x="262.492188" xlink:href="#DejaVuSans-77"/>
      <use x="344.279297" xlink:href="#DejaVuSans-61"/>
      <use x="405.558594" xlink:href="#DejaVuSans-72"/>
      <use x="444.921875" xlink:href="#DejaVuSans-64"/>
     </g>
    </g>
    <g id="PathCollection_4">
     <g>
      <use style="fill:#e32f27;stroke:#e32f27;stroke-width:2.7;" x="318.942" xlink:href="#me97a0dbf28" y="46.104375"/>
     </g>
    </g>
    <g id="text_42">
     <!-- Reward -->
     <g transform="translate(334.782 48.414375)scale(0.088 -0.088)">
      <use xlink:href="#DejaVuSans-52"/>
      <use x="64.982422" xlink:href="#DejaVuSans-65"/>
      <use x="126.505859" xlink:href="#DejaVuSans-77"/>
      <use x="208.292969" xlink:href="#DejaVuSans-61"/>
      <use x="269.572266" xlink:href="#DejaVuSans-72"/>
      <use x="308.935547" xlink:href="#DejaVuSans-64"/>
     </g>
    </g>
   </g>
  </g>
 </g>
 <defs>
  <clipPath id="p2b720bf66f">
   <rect height="217.44" width="334.8" x="52.643125" y="7.2"/>
  </clipPath>
 </defs>
</svg>
