<?xml version="1.0" encoding="utf-8" standalone="no"?>
<!DOCTYPE svg PUBLIC "-//W3C//DTD SVG 1.1//EN"
  "http://www.w3.org/Graphics/SVG/1.1/DTD/svg11.dtd">
<svg height="266.206125pt" version="1.1" viewBox="0 0 386.247375 266.206125" width="386.247375pt" xmlns="http://www.w3.org/2000/svg" xmlns:xlink="http://www.w3.org/1999/xlink">
 <metadata>
  <rdf:RDF xmlns:cc="http://creativecommons.org/ns#" xmlns:dc="http://purl.org/dc/elements/1.1/" xmlns:rdf="http://www.w3.org/1999/02/22-rdf-syntax-ns#">
   <cc:Work>
    <dc:type rdf:resource="http://purl.org/dc/dcmitype/StillImage"/>
    <dc:date>2022-04-29T16:34:49.103132</dc:date>
    <dc:format>image/svg+xml</dc:format>
    <dc:creator>
     <cc:Agent>
      <dc:title>Matplotlib v3.4.3, https://matplotlib.org/</dc:title>
     </cc:Agent>
    </dc:creator>
   </cc:Work>
  </rdf:RDF>
 </metadata>
 <defs>
  <style type="text/css">*{stroke-linecap:butt;stroke-linejoin:round;}</style>
 </defs>
 <g id="figure_1">
  <g id="patch_1">
   <path d="M 0 266.206125 
L 386.247375 266.206125 
L 386.247375 0 
L 0 0 
z
" style="fill:none;"/>
  </g>
  <g id="axes_1">
   <g id="patch_2">
    <path d="M 44.247375 224.64 
L 379.047375 224.64 
L 379.047375 7.2 
L 44.247375 7.2 
z
" style="fill:#ffffff;"/>
   </g>
   <g id="PolyCollection_1">
    <defs>
     <path d="M 59.465557 -163.880648 
L 59.465557 -115.056304 
L 65.208267 -96.042653 
L 70.950977 -114.719895 
L 76.693687 -94.098495 
L 82.436397 -101.448747 
L 88.179107 -102.373083 
L 93.921818 -93.947889 
L 99.664528 -96.608057 
L 105.407238 -103.754008 
L 111.149948 -107.45918 
L 116.892658 -82.088167 
L 122.635368 -82.562673 
L 128.378078 -212.081796 
L 134.120788 -190.367587 
L 139.863498 -187.489125 
L 145.606209 -149.580761 
L 151.348919 -162.273323 
L 157.091629 -155.016488 
L 162.834339 -151.032005 
L 168.577049 -157.631667 
L 174.319759 -146.914475 
L 180.062469 -161.917087 
L 185.805179 -136.336863 
L 191.54789 -130.094423 
L 197.2906 -129.661021 
L 203.03331 -130.968741 
L 208.77602 -139.045953 
L 214.51873 -118.08245 
L 220.26144 -131.197282 
L 226.00415 -176.194257 
L 231.74686 -160.646651 
L 237.489571 -171.562921 
L 243.232281 -138.089491 
L 248.974991 -121.183529 
L 254.717701 -143.193907 
L 260.460411 -124.529679 
L 266.203121 -163.362222 
L 271.945831 -150.366532 
L 277.688541 -137.589819 
L 283.431252 -160.575079 
L 289.173962 -160.667095 
L 294.916672 -141.189254 
L 300.659382 -117.45246 
L 306.402092 -88.630938 
L 312.144802 -84.959905 
L 317.887512 -82.423754 
L 323.630222 -75.059965 
L 329.372932 -76.407328 
L 335.115643 -75.561482 
L 340.858353 -84.332005 
L 346.601063 -78.602154 
L 352.343773 -67.277498 
L 358.086483 -93.346477 
L 358.086483 -106.536907 
L 358.086483 -106.536907 
L 352.343773 -85.784087 
L 346.601063 -90.560063 
L 340.858353 -97.886655 
L 335.115643 -87.836132 
L 329.372932 -88.759129 
L 323.630222 -89.784949 
L 317.887512 -96.429839 
L 312.144802 -108.90344 
L 306.402092 -100.667217 
L 300.659382 -129.023044 
L 294.916672 -167.494938 
L 289.173962 -188.634718 
L 283.431252 -216.956037 
L 277.688541 -187.234149 
L 271.945831 -180.507738 
L 266.203121 -196.988001 
L 260.460411 -181.540113 
L 254.717701 -204.540265 
L 248.974991 -166.459033 
L 243.232281 -213.977508 
L 237.489571 -224.620093 
L 231.74686 -201.316651 
L 226.00415 -213.452496 
L 220.26144 -165.37233 
L 214.51873 -188.299693 
L 208.77602 -206.141858 
L 203.03331 -179.893744 
L 197.2906 -160.504855 
L 191.54789 -163.168929 
L 185.805179 -161.499569 
L 180.062469 -179.919395 
L 174.319759 -194.292157 
L 168.577049 -235.512764 
L 162.834339 -209.706719 
L 157.091629 -210.932934 
L 151.348919 -205.510603 
L 145.606209 -215.016124 
L 139.863498 -214.40525 
L 134.120788 -236.263173 
L 128.378078 -249.122489 
L 122.635368 -92.395747 
L 116.892658 -100.684583 
L 111.149948 -182.759999 
L 105.407238 -134.919207 
L 99.664528 -175.329312 
L 93.921818 -112.895892 
L 88.179107 -130.416971 
L 82.436397 -118.32469 
L 76.693687 -116.159358 
L 70.950977 -142.024289 
L 65.208267 -127.748821 
L 59.465557 -163.880648 
z
" id="m7cbefd175c" style="stroke:#721f81;stroke-opacity:0.2;stroke-width:0.8;"/>
    </defs>
    <g clip-path="url(#pe8b7507fb6)">
     <use style="fill:#721f81;fill-opacity:0.2;stroke:#721f81;stroke-opacity:0.2;stroke-width:0.8;" x="0" xlink:href="#m7cbefd175c" y="266.206125"/>
    </g>
   </g>
   <g id="PolyCollection_2">
    <defs>
     <path d="M 59.465557 -169.187285 
L 59.465557 -113.284519 
L 65.208267 -104.895292 
L 70.950977 -95.225393 
L 76.693687 -97.788176 
L 82.436397 -87.538184 
L 88.179107 -75.130266 
L 93.921818 -100.139154 
L 99.664528 -64.659924 
L 105.407238 -78.297461 
L 111.149948 -69.440731 
L 116.892658 -66.813177 
L 122.635368 -62.295201 
L 128.378078 -145.465538 
L 134.120788 -105.534814 
L 139.863498 -105.227832 
L 145.606209 -91.145014 
L 151.348919 -69.079666 
L 157.091629 -51.449761 
L 162.834339 -72.857535 
L 168.577049 -118.35235 
L 174.319759 -85.097708 
L 180.062469 -95.913662 
L 185.805179 -92.286014 
L 191.54789 -89.898142 
L 197.2906 -78.316329 
L 203.03331 -93.6424 
L 208.77602 -78.329792 
L 214.51873 -78.932693 
L 220.26144 -75.820803 
L 226.00415 -79.915484 
L 231.74686 -81.216397 
L 237.489571 -104.14791 
L 243.232281 -89.929212 
L 248.974991 -93.377282 
L 254.717701 -116.788499 
L 260.460411 -70.283227 
L 266.203121 -88.523878 
L 271.945831 -97.939605 
L 277.688541 -94.196083 
L 283.431252 -96.269681 
L 289.173962 -83.641703 
L 294.916672 -86.647143 
L 300.659382 -81.030927 
L 306.402092 -81.382401 
L 312.144802 -66.691375 
L 317.887512 -65.860608 
L 323.630222 -63.329561 
L 329.372932 -57.026833 
L 335.115643 -61.826554 
L 340.858353 -62.606158 
L 346.601063 -59.893817 
L 352.343773 -55.480173 
L 358.086483 -55.671809 
L 358.086483 -79.976932 
L 358.086483 -79.976932 
L 352.343773 -80.345407 
L 346.601063 -84.306356 
L 340.858353 -90.978746 
L 335.115643 -68.779924 
L 329.372932 -64.144432 
L 323.630222 -101.128441 
L 317.887512 -88.487007 
L 312.144802 -92.700613 
L 306.402092 -119.361744 
L 300.659382 -108.1108 
L 294.916672 -119.008031 
L 289.173962 -148.172186 
L 283.431252 -149.382211 
L 277.688541 -145.972595 
L 271.945831 -140.445363 
L 266.203121 -147.507643 
L 260.460411 -222.339152 
L 254.717701 -186.548715 
L 248.974991 -158.470421 
L 243.232281 -109.429795 
L 237.489571 -132.264756 
L 231.74686 -106.887179 
L 226.00415 -89.903649 
L 220.26144 -77.414943 
L 214.51873 -127.829712 
L 208.77602 -146.494648 
L 203.03331 -156.401486 
L 197.2906 -141.296606 
L 191.54789 -187.037819 
L 185.805179 -159.79079 
L 180.062469 -161.151728 
L 174.319759 -161.237325 
L 168.577049 -159.069586 
L 162.834339 -199.499174 
L 157.091629 -144.04485 
L 151.348919 -142.548872 
L 145.606209 -164.227165 
L 139.863498 -177.475067 
L 134.120788 -216.893414 
L 128.378078 -212.346529 
L 122.635368 -87.492362 
L 116.892658 -90.29861 
L 111.149948 -108.562127 
L 105.407238 -123.026042 
L 99.664528 -92.691891 
L 93.921818 -222.188691 
L 88.179107 -208.477293 
L 82.436397 -126.86126 
L 76.693687 -143.45358 
L 70.950977 -127.995482 
L 65.208267 -128.984026 
L 59.465557 -169.187285 
z
" id="m49159bd555" style="stroke:#f1605d;stroke-opacity:0.2;stroke-width:0.8;"/>
    </defs>
    <g clip-path="url(#pe8b7507fb6)">
     <use style="fill:#f1605d;fill-opacity:0.2;stroke:#f1605d;stroke-opacity:0.2;stroke-width:0.8;" x="0" xlink:href="#m49159bd555" y="266.206125"/>
    </g>
   </g>
   <g id="matplotlib.axis_1">
    <g id="xtick_1">
     <g id="line2d_1">
      <defs>
       <path d="M 0 0 
L 0 4.8 
" id="mdee5f22164" style="stroke:#000000;"/>
      </defs>
      <g>
       <use style="stroke:#000000;" x="59.465557" xlink:href="#mdee5f22164" y="224.64"/>
      </g>
     </g>
     <g id="text_1">
      <!-- 0 -->
      <g transform="translate(56.666057 239.626625)scale(0.088 -0.088)">
       <defs>
        <path d="M 2034 4250 
Q 1547 4250 1301 3770 
Q 1056 3291 1056 2328 
Q 1056 1369 1301 889 
Q 1547 409 2034 409 
Q 2525 409 2770 889 
Q 3016 1369 3016 2328 
Q 3016 3291 2770 3770 
Q 2525 4250 2034 4250 
z
M 2034 4750 
Q 2819 4750 3233 4129 
Q 3647 3509 3647 2328 
Q 3647 1150 3233 529 
Q 2819 -91 2034 -91 
Q 1250 -91 836 529 
Q 422 1150 422 2328 
Q 422 3509 836 4129 
Q 1250 4750 2034 4750 
z
" id="DejaVuSans-30" transform="scale(0.015625)"/>
       </defs>
       <use xlink:href="#DejaVuSans-30"/>
      </g>
     </g>
    </g>
    <g id="xtick_2">
     <g id="line2d_2">
      <g>
       <use style="stroke:#000000;" x="116.892658" xlink:href="#mdee5f22164" y="224.64"/>
      </g>
     </g>
     <g id="text_2">
      <!-- 10 -->
      <g transform="translate(111.293658 239.626625)scale(0.088 -0.088)">
       <defs>
        <path d="M 794 531 
L 1825 531 
L 1825 4091 
L 703 3866 
L 703 4441 
L 1819 4666 
L 2450 4666 
L 2450 531 
L 3481 531 
L 3481 0 
L 794 0 
L 794 531 
z
" id="DejaVuSans-31" transform="scale(0.015625)"/>
       </defs>
       <use xlink:href="#DejaVuSans-31"/>
       <use x="63.623047" xlink:href="#DejaVuSans-30"/>
      </g>
     </g>
    </g>
    <g id="xtick_3">
     <g id="line2d_3">
      <g>
       <use style="stroke:#000000;" x="174.319759" xlink:href="#mdee5f22164" y="224.64"/>
      </g>
     </g>
     <g id="text_3">
      <!-- 20 -->
      <g transform="translate(168.720759 239.626625)scale(0.088 -0.088)">
       <defs>
        <path d="M 1228 531 
L 3431 531 
L 3431 0 
L 469 0 
L 469 531 
Q 828 903 1448 1529 
Q 2069 2156 2228 2338 
Q 2531 2678 2651 2914 
Q 2772 3150 2772 3378 
Q 2772 3750 2511 3984 
Q 2250 4219 1831 4219 
Q 1534 4219 1204 4116 
Q 875 4013 500 3803 
L 500 4441 
Q 881 4594 1212 4672 
Q 1544 4750 1819 4750 
Q 2544 4750 2975 4387 
Q 3406 4025 3406 3419 
Q 3406 3131 3298 2873 
Q 3191 2616 2906 2266 
Q 2828 2175 2409 1742 
Q 1991 1309 1228 531 
z
" id="DejaVuSans-32" transform="scale(0.015625)"/>
       </defs>
       <use xlink:href="#DejaVuSans-32"/>
       <use x="63.623047" xlink:href="#DejaVuSans-30"/>
      </g>
     </g>
    </g>
    <g id="xtick_4">
     <g id="line2d_4">
      <g>
       <use style="stroke:#000000;" x="231.74686" xlink:href="#mdee5f22164" y="224.64"/>
      </g>
     </g>
     <g id="text_4">
      <!-- 30 -->
      <g transform="translate(226.14786 239.626625)scale(0.088 -0.088)">
       <defs>
        <path d="M 2597 2516 
Q 3050 2419 3304 2112 
Q 3559 1806 3559 1356 
Q 3559 666 3084 287 
Q 2609 -91 1734 -91 
Q 1441 -91 1130 -33 
Q 819 25 488 141 
L 488 750 
Q 750 597 1062 519 
Q 1375 441 1716 441 
Q 2309 441 2620 675 
Q 2931 909 2931 1356 
Q 2931 1769 2642 2001 
Q 2353 2234 1838 2234 
L 1294 2234 
L 1294 2753 
L 1863 2753 
Q 2328 2753 2575 2939 
Q 2822 3125 2822 3475 
Q 2822 3834 2567 4026 
Q 2313 4219 1838 4219 
Q 1578 4219 1281 4162 
Q 984 4106 628 3988 
L 628 4550 
Q 988 4650 1302 4700 
Q 1616 4750 1894 4750 
Q 2613 4750 3031 4423 
Q 3450 4097 3450 3541 
Q 3450 3153 3228 2886 
Q 3006 2619 2597 2516 
z
" id="DejaVuSans-33" transform="scale(0.015625)"/>
       </defs>
       <use xlink:href="#DejaVuSans-33"/>
       <use x="63.623047" xlink:href="#DejaVuSans-30"/>
      </g>
     </g>
    </g>
    <g id="xtick_5">
     <g id="line2d_5">
      <g>
       <use style="stroke:#000000;" x="289.173962" xlink:href="#mdee5f22164" y="224.64"/>
      </g>
     </g>
     <g id="text_5">
      <!-- 40 -->
      <g transform="translate(283.574962 239.626625)scale(0.088 -0.088)">
       <defs>
        <path d="M 2419 4116 
L 825 1625 
L 2419 1625 
L 2419 4116 
z
M 2253 4666 
L 3047 4666 
L 3047 1625 
L 3713 1625 
L 3713 1100 
L 3047 1100 
L 3047 0 
L 2419 0 
L 2419 1100 
L 313 1100 
L 313 1709 
L 2253 4666 
z
" id="DejaVuSans-34" transform="scale(0.015625)"/>
       </defs>
       <use xlink:href="#DejaVuSans-34"/>
       <use x="63.623047" xlink:href="#DejaVuSans-30"/>
      </g>
     </g>
    </g>
    <g id="xtick_6">
     <g id="line2d_6">
      <g>
       <use style="stroke:#000000;" x="346.601063" xlink:href="#mdee5f22164" y="224.64"/>
      </g>
     </g>
     <g id="text_6">
      <!-- 50 -->
      <g transform="translate(341.002063 239.626625)scale(0.088 -0.088)">
       <defs>
        <path d="M 691 4666 
L 3169 4666 
L 3169 4134 
L 1269 4134 
L 1269 2991 
Q 1406 3038 1543 3061 
Q 1681 3084 1819 3084 
Q 2600 3084 3056 2656 
Q 3513 2228 3513 1497 
Q 3513 744 3044 326 
Q 2575 -91 1722 -91 
Q 1428 -91 1123 -41 
Q 819 9 494 109 
L 494 744 
Q 775 591 1075 516 
Q 1375 441 1709 441 
Q 2250 441 2565 725 
Q 2881 1009 2881 1497 
Q 2881 1984 2565 2268 
Q 2250 2553 1709 2553 
Q 1456 2553 1204 2497 
Q 953 2441 691 2322 
L 691 4666 
z
" id="DejaVuSans-35" transform="scale(0.015625)"/>
       </defs>
       <use xlink:href="#DejaVuSans-35"/>
       <use x="63.623047" xlink:href="#DejaVuSans-30"/>
      </g>
     </g>
    </g>
    <g id="text_7">
     <!-- Trial -->
     <g transform="translate(197.347687 256.094562)scale(0.14 -0.14)">
      <defs>
       <path d="M -19 4666 
L 3928 4666 
L 3928 4134 
L 2272 4134 
L 2272 0 
L 1638 0 
L 1638 4134 
L -19 4134 
L -19 4666 
z
" id="DejaVuSans-54" transform="scale(0.015625)"/>
       <path d="M 2631 2963 
Q 2534 3019 2420 3045 
Q 2306 3072 2169 3072 
Q 1681 3072 1420 2755 
Q 1159 2438 1159 1844 
L 1159 0 
L 581 0 
L 581 3500 
L 1159 3500 
L 1159 2956 
Q 1341 3275 1631 3429 
Q 1922 3584 2338 3584 
Q 2397 3584 2469 3576 
Q 2541 3569 2628 3553 
L 2631 2963 
z
" id="DejaVuSans-72" transform="scale(0.015625)"/>
       <path d="M 603 3500 
L 1178 3500 
L 1178 0 
L 603 0 
L 603 3500 
z
M 603 4863 
L 1178 4863 
L 1178 4134 
L 603 4134 
L 603 4863 
z
" id="DejaVuSans-69" transform="scale(0.015625)"/>
       <path d="M 2194 1759 
Q 1497 1759 1228 1600 
Q 959 1441 959 1056 
Q 959 750 1161 570 
Q 1363 391 1709 391 
Q 2188 391 2477 730 
Q 2766 1069 2766 1631 
L 2766 1759 
L 2194 1759 
z
M 3341 1997 
L 3341 0 
L 2766 0 
L 2766 531 
Q 2569 213 2275 61 
Q 1981 -91 1556 -91 
Q 1019 -91 701 211 
Q 384 513 384 1019 
Q 384 1609 779 1909 
Q 1175 2209 1959 2209 
L 2766 2209 
L 2766 2266 
Q 2766 2663 2505 2880 
Q 2244 3097 1772 3097 
Q 1472 3097 1187 3025 
Q 903 2953 641 2809 
L 641 3341 
Q 956 3463 1253 3523 
Q 1550 3584 1831 3584 
Q 2591 3584 2966 3190 
Q 3341 2797 3341 1997 
z
" id="DejaVuSans-61" transform="scale(0.015625)"/>
       <path d="M 603 4863 
L 1178 4863 
L 1178 0 
L 603 0 
L 603 4863 
z
" id="DejaVuSans-6c" transform="scale(0.015625)"/>
      </defs>
      <use xlink:href="#DejaVuSans-54"/>
      <use x="46.333984" xlink:href="#DejaVuSans-72"/>
      <use x="87.447266" xlink:href="#DejaVuSans-69"/>
      <use x="115.230469" xlink:href="#DejaVuSans-61"/>
      <use x="176.509766" xlink:href="#DejaVuSans-6c"/>
     </g>
    </g>
   </g>
   <g id="matplotlib.axis_2">
    <g id="ytick_1">
     <g id="line2d_7">
      <defs>
       <path d="M 0 0 
L -4.8 0 
" id="m6d1c42f409" style="stroke:#000000;"/>
      </defs>
      <g>
       <use style="stroke:#000000;" x="44.247375" xlink:href="#m6d1c42f409" y="209.968258"/>
      </g>
     </g>
     <g id="text_8">
      <!-- 10 -->
      <g transform="translate(24.749375 213.311571)scale(0.088 -0.088)">
       <use xlink:href="#DejaVuSans-31"/>
       <use x="63.623047" xlink:href="#DejaVuSans-30"/>
      </g>
     </g>
    </g>
    <g id="ytick_2">
     <g id="line2d_8">
      <g>
       <use style="stroke:#000000;" x="44.247375" xlink:href="#m6d1c42f409" y="181.883728"/>
      </g>
     </g>
     <g id="text_9">
      <!-- 15 -->
      <g transform="translate(24.749375 185.22704)scale(0.088 -0.088)">
       <use xlink:href="#DejaVuSans-31"/>
       <use x="63.623047" xlink:href="#DejaVuSans-35"/>
      </g>
     </g>
    </g>
    <g id="ytick_3">
     <g id="line2d_9">
      <g>
       <use style="stroke:#000000;" x="44.247375" xlink:href="#m6d1c42f409" y="153.799197"/>
      </g>
     </g>
     <g id="text_10">
      <!-- 20 -->
      <g transform="translate(24.749375 157.142509)scale(0.088 -0.088)">
       <use xlink:href="#DejaVuSans-32"/>
       <use x="63.623047" xlink:href="#DejaVuSans-30"/>
      </g>
     </g>
    </g>
    <g id="ytick_4">
     <g id="line2d_10">
      <g>
       <use style="stroke:#000000;" x="44.247375" xlink:href="#m6d1c42f409" y="125.714666"/>
      </g>
     </g>
     <g id="text_11">
      <!-- 25 -->
      <g transform="translate(24.749375 129.057979)scale(0.088 -0.088)">
       <use xlink:href="#DejaVuSans-32"/>
       <use x="63.623047" xlink:href="#DejaVuSans-35"/>
      </g>
     </g>
    </g>
    <g id="ytick_5">
     <g id="line2d_11">
      <g>
       <use style="stroke:#000000;" x="44.247375" xlink:href="#m6d1c42f409" y="97.630136"/>
      </g>
     </g>
     <g id="text_12">
      <!-- 30 -->
      <g transform="translate(24.749375 100.973448)scale(0.088 -0.088)">
       <use xlink:href="#DejaVuSans-33"/>
       <use x="63.623047" xlink:href="#DejaVuSans-30"/>
      </g>
     </g>
    </g>
    <g id="ytick_6">
     <g id="line2d_12">
      <g>
       <use style="stroke:#000000;" x="44.247375" xlink:href="#m6d1c42f409" y="69.545605"/>
      </g>
     </g>
     <g id="text_13">
      <!-- 35 -->
      <g transform="translate(24.749375 72.888917)scale(0.088 -0.088)">
       <use xlink:href="#DejaVuSans-33"/>
       <use x="63.623047" xlink:href="#DejaVuSans-35"/>
      </g>
     </g>
    </g>
    <g id="ytick_7">
     <g id="line2d_13">
      <g>
       <use style="stroke:#000000;" x="44.247375" xlink:href="#m6d1c42f409" y="41.461074"/>
      </g>
     </g>
     <g id="text_14">
      <!-- 40 -->
      <g transform="translate(24.749375 44.804387)scale(0.088 -0.088)">
       <use xlink:href="#DejaVuSans-34"/>
       <use x="63.623047" xlink:href="#DejaVuSans-30"/>
      </g>
     </g>
    </g>
    <g id="ytick_8">
     <g id="line2d_14">
      <g>
       <use style="stroke:#000000;" x="44.247375" xlink:href="#m6d1c42f409" y="13.376543"/>
      </g>
     </g>
     <g id="text_15">
      <!-- 45 -->
      <g transform="translate(24.749375 16.719856)scale(0.088 -0.088)">
       <use xlink:href="#DejaVuSans-34"/>
       <use x="63.623047" xlink:href="#DejaVuSans-35"/>
      </g>
     </g>
    </g>
    <g id="text_16">
     <!-- MAE (Degrees) -->
     <g transform="translate(17.837813 167.980312)rotate(-90)scale(0.14 -0.14)">
      <defs>
       <path d="M 628 4666 
L 1569 4666 
L 2759 1491 
L 3956 4666 
L 4897 4666 
L 4897 0 
L 4281 0 
L 4281 4097 
L 3078 897 
L 2444 897 
L 1241 4097 
L 1241 0 
L 628 0 
L 628 4666 
z
" id="DejaVuSans-4d" transform="scale(0.015625)"/>
       <path d="M 2188 4044 
L 1331 1722 
L 3047 1722 
L 2188 4044 
z
M 1831 4666 
L 2547 4666 
L 4325 0 
L 3669 0 
L 3244 1197 
L 1141 1197 
L 716 0 
L 50 0 
L 1831 4666 
z
" id="DejaVuSans-41" transform="scale(0.015625)"/>
       <path d="M 628 4666 
L 3578 4666 
L 3578 4134 
L 1259 4134 
L 1259 2753 
L 3481 2753 
L 3481 2222 
L 1259 2222 
L 1259 531 
L 3634 531 
L 3634 0 
L 628 0 
L 628 4666 
z
" id="DejaVuSans-45" transform="scale(0.015625)"/>
       <path id="DejaVuSans-20" transform="scale(0.015625)"/>
       <path d="M 1984 4856 
Q 1566 4138 1362 3434 
Q 1159 2731 1159 2009 
Q 1159 1288 1364 580 
Q 1569 -128 1984 -844 
L 1484 -844 
Q 1016 -109 783 600 
Q 550 1309 550 2009 
Q 550 2706 781 3412 
Q 1013 4119 1484 4856 
L 1984 4856 
z
" id="DejaVuSans-28" transform="scale(0.015625)"/>
       <path d="M 1259 4147 
L 1259 519 
L 2022 519 
Q 2988 519 3436 956 
Q 3884 1394 3884 2338 
Q 3884 3275 3436 3711 
Q 2988 4147 2022 4147 
L 1259 4147 
z
M 628 4666 
L 1925 4666 
Q 3281 4666 3915 4102 
Q 4550 3538 4550 2338 
Q 4550 1131 3912 565 
Q 3275 0 1925 0 
L 628 0 
L 628 4666 
z
" id="DejaVuSans-44" transform="scale(0.015625)"/>
       <path d="M 3597 1894 
L 3597 1613 
L 953 1613 
Q 991 1019 1311 708 
Q 1631 397 2203 397 
Q 2534 397 2845 478 
Q 3156 559 3463 722 
L 3463 178 
Q 3153 47 2828 -22 
Q 2503 -91 2169 -91 
Q 1331 -91 842 396 
Q 353 884 353 1716 
Q 353 2575 817 3079 
Q 1281 3584 2069 3584 
Q 2775 3584 3186 3129 
Q 3597 2675 3597 1894 
z
M 3022 2063 
Q 3016 2534 2758 2815 
Q 2500 3097 2075 3097 
Q 1594 3097 1305 2825 
Q 1016 2553 972 2059 
L 3022 2063 
z
" id="DejaVuSans-65" transform="scale(0.015625)"/>
       <path d="M 2906 1791 
Q 2906 2416 2648 2759 
Q 2391 3103 1925 3103 
Q 1463 3103 1205 2759 
Q 947 2416 947 1791 
Q 947 1169 1205 825 
Q 1463 481 1925 481 
Q 2391 481 2648 825 
Q 2906 1169 2906 1791 
z
M 3481 434 
Q 3481 -459 3084 -895 
Q 2688 -1331 1869 -1331 
Q 1566 -1331 1297 -1286 
Q 1028 -1241 775 -1147 
L 775 -588 
Q 1028 -725 1275 -790 
Q 1522 -856 1778 -856 
Q 2344 -856 2625 -561 
Q 2906 -266 2906 331 
L 2906 616 
Q 2728 306 2450 153 
Q 2172 0 1784 0 
Q 1141 0 747 490 
Q 353 981 353 1791 
Q 353 2603 747 3093 
Q 1141 3584 1784 3584 
Q 2172 3584 2450 3431 
Q 2728 3278 2906 2969 
L 2906 3500 
L 3481 3500 
L 3481 434 
z
" id="DejaVuSans-67" transform="scale(0.015625)"/>
       <path d="M 2834 3397 
L 2834 2853 
Q 2591 2978 2328 3040 
Q 2066 3103 1784 3103 
Q 1356 3103 1142 2972 
Q 928 2841 928 2578 
Q 928 2378 1081 2264 
Q 1234 2150 1697 2047 
L 1894 2003 
Q 2506 1872 2764 1633 
Q 3022 1394 3022 966 
Q 3022 478 2636 193 
Q 2250 -91 1575 -91 
Q 1294 -91 989 -36 
Q 684 19 347 128 
L 347 722 
Q 666 556 975 473 
Q 1284 391 1588 391 
Q 1994 391 2212 530 
Q 2431 669 2431 922 
Q 2431 1156 2273 1281 
Q 2116 1406 1581 1522 
L 1381 1569 
Q 847 1681 609 1914 
Q 372 2147 372 2553 
Q 372 3047 722 3315 
Q 1072 3584 1716 3584 
Q 2034 3584 2315 3537 
Q 2597 3491 2834 3397 
z
" id="DejaVuSans-73" transform="scale(0.015625)"/>
       <path d="M 513 4856 
L 1013 4856 
Q 1481 4119 1714 3412 
Q 1947 2706 1947 2009 
Q 1947 1309 1714 600 
Q 1481 -109 1013 -844 
L 513 -844 
Q 928 -128 1133 580 
Q 1338 1288 1338 2009 
Q 1338 2731 1133 3434 
Q 928 4138 513 4856 
z
" id="DejaVuSans-29" transform="scale(0.015625)"/>
      </defs>
      <use xlink:href="#DejaVuSans-4d"/>
      <use x="86.279297" xlink:href="#DejaVuSans-41"/>
      <use x="154.6875" xlink:href="#DejaVuSans-45"/>
      <use x="217.871094" xlink:href="#DejaVuSans-20"/>
      <use x="249.658203" xlink:href="#DejaVuSans-28"/>
      <use x="288.671875" xlink:href="#DejaVuSans-44"/>
      <use x="365.673828" xlink:href="#DejaVuSans-65"/>
      <use x="427.197266" xlink:href="#DejaVuSans-67"/>
      <use x="490.673828" xlink:href="#DejaVuSans-72"/>
      <use x="529.537109" xlink:href="#DejaVuSans-65"/>
      <use x="591.060547" xlink:href="#DejaVuSans-65"/>
      <use x="652.583984" xlink:href="#DejaVuSans-73"/>
      <use x="704.683594" xlink:href="#DejaVuSans-29"/>
     </g>
    </g>
   </g>
   <g id="line2d_15">
    <path clip-path="url(#pe8b7507fb6)" d="M 59.465557 125.849816 
L 65.208267 154.879813 
L 70.950977 137.380736 
L 76.693687 160.964145 
L 82.436397 156.770373 
L 88.179107 148.461496 
L 93.921818 163.007039 
L 99.664528 130.955553 
L 105.407238 146.869517 
L 111.149948 121.096536 
L 116.892658 174.81975 
L 122.635368 178.540254 
L 128.378078 37.10882 
L 134.120788 53.028209 
L 139.863498 65.06673 
L 145.606209 81.202691 
L 151.348919 82.314162 
L 157.091629 83.231414 
L 162.834339 85.836763 
L 168.577049 69.63391 
L 174.319759 94.897001 
L 180.062469 95.287884 
L 185.805179 116.216867 
L 191.54789 119.574449 
L 197.2906 119.339551 
L 203.03331 110.774883 
L 208.77602 93.61222 
L 214.51873 115.317109 
L 220.26144 117.921319 
L 226.00415 71.382748 
L 231.74686 85.224474 
L 237.489571 68.114618 
L 243.232281 90.121807 
L 248.974991 122.384844 
L 254.717701 92.339039 
L 260.460411 113.684836 
L 266.203121 86.031013 
L 271.945831 101.639058 
L 277.688541 103.794141 
L 283.431252 77.440567 
L 289.173962 91.946206 
L 294.916672 111.864029 
L 300.659382 142.968373 
L 306.402092 171.053067 
L 312.144802 169.133669 
L 317.887512 176.779329 
L 323.630222 183.783668 
L 329.372932 183.622897 
L 335.115643 184.507318 
L 340.858353 175.096795 
L 346.601063 181.625016 
L 352.343773 189.675332 
L 358.086483 166.193026 
" style="fill:none;stroke:#721f81;stroke-linecap:square;stroke-width:2;"/>
   </g>
   <g id="line2d_16">
    <path clip-path="url(#pe8b7507fb6)" d="M 59.465557 125.174437 
L 65.208267 148.912361 
L 70.950977 155.485761 
L 76.693687 147.776534 
L 82.436397 159.932558 
L 88.179107 124.402345 
L 93.921818 104.407832 
L 99.664528 187.530218 
L 105.407238 165.544374 
L 111.149948 177.908435 
L 116.892658 187.650231 
L 122.635368 191.784452 
L 128.378078 87.300092 
L 134.120788 116.023385 
L 139.863498 124.854676 
L 145.606209 138.520035 
L 151.348919 160.391856 
L 157.091629 168.458819 
L 162.834339 130.027771 
L 168.577049 127.495157 
L 174.319759 143.038609 
L 180.062469 131.307461 
L 185.805179 140.167723 
L 191.54789 127.738145 
L 197.2906 155.878445 
L 203.03331 141.442132 
L 208.77602 153.793905 
L 214.51873 162.824922 
L 220.26144 189.588252 
L 226.00415 181.296558 
L 231.74686 172.154337 
L 237.489571 147.999792 
L 243.232281 166.526622 
L 248.974991 140.282273 
L 254.717701 114.537518 
L 260.460411 119.894936 
L 266.203121 148.190364 
L 271.945831 147.013641 
L 277.688541 146.121786 
L 283.431252 143.380179 
L 289.173962 150.299181 
L 294.916672 163.378538 
L 300.659382 171.635261 
L 306.402092 165.834052 
L 312.144802 186.510131 
L 317.887512 189.032317 
L 323.630222 187.488717 
L 329.372932 205.541222 
L 335.115643 200.902886 
L 340.858353 192.206577 
L 346.601063 194.106039 
L 352.343773 194.338069 
L 358.086483 195.90921 
L 363.829193 179.222686 
" style="fill:none;stroke:#f1605d;stroke-linecap:square;stroke-width:2;"/>
   </g>
   <g id="line2d_17"/>
   <g id="line2d_18"/>
   <g id="patch_3">
    <path d="M 44.247375 224.64 
L 44.247375 7.2 
" style="fill:none;stroke:#000000;stroke-linecap:square;stroke-linejoin:miter;"/>
   </g>
   <g id="patch_4">
    <path d="M 379.047375 224.64 
L 379.047375 7.2 
" style="fill:none;stroke:#000000;stroke-linecap:square;stroke-linejoin:miter;"/>
   </g>
   <g id="patch_5">
    <path d="M 44.247375 224.64 
L 379.047375 224.64 
" style="fill:none;stroke:#000000;stroke-linecap:square;stroke-linejoin:miter;"/>
   </g>
   <g id="patch_6">
    <path d="M 44.247375 7.2 
L 379.047375 7.2 
" style="fill:none;stroke:#000000;stroke-linecap:square;stroke-linejoin:miter;"/>
   </g>
   <g id="legend_1">
    <g id="patch_7">
     <path d="M 369.367375 18.64 
L 372.887375 18.64 
Q 374.647375 18.64 374.647375 16.88 
L 374.647375 13.36 
Q 374.647375 11.6 372.887375 11.6 
L 369.367375 11.6 
Q 367.607375 11.6 367.607375 13.36 
L 367.607375 16.88 
Q 367.607375 18.64 369.367375 18.64 
z
" style="fill:#ffffff;opacity:0.8;stroke:#cccccc;stroke-linejoin:miter;stroke-width:0.8;"/>
    </g>
   </g>
  </g>
 </g>
 <defs>
  <clipPath id="pe8b7507fb6">
   <rect height="217.44" width="334.8" x="44.247375" y="7.2"/>
  </clipPath>
 </defs>
</svg>
