<?xml version="1.0" encoding="utf-8" standalone="no"?>
<!DOCTYPE svg PUBLIC "-//W3C//DTD SVG 1.1//EN"
  "http://www.w3.org/Graphics/SVG/1.1/DTD/svg11.dtd">
<svg height="266.206125pt" version="1.1" viewBox="0 0 386.247375 266.206125" width="386.247375pt" xmlns="http://www.w3.org/2000/svg" xmlns:xlink="http://www.w3.org/1999/xlink">
 <metadata>
  <rdf:RDF xmlns:cc="http://creativecommons.org/ns#" xmlns:dc="http://purl.org/dc/elements/1.1/" xmlns:rdf="http://www.w3.org/1999/02/22-rdf-syntax-ns#">
   <cc:Work>
    <dc:type rdf:resource="http://purl.org/dc/dcmitype/StillImage"/>
    <dc:date>2022-04-29T16:05:43.871190</dc:date>
    <dc:format>image/svg+xml</dc:format>
    <dc:creator>
     <cc:Agent>
      <dc:title>Matplotlib v3.4.3, https://matplotlib.org/</dc:title>
     </cc:Agent>
    </dc:creator>
   </cc:Work>
  </rdf:RDF>
 </metadata>
 <defs>
  <style type="text/css">*{stroke-linecap:butt;stroke-linejoin:round;}</style>
 </defs>
 <g id="figure_1">
  <g id="patch_1">
   <path d="M 0 266.206125 
L 386.247375 266.206125 
L 386.247375 0 
L 0 0 
z
" style="fill:none;"/>
  </g>
  <g id="axes_1">
   <g id="patch_2">
    <path d="M 44.247375 224.64 
L 379.047375 224.64 
L 379.047375 7.2 
L 44.247375 7.2 
z
" style="fill:#ffffff;"/>
   </g>
   <g id="PolyCollection_1">
    <defs>
     <path d="M 59.465557 -160.320592 
L 59.465557 -139.931655 
L 65.10192 -110.001563 
L 70.738284 -119.070786 
L 76.374648 -101.544604 
L 82.011011 -94.360951 
L 87.647375 -98.214516 
L 93.283739 -96.603621 
L 98.920102 -103.192889 
L 104.556466 -100.316538 
L 110.19283 -107.926516 
L 115.829193 -106.652858 
L 121.465557 -105.753942 
L 127.10192 -194.856195 
L 132.738284 -156.311013 
L 138.374648 -182.333838 
L 144.011011 -164.73095 
L 149.647375 -153.309881 
L 155.283739 -166.316645 
L 160.920102 -165.917433 
L 166.556466 -172.050261 
L 172.19283 -140.895 
L 177.829193 -141.64636 
L 183.465557 -124.201054 
L 189.10192 -136.521529 
L 194.738284 -124.930336 
L 200.374648 -115.945119 
L 206.011011 -134.280185 
L 211.647375 -122.817881 
L 217.283739 -122.886889 
L 222.920102 -165.4547 
L 228.556466 -156.535083 
L 234.19283 -141.800778 
L 239.829193 -147.169413 
L 245.465557 -134.234975 
L 251.10192 -126.607173 
L 256.738284 -129.905723 
L 262.374648 -128.6273 
L 268.011011 -135.089273 
L 273.647375 -141.330799 
L 279.283739 -142.04421 
L 284.920102 -135.6056 
L 290.556466 -113.596046 
L 296.19283 -113.098249 
L 301.829193 -103.43795 
L 307.465557 -99.2982 
L 313.10192 -82.694831 
L 318.738284 -85.658545 
L 324.374648 -85.482658 
L 330.011011 -84.933632 
L 335.647375 -80.991703 
L 341.283739 -81.249331 
L 346.920102 -69.988881 
L 352.556466 -87.7899 
L 358.19283 -69.364789 
L 363.829193 -51.449761 
L 363.829193 -90.022703 
L 363.829193 -90.022703 
L 358.19283 -86.388472 
L 352.556466 -133.303245 
L 346.920102 -128.414189 
L 341.283739 -134.799102 
L 335.647375 -138.265814 
L 330.011011 -138.394557 
L 324.374648 -146.756385 
L 318.738284 -148.094403 
L 313.10192 -153.86426 
L 307.465557 -153.114347 
L 301.829193 -160.122447 
L 296.19283 -163.695799 
L 290.556466 -151.076719 
L 284.920102 -172.210274 
L 279.283739 -199.224001 
L 273.647375 -192.803556 
L 268.011011 -193.907444 
L 262.374648 -179.648203 
L 256.738284 -158.813105 
L 251.10192 -167.285071 
L 245.465557 -167.689504 
L 239.829193 -199.050899 
L 234.19283 -186.882806 
L 228.556466 -197.639871 
L 222.920102 -220.413869 
L 217.283739 -171.945502 
L 211.647375 -156.120295 
L 206.011011 -169.732516 
L 200.374648 -145.12748 
L 194.738284 -157.048105 
L 189.10192 -169.668297 
L 183.465557 -164.758863 
L 177.829193 -171.275807 
L 172.19283 -169.16218 
L 166.556466 -249.122489 
L 160.920102 -216.829245 
L 155.283739 -209.68459 
L 149.647375 -184.22502 
L 144.011011 -216.152623 
L 138.374648 -226.841141 
L 132.738284 -188.076027 
L 127.10192 -223.631267 
L 121.465557 -144.154787 
L 115.829193 -144.023585 
L 110.19283 -142.221947 
L 104.556466 -132.216106 
L 98.920102 -127.932367 
L 93.283739 -108.616417 
L 87.647375 -116.310775 
L 82.011011 -102.70551 
L 76.374648 -124.394022 
L 70.738284 -134.082787 
L 65.10192 -127.058849 
L 59.465557 -160.320592 
z
" id="m1ba2d75e6b" style="stroke:#721f81;stroke-opacity:0.2;stroke-width:0.8;"/>
    </defs>
    <g clip-path="url(#pbbab8f78d0)">
     <use style="fill:#721f81;fill-opacity:0.2;stroke:#721f81;stroke-opacity:0.2;stroke-width:0.8;" x="0" xlink:href="#m1ba2d75e6b" y="266.206125"/>
    </g>
   </g>
   <g id="PolyCollection_2">
    <defs>
     <path d="M 59.465557 -181.128633 
L 59.465557 -155.494468 
L 65.10192 -118.278591 
L 70.738284 -100.890182 
L 76.374648 -119.125737 
L 82.011011 -104.676726 
L 87.647375 -113.784632 
L 93.283739 -102.435533 
L 98.920102 -89.152389 
L 104.556466 -89.882159 
L 110.19283 -85.884859 
L 115.829193 -86.882135 
L 121.465557 -85.519713 
L 127.10192 -202.511169 
L 132.738284 -152.944219 
L 138.374648 -143.317331 
L 144.011011 -135.177935 
L 149.647375 -153.04584 
L 155.283739 -127.871422 
L 160.920102 -149.86626 
L 166.556466 -129.735675 
L 172.19283 -117.30131 
L 177.829193 -122.294233 
L 183.465557 -117.416131 
L 189.10192 -126.952379 
L 194.738284 -129.540323 
L 200.374648 -112.741314 
L 206.011011 -120.344341 
L 211.647375 -115.811719 
L 217.283739 -105.251936 
L 222.920102 -109.561017 
L 228.556466 -111.432234 
L 234.19283 -113.355673 
L 239.829193 -106.127873 
L 245.465557 -113.539463 
L 251.10192 -133.054761 
L 256.738284 -100.235156 
L 262.374648 -114.168476 
L 268.011011 -116.622614 
L 273.647375 -121.923321 
L 279.283739 -119.969039 
L 284.920102 -123.463491 
L 290.556466 -106.532716 
L 296.19283 -112.172451 
L 301.829193 -89.383941 
L 307.465557 -79.236651 
L 313.10192 -70.88382 
L 318.738284 -77.570004 
L 324.374648 -78.13727 
L 330.011011 -69.031381 
L 335.647375 -81.447299 
L 341.283739 -71.588059 
L 346.920102 -71.015915 
L 352.556466 -69.514154 
L 358.19283 -72.37706 
L 358.19283 -91.218438 
L 358.19283 -91.218438 
L 352.556466 -82.045483 
L 346.920102 -83.546794 
L 341.283739 -84.481213 
L 335.647375 -99.070315 
L 330.011011 -80.163594 
L 324.374648 -95.919674 
L 318.738284 -94.90072 
L 313.10192 -82.724843 
L 307.465557 -89.91128 
L 301.829193 -109.755209 
L 296.19283 -153.767798 
L 290.556466 -164.715165 
L 284.920102 -154.233838 
L 279.283739 -151.572224 
L 273.647375 -207.595255 
L 268.011011 -142.460887 
L 262.374648 -140.156931 
L 256.738284 -149.29537 
L 251.10192 -168.025472 
L 245.465557 -144.137108 
L 239.829193 -133.320073 
L 234.19283 -142.661626 
L 228.556466 -148.179389 
L 222.920102 -143.208335 
L 217.283739 -136.081254 
L 211.647375 -147.415129 
L 206.011011 -209.844692 
L 200.374648 -144.67977 
L 194.738284 -158.659092 
L 189.10192 -156.291242 
L 183.465557 -142.307387 
L 177.829193 -153.810611 
L 172.19283 -144.76297 
L 166.556466 -155.563841 
L 160.920102 -215.369936 
L 155.283739 -182.157944 
L 149.647375 -207.165906 
L 144.011011 -161.8562 
L 138.374648 -169.90414 
L 132.738284 -183.712763 
L 127.10192 -248.662477 
L 121.465557 -97.622115 
L 115.829193 -119.008827 
L 110.19283 -106.050853 
L 104.556466 -106.752585 
L 98.920102 -104.907482 
L 93.283739 -141.184274 
L 87.647375 -153.936828 
L 82.011011 -124.811513 
L 76.374648 -150.475927 
L 70.738284 -121.087153 
L 65.10192 -133.269259 
L 59.465557 -181.128633 
z
" id="me8058016ce" style="stroke:#f1605d;stroke-opacity:0.2;stroke-width:0.8;"/>
    </defs>
    <g clip-path="url(#pbbab8f78d0)">
     <use style="fill:#f1605d;fill-opacity:0.2;stroke:#f1605d;stroke-opacity:0.2;stroke-width:0.8;" x="0" xlink:href="#me8058016ce" y="266.206125"/>
    </g>
   </g>
   <g id="matplotlib.axis_1">
    <g id="xtick_1">
     <g id="line2d_1">
      <defs>
       <path d="M 0 0 
L 0 4.8 
" id="md8698127b9" style="stroke:#000000;"/>
      </defs>
      <g>
       <use style="stroke:#000000;" x="59.465557" xlink:href="#md8698127b9" y="224.64"/>
      </g>
     </g>
     <g id="text_1">
      <!-- 0 -->
      <g transform="translate(56.666057 239.626625)scale(0.088 -0.088)">
       <defs>
        <path d="M 2034 4250 
Q 1547 4250 1301 3770 
Q 1056 3291 1056 2328 
Q 1056 1369 1301 889 
Q 1547 409 2034 409 
Q 2525 409 2770 889 
Q 3016 1369 3016 2328 
Q 3016 3291 2770 3770 
Q 2525 4250 2034 4250 
z
M 2034 4750 
Q 2819 4750 3233 4129 
Q 3647 3509 3647 2328 
Q 3647 1150 3233 529 
Q 2819 -91 2034 -91 
Q 1250 -91 836 529 
Q 422 1150 422 2328 
Q 422 3509 836 4129 
Q 1250 4750 2034 4750 
z
" id="DejaVuSans-30" transform="scale(0.015625)"/>
       </defs>
       <use xlink:href="#DejaVuSans-30"/>
      </g>
     </g>
    </g>
    <g id="xtick_2">
     <g id="line2d_2">
      <g>
       <use style="stroke:#000000;" x="115.829193" xlink:href="#md8698127b9" y="224.64"/>
      </g>
     </g>
     <g id="text_2">
      <!-- 10 -->
      <g transform="translate(110.230193 239.626625)scale(0.088 -0.088)">
       <defs>
        <path d="M 794 531 
L 1825 531 
L 1825 4091 
L 703 3866 
L 703 4441 
L 1819 4666 
L 2450 4666 
L 2450 531 
L 3481 531 
L 3481 0 
L 794 0 
L 794 531 
z
" id="DejaVuSans-31" transform="scale(0.015625)"/>
       </defs>
       <use xlink:href="#DejaVuSans-31"/>
       <use x="63.623047" xlink:href="#DejaVuSans-30"/>
      </g>
     </g>
    </g>
    <g id="xtick_3">
     <g id="line2d_3">
      <g>
       <use style="stroke:#000000;" x="172.19283" xlink:href="#md8698127b9" y="224.64"/>
      </g>
     </g>
     <g id="text_3">
      <!-- 20 -->
      <g transform="translate(166.59383 239.626625)scale(0.088 -0.088)">
       <defs>
        <path d="M 1228 531 
L 3431 531 
L 3431 0 
L 469 0 
L 469 531 
Q 828 903 1448 1529 
Q 2069 2156 2228 2338 
Q 2531 2678 2651 2914 
Q 2772 3150 2772 3378 
Q 2772 3750 2511 3984 
Q 2250 4219 1831 4219 
Q 1534 4219 1204 4116 
Q 875 4013 500 3803 
L 500 4441 
Q 881 4594 1212 4672 
Q 1544 4750 1819 4750 
Q 2544 4750 2975 4387 
Q 3406 4025 3406 3419 
Q 3406 3131 3298 2873 
Q 3191 2616 2906 2266 
Q 2828 2175 2409 1742 
Q 1991 1309 1228 531 
z
" id="DejaVuSans-32" transform="scale(0.015625)"/>
       </defs>
       <use xlink:href="#DejaVuSans-32"/>
       <use x="63.623047" xlink:href="#DejaVuSans-30"/>
      </g>
     </g>
    </g>
    <g id="xtick_4">
     <g id="line2d_4">
      <g>
       <use style="stroke:#000000;" x="228.556466" xlink:href="#md8698127b9" y="224.64"/>
      </g>
     </g>
     <g id="text_4">
      <!-- 30 -->
      <g transform="translate(222.957466 239.626625)scale(0.088 -0.088)">
       <defs>
        <path d="M 2597 2516 
Q 3050 2419 3304 2112 
Q 3559 1806 3559 1356 
Q 3559 666 3084 287 
Q 2609 -91 1734 -91 
Q 1441 -91 1130 -33 
Q 819 25 488 141 
L 488 750 
Q 750 597 1062 519 
Q 1375 441 1716 441 
Q 2309 441 2620 675 
Q 2931 909 2931 1356 
Q 2931 1769 2642 2001 
Q 2353 2234 1838 2234 
L 1294 2234 
L 1294 2753 
L 1863 2753 
Q 2328 2753 2575 2939 
Q 2822 3125 2822 3475 
Q 2822 3834 2567 4026 
Q 2313 4219 1838 4219 
Q 1578 4219 1281 4162 
Q 984 4106 628 3988 
L 628 4550 
Q 988 4650 1302 4700 
Q 1616 4750 1894 4750 
Q 2613 4750 3031 4423 
Q 3450 4097 3450 3541 
Q 3450 3153 3228 2886 
Q 3006 2619 2597 2516 
z
" id="DejaVuSans-33" transform="scale(0.015625)"/>
       </defs>
       <use xlink:href="#DejaVuSans-33"/>
       <use x="63.623047" xlink:href="#DejaVuSans-30"/>
      </g>
     </g>
    </g>
    <g id="xtick_5">
     <g id="line2d_5">
      <g>
       <use style="stroke:#000000;" x="284.920102" xlink:href="#md8698127b9" y="224.64"/>
      </g>
     </g>
     <g id="text_5">
      <!-- 40 -->
      <g transform="translate(279.321102 239.626625)scale(0.088 -0.088)">
       <defs>
        <path d="M 2419 4116 
L 825 1625 
L 2419 1625 
L 2419 4116 
z
M 2253 4666 
L 3047 4666 
L 3047 1625 
L 3713 1625 
L 3713 1100 
L 3047 1100 
L 3047 0 
L 2419 0 
L 2419 1100 
L 313 1100 
L 313 1709 
L 2253 4666 
z
" id="DejaVuSans-34" transform="scale(0.015625)"/>
       </defs>
       <use xlink:href="#DejaVuSans-34"/>
       <use x="63.623047" xlink:href="#DejaVuSans-30"/>
      </g>
     </g>
    </g>
    <g id="xtick_6">
     <g id="line2d_6">
      <g>
       <use style="stroke:#000000;" x="341.283739" xlink:href="#md8698127b9" y="224.64"/>
      </g>
     </g>
     <g id="text_6">
      <!-- 50 -->
      <g transform="translate(335.684739 239.626625)scale(0.088 -0.088)">
       <defs>
        <path d="M 691 4666 
L 3169 4666 
L 3169 4134 
L 1269 4134 
L 1269 2991 
Q 1406 3038 1543 3061 
Q 1681 3084 1819 3084 
Q 2600 3084 3056 2656 
Q 3513 2228 3513 1497 
Q 3513 744 3044 326 
Q 2575 -91 1722 -91 
Q 1428 -91 1123 -41 
Q 819 9 494 109 
L 494 744 
Q 775 591 1075 516 
Q 1375 441 1709 441 
Q 2250 441 2565 725 
Q 2881 1009 2881 1497 
Q 2881 1984 2565 2268 
Q 2250 2553 1709 2553 
Q 1456 2553 1204 2497 
Q 953 2441 691 2322 
L 691 4666 
z
" id="DejaVuSans-35" transform="scale(0.015625)"/>
       </defs>
       <use xlink:href="#DejaVuSans-35"/>
       <use x="63.623047" xlink:href="#DejaVuSans-30"/>
      </g>
     </g>
    </g>
    <g id="text_7">
     <!-- Trial -->
     <g transform="translate(197.347687 256.094562)scale(0.14 -0.14)">
      <defs>
       <path d="M -19 4666 
L 3928 4666 
L 3928 4134 
L 2272 4134 
L 2272 0 
L 1638 0 
L 1638 4134 
L -19 4134 
L -19 4666 
z
" id="DejaVuSans-54" transform="scale(0.015625)"/>
       <path d="M 2631 2963 
Q 2534 3019 2420 3045 
Q 2306 3072 2169 3072 
Q 1681 3072 1420 2755 
Q 1159 2438 1159 1844 
L 1159 0 
L 581 0 
L 581 3500 
L 1159 3500 
L 1159 2956 
Q 1341 3275 1631 3429 
Q 1922 3584 2338 3584 
Q 2397 3584 2469 3576 
Q 2541 3569 2628 3553 
L 2631 2963 
z
" id="DejaVuSans-72" transform="scale(0.015625)"/>
       <path d="M 603 3500 
L 1178 3500 
L 1178 0 
L 603 0 
L 603 3500 
z
M 603 4863 
L 1178 4863 
L 1178 4134 
L 603 4134 
L 603 4863 
z
" id="DejaVuSans-69" transform="scale(0.015625)"/>
       <path d="M 2194 1759 
Q 1497 1759 1228 1600 
Q 959 1441 959 1056 
Q 959 750 1161 570 
Q 1363 391 1709 391 
Q 2188 391 2477 730 
Q 2766 1069 2766 1631 
L 2766 1759 
L 2194 1759 
z
M 3341 1997 
L 3341 0 
L 2766 0 
L 2766 531 
Q 2569 213 2275 61 
Q 1981 -91 1556 -91 
Q 1019 -91 701 211 
Q 384 513 384 1019 
Q 384 1609 779 1909 
Q 1175 2209 1959 2209 
L 2766 2209 
L 2766 2266 
Q 2766 2663 2505 2880 
Q 2244 3097 1772 3097 
Q 1472 3097 1187 3025 
Q 903 2953 641 2809 
L 641 3341 
Q 956 3463 1253 3523 
Q 1550 3584 1831 3584 
Q 2591 3584 2966 3190 
Q 3341 2797 3341 1997 
z
" id="DejaVuSans-61" transform="scale(0.015625)"/>
       <path d="M 603 4863 
L 1178 4863 
L 1178 0 
L 603 0 
L 603 4863 
z
" id="DejaVuSans-6c" transform="scale(0.015625)"/>
      </defs>
      <use xlink:href="#DejaVuSans-54"/>
      <use x="46.333984" xlink:href="#DejaVuSans-72"/>
      <use x="87.447266" xlink:href="#DejaVuSans-69"/>
      <use x="115.230469" xlink:href="#DejaVuSans-61"/>
      <use x="176.509766" xlink:href="#DejaVuSans-6c"/>
     </g>
    </g>
   </g>
   <g id="matplotlib.axis_2">
    <g id="ytick_1">
     <g id="line2d_7">
      <defs>
       <path d="M 0 0 
L -4.8 0 
" id="m310c1a121b" style="stroke:#000000;"/>
      </defs>
      <g>
       <use style="stroke:#000000;" x="44.247375" xlink:href="#m310c1a121b" y="212.032457"/>
      </g>
     </g>
     <g id="text_8">
      <!-- 10 -->
      <g transform="translate(24.749375 215.37577)scale(0.088 -0.088)">
       <use xlink:href="#DejaVuSans-31"/>
       <use x="63.623047" xlink:href="#DejaVuSans-30"/>
      </g>
     </g>
    </g>
    <g id="ytick_2">
     <g id="line2d_8">
      <g>
       <use style="stroke:#000000;" x="44.247375" xlink:href="#m310c1a121b" y="180.880484"/>
      </g>
     </g>
     <g id="text_9">
      <!-- 15 -->
      <g transform="translate(24.749375 184.223796)scale(0.088 -0.088)">
       <use xlink:href="#DejaVuSans-31"/>
       <use x="63.623047" xlink:href="#DejaVuSans-35"/>
      </g>
     </g>
    </g>
    <g id="ytick_3">
     <g id="line2d_9">
      <g>
       <use style="stroke:#000000;" x="44.247375" xlink:href="#m310c1a121b" y="149.72851"/>
      </g>
     </g>
     <g id="text_10">
      <!-- 20 -->
      <g transform="translate(24.749375 153.071823)scale(0.088 -0.088)">
       <use xlink:href="#DejaVuSans-32"/>
       <use x="63.623047" xlink:href="#DejaVuSans-30"/>
      </g>
     </g>
    </g>
    <g id="ytick_4">
     <g id="line2d_10">
      <g>
       <use style="stroke:#000000;" x="44.247375" xlink:href="#m310c1a121b" y="118.576537"/>
      </g>
     </g>
     <g id="text_11">
      <!-- 25 -->
      <g transform="translate(24.749375 121.919849)scale(0.088 -0.088)">
       <use xlink:href="#DejaVuSans-32"/>
       <use x="63.623047" xlink:href="#DejaVuSans-35"/>
      </g>
     </g>
    </g>
    <g id="ytick_5">
     <g id="line2d_11">
      <g>
       <use style="stroke:#000000;" x="44.247375" xlink:href="#m310c1a121b" y="87.424563"/>
      </g>
     </g>
     <g id="text_12">
      <!-- 30 -->
      <g transform="translate(24.749375 90.767876)scale(0.088 -0.088)">
       <use xlink:href="#DejaVuSans-33"/>
       <use x="63.623047" xlink:href="#DejaVuSans-30"/>
      </g>
     </g>
    </g>
    <g id="ytick_6">
     <g id="line2d_12">
      <g>
       <use style="stroke:#000000;" x="44.247375" xlink:href="#m310c1a121b" y="56.27259"/>
      </g>
     </g>
     <g id="text_13">
      <!-- 35 -->
      <g transform="translate(24.749375 59.615902)scale(0.088 -0.088)">
       <use xlink:href="#DejaVuSans-33"/>
       <use x="63.623047" xlink:href="#DejaVuSans-35"/>
      </g>
     </g>
    </g>
    <g id="ytick_7">
     <g id="line2d_13">
      <g>
       <use style="stroke:#000000;" x="44.247375" xlink:href="#m310c1a121b" y="25.120617"/>
      </g>
     </g>
     <g id="text_14">
      <!-- 40 -->
      <g transform="translate(24.749375 28.463929)scale(0.088 -0.088)">
       <use xlink:href="#DejaVuSans-34"/>
       <use x="63.623047" xlink:href="#DejaVuSans-30"/>
      </g>
     </g>
    </g>
    <g id="text_15">
     <!-- Intercept -->
     <g transform="translate(17.837813 147.537031)rotate(-90)scale(0.14 -0.14)">
      <defs>
       <path d="M 628 4666 
L 1259 4666 
L 1259 0 
L 628 0 
L 628 4666 
z
" id="DejaVuSans-49" transform="scale(0.015625)"/>
       <path d="M 3513 2113 
L 3513 0 
L 2938 0 
L 2938 2094 
Q 2938 2591 2744 2837 
Q 2550 3084 2163 3084 
Q 1697 3084 1428 2787 
Q 1159 2491 1159 1978 
L 1159 0 
L 581 0 
L 581 3500 
L 1159 3500 
L 1159 2956 
Q 1366 3272 1645 3428 
Q 1925 3584 2291 3584 
Q 2894 3584 3203 3211 
Q 3513 2838 3513 2113 
z
" id="DejaVuSans-6e" transform="scale(0.015625)"/>
       <path d="M 1172 4494 
L 1172 3500 
L 2356 3500 
L 2356 3053 
L 1172 3053 
L 1172 1153 
Q 1172 725 1289 603 
Q 1406 481 1766 481 
L 2356 481 
L 2356 0 
L 1766 0 
Q 1100 0 847 248 
Q 594 497 594 1153 
L 594 3053 
L 172 3053 
L 172 3500 
L 594 3500 
L 594 4494 
L 1172 4494 
z
" id="DejaVuSans-74" transform="scale(0.015625)"/>
       <path d="M 3597 1894 
L 3597 1613 
L 953 1613 
Q 991 1019 1311 708 
Q 1631 397 2203 397 
Q 2534 397 2845 478 
Q 3156 559 3463 722 
L 3463 178 
Q 3153 47 2828 -22 
Q 2503 -91 2169 -91 
Q 1331 -91 842 396 
Q 353 884 353 1716 
Q 353 2575 817 3079 
Q 1281 3584 2069 3584 
Q 2775 3584 3186 3129 
Q 3597 2675 3597 1894 
z
M 3022 2063 
Q 3016 2534 2758 2815 
Q 2500 3097 2075 3097 
Q 1594 3097 1305 2825 
Q 1016 2553 972 2059 
L 3022 2063 
z
" id="DejaVuSans-65" transform="scale(0.015625)"/>
       <path d="M 3122 3366 
L 3122 2828 
Q 2878 2963 2633 3030 
Q 2388 3097 2138 3097 
Q 1578 3097 1268 2742 
Q 959 2388 959 1747 
Q 959 1106 1268 751 
Q 1578 397 2138 397 
Q 2388 397 2633 464 
Q 2878 531 3122 666 
L 3122 134 
Q 2881 22 2623 -34 
Q 2366 -91 2075 -91 
Q 1284 -91 818 406 
Q 353 903 353 1747 
Q 353 2603 823 3093 
Q 1294 3584 2113 3584 
Q 2378 3584 2631 3529 
Q 2884 3475 3122 3366 
z
" id="DejaVuSans-63" transform="scale(0.015625)"/>
       <path d="M 1159 525 
L 1159 -1331 
L 581 -1331 
L 581 3500 
L 1159 3500 
L 1159 2969 
Q 1341 3281 1617 3432 
Q 1894 3584 2278 3584 
Q 2916 3584 3314 3078 
Q 3713 2572 3713 1747 
Q 3713 922 3314 415 
Q 2916 -91 2278 -91 
Q 1894 -91 1617 61 
Q 1341 213 1159 525 
z
M 3116 1747 
Q 3116 2381 2855 2742 
Q 2594 3103 2138 3103 
Q 1681 3103 1420 2742 
Q 1159 2381 1159 1747 
Q 1159 1113 1420 752 
Q 1681 391 2138 391 
Q 2594 391 2855 752 
Q 3116 1113 3116 1747 
z
" id="DejaVuSans-70" transform="scale(0.015625)"/>
      </defs>
      <use xlink:href="#DejaVuSans-49"/>
      <use x="29.492188" xlink:href="#DejaVuSans-6e"/>
      <use x="92.871094" xlink:href="#DejaVuSans-74"/>
      <use x="132.080078" xlink:href="#DejaVuSans-65"/>
      <use x="193.603516" xlink:href="#DejaVuSans-72"/>
      <use x="232.466797" xlink:href="#DejaVuSans-63"/>
      <use x="287.447266" xlink:href="#DejaVuSans-65"/>
      <use x="348.970703" xlink:href="#DejaVuSans-70"/>
      <use x="412.447266" xlink:href="#DejaVuSans-74"/>
     </g>
    </g>
   </g>
   <g id="line2d_14">
    <path clip-path="url(#pbbab8f78d0)" d="M 59.465557 116.68116 
L 65.10192 147.628587 
L 70.738284 140.049645 
L 76.374648 152.769867 
L 82.011011 167.452717 
L 87.647375 158.738341 
L 93.283739 163.683638 
L 98.920102 150.062055 
L 104.556466 149.561881 
L 110.19283 142.146942 
L 115.829193 140.787044 
L 121.465557 141.403017 
L 127.10192 56.923871 
L 132.738284 94.132273 
L 138.374648 60.336287 
L 144.011011 73.222485 
L 149.647375 96.735242 
L 155.283739 78.062003 
L 160.920102 74.475935 
L 166.556466 57.120701 
L 172.19283 110.787707 
L 177.829193 110.121833 
L 183.465557 121.21456 
L 189.10192 112.708979 
L 194.738284 125.685457 
L 200.374648 135.360079 
L 206.011011 113.334203 
L 211.647375 125.901204 
L 217.283739 118.448766 
L 222.920102 72.157771 
L 228.556466 90.539898 
L 234.19283 102.752549 
L 239.829193 93.646691 
L 245.465557 116.37972 
L 251.10192 119.378862 
L 256.738284 120.789473 
L 262.374648 110.971193 
L 268.011011 101.147973 
L 273.647375 99.153335 
L 279.283739 94.686377 
L 284.920102 112.476166 
L 290.556466 132.401169 
L 296.19283 127.598276 
L 301.829193 133.940194 
L 307.465557 138.927824 
L 313.10192 147.697134 
L 318.738284 148.265087 
L 324.374648 150.106743 
L 330.011011 154.800298 
L 335.647375 156.413623 
L 341.283739 158.852707 
L 346.920102 166.961048 
L 352.556466 155.096932 
L 358.19283 188.329494 
L 363.829193 195.469893 
" style="fill:none;stroke:#721f81;stroke-linecap:square;stroke-width:2;"/>
   </g>
   <g id="line2d_15">
    <path clip-path="url(#pbbab8f78d0)" d="M 59.465557 96.836694 
L 65.10192 140.323242 
L 70.738284 154.916291 
L 76.374648 131.49841 
L 82.011011 151.540754 
L 87.647375 132.457836 
L 93.283739 144.383064 
L 98.920102 168.821762 
L 104.556466 167.659797 
L 110.19283 170.55327 
L 115.829193 163.653682 
L 121.465557 174.813431 
L 127.10192 42.622838 
L 132.738284 98.459081 
L 138.374648 109.848105 
L 144.011011 117.796339 
L 149.647375 85.747384 
L 155.283739 110.639833 
L 160.920102 84.238463 
L 166.556466 123.219124 
L 172.19283 135.06231 
L 177.829193 128.904646 
L 183.465557 136.662126 
L 189.10192 123.242717 
L 194.738284 122.642298 
L 200.374648 137.504574 
L 206.011011 101.619992 
L 211.647375 134.231488 
L 217.283739 144.859574 
L 222.920102 139.578555 
L 228.556466 136.699233 
L 234.19283 138.365733 
L 239.829193 146.598173 
L 245.465557 138.057784 
L 251.10192 117.071203 
L 256.738284 141.405387 
L 262.374648 138.270897 
L 268.011011 136.135003 
L 273.647375 100.576204 
L 279.283739 130.572017 
L 284.920102 126.848751 
L 290.556466 130.675725 
L 296.19283 132.946752 
L 301.829193 166.83018 
L 307.465557 181.483376 
L 313.10192 189.233238 
L 318.738284 178.938913 
L 324.374648 179.303279 
L 330.011011 191.482947 
L 335.647375 176.236896 
L 341.283739 188.2218 
L 346.920102 188.501811 
L 352.556466 190.528116 
L 358.19283 184.566277 
" style="fill:none;stroke:#f1605d;stroke-linecap:square;stroke-width:2;"/>
   </g>
   <g id="line2d_16"/>
   <g id="line2d_17"/>
   <g id="patch_3">
    <path d="M 44.247375 224.64 
L 44.247375 7.2 
" style="fill:none;stroke:#000000;stroke-linecap:square;stroke-linejoin:miter;"/>
   </g>
   <g id="patch_4">
    <path d="M 379.047375 224.64 
L 379.047375 7.2 
" style="fill:none;stroke:#000000;stroke-linecap:square;stroke-linejoin:miter;"/>
   </g>
   <g id="patch_5">
    <path d="M 44.247375 224.64 
L 379.047375 224.64 
" style="fill:none;stroke:#000000;stroke-linecap:square;stroke-linejoin:miter;"/>
   </g>
   <g id="patch_6">
    <path d="M 44.247375 7.2 
L 379.047375 7.2 
" style="fill:none;stroke:#000000;stroke-linecap:square;stroke-linejoin:miter;"/>
   </g>
   <g id="legend_1">
    <g id="patch_7">
     <path d="M 369.367375 18.64 
L 372.887375 18.64 
Q 374.647375 18.64 374.647375 16.88 
L 374.647375 13.36 
Q 374.647375 11.6 372.887375 11.6 
L 369.367375 11.6 
Q 367.607375 11.6 367.607375 13.36 
L 367.607375 16.88 
Q 367.607375 18.64 369.367375 18.64 
z
" style="fill:#ffffff;opacity:0.8;stroke:#cccccc;stroke-linejoin:miter;stroke-width:0.8;"/>
    </g>
   </g>
  </g>
 </g>
 <defs>
  <clipPath id="pbbab8f78d0">
   <rect height="217.44" width="334.8" x="44.247375" y="7.2"/>
  </clipPath>
 </defs>
</svg>
