<?xml version="1.0" encoding="utf-8" standalone="no"?>
<!DOCTYPE svg PUBLIC "-//W3C//DTD SVG 1.1//EN"
  "http://www.w3.org/Graphics/SVG/1.1/DTD/svg11.dtd">
<svg height="270.178721pt" version="1.1" viewBox="0 0 394.643125 270.178721" width="394.643125pt" xmlns="http://www.w3.org/2000/svg" xmlns:xlink="http://www.w3.org/1999/xlink">
 <metadata>
  <rdf:RDF xmlns:cc="http://creativecommons.org/ns#" xmlns:dc="http://purl.org/dc/elements/1.1/" xmlns:rdf="http://www.w3.org/1999/02/22-rdf-syntax-ns#">
   <cc:Work>
    <dc:type rdf:resource="http://purl.org/dc/dcmitype/StillImage"/>
    <dc:date>2022-04-30T14:54:45.665107</dc:date>
    <dc:format>image/svg+xml</dc:format>
    <dc:creator>
     <cc:Agent>
      <dc:title>Matplotlib v3.4.3, https://matplotlib.org/</dc:title>
     </cc:Agent>
    </dc:creator>
   </cc:Work>
  </rdf:RDF>
 </metadata>
 <defs>
  <style type="text/css">*{stroke-linecap:butt;stroke-linejoin:round;}</style>
 </defs>
 <g id="figure_1">
  <g id="patch_1">
   <path d="M 0 270.178721 
L 394.643125 270.178721 
L 394.643125 0 
L 0 0 
z
" style="fill:none;"/>
  </g>
  <g id="axes_1">
   <g id="patch_2">
    <path d="M 52.643125 225.515596 
L 387.443125 225.515596 
L 387.443125 8.075596 
L 52.643125 8.075596 
z
" style="fill:#ffffff;"/>
   </g>
   <g id="PathCollection_1">
    <defs>
     <path d="M 0 4.511931 
C 1.196578 4.511931 2.344308 4.036525 3.190417 3.190417 
C 4.036525 2.344308 4.511931 1.196578 4.511931 0 
C 4.511931 -1.196578 4.036525 -2.344308 3.190417 -3.190417 
C 2.344308 -4.036525 1.196578 -4.511931 0 -4.511931 
C -1.196578 -4.511931 -2.344308 -4.036525 -3.190417 -3.190417 
C -4.036525 -2.344308 -4.511931 -1.196578 -4.511931 0 
C -4.511931 1.196578 -4.036525 2.344308 -3.190417 3.190417 
C -2.344308 4.036525 -1.196578 4.511931 0 4.511931 
z
" id="me44a964133" style="stroke:#fca082;stroke-width:2.7;"/>
    </defs>
    <g clip-path="url(#pb3d72e40b4)">
     <use style="fill:#fca082;stroke:#fca082;stroke-width:2.7;" x="58.415539" xlink:href="#me44a964133" y="58.313461"/>
     <use style="fill:#fca082;stroke:#fca082;stroke-width:2.7;" x="69.960366" xlink:href="#me44a964133" y="75.744949"/>
     <use style="fill:#fca082;stroke:#fca082;stroke-width:2.7;" x="81.505194" xlink:href="#me44a964133" y="66.047162"/>
     <use style="fill:#fca082;stroke:#fca082;stroke-width:2.7;" x="93.050022" xlink:href="#me44a964133" y="69.123657"/>
     <use style="fill:#fca082;stroke:#fca082;stroke-width:2.7;" x="104.594849" xlink:href="#me44a964133" y="63.947076"/>
     <use style="fill:#fca082;stroke:#fca082;stroke-width:2.7;" x="116.139677" xlink:href="#me44a964133" y="63.578014"/>
     <use style="fill:#fca082;stroke:#fca082;stroke-width:2.7;" x="127.684504" xlink:href="#me44a964133" y="64.268473"/>
     <use style="fill:#fca082;stroke:#fca082;stroke-width:2.7;" x="139.229332" xlink:href="#me44a964133" y="124.730454"/>
     <use style="fill:#fca082;stroke:#fca082;stroke-width:2.7;" x="150.774159" xlink:href="#me44a964133" y="133.064002"/>
     <use style="fill:#fca082;stroke:#fca082;stroke-width:2.7;" x="162.318987" xlink:href="#me44a964133" y="139.540805"/>
     <use style="fill:#fca082;stroke:#fca082;stroke-width:2.7;" x="173.863815" xlink:href="#me44a964133" y="144.754239"/>
     <use style="fill:#fca082;stroke:#fca082;stroke-width:2.7;" x="185.408642" xlink:href="#me44a964133" y="143.566279"/>
     <use style="fill:#fca082;stroke:#fca082;stroke-width:2.7;" x="196.95347" xlink:href="#me44a964133" y="151.83698"/>
     <use style="fill:#fca082;stroke:#fca082;stroke-width:2.7;" x="208.498297" xlink:href="#me44a964133" y="146.630106"/>
     <use style="fill:#fca082;stroke:#fca082;stroke-width:2.7;" x="220.043125" xlink:href="#me44a964133" y="127.195149"/>
     <use style="fill:#fca082;stroke:#fca082;stroke-width:2.7;" x="231.587953" xlink:href="#me44a964133" y="122.546855"/>
     <use style="fill:#fca082;stroke:#fca082;stroke-width:2.7;" x="243.13278" xlink:href="#me44a964133" y="104.930648"/>
     <use style="fill:#fca082;stroke:#fca082;stroke-width:2.7;" x="254.677608" xlink:href="#me44a964133" y="96.9165"/>
     <use style="fill:#fca082;stroke:#fca082;stroke-width:2.7;" x="266.222435" xlink:href="#me44a964133" y="116.574387"/>
     <use style="fill:#fca082;stroke:#fca082;stroke-width:2.7;" x="277.767263" xlink:href="#me44a964133" y="121.265381"/>
     <use style="fill:#fca082;stroke:#fca082;stroke-width:2.7;" x="289.312091" xlink:href="#me44a964133" y="138.844463"/>
     <use style="fill:#fca082;stroke:#fca082;stroke-width:2.7;" x="300.856918" xlink:href="#me44a964133" y="142.955555"/>
     <use style="fill:#fca082;stroke:#fca082;stroke-width:2.7;" x="312.401746" xlink:href="#me44a964133" y="136.4121"/>
     <use style="fill:#fca082;stroke:#fca082;stroke-width:2.7;" x="323.946573" xlink:href="#me44a964133" y="135.099474"/>
     <use style="fill:#fca082;stroke:#fca082;stroke-width:2.7;" x="335.491401" xlink:href="#me44a964133" y="126.084738"/>
     <use style="fill:#fca082;stroke:#fca082;stroke-width:2.7;" x="347.036228" xlink:href="#me44a964133" y="135.011444"/>
     <use style="fill:#fca082;stroke:#fca082;stroke-width:2.7;" x="358.581056" xlink:href="#me44a964133" y="140.197439"/>
     <use style="fill:#fca082;stroke:#fca082;stroke-width:2.7;" x="370.125884" xlink:href="#me44a964133" y="145.605674"/>
     <use style="fill:#fca082;stroke:#fca082;stroke-width:2.7;" x="381.670711" xlink:href="#me44a964133" y="159.848278"/>
    </g>
   </g>
   <g id="line2d_1">
    <path clip-path="url(#pb3d72e40b4)" d="M 58.415539 58.313461 
L 69.960366 75.744949 
L 81.505194 66.047162 
L 93.050022 69.123657 
L 104.594849 63.947076 
L 116.139677 63.578014 
L 127.684504 64.268473 
L 139.229332 124.730454 
L 150.774159 133.064002 
L 162.318987 139.540805 
L 173.863815 144.754239 
L 185.408642 143.566279 
L 196.95347 151.83698 
L 208.498297 146.630106 
L 220.043125 127.195149 
L 231.587953 122.546855 
L 243.13278 104.930648 
L 254.677608 96.9165 
L 266.222435 116.574387 
L 277.767263 121.265381 
L 289.312091 138.844463 
L 300.856918 142.955555 
L 312.401746 136.4121 
L 323.946573 135.099474 
L 335.491401 126.084738 
L 347.036228 135.011444 
L 358.581056 140.197439 
L 370.125884 145.605674 
L 381.670711 159.848278 
" style="fill:none;stroke:#fca082;stroke-linecap:square;stroke-width:3.6;"/>
   </g>
   <g id="line2d_2">
    <path clip-path="url(#pb3d72e40b4)" d="M 58.415539 83.917701 
L 58.415539 32.081728 
" style="fill:none;stroke:#fca082;stroke-linecap:square;stroke-width:3.6;"/>
   </g>
   <g id="line2d_3">
    <path clip-path="url(#pb3d72e40b4)" d="M 69.960366 109.705361 
L 69.960366 45.789982 
" style="fill:none;stroke:#fca082;stroke-linecap:square;stroke-width:3.6;"/>
   </g>
   <g id="line2d_4">
    <path clip-path="url(#pb3d72e40b4)" d="M 81.505194 99.928105 
L 81.505194 31.629793 
" style="fill:none;stroke:#fca082;stroke-linecap:square;stroke-width:3.6;"/>
   </g>
   <g id="line2d_5">
    <path clip-path="url(#pb3d72e40b4)" d="M 93.050022 100.098701 
L 93.050022 35.147974 
" style="fill:none;stroke:#fca082;stroke-linecap:square;stroke-width:3.6;"/>
   </g>
   <g id="line2d_6">
    <path clip-path="url(#pb3d72e40b4)" d="M 104.594849 95.485353 
L 104.594849 33.402514 
" style="fill:none;stroke:#fca082;stroke-linecap:square;stroke-width:3.6;"/>
   </g>
   <g id="line2d_7">
    <path clip-path="url(#pb3d72e40b4)" d="M 116.139677 97.373428 
L 116.139677 24.244233 
" style="fill:none;stroke:#fca082;stroke-linecap:square;stroke-width:3.6;"/>
   </g>
   <g id="line2d_8">
    <path clip-path="url(#pb3d72e40b4)" d="M 127.684504 107.907668 
L 127.684504 17.959232 
" style="fill:none;stroke:#fca082;stroke-linecap:square;stroke-width:3.6;"/>
   </g>
   <g id="line2d_9">
    <path clip-path="url(#pb3d72e40b4)" d="M 139.229332 147.849683 
L 139.229332 102.220836 
" style="fill:none;stroke:#fca082;stroke-linecap:square;stroke-width:3.6;"/>
   </g>
   <g id="line2d_10">
    <path clip-path="url(#pb3d72e40b4)" d="M 150.774159 155.3218 
L 150.774159 110.666279 
" style="fill:none;stroke:#fca082;stroke-linecap:square;stroke-width:3.6;"/>
   </g>
   <g id="line2d_11">
    <path clip-path="url(#pb3d72e40b4)" d="M 162.318987 164.638219 
L 162.318987 116.391627 
" style="fill:none;stroke:#fca082;stroke-linecap:square;stroke-width:3.6;"/>
   </g>
   <g id="line2d_12">
    <path clip-path="url(#pb3d72e40b4)" d="M 173.863815 168.225779 
L 173.863815 119.327589 
" style="fill:none;stroke:#fca082;stroke-linecap:square;stroke-width:3.6;"/>
   </g>
   <g id="line2d_13">
    <path clip-path="url(#pb3d72e40b4)" d="M 185.408642 165.527729 
L 185.408642 121.685383 
" style="fill:none;stroke:#fca082;stroke-linecap:square;stroke-width:3.6;"/>
   </g>
   <g id="line2d_14">
    <path clip-path="url(#pb3d72e40b4)" d="M 196.95347 175.941157 
L 196.95347 129.849474 
" style="fill:none;stroke:#fca082;stroke-linecap:square;stroke-width:3.6;"/>
   </g>
   <g id="line2d_15">
    <path clip-path="url(#pb3d72e40b4)" d="M 208.498297 171.17274 
L 208.498297 123.487268 
" style="fill:none;stroke:#fca082;stroke-linecap:square;stroke-width:3.6;"/>
   </g>
   <g id="line2d_16">
    <path clip-path="url(#pb3d72e40b4)" d="M 220.043125 156.138262 
L 220.043125 97.546985 
" style="fill:none;stroke:#fca082;stroke-linecap:square;stroke-width:3.6;"/>
   </g>
   <g id="line2d_17">
    <path clip-path="url(#pb3d72e40b4)" d="M 231.587953 151.822066 
L 231.587953 93.700296 
" style="fill:none;stroke:#fca082;stroke-linecap:square;stroke-width:3.6;"/>
   </g>
   <g id="line2d_18">
    <path clip-path="url(#pb3d72e40b4)" d="M 243.13278 139.602812 
L 243.13278 72.793264 
" style="fill:none;stroke:#fca082;stroke-linecap:square;stroke-width:3.6;"/>
   </g>
   <g id="line2d_19">
    <path clip-path="url(#pb3d72e40b4)" d="M 254.677608 127.913176 
L 254.677608 65.068911 
" style="fill:none;stroke:#fca082;stroke-linecap:square;stroke-width:3.6;"/>
   </g>
   <g id="line2d_20">
    <path clip-path="url(#pb3d72e40b4)" d="M 266.222435 144.588372 
L 266.222435 89.53831 
" style="fill:none;stroke:#fca082;stroke-linecap:square;stroke-width:3.6;"/>
   </g>
   <g id="line2d_21">
    <path clip-path="url(#pb3d72e40b4)" d="M 277.767263 150.160681 
L 277.767263 94.353993 
" style="fill:none;stroke:#fca082;stroke-linecap:square;stroke-width:3.6;"/>
   </g>
   <g id="line2d_22">
    <path clip-path="url(#pb3d72e40b4)" d="M 289.312091 168.853179 
L 289.312091 109.60729 
" style="fill:none;stroke:#fca082;stroke-linecap:square;stroke-width:3.6;"/>
   </g>
   <g id="line2d_23">
    <path clip-path="url(#pb3d72e40b4)" d="M 300.856918 176.787527 
L 300.856918 111.978222 
" style="fill:none;stroke:#fca082;stroke-linecap:square;stroke-width:3.6;"/>
   </g>
   <g id="line2d_24">
    <path clip-path="url(#pb3d72e40b4)" d="M 312.401746 173.32565 
L 312.401746 98.271102 
" style="fill:none;stroke:#fca082;stroke-linecap:square;stroke-width:3.6;"/>
   </g>
   <g id="line2d_25">
    <path clip-path="url(#pb3d72e40b4)" d="M 323.946573 174.287339 
L 323.946573 99.612209 
" style="fill:none;stroke:#fca082;stroke-linecap:square;stroke-width:3.6;"/>
   </g>
   <g id="line2d_26">
    <path clip-path="url(#pb3d72e40b4)" d="M 335.491401 168.760034 
L 335.491401 84.685556 
" style="fill:none;stroke:#fca082;stroke-linecap:square;stroke-width:3.6;"/>
   </g>
   <g id="line2d_27">
    <path clip-path="url(#pb3d72e40b4)" d="M 347.036228 176.331064 
L 347.036228 95.0611 
" style="fill:none;stroke:#fca082;stroke-linecap:square;stroke-width:3.6;"/>
   </g>
   <g id="line2d_28">
    <path clip-path="url(#pb3d72e40b4)" d="M 358.581056 179.045633 
L 358.581056 107.045021 
" style="fill:none;stroke:#fca082;stroke-linecap:square;stroke-width:3.6;"/>
   </g>
   <g id="line2d_29">
    <path clip-path="url(#pb3d72e40b4)" d="M 370.125884 182.803717 
L 370.125884 112.642058 
" style="fill:none;stroke:#fca082;stroke-linecap:square;stroke-width:3.6;"/>
   </g>
   <g id="line2d_30">
    <path clip-path="url(#pb3d72e40b4)" d="M 381.670711 198.574967 
L 381.670711 123.959947 
" style="fill:none;stroke:#fca082;stroke-linecap:square;stroke-width:3.6;"/>
   </g>
   <g id="matplotlib.axis_1">
    <g id="xtick_1">
     <g id="line2d_31">
      <defs>
       <path d="M 0 0 
L 0 4.8 
" id="m073aacf977" style="stroke:#000000;"/>
      </defs>
      <g>
       <use style="stroke:#000000;" x="58.415539" xlink:href="#m073aacf977" y="225.515596"/>
      </g>
     </g>
     <g id="text_1">
      <!-- Early -->
      <g transform="translate(43.262726 242.933721)scale(0.12 -0.12)">
       <defs>
        <path d="M 628 4666 
L 3578 4666 
L 3578 4134 
L 1259 4134 
L 1259 2753 
L 3481 2753 
L 3481 2222 
L 1259 2222 
L 1259 531 
L 3634 531 
L 3634 0 
L 628 0 
L 628 4666 
z
" id="DejaVuSans-45" transform="scale(0.015625)"/>
        <path d="M 2194 1759 
Q 1497 1759 1228 1600 
Q 959 1441 959 1056 
Q 959 750 1161 570 
Q 1363 391 1709 391 
Q 2188 391 2477 730 
Q 2766 1069 2766 1631 
L 2766 1759 
L 2194 1759 
z
M 3341 1997 
L 3341 0 
L 2766 0 
L 2766 531 
Q 2569 213 2275 61 
Q 1981 -91 1556 -91 
Q 1019 -91 701 211 
Q 384 513 384 1019 
Q 384 1609 779 1909 
Q 1175 2209 1959 2209 
L 2766 2209 
L 2766 2266 
Q 2766 2663 2505 2880 
Q 2244 3097 1772 3097 
Q 1472 3097 1187 3025 
Q 903 2953 641 2809 
L 641 3341 
Q 956 3463 1253 3523 
Q 1550 3584 1831 3584 
Q 2591 3584 2966 3190 
Q 3341 2797 3341 1997 
z
" id="DejaVuSans-61" transform="scale(0.015625)"/>
        <path d="M 2631 2963 
Q 2534 3019 2420 3045 
Q 2306 3072 2169 3072 
Q 1681 3072 1420 2755 
Q 1159 2438 1159 1844 
L 1159 0 
L 581 0 
L 581 3500 
L 1159 3500 
L 1159 2956 
Q 1341 3275 1631 3429 
Q 1922 3584 2338 3584 
Q 2397 3584 2469 3576 
Q 2541 3569 2628 3553 
L 2631 2963 
z
" id="DejaVuSans-72" transform="scale(0.015625)"/>
        <path d="M 603 4863 
L 1178 4863 
L 1178 0 
L 603 0 
L 603 4863 
z
" id="DejaVuSans-6c" transform="scale(0.015625)"/>
        <path d="M 2059 -325 
Q 1816 -950 1584 -1140 
Q 1353 -1331 966 -1331 
L 506 -1331 
L 506 -850 
L 844 -850 
Q 1081 -850 1212 -737 
Q 1344 -625 1503 -206 
L 1606 56 
L 191 3500 
L 800 3500 
L 1894 763 
L 2988 3500 
L 3597 3500 
L 2059 -325 
z
" id="DejaVuSans-79" transform="scale(0.015625)"/>
       </defs>
       <use xlink:href="#DejaVuSans-45"/>
       <use x="63.183594" xlink:href="#DejaVuSans-61"/>
       <use x="124.462891" xlink:href="#DejaVuSans-72"/>
       <use x="165.576172" xlink:href="#DejaVuSans-6c"/>
       <use x="193.359375" xlink:href="#DejaVuSans-79"/>
      </g>
     </g>
    </g>
    <g id="xtick_2">
     <g id="line2d_32">
      <g>
       <use style="stroke:#000000;" x="69.960366" xlink:href="#m073aacf977" y="225.515596"/>
      </g>
     </g>
     <g id="text_2">
      <!-- Late -->
      <g transform="translate(56.896304 242.933721)scale(0.12 -0.12)">
       <defs>
        <path d="M 628 4666 
L 1259 4666 
L 1259 531 
L 3531 531 
L 3531 0 
L 628 0 
L 628 4666 
z
" id="DejaVuSans-4c" transform="scale(0.015625)"/>
        <path d="M 1172 4494 
L 1172 3500 
L 2356 3500 
L 2356 3053 
L 1172 3053 
L 1172 1153 
Q 1172 725 1289 603 
Q 1406 481 1766 481 
L 2356 481 
L 2356 0 
L 1766 0 
Q 1100 0 847 248 
Q 594 497 594 1153 
L 594 3053 
L 172 3053 
L 172 3500 
L 594 3500 
L 594 4494 
L 1172 4494 
z
" id="DejaVuSans-74" transform="scale(0.015625)"/>
        <path d="M 3597 1894 
L 3597 1613 
L 953 1613 
Q 991 1019 1311 708 
Q 1631 397 2203 397 
Q 2534 397 2845 478 
Q 3156 559 3463 722 
L 3463 178 
Q 3153 47 2828 -22 
Q 2503 -91 2169 -91 
Q 1331 -91 842 396 
Q 353 884 353 1716 
Q 353 2575 817 3079 
Q 1281 3584 2069 3584 
Q 2775 3584 3186 3129 
Q 3597 2675 3597 1894 
z
M 3022 2063 
Q 3016 2534 2758 2815 
Q 2500 3097 2075 3097 
Q 1594 3097 1305 2825 
Q 1016 2553 972 2059 
L 3022 2063 
z
" id="DejaVuSans-65" transform="scale(0.015625)"/>
       </defs>
       <use xlink:href="#DejaVuSans-4c"/>
       <use x="55.712891" xlink:href="#DejaVuSans-61"/>
       <use x="116.992188" xlink:href="#DejaVuSans-74"/>
       <use x="156.201172" xlink:href="#DejaVuSans-65"/>
      </g>
     </g>
    </g>
    <g id="text_3">
     <!-- Adaptation Stage -->
     <g transform="translate(159.303906 260.067158)scale(0.14 -0.14)">
      <defs>
       <path d="M 2188 4044 
L 1331 1722 
L 3047 1722 
L 2188 4044 
z
M 1831 4666 
L 2547 4666 
L 4325 0 
L 3669 0 
L 3244 1197 
L 1141 1197 
L 716 0 
L 50 0 
L 1831 4666 
z
" id="DejaVuSans-41" transform="scale(0.015625)"/>
       <path d="M 2906 2969 
L 2906 4863 
L 3481 4863 
L 3481 0 
L 2906 0 
L 2906 525 
Q 2725 213 2448 61 
Q 2172 -91 1784 -91 
Q 1150 -91 751 415 
Q 353 922 353 1747 
Q 353 2572 751 3078 
Q 1150 3584 1784 3584 
Q 2172 3584 2448 3432 
Q 2725 3281 2906 2969 
z
M 947 1747 
Q 947 1113 1208 752 
Q 1469 391 1925 391 
Q 2381 391 2643 752 
Q 2906 1113 2906 1747 
Q 2906 2381 2643 2742 
Q 2381 3103 1925 3103 
Q 1469 3103 1208 2742 
Q 947 2381 947 1747 
z
" id="DejaVuSans-64" transform="scale(0.015625)"/>
       <path d="M 1159 525 
L 1159 -1331 
L 581 -1331 
L 581 3500 
L 1159 3500 
L 1159 2969 
Q 1341 3281 1617 3432 
Q 1894 3584 2278 3584 
Q 2916 3584 3314 3078 
Q 3713 2572 3713 1747 
Q 3713 922 3314 415 
Q 2916 -91 2278 -91 
Q 1894 -91 1617 61 
Q 1341 213 1159 525 
z
M 3116 1747 
Q 3116 2381 2855 2742 
Q 2594 3103 2138 3103 
Q 1681 3103 1420 2742 
Q 1159 2381 1159 1747 
Q 1159 1113 1420 752 
Q 1681 391 2138 391 
Q 2594 391 2855 752 
Q 3116 1113 3116 1747 
z
" id="DejaVuSans-70" transform="scale(0.015625)"/>
       <path d="M 603 3500 
L 1178 3500 
L 1178 0 
L 603 0 
L 603 3500 
z
M 603 4863 
L 1178 4863 
L 1178 4134 
L 603 4134 
L 603 4863 
z
" id="DejaVuSans-69" transform="scale(0.015625)"/>
       <path d="M 1959 3097 
Q 1497 3097 1228 2736 
Q 959 2375 959 1747 
Q 959 1119 1226 758 
Q 1494 397 1959 397 
Q 2419 397 2687 759 
Q 2956 1122 2956 1747 
Q 2956 2369 2687 2733 
Q 2419 3097 1959 3097 
z
M 1959 3584 
Q 2709 3584 3137 3096 
Q 3566 2609 3566 1747 
Q 3566 888 3137 398 
Q 2709 -91 1959 -91 
Q 1206 -91 779 398 
Q 353 888 353 1747 
Q 353 2609 779 3096 
Q 1206 3584 1959 3584 
z
" id="DejaVuSans-6f" transform="scale(0.015625)"/>
       <path d="M 3513 2113 
L 3513 0 
L 2938 0 
L 2938 2094 
Q 2938 2591 2744 2837 
Q 2550 3084 2163 3084 
Q 1697 3084 1428 2787 
Q 1159 2491 1159 1978 
L 1159 0 
L 581 0 
L 581 3500 
L 1159 3500 
L 1159 2956 
Q 1366 3272 1645 3428 
Q 1925 3584 2291 3584 
Q 2894 3584 3203 3211 
Q 3513 2838 3513 2113 
z
" id="DejaVuSans-6e" transform="scale(0.015625)"/>
       <path id="DejaVuSans-20" transform="scale(0.015625)"/>
       <path d="M 3425 4513 
L 3425 3897 
Q 3066 4069 2747 4153 
Q 2428 4238 2131 4238 
Q 1616 4238 1336 4038 
Q 1056 3838 1056 3469 
Q 1056 3159 1242 3001 
Q 1428 2844 1947 2747 
L 2328 2669 
Q 3034 2534 3370 2195 
Q 3706 1856 3706 1288 
Q 3706 609 3251 259 
Q 2797 -91 1919 -91 
Q 1588 -91 1214 -16 
Q 841 59 441 206 
L 441 856 
Q 825 641 1194 531 
Q 1563 422 1919 422 
Q 2459 422 2753 634 
Q 3047 847 3047 1241 
Q 3047 1584 2836 1778 
Q 2625 1972 2144 2069 
L 1759 2144 
Q 1053 2284 737 2584 
Q 422 2884 422 3419 
Q 422 4038 858 4394 
Q 1294 4750 2059 4750 
Q 2388 4750 2728 4690 
Q 3069 4631 3425 4513 
z
" id="DejaVuSans-53" transform="scale(0.015625)"/>
       <path d="M 2906 1791 
Q 2906 2416 2648 2759 
Q 2391 3103 1925 3103 
Q 1463 3103 1205 2759 
Q 947 2416 947 1791 
Q 947 1169 1205 825 
Q 1463 481 1925 481 
Q 2391 481 2648 825 
Q 2906 1169 2906 1791 
z
M 3481 434 
Q 3481 -459 3084 -895 
Q 2688 -1331 1869 -1331 
Q 1566 -1331 1297 -1286 
Q 1028 -1241 775 -1147 
L 775 -588 
Q 1028 -725 1275 -790 
Q 1522 -856 1778 -856 
Q 2344 -856 2625 -561 
Q 2906 -266 2906 331 
L 2906 616 
Q 2728 306 2450 153 
Q 2172 0 1784 0 
Q 1141 0 747 490 
Q 353 981 353 1791 
Q 353 2603 747 3093 
Q 1141 3584 1784 3584 
Q 2172 3584 2450 3431 
Q 2728 3278 2906 2969 
L 2906 3500 
L 3481 3500 
L 3481 434 
z
" id="DejaVuSans-67" transform="scale(0.015625)"/>
      </defs>
      <use xlink:href="#DejaVuSans-41"/>
      <use x="66.658203" xlink:href="#DejaVuSans-64"/>
      <use x="130.134766" xlink:href="#DejaVuSans-61"/>
      <use x="191.414062" xlink:href="#DejaVuSans-70"/>
      <use x="254.890625" xlink:href="#DejaVuSans-74"/>
      <use x="294.099609" xlink:href="#DejaVuSans-61"/>
      <use x="355.378906" xlink:href="#DejaVuSans-74"/>
      <use x="394.587891" xlink:href="#DejaVuSans-69"/>
      <use x="422.371094" xlink:href="#DejaVuSans-6f"/>
      <use x="483.552734" xlink:href="#DejaVuSans-6e"/>
      <use x="546.931641" xlink:href="#DejaVuSans-20"/>
      <use x="578.71875" xlink:href="#DejaVuSans-53"/>
      <use x="642.195312" xlink:href="#DejaVuSans-74"/>
      <use x="681.404297" xlink:href="#DejaVuSans-61"/>
      <use x="742.683594" xlink:href="#DejaVuSans-67"/>
      <use x="806.160156" xlink:href="#DejaVuSans-65"/>
     </g>
    </g>
   </g>
   <g id="matplotlib.axis_2">
    <g id="ytick_1">
     <g id="line2d_33">
      <defs>
       <path d="M 0 0 
L -4.8 0 
" id="m3028c6f27b" style="stroke:#000000;"/>
      </defs>
      <g>
       <use style="stroke:#000000;" x="52.643125" xlink:href="#m3028c6f27b" y="218.517332"/>
      </g>
     </g>
     <g id="text_4">
      <!-- 17.5 -->
      <g transform="translate(24.749375 221.860644)scale(0.088 -0.088)">
       <defs>
        <path d="M 794 531 
L 1825 531 
L 1825 4091 
L 703 3866 
L 703 4441 
L 1819 4666 
L 2450 4666 
L 2450 531 
L 3481 531 
L 3481 0 
L 794 0 
L 794 531 
z
" id="DejaVuSans-31" transform="scale(0.015625)"/>
        <path d="M 525 4666 
L 3525 4666 
L 3525 4397 
L 1831 0 
L 1172 0 
L 2766 4134 
L 525 4134 
L 525 4666 
z
" id="DejaVuSans-37" transform="scale(0.015625)"/>
        <path d="M 684 794 
L 1344 794 
L 1344 0 
L 684 0 
L 684 794 
z
" id="DejaVuSans-2e" transform="scale(0.015625)"/>
        <path d="M 691 4666 
L 3169 4666 
L 3169 4134 
L 1269 4134 
L 1269 2991 
Q 1406 3038 1543 3061 
Q 1681 3084 1819 3084 
Q 2600 3084 3056 2656 
Q 3513 2228 3513 1497 
Q 3513 744 3044 326 
Q 2575 -91 1722 -91 
Q 1428 -91 1123 -41 
Q 819 9 494 109 
L 494 744 
Q 775 591 1075 516 
Q 1375 441 1709 441 
Q 2250 441 2565 725 
Q 2881 1009 2881 1497 
Q 2881 1984 2565 2268 
Q 2250 2553 1709 2553 
Q 1456 2553 1204 2497 
Q 953 2441 691 2322 
L 691 4666 
z
" id="DejaVuSans-35" transform="scale(0.015625)"/>
       </defs>
       <use xlink:href="#DejaVuSans-31"/>
       <use x="63.623047" xlink:href="#DejaVuSans-37"/>
       <use x="127.246094" xlink:href="#DejaVuSans-2e"/>
       <use x="159.033203" xlink:href="#DejaVuSans-35"/>
      </g>
     </g>
    </g>
    <g id="ytick_2">
     <g id="line2d_34">
      <g>
       <use style="stroke:#000000;" x="52.643125" xlink:href="#m3028c6f27b" y="192.520579"/>
      </g>
     </g>
     <g id="text_5">
      <!-- 20.0 -->
      <g transform="translate(24.749375 195.863892)scale(0.088 -0.088)">
       <defs>
        <path d="M 1228 531 
L 3431 531 
L 3431 0 
L 469 0 
L 469 531 
Q 828 903 1448 1529 
Q 2069 2156 2228 2338 
Q 2531 2678 2651 2914 
Q 2772 3150 2772 3378 
Q 2772 3750 2511 3984 
Q 2250 4219 1831 4219 
Q 1534 4219 1204 4116 
Q 875 4013 500 3803 
L 500 4441 
Q 881 4594 1212 4672 
Q 1544 4750 1819 4750 
Q 2544 4750 2975 4387 
Q 3406 4025 3406 3419 
Q 3406 3131 3298 2873 
Q 3191 2616 2906 2266 
Q 2828 2175 2409 1742 
Q 1991 1309 1228 531 
z
" id="DejaVuSans-32" transform="scale(0.015625)"/>
        <path d="M 2034 4250 
Q 1547 4250 1301 3770 
Q 1056 3291 1056 2328 
Q 1056 1369 1301 889 
Q 1547 409 2034 409 
Q 2525 409 2770 889 
Q 3016 1369 3016 2328 
Q 3016 3291 2770 3770 
Q 2525 4250 2034 4250 
z
M 2034 4750 
Q 2819 4750 3233 4129 
Q 3647 3509 3647 2328 
Q 3647 1150 3233 529 
Q 2819 -91 2034 -91 
Q 1250 -91 836 529 
Q 422 1150 422 2328 
Q 422 3509 836 4129 
Q 1250 4750 2034 4750 
z
" id="DejaVuSans-30" transform="scale(0.015625)"/>
       </defs>
       <use xlink:href="#DejaVuSans-32"/>
       <use x="63.623047" xlink:href="#DejaVuSans-30"/>
       <use x="127.246094" xlink:href="#DejaVuSans-2e"/>
       <use x="159.033203" xlink:href="#DejaVuSans-30"/>
      </g>
     </g>
    </g>
    <g id="ytick_3">
     <g id="line2d_35">
      <g>
       <use style="stroke:#000000;" x="52.643125" xlink:href="#m3028c6f27b" y="166.523827"/>
      </g>
     </g>
     <g id="text_6">
      <!-- 22.5 -->
      <g transform="translate(24.749375 169.867139)scale(0.088 -0.088)">
       <use xlink:href="#DejaVuSans-32"/>
       <use x="63.623047" xlink:href="#DejaVuSans-32"/>
       <use x="127.246094" xlink:href="#DejaVuSans-2e"/>
       <use x="159.033203" xlink:href="#DejaVuSans-35"/>
      </g>
     </g>
    </g>
    <g id="ytick_4">
     <g id="line2d_36">
      <g>
       <use style="stroke:#000000;" x="52.643125" xlink:href="#m3028c6f27b" y="140.527074"/>
      </g>
     </g>
     <g id="text_7">
      <!-- 25.0 -->
      <g transform="translate(24.749375 143.870387)scale(0.088 -0.088)">
       <use xlink:href="#DejaVuSans-32"/>
       <use x="63.623047" xlink:href="#DejaVuSans-35"/>
       <use x="127.246094" xlink:href="#DejaVuSans-2e"/>
       <use x="159.033203" xlink:href="#DejaVuSans-30"/>
      </g>
     </g>
    </g>
    <g id="ytick_5">
     <g id="line2d_37">
      <g>
       <use style="stroke:#000000;" x="52.643125" xlink:href="#m3028c6f27b" y="114.530322"/>
      </g>
     </g>
     <g id="text_8">
      <!-- 27.5 -->
      <g transform="translate(24.749375 117.873635)scale(0.088 -0.088)">
       <use xlink:href="#DejaVuSans-32"/>
       <use x="63.623047" xlink:href="#DejaVuSans-37"/>
       <use x="127.246094" xlink:href="#DejaVuSans-2e"/>
       <use x="159.033203" xlink:href="#DejaVuSans-35"/>
      </g>
     </g>
    </g>
    <g id="ytick_6">
     <g id="line2d_38">
      <g>
       <use style="stroke:#000000;" x="52.643125" xlink:href="#m3028c6f27b" y="88.53357"/>
      </g>
     </g>
     <g id="text_9">
      <!-- 30.0 -->
      <g transform="translate(24.749375 91.876882)scale(0.088 -0.088)">
       <defs>
        <path d="M 2597 2516 
Q 3050 2419 3304 2112 
Q 3559 1806 3559 1356 
Q 3559 666 3084 287 
Q 2609 -91 1734 -91 
Q 1441 -91 1130 -33 
Q 819 25 488 141 
L 488 750 
Q 750 597 1062 519 
Q 1375 441 1716 441 
Q 2309 441 2620 675 
Q 2931 909 2931 1356 
Q 2931 1769 2642 2001 
Q 2353 2234 1838 2234 
L 1294 2234 
L 1294 2753 
L 1863 2753 
Q 2328 2753 2575 2939 
Q 2822 3125 2822 3475 
Q 2822 3834 2567 4026 
Q 2313 4219 1838 4219 
Q 1578 4219 1281 4162 
Q 984 4106 628 3988 
L 628 4550 
Q 988 4650 1302 4700 
Q 1616 4750 1894 4750 
Q 2613 4750 3031 4423 
Q 3450 4097 3450 3541 
Q 3450 3153 3228 2886 
Q 3006 2619 2597 2516 
z
" id="DejaVuSans-33" transform="scale(0.015625)"/>
       </defs>
       <use xlink:href="#DejaVuSans-33"/>
       <use x="63.623047" xlink:href="#DejaVuSans-30"/>
       <use x="127.246094" xlink:href="#DejaVuSans-2e"/>
       <use x="159.033203" xlink:href="#DejaVuSans-30"/>
      </g>
     </g>
    </g>
    <g id="ytick_7">
     <g id="line2d_39">
      <g>
       <use style="stroke:#000000;" x="52.643125" xlink:href="#m3028c6f27b" y="62.536817"/>
      </g>
     </g>
     <g id="text_10">
      <!-- 32.5 -->
      <g transform="translate(24.749375 65.88013)scale(0.088 -0.088)">
       <use xlink:href="#DejaVuSans-33"/>
       <use x="63.623047" xlink:href="#DejaVuSans-32"/>
       <use x="127.246094" xlink:href="#DejaVuSans-2e"/>
       <use x="159.033203" xlink:href="#DejaVuSans-35"/>
      </g>
     </g>
    </g>
    <g id="ytick_8">
     <g id="line2d_40">
      <g>
       <use style="stroke:#000000;" x="52.643125" xlink:href="#m3028c6f27b" y="36.540065"/>
      </g>
     </g>
     <g id="text_11">
      <!-- 35.0 -->
      <g transform="translate(24.749375 39.883377)scale(0.088 -0.088)">
       <use xlink:href="#DejaVuSans-33"/>
       <use x="63.623047" xlink:href="#DejaVuSans-35"/>
       <use x="127.246094" xlink:href="#DejaVuSans-2e"/>
       <use x="159.033203" xlink:href="#DejaVuSans-30"/>
      </g>
     </g>
    </g>
    <g id="ytick_9">
     <g id="line2d_41">
      <g>
       <use style="stroke:#000000;" x="52.643125" xlink:href="#m3028c6f27b" y="10.543313"/>
      </g>
     </g>
     <g id="text_12">
      <!-- 37.5 -->
      <g transform="translate(24.749375 13.886625)scale(0.088 -0.088)">
       <use xlink:href="#DejaVuSans-33"/>
       <use x="63.623047" xlink:href="#DejaVuSans-37"/>
       <use x="127.246094" xlink:href="#DejaVuSans-2e"/>
       <use x="159.033203" xlink:href="#DejaVuSans-35"/>
      </g>
     </g>
    </g>
    <g id="text_13">
     <!-- MAE (Degrees) -->
     <g transform="translate(17.837812 168.855908)rotate(-90)scale(0.14 -0.14)">
      <defs>
       <path d="M 628 4666 
L 1569 4666 
L 2759 1491 
L 3956 4666 
L 4897 4666 
L 4897 0 
L 4281 0 
L 4281 4097 
L 3078 897 
L 2444 897 
L 1241 4097 
L 1241 0 
L 628 0 
L 628 4666 
z
" id="DejaVuSans-4d" transform="scale(0.015625)"/>
       <path d="M 1984 4856 
Q 1566 4138 1362 3434 
Q 1159 2731 1159 2009 
Q 1159 1288 1364 580 
Q 1569 -128 1984 -844 
L 1484 -844 
Q 1016 -109 783 600 
Q 550 1309 550 2009 
Q 550 2706 781 3412 
Q 1013 4119 1484 4856 
L 1984 4856 
z
" id="DejaVuSans-28" transform="scale(0.015625)"/>
       <path d="M 1259 4147 
L 1259 519 
L 2022 519 
Q 2988 519 3436 956 
Q 3884 1394 3884 2338 
Q 3884 3275 3436 3711 
Q 2988 4147 2022 4147 
L 1259 4147 
z
M 628 4666 
L 1925 4666 
Q 3281 4666 3915 4102 
Q 4550 3538 4550 2338 
Q 4550 1131 3912 565 
Q 3275 0 1925 0 
L 628 0 
L 628 4666 
z
" id="DejaVuSans-44" transform="scale(0.015625)"/>
       <path d="M 2834 3397 
L 2834 2853 
Q 2591 2978 2328 3040 
Q 2066 3103 1784 3103 
Q 1356 3103 1142 2972 
Q 928 2841 928 2578 
Q 928 2378 1081 2264 
Q 1234 2150 1697 2047 
L 1894 2003 
Q 2506 1872 2764 1633 
Q 3022 1394 3022 966 
Q 3022 478 2636 193 
Q 2250 -91 1575 -91 
Q 1294 -91 989 -36 
Q 684 19 347 128 
L 347 722 
Q 666 556 975 473 
Q 1284 391 1588 391 
Q 1994 391 2212 530 
Q 2431 669 2431 922 
Q 2431 1156 2273 1281 
Q 2116 1406 1581 1522 
L 1381 1569 
Q 847 1681 609 1914 
Q 372 2147 372 2553 
Q 372 3047 722 3315 
Q 1072 3584 1716 3584 
Q 2034 3584 2315 3537 
Q 2597 3491 2834 3397 
z
" id="DejaVuSans-73" transform="scale(0.015625)"/>
       <path d="M 513 4856 
L 1013 4856 
Q 1481 4119 1714 3412 
Q 1947 2706 1947 2009 
Q 1947 1309 1714 600 
Q 1481 -109 1013 -844 
L 513 -844 
Q 928 -128 1133 580 
Q 1338 1288 1338 2009 
Q 1338 2731 1133 3434 
Q 928 4138 513 4856 
z
" id="DejaVuSans-29" transform="scale(0.015625)"/>
      </defs>
      <use xlink:href="#DejaVuSans-4d"/>
      <use x="86.279297" xlink:href="#DejaVuSans-41"/>
      <use x="154.6875" xlink:href="#DejaVuSans-45"/>
      <use x="217.871094" xlink:href="#DejaVuSans-20"/>
      <use x="249.658203" xlink:href="#DejaVuSans-28"/>
      <use x="288.671875" xlink:href="#DejaVuSans-44"/>
      <use x="365.673828" xlink:href="#DejaVuSans-65"/>
      <use x="427.197266" xlink:href="#DejaVuSans-67"/>
      <use x="490.673828" xlink:href="#DejaVuSans-72"/>
      <use x="529.537109" xlink:href="#DejaVuSans-65"/>
      <use x="591.060547" xlink:href="#DejaVuSans-65"/>
      <use x="652.583984" xlink:href="#DejaVuSans-73"/>
      <use x="704.683594" xlink:href="#DejaVuSans-29"/>
     </g>
    </g>
   </g>
   <g id="PathCollection_2">
    <defs>
     <path d="M 0 4.511931 
C 1.196578 4.511931 2.344308 4.036525 3.190417 3.190417 
C 4.036525 2.344308 4.511931 1.196578 4.511931 0 
C 4.511931 -1.196578 4.036525 -2.344308 3.190417 -3.190417 
C 2.344308 -4.036525 1.196578 -4.511931 0 -4.511931 
C -1.196578 -4.511931 -2.344308 -4.036525 -3.190417 -3.190417 
C -4.036525 -2.344308 -4.511931 -1.196578 -4.511931 0 
C -4.511931 1.196578 -4.036525 2.344308 -3.190417 3.190417 
C -2.344308 4.036525 -1.196578 4.511931 0 4.511931 
z
" id="m112dfc035e" style="stroke:#e32f27;stroke-width:2.7;"/>
    </defs>
    <g clip-path="url(#pb3d72e40b4)">
     <use style="fill:#e32f27;stroke:#e32f27;stroke-width:2.7;" x="58.415539" xlink:href="#m112dfc035e" y="92.800649"/>
     <use style="fill:#e32f27;stroke:#e32f27;stroke-width:2.7;" x="69.960366" xlink:href="#m112dfc035e" y="106.194618"/>
     <use style="fill:#e32f27;stroke:#e32f27;stroke-width:2.7;" x="81.505194" xlink:href="#m112dfc035e" y="104.004745"/>
     <use style="fill:#e32f27;stroke:#e32f27;stroke-width:2.7;" x="93.050022" xlink:href="#m112dfc035e" y="92.866993"/>
     <use style="fill:#e32f27;stroke:#e32f27;stroke-width:2.7;" x="104.594849" xlink:href="#m112dfc035e" y="87.938443"/>
     <use style="fill:#e32f27;stroke:#e32f27;stroke-width:2.7;" x="116.139677" xlink:href="#m112dfc035e" y="100.359953"/>
     <use style="fill:#e32f27;stroke:#e32f27;stroke-width:2.7;" x="127.684504" xlink:href="#m112dfc035e" y="148.193576"/>
     <use style="fill:#e32f27;stroke:#e32f27;stroke-width:2.7;" x="139.229332" xlink:href="#m112dfc035e" y="160.277056"/>
     <use style="fill:#e32f27;stroke:#e32f27;stroke-width:2.7;" x="150.774159" xlink:href="#m112dfc035e" y="165.134142"/>
     <use style="fill:#e32f27;stroke:#e32f27;stroke-width:2.7;" x="162.318987" xlink:href="#m112dfc035e" y="161.73972"/>
     <use style="fill:#e32f27;stroke:#e32f27;stroke-width:2.7;" x="173.863815" xlink:href="#m112dfc035e" y="149.118667"/>
     <use style="fill:#e32f27;stroke:#e32f27;stroke-width:2.7;" x="185.408642" xlink:href="#m112dfc035e" y="137.297477"/>
     <use style="fill:#e32f27;stroke:#e32f27;stroke-width:2.7;" x="196.95347" xlink:href="#m112dfc035e" y="137.684336"/>
     <use style="fill:#e32f27;stroke:#e32f27;stroke-width:2.7;" x="208.498297" xlink:href="#m112dfc035e" y="142.495648"/>
     <use style="fill:#e32f27;stroke:#e32f27;stroke-width:2.7;" x="220.043125" xlink:href="#m112dfc035e" y="158.78568"/>
     <use style="fill:#e32f27;stroke:#e32f27;stroke-width:2.7;" x="231.587953" xlink:href="#m112dfc035e" y="172.245783"/>
     <use style="fill:#e32f27;stroke:#e32f27;stroke-width:2.7;" x="243.13278" xlink:href="#m112dfc035e" y="167.676691"/>
     <use style="fill:#e32f27;stroke:#e32f27;stroke-width:2.7;" x="254.677608" xlink:href="#m112dfc035e" y="174.889943"/>
     <use style="fill:#e32f27;stroke:#e32f27;stroke-width:2.7;" x="266.222435" xlink:href="#m112dfc035e" y="180.295198"/>
     <use style="fill:#e32f27;stroke:#e32f27;stroke-width:2.7;" x="277.767263" xlink:href="#m112dfc035e" y="177.109849"/>
     <use style="fill:#e32f27;stroke:#e32f27;stroke-width:2.7;" x="289.312091" xlink:href="#m112dfc035e" y="189.289998"/>
     <use style="fill:#e32f27;stroke:#e32f27;stroke-width:2.7;" x="300.856918" xlink:href="#m112dfc035e" y="184.781406"/>
     <use style="fill:#e32f27;stroke:#e32f27;stroke-width:2.7;" x="312.401746" xlink:href="#m112dfc035e" y="170.412389"/>
     <use style="fill:#e32f27;stroke:#e32f27;stroke-width:2.7;" x="323.946573" xlink:href="#m112dfc035e" y="174.260073"/>
     <use style="fill:#e32f27;stroke:#e32f27;stroke-width:2.7;" x="335.491401" xlink:href="#m112dfc035e" y="164.201202"/>
     <use style="fill:#e32f27;stroke:#e32f27;stroke-width:2.7;" x="347.036228" xlink:href="#m112dfc035e" y="157.790958"/>
     <use style="fill:#e32f27;stroke:#e32f27;stroke-width:2.7;" x="358.581056" xlink:href="#m112dfc035e" y="170.335989"/>
     <use style="fill:#e32f27;stroke:#e32f27;stroke-width:2.7;" x="370.125884" xlink:href="#m112dfc035e" y="173.106622"/>
     <use style="fill:#e32f27;stroke:#e32f27;stroke-width:2.7;" x="381.670711" xlink:href="#m112dfc035e" y="193.395719"/>
    </g>
   </g>
   <g id="line2d_42">
    <path clip-path="url(#pb3d72e40b4)" d="M 58.415539 92.800649 
L 69.960366 106.194618 
L 81.505194 104.004745 
L 93.050022 92.866993 
L 104.594849 87.938443 
L 116.139677 100.359953 
L 127.684504 148.193576 
L 139.229332 160.277056 
L 150.774159 165.134142 
L 162.318987 161.73972 
L 173.863815 149.118667 
L 185.408642 137.297477 
L 196.95347 137.684336 
L 208.498297 142.495648 
L 220.043125 158.78568 
L 231.587953 172.245783 
L 243.13278 167.676691 
L 254.677608 174.889943 
L 266.222435 180.295198 
L 277.767263 177.109849 
L 289.312091 189.289998 
L 300.856918 184.781406 
L 312.401746 170.412389 
L 323.946573 174.260073 
L 335.491401 164.201202 
L 347.036228 157.790958 
L 358.581056 170.335989 
L 370.125884 173.106622 
L 381.670711 193.395719 
" style="fill:none;stroke:#e32f27;stroke-linecap:square;stroke-width:3.6;"/>
   </g>
   <g id="line2d_43">
    <path clip-path="url(#pb3d72e40b4)" d="M 58.415539 114.062289 
L 58.415539 72.342551 
" style="fill:none;stroke:#e32f27;stroke-linecap:square;stroke-width:3.6;"/>
   </g>
   <g id="line2d_44">
    <path clip-path="url(#pb3d72e40b4)" d="M 69.960366 129.540278 
L 69.960366 76.626409 
" style="fill:none;stroke:#e32f27;stroke-linecap:square;stroke-width:3.6;"/>
   </g>
   <g id="line2d_45">
    <path clip-path="url(#pb3d72e40b4)" d="M 81.505194 136.690183 
L 81.505194 69.073487 
" style="fill:none;stroke:#e32f27;stroke-linecap:square;stroke-width:3.6;"/>
   </g>
   <g id="line2d_46">
    <path clip-path="url(#pb3d72e40b4)" d="M 93.050022 132.632973 
L 93.050022 54.548857 
" style="fill:none;stroke:#e32f27;stroke-linecap:square;stroke-width:3.6;"/>
   </g>
   <g id="line2d_47">
    <path clip-path="url(#pb3d72e40b4)" d="M 104.594849 129.311853 
L 104.594849 42.81554 
" style="fill:none;stroke:#e32f27;stroke-linecap:square;stroke-width:3.6;"/>
   </g>
   <g id="line2d_48">
    <path clip-path="url(#pb3d72e40b4)" d="M 116.139677 149.807166 
L 116.139677 53.717702 
" style="fill:none;stroke:#e32f27;stroke-linecap:square;stroke-width:3.6;"/>
   </g>
   <g id="line2d_49">
    <path clip-path="url(#pb3d72e40b4)" d="M 127.684504 168.124481 
L 127.684504 129.135507 
" style="fill:none;stroke:#e32f27;stroke-linecap:square;stroke-width:3.6;"/>
   </g>
   <g id="line2d_50">
    <path clip-path="url(#pb3d72e40b4)" d="M 139.229332 179.140397 
L 139.229332 139.583845 
" style="fill:none;stroke:#e32f27;stroke-linecap:square;stroke-width:3.6;"/>
   </g>
   <g id="line2d_51">
    <path clip-path="url(#pb3d72e40b4)" d="M 150.774159 183.389863 
L 150.774159 145.333524 
" style="fill:none;stroke:#e32f27;stroke-linecap:square;stroke-width:3.6;"/>
   </g>
   <g id="line2d_52">
    <path clip-path="url(#pb3d72e40b4)" d="M 162.318987 179.033168 
L 162.318987 142.750292 
" style="fill:none;stroke:#e32f27;stroke-linecap:square;stroke-width:3.6;"/>
   </g>
   <g id="line2d_53">
    <path clip-path="url(#pb3d72e40b4)" d="M 173.863815 172.260187 
L 173.863815 125.122655 
" style="fill:none;stroke:#e32f27;stroke-linecap:square;stroke-width:3.6;"/>
   </g>
   <g id="line2d_54">
    <path clip-path="url(#pb3d72e40b4)" d="M 185.408642 167.027199 
L 185.408642 108.928603 
" style="fill:none;stroke:#e32f27;stroke-linecap:square;stroke-width:3.6;"/>
   </g>
   <g id="line2d_55">
    <path clip-path="url(#pb3d72e40b4)" d="M 196.95347 164.342029 
L 196.95347 111.040369 
" style="fill:none;stroke:#e32f27;stroke-linecap:square;stroke-width:3.6;"/>
   </g>
   <g id="line2d_56">
    <path clip-path="url(#pb3d72e40b4)" d="M 208.498297 173.943059 
L 208.498297 110.42654 
" style="fill:none;stroke:#e32f27;stroke-linecap:square;stroke-width:3.6;"/>
   </g>
   <g id="line2d_57">
    <path clip-path="url(#pb3d72e40b4)" d="M 220.043125 185.679725 
L 220.043125 134.818847 
" style="fill:none;stroke:#e32f27;stroke-linecap:square;stroke-width:3.6;"/>
   </g>
   <g id="line2d_58">
    <path clip-path="url(#pb3d72e40b4)" d="M 231.587953 193.776079 
L 231.587953 152.719647 
" style="fill:none;stroke:#e32f27;stroke-linecap:square;stroke-width:3.6;"/>
   </g>
   <g id="line2d_59">
    <path clip-path="url(#pb3d72e40b4)" d="M 243.13278 189.177801 
L 243.13278 144.739334 
" style="fill:none;stroke:#e32f27;stroke-linecap:square;stroke-width:3.6;"/>
   </g>
   <g id="line2d_60">
    <path clip-path="url(#pb3d72e40b4)" d="M 254.677608 195.550974 
L 254.677608 155.233242 
" style="fill:none;stroke:#e32f27;stroke-linecap:square;stroke-width:3.6;"/>
   </g>
   <g id="line2d_61">
    <path clip-path="url(#pb3d72e40b4)" d="M 266.222435 198.767348 
L 266.222435 163.353876 
" style="fill:none;stroke:#e32f27;stroke-linecap:square;stroke-width:3.6;"/>
   </g>
   <g id="line2d_62">
    <path clip-path="url(#pb3d72e40b4)" d="M 277.767263 195.343751 
L 277.767263 154.142991 
" style="fill:none;stroke:#e32f27;stroke-linecap:square;stroke-width:3.6;"/>
   </g>
   <g id="line2d_63">
    <path clip-path="url(#pb3d72e40b4)" d="M 289.312091 208.96859 
L 289.312091 169.18072 
" style="fill:none;stroke:#e32f27;stroke-linecap:square;stroke-width:3.6;"/>
   </g>
   <g id="line2d_64">
    <path clip-path="url(#pb3d72e40b4)" d="M 300.856918 203.375225 
L 300.856918 164.255514 
" style="fill:none;stroke:#e32f27;stroke-linecap:square;stroke-width:3.6;"/>
   </g>
   <g id="line2d_65">
    <path clip-path="url(#pb3d72e40b4)" d="M 312.401746 197.239059 
L 312.401746 140.387857 
" style="fill:none;stroke:#e32f27;stroke-linecap:square;stroke-width:3.6;"/>
   </g>
   <g id="line2d_66">
    <path clip-path="url(#pb3d72e40b4)" d="M 323.946573 204.09079 
L 323.946573 141.641413 
" style="fill:none;stroke:#e32f27;stroke-linecap:square;stroke-width:3.6;"/>
   </g>
   <g id="line2d_67">
    <path clip-path="url(#pb3d72e40b4)" d="M 335.491401 195.436959 
L 335.491401 132.718991 
" style="fill:none;stroke:#e32f27;stroke-linecap:square;stroke-width:3.6;"/>
   </g>
   <g id="line2d_68">
    <path clip-path="url(#pb3d72e40b4)" d="M 347.036228 196.072105 
L 347.036228 121.054929 
" style="fill:none;stroke:#e32f27;stroke-linecap:square;stroke-width:3.6;"/>
   </g>
   <g id="line2d_69">
    <path clip-path="url(#pb3d72e40b4)" d="M 358.581056 199.264296 
L 358.581056 141.473356 
" style="fill:none;stroke:#e32f27;stroke-linecap:square;stroke-width:3.6;"/>
   </g>
   <g id="line2d_70">
    <path clip-path="url(#pb3d72e40b4)" d="M 370.125884 198.678292 
L 370.125884 149.880446 
" style="fill:none;stroke:#e32f27;stroke-linecap:square;stroke-width:3.6;"/>
   </g>
   <g id="line2d_71">
    <path clip-path="url(#pb3d72e40b4)" d="M 381.670711 215.631959 
L 381.670711 170.993473 
" style="fill:none;stroke:#e32f27;stroke-linecap:square;stroke-width:3.6;"/>
   </g>
   <g id="patch_3">
    <path d="M 52.643125 225.515596 
L 52.643125 8.075596 
" style="fill:none;stroke:#000000;stroke-linecap:square;stroke-linejoin:miter;"/>
   </g>
   <g id="patch_4">
    <path d="M 387.443125 225.515596 
L 387.443125 8.075596 
" style="fill:none;stroke:#000000;stroke-linecap:square;stroke-linejoin:miter;"/>
   </g>
   <g id="patch_5">
    <path d="M 52.643125 225.515596 
L 387.443125 225.515596 
" style="fill:none;stroke:#000000;stroke-linecap:square;stroke-linejoin:miter;"/>
   </g>
   <g id="patch_6">
    <path d="M 52.643125 8.075596 
L 387.443125 8.075596 
" style="fill:none;stroke:#000000;stroke-linecap:square;stroke-linejoin:miter;"/>
   </g>
   <g id="legend_1">
    <g id="patch_7">
     <path d="M 308.382 54.640096 
L 381.283125 54.640096 
Q 383.043125 54.640096 383.043125 52.880096 
L 383.043125 14.235596 
Q 383.043125 12.475596 381.283125 12.475596 
L 308.382 12.475596 
Q 306.622 12.475596 306.622 14.235596 
L 306.622 52.880096 
Q 306.622 54.640096 308.382 54.640096 
z
" style="fill:#ffffff;opacity:0.8;stroke:#cccccc;stroke-linejoin:miter;stroke-width:0.8;"/>
    </g>
    <g id="text_14">
     <!-- Group -->
     <g transform="translate(330.221812 23.290096)scale(0.096 -0.096)">
      <defs>
       <path d="M 3809 666 
L 3809 1919 
L 2778 1919 
L 2778 2438 
L 4434 2438 
L 4434 434 
Q 4069 175 3628 42 
Q 3188 -91 2688 -91 
Q 1594 -91 976 548 
Q 359 1188 359 2328 
Q 359 3472 976 4111 
Q 1594 4750 2688 4750 
Q 3144 4750 3555 4637 
Q 3966 4525 4313 4306 
L 4313 3634 
Q 3963 3931 3569 4081 
Q 3175 4231 2741 4231 
Q 1884 4231 1454 3753 
Q 1025 3275 1025 2328 
Q 1025 1384 1454 906 
Q 1884 428 2741 428 
Q 3075 428 3337 486 
Q 3600 544 3809 666 
z
" id="DejaVuSans-47" transform="scale(0.015625)"/>
       <path d="M 544 1381 
L 544 3500 
L 1119 3500 
L 1119 1403 
Q 1119 906 1312 657 
Q 1506 409 1894 409 
Q 2359 409 2629 706 
Q 2900 1003 2900 1516 
L 2900 3500 
L 3475 3500 
L 3475 0 
L 2900 0 
L 2900 538 
Q 2691 219 2414 64 
Q 2138 -91 1772 -91 
Q 1169 -91 856 284 
Q 544 659 544 1381 
z
M 1991 3584 
L 1991 3584 
z
" id="DejaVuSans-75" transform="scale(0.015625)"/>
      </defs>
      <use xlink:href="#DejaVuSans-47"/>
      <use x="77.490234" xlink:href="#DejaVuSans-72"/>
      <use x="116.353516" xlink:href="#DejaVuSans-6f"/>
      <use x="177.535156" xlink:href="#DejaVuSans-75"/>
      <use x="240.914062" xlink:href="#DejaVuSans-70"/>
     </g>
    </g>
    <g id="PathCollection_3">
     <g>
      <use style="fill:#fca082;stroke:#fca082;stroke-width:2.7;" x="318.942" xlink:href="#me44a964133" y="34.063221"/>
     </g>
    </g>
    <g id="text_15">
     <!-- NoReward -->
     <g transform="translate(334.782 36.373221)scale(0.088 -0.088)">
      <defs>
       <path d="M 628 4666 
L 1478 4666 
L 3547 763 
L 3547 4666 
L 4159 4666 
L 4159 0 
L 3309 0 
L 1241 3903 
L 1241 0 
L 628 0 
L 628 4666 
z
" id="DejaVuSans-4e" transform="scale(0.015625)"/>
       <path d="M 2841 2188 
Q 3044 2119 3236 1894 
Q 3428 1669 3622 1275 
L 4263 0 
L 3584 0 
L 2988 1197 
Q 2756 1666 2539 1819 
Q 2322 1972 1947 1972 
L 1259 1972 
L 1259 0 
L 628 0 
L 628 4666 
L 2053 4666 
Q 2853 4666 3247 4331 
Q 3641 3997 3641 3322 
Q 3641 2881 3436 2590 
Q 3231 2300 2841 2188 
z
M 1259 4147 
L 1259 2491 
L 2053 2491 
Q 2509 2491 2742 2702 
Q 2975 2913 2975 3322 
Q 2975 3731 2742 3939 
Q 2509 4147 2053 4147 
L 1259 4147 
z
" id="DejaVuSans-52" transform="scale(0.015625)"/>
       <path d="M 269 3500 
L 844 3500 
L 1563 769 
L 2278 3500 
L 2956 3500 
L 3675 769 
L 4391 3500 
L 4966 3500 
L 4050 0 
L 3372 0 
L 2619 2869 
L 1863 0 
L 1184 0 
L 269 3500 
z
" id="DejaVuSans-77" transform="scale(0.015625)"/>
      </defs>
      <use xlink:href="#DejaVuSans-4e"/>
      <use x="74.804688" xlink:href="#DejaVuSans-6f"/>
      <use x="135.986328" xlink:href="#DejaVuSans-52"/>
      <use x="200.96875" xlink:href="#DejaVuSans-65"/>
      <use x="262.492188" xlink:href="#DejaVuSans-77"/>
      <use x="344.279297" xlink:href="#DejaVuSans-61"/>
      <use x="405.558594" xlink:href="#DejaVuSans-72"/>
      <use x="444.921875" xlink:href="#DejaVuSans-64"/>
     </g>
    </g>
    <g id="PathCollection_4">
     <g>
      <use style="fill:#e32f27;stroke:#e32f27;stroke-width:2.7;" x="318.942" xlink:href="#m112dfc035e" y="46.979971"/>
     </g>
    </g>
    <g id="text_16">
     <!-- Reward -->
     <g transform="translate(334.782 49.289971)scale(0.088 -0.088)">
      <use xlink:href="#DejaVuSans-52"/>
      <use x="64.982422" xlink:href="#DejaVuSans-65"/>
      <use x="126.505859" xlink:href="#DejaVuSans-77"/>
      <use x="208.292969" xlink:href="#DejaVuSans-61"/>
      <use x="269.572266" xlink:href="#DejaVuSans-72"/>
      <use x="308.935547" xlink:href="#DejaVuSans-64"/>
     </g>
    </g>
   </g>
  </g>
 </g>
 <defs>
  <clipPath id="pb3d72e40b4">
   <rect height="217.44" width="334.8" x="52.643125" y="8.075596"/>
  </clipPath>
 </defs>
</svg>
