<?xml version="1.0" encoding="utf-8" standalone="no"?>
<!DOCTYPE svg PUBLIC "-//W3C//DTD SVG 1.1//EN"
  "http://www.w3.org/Graphics/SVG/1.1/DTD/svg11.dtd">
<svg height="266.206125pt" version="1.1" viewBox="0 0 386.247375 266.206125" width="386.247375pt" xmlns="http://www.w3.org/2000/svg" xmlns:xlink="http://www.w3.org/1999/xlink">
 <metadata>
  <rdf:RDF xmlns:cc="http://creativecommons.org/ns#" xmlns:dc="http://purl.org/dc/elements/1.1/" xmlns:rdf="http://www.w3.org/1999/02/22-rdf-syntax-ns#">
   <cc:Work>
    <dc:type rdf:resource="http://purl.org/dc/dcmitype/StillImage"/>
    <dc:date>2022-06-24T15:31:22.983661</dc:date>
    <dc:format>image/svg+xml</dc:format>
    <dc:creator>
     <cc:Agent>
      <dc:title>Matplotlib v3.4.3, https://matplotlib.org/</dc:title>
     </cc:Agent>
    </dc:creator>
   </cc:Work>
  </rdf:RDF>
 </metadata>
 <defs>
  <style type="text/css">*{stroke-linecap:butt;stroke-linejoin:round;}</style>
 </defs>
 <g id="figure_1">
  <g id="patch_1">
   <path d="M 0 266.206125 
L 386.247375 266.206125 
L 386.247375 0 
L 0 0 
z
" style="fill:none;"/>
  </g>
  <g id="axes_1">
   <g id="patch_2">
    <path d="M 44.247375 224.64 
L 379.047375 224.64 
L 379.047375 7.2 
L 44.247375 7.2 
z
" style="fill:#ffffff;"/>
   </g>
   <g id="PolyCollection_1">
    <defs>
     <path d="M 59.465557 -152.845824 
L 59.465557 -137.849198 
L 65.10192 -101.849744 
L 70.738284 -111.853348 
L 76.374648 -92.748092 
L 82.011011 -81.850984 
L 87.647375 -89.006198 
L 93.283739 -85.214962 
L 98.920102 -95.586719 
L 104.556466 -94.235353 
L 110.19283 -99.973874 
L 115.829193 -99.948768 
L 121.465557 -99.816021 
L 127.10192 -207.104064 
L 132.738284 -162.275094 
L 138.374648 -195.701459 
L 144.011011 -177.687703 
L 149.647375 -159.129237 
L 155.283739 -175.038496 
L 160.920102 -176.417991 
L 166.556466 -187.473332 
L 172.19283 -142.243401 
L 177.829193 -141.503122 
L 183.465557 -125.406666 
L 189.10192 -139.054945 
L 194.738284 -123.382341 
L 200.374648 -111.845845 
L 206.011011 -136.640123 
L 211.647375 -122.172853 
L 217.283739 -122.865379 
L 222.920102 -180.488118 
L 228.556466 -162.134207 
L 234.19283 -143.873527 
L 239.829193 -153.887395 
L 245.465557 -133.151407 
L 251.10192 -127.524197 
L 256.738284 -129.355331 
L 262.374648 -132.687664 
L 268.011011 -142.045213 
L 273.647375 -148.859065 
L 279.283739 -150.202772 
L 284.920102 -136.316772 
L 290.556466 -110.492098 
L 296.19283 -107.274793 
L 301.829193 -100.667735 
L 307.465557 -96.720975 
L 313.10192 -70.032149 
L 318.738284 -76.551977 
L 324.374648 -78.715219 
L 330.011011 -73.114706 
L 335.647375 -69.312647 
L 341.283739 -67.23124 
L 346.920102 -55.57255 
L 352.556466 -77.315033 
L 358.19283 -54.17177 
L 363.829193 -51.449761 
L 363.829193 -51.449761 
L 363.829193 -51.449761 
L 358.19283 -67.25091 
L 352.556466 -109.147181 
L 346.920102 -93.614523 
L 341.283739 -104.010773 
L 335.647375 -107.038576 
L 330.011011 -107.889914 
L 324.374648 -126.636834 
L 318.738284 -118.847491 
L 313.10192 -116.559922 
L 307.465557 -134.940207 
L 301.829193 -141.676857 
L 296.19283 -144.314477 
L 290.556466 -139.379432 
L 284.920102 -163.071895 
L 279.283739 -191.244874 
L 273.647375 -181.85235 
L 268.011011 -181.776536 
L 262.374648 -172.21941 
L 256.738284 -151.789895 
L 251.10192 -156.108901 
L 245.465557 -157.386338 
L 239.829193 -191.066044 
L 234.19283 -176.900064 
L 228.556466 -191.589768 
L 222.920102 -217.466969 
L 217.283739 -158.324509 
L 211.647375 -145.352403 
L 206.011011 -161.717011 
L 200.374648 -134.242192 
L 194.738284 -144.467229 
L 189.10192 -162.26671 
L 183.465557 -156.803954 
L 177.829193 -163.061449 
L 172.19283 -163.414376 
L 166.556466 -243.228581 
L 160.920102 -212.753444 
L 155.283739 -208.030787 
L 149.647375 -179.038379 
L 144.011011 -213.279317 
L 138.374648 -225.987207 
L 132.738284 -184.148704 
L 127.10192 -228.612407 
L 121.465557 -130.112158 
L 115.829193 -128.996094 
L 110.19283 -126.951942 
L 104.556466 -116.520147 
L 98.920102 -114.341173 
L 93.283739 -93.65036 
L 87.647375 -101.958815 
L 82.011011 -87.710524 
L 76.374648 -110.596709 
L 70.738284 -122.622206 
L 65.10192 -114.73302 
L 59.465557 -152.845824 
z
" id="m1629190659" style="stroke:#721f81;stroke-opacity:0.2;stroke-width:0.8;"/>
    </defs>
    <g clip-path="url(#p4711bde43a)">
     <use style="fill:#721f81;fill-opacity:0.2;stroke:#721f81;stroke-opacity:0.2;stroke-width:0.8;" x="0" xlink:href="#m1629190659" y="266.206125"/>
    </g>
   </g>
   <g id="PolyCollection_2">
    <defs>
     <path d="M 59.465557 -178.553586 
L 59.465557 -159.192895 
L 65.10192 -111.018988 
L 70.738284 -93.161782 
L 76.374648 -116.416515 
L 82.011011 -96.753579 
L 87.647375 -111.317713 
L 93.283739 -95.766168 
L 98.920102 -77.233588 
L 104.556466 -78.29138 
L 110.19283 -74.309042 
L 115.829193 -75.22139 
L 121.465557 -71.988379 
L 127.10192 -216.592539 
L 132.738284 -155.506163 
L 138.374648 -143.946009 
L 144.011011 -135.123388 
L 149.647375 -163.985045 
L 155.283739 -132.258775 
L 160.920102 -159.541241 
L 166.556466 -128.59174 
L 172.19283 -112.918767 
L 177.829193 -120.383081 
L 183.465557 -113.577878 
L 189.10192 -124.801932 
L 194.738284 -127.085987 
L 200.374648 -108.987828 
L 206.011011 -119.486727 
L 211.647375 -112.146098 
L 217.283739 -100.216087 
L 222.920102 -104.859712 
L 228.556466 -108.221111 
L 234.19283 -108.167907 
L 239.829193 -101.159345 
L 245.465557 -109.151724 
L 251.10192 -131.897502 
L 256.738284 -98.267137 
L 262.374648 -110.006899 
L 268.011011 -112.558556 
L 273.647375 -125.311528 
L 279.283739 -117.593936 
L 284.920102 -122.077368 
L 290.556466 -101.215354 
L 296.19283 -112.489499 
L 301.829193 -79.068155 
L 307.465557 -64.601219 
L 313.10192 -55.216195 
L 318.738284 -64.914882 
L 324.374648 -64.119804 
L 330.011011 -52.421162 
L 335.647375 -68.669047 
L 341.283739 -55.172855 
L 346.920102 -55.662045 
L 352.556466 -52.352255 
L 358.19283 -58.077533 
L 358.19283 -70.925443 
L 358.19283 -70.925443 
L 352.556466 -61.947606 
L 346.920102 -64.025742 
L 341.283739 -64.742522 
L 335.647375 -82.089638 
L 330.011011 -60.132833 
L 324.374648 -76.58747 
L 318.738284 -77.637812 
L 313.10192 -63.937906 
L 307.465557 -72.253252 
L 301.829193 -92.834594 
L 296.19283 -138.937756 
L 290.556466 -142.890937 
L 284.920102 -145.660884 
L 279.283739 -140.088406 
L 273.647375 -182.37419 
L 268.011011 -131.364634 
L 262.374648 -128.962915 
L 256.738284 -134.051757 
L 251.10192 -158.560919 
L 245.465557 -131.243846 
L 239.829193 -119.51088 
L 234.19283 -129.14905 
L 228.556466 -132.695942 
L 222.920102 -128.63896 
L 217.283739 -122.450369 
L 211.647375 -135.389161 
L 206.011011 -199.406743 
L 200.374648 -132.988845 
L 194.738284 -147.025853 
L 189.10192 -148.329743 
L 183.465557 -130.785095 
L 177.829193 -141.92109 
L 172.19283 -133.923263 
L 166.556466 -147.166628 
L 160.920102 -204.93745 
L 155.283739 -170.651976 
L 149.647375 -200.572709 
L 144.011011 -154.522014 
L 138.374648 -163.562077 
L 132.738284 -178.64676 
L 127.10192 -249.122489 
L 121.465557 -80.459147 
L 115.829193 -99.245555 
L 110.19283 -87.964337 
L 104.556466 -90.557379 
L 98.920102 -89.334044 
L 93.283739 -125.176856 
L 87.647375 -140.852602 
L 82.011011 -112.238989 
L 76.374648 -140.369697 
L 70.738284 -106.617089 
L 65.10192 -122.822612 
L 59.465557 -178.553586 
z
" id="mc00a918d89" style="stroke:#f1605d;stroke-opacity:0.2;stroke-width:0.8;"/>
    </defs>
    <g clip-path="url(#p4711bde43a)">
     <use style="fill:#f1605d;fill-opacity:0.2;stroke:#f1605d;stroke-opacity:0.2;stroke-width:0.8;" x="0" xlink:href="#mc00a918d89" y="266.206125"/>
    </g>
   </g>
   <g id="matplotlib.axis_1">
    <g id="xtick_1">
     <g id="line2d_1">
      <defs>
       <path d="M 0 0 
L 0 4.8 
" id="m35073b6695" style="stroke:#000000;"/>
      </defs>
      <g>
       <use style="stroke:#000000;" x="59.465557" xlink:href="#m35073b6695" y="224.64"/>
      </g>
     </g>
     <g id="text_1">
      <!-- 0 -->
      <g transform="translate(56.666057 239.626625)scale(0.088 -0.088)">
       <defs>
        <path d="M 2034 4250 
Q 1547 4250 1301 3770 
Q 1056 3291 1056 2328 
Q 1056 1369 1301 889 
Q 1547 409 2034 409 
Q 2525 409 2770 889 
Q 3016 1369 3016 2328 
Q 3016 3291 2770 3770 
Q 2525 4250 2034 4250 
z
M 2034 4750 
Q 2819 4750 3233 4129 
Q 3647 3509 3647 2328 
Q 3647 1150 3233 529 
Q 2819 -91 2034 -91 
Q 1250 -91 836 529 
Q 422 1150 422 2328 
Q 422 3509 836 4129 
Q 1250 4750 2034 4750 
z
" id="DejaVuSans-30" transform="scale(0.015625)"/>
       </defs>
       <use xlink:href="#DejaVuSans-30"/>
      </g>
     </g>
    </g>
    <g id="xtick_2">
     <g id="line2d_2">
      <g>
       <use style="stroke:#000000;" x="115.829193" xlink:href="#m35073b6695" y="224.64"/>
      </g>
     </g>
     <g id="text_2">
      <!-- 10 -->
      <g transform="translate(110.230193 239.626625)scale(0.088 -0.088)">
       <defs>
        <path d="M 794 531 
L 1825 531 
L 1825 4091 
L 703 3866 
L 703 4441 
L 1819 4666 
L 2450 4666 
L 2450 531 
L 3481 531 
L 3481 0 
L 794 0 
L 794 531 
z
" id="DejaVuSans-31" transform="scale(0.015625)"/>
       </defs>
       <use xlink:href="#DejaVuSans-31"/>
       <use x="63.623047" xlink:href="#DejaVuSans-30"/>
      </g>
     </g>
    </g>
    <g id="xtick_3">
     <g id="line2d_3">
      <g>
       <use style="stroke:#000000;" x="172.19283" xlink:href="#m35073b6695" y="224.64"/>
      </g>
     </g>
     <g id="text_3">
      <!-- 20 -->
      <g transform="translate(166.59383 239.626625)scale(0.088 -0.088)">
       <defs>
        <path d="M 1228 531 
L 3431 531 
L 3431 0 
L 469 0 
L 469 531 
Q 828 903 1448 1529 
Q 2069 2156 2228 2338 
Q 2531 2678 2651 2914 
Q 2772 3150 2772 3378 
Q 2772 3750 2511 3984 
Q 2250 4219 1831 4219 
Q 1534 4219 1204 4116 
Q 875 4013 500 3803 
L 500 4441 
Q 881 4594 1212 4672 
Q 1544 4750 1819 4750 
Q 2544 4750 2975 4387 
Q 3406 4025 3406 3419 
Q 3406 3131 3298 2873 
Q 3191 2616 2906 2266 
Q 2828 2175 2409 1742 
Q 1991 1309 1228 531 
z
" id="DejaVuSans-32" transform="scale(0.015625)"/>
       </defs>
       <use xlink:href="#DejaVuSans-32"/>
       <use x="63.623047" xlink:href="#DejaVuSans-30"/>
      </g>
     </g>
    </g>
    <g id="xtick_4">
     <g id="line2d_4">
      <g>
       <use style="stroke:#000000;" x="228.556466" xlink:href="#m35073b6695" y="224.64"/>
      </g>
     </g>
     <g id="text_4">
      <!-- 30 -->
      <g transform="translate(222.957466 239.626625)scale(0.088 -0.088)">
       <defs>
        <path d="M 2597 2516 
Q 3050 2419 3304 2112 
Q 3559 1806 3559 1356 
Q 3559 666 3084 287 
Q 2609 -91 1734 -91 
Q 1441 -91 1130 -33 
Q 819 25 488 141 
L 488 750 
Q 750 597 1062 519 
Q 1375 441 1716 441 
Q 2309 441 2620 675 
Q 2931 909 2931 1356 
Q 2931 1769 2642 2001 
Q 2353 2234 1838 2234 
L 1294 2234 
L 1294 2753 
L 1863 2753 
Q 2328 2753 2575 2939 
Q 2822 3125 2822 3475 
Q 2822 3834 2567 4026 
Q 2313 4219 1838 4219 
Q 1578 4219 1281 4162 
Q 984 4106 628 3988 
L 628 4550 
Q 988 4650 1302 4700 
Q 1616 4750 1894 4750 
Q 2613 4750 3031 4423 
Q 3450 4097 3450 3541 
Q 3450 3153 3228 2886 
Q 3006 2619 2597 2516 
z
" id="DejaVuSans-33" transform="scale(0.015625)"/>
       </defs>
       <use xlink:href="#DejaVuSans-33"/>
       <use x="63.623047" xlink:href="#DejaVuSans-30"/>
      </g>
     </g>
    </g>
    <g id="xtick_5">
     <g id="line2d_5">
      <g>
       <use style="stroke:#000000;" x="284.920102" xlink:href="#m35073b6695" y="224.64"/>
      </g>
     </g>
     <g id="text_5">
      <!-- 40 -->
      <g transform="translate(279.321102 239.626625)scale(0.088 -0.088)">
       <defs>
        <path d="M 2419 4116 
L 825 1625 
L 2419 1625 
L 2419 4116 
z
M 2253 4666 
L 3047 4666 
L 3047 1625 
L 3713 1625 
L 3713 1100 
L 3047 1100 
L 3047 0 
L 2419 0 
L 2419 1100 
L 313 1100 
L 313 1709 
L 2253 4666 
z
" id="DejaVuSans-34" transform="scale(0.015625)"/>
       </defs>
       <use xlink:href="#DejaVuSans-34"/>
       <use x="63.623047" xlink:href="#DejaVuSans-30"/>
      </g>
     </g>
    </g>
    <g id="xtick_6">
     <g id="line2d_6">
      <g>
       <use style="stroke:#000000;" x="341.283739" xlink:href="#m35073b6695" y="224.64"/>
      </g>
     </g>
     <g id="text_6">
      <!-- 50 -->
      <g transform="translate(335.684739 239.626625)scale(0.088 -0.088)">
       <defs>
        <path d="M 691 4666 
L 3169 4666 
L 3169 4134 
L 1269 4134 
L 1269 2991 
Q 1406 3038 1543 3061 
Q 1681 3084 1819 3084 
Q 2600 3084 3056 2656 
Q 3513 2228 3513 1497 
Q 3513 744 3044 326 
Q 2575 -91 1722 -91 
Q 1428 -91 1123 -41 
Q 819 9 494 109 
L 494 744 
Q 775 591 1075 516 
Q 1375 441 1709 441 
Q 2250 441 2565 725 
Q 2881 1009 2881 1497 
Q 2881 1984 2565 2268 
Q 2250 2553 1709 2553 
Q 1456 2553 1204 2497 
Q 953 2441 691 2322 
L 691 4666 
z
" id="DejaVuSans-35" transform="scale(0.015625)"/>
       </defs>
       <use xlink:href="#DejaVuSans-35"/>
       <use x="63.623047" xlink:href="#DejaVuSans-30"/>
      </g>
     </g>
    </g>
    <g id="text_7">
     <!-- Trial -->
     <g transform="translate(197.347687 256.094562)scale(0.14 -0.14)">
      <defs>
       <path d="M -19 4666 
L 3928 4666 
L 3928 4134 
L 2272 4134 
L 2272 0 
L 1638 0 
L 1638 4134 
L -19 4134 
L -19 4666 
z
" id="DejaVuSans-54" transform="scale(0.015625)"/>
       <path d="M 2631 2963 
Q 2534 3019 2420 3045 
Q 2306 3072 2169 3072 
Q 1681 3072 1420 2755 
Q 1159 2438 1159 1844 
L 1159 0 
L 581 0 
L 581 3500 
L 1159 3500 
L 1159 2956 
Q 1341 3275 1631 3429 
Q 1922 3584 2338 3584 
Q 2397 3584 2469 3576 
Q 2541 3569 2628 3553 
L 2631 2963 
z
" id="DejaVuSans-72" transform="scale(0.015625)"/>
       <path d="M 603 3500 
L 1178 3500 
L 1178 0 
L 603 0 
L 603 3500 
z
M 603 4863 
L 1178 4863 
L 1178 4134 
L 603 4134 
L 603 4863 
z
" id="DejaVuSans-69" transform="scale(0.015625)"/>
       <path d="M 2194 1759 
Q 1497 1759 1228 1600 
Q 959 1441 959 1056 
Q 959 750 1161 570 
Q 1363 391 1709 391 
Q 2188 391 2477 730 
Q 2766 1069 2766 1631 
L 2766 1759 
L 2194 1759 
z
M 3341 1997 
L 3341 0 
L 2766 0 
L 2766 531 
Q 2569 213 2275 61 
Q 1981 -91 1556 -91 
Q 1019 -91 701 211 
Q 384 513 384 1019 
Q 384 1609 779 1909 
Q 1175 2209 1959 2209 
L 2766 2209 
L 2766 2266 
Q 2766 2663 2505 2880 
Q 2244 3097 1772 3097 
Q 1472 3097 1187 3025 
Q 903 2953 641 2809 
L 641 3341 
Q 956 3463 1253 3523 
Q 1550 3584 1831 3584 
Q 2591 3584 2966 3190 
Q 3341 2797 3341 1997 
z
" id="DejaVuSans-61" transform="scale(0.015625)"/>
       <path d="M 603 4863 
L 1178 4863 
L 1178 0 
L 603 0 
L 603 4863 
z
" id="DejaVuSans-6c" transform="scale(0.015625)"/>
      </defs>
      <use xlink:href="#DejaVuSans-54"/>
      <use x="46.333984" xlink:href="#DejaVuSans-72"/>
      <use x="87.447266" xlink:href="#DejaVuSans-69"/>
      <use x="115.230469" xlink:href="#DejaVuSans-61"/>
      <use x="176.509766" xlink:href="#DejaVuSans-6c"/>
     </g>
    </g>
   </g>
   <g id="matplotlib.axis_2">
    <g id="ytick_1">
     <g id="line2d_7">
      <defs>
       <path d="M 0 0 
L -4.8 0 
" id="ma120c0e2b8" style="stroke:#000000;"/>
      </defs>
      <g>
       <use style="stroke:#000000;" x="44.247375" xlink:href="#ma120c0e2b8" y="197.29271"/>
      </g>
     </g>
     <g id="text_8">
      <!-- 15 -->
      <g transform="translate(24.749375 200.636023)scale(0.088 -0.088)">
       <use xlink:href="#DejaVuSans-31"/>
       <use x="63.623047" xlink:href="#DejaVuSans-35"/>
      </g>
     </g>
    </g>
    <g id="ytick_2">
     <g id="line2d_8">
      <g>
       <use style="stroke:#000000;" x="44.247375" xlink:href="#ma120c0e2b8" y="160.003518"/>
      </g>
     </g>
     <g id="text_9">
      <!-- 20 -->
      <g transform="translate(24.749375 163.346831)scale(0.088 -0.088)">
       <use xlink:href="#DejaVuSans-32"/>
       <use x="63.623047" xlink:href="#DejaVuSans-30"/>
      </g>
     </g>
    </g>
    <g id="ytick_3">
     <g id="line2d_9">
      <g>
       <use style="stroke:#000000;" x="44.247375" xlink:href="#ma120c0e2b8" y="122.714326"/>
      </g>
     </g>
     <g id="text_10">
      <!-- 25 -->
      <g transform="translate(24.749375 126.057639)scale(0.088 -0.088)">
       <use xlink:href="#DejaVuSans-32"/>
       <use x="63.623047" xlink:href="#DejaVuSans-35"/>
      </g>
     </g>
    </g>
    <g id="ytick_4">
     <g id="line2d_10">
      <g>
       <use style="stroke:#000000;" x="44.247375" xlink:href="#ma120c0e2b8" y="85.425134"/>
      </g>
     </g>
     <g id="text_11">
      <!-- 30 -->
      <g transform="translate(24.749375 88.768447)scale(0.088 -0.088)">
       <use xlink:href="#DejaVuSans-33"/>
       <use x="63.623047" xlink:href="#DejaVuSans-30"/>
      </g>
     </g>
    </g>
    <g id="ytick_5">
     <g id="line2d_11">
      <g>
       <use style="stroke:#000000;" x="44.247375" xlink:href="#ma120c0e2b8" y="48.135942"/>
      </g>
     </g>
     <g id="text_12">
      <!-- 35 -->
      <g transform="translate(24.749375 51.479255)scale(0.088 -0.088)">
       <use xlink:href="#DejaVuSans-33"/>
       <use x="63.623047" xlink:href="#DejaVuSans-35"/>
      </g>
     </g>
    </g>
    <g id="ytick_6">
     <g id="line2d_12">
      <g>
       <use style="stroke:#000000;" x="44.247375" xlink:href="#ma120c0e2b8" y="10.84675"/>
      </g>
     </g>
     <g id="text_13">
      <!-- 40 -->
      <g transform="translate(24.749375 14.190063)scale(0.088 -0.088)">
       <use xlink:href="#DejaVuSans-34"/>
       <use x="63.623047" xlink:href="#DejaVuSans-30"/>
      </g>
     </g>
    </g>
    <g id="text_14">
     <!-- MAE (Degrees) -->
     <g transform="translate(17.837813 167.980312)rotate(-90)scale(0.14 -0.14)">
      <defs>
       <path d="M 628 4666 
L 1569 4666 
L 2759 1491 
L 3956 4666 
L 4897 4666 
L 4897 0 
L 4281 0 
L 4281 4097 
L 3078 897 
L 2444 897 
L 1241 4097 
L 1241 0 
L 628 0 
L 628 4666 
z
" id="DejaVuSans-4d" transform="scale(0.015625)"/>
       <path d="M 2188 4044 
L 1331 1722 
L 3047 1722 
L 2188 4044 
z
M 1831 4666 
L 2547 4666 
L 4325 0 
L 3669 0 
L 3244 1197 
L 1141 1197 
L 716 0 
L 50 0 
L 1831 4666 
z
" id="DejaVuSans-41" transform="scale(0.015625)"/>
       <path d="M 628 4666 
L 3578 4666 
L 3578 4134 
L 1259 4134 
L 1259 2753 
L 3481 2753 
L 3481 2222 
L 1259 2222 
L 1259 531 
L 3634 531 
L 3634 0 
L 628 0 
L 628 4666 
z
" id="DejaVuSans-45" transform="scale(0.015625)"/>
       <path id="DejaVuSans-20" transform="scale(0.015625)"/>
       <path d="M 1984 4856 
Q 1566 4138 1362 3434 
Q 1159 2731 1159 2009 
Q 1159 1288 1364 580 
Q 1569 -128 1984 -844 
L 1484 -844 
Q 1016 -109 783 600 
Q 550 1309 550 2009 
Q 550 2706 781 3412 
Q 1013 4119 1484 4856 
L 1984 4856 
z
" id="DejaVuSans-28" transform="scale(0.015625)"/>
       <path d="M 1259 4147 
L 1259 519 
L 2022 519 
Q 2988 519 3436 956 
Q 3884 1394 3884 2338 
Q 3884 3275 3436 3711 
Q 2988 4147 2022 4147 
L 1259 4147 
z
M 628 4666 
L 1925 4666 
Q 3281 4666 3915 4102 
Q 4550 3538 4550 2338 
Q 4550 1131 3912 565 
Q 3275 0 1925 0 
L 628 0 
L 628 4666 
z
" id="DejaVuSans-44" transform="scale(0.015625)"/>
       <path d="M 3597 1894 
L 3597 1613 
L 953 1613 
Q 991 1019 1311 708 
Q 1631 397 2203 397 
Q 2534 397 2845 478 
Q 3156 559 3463 722 
L 3463 178 
Q 3153 47 2828 -22 
Q 2503 -91 2169 -91 
Q 1331 -91 842 396 
Q 353 884 353 1716 
Q 353 2575 817 3079 
Q 1281 3584 2069 3584 
Q 2775 3584 3186 3129 
Q 3597 2675 3597 1894 
z
M 3022 2063 
Q 3016 2534 2758 2815 
Q 2500 3097 2075 3097 
Q 1594 3097 1305 2825 
Q 1016 2553 972 2059 
L 3022 2063 
z
" id="DejaVuSans-65" transform="scale(0.015625)"/>
       <path d="M 2906 1791 
Q 2906 2416 2648 2759 
Q 2391 3103 1925 3103 
Q 1463 3103 1205 2759 
Q 947 2416 947 1791 
Q 947 1169 1205 825 
Q 1463 481 1925 481 
Q 2391 481 2648 825 
Q 2906 1169 2906 1791 
z
M 3481 434 
Q 3481 -459 3084 -895 
Q 2688 -1331 1869 -1331 
Q 1566 -1331 1297 -1286 
Q 1028 -1241 775 -1147 
L 775 -588 
Q 1028 -725 1275 -790 
Q 1522 -856 1778 -856 
Q 2344 -856 2625 -561 
Q 2906 -266 2906 331 
L 2906 616 
Q 2728 306 2450 153 
Q 2172 0 1784 0 
Q 1141 0 747 490 
Q 353 981 353 1791 
Q 353 2603 747 3093 
Q 1141 3584 1784 3584 
Q 2172 3584 2450 3431 
Q 2728 3278 2906 2969 
L 2906 3500 
L 3481 3500 
L 3481 434 
z
" id="DejaVuSans-67" transform="scale(0.015625)"/>
       <path d="M 2834 3397 
L 2834 2853 
Q 2591 2978 2328 3040 
Q 2066 3103 1784 3103 
Q 1356 3103 1142 2972 
Q 928 2841 928 2578 
Q 928 2378 1081 2264 
Q 1234 2150 1697 2047 
L 1894 2003 
Q 2506 1872 2764 1633 
Q 3022 1394 3022 966 
Q 3022 478 2636 193 
Q 2250 -91 1575 -91 
Q 1294 -91 989 -36 
Q 684 19 347 128 
L 347 722 
Q 666 556 975 473 
Q 1284 391 1588 391 
Q 1994 391 2212 530 
Q 2431 669 2431 922 
Q 2431 1156 2273 1281 
Q 2116 1406 1581 1522 
L 1381 1569 
Q 847 1681 609 1914 
Q 372 2147 372 2553 
Q 372 3047 722 3315 
Q 1072 3584 1716 3584 
Q 2034 3584 2315 3537 
Q 2597 3491 2834 3397 
z
" id="DejaVuSans-73" transform="scale(0.015625)"/>
       <path d="M 513 4856 
L 1013 4856 
Q 1481 4119 1714 3412 
Q 1947 2706 1947 2009 
Q 1947 1309 1714 600 
Q 1481 -109 1013 -844 
L 513 -844 
Q 928 -128 1133 580 
Q 1338 1288 1338 2009 
Q 1338 2731 1133 3434 
Q 928 4138 513 4856 
z
" id="DejaVuSans-29" transform="scale(0.015625)"/>
      </defs>
      <use xlink:href="#DejaVuSans-4d"/>
      <use x="86.279297" xlink:href="#DejaVuSans-41"/>
      <use x="154.6875" xlink:href="#DejaVuSans-45"/>
      <use x="217.871094" xlink:href="#DejaVuSans-20"/>
      <use x="249.658203" xlink:href="#DejaVuSans-28"/>
      <use x="288.671875" xlink:href="#DejaVuSans-44"/>
      <use x="365.673828" xlink:href="#DejaVuSans-65"/>
      <use x="427.197266" xlink:href="#DejaVuSans-67"/>
      <use x="490.673828" xlink:href="#DejaVuSans-72"/>
      <use x="529.537109" xlink:href="#DejaVuSans-65"/>
      <use x="591.060547" xlink:href="#DejaVuSans-65"/>
      <use x="652.583984" xlink:href="#DejaVuSans-73"/>
      <use x="704.683594" xlink:href="#DejaVuSans-29"/>
     </g>
    </g>
   </g>
   <g id="line2d_13">
    <path clip-path="url(#p4711bde43a)" d="M 59.465557 120.445544 
L 65.10192 157.489892 
L 70.738284 148.417829 
L 76.374648 163.644049 
L 82.011011 181.219553 
L 87.647375 170.788366 
L 93.283739 176.707931 
L 98.920102 160.402774 
L 104.556466 159.804061 
L 110.19283 150.928313 
L 115.829193 149.300502 
L 121.465557 150.037827 
L 127.10192 48.915532 
L 132.738284 93.454323 
L 138.374648 53.000224 
L 144.011011 68.425119 
L 149.647375 96.5701 
L 155.283739 74.218066 
L 160.920102 69.925509 
L 166.556466 49.151139 
L 172.19283 113.391027 
L 177.829193 112.59397 
L 183.465557 125.872063 
L 189.10192 115.690807 
L 194.738284 131.223767 
L 200.374648 142.804377 
L 206.011011 116.439205 
L 211.647375 131.482019 
L 217.283739 122.561383 
L 222.920102 67.150647 
L 228.556466 89.154218 
L 234.19283 103.77287 
L 239.829193 92.873077 
L 245.465557 120.084717 
L 251.10192 123.674716 
L 256.738284 125.363231 
L 262.374648 113.610661 
L 268.011011 101.852179 
L 273.647375 99.464579 
L 279.283739 94.11759 
L 284.920102 115.412127 
L 290.556466 139.262535 
L 296.19283 133.513429 
L 301.829193 141.104762 
L 307.465557 147.075 
L 313.10192 157.571943 
L 318.738284 158.251787 
L 324.374648 160.456267 
L 330.011011 166.074493 
L 335.647375 168.005658 
L 341.283739 170.925264 
L 346.920102 180.63102 
L 352.556466 166.429567 
L 358.19283 206.209243 
L 363.829193 214.756364 
" style="fill:none;stroke:#721f81;stroke-linecap:square;stroke-width:2;"/>
   </g>
   <g id="line2d_14">
    <path clip-path="url(#p4711bde43a)" d="M 59.465557 96.691539 
L 65.10192 148.745328 
L 70.738284 166.213338 
L 76.374648 138.181924 
L 82.011011 162.17279 
L 87.647375 139.330366 
L 93.283739 153.604972 
L 98.920102 182.858312 
L 104.556466 181.46743 
L 110.19283 184.930942 
L 115.829193 176.672074 
L 121.465557 190.030394 
L 127.10192 31.797066 
L 132.738284 98.633551 
L 138.374648 112.266315 
L 144.011011 121.780422 
L 149.647375 83.417535 
L 155.283739 113.21402 
L 160.920102 81.611343 
L 166.556466 128.271545 
L 172.19283 142.447944 
L 177.829193 135.077166 
L 183.465557 144.362939 
L 189.10192 128.299786 
L 194.738284 127.581078 
L 200.374648 145.371357 
L 206.011011 102.41719 
L 211.647375 141.453444 
L 217.283739 154.175358 
L 222.920102 147.85393 
L 228.556466 144.407356 
L 234.19283 146.402172 
L 239.829193 156.256476 
L 245.465557 146.033555 
L 251.10192 120.912429 
L 256.738284 150.040665 
L 262.374648 146.288652 
L 268.011011 143.731968 
L 273.647375 101.167766 
L 279.283739 137.073024 
L 284.920102 132.616241 
L 290.556466 137.197163 
L 296.19283 139.915603 
L 301.829193 180.474371 
L 307.465557 198.014377 
L 313.10192 207.291032 
L 318.738284 194.968633 
L 324.374648 195.404781 
L 330.011011 209.983954 
L 335.647375 191.734294 
L 341.283739 206.080332 
L 346.920102 206.415508 
L 352.556466 208.841013 
L 358.19283 201.704637 
" style="fill:none;stroke:#f1605d;stroke-linecap:square;stroke-width:2;"/>
   </g>
   <g id="line2d_15"/>
   <g id="line2d_16"/>
   <g id="patch_3">
    <path d="M 44.247375 224.64 
L 44.247375 7.2 
" style="fill:none;stroke:#000000;stroke-linecap:square;stroke-linejoin:miter;"/>
   </g>
   <g id="patch_4">
    <path d="M 379.047375 224.64 
L 379.047375 7.2 
" style="fill:none;stroke:#000000;stroke-linecap:square;stroke-linejoin:miter;"/>
   </g>
   <g id="patch_5">
    <path d="M 44.247375 224.64 
L 379.047375 224.64 
" style="fill:none;stroke:#000000;stroke-linecap:square;stroke-linejoin:miter;"/>
   </g>
   <g id="patch_6">
    <path d="M 44.247375 7.2 
L 379.047375 7.2 
" style="fill:none;stroke:#000000;stroke-linecap:square;stroke-linejoin:miter;"/>
   </g>
   <g id="legend_1">
    <g id="patch_7">
     <path d="M 369.367375 18.64 
L 372.887375 18.64 
Q 374.647375 18.64 374.647375 16.88 
L 374.647375 13.36 
Q 374.647375 11.6 372.887375 11.6 
L 369.367375 11.6 
Q 367.607375 11.6 367.607375 13.36 
L 367.607375 16.88 
Q 367.607375 18.64 369.367375 18.64 
z
" style="fill:#ffffff;opacity:0.8;stroke:#cccccc;stroke-linejoin:miter;stroke-width:0.8;"/>
    </g>
   </g>
  </g>
 </g>
 <defs>
  <clipPath id="p4711bde43a">
   <rect height="217.44" width="334.8" x="44.247375" y="7.2"/>
  </clipPath>
 </defs>
</svg>
