<?xml version="1.0" encoding="utf-8" standalone="no"?>
<!DOCTYPE svg PUBLIC "-//W3C//DTD SVG 1.1//EN"
  "http://www.w3.org/Graphics/SVG/1.1/DTD/svg11.dtd">
<svg height="266.206125pt" version="1.1" viewBox="0 0 386.247375 266.206125" width="386.247375pt" xmlns="http://www.w3.org/2000/svg" xmlns:xlink="http://www.w3.org/1999/xlink">
 <metadata>
  <rdf:RDF xmlns:cc="http://creativecommons.org/ns#" xmlns:dc="http://purl.org/dc/elements/1.1/" xmlns:rdf="http://www.w3.org/1999/02/22-rdf-syntax-ns#">
   <cc:Work>
    <dc:type rdf:resource="http://purl.org/dc/dcmitype/StillImage"/>
    <dc:date>2022-05-05T20:27:09.976751</dc:date>
    <dc:format>image/svg+xml</dc:format>
    <dc:creator>
     <cc:Agent>
      <dc:title>Matplotlib v3.4.3, https://matplotlib.org/</dc:title>
     </cc:Agent>
    </dc:creator>
   </cc:Work>
  </rdf:RDF>
 </metadata>
 <defs>
  <style type="text/css">*{stroke-linecap:butt;stroke-linejoin:round;}</style>
 </defs>
 <g id="figure_1">
  <g id="patch_1">
   <path d="M 0 266.206125 
L 386.247375 266.206125 
L 386.247375 0 
L 0 0 
z
" style="fill:none;"/>
  </g>
  <g id="axes_1">
   <g id="patch_2">
    <path d="M 44.247375 224.64 
L 379.047375 224.64 
L 379.047375 7.2 
L 44.247375 7.2 
z
" style="fill:#ffffff;"/>
   </g>
   <g id="PolyCollection_1">
    <defs>
     <path d="M 59.465557 -160.731187 
L 59.465557 -139.273538 
L 65.10192 -109.906157 
L 70.738284 -118.585706 
L 76.374648 -101.55879 
L 82.011011 -94.452882 
L 87.647375 -98.128615 
L 93.283739 -96.577847 
L 98.920102 -102.860659 
L 104.556466 -101.063986 
L 110.19283 -106.531441 
L 115.829193 -105.656426 
L 121.465557 -107.300283 
L 127.10192 -193.419932 
L 132.738284 -157.700318 
L 138.374648 -183.158681 
L 144.011011 -165.981812 
L 149.647375 -154.657841 
L 155.283739 -165.179794 
L 160.920102 -167.618053 
L 166.556466 -171.196703 
L 172.19283 -141.491367 
L 177.829193 -141.410707 
L 183.465557 -124.542005 
L 189.10192 -137.243397 
L 194.738284 -124.696752 
L 200.374648 -115.147164 
L 206.011011 -133.544691 
L 211.647375 -122.522799 
L 217.283739 -122.626539 
L 222.920102 -168.33264 
L 228.556466 -155.477009 
L 234.19283 -139.416753 
L 239.829193 -146.443167 
L 245.465557 -133.943229 
L 251.10192 -127.363808 
L 256.738284 -129.609236 
L 262.374648 -125.684437 
L 268.011011 -135.683107 
L 273.647375 -141.738888 
L 279.283739 -144.626116 
L 284.920102 -134.045475 
L 290.556466 -114.079252 
L 296.19283 -113.757658 
L 301.829193 -103.137766 
L 307.465557 -100.900037 
L 313.10192 -83.127066 
L 318.738284 -85.801242 
L 324.374648 -86.463752 
L 330.011011 -84.564407 
L 335.647375 -80.989445 
L 341.283739 -80.677032 
L 346.920102 -70.033116 
L 352.556466 -87.995116 
L 358.19283 -69.378702 
L 363.829193 -51.449761 
L 363.829193 -90.052659 
L 363.829193 -90.052659 
L 358.19283 -86.415606 
L 352.556466 -133.866273 
L 346.920102 -129.077557 
L 341.283739 -135.271631 
L 335.647375 -138.000279 
L 330.011011 -138.796044 
L 324.374648 -146.216526 
L 318.738284 -147.243745 
L 313.10192 -153.930447 
L 307.465557 -153.078606 
L 301.829193 -159.549837 
L 296.19283 -164.694473 
L 290.556466 -152.448121 
L 284.920102 -173.006345 
L 279.283739 -198.78443 
L 273.647375 -189.087972 
L 268.011011 -194.009175 
L 262.374648 -183.05258 
L 256.738284 -161.032984 
L 251.10192 -166.837087 
L 245.465557 -164.697622 
L 239.829193 -194.516998 
L 234.19283 -185.388733 
L 228.556466 -195.95863 
L 222.920102 -221.520839 
L 217.283739 -170.929059 
L 211.647375 -157.393624 
L 206.011011 -171.92792 
L 200.374648 -145.63371 
L 194.738284 -155.617188 
L 189.10192 -170.688251 
L 183.465557 -164.879046 
L 177.829193 -170.794727 
L 172.19283 -170.235266 
L 166.556466 -249.122489 
L 160.920102 -220.438843 
L 155.283739 -210.354563 
L 149.647375 -185.87622 
L 144.011011 -218.844043 
L 138.374648 -227.833273 
L 132.738284 -188.463235 
L 127.10192 -223.810081 
L 121.465557 -145.048808 
L 115.829193 -145.018004 
L 110.19283 -141.839813 
L 104.556466 -131.710612 
L 98.920102 -130.307589 
L 93.283739 -108.843604 
L 87.647375 -115.908696 
L 82.011011 -103.34138 
L 76.374648 -125.462727 
L 70.738284 -133.680857 
L 65.10192 -126.943135 
L 59.465557 -160.731187 
z
" id="mc18ee77ef9" style="stroke:#721f81;stroke-opacity:0.2;stroke-width:0.8;"/>
    </defs>
    <g clip-path="url(#p8d6d414835)">
     <use style="fill:#721f81;fill-opacity:0.2;stroke:#721f81;stroke-opacity:0.2;stroke-width:0.8;" x="0" xlink:href="#mc18ee77ef9" y="266.206125"/>
    </g>
   </g>
   <g id="PolyCollection_2">
    <defs>
     <path d="M 59.465557 -182.060832 
L 59.465557 -157.386891 
L 65.10192 -118.48554 
L 70.738284 -100.793379 
L 76.374648 -118.217996 
L 82.011011 -104.253799 
L 87.647375 -112.769431 
L 93.283739 -101.243756 
L 98.920102 -89.935906 
L 104.556466 -89.531261 
L 110.19283 -85.692778 
L 115.829193 -86.933588 
L 121.465557 -85.258958 
L 127.10192 -200.62267 
L 132.738284 -151.661256 
L 138.374648 -142.571396 
L 144.011011 -134.616592 
L 149.647375 -153.255752 
L 155.283739 -127.52573 
L 160.920102 -147.613546 
L 166.556466 -130.590844 
L 172.19283 -117.23572 
L 177.829193 -121.937937 
L 183.465557 -116.222548 
L 189.10192 -127.261979 
L 194.738284 -129.246423 
L 200.374648 -111.576574 
L 206.011011 -118.738332 
L 211.647375 -115.882265 
L 217.283739 -106.55066 
L 222.920102 -108.860984 
L 228.556466 -112.113054 
L 234.19283 -113.571177 
L 239.829193 -105.983933 
L 245.465557 -112.951638 
L 251.10192 -131.810648 
L 256.738284 -99.347453 
L 262.374648 -115.360535 
L 268.011011 -117.546466 
L 273.647375 -123.377159 
L 279.283739 -120.012187 
L 284.920102 -125.225858 
L 290.556466 -107.278522 
L 296.19283 -112.416935 
L 301.829193 -88.903889 
L 307.465557 -79.346274 
L 313.10192 -71.001498 
L 318.738284 -78.323272 
L 324.374648 -78.73482 
L 330.011011 -68.938597 
L 335.647375 -81.715243 
L 341.283739 -71.940494 
L 346.920102 -71.713563 
L 352.556466 -68.963477 
L 358.19283 -72.393312 
L 358.19283 -91.249323 
L 358.19283 -91.249323 
L 352.556466 -82.632244 
L 346.920102 -82.97749 
L 341.283739 -83.893939 
L 335.647375 -99.579825 
L 330.011011 -80.429289 
L 324.374648 -96.903384 
L 318.738284 -95.932846 
L 313.10192 -82.692924 
L 307.465557 -89.979067 
L 301.829193 -109.570929 
L 296.19283 -152.151907 
L 290.556466 -164.995622 
L 284.920102 -156.933372 
L 279.283739 -150.270144 
L 273.647375 -203.975478 
L 268.011011 -142.641797 
L 262.374648 -140.515948 
L 256.738284 -148.797755 
L 251.10192 -167.903156 
L 245.465557 -141.952237 
L 239.829193 -132.282616 
L 234.19283 -140.313866 
L 228.556466 -148.11904 
L 222.920102 -143.7248 
L 217.283739 -136.336002 
L 211.647375 -147.120129 
L 206.011011 -211.404785 
L 200.374648 -144.783844 
L 194.738284 -158.705587 
L 189.10192 -157.405371 
L 183.465557 -142.558203 
L 177.829193 -153.087849 
L 172.19283 -144.559548 
L 166.556466 -156.341925 
L 160.920102 -213.250845 
L 155.283739 -182.452782 
L 149.647375 -207.749553 
L 144.011011 -162.072281 
L 138.374648 -169.507036 
L 132.738284 -183.566967 
L 127.10192 -246.605265 
L 121.465557 -97.400599 
L 115.829193 -117.731261 
L 110.19283 -105.099927 
L 104.556466 -106.709561 
L 98.920102 -105.22243 
L 93.283739 -142.196244 
L 87.647375 -155.626855 
L 82.011011 -124.478758 
L 76.374648 -150.666775 
L 70.738284 -121.043507 
L 65.10192 -133.137657 
L 59.465557 -182.060832 
z
" id="mdf9f33fbb6" style="stroke:#f1605d;stroke-opacity:0.2;stroke-width:0.8;"/>
    </defs>
    <g clip-path="url(#p8d6d414835)">
     <use style="fill:#f1605d;fill-opacity:0.2;stroke:#f1605d;stroke-opacity:0.2;stroke-width:0.8;" x="0" xlink:href="#mdf9f33fbb6" y="266.206125"/>
    </g>
   </g>
   <g id="matplotlib.axis_1">
    <g id="xtick_1">
     <g id="line2d_1">
      <defs>
       <path d="M 0 0 
L 0 4.8 
" id="m8267f9a3e2" style="stroke:#000000;"/>
      </defs>
      <g>
       <use style="stroke:#000000;" x="59.465557" xlink:href="#m8267f9a3e2" y="224.64"/>
      </g>
     </g>
     <g id="text_1">
      <!-- 0 -->
      <g transform="translate(56.666057 239.626625)scale(0.088 -0.088)">
       <defs>
        <path d="M 2034 4250 
Q 1547 4250 1301 3770 
Q 1056 3291 1056 2328 
Q 1056 1369 1301 889 
Q 1547 409 2034 409 
Q 2525 409 2770 889 
Q 3016 1369 3016 2328 
Q 3016 3291 2770 3770 
Q 2525 4250 2034 4250 
z
M 2034 4750 
Q 2819 4750 3233 4129 
Q 3647 3509 3647 2328 
Q 3647 1150 3233 529 
Q 2819 -91 2034 -91 
Q 1250 -91 836 529 
Q 422 1150 422 2328 
Q 422 3509 836 4129 
Q 1250 4750 2034 4750 
z
" id="DejaVuSans-30" transform="scale(0.015625)"/>
       </defs>
       <use xlink:href="#DejaVuSans-30"/>
      </g>
     </g>
    </g>
    <g id="xtick_2">
     <g id="line2d_2">
      <g>
       <use style="stroke:#000000;" x="115.829193" xlink:href="#m8267f9a3e2" y="224.64"/>
      </g>
     </g>
     <g id="text_2">
      <!-- 10 -->
      <g transform="translate(110.230193 239.626625)scale(0.088 -0.088)">
       <defs>
        <path d="M 794 531 
L 1825 531 
L 1825 4091 
L 703 3866 
L 703 4441 
L 1819 4666 
L 2450 4666 
L 2450 531 
L 3481 531 
L 3481 0 
L 794 0 
L 794 531 
z
" id="DejaVuSans-31" transform="scale(0.015625)"/>
       </defs>
       <use xlink:href="#DejaVuSans-31"/>
       <use x="63.623047" xlink:href="#DejaVuSans-30"/>
      </g>
     </g>
    </g>
    <g id="xtick_3">
     <g id="line2d_3">
      <g>
       <use style="stroke:#000000;" x="172.19283" xlink:href="#m8267f9a3e2" y="224.64"/>
      </g>
     </g>
     <g id="text_3">
      <!-- 20 -->
      <g transform="translate(166.59383 239.626625)scale(0.088 -0.088)">
       <defs>
        <path d="M 1228 531 
L 3431 531 
L 3431 0 
L 469 0 
L 469 531 
Q 828 903 1448 1529 
Q 2069 2156 2228 2338 
Q 2531 2678 2651 2914 
Q 2772 3150 2772 3378 
Q 2772 3750 2511 3984 
Q 2250 4219 1831 4219 
Q 1534 4219 1204 4116 
Q 875 4013 500 3803 
L 500 4441 
Q 881 4594 1212 4672 
Q 1544 4750 1819 4750 
Q 2544 4750 2975 4387 
Q 3406 4025 3406 3419 
Q 3406 3131 3298 2873 
Q 3191 2616 2906 2266 
Q 2828 2175 2409 1742 
Q 1991 1309 1228 531 
z
" id="DejaVuSans-32" transform="scale(0.015625)"/>
       </defs>
       <use xlink:href="#DejaVuSans-32"/>
       <use x="63.623047" xlink:href="#DejaVuSans-30"/>
      </g>
     </g>
    </g>
    <g id="xtick_4">
     <g id="line2d_4">
      <g>
       <use style="stroke:#000000;" x="228.556466" xlink:href="#m8267f9a3e2" y="224.64"/>
      </g>
     </g>
     <g id="text_4">
      <!-- 30 -->
      <g transform="translate(222.957466 239.626625)scale(0.088 -0.088)">
       <defs>
        <path d="M 2597 2516 
Q 3050 2419 3304 2112 
Q 3559 1806 3559 1356 
Q 3559 666 3084 287 
Q 2609 -91 1734 -91 
Q 1441 -91 1130 -33 
Q 819 25 488 141 
L 488 750 
Q 750 597 1062 519 
Q 1375 441 1716 441 
Q 2309 441 2620 675 
Q 2931 909 2931 1356 
Q 2931 1769 2642 2001 
Q 2353 2234 1838 2234 
L 1294 2234 
L 1294 2753 
L 1863 2753 
Q 2328 2753 2575 2939 
Q 2822 3125 2822 3475 
Q 2822 3834 2567 4026 
Q 2313 4219 1838 4219 
Q 1578 4219 1281 4162 
Q 984 4106 628 3988 
L 628 4550 
Q 988 4650 1302 4700 
Q 1616 4750 1894 4750 
Q 2613 4750 3031 4423 
Q 3450 4097 3450 3541 
Q 3450 3153 3228 2886 
Q 3006 2619 2597 2516 
z
" id="DejaVuSans-33" transform="scale(0.015625)"/>
       </defs>
       <use xlink:href="#DejaVuSans-33"/>
       <use x="63.623047" xlink:href="#DejaVuSans-30"/>
      </g>
     </g>
    </g>
    <g id="xtick_5">
     <g id="line2d_5">
      <g>
       <use style="stroke:#000000;" x="284.920102" xlink:href="#m8267f9a3e2" y="224.64"/>
      </g>
     </g>
     <g id="text_5">
      <!-- 40 -->
      <g transform="translate(279.321102 239.626625)scale(0.088 -0.088)">
       <defs>
        <path d="M 2419 4116 
L 825 1625 
L 2419 1625 
L 2419 4116 
z
M 2253 4666 
L 3047 4666 
L 3047 1625 
L 3713 1625 
L 3713 1100 
L 3047 1100 
L 3047 0 
L 2419 0 
L 2419 1100 
L 313 1100 
L 313 1709 
L 2253 4666 
z
" id="DejaVuSans-34" transform="scale(0.015625)"/>
       </defs>
       <use xlink:href="#DejaVuSans-34"/>
       <use x="63.623047" xlink:href="#DejaVuSans-30"/>
      </g>
     </g>
    </g>
    <g id="xtick_6">
     <g id="line2d_6">
      <g>
       <use style="stroke:#000000;" x="341.283739" xlink:href="#m8267f9a3e2" y="224.64"/>
      </g>
     </g>
     <g id="text_6">
      <!-- 50 -->
      <g transform="translate(335.684739 239.626625)scale(0.088 -0.088)">
       <defs>
        <path d="M 691 4666 
L 3169 4666 
L 3169 4134 
L 1269 4134 
L 1269 2991 
Q 1406 3038 1543 3061 
Q 1681 3084 1819 3084 
Q 2600 3084 3056 2656 
Q 3513 2228 3513 1497 
Q 3513 744 3044 326 
Q 2575 -91 1722 -91 
Q 1428 -91 1123 -41 
Q 819 9 494 109 
L 494 744 
Q 775 591 1075 516 
Q 1375 441 1709 441 
Q 2250 441 2565 725 
Q 2881 1009 2881 1497 
Q 2881 1984 2565 2268 
Q 2250 2553 1709 2553 
Q 1456 2553 1204 2497 
Q 953 2441 691 2322 
L 691 4666 
z
" id="DejaVuSans-35" transform="scale(0.015625)"/>
       </defs>
       <use xlink:href="#DejaVuSans-35"/>
       <use x="63.623047" xlink:href="#DejaVuSans-30"/>
      </g>
     </g>
    </g>
    <g id="text_7">
     <!-- Trial -->
     <g transform="translate(197.347687 256.094563)scale(0.14 -0.14)">
      <defs>
       <path d="M -19 4666 
L 3928 4666 
L 3928 4134 
L 2272 4134 
L 2272 0 
L 1638 0 
L 1638 4134 
L -19 4134 
L -19 4666 
z
" id="DejaVuSans-54" transform="scale(0.015625)"/>
       <path d="M 2631 2963 
Q 2534 3019 2420 3045 
Q 2306 3072 2169 3072 
Q 1681 3072 1420 2755 
Q 1159 2438 1159 1844 
L 1159 0 
L 581 0 
L 581 3500 
L 1159 3500 
L 1159 2956 
Q 1341 3275 1631 3429 
Q 1922 3584 2338 3584 
Q 2397 3584 2469 3576 
Q 2541 3569 2628 3553 
L 2631 2963 
z
" id="DejaVuSans-72" transform="scale(0.015625)"/>
       <path d="M 603 3500 
L 1178 3500 
L 1178 0 
L 603 0 
L 603 3500 
z
M 603 4863 
L 1178 4863 
L 1178 4134 
L 603 4134 
L 603 4863 
z
" id="DejaVuSans-69" transform="scale(0.015625)"/>
       <path d="M 2194 1759 
Q 1497 1759 1228 1600 
Q 959 1441 959 1056 
Q 959 750 1161 570 
Q 1363 391 1709 391 
Q 2188 391 2477 730 
Q 2766 1069 2766 1631 
L 2766 1759 
L 2194 1759 
z
M 3341 1997 
L 3341 0 
L 2766 0 
L 2766 531 
Q 2569 213 2275 61 
Q 1981 -91 1556 -91 
Q 1019 -91 701 211 
Q 384 513 384 1019 
Q 384 1609 779 1909 
Q 1175 2209 1959 2209 
L 2766 2209 
L 2766 2266 
Q 2766 2663 2505 2880 
Q 2244 3097 1772 3097 
Q 1472 3097 1187 3025 
Q 903 2953 641 2809 
L 641 3341 
Q 956 3463 1253 3523 
Q 1550 3584 1831 3584 
Q 2591 3584 2966 3190 
Q 3341 2797 3341 1997 
z
" id="DejaVuSans-61" transform="scale(0.015625)"/>
       <path d="M 603 4863 
L 1178 4863 
L 1178 0 
L 603 0 
L 603 4863 
z
" id="DejaVuSans-6c" transform="scale(0.015625)"/>
      </defs>
      <use xlink:href="#DejaVuSans-54"/>
      <use x="46.333984" xlink:href="#DejaVuSans-72"/>
      <use x="87.447266" xlink:href="#DejaVuSans-69"/>
      <use x="115.230469" xlink:href="#DejaVuSans-61"/>
      <use x="176.509766" xlink:href="#DejaVuSans-6c"/>
     </g>
    </g>
   </g>
   <g id="matplotlib.axis_2">
    <g id="ytick_1">
     <g id="line2d_7">
      <defs>
       <path d="M 0 0 
L -4.8 0 
" id="meae5aafc9f" style="stroke:#000000;"/>
      </defs>
      <g>
       <use style="stroke:#000000;" x="44.247375" xlink:href="#meae5aafc9f" y="212.030342"/>
      </g>
     </g>
     <g id="text_8">
      <!-- 10 -->
      <g transform="translate(24.749375 215.373654)scale(0.088 -0.088)">
       <use xlink:href="#DejaVuSans-31"/>
       <use x="63.623047" xlink:href="#DejaVuSans-30"/>
      </g>
     </g>
    </g>
    <g id="ytick_2">
     <g id="line2d_8">
      <g>
       <use style="stroke:#000000;" x="44.247375" xlink:href="#meae5aafc9f" y="180.854176"/>
      </g>
     </g>
     <g id="text_9">
      <!-- 15 -->
      <g transform="translate(24.749375 184.197488)scale(0.088 -0.088)">
       <use xlink:href="#DejaVuSans-31"/>
       <use x="63.623047" xlink:href="#DejaVuSans-35"/>
      </g>
     </g>
    </g>
    <g id="ytick_3">
     <g id="line2d_9">
      <g>
       <use style="stroke:#000000;" x="44.247375" xlink:href="#meae5aafc9f" y="149.678009"/>
      </g>
     </g>
     <g id="text_10">
      <!-- 20 -->
      <g transform="translate(24.749375 153.021322)scale(0.088 -0.088)">
       <use xlink:href="#DejaVuSans-32"/>
       <use x="63.623047" xlink:href="#DejaVuSans-30"/>
      </g>
     </g>
    </g>
    <g id="ytick_4">
     <g id="line2d_10">
      <g>
       <use style="stroke:#000000;" x="44.247375" xlink:href="#meae5aafc9f" y="118.501843"/>
      </g>
     </g>
     <g id="text_11">
      <!-- 25 -->
      <g transform="translate(24.749375 121.845156)scale(0.088 -0.088)">
       <use xlink:href="#DejaVuSans-32"/>
       <use x="63.623047" xlink:href="#DejaVuSans-35"/>
      </g>
     </g>
    </g>
    <g id="ytick_5">
     <g id="line2d_11">
      <g>
       <use style="stroke:#000000;" x="44.247375" xlink:href="#meae5aafc9f" y="87.325677"/>
      </g>
     </g>
     <g id="text_12">
      <!-- 30 -->
      <g transform="translate(24.749375 90.668989)scale(0.088 -0.088)">
       <use xlink:href="#DejaVuSans-33"/>
       <use x="63.623047" xlink:href="#DejaVuSans-30"/>
      </g>
     </g>
    </g>
    <g id="ytick_6">
     <g id="line2d_12">
      <g>
       <use style="stroke:#000000;" x="44.247375" xlink:href="#meae5aafc9f" y="56.149511"/>
      </g>
     </g>
     <g id="text_13">
      <!-- 35 -->
      <g transform="translate(24.749375 59.492823)scale(0.088 -0.088)">
       <use xlink:href="#DejaVuSans-33"/>
       <use x="63.623047" xlink:href="#DejaVuSans-35"/>
      </g>
     </g>
    </g>
    <g id="ytick_7">
     <g id="line2d_13">
      <g>
       <use style="stroke:#000000;" x="44.247375" xlink:href="#meae5aafc9f" y="24.973344"/>
      </g>
     </g>
     <g id="text_14">
      <!-- 40 -->
      <g transform="translate(24.749375 28.316657)scale(0.088 -0.088)">
       <use xlink:href="#DejaVuSans-34"/>
       <use x="63.623047" xlink:href="#DejaVuSans-30"/>
      </g>
     </g>
    </g>
    <g id="text_15">
     <!-- MAE (Degrees) -->
     <g transform="translate(17.837813 167.980313)rotate(-90)scale(0.14 -0.14)">
      <defs>
       <path d="M 628 4666 
L 1569 4666 
L 2759 1491 
L 3956 4666 
L 4897 4666 
L 4897 0 
L 4281 0 
L 4281 4097 
L 3078 897 
L 2444 897 
L 1241 4097 
L 1241 0 
L 628 0 
L 628 4666 
z
" id="DejaVuSans-4d" transform="scale(0.015625)"/>
       <path d="M 2188 4044 
L 1331 1722 
L 3047 1722 
L 2188 4044 
z
M 1831 4666 
L 2547 4666 
L 4325 0 
L 3669 0 
L 3244 1197 
L 1141 1197 
L 716 0 
L 50 0 
L 1831 4666 
z
" id="DejaVuSans-41" transform="scale(0.015625)"/>
       <path d="M 628 4666 
L 3578 4666 
L 3578 4134 
L 1259 4134 
L 1259 2753 
L 3481 2753 
L 3481 2222 
L 1259 2222 
L 1259 531 
L 3634 531 
L 3634 0 
L 628 0 
L 628 4666 
z
" id="DejaVuSans-45" transform="scale(0.015625)"/>
       <path id="DejaVuSans-20" transform="scale(0.015625)"/>
       <path d="M 1984 4856 
Q 1566 4138 1362 3434 
Q 1159 2731 1159 2009 
Q 1159 1288 1364 580 
Q 1569 -128 1984 -844 
L 1484 -844 
Q 1016 -109 783 600 
Q 550 1309 550 2009 
Q 550 2706 781 3412 
Q 1013 4119 1484 4856 
L 1984 4856 
z
" id="DejaVuSans-28" transform="scale(0.015625)"/>
       <path d="M 1259 4147 
L 1259 519 
L 2022 519 
Q 2988 519 3436 956 
Q 3884 1394 3884 2338 
Q 3884 3275 3436 3711 
Q 2988 4147 2022 4147 
L 1259 4147 
z
M 628 4666 
L 1925 4666 
Q 3281 4666 3915 4102 
Q 4550 3538 4550 2338 
Q 4550 1131 3912 565 
Q 3275 0 1925 0 
L 628 0 
L 628 4666 
z
" id="DejaVuSans-44" transform="scale(0.015625)"/>
       <path d="M 3597 1894 
L 3597 1613 
L 953 1613 
Q 991 1019 1311 708 
Q 1631 397 2203 397 
Q 2534 397 2845 478 
Q 3156 559 3463 722 
L 3463 178 
Q 3153 47 2828 -22 
Q 2503 -91 2169 -91 
Q 1331 -91 842 396 
Q 353 884 353 1716 
Q 353 2575 817 3079 
Q 1281 3584 2069 3584 
Q 2775 3584 3186 3129 
Q 3597 2675 3597 1894 
z
M 3022 2063 
Q 3016 2534 2758 2815 
Q 2500 3097 2075 3097 
Q 1594 3097 1305 2825 
Q 1016 2553 972 2059 
L 3022 2063 
z
" id="DejaVuSans-65" transform="scale(0.015625)"/>
       <path d="M 2906 1791 
Q 2906 2416 2648 2759 
Q 2391 3103 1925 3103 
Q 1463 3103 1205 2759 
Q 947 2416 947 1791 
Q 947 1169 1205 825 
Q 1463 481 1925 481 
Q 2391 481 2648 825 
Q 2906 1169 2906 1791 
z
M 3481 434 
Q 3481 -459 3084 -895 
Q 2688 -1331 1869 -1331 
Q 1566 -1331 1297 -1286 
Q 1028 -1241 775 -1147 
L 775 -588 
Q 1028 -725 1275 -790 
Q 1522 -856 1778 -856 
Q 2344 -856 2625 -561 
Q 2906 -266 2906 331 
L 2906 616 
Q 2728 306 2450 153 
Q 2172 0 1784 0 
Q 1141 0 747 490 
Q 353 981 353 1791 
Q 353 2603 747 3093 
Q 1141 3584 1784 3584 
Q 2172 3584 2450 3431 
Q 2728 3278 2906 2969 
L 2906 3500 
L 3481 3500 
L 3481 434 
z
" id="DejaVuSans-67" transform="scale(0.015625)"/>
       <path d="M 2834 3397 
L 2834 2853 
Q 2591 2978 2328 3040 
Q 2066 3103 1784 3103 
Q 1356 3103 1142 2972 
Q 928 2841 928 2578 
Q 928 2378 1081 2264 
Q 1234 2150 1697 2047 
L 1894 2003 
Q 2506 1872 2764 1633 
Q 3022 1394 3022 966 
Q 3022 478 2636 193 
Q 2250 -91 1575 -91 
Q 1294 -91 989 -36 
Q 684 19 347 128 
L 347 722 
Q 666 556 975 473 
Q 1284 391 1588 391 
Q 1994 391 2212 530 
Q 2431 669 2431 922 
Q 2431 1156 2273 1281 
Q 2116 1406 1581 1522 
L 1381 1569 
Q 847 1681 609 1914 
Q 372 2147 372 2553 
Q 372 3047 722 3315 
Q 1072 3584 1716 3584 
Q 2034 3584 2315 3537 
Q 2597 3491 2834 3397 
z
" id="DejaVuSans-73" transform="scale(0.015625)"/>
       <path d="M 513 4856 
L 1013 4856 
Q 1481 4119 1714 3412 
Q 1947 2706 1947 2009 
Q 1947 1309 1714 600 
Q 1481 -109 1013 -844 
L 513 -844 
Q 928 -128 1133 580 
Q 1338 1288 1338 2009 
Q 1338 2731 1133 3434 
Q 928 4138 513 4856 
z
" id="DejaVuSans-29" transform="scale(0.015625)"/>
      </defs>
      <use xlink:href="#DejaVuSans-4d"/>
      <use x="86.279297" xlink:href="#DejaVuSans-41"/>
      <use x="154.6875" xlink:href="#DejaVuSans-45"/>
      <use x="217.871094" xlink:href="#DejaVuSans-20"/>
      <use x="249.658203" xlink:href="#DejaVuSans-28"/>
      <use x="288.671875" xlink:href="#DejaVuSans-44"/>
      <use x="365.673828" xlink:href="#DejaVuSans-65"/>
      <use x="427.197266" xlink:href="#DejaVuSans-67"/>
      <use x="490.673828" xlink:href="#DejaVuSans-72"/>
      <use x="529.537109" xlink:href="#DejaVuSans-65"/>
      <use x="591.060547" xlink:href="#DejaVuSans-65"/>
      <use x="652.583984" xlink:href="#DejaVuSans-73"/>
      <use x="704.683594" xlink:href="#DejaVuSans-29"/>
     </g>
    </g>
   </g>
   <g id="line2d_14">
    <path clip-path="url(#p8d6d414835)" d="M 59.465557 116.604995 
L 65.10192 147.576456 
L 70.738284 139.991627 
L 76.374648 152.721728 
L 82.011011 167.415981 
L 87.647375 158.694837 
L 93.283739 163.643974 
L 98.920102 150.011813 
L 104.556466 149.51125 
L 110.19283 142.090553 
L 115.829193 140.729599 
L 121.465557 141.34605 
L 127.10192 56.801298 
L 132.738284 94.038596 
L 138.374648 60.216363 
L 144.011011 73.112569 
L 149.647375 96.643586 
L 155.283739 77.955846 
L 160.920102 74.366992 
L 166.556466 56.99828 
L 172.19283 110.706964 
L 177.829193 110.040573 
L 183.465557 121.141915 
L 189.10192 112.629728 
L 194.738284 125.616284 
L 200.374648 135.298419 
L 206.011011 113.255438 
L 211.647375 125.832199 
L 217.283739 118.373973 
L 222.920102 72.047028 
L 228.556466 90.443431 
L 234.19283 102.665566 
L 239.829193 93.552637 
L 245.465557 116.30332 
L 251.10192 119.304791 
L 256.738284 120.716498 
L 262.374648 110.890593 
L 268.011011 101.059744 
L 273.647375 99.063557 
L 279.283739 94.59313 
L 284.920102 112.396735 
L 290.556466 132.337211 
L 296.19283 127.530589 
L 301.829193 133.877432 
L 307.465557 138.868935 
L 313.10192 147.645056 
L 318.738284 148.213449 
L 324.374648 150.056536 
L 330.011011 154.753736 
L 335.647375 156.368314 
L 341.283739 158.809292 
L 346.920102 166.923929 
L 352.556466 155.0506 
L 358.19283 188.308971 
L 363.829193 195.454915 
" style="fill:none;stroke:#721f81;stroke-linecap:square;stroke-width:2;"/>
   </g>
   <g id="line2d_15">
    <path clip-path="url(#p8d6d414835)" d="M 59.465557 96.745117 
L 65.10192 140.265437 
L 70.738284 154.869818 
L 76.374648 131.433751 
L 82.011011 151.49166 
L 87.647375 132.393923 
L 93.283739 144.328412 
L 98.920102 168.786089 
L 104.556466 167.623222 
L 110.19283 170.518941 
L 115.829193 163.613996 
L 121.465557 174.782411 
L 127.10192 42.489158 
L 132.738284 98.368764 
L 138.374648 109.766633 
L 144.011011 117.721039 
L 149.647375 85.647195 
L 155.283739 110.558975 
L 160.920102 84.137102 
L 166.556466 123.148035 
L 172.19283 135.000419 
L 177.829193 128.837973 
L 183.465557 136.601478 
L 189.10192 123.171647 
L 194.738284 122.570761 
L 200.374648 137.44458 
L 206.011011 101.53213 
L 211.647375 134.168952 
L 217.283739 144.805292 
L 222.920102 139.520171 
L 228.556466 136.638614 
L 234.19283 138.306408 
L 239.829193 146.545241 
L 245.465557 137.99822 
L 251.10192 116.995341 
L 256.738284 141.348422 
L 262.374648 138.211498 
L 268.011011 136.073945 
L 273.647375 100.487531 
L 279.283739 130.506639 
L 284.920102 126.780481 
L 290.556466 130.610427 
L 296.19283 132.883218 
L 301.829193 166.792961 
L 307.465557 181.457536 
L 313.10192 189.213416 
L 318.738284 178.911097 
L 324.374648 179.275746 
L 330.011011 191.464873 
L 335.647375 176.206982 
L 341.283739 188.201193 
L 346.920102 188.481422 
L 352.556466 190.509301 
L 358.19283 184.542831 
" style="fill:none;stroke:#f1605d;stroke-linecap:square;stroke-width:2;"/>
   </g>
   <g id="line2d_16"/>
   <g id="line2d_17"/>
   <g id="patch_3">
    <path d="M 44.247375 224.64 
L 44.247375 7.2 
" style="fill:none;stroke:#000000;stroke-linecap:square;stroke-linejoin:miter;"/>
   </g>
   <g id="patch_4">
    <path d="M 379.047375 224.64 
L 379.047375 7.2 
" style="fill:none;stroke:#000000;stroke-linecap:square;stroke-linejoin:miter;"/>
   </g>
   <g id="patch_5">
    <path d="M 44.247375 224.64 
L 379.047375 224.64 
" style="fill:none;stroke:#000000;stroke-linecap:square;stroke-linejoin:miter;"/>
   </g>
   <g id="patch_6">
    <path d="M 44.247375 7.2 
L 379.047375 7.2 
" style="fill:none;stroke:#000000;stroke-linecap:square;stroke-linejoin:miter;"/>
   </g>
   <g id="legend_1">
    <g id="patch_7">
     <path d="M 369.367375 18.64 
L 372.887375 18.64 
Q 374.647375 18.64 374.647375 16.88 
L 374.647375 13.36 
Q 374.647375 11.6 372.887375 11.6 
L 369.367375 11.6 
Q 367.607375 11.6 367.607375 13.36 
L 367.607375 16.88 
Q 367.607375 18.64 369.367375 18.64 
z
" style="fill:#ffffff;opacity:0.8;stroke:#cccccc;stroke-linejoin:miter;stroke-width:0.8;"/>
    </g>
   </g>
  </g>
 </g>
 <defs>
  <clipPath id="p8d6d414835">
   <rect height="217.44" width="334.8" x="44.247375" y="7.2"/>
  </clipPath>
 </defs>
</svg>
