<?xml version="1.0" encoding="utf-8" standalone="no"?>
<!DOCTYPE svg PUBLIC "-//W3C//DTD SVG 1.1//EN"
  "http://www.w3.org/Graphics/SVG/1.1/DTD/svg11.dtd">
<svg height="266.206125pt" version="1.1" viewBox="0 0 386.247375 266.206125" width="386.247375pt" xmlns="http://www.w3.org/2000/svg" xmlns:xlink="http://www.w3.org/1999/xlink">
 <metadata>
  <rdf:RDF xmlns:cc="http://creativecommons.org/ns#" xmlns:dc="http://purl.org/dc/elements/1.1/" xmlns:rdf="http://www.w3.org/1999/02/22-rdf-syntax-ns#">
   <cc:Work>
    <dc:type rdf:resource="http://purl.org/dc/dcmitype/StillImage"/>
    <dc:date>2022-06-30T13:05:58.202825</dc:date>
    <dc:format>image/svg+xml</dc:format>
    <dc:creator>
     <cc:Agent>
      <dc:title>Matplotlib v3.4.3, https://matplotlib.org/</dc:title>
     </cc:Agent>
    </dc:creator>
   </cc:Work>
  </rdf:RDF>
 </metadata>
 <defs>
  <style type="text/css">*{stroke-linecap:butt;stroke-linejoin:round;}</style>
 </defs>
 <g id="figure_1">
  <g id="patch_1">
   <path d="M 0 266.206125 
L 386.247375 266.206125 
L 386.247375 0 
L 0 0 
z
" style="fill:none;"/>
  </g>
  <g id="axes_1">
   <g id="patch_2">
    <path d="M 44.247375 224.64 
L 379.047375 224.64 
L 379.047375 7.2 
L 44.247375 7.2 
z
" style="fill:#ffffff;"/>
   </g>
   <g id="PolyCollection_1">
    <defs>
     <path d="M 59.465557 -161.740577 
L 59.465557 -141.178337 
L 65.10192 -110.327531 
L 70.738284 -119.477609 
L 76.374648 -103.504348 
L 82.011011 -94.580051 
L 87.647375 -99.013972 
L 93.283739 -96.998177 
L 98.920102 -103.077556 
L 104.556466 -101.621085 
L 110.19283 -106.393745 
L 115.829193 -106.507376 
L 121.465557 -106.929168 
L 127.10192 -194.765761 
L 132.738284 -156.037187 
L 138.374648 -185.426338 
L 144.011011 -168.175771 
L 149.647375 -155.717979 
L 155.283739 -166.272476 
L 160.920102 -166.358006 
L 166.556466 -172.399162 
L 172.19283 -142.731369 
L 177.829193 -142.63642 
L 183.465557 -124.294823 
L 189.10192 -137.194272 
L 194.738284 -124.42482 
L 200.374648 -117.467993 
L 206.011011 -134.493706 
L 211.647375 -122.834407 
L 217.283739 -125.213329 
L 222.920102 -169.585862 
L 228.556466 -155.566433 
L 234.19283 -141.086452 
L 239.829193 -147.611954 
L 245.465557 -134.673466 
L 251.10192 -126.92794 
L 256.738284 -131.486652 
L 262.374648 -126.961766 
L 268.011011 -136.915042 
L 273.647375 -141.975874 
L 279.283739 -145.27386 
L 284.920102 -136.601456 
L 290.556466 -115.530146 
L 296.19283 -113.933296 
L 301.829193 -104.46537 
L 307.465557 -100.045367 
L 313.10192 -84.035079 
L 318.738284 -86.458754 
L 324.374648 -86.70254 
L 330.011011 -84.981201 
L 335.647375 -81.642277 
L 341.283739 -80.240586 
L 346.920102 -70.725367 
L 352.556466 -87.803627 
L 358.19283 -68.352522 
L 363.829193 -51.449761 
L 363.829193 -90.441323 
L 363.829193 -90.441323 
L 358.19283 -86.767651 
L 352.556466 -134.212131 
L 346.920102 -129.21333 
L 341.283739 -134.918779 
L 335.647375 -139.051036 
L 330.011011 -139.692158 
L 324.374648 -145.528496 
L 318.738284 -150.607139 
L 313.10192 -155.644344 
L 307.465557 -151.76621 
L 301.829193 -162.062999 
L 296.19283 -166.119912 
L 290.556466 -154.602699 
L 284.920102 -172.285362 
L 279.283739 -201.903865 
L 273.647375 -192.609568 
L 268.011011 -193.576805 
L 262.374648 -185.370798 
L 256.738284 -161.129504 
L 251.10192 -167.958948 
L 245.465557 -167.615354 
L 239.829193 -198.722149 
L 234.19283 -188.163868 
L 228.556466 -197.872529 
L 222.920102 -222.383247 
L 217.283739 -173.427043 
L 211.647375 -157.911501 
L 206.011011 -172.562019 
L 200.374648 -146.924305 
L 194.738284 -155.689248 
L 189.10192 -170.978733 
L 183.465557 -166.430592 
L 177.829193 -171.980355 
L 172.19283 -171.448097 
L 166.556466 -249.122489 
L 160.920102 -218.763991 
L 155.283739 -209.613449 
L 149.647375 -186.118252 
L 144.011011 -220.462094 
L 138.374648 -227.439076 
L 132.738284 -189.758861 
L 127.10192 -226.465029 
L 121.465557 -146.387651 
L 115.829193 -145.846622 
L 110.19283 -144.034009 
L 104.556466 -134.545185 
L 98.920102 -130.252329 
L 93.283739 -108.751684 
L 87.647375 -116.792438 
L 82.011011 -103.552515 
L 76.374648 -126.717216 
L 70.738284 -134.11367 
L 65.10192 -127.596806 
L 59.465557 -161.740577 
z
" id="m0fe81c044c" style="stroke:#721f81;stroke-opacity:0.2;stroke-width:0.8;"/>
    </defs>
    <g clip-path="url(#pa73baf0d58)">
     <use style="fill:#721f81;fill-opacity:0.2;stroke:#721f81;stroke-opacity:0.2;stroke-width:0.8;" x="0" xlink:href="#m0fe81c044c" y="266.206125"/>
    </g>
   </g>
   <g id="PolyCollection_2">
    <defs>
     <path d="M 59.465557 -185.318115 
L 59.465557 -157.733754 
L 65.10192 -118.56539 
L 70.738284 -101.897172 
L 76.374648 -119.739241 
L 82.011011 -104.262633 
L 87.647375 -113.873621 
L 93.283739 -103.050918 
L 98.920102 -90.112226 
L 104.556466 -90.773611 
L 110.19283 -86.361751 
L 115.829193 -87.500689 
L 121.465557 -86.041226 
L 127.10192 -202.770154 
L 132.738284 -151.936966 
L 138.374648 -143.938019 
L 144.011011 -136.509658 
L 149.647375 -153.768699 
L 155.283739 -128.808879 
L 160.920102 -151.407446 
L 166.556466 -131.59851 
L 172.19283 -118.036345 
L 177.829193 -121.929951 
L 183.465557 -116.652133 
L 189.10192 -128.477618 
L 194.738284 -129.219164 
L 200.374648 -112.44529 
L 206.011011 -120.178316 
L 211.647375 -116.807566 
L 217.283739 -107.894333 
L 222.920102 -108.905671 
L 228.556466 -111.228558 
L 234.19283 -113.926859 
L 239.829193 -106.4833 
L 245.465557 -115.248741 
L 251.10192 -133.166582 
L 256.738284 -99.374187 
L 262.374648 -114.805386 
L 268.011011 -117.868608 
L 273.647375 -123.001541 
L 279.283739 -120.809377 
L 284.920102 -124.686221 
L 290.556466 -108.140919 
L 296.19283 -114.243302 
L 301.829193 -89.471067 
L 307.465557 -79.509439 
L 313.10192 -70.683639 
L 318.738284 -78.857318 
L 324.374648 -78.682582 
L 330.011011 -69.183312 
L 335.647375 -80.944329 
L 341.283739 -72.065558 
L 346.920102 -72.446001 
L 352.556466 -69.712431 
L 358.19283 -72.284948 
L 358.19283 -91.650035 
L 358.19283 -91.650035 
L 352.556466 -82.784151 
L 346.920102 -83.783081 
L 341.283739 -84.367329 
L 335.647375 -99.398554 
L 330.011011 -80.983917 
L 324.374648 -95.991675 
L 318.738284 -96.90292 
L 313.10192 -83.666862 
L 307.465557 -90.51332 
L 301.829193 -110.229595 
L 296.19283 -153.331339 
L 290.556466 -166.087135 
L 284.920102 -156.958065 
L 279.283739 -150.818053 
L 273.647375 -206.69373 
L 268.011011 -143.217531 
L 262.374648 -141.948873 
L 256.738284 -152.012734 
L 251.10192 -168.526949 
L 245.465557 -143.618951 
L 239.829193 -134.191473 
L 234.19283 -142.988022 
L 228.556466 -148.028593 
L 222.920102 -145.491079 
L 217.283739 -137.08986 
L 211.647375 -147.493797 
L 206.011011 -212.537356 
L 200.374648 -145.731151 
L 194.738284 -159.266919 
L 189.10192 -159.261568 
L 183.465557 -142.436554 
L 177.829193 -153.796545 
L 172.19283 -146.766621 
L 166.556466 -157.32367 
L 160.920102 -217.122946 
L 155.283739 -186.372932 
L 149.647375 -209.953875 
L 144.011011 -162.820525 
L 138.374648 -171.194015 
L 132.738284 -184.681627 
L 127.10192 -246.000411 
L 121.465557 -97.90552 
L 115.829193 -118.155266 
L 110.19283 -105.543352 
L 104.556466 -107.773617 
L 98.920102 -105.901284 
L 93.283739 -142.581761 
L 87.647375 -156.041805 
L 82.011011 -125.718516 
L 76.374648 -149.330994 
L 70.738284 -121.697423 
L 65.10192 -134.323056 
L 59.465557 -185.318115 
z
" id="m35a74b7518" style="stroke:#f1605d;stroke-opacity:0.2;stroke-width:0.8;"/>
    </defs>
    <g clip-path="url(#pa73baf0d58)">
     <use style="fill:#f1605d;fill-opacity:0.2;stroke:#f1605d;stroke-opacity:0.2;stroke-width:0.8;" x="0" xlink:href="#m35a74b7518" y="266.206125"/>
    </g>
   </g>
   <g id="matplotlib.axis_1">
    <g id="xtick_1">
     <g id="line2d_1">
      <defs>
       <path d="M 0 0 
L 0 4.8 
" id="me912bcc995" style="stroke:#000000;"/>
      </defs>
      <g>
       <use style="stroke:#000000;" x="59.465557" xlink:href="#me912bcc995" y="224.64"/>
      </g>
     </g>
     <g id="text_1">
      <!-- 0 -->
      <g transform="translate(56.666057 239.626625)scale(0.088 -0.088)">
       <defs>
        <path d="M 2034 4250 
Q 1547 4250 1301 3770 
Q 1056 3291 1056 2328 
Q 1056 1369 1301 889 
Q 1547 409 2034 409 
Q 2525 409 2770 889 
Q 3016 1369 3016 2328 
Q 3016 3291 2770 3770 
Q 2525 4250 2034 4250 
z
M 2034 4750 
Q 2819 4750 3233 4129 
Q 3647 3509 3647 2328 
Q 3647 1150 3233 529 
Q 2819 -91 2034 -91 
Q 1250 -91 836 529 
Q 422 1150 422 2328 
Q 422 3509 836 4129 
Q 1250 4750 2034 4750 
z
" id="DejaVuSans-30" transform="scale(0.015625)"/>
       </defs>
       <use xlink:href="#DejaVuSans-30"/>
      </g>
     </g>
    </g>
    <g id="xtick_2">
     <g id="line2d_2">
      <g>
       <use style="stroke:#000000;" x="115.829193" xlink:href="#me912bcc995" y="224.64"/>
      </g>
     </g>
     <g id="text_2">
      <!-- 10 -->
      <g transform="translate(110.230193 239.626625)scale(0.088 -0.088)">
       <defs>
        <path d="M 794 531 
L 1825 531 
L 1825 4091 
L 703 3866 
L 703 4441 
L 1819 4666 
L 2450 4666 
L 2450 531 
L 3481 531 
L 3481 0 
L 794 0 
L 794 531 
z
" id="DejaVuSans-31" transform="scale(0.015625)"/>
       </defs>
       <use xlink:href="#DejaVuSans-31"/>
       <use x="63.623047" xlink:href="#DejaVuSans-30"/>
      </g>
     </g>
    </g>
    <g id="xtick_3">
     <g id="line2d_3">
      <g>
       <use style="stroke:#000000;" x="172.19283" xlink:href="#me912bcc995" y="224.64"/>
      </g>
     </g>
     <g id="text_3">
      <!-- 20 -->
      <g transform="translate(166.59383 239.626625)scale(0.088 -0.088)">
       <defs>
        <path d="M 1228 531 
L 3431 531 
L 3431 0 
L 469 0 
L 469 531 
Q 828 903 1448 1529 
Q 2069 2156 2228 2338 
Q 2531 2678 2651 2914 
Q 2772 3150 2772 3378 
Q 2772 3750 2511 3984 
Q 2250 4219 1831 4219 
Q 1534 4219 1204 4116 
Q 875 4013 500 3803 
L 500 4441 
Q 881 4594 1212 4672 
Q 1544 4750 1819 4750 
Q 2544 4750 2975 4387 
Q 3406 4025 3406 3419 
Q 3406 3131 3298 2873 
Q 3191 2616 2906 2266 
Q 2828 2175 2409 1742 
Q 1991 1309 1228 531 
z
" id="DejaVuSans-32" transform="scale(0.015625)"/>
       </defs>
       <use xlink:href="#DejaVuSans-32"/>
       <use x="63.623047" xlink:href="#DejaVuSans-30"/>
      </g>
     </g>
    </g>
    <g id="xtick_4">
     <g id="line2d_4">
      <g>
       <use style="stroke:#000000;" x="228.556466" xlink:href="#me912bcc995" y="224.64"/>
      </g>
     </g>
     <g id="text_4">
      <!-- 30 -->
      <g transform="translate(222.957466 239.626625)scale(0.088 -0.088)">
       <defs>
        <path d="M 2597 2516 
Q 3050 2419 3304 2112 
Q 3559 1806 3559 1356 
Q 3559 666 3084 287 
Q 2609 -91 1734 -91 
Q 1441 -91 1130 -33 
Q 819 25 488 141 
L 488 750 
Q 750 597 1062 519 
Q 1375 441 1716 441 
Q 2309 441 2620 675 
Q 2931 909 2931 1356 
Q 2931 1769 2642 2001 
Q 2353 2234 1838 2234 
L 1294 2234 
L 1294 2753 
L 1863 2753 
Q 2328 2753 2575 2939 
Q 2822 3125 2822 3475 
Q 2822 3834 2567 4026 
Q 2313 4219 1838 4219 
Q 1578 4219 1281 4162 
Q 984 4106 628 3988 
L 628 4550 
Q 988 4650 1302 4700 
Q 1616 4750 1894 4750 
Q 2613 4750 3031 4423 
Q 3450 4097 3450 3541 
Q 3450 3153 3228 2886 
Q 3006 2619 2597 2516 
z
" id="DejaVuSans-33" transform="scale(0.015625)"/>
       </defs>
       <use xlink:href="#DejaVuSans-33"/>
       <use x="63.623047" xlink:href="#DejaVuSans-30"/>
      </g>
     </g>
    </g>
    <g id="xtick_5">
     <g id="line2d_5">
      <g>
       <use style="stroke:#000000;" x="284.920102" xlink:href="#me912bcc995" y="224.64"/>
      </g>
     </g>
     <g id="text_5">
      <!-- 40 -->
      <g transform="translate(279.321102 239.626625)scale(0.088 -0.088)">
       <defs>
        <path d="M 2419 4116 
L 825 1625 
L 2419 1625 
L 2419 4116 
z
M 2253 4666 
L 3047 4666 
L 3047 1625 
L 3713 1625 
L 3713 1100 
L 3047 1100 
L 3047 0 
L 2419 0 
L 2419 1100 
L 313 1100 
L 313 1709 
L 2253 4666 
z
" id="DejaVuSans-34" transform="scale(0.015625)"/>
       </defs>
       <use xlink:href="#DejaVuSans-34"/>
       <use x="63.623047" xlink:href="#DejaVuSans-30"/>
      </g>
     </g>
    </g>
    <g id="xtick_6">
     <g id="line2d_6">
      <g>
       <use style="stroke:#000000;" x="341.283739" xlink:href="#me912bcc995" y="224.64"/>
      </g>
     </g>
     <g id="text_6">
      <!-- 50 -->
      <g transform="translate(335.684739 239.626625)scale(0.088 -0.088)">
       <defs>
        <path d="M 691 4666 
L 3169 4666 
L 3169 4134 
L 1269 4134 
L 1269 2991 
Q 1406 3038 1543 3061 
Q 1681 3084 1819 3084 
Q 2600 3084 3056 2656 
Q 3513 2228 3513 1497 
Q 3513 744 3044 326 
Q 2575 -91 1722 -91 
Q 1428 -91 1123 -41 
Q 819 9 494 109 
L 494 744 
Q 775 591 1075 516 
Q 1375 441 1709 441 
Q 2250 441 2565 725 
Q 2881 1009 2881 1497 
Q 2881 1984 2565 2268 
Q 2250 2553 1709 2553 
Q 1456 2553 1204 2497 
Q 953 2441 691 2322 
L 691 4666 
z
" id="DejaVuSans-35" transform="scale(0.015625)"/>
       </defs>
       <use xlink:href="#DejaVuSans-35"/>
       <use x="63.623047" xlink:href="#DejaVuSans-30"/>
      </g>
     </g>
    </g>
    <g id="text_7">
     <!-- Trial -->
     <g transform="translate(197.347687 256.094562)scale(0.14 -0.14)">
      <defs>
       <path d="M -19 4666 
L 3928 4666 
L 3928 4134 
L 2272 4134 
L 2272 0 
L 1638 0 
L 1638 4134 
L -19 4134 
L -19 4666 
z
" id="DejaVuSans-54" transform="scale(0.015625)"/>
       <path d="M 2631 2963 
Q 2534 3019 2420 3045 
Q 2306 3072 2169 3072 
Q 1681 3072 1420 2755 
Q 1159 2438 1159 1844 
L 1159 0 
L 581 0 
L 581 3500 
L 1159 3500 
L 1159 2956 
Q 1341 3275 1631 3429 
Q 1922 3584 2338 3584 
Q 2397 3584 2469 3576 
Q 2541 3569 2628 3553 
L 2631 2963 
z
" id="DejaVuSans-72" transform="scale(0.015625)"/>
       <path d="M 603 3500 
L 1178 3500 
L 1178 0 
L 603 0 
L 603 3500 
z
M 603 4863 
L 1178 4863 
L 1178 4134 
L 603 4134 
L 603 4863 
z
" id="DejaVuSans-69" transform="scale(0.015625)"/>
       <path d="M 2194 1759 
Q 1497 1759 1228 1600 
Q 959 1441 959 1056 
Q 959 750 1161 570 
Q 1363 391 1709 391 
Q 2188 391 2477 730 
Q 2766 1069 2766 1631 
L 2766 1759 
L 2194 1759 
z
M 3341 1997 
L 3341 0 
L 2766 0 
L 2766 531 
Q 2569 213 2275 61 
Q 1981 -91 1556 -91 
Q 1019 -91 701 211 
Q 384 513 384 1019 
Q 384 1609 779 1909 
Q 1175 2209 1959 2209 
L 2766 2209 
L 2766 2266 
Q 2766 2663 2505 2880 
Q 2244 3097 1772 3097 
Q 1472 3097 1187 3025 
Q 903 2953 641 2809 
L 641 3341 
Q 956 3463 1253 3523 
Q 1550 3584 1831 3584 
Q 2591 3584 2966 3190 
Q 3341 2797 3341 1997 
z
" id="DejaVuSans-61" transform="scale(0.015625)"/>
       <path d="M 603 4863 
L 1178 4863 
L 1178 0 
L 603 0 
L 603 4863 
z
" id="DejaVuSans-6c" transform="scale(0.015625)"/>
      </defs>
      <use xlink:href="#DejaVuSans-54"/>
      <use x="46.333984" xlink:href="#DejaVuSans-72"/>
      <use x="87.447266" xlink:href="#DejaVuSans-69"/>
      <use x="115.230469" xlink:href="#DejaVuSans-61"/>
      <use x="176.509766" xlink:href="#DejaVuSans-6c"/>
     </g>
    </g>
   </g>
   <g id="matplotlib.axis_2">
    <g id="ytick_1">
     <g id="line2d_7">
      <defs>
       <path d="M 0 0 
L -4.8 0 
" id="m27079f51d1" style="stroke:#000000;"/>
      </defs>
      <g>
       <use style="stroke:#000000;" x="44.247375" xlink:href="#m27079f51d1" y="212.002896"/>
      </g>
     </g>
     <g id="text_8">
      <!-- 10 -->
      <g transform="translate(24.749375 215.346208)scale(0.088 -0.088)">
       <use xlink:href="#DejaVuSans-31"/>
       <use x="63.623047" xlink:href="#DejaVuSans-30"/>
      </g>
     </g>
    </g>
    <g id="ytick_2">
     <g id="line2d_8">
      <g>
       <use style="stroke:#000000;" x="44.247375" xlink:href="#m27079f51d1" y="180.51284"/>
      </g>
     </g>
     <g id="text_9">
      <!-- 15 -->
      <g transform="translate(24.749375 183.856152)scale(0.088 -0.088)">
       <use xlink:href="#DejaVuSans-31"/>
       <use x="63.623047" xlink:href="#DejaVuSans-35"/>
      </g>
     </g>
    </g>
    <g id="ytick_3">
     <g id="line2d_9">
      <g>
       <use style="stroke:#000000;" x="44.247375" xlink:href="#m27079f51d1" y="149.022784"/>
      </g>
     </g>
     <g id="text_10">
      <!-- 20 -->
      <g transform="translate(24.749375 152.366096)scale(0.088 -0.088)">
       <use xlink:href="#DejaVuSans-32"/>
       <use x="63.623047" xlink:href="#DejaVuSans-30"/>
      </g>
     </g>
    </g>
    <g id="ytick_4">
     <g id="line2d_10">
      <g>
       <use style="stroke:#000000;" x="44.247375" xlink:href="#m27079f51d1" y="117.532728"/>
      </g>
     </g>
     <g id="text_11">
      <!-- 25 -->
      <g transform="translate(24.749375 120.876041)scale(0.088 -0.088)">
       <use xlink:href="#DejaVuSans-32"/>
       <use x="63.623047" xlink:href="#DejaVuSans-35"/>
      </g>
     </g>
    </g>
    <g id="ytick_5">
     <g id="line2d_11">
      <g>
       <use style="stroke:#000000;" x="44.247375" xlink:href="#m27079f51d1" y="86.042672"/>
      </g>
     </g>
     <g id="text_12">
      <!-- 30 -->
      <g transform="translate(24.749375 89.385985)scale(0.088 -0.088)">
       <use xlink:href="#DejaVuSans-33"/>
       <use x="63.623047" xlink:href="#DejaVuSans-30"/>
      </g>
     </g>
    </g>
    <g id="ytick_6">
     <g id="line2d_12">
      <g>
       <use style="stroke:#000000;" x="44.247375" xlink:href="#m27079f51d1" y="54.552616"/>
      </g>
     </g>
     <g id="text_13">
      <!-- 35 -->
      <g transform="translate(24.749375 57.895929)scale(0.088 -0.088)">
       <use xlink:href="#DejaVuSans-33"/>
       <use x="63.623047" xlink:href="#DejaVuSans-35"/>
      </g>
     </g>
    </g>
    <g id="ytick_7">
     <g id="line2d_13">
      <g>
       <use style="stroke:#000000;" x="44.247375" xlink:href="#m27079f51d1" y="23.062561"/>
      </g>
     </g>
     <g id="text_14">
      <!-- 40 -->
      <g transform="translate(24.749375 26.405873)scale(0.088 -0.088)">
       <use xlink:href="#DejaVuSans-34"/>
       <use x="63.623047" xlink:href="#DejaVuSans-30"/>
      </g>
     </g>
    </g>
    <g id="text_15">
     <!-- MAE (Degrees) -->
     <g transform="translate(17.837813 167.980312)rotate(-90)scale(0.14 -0.14)">
      <defs>
       <path d="M 628 4666 
L 1569 4666 
L 2759 1491 
L 3956 4666 
L 4897 4666 
L 4897 0 
L 4281 0 
L 4281 4097 
L 3078 897 
L 2444 897 
L 1241 4097 
L 1241 0 
L 628 0 
L 628 4666 
z
" id="DejaVuSans-4d" transform="scale(0.015625)"/>
       <path d="M 2188 4044 
L 1331 1722 
L 3047 1722 
L 2188 4044 
z
M 1831 4666 
L 2547 4666 
L 4325 0 
L 3669 0 
L 3244 1197 
L 1141 1197 
L 716 0 
L 50 0 
L 1831 4666 
z
" id="DejaVuSans-41" transform="scale(0.015625)"/>
       <path d="M 628 4666 
L 3578 4666 
L 3578 4134 
L 1259 4134 
L 1259 2753 
L 3481 2753 
L 3481 2222 
L 1259 2222 
L 1259 531 
L 3634 531 
L 3634 0 
L 628 0 
L 628 4666 
z
" id="DejaVuSans-45" transform="scale(0.015625)"/>
       <path id="DejaVuSans-20" transform="scale(0.015625)"/>
       <path d="M 1984 4856 
Q 1566 4138 1362 3434 
Q 1159 2731 1159 2009 
Q 1159 1288 1364 580 
Q 1569 -128 1984 -844 
L 1484 -844 
Q 1016 -109 783 600 
Q 550 1309 550 2009 
Q 550 2706 781 3412 
Q 1013 4119 1484 4856 
L 1984 4856 
z
" id="DejaVuSans-28" transform="scale(0.015625)"/>
       <path d="M 1259 4147 
L 1259 519 
L 2022 519 
Q 2988 519 3436 956 
Q 3884 1394 3884 2338 
Q 3884 3275 3436 3711 
Q 2988 4147 2022 4147 
L 1259 4147 
z
M 628 4666 
L 1925 4666 
Q 3281 4666 3915 4102 
Q 4550 3538 4550 2338 
Q 4550 1131 3912 565 
Q 3275 0 1925 0 
L 628 0 
L 628 4666 
z
" id="DejaVuSans-44" transform="scale(0.015625)"/>
       <path d="M 3597 1894 
L 3597 1613 
L 953 1613 
Q 991 1019 1311 708 
Q 1631 397 2203 397 
Q 2534 397 2845 478 
Q 3156 559 3463 722 
L 3463 178 
Q 3153 47 2828 -22 
Q 2503 -91 2169 -91 
Q 1331 -91 842 396 
Q 353 884 353 1716 
Q 353 2575 817 3079 
Q 1281 3584 2069 3584 
Q 2775 3584 3186 3129 
Q 3597 2675 3597 1894 
z
M 3022 2063 
Q 3016 2534 2758 2815 
Q 2500 3097 2075 3097 
Q 1594 3097 1305 2825 
Q 1016 2553 972 2059 
L 3022 2063 
z
" id="DejaVuSans-65" transform="scale(0.015625)"/>
       <path d="M 2906 1791 
Q 2906 2416 2648 2759 
Q 2391 3103 1925 3103 
Q 1463 3103 1205 2759 
Q 947 2416 947 1791 
Q 947 1169 1205 825 
Q 1463 481 1925 481 
Q 2391 481 2648 825 
Q 2906 1169 2906 1791 
z
M 3481 434 
Q 3481 -459 3084 -895 
Q 2688 -1331 1869 -1331 
Q 1566 -1331 1297 -1286 
Q 1028 -1241 775 -1147 
L 775 -588 
Q 1028 -725 1275 -790 
Q 1522 -856 1778 -856 
Q 2344 -856 2625 -561 
Q 2906 -266 2906 331 
L 2906 616 
Q 2728 306 2450 153 
Q 2172 0 1784 0 
Q 1141 0 747 490 
Q 353 981 353 1791 
Q 353 2603 747 3093 
Q 1141 3584 1784 3584 
Q 2172 3584 2450 3431 
Q 2728 3278 2906 2969 
L 2906 3500 
L 3481 3500 
L 3481 434 
z
" id="DejaVuSans-67" transform="scale(0.015625)"/>
       <path d="M 2834 3397 
L 2834 2853 
Q 2591 2978 2328 3040 
Q 2066 3103 1784 3103 
Q 1356 3103 1142 2972 
Q 928 2841 928 2578 
Q 928 2378 1081 2264 
Q 1234 2150 1697 2047 
L 1894 2003 
Q 2506 1872 2764 1633 
Q 3022 1394 3022 966 
Q 3022 478 2636 193 
Q 2250 -91 1575 -91 
Q 1294 -91 989 -36 
Q 684 19 347 128 
L 347 722 
Q 666 556 975 473 
Q 1284 391 1588 391 
Q 1994 391 2212 530 
Q 2431 669 2431 922 
Q 2431 1156 2273 1281 
Q 2116 1406 1581 1522 
L 1381 1569 
Q 847 1681 609 1914 
Q 372 2147 372 2553 
Q 372 3047 722 3315 
Q 1072 3584 1716 3584 
Q 2034 3584 2315 3537 
Q 2597 3491 2834 3397 
z
" id="DejaVuSans-73" transform="scale(0.015625)"/>
       <path d="M 513 4856 
L 1013 4856 
Q 1481 4119 1714 3412 
Q 1947 2706 1947 2009 
Q 1947 1309 1714 600 
Q 1481 -109 1013 -844 
L 513 -844 
Q 928 -128 1133 580 
Q 1338 1288 1338 2009 
Q 1338 2731 1133 3434 
Q 928 4138 513 4856 
z
" id="DejaVuSans-29" transform="scale(0.015625)"/>
      </defs>
      <use xlink:href="#DejaVuSans-4d"/>
      <use x="86.279297" xlink:href="#DejaVuSans-41"/>
      <use x="154.6875" xlink:href="#DejaVuSans-45"/>
      <use x="217.871094" xlink:href="#DejaVuSans-20"/>
      <use x="249.658203" xlink:href="#DejaVuSans-28"/>
      <use x="288.671875" xlink:href="#DejaVuSans-44"/>
      <use x="365.673828" xlink:href="#DejaVuSans-65"/>
      <use x="427.197266" xlink:href="#DejaVuSans-67"/>
      <use x="490.673828" xlink:href="#DejaVuSans-72"/>
      <use x="529.537109" xlink:href="#DejaVuSans-65"/>
      <use x="591.060547" xlink:href="#DejaVuSans-65"/>
      <use x="652.583984" xlink:href="#DejaVuSans-73"/>
      <use x="704.683594" xlink:href="#DejaVuSans-29"/>
     </g>
    </g>
   </g>
   <g id="line2d_14">
    <path clip-path="url(#pa73baf0d58)" d="M 59.465557 115.616782 
L 65.10192 146.900071 
L 70.738284 139.238877 
L 76.374648 152.097147 
L 82.011011 166.939346 
L 87.647375 158.130395 
L 93.283739 163.129362 
L 98.920102 149.359948 
L 104.556466 148.854346 
L 110.19283 141.358935 
L 115.829193 139.984278 
L 121.465557 140.606936 
L 127.10192 55.210966 
L 132.738284 92.823178 
L 138.374648 58.660415 
L 144.011011 71.686464 
L 149.647375 95.454396 
L 155.283739 76.578503 
L 160.920102 72.953516 
L 166.556466 55.409932 
L 172.19283 109.659368 
L 177.829193 108.986268 
L 183.465557 120.199381 
L 189.10192 111.601492 
L 194.738284 124.718799 
L 200.374648 134.498417 
L 206.011011 112.233501 
L 211.647375 124.936888 
L 217.283739 117.40357 
L 222.920102 70.610194 
L 228.556466 89.191817 
L 234.19283 101.537007 
L 239.829193 92.332327 
L 245.465557 115.31207 
L 251.10192 118.34376 
L 256.738284 119.769681 
L 262.374648 109.844846 
L 268.011011 99.915018 
L 273.647375 97.898732 
L 279.283739 93.383296 
L 284.920102 111.366152 
L 290.556466 131.507394 
L 296.19283 126.652377 
L 301.829193 133.063122 
L 307.465557 138.104881 
L 313.10192 146.969362 
L 318.738284 147.543478 
L 324.374648 149.405122 
L 330.011011 154.149614 
L 335.647375 155.780448 
L 341.283739 158.246003 
L 346.920102 166.44234 
L 352.556466 154.449467 
L 358.19283 188.042692 
L 363.829193 195.260583 
" style="fill:none;stroke:#721f81;stroke-linecap:square;stroke-width:2;"/>
   </g>
   <g id="line2d_15">
    <path clip-path="url(#pa73baf0d58)" d="M 59.465557 95.55695 
L 65.10192 139.515443 
L 70.738284 154.266866 
L 76.374648 130.594838 
L 82.011011 150.854695 
L 87.647375 131.564677 
L 93.283739 143.619326 
L 98.920102 168.323248 
L 104.556466 167.148673 
L 110.19283 170.073548 
L 115.829193 163.099081 
L 121.465557 174.379943 
L 127.10192 40.754728 
L 132.738284 97.196944 
L 138.374648 108.709569 
L 144.011011 116.744063 
L 149.647375 84.347291 
L 155.283739 109.50989 
L 160.920102 82.821994 
L 166.556466 122.2257 
L 172.19283 134.197416 
L 177.829193 127.972925 
L 183.465557 135.814594 
L 189.10192 122.249549 
L 194.738284 121.642613 
L 200.374648 136.666185 
L 206.011011 100.392159 
L 211.647375 133.357578 
L 217.283739 144.101006 
L 222.920102 138.762674 
L 228.556466 135.852104 
L 234.19283 137.53669 
L 239.829193 145.858474 
L 245.465557 137.225399 
L 251.10192 116.011058 
L 256.738284 140.609332 
L 262.374648 137.440824 
L 268.011011 135.28175 
L 273.647375 99.337044 
L 279.283739 129.658391 
L 284.920102 125.894718 
L 290.556466 129.763225 
L 296.19283 132.058898 
L 301.829193 166.310053 
L 307.465557 181.122275 
L 313.10192 188.956243 
L 318.738284 178.550198 
L 324.374648 178.918518 
L 330.011011 191.230368 
L 335.647375 175.818857 
L 341.283739 187.933829 
L 346.920102 188.216879 
L 352.556466 190.265175 
L 358.19283 184.238633 
" style="fill:none;stroke:#f1605d;stroke-linecap:square;stroke-width:2;"/>
   </g>
   <g id="line2d_16"/>
   <g id="line2d_17"/>
   <g id="patch_3">
    <path d="M 44.247375 224.64 
L 44.247375 7.2 
" style="fill:none;stroke:#000000;stroke-linecap:square;stroke-linejoin:miter;"/>
   </g>
   <g id="patch_4">
    <path d="M 379.047375 224.64 
L 379.047375 7.2 
" style="fill:none;stroke:#000000;stroke-linecap:square;stroke-linejoin:miter;"/>
   </g>
   <g id="patch_5">
    <path d="M 44.247375 224.64 
L 379.047375 224.64 
" style="fill:none;stroke:#000000;stroke-linecap:square;stroke-linejoin:miter;"/>
   </g>
   <g id="patch_6">
    <path d="M 44.247375 7.2 
L 379.047375 7.2 
" style="fill:none;stroke:#000000;stroke-linecap:square;stroke-linejoin:miter;"/>
   </g>
   <g id="legend_1">
    <g id="patch_7">
     <path d="M 280.220969 48.291875 
L 371.347375 48.291875 
Q 373.547375 48.291875 373.547375 46.091875 
L 373.547375 14.9 
Q 373.547375 12.7 371.347375 12.7 
L 280.220969 12.7 
Q 278.020969 12.7 278.020969 14.9 
L 278.020969 46.091875 
Q 278.020969 48.291875 280.220969 48.291875 
z
" style="fill:#ffffff;opacity:0.8;stroke:#cccccc;stroke-linejoin:miter;stroke-width:0.8;"/>
    </g>
    <g id="line2d_18">
     <path d="M 282.420969 21.608281 
L 304.420969 21.608281 
" style="fill:none;stroke:#721f81;stroke-linecap:square;stroke-width:2;"/>
    </g>
    <g id="line2d_19"/>
    <g id="text_16">
     <!-- NoReward -->
     <g transform="translate(313.220969 25.458281)scale(0.11 -0.11)">
      <defs>
       <path d="M 628 4666 
L 1478 4666 
L 3547 763 
L 3547 4666 
L 4159 4666 
L 4159 0 
L 3309 0 
L 1241 3903 
L 1241 0 
L 628 0 
L 628 4666 
z
" id="DejaVuSans-4e" transform="scale(0.015625)"/>
       <path d="M 1959 3097 
Q 1497 3097 1228 2736 
Q 959 2375 959 1747 
Q 959 1119 1226 758 
Q 1494 397 1959 397 
Q 2419 397 2687 759 
Q 2956 1122 2956 1747 
Q 2956 2369 2687 2733 
Q 2419 3097 1959 3097 
z
M 1959 3584 
Q 2709 3584 3137 3096 
Q 3566 2609 3566 1747 
Q 3566 888 3137 398 
Q 2709 -91 1959 -91 
Q 1206 -91 779 398 
Q 353 888 353 1747 
Q 353 2609 779 3096 
Q 1206 3584 1959 3584 
z
" id="DejaVuSans-6f" transform="scale(0.015625)"/>
       <path d="M 2841 2188 
Q 3044 2119 3236 1894 
Q 3428 1669 3622 1275 
L 4263 0 
L 3584 0 
L 2988 1197 
Q 2756 1666 2539 1819 
Q 2322 1972 1947 1972 
L 1259 1972 
L 1259 0 
L 628 0 
L 628 4666 
L 2053 4666 
Q 2853 4666 3247 4331 
Q 3641 3997 3641 3322 
Q 3641 2881 3436 2590 
Q 3231 2300 2841 2188 
z
M 1259 4147 
L 1259 2491 
L 2053 2491 
Q 2509 2491 2742 2702 
Q 2975 2913 2975 3322 
Q 2975 3731 2742 3939 
Q 2509 4147 2053 4147 
L 1259 4147 
z
" id="DejaVuSans-52" transform="scale(0.015625)"/>
       <path d="M 269 3500 
L 844 3500 
L 1563 769 
L 2278 3500 
L 2956 3500 
L 3675 769 
L 4391 3500 
L 4966 3500 
L 4050 0 
L 3372 0 
L 2619 2869 
L 1863 0 
L 1184 0 
L 269 3500 
z
" id="DejaVuSans-77" transform="scale(0.015625)"/>
       <path d="M 2906 2969 
L 2906 4863 
L 3481 4863 
L 3481 0 
L 2906 0 
L 2906 525 
Q 2725 213 2448 61 
Q 2172 -91 1784 -91 
Q 1150 -91 751 415 
Q 353 922 353 1747 
Q 353 2572 751 3078 
Q 1150 3584 1784 3584 
Q 2172 3584 2448 3432 
Q 2725 3281 2906 2969 
z
M 947 1747 
Q 947 1113 1208 752 
Q 1469 391 1925 391 
Q 2381 391 2643 752 
Q 2906 1113 2906 1747 
Q 2906 2381 2643 2742 
Q 2381 3103 1925 3103 
Q 1469 3103 1208 2742 
Q 947 2381 947 1747 
z
" id="DejaVuSans-64" transform="scale(0.015625)"/>
      </defs>
      <use xlink:href="#DejaVuSans-4e"/>
      <use x="74.804688" xlink:href="#DejaVuSans-6f"/>
      <use x="135.986328" xlink:href="#DejaVuSans-52"/>
      <use x="200.96875" xlink:href="#DejaVuSans-65"/>
      <use x="262.492188" xlink:href="#DejaVuSans-77"/>
      <use x="344.279297" xlink:href="#DejaVuSans-61"/>
      <use x="405.558594" xlink:href="#DejaVuSans-72"/>
      <use x="444.921875" xlink:href="#DejaVuSans-64"/>
     </g>
    </g>
    <g id="line2d_20">
     <path d="M 282.420969 37.754219 
L 304.420969 37.754219 
" style="fill:none;stroke:#f1605d;stroke-linecap:square;stroke-width:2;"/>
    </g>
    <g id="line2d_21"/>
    <g id="text_17">
     <!-- Reward -->
     <g transform="translate(313.220969 41.604219)scale(0.11 -0.11)">
      <use xlink:href="#DejaVuSans-52"/>
      <use x="64.982422" xlink:href="#DejaVuSans-65"/>
      <use x="126.505859" xlink:href="#DejaVuSans-77"/>
      <use x="208.292969" xlink:href="#DejaVuSans-61"/>
      <use x="269.572266" xlink:href="#DejaVuSans-72"/>
      <use x="308.935547" xlink:href="#DejaVuSans-64"/>
     </g>
    </g>
   </g>
  </g>
 </g>
 <defs>
  <clipPath id="pa73baf0d58">
   <rect height="217.44" width="334.8" x="44.247375" y="7.2"/>
  </clipPath>
 </defs>
</svg>
