<?xml version="1.0" encoding="utf-8" standalone="no"?>
<!DOCTYPE svg PUBLIC "-//W3C//DTD SVG 1.1//EN"
  "http://www.w3.org/Graphics/SVG/1.1/DTD/svg11.dtd">
<svg height="269.037259pt" version="1.1" viewBox="0 0 386.247375 269.037259" width="386.247375pt" xmlns="http://www.w3.org/2000/svg" xmlns:xlink="http://www.w3.org/1999/xlink">
 <metadata>
  <rdf:RDF xmlns:cc="http://creativecommons.org/ns#" xmlns:dc="http://purl.org/dc/elements/1.1/" xmlns:rdf="http://www.w3.org/1999/02/22-rdf-syntax-ns#">
   <cc:Work>
    <dc:type rdf:resource="http://purl.org/dc/dcmitype/StillImage"/>
    <dc:date>2022-04-29T16:04:00.014409</dc:date>
    <dc:format>image/svg+xml</dc:format>
    <dc:creator>
     <cc:Agent>
      <dc:title>Matplotlib v3.4.3, https://matplotlib.org/</dc:title>
     </cc:Agent>
    </dc:creator>
   </cc:Work>
  </rdf:RDF>
 </metadata>
 <defs>
  <style type="text/css">*{stroke-linecap:butt;stroke-linejoin:round;}</style>
 </defs>
 <g id="figure_1">
  <g id="patch_1">
   <path d="M 0 269.037259 
L 386.247375 269.037259 
L 386.247375 0 
L 0 0 
z
" style="fill:none;"/>
  </g>
  <g id="axes_1">
   <g id="patch_2">
    <path d="M 44.247375 227.471134 
L 379.047375 227.471134 
L 379.047375 10.031134 
L 44.247375 10.031134 
z
" style="fill:#ffffff;"/>
   </g>
   <g id="PolyCollection_1">
    <defs>
     <path d="M 59.465557 -149.250013 
L 59.465557 -116.015676 
L 65.10192 -94.793256 
L 70.738284 -101.13616 
L 76.374648 -86.874617 
L 82.011011 -83.51703 
L 87.647375 -84.441782 
L 93.283739 -84.536087 
L 98.920102 -85.920773 
L 104.556466 -83.798343 
L 110.19283 -83.271746 
L 115.829193 -86.298536 
L 121.465557 -84.298402 
L 127.10192 -157.860887 
L 132.738284 -125.020577 
L 138.374648 -146.671697 
L 144.011011 -129.619121 
L 149.647375 -125.5222 
L 155.283739 -130.596443 
L 160.920102 -132.66412 
L 166.556466 -122.914874 
L 172.19283 -114.160512 
L 177.829193 -114.393326 
L 183.465557 -101.776467 
L 189.10192 -109.458144 
L 194.738284 -102.122434 
L 200.374648 -95.300774 
L 206.011011 -108.949373 
L 211.647375 -100.057417 
L 217.283739 -98.468189 
L 222.920102 -127.898155 
L 228.556466 -123.543792 
L 234.19283 -110.110231 
L 239.829193 -114.022375 
L 245.465557 -106.828011 
L 251.10192 -99.364151 
L 256.738284 -106.532591 
L 262.374648 -96.003355 
L 268.011011 -109.614125 
L 273.647375 -110.567907 
L 279.283739 -108.896477 
L 284.920102 -105.768471 
L 290.556466 -93.022207 
L 296.19283 -94.688495 
L 301.829193 -86.914625 
L 307.465557 -82.545889 
L 313.10192 -73.450714 
L 318.738284 -73.590294 
L 324.374648 -72.586611 
L 330.011011 -73.754853 
L 335.647375 -70.546634 
L 341.283739 -71.341211 
L 346.920102 -62.0003 
L 352.556466 -74.883714 
L 358.19283 -57.190228 
L 363.829193 -51.449761 
L 363.829193 -83.149027 
L 363.829193 -83.149027 
L 358.19283 -84.136568 
L 352.556466 -143.028452 
L 346.920102 -139.658642 
L 341.283739 -143.093712 
L 335.647375 -148.533445 
L 330.011011 -145.863904 
L 324.374648 -154.751833 
L 318.738284 -159.816215 
L 313.10192 -167.286215 
L 307.465557 -162.135159 
L 301.829193 -168.720197 
L 296.19283 -168.604242 
L 290.556466 -151.065633 
L 284.920102 -167.186832 
L 279.283739 -196.927921 
L 273.647375 -193.577352 
L 268.011011 -197.138774 
L 262.374648 -186.437788 
L 256.738284 -153.509576 
L 251.10192 -163.265377 
L 245.465557 -162.0586 
L 239.829193 -191.235899 
L 234.19283 -183.154884 
L 228.556466 -187.300238 
L 222.920102 -214.803749 
L 217.283739 -181.702883 
L 211.647375 -156.965021 
L 206.011011 -166.892993 
L 200.374648 -142.065139 
L 194.738284 -149.39227 
L 189.10192 -163.303386 
L 183.465557 -165.225771 
L 177.829193 -164.893945 
L 172.19283 -159.039899 
L 166.556466 -249.122489 
L 160.920102 -211.976163 
L 155.283739 -200.838437 
L 149.647375 -171.969027 
L 144.011011 -216.815868 
L 138.374648 -210.610756 
L 132.738284 -175.456656 
L 127.10192 -204.313324 
L 121.465557 -148.327571 
L 115.829193 -146.657314 
L 110.19283 -141.824738 
L 104.556466 -133.74571 
L 98.920102 -125.998334 
L 93.283739 -104.285496 
L 87.647375 -112.230224 
L 82.011011 -97.864724 
L 76.374648 -123.164308 
L 70.738284 -124.479028 
L 65.10192 -121.401905 
L 59.465557 -149.250013 
z
" id="mde26a2f9d8" style="stroke:#721f81;stroke-opacity:0.2;stroke-width:0.8;"/>
    </defs>
    <g clip-path="url(#p38bde532c0)">
     <use style="fill:#721f81;fill-opacity:0.2;stroke:#721f81;stroke-opacity:0.2;stroke-width:0.8;" x="0" xlink:href="#mde26a2f9d8" y="269.037259"/>
    </g>
   </g>
   <g id="PolyCollection_2">
    <defs>
     <path d="M 59.465557 -169.39723 
L 59.465557 -128.422859 
L 65.10192 -100.328515 
L 70.738284 -84.715949 
L 76.374648 -96.841755 
L 82.011011 -87.75121 
L 87.647375 -90.669539 
L 93.283739 -84.447719 
L 98.920102 -77.324041 
L 104.556466 -76.987806 
L 110.19283 -72.780804 
L 115.829193 -75.462092 
L 121.465557 -74.440319 
L 127.10192 -160.302039 
L 132.738284 -123.509516 
L 138.374648 -116.180706 
L 144.011011 -110.031739 
L 149.647375 -118.946794 
L 155.283739 -99.898104 
L 160.920102 -117.482653 
L 166.556466 -106.251301 
L 172.19283 -94.982683 
L 177.829193 -97.583151 
L 183.465557 -97.252079 
L 189.10192 -104.546479 
L 194.738284 -104.099434 
L 200.374648 -91.878508 
L 206.011011 -93.755482 
L 211.647375 -96.570908 
L 217.283739 -87.98583 
L 222.920102 -88.974277 
L 228.556466 -90.9156 
L 234.19283 -94.839628 
L 239.829193 -87.337778 
L 245.465557 -91.042056 
L 251.10192 -104.128212 
L 256.738284 -79.028229 
L 262.374648 -94.329728 
L 268.011011 -94.644745 
L 273.647375 -98.358767 
L 279.283739 -98.073067 
L 284.920102 -98.428138 
L 290.556466 -88.789957 
L 296.19283 -89.112214 
L 301.829193 -75.530434 
L 307.465557 -69.2514 
L 313.10192 -62.524728 
L 318.738284 -66.687862 
L 324.374648 -67.162241 
L 330.011011 -61.26884 
L 335.647375 -67.648271 
L 341.283739 -62.608771 
L 346.920102 -62.911987 
L 352.556466 -61.119387 
L 358.19283 -61.725114 
L 358.19283 -91.743848 
L 358.19283 -91.743848 
L 352.556466 -83.039508 
L 346.920102 -81.303951 
L 341.283739 -83.344485 
L 335.647375 -96.02196 
L 330.011011 -79.614778 
L 324.374648 -95.223218 
L 318.738284 -94.211668 
L 313.10192 -82.005082 
L 307.465557 -86.499616 
L 301.829193 -107.202417 
L 296.19283 -150.699447 
L 290.556466 -172.20315 
L 284.920102 -149.267694 
L 279.283739 -143.011605 
L 273.647375 -215.802004 
L 268.011011 -135.421842 
L 262.374648 -134.947164 
L 256.738284 -155.740918 
L 251.10192 -160.391825 
L 245.465557 -137.786096 
L 239.829193 -129.443962 
L 234.19283 -138.624327 
L 228.556466 -145.704573 
L 222.920102 -143.231122 
L 217.283739 -133.69979 
L 211.647375 -143.774438 
L 206.011011 -222.68831 
L 200.374648 -141.137077 
L 194.738284 -151.495536 
L 189.10192 -151.613378 
L 183.465557 -135.244809 
L 177.829193 -146.874271 
L 172.19283 -140.243584 
L 166.556466 -147.002567 
L 160.920102 -216.029385 
L 155.283739 -187.314558 
L 149.647375 -201.705361 
L 144.011011 -153.748918 
L 138.374648 -158.010515 
L 132.738284 -173.773224 
L 127.10192 -229.999139 
L 121.465557 -93.185922 
L 115.829193 -121.426965 
L 110.19283 -103.820403 
L 104.556466 -104.203422 
L 98.920102 -101.703794 
L 93.283739 -146.417555 
L 87.647375 -152.976735 
L 82.011011 -121.590371 
L 76.374648 -148.010224 
L 70.738284 -116.058533 
L 65.10192 -123.902604 
L 59.465557 -169.39723 
z
" id="mb767aca002" style="stroke:#f1605d;stroke-opacity:0.2;stroke-width:0.8;"/>
    </defs>
    <g clip-path="url(#p38bde532c0)">
     <use style="fill:#f1605d;fill-opacity:0.2;stroke:#f1605d;stroke-opacity:0.2;stroke-width:0.8;" x="0" xlink:href="#mb767aca002" y="269.037259"/>
    </g>
   </g>
   <g id="matplotlib.axis_1">
    <g id="xtick_1">
     <g id="line2d_1">
      <defs>
       <path d="M 0 0 
L 0 4.8 
" id="mea0c4afb3c" style="stroke:#000000;"/>
      </defs>
      <g>
       <use style="stroke:#000000;" x="59.465557" xlink:href="#mea0c4afb3c" y="227.471134"/>
      </g>
     </g>
     <g id="text_1">
      <!-- 0 -->
      <g transform="translate(56.666057 242.457759)scale(0.088 -0.088)">
       <defs>
        <path d="M 2034 4250 
Q 1547 4250 1301 3770 
Q 1056 3291 1056 2328 
Q 1056 1369 1301 889 
Q 1547 409 2034 409 
Q 2525 409 2770 889 
Q 3016 1369 3016 2328 
Q 3016 3291 2770 3770 
Q 2525 4250 2034 4250 
z
M 2034 4750 
Q 2819 4750 3233 4129 
Q 3647 3509 3647 2328 
Q 3647 1150 3233 529 
Q 2819 -91 2034 -91 
Q 1250 -91 836 529 
Q 422 1150 422 2328 
Q 422 3509 836 4129 
Q 1250 4750 2034 4750 
z
" id="DejaVuSans-30" transform="scale(0.015625)"/>
       </defs>
       <use xlink:href="#DejaVuSans-30"/>
      </g>
     </g>
    </g>
    <g id="xtick_2">
     <g id="line2d_2">
      <g>
       <use style="stroke:#000000;" x="115.829193" xlink:href="#mea0c4afb3c" y="227.471134"/>
      </g>
     </g>
     <g id="text_2">
      <!-- 10 -->
      <g transform="translate(110.230193 242.457759)scale(0.088 -0.088)">
       <defs>
        <path d="M 794 531 
L 1825 531 
L 1825 4091 
L 703 3866 
L 703 4441 
L 1819 4666 
L 2450 4666 
L 2450 531 
L 3481 531 
L 3481 0 
L 794 0 
L 794 531 
z
" id="DejaVuSans-31" transform="scale(0.015625)"/>
       </defs>
       <use xlink:href="#DejaVuSans-31"/>
       <use x="63.623047" xlink:href="#DejaVuSans-30"/>
      </g>
     </g>
    </g>
    <g id="xtick_3">
     <g id="line2d_3">
      <g>
       <use style="stroke:#000000;" x="172.19283" xlink:href="#mea0c4afb3c" y="227.471134"/>
      </g>
     </g>
     <g id="text_3">
      <!-- 20 -->
      <g transform="translate(166.59383 242.457759)scale(0.088 -0.088)">
       <defs>
        <path d="M 1228 531 
L 3431 531 
L 3431 0 
L 469 0 
L 469 531 
Q 828 903 1448 1529 
Q 2069 2156 2228 2338 
Q 2531 2678 2651 2914 
Q 2772 3150 2772 3378 
Q 2772 3750 2511 3984 
Q 2250 4219 1831 4219 
Q 1534 4219 1204 4116 
Q 875 4013 500 3803 
L 500 4441 
Q 881 4594 1212 4672 
Q 1544 4750 1819 4750 
Q 2544 4750 2975 4387 
Q 3406 4025 3406 3419 
Q 3406 3131 3298 2873 
Q 3191 2616 2906 2266 
Q 2828 2175 2409 1742 
Q 1991 1309 1228 531 
z
" id="DejaVuSans-32" transform="scale(0.015625)"/>
       </defs>
       <use xlink:href="#DejaVuSans-32"/>
       <use x="63.623047" xlink:href="#DejaVuSans-30"/>
      </g>
     </g>
    </g>
    <g id="xtick_4">
     <g id="line2d_4">
      <g>
       <use style="stroke:#000000;" x="228.556466" xlink:href="#mea0c4afb3c" y="227.471134"/>
      </g>
     </g>
     <g id="text_4">
      <!-- 30 -->
      <g transform="translate(222.957466 242.457759)scale(0.088 -0.088)">
       <defs>
        <path d="M 2597 2516 
Q 3050 2419 3304 2112 
Q 3559 1806 3559 1356 
Q 3559 666 3084 287 
Q 2609 -91 1734 -91 
Q 1441 -91 1130 -33 
Q 819 25 488 141 
L 488 750 
Q 750 597 1062 519 
Q 1375 441 1716 441 
Q 2309 441 2620 675 
Q 2931 909 2931 1356 
Q 2931 1769 2642 2001 
Q 2353 2234 1838 2234 
L 1294 2234 
L 1294 2753 
L 1863 2753 
Q 2328 2753 2575 2939 
Q 2822 3125 2822 3475 
Q 2822 3834 2567 4026 
Q 2313 4219 1838 4219 
Q 1578 4219 1281 4162 
Q 984 4106 628 3988 
L 628 4550 
Q 988 4650 1302 4700 
Q 1616 4750 1894 4750 
Q 2613 4750 3031 4423 
Q 3450 4097 3450 3541 
Q 3450 3153 3228 2886 
Q 3006 2619 2597 2516 
z
" id="DejaVuSans-33" transform="scale(0.015625)"/>
       </defs>
       <use xlink:href="#DejaVuSans-33"/>
       <use x="63.623047" xlink:href="#DejaVuSans-30"/>
      </g>
     </g>
    </g>
    <g id="xtick_5">
     <g id="line2d_5">
      <g>
       <use style="stroke:#000000;" x="284.920102" xlink:href="#mea0c4afb3c" y="227.471134"/>
      </g>
     </g>
     <g id="text_5">
      <!-- 40 -->
      <g transform="translate(279.321102 242.457759)scale(0.088 -0.088)">
       <defs>
        <path d="M 2419 4116 
L 825 1625 
L 2419 1625 
L 2419 4116 
z
M 2253 4666 
L 3047 4666 
L 3047 1625 
L 3713 1625 
L 3713 1100 
L 3047 1100 
L 3047 0 
L 2419 0 
L 2419 1100 
L 313 1100 
L 313 1709 
L 2253 4666 
z
" id="DejaVuSans-34" transform="scale(0.015625)"/>
       </defs>
       <use xlink:href="#DejaVuSans-34"/>
       <use x="63.623047" xlink:href="#DejaVuSans-30"/>
      </g>
     </g>
    </g>
    <g id="xtick_6">
     <g id="line2d_6">
      <g>
       <use style="stroke:#000000;" x="341.283739" xlink:href="#mea0c4afb3c" y="227.471134"/>
      </g>
     </g>
     <g id="text_6">
      <!-- 50 -->
      <g transform="translate(335.684739 242.457759)scale(0.088 -0.088)">
       <defs>
        <path d="M 691 4666 
L 3169 4666 
L 3169 4134 
L 1269 4134 
L 1269 2991 
Q 1406 3038 1543 3061 
Q 1681 3084 1819 3084 
Q 2600 3084 3056 2656 
Q 3513 2228 3513 1497 
Q 3513 744 3044 326 
Q 2575 -91 1722 -91 
Q 1428 -91 1123 -41 
Q 819 9 494 109 
L 494 744 
Q 775 591 1075 516 
Q 1375 441 1709 441 
Q 2250 441 2565 725 
Q 2881 1009 2881 1497 
Q 2881 1984 2565 2268 
Q 2250 2553 1709 2553 
Q 1456 2553 1204 2497 
Q 953 2441 691 2322 
L 691 4666 
z
" id="DejaVuSans-35" transform="scale(0.015625)"/>
       </defs>
       <use xlink:href="#DejaVuSans-35"/>
       <use x="63.623047" xlink:href="#DejaVuSans-30"/>
      </g>
     </g>
    </g>
    <g id="text_7">
     <!-- Trial -->
     <g transform="translate(197.347687 258.925697)scale(0.14 -0.14)">
      <defs>
       <path d="M -19 4666 
L 3928 4666 
L 3928 4134 
L 2272 4134 
L 2272 0 
L 1638 0 
L 1638 4134 
L -19 4134 
L -19 4666 
z
" id="DejaVuSans-54" transform="scale(0.015625)"/>
       <path d="M 2631 2963 
Q 2534 3019 2420 3045 
Q 2306 3072 2169 3072 
Q 1681 3072 1420 2755 
Q 1159 2438 1159 1844 
L 1159 0 
L 581 0 
L 581 3500 
L 1159 3500 
L 1159 2956 
Q 1341 3275 1631 3429 
Q 1922 3584 2338 3584 
Q 2397 3584 2469 3576 
Q 2541 3569 2628 3553 
L 2631 2963 
z
" id="DejaVuSans-72" transform="scale(0.015625)"/>
       <path d="M 603 3500 
L 1178 3500 
L 1178 0 
L 603 0 
L 603 3500 
z
M 603 4863 
L 1178 4863 
L 1178 4134 
L 603 4134 
L 603 4863 
z
" id="DejaVuSans-69" transform="scale(0.015625)"/>
       <path d="M 2194 1759 
Q 1497 1759 1228 1600 
Q 959 1441 959 1056 
Q 959 750 1161 570 
Q 1363 391 1709 391 
Q 2188 391 2477 730 
Q 2766 1069 2766 1631 
L 2766 1759 
L 2194 1759 
z
M 3341 1997 
L 3341 0 
L 2766 0 
L 2766 531 
Q 2569 213 2275 61 
Q 1981 -91 1556 -91 
Q 1019 -91 701 211 
Q 384 513 384 1019 
Q 384 1609 779 1909 
Q 1175 2209 1959 2209 
L 2766 2209 
L 2766 2266 
Q 2766 2663 2505 2880 
Q 2244 3097 1772 3097 
Q 1472 3097 1187 3025 
Q 903 2953 641 2809 
L 641 3341 
Q 956 3463 1253 3523 
Q 1550 3584 1831 3584 
Q 2591 3584 2966 3190 
Q 3341 2797 3341 1997 
z
" id="DejaVuSans-61" transform="scale(0.015625)"/>
       <path d="M 603 4863 
L 1178 4863 
L 1178 0 
L 603 0 
L 603 4863 
z
" id="DejaVuSans-6c" transform="scale(0.015625)"/>
      </defs>
      <use xlink:href="#DejaVuSans-54"/>
      <use x="46.333984" xlink:href="#DejaVuSans-72"/>
      <use x="87.447266" xlink:href="#DejaVuSans-69"/>
      <use x="115.230469" xlink:href="#DejaVuSans-61"/>
      <use x="176.509766" xlink:href="#DejaVuSans-6c"/>
     </g>
    </g>
   </g>
   <g id="matplotlib.axis_2">
    <g id="ytick_1">
     <g id="line2d_7">
      <defs>
       <path d="M 0 0 
L -4.8 0 
" id="mc283e4c0e5" style="stroke:#000000;"/>
      </defs>
      <g>
       <use style="stroke:#000000;" x="44.247375" xlink:href="#mc283e4c0e5" y="215.34899"/>
      </g>
     </g>
     <g id="text_8">
      <!-- 10 -->
      <g transform="translate(24.749375 218.692302)scale(0.088 -0.088)">
       <use xlink:href="#DejaVuSans-31"/>
       <use x="63.623047" xlink:href="#DejaVuSans-30"/>
      </g>
     </g>
    </g>
    <g id="ytick_2">
     <g id="line2d_8">
      <g>
       <use style="stroke:#000000;" x="44.247375" xlink:href="#mc283e4c0e5" y="189.74828"/>
      </g>
     </g>
     <g id="text_9">
      <!-- 15 -->
      <g transform="translate(24.749375 193.091593)scale(0.088 -0.088)">
       <use xlink:href="#DejaVuSans-31"/>
       <use x="63.623047" xlink:href="#DejaVuSans-35"/>
      </g>
     </g>
    </g>
    <g id="ytick_3">
     <g id="line2d_9">
      <g>
       <use style="stroke:#000000;" x="44.247375" xlink:href="#mc283e4c0e5" y="164.147571"/>
      </g>
     </g>
     <g id="text_10">
      <!-- 20 -->
      <g transform="translate(24.749375 167.490883)scale(0.088 -0.088)">
       <use xlink:href="#DejaVuSans-32"/>
       <use x="63.623047" xlink:href="#DejaVuSans-30"/>
      </g>
     </g>
    </g>
    <g id="ytick_4">
     <g id="line2d_10">
      <g>
       <use style="stroke:#000000;" x="44.247375" xlink:href="#mc283e4c0e5" y="138.546861"/>
      </g>
     </g>
     <g id="text_11">
      <!-- 25 -->
      <g transform="translate(24.749375 141.890173)scale(0.088 -0.088)">
       <use xlink:href="#DejaVuSans-32"/>
       <use x="63.623047" xlink:href="#DejaVuSans-35"/>
      </g>
     </g>
    </g>
    <g id="ytick_5">
     <g id="line2d_11">
      <g>
       <use style="stroke:#000000;" x="44.247375" xlink:href="#mc283e4c0e5" y="112.946151"/>
      </g>
     </g>
     <g id="text_12">
      <!-- 30 -->
      <g transform="translate(24.749375 116.289464)scale(0.088 -0.088)">
       <use xlink:href="#DejaVuSans-33"/>
       <use x="63.623047" xlink:href="#DejaVuSans-30"/>
      </g>
     </g>
    </g>
    <g id="ytick_6">
     <g id="line2d_12">
      <g>
       <use style="stroke:#000000;" x="44.247375" xlink:href="#mc283e4c0e5" y="87.345442"/>
      </g>
     </g>
     <g id="text_13">
      <!-- 35 -->
      <g transform="translate(24.749375 90.688754)scale(0.088 -0.088)">
       <use xlink:href="#DejaVuSans-33"/>
       <use x="63.623047" xlink:href="#DejaVuSans-35"/>
      </g>
     </g>
    </g>
    <g id="ytick_7">
     <g id="line2d_13">
      <g>
       <use style="stroke:#000000;" x="44.247375" xlink:href="#mc283e4c0e5" y="61.744732"/>
      </g>
     </g>
     <g id="text_14">
      <!-- 40 -->
      <g transform="translate(24.749375 65.088044)scale(0.088 -0.088)">
       <use xlink:href="#DejaVuSans-34"/>
       <use x="63.623047" xlink:href="#DejaVuSans-30"/>
      </g>
     </g>
    </g>
    <g id="ytick_8">
     <g id="line2d_14">
      <g>
       <use style="stroke:#000000;" x="44.247375" xlink:href="#mc283e4c0e5" y="36.144022"/>
      </g>
     </g>
     <g id="text_15">
      <!-- 45 -->
      <g transform="translate(24.749375 39.487335)scale(0.088 -0.088)">
       <use xlink:href="#DejaVuSans-34"/>
       <use x="63.623047" xlink:href="#DejaVuSans-35"/>
      </g>
     </g>
    </g>
    <g id="ytick_9">
     <g id="line2d_15">
      <g>
       <use style="stroke:#000000;" x="44.247375" xlink:href="#mc283e4c0e5" y="10.543313"/>
      </g>
     </g>
     <g id="text_16">
      <!-- 50 -->
      <g transform="translate(24.749375 13.886625)scale(0.088 -0.088)">
       <use xlink:href="#DejaVuSans-35"/>
       <use x="63.623047" xlink:href="#DejaVuSans-30"/>
      </g>
     </g>
    </g>
    <g id="text_17">
     <!-- Intercept -->
     <g transform="translate(17.837813 150.368165)rotate(-90)scale(0.14 -0.14)">
      <defs>
       <path d="M 628 4666 
L 1259 4666 
L 1259 0 
L 628 0 
L 628 4666 
z
" id="DejaVuSans-49" transform="scale(0.015625)"/>
       <path d="M 3513 2113 
L 3513 0 
L 2938 0 
L 2938 2094 
Q 2938 2591 2744 2837 
Q 2550 3084 2163 3084 
Q 1697 3084 1428 2787 
Q 1159 2491 1159 1978 
L 1159 0 
L 581 0 
L 581 3500 
L 1159 3500 
L 1159 2956 
Q 1366 3272 1645 3428 
Q 1925 3584 2291 3584 
Q 2894 3584 3203 3211 
Q 3513 2838 3513 2113 
z
" id="DejaVuSans-6e" transform="scale(0.015625)"/>
       <path d="M 1172 4494 
L 1172 3500 
L 2356 3500 
L 2356 3053 
L 1172 3053 
L 1172 1153 
Q 1172 725 1289 603 
Q 1406 481 1766 481 
L 2356 481 
L 2356 0 
L 1766 0 
Q 1100 0 847 248 
Q 594 497 594 1153 
L 594 3053 
L 172 3053 
L 172 3500 
L 594 3500 
L 594 4494 
L 1172 4494 
z
" id="DejaVuSans-74" transform="scale(0.015625)"/>
       <path d="M 3597 1894 
L 3597 1613 
L 953 1613 
Q 991 1019 1311 708 
Q 1631 397 2203 397 
Q 2534 397 2845 478 
Q 3156 559 3463 722 
L 3463 178 
Q 3153 47 2828 -22 
Q 2503 -91 2169 -91 
Q 1331 -91 842 396 
Q 353 884 353 1716 
Q 353 2575 817 3079 
Q 1281 3584 2069 3584 
Q 2775 3584 3186 3129 
Q 3597 2675 3597 1894 
z
M 3022 2063 
Q 3016 2534 2758 2815 
Q 2500 3097 2075 3097 
Q 1594 3097 1305 2825 
Q 1016 2553 972 2059 
L 3022 2063 
z
" id="DejaVuSans-65" transform="scale(0.015625)"/>
       <path d="M 3122 3366 
L 3122 2828 
Q 2878 2963 2633 3030 
Q 2388 3097 2138 3097 
Q 1578 3097 1268 2742 
Q 959 2388 959 1747 
Q 959 1106 1268 751 
Q 1578 397 2138 397 
Q 2388 397 2633 464 
Q 2878 531 3122 666 
L 3122 134 
Q 2881 22 2623 -34 
Q 2366 -91 2075 -91 
Q 1284 -91 818 406 
Q 353 903 353 1747 
Q 353 2603 823 3093 
Q 1294 3584 2113 3584 
Q 2378 3584 2631 3529 
Q 2884 3475 3122 3366 
z
" id="DejaVuSans-63" transform="scale(0.015625)"/>
       <path d="M 1159 525 
L 1159 -1331 
L 581 -1331 
L 581 3500 
L 1159 3500 
L 1159 2969 
Q 1341 3281 1617 3432 
Q 1894 3584 2278 3584 
Q 2916 3584 3314 3078 
Q 3713 2572 3713 1747 
Q 3713 922 3314 415 
Q 2916 -91 2278 -91 
Q 1894 -91 1617 61 
Q 1341 213 1159 525 
z
M 3116 1747 
Q 3116 2381 2855 2742 
Q 2594 3103 2138 3103 
Q 1681 3103 1420 2742 
Q 1159 2381 1159 1747 
Q 1159 1113 1420 752 
Q 1681 391 2138 391 
Q 2594 391 2855 752 
Q 3116 1113 3116 1747 
z
" id="DejaVuSans-70" transform="scale(0.015625)"/>
      </defs>
      <use xlink:href="#DejaVuSans-49"/>
      <use x="29.492188" xlink:href="#DejaVuSans-6e"/>
      <use x="92.871094" xlink:href="#DejaVuSans-74"/>
      <use x="132.080078" xlink:href="#DejaVuSans-65"/>
      <use x="193.603516" xlink:href="#DejaVuSans-72"/>
      <use x="232.466797" xlink:href="#DejaVuSans-63"/>
      <use x="287.447266" xlink:href="#DejaVuSans-65"/>
      <use x="348.970703" xlink:href="#DejaVuSans-70"/>
      <use x="412.447266" xlink:href="#DejaVuSans-74"/>
     </g>
    </g>
   </g>
   <g id="line2d_16">
    <path clip-path="url(#p38bde532c0)" d="M 59.465557 136.989239 
L 65.10192 162.421853 
L 70.738284 156.193473 
L 76.374648 166.646959 
L 82.011011 178.713334 
L 87.647375 171.551854 
L 93.283739 175.615902 
L 98.920102 164.421678 
L 104.556466 164.010634 
L 110.19283 157.917033 
L 115.829193 156.799468 
L 121.465557 157.305675 
L 127.10192 87.880665 
L 132.738284 118.458551 
L 138.374648 90.68499 
L 144.011011 101.274875 
L 149.647375 120.597672 
L 155.283739 105.251994 
L 160.920102 102.304961 
L 166.556466 88.04242 
L 172.19283 132.145996 
L 177.829193 131.598781 
L 183.465557 140.71479 
L 189.10192 133.724898 
L 194.738284 144.388975 
L 200.374648 152.339585 
L 206.011011 134.238708 
L 211.647375 144.566277 
L 217.283739 138.441859 
L 222.920102 100.399893 
L 228.556466 115.506335 
L 234.19283 125.542698 
L 239.829193 118.0595 
L 245.465557 136.741516 
L 251.10192 139.206212 
L 256.738284 140.365453 
L 262.374648 132.296785 
L 268.011011 124.224057 
L 273.647375 122.584862 
L 279.283739 118.913914 
L 284.920102 133.533573 
L 290.556466 149.907951 
L 296.19283 145.960931 
L 301.829193 151.172723 
L 307.465557 155.271561 
L 313.10192 162.478184 
L 318.738284 162.944928 
L 324.374648 164.458403 
L 330.011011 168.315568 
L 335.647375 169.6414 
L 341.283739 171.645841 
L 346.920102 178.309279 
L 352.556466 168.559342 
L 358.19283 195.869881 
L 363.829193 201.737865 
" style="fill:none;stroke:#721f81;stroke-linecap:square;stroke-width:2;"/>
   </g>
   <g id="line2d_17">
    <path clip-path="url(#p38bde532c0)" d="M 59.465557 120.681046 
L 65.10192 156.418316 
L 70.738284 168.410891 
L 76.374648 149.166063 
L 82.011011 165.636873 
L 87.647375 149.95452 
L 93.283739 159.75468 
L 98.920102 179.838416 
L 104.556466 178.883512 
L 110.19283 181.26137 
L 115.829193 175.591285 
L 121.465557 184.762373 
L 127.10192 76.128067 
L 132.738284 122.014324 
L 138.374648 131.37383 
L 144.011011 137.905693 
L 149.647375 111.567844 
L 155.283739 132.024473 
L 160.920102 110.327812 
L 166.556466 142.362141 
L 172.19283 152.094878 
L 177.829193 147.034507 
L 183.465557 153.409608 
L 189.10192 142.38153 
L 194.738284 141.888105 
L 200.374648 154.101933 
L 206.011011 124.611963 
L 211.647375 151.412109 
L 217.283739 160.146276 
L 222.920102 155.806331 
L 228.556466 153.440103 
L 234.19283 154.809634 
L 239.829193 161.575057 
L 245.465557 154.556561 
L 251.10192 137.309777 
L 256.738284 157.307623 
L 262.374648 154.731697 
L 268.011011 152.976418 
L 273.647375 123.754177 
L 279.283739 148.404753 
L 284.920102 145.344971 
L 290.556466 148.48998 
L 296.19283 150.356312 
L 301.829193 178.201733 
L 307.465557 190.243737 
L 313.10192 196.612578 
L 318.738284 188.152696 
L 324.374648 188.452132 
L 330.011011 198.461391 
L 335.647375 185.932177 
L 341.283739 195.781378 
L 346.920102 196.011492 
L 352.556466 197.67671 
L 358.19283 192.777267 
" style="fill:none;stroke:#f1605d;stroke-linecap:square;stroke-width:2;"/>
   </g>
   <g id="line2d_18"/>
   <g id="line2d_19"/>
   <g id="patch_3">
    <path d="M 44.247375 227.471134 
L 44.247375 10.031134 
" style="fill:none;stroke:#000000;stroke-linecap:square;stroke-linejoin:miter;"/>
   </g>
   <g id="patch_4">
    <path d="M 379.047375 227.471134 
L 379.047375 10.031134 
" style="fill:none;stroke:#000000;stroke-linecap:square;stroke-linejoin:miter;"/>
   </g>
   <g id="patch_5">
    <path d="M 44.247375 227.471134 
L 379.047375 227.471134 
" style="fill:none;stroke:#000000;stroke-linecap:square;stroke-linejoin:miter;"/>
   </g>
   <g id="patch_6">
    <path d="M 44.247375 10.031134 
L 379.047375 10.031134 
" style="fill:none;stroke:#000000;stroke-linecap:square;stroke-linejoin:miter;"/>
   </g>
   <g id="legend_1">
    <g id="patch_7">
     <path d="M 369.367375 21.471134 
L 372.887375 21.471134 
Q 374.647375 21.471134 374.647375 19.711134 
L 374.647375 16.191134 
Q 374.647375 14.431134 372.887375 14.431134 
L 369.367375 14.431134 
Q 367.607375 14.431134 367.607375 16.191134 
L 367.607375 19.711134 
Q 367.607375 21.471134 369.367375 21.471134 
z
" style="fill:#ffffff;opacity:0.8;stroke:#cccccc;stroke-linejoin:miter;stroke-width:0.8;"/>
    </g>
   </g>
  </g>
 </g>
 <defs>
  <clipPath id="p38bde532c0">
   <rect height="217.44" width="334.8" x="44.247375" y="10.031134"/>
  </clipPath>
 </defs>
</svg>
