<?xml version="1.0" encoding="utf-8" standalone="no"?>
<!DOCTYPE svg PUBLIC "-//W3C//DTD SVG 1.1//EN"
  "http://www.w3.org/Graphics/SVG/1.1/DTD/svg11.dtd">
<svg height="266.486415pt" version="1.1" viewBox="0 0 386.247375 266.486415" width="386.247375pt" xmlns="http://www.w3.org/2000/svg" xmlns:xlink="http://www.w3.org/1999/xlink">
 <metadata>
  <rdf:RDF xmlns:cc="http://creativecommons.org/ns#" xmlns:dc="http://purl.org/dc/elements/1.1/" xmlns:rdf="http://www.w3.org/1999/02/22-rdf-syntax-ns#">
   <cc:Work>
    <dc:type rdf:resource="http://purl.org/dc/dcmitype/StillImage"/>
    <dc:date>2022-04-29T16:09:23.107639</dc:date>
    <dc:format>image/svg+xml</dc:format>
    <dc:creator>
     <cc:Agent>
      <dc:title>Matplotlib v3.4.3, https://matplotlib.org/</dc:title>
     </cc:Agent>
    </dc:creator>
   </cc:Work>
  </rdf:RDF>
 </metadata>
 <defs>
  <style type="text/css">*{stroke-linecap:butt;stroke-linejoin:round;}</style>
 </defs>
 <g id="figure_1">
  <g id="patch_1">
   <path d="M 0 266.486415 
L 386.247375 266.486415 
L 386.247375 0 
L 0 0 
z
" style="fill:none;"/>
  </g>
  <g id="axes_1">
   <g id="patch_2">
    <path d="M 44.247375 224.92029 
L 379.047375 224.92029 
L 379.047375 7.48029 
L 44.247375 7.48029 
z
" style="fill:#ffffff;"/>
   </g>
   <g id="PolyCollection_1">
    <defs>
     <path d="M 59.465557 -164.143371 
L 59.465557 -115.903594 
L 65.208267 -96.203069 
L 70.950977 -117.000141 
L 76.693687 -94.987487 
L 82.436397 -102.133849 
L 88.179107 -105.901341 
L 93.921818 -94.69114 
L 99.664528 -97.306247 
L 105.407238 -104.562681 
L 111.149948 -108.386141 
L 116.892658 -82.561866 
L 122.635368 -83.043708 
L 128.378078 -214.565318 
L 134.120788 -192.236207 
L 139.863498 -189.98278 
L 145.606209 -156.591584 
L 151.348919 -163.986759 
L 157.091629 -156.617727 
L 162.834339 -158.745038 
L 168.577049 -159.273339 
L 174.319759 -148.390449 
L 180.062469 -163.625015 
L 185.805179 -139.557477 
L 191.54789 -131.310343 
L 197.2906 -135.671695 
L 203.03331 -132.198179 
L 208.77602 -141.291092 
L 214.51873 -119.112654 
L 220.26144 -132.430254 
L 226.00415 -178.122925 
L 231.74686 -162.334938 
L 237.489571 -173.419984 
L 243.232281 -139.532232 
L 248.974991 -122.261679 
L 254.717701 -144.612358 
L 260.460411 -124.616468 
L 266.203121 -165.092494 
L 271.945831 -150.128838 
L 277.688541 -138.921626 
L 283.431252 -162.262259 
L 289.173962 -161.561634 
L 294.916672 -144.020914 
L 300.659382 -118.472924 
L 306.402092 -90.229338 
L 312.144802 -85.763924 
L 317.887512 -82.902641 
L 323.630222 -75.425001 
L 329.372932 -76.793196 
L 335.115643 -75.934272 
L 340.858353 -85.630806 
L 346.601063 -79.021955 
L 352.343773 -68.027471 
L 358.086483 -93.994239 
L 358.086483 -107.533628 
L 358.086483 -107.533628 
L 352.343773 -86.314928 
L 346.601063 -91.164745 
L 340.858353 -98.604613 
L 335.115643 -89.464618 
L 329.372932 -89.335966 
L 323.630222 -90.377647 
L 317.887512 -97.125273 
L 312.144802 -109.791728 
L 306.402092 -101.428165 
L 300.659382 -130.2224 
L 294.916672 -169.289106 
L 289.173962 -190.755726 
L 283.431252 -219.737232 
L 277.688541 -189.333503 
L 271.945831 -182.503096 
L 266.203121 -199.238159 
L 260.460411 -183.551432 
L 254.717701 -206.907189 
L 248.974991 -168.237184 
L 243.232281 -216.49034 
L 237.489571 -227.297469 
L 231.74686 -202.882505 
L 226.00415 -214.409107 
L 220.26144 -167.13368 
L 214.51873 -185.740226 
L 208.77602 -208.533543 
L 203.03331 -181.879608 
L 197.2906 -162.190949 
L 191.54789 -164.896212 
L 185.805179 -165.376245 
L 180.062469 -181.905656 
L 174.319759 -195.067194 
L 168.577049 -238.358551 
L 162.834339 -212.15352 
L 157.091629 -213.398694 
L 151.348919 -207.892528 
L 145.606209 -217.545014 
L 139.863498 -219.364437 
L 134.120788 -239.120562 
L 128.378078 -249.122489 
L 122.635368 -93.407905 
L 116.892658 -101.4458 
L 111.149948 -183.489847 
L 105.407238 -136.209723 
L 99.664528 -174.97105 
L 93.921818 -113.845907 
L 88.179107 -132.235244 
L 82.436397 -119.375388 
L 76.693687 -118.345777 
L 70.950977 -143.043237 
L 65.208267 -127.772018 
L 59.465557 -164.143371 
z
" id="m15d3aa0741" style="stroke:#721f81;stroke-opacity:0.2;stroke-width:0.8;"/>
    </defs>
    <g clip-path="url(#p32c90aa858)">
     <use style="fill:#721f81;fill-opacity:0.2;stroke:#721f81;stroke-opacity:0.2;stroke-width:0.8;" x="0" xlink:href="#m15d3aa0741" y="266.486415"/>
    </g>
   </g>
   <g id="PolyCollection_2">
    <defs>
     <path d="M 59.465557 -172.573988 
L 59.465557 -111.737143 
L 65.208267 -106.590737 
L 70.950977 -94.562388 
L 76.693687 -98.601888 
L 82.436397 -84.982589 
L 88.179107 -75.496389 
L 93.921818 -102.920832 
L 99.664528 -64.864165 
L 105.407238 -78.712551 
L 111.149948 -68.28965 
L 116.892658 -67.05071 
L 122.635368 -56.470283 
L 128.378078 -146.91911 
L 134.120788 -106.37102 
L 139.863498 -85.430678 
L 145.606209 -91.75874 
L 151.348919 -69.352241 
L 157.091629 -51.449761 
L 162.834339 -73.188519 
L 168.577049 -119.386727 
L 174.319759 -85.617937 
L 180.062469 -109.529901 
L 185.805179 -92.917381 
L 191.54789 -111.995729 
L 197.2906 -79.790252 
L 203.03331 -93.770861 
L 208.77602 -78.745382 
L 214.51873 -79.357605 
L 220.26144 -76.197603 
L 226.00415 -80.355591 
L 231.74686 -81.676617 
L 237.489571 -104.962673 
L 243.232281 -90.52414 
L 248.974991 -94.025521 
L 254.717701 -117.798698 
L 260.460411 -70.096931 
L 266.203121 -89.097079 
L 271.945831 -98.658382 
L 277.688541 -94.856981 
L 283.431252 -96.96264 
L 289.173962 -84.13942 
L 294.916672 -87.191328 
L 300.659382 -81.488279 
L 306.402092 -81.845188 
L 312.144802 -66.927025 
L 317.887512 -66.083414 
L 323.630222 -63.513234 
L 329.372932 -56.267849 
L 335.115643 -61.986989 
L 340.858353 -57.106477 
L 346.601063 -60.02437 
L 352.343773 -63.575323 
L 358.086483 -60.75863 
L 358.086483 -80.417989 
L 358.086483 -80.417989 
L 352.343773 -80.792161 
L 346.601063 -84.81435 
L 340.858353 -85.917732 
L 335.115643 -69.047865 
L 329.372932 -64.340704 
L 323.630222 -94.764748 
L 317.887512 -89.059638 
L 312.144802 -93.33839 
L 306.402092 -135.505428 
L 300.659382 -108.986833 
L 294.916672 -120.052545 
L 289.173962 -149.667605 
L 283.431252 -150.896339 
L 277.688541 -147.434007 
L 271.945831 -141.821319 
L 266.203121 -148.992788 
L 260.460411 -224.981263 
L 254.717701 -188.637472 
L 248.974991 -160.125061 
L 243.232281 -110.326221 
L 237.489571 -133.514232 
L 231.74686 -107.744293 
L 226.00415 -90.498182 
L 220.26144 -77.81639 
L 214.51873 -129.010618 
L 208.77602 -147.964131 
L 203.03331 -157.500261 
L 197.2906 -143.744264 
L 191.54789 -167.630998 
L 185.805179 -161.465845 
L 180.062469 -162.847823 
L 174.319759 -162.934744 
L 168.577049 -160.73349 
L 162.834339 -201.788157 
L 157.091629 -145.476457 
L 151.348919 -143.95735 
L 145.606209 -165.97081 
L 139.863498 -179.423537 
L 134.120788 -197.04747 
L 128.378078 -214.834145 
L 122.635368 -87.090799 
L 116.892658 -90.89925 
L 111.149948 -109.445138 
L 105.407238 -124.81243 
L 99.664528 -93.329533 
L 93.921818 -224.828476 
L 88.179107 -210.905087 
L 82.436397 -125.038914 
L 76.693687 -141.956922 
L 70.950977 -128.021103 
L 65.208267 -130.26879 
L 59.465557 -172.573988 
z
" id="m3f80fbe47b" style="stroke:#f1605d;stroke-opacity:0.2;stroke-width:0.8;"/>
    </defs>
    <g clip-path="url(#p32c90aa858)">
     <use style="fill:#f1605d;fill-opacity:0.2;stroke:#f1605d;stroke-opacity:0.2;stroke-width:0.8;" x="0" xlink:href="#m3f80fbe47b" y="266.486415"/>
    </g>
   </g>
   <g id="matplotlib.axis_1">
    <g id="xtick_1">
     <g id="line2d_1">
      <defs>
       <path d="M 0 0 
L 0 4.8 
" id="ma167ac62c8" style="stroke:#000000;"/>
      </defs>
      <g>
       <use style="stroke:#000000;" x="59.465557" xlink:href="#ma167ac62c8" y="224.92029"/>
      </g>
     </g>
     <g id="text_1">
      <!-- 0 -->
      <g transform="translate(56.666057 239.906915)scale(0.088 -0.088)">
       <defs>
        <path d="M 2034 4250 
Q 1547 4250 1301 3770 
Q 1056 3291 1056 2328 
Q 1056 1369 1301 889 
Q 1547 409 2034 409 
Q 2525 409 2770 889 
Q 3016 1369 3016 2328 
Q 3016 3291 2770 3770 
Q 2525 4250 2034 4250 
z
M 2034 4750 
Q 2819 4750 3233 4129 
Q 3647 3509 3647 2328 
Q 3647 1150 3233 529 
Q 2819 -91 2034 -91 
Q 1250 -91 836 529 
Q 422 1150 422 2328 
Q 422 3509 836 4129 
Q 1250 4750 2034 4750 
z
" id="DejaVuSans-30" transform="scale(0.015625)"/>
       </defs>
       <use xlink:href="#DejaVuSans-30"/>
      </g>
     </g>
    </g>
    <g id="xtick_2">
     <g id="line2d_2">
      <g>
       <use style="stroke:#000000;" x="116.892658" xlink:href="#ma167ac62c8" y="224.92029"/>
      </g>
     </g>
     <g id="text_2">
      <!-- 10 -->
      <g transform="translate(111.293658 239.906915)scale(0.088 -0.088)">
       <defs>
        <path d="M 794 531 
L 1825 531 
L 1825 4091 
L 703 3866 
L 703 4441 
L 1819 4666 
L 2450 4666 
L 2450 531 
L 3481 531 
L 3481 0 
L 794 0 
L 794 531 
z
" id="DejaVuSans-31" transform="scale(0.015625)"/>
       </defs>
       <use xlink:href="#DejaVuSans-31"/>
       <use x="63.623047" xlink:href="#DejaVuSans-30"/>
      </g>
     </g>
    </g>
    <g id="xtick_3">
     <g id="line2d_3">
      <g>
       <use style="stroke:#000000;" x="174.319759" xlink:href="#ma167ac62c8" y="224.92029"/>
      </g>
     </g>
     <g id="text_3">
      <!-- 20 -->
      <g transform="translate(168.720759 239.906915)scale(0.088 -0.088)">
       <defs>
        <path d="M 1228 531 
L 3431 531 
L 3431 0 
L 469 0 
L 469 531 
Q 828 903 1448 1529 
Q 2069 2156 2228 2338 
Q 2531 2678 2651 2914 
Q 2772 3150 2772 3378 
Q 2772 3750 2511 3984 
Q 2250 4219 1831 4219 
Q 1534 4219 1204 4116 
Q 875 4013 500 3803 
L 500 4441 
Q 881 4594 1212 4672 
Q 1544 4750 1819 4750 
Q 2544 4750 2975 4387 
Q 3406 4025 3406 3419 
Q 3406 3131 3298 2873 
Q 3191 2616 2906 2266 
Q 2828 2175 2409 1742 
Q 1991 1309 1228 531 
z
" id="DejaVuSans-32" transform="scale(0.015625)"/>
       </defs>
       <use xlink:href="#DejaVuSans-32"/>
       <use x="63.623047" xlink:href="#DejaVuSans-30"/>
      </g>
     </g>
    </g>
    <g id="xtick_4">
     <g id="line2d_4">
      <g>
       <use style="stroke:#000000;" x="231.74686" xlink:href="#ma167ac62c8" y="224.92029"/>
      </g>
     </g>
     <g id="text_4">
      <!-- 30 -->
      <g transform="translate(226.14786 239.906915)scale(0.088 -0.088)">
       <defs>
        <path d="M 2597 2516 
Q 3050 2419 3304 2112 
Q 3559 1806 3559 1356 
Q 3559 666 3084 287 
Q 2609 -91 1734 -91 
Q 1441 -91 1130 -33 
Q 819 25 488 141 
L 488 750 
Q 750 597 1062 519 
Q 1375 441 1716 441 
Q 2309 441 2620 675 
Q 2931 909 2931 1356 
Q 2931 1769 2642 2001 
Q 2353 2234 1838 2234 
L 1294 2234 
L 1294 2753 
L 1863 2753 
Q 2328 2753 2575 2939 
Q 2822 3125 2822 3475 
Q 2822 3834 2567 4026 
Q 2313 4219 1838 4219 
Q 1578 4219 1281 4162 
Q 984 4106 628 3988 
L 628 4550 
Q 988 4650 1302 4700 
Q 1616 4750 1894 4750 
Q 2613 4750 3031 4423 
Q 3450 4097 3450 3541 
Q 3450 3153 3228 2886 
Q 3006 2619 2597 2516 
z
" id="DejaVuSans-33" transform="scale(0.015625)"/>
       </defs>
       <use xlink:href="#DejaVuSans-33"/>
       <use x="63.623047" xlink:href="#DejaVuSans-30"/>
      </g>
     </g>
    </g>
    <g id="xtick_5">
     <g id="line2d_5">
      <g>
       <use style="stroke:#000000;" x="289.173962" xlink:href="#ma167ac62c8" y="224.92029"/>
      </g>
     </g>
     <g id="text_5">
      <!-- 40 -->
      <g transform="translate(283.574962 239.906915)scale(0.088 -0.088)">
       <defs>
        <path d="M 2419 4116 
L 825 1625 
L 2419 1625 
L 2419 4116 
z
M 2253 4666 
L 3047 4666 
L 3047 1625 
L 3713 1625 
L 3713 1100 
L 3047 1100 
L 3047 0 
L 2419 0 
L 2419 1100 
L 313 1100 
L 313 1709 
L 2253 4666 
z
" id="DejaVuSans-34" transform="scale(0.015625)"/>
       </defs>
       <use xlink:href="#DejaVuSans-34"/>
       <use x="63.623047" xlink:href="#DejaVuSans-30"/>
      </g>
     </g>
    </g>
    <g id="xtick_6">
     <g id="line2d_6">
      <g>
       <use style="stroke:#000000;" x="346.601063" xlink:href="#ma167ac62c8" y="224.92029"/>
      </g>
     </g>
     <g id="text_6">
      <!-- 50 -->
      <g transform="translate(341.002063 239.906915)scale(0.088 -0.088)">
       <defs>
        <path d="M 691 4666 
L 3169 4666 
L 3169 4134 
L 1269 4134 
L 1269 2991 
Q 1406 3038 1543 3061 
Q 1681 3084 1819 3084 
Q 2600 3084 3056 2656 
Q 3513 2228 3513 1497 
Q 3513 744 3044 326 
Q 2575 -91 1722 -91 
Q 1428 -91 1123 -41 
Q 819 9 494 109 
L 494 744 
Q 775 591 1075 516 
Q 1375 441 1709 441 
Q 2250 441 2565 725 
Q 2881 1009 2881 1497 
Q 2881 1984 2565 2268 
Q 2250 2553 1709 2553 
Q 1456 2553 1204 2497 
Q 953 2441 691 2322 
L 691 4666 
z
" id="DejaVuSans-35" transform="scale(0.015625)"/>
       </defs>
       <use xlink:href="#DejaVuSans-35"/>
       <use x="63.623047" xlink:href="#DejaVuSans-30"/>
      </g>
     </g>
    </g>
    <g id="text_7">
     <!-- Trial -->
     <g transform="translate(197.347687 256.374853)scale(0.14 -0.14)">
      <defs>
       <path d="M -19 4666 
L 3928 4666 
L 3928 4134 
L 2272 4134 
L 2272 0 
L 1638 0 
L 1638 4134 
L -19 4134 
L -19 4666 
z
" id="DejaVuSans-54" transform="scale(0.015625)"/>
       <path d="M 2631 2963 
Q 2534 3019 2420 3045 
Q 2306 3072 2169 3072 
Q 1681 3072 1420 2755 
Q 1159 2438 1159 1844 
L 1159 0 
L 581 0 
L 581 3500 
L 1159 3500 
L 1159 2956 
Q 1341 3275 1631 3429 
Q 1922 3584 2338 3584 
Q 2397 3584 2469 3576 
Q 2541 3569 2628 3553 
L 2631 2963 
z
" id="DejaVuSans-72" transform="scale(0.015625)"/>
       <path d="M 603 3500 
L 1178 3500 
L 1178 0 
L 603 0 
L 603 3500 
z
M 603 4863 
L 1178 4863 
L 1178 4134 
L 603 4134 
L 603 4863 
z
" id="DejaVuSans-69" transform="scale(0.015625)"/>
       <path d="M 2194 1759 
Q 1497 1759 1228 1600 
Q 959 1441 959 1056 
Q 959 750 1161 570 
Q 1363 391 1709 391 
Q 2188 391 2477 730 
Q 2766 1069 2766 1631 
L 2766 1759 
L 2194 1759 
z
M 3341 1997 
L 3341 0 
L 2766 0 
L 2766 531 
Q 2569 213 2275 61 
Q 1981 -91 1556 -91 
Q 1019 -91 701 211 
Q 384 513 384 1019 
Q 384 1609 779 1909 
Q 1175 2209 1959 2209 
L 2766 2209 
L 2766 2266 
Q 2766 2663 2505 2880 
Q 2244 3097 1772 3097 
Q 1472 3097 1187 3025 
Q 903 2953 641 2809 
L 641 3341 
Q 956 3463 1253 3523 
Q 1550 3584 1831 3584 
Q 2591 3584 2966 3190 
Q 3341 2797 3341 1997 
z
" id="DejaVuSans-61" transform="scale(0.015625)"/>
       <path d="M 603 4863 
L 1178 4863 
L 1178 0 
L 603 0 
L 603 4863 
z
" id="DejaVuSans-6c" transform="scale(0.015625)"/>
      </defs>
      <use xlink:href="#DejaVuSans-54"/>
      <use x="46.333984" xlink:href="#DejaVuSans-72"/>
      <use x="87.447266" xlink:href="#DejaVuSans-69"/>
      <use x="115.230469" xlink:href="#DejaVuSans-61"/>
      <use x="176.509766" xlink:href="#DejaVuSans-6c"/>
     </g>
    </g>
   </g>
   <g id="matplotlib.axis_2">
    <g id="ytick_1">
     <g id="line2d_7">
      <defs>
       <path d="M 0 0 
L -4.8 0 
" id="m916ef74741" style="stroke:#000000;"/>
      </defs>
      <g>
       <use style="stroke:#000000;" x="44.247375" xlink:href="#m916ef74741" y="210.17452"/>
      </g>
     </g>
     <g id="text_8">
      <!-- 10 -->
      <g transform="translate(24.749375 213.517833)scale(0.088 -0.088)">
       <use xlink:href="#DejaVuSans-31"/>
       <use x="63.623047" xlink:href="#DejaVuSans-30"/>
      </g>
     </g>
    </g>
    <g id="ytick_2">
     <g id="line2d_8">
      <g>
       <use style="stroke:#000000;" x="44.247375" xlink:href="#m916ef74741" y="181.655776"/>
      </g>
     </g>
     <g id="text_9">
      <!-- 15 -->
      <g transform="translate(24.749375 184.999089)scale(0.088 -0.088)">
       <use xlink:href="#DejaVuSans-31"/>
       <use x="63.623047" xlink:href="#DejaVuSans-35"/>
      </g>
     </g>
    </g>
    <g id="ytick_3">
     <g id="line2d_9">
      <g>
       <use style="stroke:#000000;" x="44.247375" xlink:href="#m916ef74741" y="153.137032"/>
      </g>
     </g>
     <g id="text_10">
      <!-- 20 -->
      <g transform="translate(24.749375 156.480345)scale(0.088 -0.088)">
       <use xlink:href="#DejaVuSans-32"/>
       <use x="63.623047" xlink:href="#DejaVuSans-30"/>
      </g>
     </g>
    </g>
    <g id="ytick_4">
     <g id="line2d_10">
      <g>
       <use style="stroke:#000000;" x="44.247375" xlink:href="#m916ef74741" y="124.618288"/>
      </g>
     </g>
     <g id="text_11">
      <!-- 25 -->
      <g transform="translate(24.749375 127.961601)scale(0.088 -0.088)">
       <use xlink:href="#DejaVuSans-32"/>
       <use x="63.623047" xlink:href="#DejaVuSans-35"/>
      </g>
     </g>
    </g>
    <g id="ytick_5">
     <g id="line2d_11">
      <g>
       <use style="stroke:#000000;" x="44.247375" xlink:href="#m916ef74741" y="96.099544"/>
      </g>
     </g>
     <g id="text_12">
      <!-- 30 -->
      <g transform="translate(24.749375 99.442857)scale(0.088 -0.088)">
       <use xlink:href="#DejaVuSans-33"/>
       <use x="63.623047" xlink:href="#DejaVuSans-30"/>
      </g>
     </g>
    </g>
    <g id="ytick_6">
     <g id="line2d_12">
      <g>
       <use style="stroke:#000000;" x="44.247375" xlink:href="#m916ef74741" y="67.5808"/>
      </g>
     </g>
     <g id="text_13">
      <!-- 35 -->
      <g transform="translate(24.749375 70.924113)scale(0.088 -0.088)">
       <use xlink:href="#DejaVuSans-33"/>
       <use x="63.623047" xlink:href="#DejaVuSans-35"/>
      </g>
     </g>
    </g>
    <g id="ytick_7">
     <g id="line2d_13">
      <g>
       <use style="stroke:#000000;" x="44.247375" xlink:href="#m916ef74741" y="39.062056"/>
      </g>
     </g>
     <g id="text_14">
      <!-- 40 -->
      <g transform="translate(24.749375 42.405369)scale(0.088 -0.088)">
       <use xlink:href="#DejaVuSans-34"/>
       <use x="63.623047" xlink:href="#DejaVuSans-30"/>
      </g>
     </g>
    </g>
    <g id="ytick_8">
     <g id="line2d_14">
      <g>
       <use style="stroke:#000000;" x="44.247375" xlink:href="#m916ef74741" y="10.543313"/>
      </g>
     </g>
     <g id="text_15">
      <!-- 45 -->
      <g transform="translate(24.749375 13.886625)scale(0.088 -0.088)">
       <use xlink:href="#DejaVuSans-34"/>
       <use x="63.623047" xlink:href="#DejaVuSans-35"/>
      </g>
     </g>
    </g>
    <g id="text_16">
     <!-- MAE (Degrees) -->
     <g transform="translate(17.837813 168.260603)rotate(-90)scale(0.14 -0.14)">
      <defs>
       <path d="M 628 4666 
L 1569 4666 
L 2759 1491 
L 3956 4666 
L 4897 4666 
L 4897 0 
L 4281 0 
L 4281 4097 
L 3078 897 
L 2444 897 
L 1241 4097 
L 1241 0 
L 628 0 
L 628 4666 
z
" id="DejaVuSans-4d" transform="scale(0.015625)"/>
       <path d="M 2188 4044 
L 1331 1722 
L 3047 1722 
L 2188 4044 
z
M 1831 4666 
L 2547 4666 
L 4325 0 
L 3669 0 
L 3244 1197 
L 1141 1197 
L 716 0 
L 50 0 
L 1831 4666 
z
" id="DejaVuSans-41" transform="scale(0.015625)"/>
       <path d="M 628 4666 
L 3578 4666 
L 3578 4134 
L 1259 4134 
L 1259 2753 
L 3481 2753 
L 3481 2222 
L 1259 2222 
L 1259 531 
L 3634 531 
L 3634 0 
L 628 0 
L 628 4666 
z
" id="DejaVuSans-45" transform="scale(0.015625)"/>
       <path id="DejaVuSans-20" transform="scale(0.015625)"/>
       <path d="M 1984 4856 
Q 1566 4138 1362 3434 
Q 1159 2731 1159 2009 
Q 1159 1288 1364 580 
Q 1569 -128 1984 -844 
L 1484 -844 
Q 1016 -109 783 600 
Q 550 1309 550 2009 
Q 550 2706 781 3412 
Q 1013 4119 1484 4856 
L 1984 4856 
z
" id="DejaVuSans-28" transform="scale(0.015625)"/>
       <path d="M 1259 4147 
L 1259 519 
L 2022 519 
Q 2988 519 3436 956 
Q 3884 1394 3884 2338 
Q 3884 3275 3436 3711 
Q 2988 4147 2022 4147 
L 1259 4147 
z
M 628 4666 
L 1925 4666 
Q 3281 4666 3915 4102 
Q 4550 3538 4550 2338 
Q 4550 1131 3912 565 
Q 3275 0 1925 0 
L 628 0 
L 628 4666 
z
" id="DejaVuSans-44" transform="scale(0.015625)"/>
       <path d="M 3597 1894 
L 3597 1613 
L 953 1613 
Q 991 1019 1311 708 
Q 1631 397 2203 397 
Q 2534 397 2845 478 
Q 3156 559 3463 722 
L 3463 178 
Q 3153 47 2828 -22 
Q 2503 -91 2169 -91 
Q 1331 -91 842 396 
Q 353 884 353 1716 
Q 353 2575 817 3079 
Q 1281 3584 2069 3584 
Q 2775 3584 3186 3129 
Q 3597 2675 3597 1894 
z
M 3022 2063 
Q 3016 2534 2758 2815 
Q 2500 3097 2075 3097 
Q 1594 3097 1305 2825 
Q 1016 2553 972 2059 
L 3022 2063 
z
" id="DejaVuSans-65" transform="scale(0.015625)"/>
       <path d="M 2906 1791 
Q 2906 2416 2648 2759 
Q 2391 3103 1925 3103 
Q 1463 3103 1205 2759 
Q 947 2416 947 1791 
Q 947 1169 1205 825 
Q 1463 481 1925 481 
Q 2391 481 2648 825 
Q 2906 1169 2906 1791 
z
M 3481 434 
Q 3481 -459 3084 -895 
Q 2688 -1331 1869 -1331 
Q 1566 -1331 1297 -1286 
Q 1028 -1241 775 -1147 
L 775 -588 
Q 1028 -725 1275 -790 
Q 1522 -856 1778 -856 
Q 2344 -856 2625 -561 
Q 2906 -266 2906 331 
L 2906 616 
Q 2728 306 2450 153 
Q 2172 0 1784 0 
Q 1141 0 747 490 
Q 353 981 353 1791 
Q 353 2603 747 3093 
Q 1141 3584 1784 3584 
Q 2172 3584 2450 3431 
Q 2728 3278 2906 2969 
L 2906 3500 
L 3481 3500 
L 3481 434 
z
" id="DejaVuSans-67" transform="scale(0.015625)"/>
       <path d="M 2834 3397 
L 2834 2853 
Q 2591 2978 2328 3040 
Q 2066 3103 1784 3103 
Q 1356 3103 1142 2972 
Q 928 2841 928 2578 
Q 928 2378 1081 2264 
Q 1234 2150 1697 2047 
L 1894 2003 
Q 2506 1872 2764 1633 
Q 3022 1394 3022 966 
Q 3022 478 2636 193 
Q 2250 -91 1575 -91 
Q 1294 -91 989 -36 
Q 684 19 347 128 
L 347 722 
Q 666 556 975 473 
Q 1284 391 1588 391 
Q 1994 391 2212 530 
Q 2431 669 2431 922 
Q 2431 1156 2273 1281 
Q 2116 1406 1581 1522 
L 1381 1569 
Q 847 1681 609 1914 
Q 372 2147 372 2553 
Q 372 3047 722 3315 
Q 1072 3584 1716 3584 
Q 2034 3584 2315 3537 
Q 2597 3491 2834 3397 
z
" id="DejaVuSans-73" transform="scale(0.015625)"/>
       <path d="M 513 4856 
L 1013 4856 
Q 1481 4119 1714 3412 
Q 1947 2706 1947 2009 
Q 1947 1309 1714 600 
Q 1481 -109 1013 -844 
L 513 -844 
Q 928 -128 1133 580 
Q 1338 1288 1338 2009 
Q 1338 2731 1133 3434 
Q 928 4138 513 4856 
z
" id="DejaVuSans-29" transform="scale(0.015625)"/>
      </defs>
      <use xlink:href="#DejaVuSans-4d"/>
      <use x="86.279297" xlink:href="#DejaVuSans-41"/>
      <use x="154.6875" xlink:href="#DejaVuSans-45"/>
      <use x="217.871094" xlink:href="#DejaVuSans-20"/>
      <use x="249.658203" xlink:href="#DejaVuSans-28"/>
      <use x="288.671875" xlink:href="#DejaVuSans-44"/>
      <use x="365.673828" xlink:href="#DejaVuSans-65"/>
      <use x="427.197266" xlink:href="#DejaVuSans-67"/>
      <use x="490.673828" xlink:href="#DejaVuSans-72"/>
      <use x="529.537109" xlink:href="#DejaVuSans-65"/>
      <use x="591.060547" xlink:href="#DejaVuSans-65"/>
      <use x="652.583984" xlink:href="#DejaVuSans-73"/>
      <use x="704.683594" xlink:href="#DejaVuSans-29"/>
     </g>
    </g>
   </g>
   <g id="line2d_15">
    <path clip-path="url(#p32c90aa858)" d="M 59.465557 124.755528 
L 65.208267 154.234356 
L 70.950977 136.464727 
L 76.693687 160.412757 
L 82.436397 156.154146 
L 88.179107 147.716806 
L 93.921818 162.487236 
L 99.664528 129.940204 
L 105.407238 146.100213 
L 111.149948 119.928757 
L 116.892658 174.482583 
L 122.635368 178.260609 
L 128.378078 34.642512 
L 134.120788 50.808031 
L 139.863498 63.032678 
L 145.606209 79.418116 
L 151.348919 80.546772 
L 157.091629 81.478205 
L 162.834339 84.123835 
L 168.577049 67.670471 
L 174.319759 93.324153 
L 180.062469 93.72108 
L 185.805179 114.973644 
L 191.54789 118.383138 
L 197.2906 118.144608 
L 203.03331 109.447522 
L 208.77602 92.019508 
L 214.51873 114.059975 
L 220.26144 116.704449 
L 226.00415 69.446348 
L 231.74686 83.502079 
L 237.489571 66.127689 
L 243.232281 88.47513 
L 248.974991 121.236984 
L 254.717701 90.726642 
L 260.460411 112.402466 
L 266.203121 84.321089 
L 271.945831 100.170448 
L 277.688541 102.358851 
L 283.431252 75.597826 
L 289.173962 90.327736 
L 294.916672 110.553507 
L 300.659382 142.138753 
L 306.402092 170.657664 
L 312.144802 168.708589 
L 317.887512 176.472458 
L 323.630222 183.585091 
L 329.372932 183.421834 
L 335.115643 184.31993 
L 340.858353 174.763911 
L 346.601063 181.393065 
L 352.343773 189.567846 
L 358.086483 165.722482 
" style="fill:none;stroke:#721f81;stroke-linecap:square;stroke-width:2;"/>
   </g>
   <g id="line2d_16">
    <path clip-path="url(#p32c90aa858)" d="M 59.465557 124.069706 
L 65.208267 148.174641 
L 70.950977 154.849672 
L 76.693687 147.021254 
L 82.436397 159.365221 
L 88.179107 123.285678 
L 93.921818 102.982031 
L 99.664528 187.389566 
L 105.407238 165.063801 
L 111.149948 177.619021 
L 116.892658 187.511435 
L 122.635368 191.709575 
L 128.378078 85.609788 
L 134.120788 114.77717 
L 139.863498 123.745001 
L 145.606209 137.62164 
L 151.348919 159.83162 
L 157.091629 168.023306 
L 162.834339 128.998077 
L 168.577049 126.426307 
L 174.319759 142.210075 
L 180.062469 130.297553 
L 185.805179 139.294803 
L 191.54789 126.673052 
L 197.2906 155.248428 
L 203.03331 140.588916 
L 208.77602 153.131659 
L 214.51873 162.302304 
L 220.26144 189.479419 
L 226.00415 181.059529 
L 231.74686 171.77596 
L 237.489571 147.247963 
L 243.232281 166.061235 
L 248.974991 139.411124 
L 254.717701 113.26833 
L 260.460411 118.708579 
L 266.203121 147.441482 
L 271.945831 146.246565 
L 277.688541 145.340922 
L 283.431252 142.556926 
L 289.173962 149.582903 
L 294.916672 162.864479 
L 300.659382 171.248859 
L 306.402092 165.357958 
L 312.144802 186.353708 
L 317.887512 188.91489 
L 323.630222 187.347424 
L 329.372932 205.679038 
L 335.115643 200.968988 
L 340.858353 192.138226 
L 346.601063 194.067056 
L 352.343773 194.302674 
L 358.086483 195.898106 
L 363.829193 178.953592 
" style="fill:none;stroke:#f1605d;stroke-linecap:square;stroke-width:2;"/>
   </g>
   <g id="line2d_17"/>
   <g id="line2d_18"/>
   <g id="patch_3">
    <path d="M 44.247375 224.92029 
L 44.247375 7.48029 
" style="fill:none;stroke:#000000;stroke-linecap:square;stroke-linejoin:miter;"/>
   </g>
   <g id="patch_4">
    <path d="M 379.047375 224.92029 
L 379.047375 7.48029 
" style="fill:none;stroke:#000000;stroke-linecap:square;stroke-linejoin:miter;"/>
   </g>
   <g id="patch_5">
    <path d="M 44.247375 224.92029 
L 379.047375 224.92029 
" style="fill:none;stroke:#000000;stroke-linecap:square;stroke-linejoin:miter;"/>
   </g>
   <g id="patch_6">
    <path d="M 44.247375 7.48029 
L 379.047375 7.48029 
" style="fill:none;stroke:#000000;stroke-linecap:square;stroke-linejoin:miter;"/>
   </g>
   <g id="legend_1">
    <g id="patch_7">
     <path d="M 369.367375 18.92029 
L 372.887375 18.92029 
Q 374.647375 18.92029 374.647375 17.16029 
L 374.647375 13.64029 
Q 374.647375 11.88029 372.887375 11.88029 
L 369.367375 11.88029 
Q 367.607375 11.88029 367.607375 13.64029 
L 367.607375 17.16029 
Q 367.607375 18.92029 369.367375 18.92029 
z
" style="fill:#ffffff;opacity:0.8;stroke:#cccccc;stroke-linejoin:miter;stroke-width:0.8;"/>
    </g>
   </g>
  </g>
 </g>
 <defs>
  <clipPath id="p32c90aa858">
   <rect height="217.44" width="334.8" x="44.247375" y="7.48029"/>
  </clipPath>
 </defs>
</svg>
