<?xml version="1.0" encoding="utf-8" standalone="no"?>
<!DOCTYPE svg PUBLIC "-//W3C//DTD SVG 1.1//EN"
  "http://www.w3.org/Graphics/SVG/1.1/DTD/svg11.dtd">
<svg height="267.128607pt" version="1.1" viewBox="0 0 386.247375 267.128607" width="386.247375pt" xmlns="http://www.w3.org/2000/svg" xmlns:xlink="http://www.w3.org/1999/xlink">
 <metadata>
  <rdf:RDF xmlns:cc="http://creativecommons.org/ns#" xmlns:dc="http://purl.org/dc/elements/1.1/" xmlns:rdf="http://www.w3.org/1999/02/22-rdf-syntax-ns#">
   <cc:Work>
    <dc:type rdf:resource="http://purl.org/dc/dcmitype/StillImage"/>
    <dc:date>2022-06-30T13:06:04.124716</dc:date>
    <dc:format>image/svg+xml</dc:format>
    <dc:creator>
     <cc:Agent>
      <dc:title>Matplotlib v3.4.3, https://matplotlib.org/</dc:title>
     </cc:Agent>
    </dc:creator>
   </cc:Work>
  </rdf:RDF>
 </metadata>
 <defs>
  <style type="text/css">*{stroke-linecap:butt;stroke-linejoin:round;}</style>
 </defs>
 <g id="figure_1">
  <g id="patch_1">
   <path d="M 0 267.128607 
L 386.247375 267.128607 
L 386.247375 0 
L 0 0 
z
" style="fill:none;"/>
  </g>
  <g id="axes_1">
   <g id="patch_2">
    <path d="M 44.247375 225.562482 
L 379.047375 225.562482 
L 379.047375 8.122482 
L 44.247375 8.122482 
z
" style="fill:#ffffff;"/>
   </g>
   <g id="PolyCollection_1">
    <defs>
     <path d="M 59.465557 -153.893071 
L 59.465557 -139.529813 
L 65.10192 -103.391841 
L 70.738284 -112.566435 
L 76.374648 -93.39998 
L 82.011011 -82.446438 
L 87.647375 -89.621909 
L 93.283739 -86.06017 
L 98.920102 -96.28609 
L 104.556466 -94.045854 
L 110.19283 -103.577117 
L 115.829193 -102.692175 
L 121.465557 -100.803158 
L 127.10192 -207.495368 
L 132.738284 -162.049271 
L 138.374648 -197.949605 
L 144.011011 -177.84192 
L 149.647375 -161.1747 
L 155.283739 -176.86587 
L 160.920102 -174.563341 
L 166.556466 -190.89629 
L 172.19283 -143.176801 
L 177.829193 -143.970122 
L 183.465557 -125.613473 
L 189.10192 -140.552377 
L 194.738284 -125.545108 
L 200.374648 -114.682079 
L 206.011011 -137.65385 
L 211.647375 -122.418103 
L 217.283739 -124.59073 
L 222.920102 -180.896807 
L 228.556466 -162.691226 
L 234.19283 -146.961661 
L 239.829193 -156.227479 
L 245.465557 -134.050053 
L 251.10192 -127.377462 
L 256.738284 -131.281506 
L 262.374648 -132.117348 
L 268.011011 -142.460545 
L 273.647375 -147.556038 
L 279.283739 -152.163033 
L 284.920102 -138.738659 
L 290.556466 -114.490353 
L 296.19283 -111.399733 
L 301.829193 -101.690115 
L 307.465557 -97.210168 
L 313.10192 -71.493573 
L 318.738284 -75.773957 
L 324.374648 -80.549692 
L 330.011011 -74.191821 
L 335.647375 -70.576635 
L 341.283739 -67.518424 
L 346.920102 -56.131213 
L 352.556466 -79.934912 
L 358.19283 -55.662344 
L 363.829193 -51.449761 
L 363.829193 -51.449761 
L 363.829193 -51.449761 
L 358.19283 -67.345908 
L 352.556466 -115.054917 
L 346.920102 -93.483233 
L 341.283739 -103.847083 
L 335.647375 -107.916099 
L 330.011011 -110.340286 
L 324.374648 -122.45331 
L 318.738284 -118.331965 
L 313.10192 -116.685204 
L 307.465557 -131.709886 
L 301.829193 -140.594915 
L 296.19283 -143.005149 
L 290.556466 -140.550732 
L 284.920102 -161.958836 
L 279.283739 -189.007233 
L 273.647375 -180.684533 
L 268.011011 -179.275724 
L 262.374648 -170.803294 
L 256.738284 -150.721287 
L 251.10192 -155.742018 
L 245.465557 -157.584427 
L 239.829193 -190.490363 
L 234.19283 -177.832528 
L 228.556466 -190.877344 
L 222.920102 -216.494456 
L 217.283739 -158.336386 
L 211.647375 -145.345278 
L 206.011011 -162.166651 
L 200.374648 -132.895887 
L 194.738284 -146.28365 
L 189.10192 -161.429503 
L 183.465557 -152.484571 
L 177.829193 -163.44289 
L 172.19283 -162.46337 
L 166.556466 -246.126422 
L 160.920102 -211.485344 
L 155.283739 -206.923109 
L 149.647375 -180.21691 
L 144.011011 -215.128689 
L 138.374648 -227.349142 
L 132.738284 -184.698873 
L 127.10192 -229.108241 
L 121.465557 -129.521912 
L 115.829193 -129.143437 
L 110.19283 -126.442745 
L 104.556466 -116.37685 
L 98.920102 -113.541146 
L 93.283739 -94.24067 
L 87.647375 -102.183395 
L 82.011011 -87.63834 
L 76.374648 -109.025545 
L 70.738284 -121.978552 
L 65.10192 -114.030968 
L 59.465557 -153.893071 
z
" id="mfabb89d857" style="stroke:#721f81;stroke-opacity:0.2;stroke-width:0.8;"/>
    </defs>
    <g clip-path="url(#pf5a81f8e3c)">
     <use style="fill:#721f81;fill-opacity:0.2;stroke:#721f81;stroke-opacity:0.2;stroke-width:0.8;" x="0" xlink:href="#mfabb89d857" y="267.128607"/>
    </g>
   </g>
   <g id="PolyCollection_2">
    <defs>
     <path d="M 59.465557 -177.571527 
L 59.465557 -161.508265 
L 65.10192 -112.158413 
L 70.738284 -93.502072 
L 76.374648 -116.613135 
L 82.011011 -96.582778 
L 87.647375 -112.353506 
L 93.283739 -95.749728 
L 98.920102 -78.079258 
L 104.556466 -78.601064 
L 110.19283 -75.223537 
L 115.829193 -74.841316 
L 121.465557 -72.33929 
L 127.10192 -219.642088 
L 132.738284 -158.609399 
L 138.374648 -145.358081 
L 144.011011 -136.211936 
L 149.647375 -162.156161 
L 155.283739 -131.838385 
L 160.920102 -163.608234 
L 166.556466 -130.151265 
L 172.19283 -115.394471 
L 177.829193 -120.773867 
L 183.465557 -113.099612 
L 189.10192 -128.319125 
L 194.738284 -129.261841 
L 200.374648 -110.072392 
L 206.011011 -124.043315 
L 211.647375 -112.5777 
L 217.283739 -100.423179 
L 222.920102 -106.200576 
L 228.556466 -109.072063 
L 234.19283 -110.288759 
L 239.829193 -100.306828 
L 245.465557 -108.839582 
L 251.10192 -134.755806 
L 256.738284 -97.191244 
L 262.374648 -111.258051 
L 268.011011 -114.177862 
L 273.647375 -131.807317 
L 279.283739 -119.176039 
L 284.920102 -121.903315 
L 290.556466 -105.788695 
L 296.19283 -112.276426 
L 301.829193 -79.611129 
L 307.465557 -65.098989 
L 313.10192 -54.723859 
L 318.738284 -65.431712 
L 324.374648 -64.643074 
L 330.011011 -52.314563 
L 335.647375 -69.189641 
L 341.283739 -55.872598 
L 346.920102 -56.082346 
L 352.556466 -52.809885 
L 358.19283 -58.117379 
L 358.19283 -69.65197 
L 358.19283 -69.65197 
L 352.556466 -61.517967 
L 346.920102 -63.89526 
L 341.283739 -64.217804 
L 335.647375 -80.795378 
L 330.011011 -60.174301 
L 324.374648 -76.701263 
L 318.738284 -77.703546 
L 313.10192 -62.796337 
L 307.465557 -72.376241 
L 301.829193 -92.954118 
L 296.19283 -138.352746 
L 290.556466 -139.498173 
L 284.920102 -145.311871 
L 279.283739 -139.020342 
L 273.647375 -186.85282 
L 268.011011 -130.796408 
L 262.374648 -128.654952 
L 256.738284 -133.739509 
L 251.10192 -158.029342 
L 245.465557 -129.340886 
L 239.829193 -120.133815 
L 234.19283 -129.355491 
L 228.556466 -132.472593 
L 222.920102 -129.159266 
L 217.283739 -120.30815 
L 211.647375 -134.807357 
L 206.011011 -179.58082 
L 200.374648 -133.236765 
L 194.738284 -148.465251 
L 189.10192 -147.746347 
L 183.465557 -129.928618 
L 177.829193 -141.213246 
L 172.19283 -134.173795 
L 166.556466 -147.278863 
L 160.920102 -204.409842 
L 155.283739 -168.312231 
L 149.647375 -201.783462 
L 144.011011 -154.164968 
L 138.374648 -164.454961 
L 132.738284 -180.406967 
L 127.10192 -249.122489 
L 121.465557 -80.325568 
L 115.829193 -95.982711 
L 110.19283 -86.931285 
L 104.556466 -90.136441 
L 98.920102 -88.180916 
L 93.283739 -124.968872 
L 87.647375 -138.441284 
L 82.011011 -110.661636 
L 76.374648 -137.674042 
L 70.738284 -107.305706 
L 65.10192 -122.026535 
L 59.465557 -177.571527 
z
" id="m36a0dc85e9" style="stroke:#f1605d;stroke-opacity:0.2;stroke-width:0.8;"/>
    </defs>
    <g clip-path="url(#pf5a81f8e3c)">
     <use style="fill:#f1605d;fill-opacity:0.2;stroke:#f1605d;stroke-opacity:0.2;stroke-width:0.8;" x="0" xlink:href="#m36a0dc85e9" y="267.128607"/>
    </g>
   </g>
   <g id="matplotlib.axis_1">
    <g id="xtick_1">
     <g id="line2d_1">
      <defs>
       <path d="M 0 0 
L 0 4.8 
" id="mc343cad99b" style="stroke:#000000;"/>
      </defs>
      <g>
       <use style="stroke:#000000;" x="59.465557" xlink:href="#mc343cad99b" y="225.562482"/>
      </g>
     </g>
     <g id="text_1">
      <!-- 0 -->
      <g transform="translate(56.666057 240.549107)scale(0.088 -0.088)">
       <defs>
        <path d="M 2034 4250 
Q 1547 4250 1301 3770 
Q 1056 3291 1056 2328 
Q 1056 1369 1301 889 
Q 1547 409 2034 409 
Q 2525 409 2770 889 
Q 3016 1369 3016 2328 
Q 3016 3291 2770 3770 
Q 2525 4250 2034 4250 
z
M 2034 4750 
Q 2819 4750 3233 4129 
Q 3647 3509 3647 2328 
Q 3647 1150 3233 529 
Q 2819 -91 2034 -91 
Q 1250 -91 836 529 
Q 422 1150 422 2328 
Q 422 3509 836 4129 
Q 1250 4750 2034 4750 
z
" id="DejaVuSans-30" transform="scale(0.015625)"/>
       </defs>
       <use xlink:href="#DejaVuSans-30"/>
      </g>
     </g>
    </g>
    <g id="xtick_2">
     <g id="line2d_2">
      <g>
       <use style="stroke:#000000;" x="115.829193" xlink:href="#mc343cad99b" y="225.562482"/>
      </g>
     </g>
     <g id="text_2">
      <!-- 10 -->
      <g transform="translate(110.230193 240.549107)scale(0.088 -0.088)">
       <defs>
        <path d="M 794 531 
L 1825 531 
L 1825 4091 
L 703 3866 
L 703 4441 
L 1819 4666 
L 2450 4666 
L 2450 531 
L 3481 531 
L 3481 0 
L 794 0 
L 794 531 
z
" id="DejaVuSans-31" transform="scale(0.015625)"/>
       </defs>
       <use xlink:href="#DejaVuSans-31"/>
       <use x="63.623047" xlink:href="#DejaVuSans-30"/>
      </g>
     </g>
    </g>
    <g id="xtick_3">
     <g id="line2d_3">
      <g>
       <use style="stroke:#000000;" x="172.19283" xlink:href="#mc343cad99b" y="225.562482"/>
      </g>
     </g>
     <g id="text_3">
      <!-- 20 -->
      <g transform="translate(166.59383 240.549107)scale(0.088 -0.088)">
       <defs>
        <path d="M 1228 531 
L 3431 531 
L 3431 0 
L 469 0 
L 469 531 
Q 828 903 1448 1529 
Q 2069 2156 2228 2338 
Q 2531 2678 2651 2914 
Q 2772 3150 2772 3378 
Q 2772 3750 2511 3984 
Q 2250 4219 1831 4219 
Q 1534 4219 1204 4116 
Q 875 4013 500 3803 
L 500 4441 
Q 881 4594 1212 4672 
Q 1544 4750 1819 4750 
Q 2544 4750 2975 4387 
Q 3406 4025 3406 3419 
Q 3406 3131 3298 2873 
Q 3191 2616 2906 2266 
Q 2828 2175 2409 1742 
Q 1991 1309 1228 531 
z
" id="DejaVuSans-32" transform="scale(0.015625)"/>
       </defs>
       <use xlink:href="#DejaVuSans-32"/>
       <use x="63.623047" xlink:href="#DejaVuSans-30"/>
      </g>
     </g>
    </g>
    <g id="xtick_4">
     <g id="line2d_4">
      <g>
       <use style="stroke:#000000;" x="228.556466" xlink:href="#mc343cad99b" y="225.562482"/>
      </g>
     </g>
     <g id="text_4">
      <!-- 30 -->
      <g transform="translate(222.957466 240.549107)scale(0.088 -0.088)">
       <defs>
        <path d="M 2597 2516 
Q 3050 2419 3304 2112 
Q 3559 1806 3559 1356 
Q 3559 666 3084 287 
Q 2609 -91 1734 -91 
Q 1441 -91 1130 -33 
Q 819 25 488 141 
L 488 750 
Q 750 597 1062 519 
Q 1375 441 1716 441 
Q 2309 441 2620 675 
Q 2931 909 2931 1356 
Q 2931 1769 2642 2001 
Q 2353 2234 1838 2234 
L 1294 2234 
L 1294 2753 
L 1863 2753 
Q 2328 2753 2575 2939 
Q 2822 3125 2822 3475 
Q 2822 3834 2567 4026 
Q 2313 4219 1838 4219 
Q 1578 4219 1281 4162 
Q 984 4106 628 3988 
L 628 4550 
Q 988 4650 1302 4700 
Q 1616 4750 1894 4750 
Q 2613 4750 3031 4423 
Q 3450 4097 3450 3541 
Q 3450 3153 3228 2886 
Q 3006 2619 2597 2516 
z
" id="DejaVuSans-33" transform="scale(0.015625)"/>
       </defs>
       <use xlink:href="#DejaVuSans-33"/>
       <use x="63.623047" xlink:href="#DejaVuSans-30"/>
      </g>
     </g>
    </g>
    <g id="xtick_5">
     <g id="line2d_5">
      <g>
       <use style="stroke:#000000;" x="284.920102" xlink:href="#mc343cad99b" y="225.562482"/>
      </g>
     </g>
     <g id="text_5">
      <!-- 40 -->
      <g transform="translate(279.321102 240.549107)scale(0.088 -0.088)">
       <defs>
        <path d="M 2419 4116 
L 825 1625 
L 2419 1625 
L 2419 4116 
z
M 2253 4666 
L 3047 4666 
L 3047 1625 
L 3713 1625 
L 3713 1100 
L 3047 1100 
L 3047 0 
L 2419 0 
L 2419 1100 
L 313 1100 
L 313 1709 
L 2253 4666 
z
" id="DejaVuSans-34" transform="scale(0.015625)"/>
       </defs>
       <use xlink:href="#DejaVuSans-34"/>
       <use x="63.623047" xlink:href="#DejaVuSans-30"/>
      </g>
     </g>
    </g>
    <g id="xtick_6">
     <g id="line2d_6">
      <g>
       <use style="stroke:#000000;" x="341.283739" xlink:href="#mc343cad99b" y="225.562482"/>
      </g>
     </g>
     <g id="text_6">
      <!-- 50 -->
      <g transform="translate(335.684739 240.549107)scale(0.088 -0.088)">
       <defs>
        <path d="M 691 4666 
L 3169 4666 
L 3169 4134 
L 1269 4134 
L 1269 2991 
Q 1406 3038 1543 3061 
Q 1681 3084 1819 3084 
Q 2600 3084 3056 2656 
Q 3513 2228 3513 1497 
Q 3513 744 3044 326 
Q 2575 -91 1722 -91 
Q 1428 -91 1123 -41 
Q 819 9 494 109 
L 494 744 
Q 775 591 1075 516 
Q 1375 441 1709 441 
Q 2250 441 2565 725 
Q 2881 1009 2881 1497 
Q 2881 1984 2565 2268 
Q 2250 2553 1709 2553 
Q 1456 2553 1204 2497 
Q 953 2441 691 2322 
L 691 4666 
z
" id="DejaVuSans-35" transform="scale(0.015625)"/>
       </defs>
       <use xlink:href="#DejaVuSans-35"/>
       <use x="63.623047" xlink:href="#DejaVuSans-30"/>
      </g>
     </g>
    </g>
    <g id="text_7">
     <!-- Trial -->
     <g transform="translate(197.347687 257.017044)scale(0.14 -0.14)">
      <defs>
       <path d="M -19 4666 
L 3928 4666 
L 3928 4134 
L 2272 4134 
L 2272 0 
L 1638 0 
L 1638 4134 
L -19 4134 
L -19 4666 
z
" id="DejaVuSans-54" transform="scale(0.015625)"/>
       <path d="M 2631 2963 
Q 2534 3019 2420 3045 
Q 2306 3072 2169 3072 
Q 1681 3072 1420 2755 
Q 1159 2438 1159 1844 
L 1159 0 
L 581 0 
L 581 3500 
L 1159 3500 
L 1159 2956 
Q 1341 3275 1631 3429 
Q 1922 3584 2338 3584 
Q 2397 3584 2469 3576 
Q 2541 3569 2628 3553 
L 2631 2963 
z
" id="DejaVuSans-72" transform="scale(0.015625)"/>
       <path d="M 603 3500 
L 1178 3500 
L 1178 0 
L 603 0 
L 603 3500 
z
M 603 4863 
L 1178 4863 
L 1178 4134 
L 603 4134 
L 603 4863 
z
" id="DejaVuSans-69" transform="scale(0.015625)"/>
       <path d="M 2194 1759 
Q 1497 1759 1228 1600 
Q 959 1441 959 1056 
Q 959 750 1161 570 
Q 1363 391 1709 391 
Q 2188 391 2477 730 
Q 2766 1069 2766 1631 
L 2766 1759 
L 2194 1759 
z
M 3341 1997 
L 3341 0 
L 2766 0 
L 2766 531 
Q 2569 213 2275 61 
Q 1981 -91 1556 -91 
Q 1019 -91 701 211 
Q 384 513 384 1019 
Q 384 1609 779 1909 
Q 1175 2209 1959 2209 
L 2766 2209 
L 2766 2266 
Q 2766 2663 2505 2880 
Q 2244 3097 1772 3097 
Q 1472 3097 1187 3025 
Q 903 2953 641 2809 
L 641 3341 
Q 956 3463 1253 3523 
Q 1550 3584 1831 3584 
Q 2591 3584 2966 3190 
Q 3341 2797 3341 1997 
z
" id="DejaVuSans-61" transform="scale(0.015625)"/>
       <path d="M 603 4863 
L 1178 4863 
L 1178 0 
L 603 0 
L 603 4863 
z
" id="DejaVuSans-6c" transform="scale(0.015625)"/>
      </defs>
      <use xlink:href="#DejaVuSans-54"/>
      <use x="46.333984" xlink:href="#DejaVuSans-72"/>
      <use x="87.447266" xlink:href="#DejaVuSans-69"/>
      <use x="115.230469" xlink:href="#DejaVuSans-61"/>
      <use x="176.509766" xlink:href="#DejaVuSans-6c"/>
     </g>
    </g>
   </g>
   <g id="matplotlib.axis_2">
    <g id="ytick_1">
     <g id="line2d_7">
      <defs>
       <path d="M 0 0 
L -4.8 0 
" id="mbbae18ee15" style="stroke:#000000;"/>
      </defs>
      <g>
       <use style="stroke:#000000;" x="44.247375" xlink:href="#mbbae18ee15" y="198.110199"/>
      </g>
     </g>
     <g id="text_8">
      <!-- 15 -->
      <g transform="translate(24.749375 201.453512)scale(0.088 -0.088)">
       <use xlink:href="#DejaVuSans-31"/>
       <use x="63.623047" xlink:href="#DejaVuSans-35"/>
      </g>
     </g>
    </g>
    <g id="ytick_2">
     <g id="line2d_8">
      <g>
       <use style="stroke:#000000;" x="44.247375" xlink:href="#mbbae18ee15" y="160.596822"/>
      </g>
     </g>
     <g id="text_9">
      <!-- 20 -->
      <g transform="translate(24.749375 163.940134)scale(0.088 -0.088)">
       <use xlink:href="#DejaVuSans-32"/>
       <use x="63.623047" xlink:href="#DejaVuSans-30"/>
      </g>
     </g>
    </g>
    <g id="ytick_3">
     <g id="line2d_9">
      <g>
       <use style="stroke:#000000;" x="44.247375" xlink:href="#mbbae18ee15" y="123.083445"/>
      </g>
     </g>
     <g id="text_10">
      <!-- 25 -->
      <g transform="translate(24.749375 126.426757)scale(0.088 -0.088)">
       <use xlink:href="#DejaVuSans-32"/>
       <use x="63.623047" xlink:href="#DejaVuSans-35"/>
      </g>
     </g>
    </g>
    <g id="ytick_4">
     <g id="line2d_10">
      <g>
       <use style="stroke:#000000;" x="44.247375" xlink:href="#mbbae18ee15" y="85.570067"/>
      </g>
     </g>
     <g id="text_11">
      <!-- 30 -->
      <g transform="translate(24.749375 88.91338)scale(0.088 -0.088)">
       <use xlink:href="#DejaVuSans-33"/>
       <use x="63.623047" xlink:href="#DejaVuSans-30"/>
      </g>
     </g>
    </g>
    <g id="ytick_5">
     <g id="line2d_11">
      <g>
       <use style="stroke:#000000;" x="44.247375" xlink:href="#mbbae18ee15" y="48.05669"/>
      </g>
     </g>
     <g id="text_12">
      <!-- 35 -->
      <g transform="translate(24.749375 51.400002)scale(0.088 -0.088)">
       <use xlink:href="#DejaVuSans-33"/>
       <use x="63.623047" xlink:href="#DejaVuSans-35"/>
      </g>
     </g>
    </g>
    <g id="ytick_6">
     <g id="line2d_12">
      <g>
       <use style="stroke:#000000;" x="44.247375" xlink:href="#mbbae18ee15" y="10.543313"/>
      </g>
     </g>
     <g id="text_13">
      <!-- 40 -->
      <g transform="translate(24.749375 13.886625)scale(0.088 -0.088)">
       <use xlink:href="#DejaVuSans-34"/>
       <use x="63.623047" xlink:href="#DejaVuSans-30"/>
      </g>
     </g>
    </g>
    <g id="text_14">
     <!-- MAE (Degrees) -->
     <g transform="translate(17.837813 168.902794)rotate(-90)scale(0.14 -0.14)">
      <defs>
       <path d="M 628 4666 
L 1569 4666 
L 2759 1491 
L 3956 4666 
L 4897 4666 
L 4897 0 
L 4281 0 
L 4281 4097 
L 3078 897 
L 2444 897 
L 1241 4097 
L 1241 0 
L 628 0 
L 628 4666 
z
" id="DejaVuSans-4d" transform="scale(0.015625)"/>
       <path d="M 2188 4044 
L 1331 1722 
L 3047 1722 
L 2188 4044 
z
M 1831 4666 
L 2547 4666 
L 4325 0 
L 3669 0 
L 3244 1197 
L 1141 1197 
L 716 0 
L 50 0 
L 1831 4666 
z
" id="DejaVuSans-41" transform="scale(0.015625)"/>
       <path d="M 628 4666 
L 3578 4666 
L 3578 4134 
L 1259 4134 
L 1259 2753 
L 3481 2753 
L 3481 2222 
L 1259 2222 
L 1259 531 
L 3634 531 
L 3634 0 
L 628 0 
L 628 4666 
z
" id="DejaVuSans-45" transform="scale(0.015625)"/>
       <path id="DejaVuSans-20" transform="scale(0.015625)"/>
       <path d="M 1984 4856 
Q 1566 4138 1362 3434 
Q 1159 2731 1159 2009 
Q 1159 1288 1364 580 
Q 1569 -128 1984 -844 
L 1484 -844 
Q 1016 -109 783 600 
Q 550 1309 550 2009 
Q 550 2706 781 3412 
Q 1013 4119 1484 4856 
L 1984 4856 
z
" id="DejaVuSans-28" transform="scale(0.015625)"/>
       <path d="M 1259 4147 
L 1259 519 
L 2022 519 
Q 2988 519 3436 956 
Q 3884 1394 3884 2338 
Q 3884 3275 3436 3711 
Q 2988 4147 2022 4147 
L 1259 4147 
z
M 628 4666 
L 1925 4666 
Q 3281 4666 3915 4102 
Q 4550 3538 4550 2338 
Q 4550 1131 3912 565 
Q 3275 0 1925 0 
L 628 0 
L 628 4666 
z
" id="DejaVuSans-44" transform="scale(0.015625)"/>
       <path d="M 3597 1894 
L 3597 1613 
L 953 1613 
Q 991 1019 1311 708 
Q 1631 397 2203 397 
Q 2534 397 2845 478 
Q 3156 559 3463 722 
L 3463 178 
Q 3153 47 2828 -22 
Q 2503 -91 2169 -91 
Q 1331 -91 842 396 
Q 353 884 353 1716 
Q 353 2575 817 3079 
Q 1281 3584 2069 3584 
Q 2775 3584 3186 3129 
Q 3597 2675 3597 1894 
z
M 3022 2063 
Q 3016 2534 2758 2815 
Q 2500 3097 2075 3097 
Q 1594 3097 1305 2825 
Q 1016 2553 972 2059 
L 3022 2063 
z
" id="DejaVuSans-65" transform="scale(0.015625)"/>
       <path d="M 2906 1791 
Q 2906 2416 2648 2759 
Q 2391 3103 1925 3103 
Q 1463 3103 1205 2759 
Q 947 2416 947 1791 
Q 947 1169 1205 825 
Q 1463 481 1925 481 
Q 2391 481 2648 825 
Q 2906 1169 2906 1791 
z
M 3481 434 
Q 3481 -459 3084 -895 
Q 2688 -1331 1869 -1331 
Q 1566 -1331 1297 -1286 
Q 1028 -1241 775 -1147 
L 775 -588 
Q 1028 -725 1275 -790 
Q 1522 -856 1778 -856 
Q 2344 -856 2625 -561 
Q 2906 -266 2906 331 
L 2906 616 
Q 2728 306 2450 153 
Q 2172 0 1784 0 
Q 1141 0 747 490 
Q 353 981 353 1791 
Q 353 2603 747 3093 
Q 1141 3584 1784 3584 
Q 2172 3584 2450 3431 
Q 2728 3278 2906 2969 
L 2906 3500 
L 3481 3500 
L 3481 434 
z
" id="DejaVuSans-67" transform="scale(0.015625)"/>
       <path d="M 2834 3397 
L 2834 2853 
Q 2591 2978 2328 3040 
Q 2066 3103 1784 3103 
Q 1356 3103 1142 2972 
Q 928 2841 928 2578 
Q 928 2378 1081 2264 
Q 1234 2150 1697 2047 
L 1894 2003 
Q 2506 1872 2764 1633 
Q 3022 1394 3022 966 
Q 3022 478 2636 193 
Q 2250 -91 1575 -91 
Q 1294 -91 989 -36 
Q 684 19 347 128 
L 347 722 
Q 666 556 975 473 
Q 1284 391 1588 391 
Q 1994 391 2212 530 
Q 2431 669 2431 922 
Q 2431 1156 2273 1281 
Q 2116 1406 1581 1522 
L 1381 1569 
Q 847 1681 609 1914 
Q 372 2147 372 2553 
Q 372 3047 722 3315 
Q 1072 3584 1716 3584 
Q 2034 3584 2315 3537 
Q 2597 3491 2834 3397 
z
" id="DejaVuSans-73" transform="scale(0.015625)"/>
       <path d="M 513 4856 
L 1013 4856 
Q 1481 4119 1714 3412 
Q 1947 2706 1947 2009 
Q 1947 1309 1714 600 
Q 1481 -109 1013 -844 
L 513 -844 
Q 928 -128 1133 580 
Q 1338 1288 1338 2009 
Q 1338 2731 1133 3434 
Q 928 4138 513 4856 
z
" id="DejaVuSans-29" transform="scale(0.015625)"/>
      </defs>
      <use xlink:href="#DejaVuSans-4d"/>
      <use x="86.279297" xlink:href="#DejaVuSans-41"/>
      <use x="154.6875" xlink:href="#DejaVuSans-45"/>
      <use x="217.871094" xlink:href="#DejaVuSans-20"/>
      <use x="249.658203" xlink:href="#DejaVuSans-28"/>
      <use x="288.671875" xlink:href="#DejaVuSans-44"/>
      <use x="365.673828" xlink:href="#DejaVuSans-65"/>
      <use x="427.197266" xlink:href="#DejaVuSans-67"/>
      <use x="490.673828" xlink:href="#DejaVuSans-72"/>
      <use x="529.537109" xlink:href="#DejaVuSans-65"/>
      <use x="591.060547" xlink:href="#DejaVuSans-65"/>
      <use x="652.583984" xlink:href="#DejaVuSans-73"/>
      <use x="704.683594" xlink:href="#DejaVuSans-29"/>
     </g>
    </g>
   </g>
   <g id="line2d_13">
    <path clip-path="url(#pf5a81f8e3c)" d="M 59.465557 120.801022 
L 65.10192 158.068083 
L 70.738284 148.941479 
L 76.374648 164.25924 
L 82.011011 181.940409 
L 87.647375 171.446509 
L 93.283739 177.401663 
L 98.920102 160.998478 
L 104.556466 160.396165 
L 110.19283 151.467056 
L 115.829193 149.829459 
L 121.465557 150.571217 
L 127.10192 48.840967 
L 132.738284 93.647528 
L 138.374648 52.950216 
L 144.011011 68.467847 
L 149.647375 96.782037 
L 155.283739 74.295621 
L 160.920102 69.977257 
L 166.556466 49.07799 
L 172.19283 113.704093 
L 177.829193 112.902244 
L 183.465557 126.260166 
L 189.10192 116.017699 
L 194.738284 131.644045 
L 200.374648 143.294278 
L 206.011011 116.770597 
L 211.647375 131.903849 
L 217.283739 122.929582 
L 222.920102 67.185712 
L 228.556466 89.321571 
L 234.19283 104.028111 
L 239.829193 93.062788 
L 245.465557 120.438026 
L 251.10192 124.049608 
L 256.738284 125.748275 
L 262.374648 113.925048 
L 268.011011 102.095873 
L 273.647375 99.693918 
L 279.283739 94.314783 
L 284.920102 115.737344 
L 290.556466 139.731142 
L 296.19283 133.947473 
L 301.829193 141.584445 
L 307.465557 147.590577 
L 313.10192 158.150628 
L 318.738284 158.834559 
L 324.374648 161.052292 
L 330.011011 166.704296 
L 335.647375 168.647072 
L 341.283739 171.58423 
L 346.920102 181.348338 
L 352.556466 167.061504 
L 358.19283 207.080339 
L 363.829193 215.678845 
" style="fill:none;stroke:#721f81;stroke-linecap:square;stroke-width:2;"/>
   </g>
   <g id="line2d_14">
    <path clip-path="url(#pf5a81f8e3c)" d="M 59.465557 96.904207 
L 65.10192 149.270946 
L 70.738284 166.843975 
L 76.374648 138.644034 
L 82.011011 162.779136 
L 87.647375 139.799381 
L 93.283739 154.159807 
L 98.920102 183.58902 
L 104.556466 182.189776 
L 110.19283 185.674111 
L 115.829193 177.36559 
L 121.465557 190.804221 
L 127.10192 31.619583 
L 132.738284 98.857894 
L 138.374648 112.572619 
L 144.011011 122.143926 
L 149.647375 83.550399 
L 155.283739 113.526022 
L 160.920102 81.733347 
L 166.556466 128.674073 
L 172.19283 142.935703 
L 177.829193 135.520611 
L 183.465557 144.86221 
L 189.10192 128.702484 
L 194.738284 127.979456 
L 200.374648 145.876691 
L 206.011011 102.66428 
L 211.647375 141.935223 
L 217.283739 154.733622 
L 222.920102 148.37419 
L 228.556466 144.906895 
L 234.19283 146.913703 
L 239.829193 156.827252 
L 245.465557 146.54287 
L 251.10192 121.270714 
L 256.738284 150.574071 
L 262.374648 146.799501 
L 268.011011 144.227446 
L 273.647375 101.407345 
L 279.283739 137.528467 
L 284.920102 133.04489 
L 290.556466 137.653353 
L 296.19283 140.388136 
L 301.829193 181.190747 
L 307.465557 198.836205 
L 313.10192 208.168631 
L 318.738284 195.772149 
L 324.374648 196.21092 
L 330.011011 210.877744 
L 335.647375 192.518365 
L 341.283739 206.950653 
L 346.920102 207.287844 
L 352.556466 209.727931 
L 358.19283 202.548651 
" style="fill:none;stroke:#f1605d;stroke-linecap:square;stroke-width:2;"/>
   </g>
   <g id="line2d_15"/>
   <g id="line2d_16"/>
   <g id="patch_3">
    <path d="M 44.247375 225.562482 
L 44.247375 8.122482 
" style="fill:none;stroke:#000000;stroke-linecap:square;stroke-linejoin:miter;"/>
   </g>
   <g id="patch_4">
    <path d="M 379.047375 225.562482 
L 379.047375 8.122482 
" style="fill:none;stroke:#000000;stroke-linecap:square;stroke-linejoin:miter;"/>
   </g>
   <g id="patch_5">
    <path d="M 44.247375 225.562482 
L 379.047375 225.562482 
" style="fill:none;stroke:#000000;stroke-linecap:square;stroke-linejoin:miter;"/>
   </g>
   <g id="patch_6">
    <path d="M 44.247375 8.122482 
L 379.047375 8.122482 
" style="fill:none;stroke:#000000;stroke-linecap:square;stroke-linejoin:miter;"/>
   </g>
   <g id="legend_1">
    <g id="patch_7">
     <path d="M 280.220969 49.214357 
L 371.347375 49.214357 
Q 373.547375 49.214357 373.547375 47.014357 
L 373.547375 15.822482 
Q 373.547375 13.622482 371.347375 13.622482 
L 280.220969 13.622482 
Q 278.020969 13.622482 278.020969 15.822482 
L 278.020969 47.014357 
Q 278.020969 49.214357 280.220969 49.214357 
z
" style="fill:#ffffff;opacity:0.8;stroke:#cccccc;stroke-linejoin:miter;stroke-width:0.8;"/>
    </g>
    <g id="line2d_17">
     <path d="M 282.420969 22.530763 
L 304.420969 22.530763 
" style="fill:none;stroke:#721f81;stroke-linecap:square;stroke-width:2;"/>
    </g>
    <g id="line2d_18"/>
    <g id="text_15">
     <!-- NoReward -->
     <g transform="translate(313.220969 26.380763)scale(0.11 -0.11)">
      <defs>
       <path d="M 628 4666 
L 1478 4666 
L 3547 763 
L 3547 4666 
L 4159 4666 
L 4159 0 
L 3309 0 
L 1241 3903 
L 1241 0 
L 628 0 
L 628 4666 
z
" id="DejaVuSans-4e" transform="scale(0.015625)"/>
       <path d="M 1959 3097 
Q 1497 3097 1228 2736 
Q 959 2375 959 1747 
Q 959 1119 1226 758 
Q 1494 397 1959 397 
Q 2419 397 2687 759 
Q 2956 1122 2956 1747 
Q 2956 2369 2687 2733 
Q 2419 3097 1959 3097 
z
M 1959 3584 
Q 2709 3584 3137 3096 
Q 3566 2609 3566 1747 
Q 3566 888 3137 398 
Q 2709 -91 1959 -91 
Q 1206 -91 779 398 
Q 353 888 353 1747 
Q 353 2609 779 3096 
Q 1206 3584 1959 3584 
z
" id="DejaVuSans-6f" transform="scale(0.015625)"/>
       <path d="M 2841 2188 
Q 3044 2119 3236 1894 
Q 3428 1669 3622 1275 
L 4263 0 
L 3584 0 
L 2988 1197 
Q 2756 1666 2539 1819 
Q 2322 1972 1947 1972 
L 1259 1972 
L 1259 0 
L 628 0 
L 628 4666 
L 2053 4666 
Q 2853 4666 3247 4331 
Q 3641 3997 3641 3322 
Q 3641 2881 3436 2590 
Q 3231 2300 2841 2188 
z
M 1259 4147 
L 1259 2491 
L 2053 2491 
Q 2509 2491 2742 2702 
Q 2975 2913 2975 3322 
Q 2975 3731 2742 3939 
Q 2509 4147 2053 4147 
L 1259 4147 
z
" id="DejaVuSans-52" transform="scale(0.015625)"/>
       <path d="M 269 3500 
L 844 3500 
L 1563 769 
L 2278 3500 
L 2956 3500 
L 3675 769 
L 4391 3500 
L 4966 3500 
L 4050 0 
L 3372 0 
L 2619 2869 
L 1863 0 
L 1184 0 
L 269 3500 
z
" id="DejaVuSans-77" transform="scale(0.015625)"/>
       <path d="M 2906 2969 
L 2906 4863 
L 3481 4863 
L 3481 0 
L 2906 0 
L 2906 525 
Q 2725 213 2448 61 
Q 2172 -91 1784 -91 
Q 1150 -91 751 415 
Q 353 922 353 1747 
Q 353 2572 751 3078 
Q 1150 3584 1784 3584 
Q 2172 3584 2448 3432 
Q 2725 3281 2906 2969 
z
M 947 1747 
Q 947 1113 1208 752 
Q 1469 391 1925 391 
Q 2381 391 2643 752 
Q 2906 1113 2906 1747 
Q 2906 2381 2643 2742 
Q 2381 3103 1925 3103 
Q 1469 3103 1208 2742 
Q 947 2381 947 1747 
z
" id="DejaVuSans-64" transform="scale(0.015625)"/>
      </defs>
      <use xlink:href="#DejaVuSans-4e"/>
      <use x="74.804688" xlink:href="#DejaVuSans-6f"/>
      <use x="135.986328" xlink:href="#DejaVuSans-52"/>
      <use x="200.96875" xlink:href="#DejaVuSans-65"/>
      <use x="262.492188" xlink:href="#DejaVuSans-77"/>
      <use x="344.279297" xlink:href="#DejaVuSans-61"/>
      <use x="405.558594" xlink:href="#DejaVuSans-72"/>
      <use x="444.921875" xlink:href="#DejaVuSans-64"/>
     </g>
    </g>
    <g id="line2d_19">
     <path d="M 282.420969 38.676701 
L 304.420969 38.676701 
" style="fill:none;stroke:#f1605d;stroke-linecap:square;stroke-width:2;"/>
    </g>
    <g id="line2d_20"/>
    <g id="text_16">
     <!-- Reward -->
     <g transform="translate(313.220969 42.526701)scale(0.11 -0.11)">
      <use xlink:href="#DejaVuSans-52"/>
      <use x="64.982422" xlink:href="#DejaVuSans-65"/>
      <use x="126.505859" xlink:href="#DejaVuSans-77"/>
      <use x="208.292969" xlink:href="#DejaVuSans-61"/>
      <use x="269.572266" xlink:href="#DejaVuSans-72"/>
      <use x="308.935547" xlink:href="#DejaVuSans-64"/>
     </g>
    </g>
   </g>
  </g>
 </g>
 <defs>
  <clipPath id="pf5a81f8e3c">
   <rect height="217.44" width="334.8" x="44.247375" y="8.122482"/>
  </clipPath>
 </defs>
</svg>
