<?xml version="1.0" encoding="utf-8" standalone="no"?>
<!DOCTYPE svg PUBLIC "-//W3C//DTD SVG 1.1//EN"
  "http://www.w3.org/Graphics/SVG/1.1/DTD/svg11.dtd">
<svg height="262.21475pt" version="1.1" viewBox="0 0 381.989 262.21475" width="381.989pt" xmlns="http://www.w3.org/2000/svg" xmlns:xlink="http://www.w3.org/1999/xlink">
 <metadata>
  <rdf:RDF xmlns:cc="http://creativecommons.org/ns#" xmlns:dc="http://purl.org/dc/elements/1.1/" xmlns:rdf="http://www.w3.org/1999/02/22-rdf-syntax-ns#">
   <cc:Work>
    <dc:type rdf:resource="http://purl.org/dc/dcmitype/StillImage"/>
    <dc:date>2022-04-30T15:03:08.813066</dc:date>
    <dc:format>image/svg+xml</dc:format>
    <dc:creator>
     <cc:Agent>
      <dc:title>Matplotlib v3.4.3, https://matplotlib.org/</dc:title>
     </cc:Agent>
    </dc:creator>
   </cc:Work>
  </rdf:RDF>
 </metadata>
 <defs>
  <style type="text/css">*{stroke-linecap:butt;stroke-linejoin:round;}</style>
 </defs>
 <g id="figure_1">
  <g id="patch_1">
   <path d="M 0 262.21475 
L 381.989 262.21475 
L 381.989 0 
L 0 0 
z
" style="fill:none;"/>
  </g>
  <g id="axes_1">
   <g id="patch_2">
    <path d="M 39.989 224.64 
L 374.789 224.64 
L 374.789 7.2 
L 39.989 7.2 
z
" style="fill:#ffffff;"/>
   </g>
   <g id="patch_3">
    <path clip-path="url(#pea52aa6da6)" d="M 55.207182 224.64 
L 65.352636 224.64 
L 65.352636 185.195102 
L 55.207182 185.195102 
z
" style="fill:#e32f27;fill-opacity:0.5;stroke:#000000;stroke-linejoin:miter;stroke-width:0.8;"/>
   </g>
   <g id="patch_4">
    <path clip-path="url(#pea52aa6da6)" d="M 65.352636 224.64 
L 75.498091 224.64 
L 75.498091 96.444082 
L 65.352636 96.444082 
z
" style="fill:#e32f27;fill-opacity:0.5;stroke:#000000;stroke-linejoin:miter;stroke-width:0.8;"/>
   </g>
   <g id="patch_5">
    <path clip-path="url(#pea52aa6da6)" d="M 75.498091 224.64 
L 85.643545 224.64 
L 85.643545 155.611429 
L 75.498091 155.611429 
z
" style="fill:#e32f27;fill-opacity:0.5;stroke:#000000;stroke-linejoin:miter;stroke-width:0.8;"/>
   </g>
   <g id="patch_6">
    <path clip-path="url(#pea52aa6da6)" d="M 85.643545 224.64 
L 95.789 224.64 
L 95.789 66.860408 
L 85.643545 66.860408 
z
" style="fill:#e32f27;fill-opacity:0.5;stroke:#000000;stroke-linejoin:miter;stroke-width:0.8;"/>
   </g>
   <g id="patch_7">
    <path clip-path="url(#pea52aa6da6)" d="M 95.789 224.64 
L 105.934455 224.64 
L 105.934455 112.879456 
L 95.789 112.879456 
z
" style="fill:#e32f27;fill-opacity:0.5;stroke:#000000;stroke-linejoin:miter;stroke-width:0.8;"/>
   </g>
   <g id="patch_8">
    <path clip-path="url(#pea52aa6da6)" d="M 105.934455 224.64 
L 116.079909 224.64 
L 116.079909 96.444082 
L 105.934455 96.444082 
z
" style="fill:#e32f27;fill-opacity:0.5;stroke:#000000;stroke-linejoin:miter;stroke-width:0.8;"/>
   </g>
   <g id="patch_9">
    <path clip-path="url(#pea52aa6da6)" d="M 116.079909 224.64 
L 126.225364 224.64 
L 126.225364 122.74068 
L 116.079909 122.74068 
z
" style="fill:#e32f27;fill-opacity:0.5;stroke:#000000;stroke-linejoin:miter;stroke-width:0.8;"/>
   </g>
   <g id="patch_10">
    <path clip-path="url(#pea52aa6da6)" d="M 126.225364 224.64 
L 136.370818 224.64 
L 136.370818 145.750204 
L 126.225364 145.750204 
z
" style="fill:#e32f27;fill-opacity:0.5;stroke:#000000;stroke-linejoin:miter;stroke-width:0.8;"/>
   </g>
   <g id="patch_11">
    <path clip-path="url(#pea52aa6da6)" d="M 136.370818 224.64 
L 146.516273 224.64 
L 146.516273 132.601905 
L 136.370818 132.601905 
z
" style="fill:#e32f27;fill-opacity:0.5;stroke:#000000;stroke-linejoin:miter;stroke-width:0.8;"/>
   </g>
   <g id="patch_12">
    <path clip-path="url(#pea52aa6da6)" d="M 146.516273 224.64 
L 156.661727 224.64 
L 156.661727 155.611429 
L 146.516273 155.611429 
z
" style="fill:#e32f27;fill-opacity:0.5;stroke:#000000;stroke-linejoin:miter;stroke-width:0.8;"/>
   </g>
   <g id="patch_13">
    <path clip-path="url(#pea52aa6da6)" d="M 156.661727 224.64 
L 166.807182 224.64 
L 166.807182 178.620952 
L 156.661727 178.620952 
z
" style="fill:#e32f27;fill-opacity:0.5;stroke:#000000;stroke-linejoin:miter;stroke-width:0.8;"/>
   </g>
   <g id="patch_14">
    <path clip-path="url(#pea52aa6da6)" d="M 166.807182 224.64 
L 176.952636 224.64 
L 176.952636 201.630476 
L 166.807182 201.630476 
z
" style="fill:#e32f27;fill-opacity:0.5;stroke:#000000;stroke-linejoin:miter;stroke-width:0.8;"/>
   </g>
   <g id="patch_15">
    <path clip-path="url(#pea52aa6da6)" d="M 176.952636 224.64 
L 187.098091 224.64 
L 187.098091 208.204626 
L 176.952636 208.204626 
z
" style="fill:#e32f27;fill-opacity:0.5;stroke:#000000;stroke-linejoin:miter;stroke-width:0.8;"/>
   </g>
   <g id="patch_16">
    <path clip-path="url(#pea52aa6da6)" d="M 187.098091 224.64 
L 197.243545 224.64 
L 197.243545 221.352925 
L 187.098091 221.352925 
z
" style="fill:#e32f27;fill-opacity:0.5;stroke:#000000;stroke-linejoin:miter;stroke-width:0.8;"/>
   </g>
   <g id="patch_17">
    <path clip-path="url(#pea52aa6da6)" d="M 197.243545 224.64 
L 207.389 224.64 
L 207.389 224.64 
L 197.243545 224.64 
z
" style="fill:#e32f27;fill-opacity:0.5;stroke:#000000;stroke-linejoin:miter;stroke-width:0.8;"/>
   </g>
   <g id="patch_18">
    <path clip-path="url(#pea52aa6da6)" d="M 207.389 224.64 
L 217.534455 224.64 
L 217.534455 224.64 
L 207.389 224.64 
z
" style="fill:#e32f27;fill-opacity:0.5;stroke:#000000;stroke-linejoin:miter;stroke-width:0.8;"/>
   </g>
   <g id="patch_19">
    <path clip-path="url(#pea52aa6da6)" d="M 217.534455 224.64 
L 227.679909 224.64 
L 227.679909 218.06585 
L 217.534455 218.06585 
z
" style="fill:#e32f27;fill-opacity:0.5;stroke:#000000;stroke-linejoin:miter;stroke-width:0.8;"/>
   </g>
   <g id="patch_20">
    <path clip-path="url(#pea52aa6da6)" d="M 227.679909 224.64 
L 237.825364 224.64 
L 237.825364 221.352925 
L 227.679909 221.352925 
z
" style="fill:#e32f27;fill-opacity:0.5;stroke:#000000;stroke-linejoin:miter;stroke-width:0.8;"/>
   </g>
   <g id="patch_21">
    <path clip-path="url(#pea52aa6da6)" d="M 237.825364 224.64 
L 247.970818 224.64 
L 247.970818 221.352925 
L 237.825364 221.352925 
z
" style="fill:#e32f27;fill-opacity:0.5;stroke:#000000;stroke-linejoin:miter;stroke-width:0.8;"/>
   </g>
   <g id="patch_22">
    <path clip-path="url(#pea52aa6da6)" d="M 247.970818 224.64 
L 258.116273 224.64 
L 258.116273 221.352925 
L 247.970818 221.352925 
z
" style="fill:#e32f27;fill-opacity:0.5;stroke:#000000;stroke-linejoin:miter;stroke-width:0.8;"/>
   </g>
   <g id="patch_23">
    <path clip-path="url(#pea52aa6da6)" d="M 258.116273 224.64 
L 268.261727 224.64 
L 268.261727 224.64 
L 258.116273 224.64 
z
" style="fill:#e32f27;fill-opacity:0.5;stroke:#000000;stroke-linejoin:miter;stroke-width:0.8;"/>
   </g>
   <g id="patch_24">
    <path clip-path="url(#pea52aa6da6)" d="M 268.261727 224.64 
L 278.407182 224.64 
L 278.407182 224.64 
L 268.261727 224.64 
z
" style="fill:#e32f27;fill-opacity:0.5;stroke:#000000;stroke-linejoin:miter;stroke-width:0.8;"/>
   </g>
   <g id="patch_25">
    <path clip-path="url(#pea52aa6da6)" d="M 278.407182 224.64 
L 288.552636 224.64 
L 288.552636 221.352925 
L 278.407182 221.352925 
z
" style="fill:#e32f27;fill-opacity:0.5;stroke:#000000;stroke-linejoin:miter;stroke-width:0.8;"/>
   </g>
   <g id="patch_26">
    <path clip-path="url(#pea52aa6da6)" d="M 288.552636 224.64 
L 298.698091 224.64 
L 298.698091 224.64 
L 288.552636 224.64 
z
" style="fill:#e32f27;fill-opacity:0.5;stroke:#000000;stroke-linejoin:miter;stroke-width:0.8;"/>
   </g>
   <g id="patch_27">
    <path clip-path="url(#pea52aa6da6)" d="M 298.698091 224.64 
L 308.843545 224.64 
L 308.843545 224.64 
L 298.698091 224.64 
z
" style="fill:#e32f27;fill-opacity:0.5;stroke:#000000;stroke-linejoin:miter;stroke-width:0.8;"/>
   </g>
   <g id="patch_28">
    <path clip-path="url(#pea52aa6da6)" d="M 308.843545 224.64 
L 318.989 224.64 
L 318.989 224.64 
L 308.843545 224.64 
z
" style="fill:#e32f27;fill-opacity:0.5;stroke:#000000;stroke-linejoin:miter;stroke-width:0.8;"/>
   </g>
   <g id="patch_29">
    <path clip-path="url(#pea52aa6da6)" d="M 318.989 224.64 
L 329.134455 224.64 
L 329.134455 218.06585 
L 318.989 218.06585 
z
" style="fill:#e32f27;fill-opacity:0.5;stroke:#000000;stroke-linejoin:miter;stroke-width:0.8;"/>
   </g>
   <g id="patch_30">
    <path clip-path="url(#pea52aa6da6)" d="M 329.134455 224.64 
L 339.279909 224.64 
L 339.279909 224.64 
L 329.134455 224.64 
z
" style="fill:#e32f27;fill-opacity:0.5;stroke:#000000;stroke-linejoin:miter;stroke-width:0.8;"/>
   </g>
   <g id="patch_31">
    <path clip-path="url(#pea52aa6da6)" d="M 339.279909 224.64 
L 349.425364 224.64 
L 349.425364 224.64 
L 339.279909 224.64 
z
" style="fill:#e32f27;fill-opacity:0.5;stroke:#000000;stroke-linejoin:miter;stroke-width:0.8;"/>
   </g>
   <g id="patch_32">
    <path clip-path="url(#pea52aa6da6)" d="M 349.425364 224.64 
L 359.570818 224.64 
L 359.570818 221.352925 
L 349.425364 221.352925 
z
" style="fill:#e32f27;fill-opacity:0.5;stroke:#000000;stroke-linejoin:miter;stroke-width:0.8;"/>
   </g>
   <g id="patch_33">
    <path clip-path="url(#pea52aa6da6)" d="M 55.207182 224.64 
L 65.352636 224.64 
L 65.352636 224.64 
L 55.207182 224.64 
z
" style="fill:#fca082;fill-opacity:0.5;stroke:#000000;stroke-linejoin:miter;stroke-width:0.8;"/>
   </g>
   <g id="patch_34">
    <path clip-path="url(#pea52aa6da6)" d="M 65.352636 224.64 
L 75.498091 224.64 
L 75.498091 149.037279 
L 65.352636 149.037279 
z
" style="fill:#fca082;fill-opacity:0.5;stroke:#000000;stroke-linejoin:miter;stroke-width:0.8;"/>
   </g>
   <g id="patch_35">
    <path clip-path="url(#pea52aa6da6)" d="M 75.498091 224.64 
L 85.643545 224.64 
L 85.643545 172.046803 
L 75.498091 172.046803 
z
" style="fill:#fca082;fill-opacity:0.5;stroke:#000000;stroke-linejoin:miter;stroke-width:0.8;"/>
   </g>
   <g id="patch_36">
    <path clip-path="url(#pea52aa6da6)" d="M 85.643545 224.64 
L 95.789 224.64 
L 95.789 17.554286 
L 85.643545 17.554286 
z
" style="fill:#fca082;fill-opacity:0.5;stroke:#000000;stroke-linejoin:miter;stroke-width:0.8;"/>
   </g>
   <g id="patch_37">
    <path clip-path="url(#pea52aa6da6)" d="M 95.789 224.64 
L 105.934455 224.64 
L 105.934455 96.444082 
L 95.789 96.444082 
z
" style="fill:#fca082;fill-opacity:0.5;stroke:#000000;stroke-linejoin:miter;stroke-width:0.8;"/>
   </g>
   <g id="patch_38">
    <path clip-path="url(#pea52aa6da6)" d="M 105.934455 224.64 
L 116.079909 224.64 
L 116.079909 103.018231 
L 105.934455 103.018231 
z
" style="fill:#fca082;fill-opacity:0.5;stroke:#000000;stroke-linejoin:miter;stroke-width:0.8;"/>
   </g>
   <g id="patch_39">
    <path clip-path="url(#pea52aa6da6)" d="M 116.079909 224.64 
L 126.225364 224.64 
L 126.225364 70.147483 
L 116.079909 70.147483 
z
" style="fill:#fca082;fill-opacity:0.5;stroke:#000000;stroke-linejoin:miter;stroke-width:0.8;"/>
   </g>
   <g id="patch_40">
    <path clip-path="url(#pea52aa6da6)" d="M 126.225364 224.64 
L 136.370818 224.64 
L 136.370818 76.721633 
L 126.225364 76.721633 
z
" style="fill:#fca082;fill-opacity:0.5;stroke:#000000;stroke-linejoin:miter;stroke-width:0.8;"/>
   </g>
   <g id="patch_41">
    <path clip-path="url(#pea52aa6da6)" d="M 136.370818 224.64 
L 146.516273 224.64 
L 146.516273 188.482177 
L 136.370818 188.482177 
z
" style="fill:#fca082;fill-opacity:0.5;stroke:#000000;stroke-linejoin:miter;stroke-width:0.8;"/>
   </g>
   <g id="patch_42">
    <path clip-path="url(#pea52aa6da6)" d="M 146.516273 224.64 
L 156.661727 224.64 
L 156.661727 188.482177 
L 146.516273 188.482177 
z
" style="fill:#fca082;fill-opacity:0.5;stroke:#000000;stroke-linejoin:miter;stroke-width:0.8;"/>
   </g>
   <g id="patch_43">
    <path clip-path="url(#pea52aa6da6)" d="M 156.661727 224.64 
L 166.807182 224.64 
L 166.807182 198.343401 
L 156.661727 198.343401 
z
" style="fill:#fca082;fill-opacity:0.5;stroke:#000000;stroke-linejoin:miter;stroke-width:0.8;"/>
   </g>
   <g id="patch_44">
    <path clip-path="url(#pea52aa6da6)" d="M 166.807182 224.64 
L 176.952636 224.64 
L 176.952636 165.472653 
L 166.807182 165.472653 
z
" style="fill:#fca082;fill-opacity:0.5;stroke:#000000;stroke-linejoin:miter;stroke-width:0.8;"/>
   </g>
   <g id="patch_45">
    <path clip-path="url(#pea52aa6da6)" d="M 176.952636 224.64 
L 187.098091 224.64 
L 187.098091 158.898503 
L 176.952636 158.898503 
z
" style="fill:#fca082;fill-opacity:0.5;stroke:#000000;stroke-linejoin:miter;stroke-width:0.8;"/>
   </g>
   <g id="patch_46">
    <path clip-path="url(#pea52aa6da6)" d="M 187.098091 224.64 
L 197.243545 224.64 
L 197.243545 195.056327 
L 187.098091 195.056327 
z
" style="fill:#fca082;fill-opacity:0.5;stroke:#000000;stroke-linejoin:miter;stroke-width:0.8;"/>
   </g>
   <g id="patch_47">
    <path clip-path="url(#pea52aa6da6)" d="M 197.243545 224.64 
L 207.389 224.64 
L 207.389 218.06585 
L 197.243545 218.06585 
z
" style="fill:#fca082;fill-opacity:0.5;stroke:#000000;stroke-linejoin:miter;stroke-width:0.8;"/>
   </g>
   <g id="patch_48">
    <path clip-path="url(#pea52aa6da6)" d="M 207.389 224.64 
L 217.534455 224.64 
L 217.534455 198.343401 
L 207.389 198.343401 
z
" style="fill:#fca082;fill-opacity:0.5;stroke:#000000;stroke-linejoin:miter;stroke-width:0.8;"/>
   </g>
   <g id="patch_49">
    <path clip-path="url(#pea52aa6da6)" d="M 217.534455 224.64 
L 227.679909 224.64 
L 227.679909 218.06585 
L 217.534455 218.06585 
z
" style="fill:#fca082;fill-opacity:0.5;stroke:#000000;stroke-linejoin:miter;stroke-width:0.8;"/>
   </g>
   <g id="patch_50">
    <path clip-path="url(#pea52aa6da6)" d="M 227.679909 224.64 
L 237.825364 224.64 
L 237.825364 218.06585 
L 227.679909 218.06585 
z
" style="fill:#fca082;fill-opacity:0.5;stroke:#000000;stroke-linejoin:miter;stroke-width:0.8;"/>
   </g>
   <g id="patch_51">
    <path clip-path="url(#pea52aa6da6)" d="M 237.825364 224.64 
L 247.970818 224.64 
L 247.970818 218.06585 
L 237.825364 218.06585 
z
" style="fill:#fca082;fill-opacity:0.5;stroke:#000000;stroke-linejoin:miter;stroke-width:0.8;"/>
   </g>
   <g id="patch_52">
    <path clip-path="url(#pea52aa6da6)" d="M 247.970818 224.64 
L 258.116273 224.64 
L 258.116273 204.917551 
L 247.970818 204.917551 
z
" style="fill:#fca082;fill-opacity:0.5;stroke:#000000;stroke-linejoin:miter;stroke-width:0.8;"/>
   </g>
   <g id="patch_53">
    <path clip-path="url(#pea52aa6da6)" d="M 258.116273 224.64 
L 268.261727 224.64 
L 268.261727 218.06585 
L 258.116273 218.06585 
z
" style="fill:#fca082;fill-opacity:0.5;stroke:#000000;stroke-linejoin:miter;stroke-width:0.8;"/>
   </g>
   <g id="patch_54">
    <path clip-path="url(#pea52aa6da6)" d="M 268.261727 224.64 
L 278.407182 224.64 
L 278.407182 214.778776 
L 268.261727 214.778776 
z
" style="fill:#fca082;fill-opacity:0.5;stroke:#000000;stroke-linejoin:miter;stroke-width:0.8;"/>
   </g>
   <g id="patch_55">
    <path clip-path="url(#pea52aa6da6)" d="M 278.407182 224.64 
L 288.552636 224.64 
L 288.552636 218.06585 
L 278.407182 218.06585 
z
" style="fill:#fca082;fill-opacity:0.5;stroke:#000000;stroke-linejoin:miter;stroke-width:0.8;"/>
   </g>
   <g id="patch_56">
    <path clip-path="url(#pea52aa6da6)" d="M 288.552636 224.64 
L 298.698091 224.64 
L 298.698091 218.06585 
L 288.552636 218.06585 
z
" style="fill:#fca082;fill-opacity:0.5;stroke:#000000;stroke-linejoin:miter;stroke-width:0.8;"/>
   </g>
   <g id="patch_57">
    <path clip-path="url(#pea52aa6da6)" d="M 298.698091 224.64 
L 308.843545 224.64 
L 308.843545 224.64 
L 298.698091 224.64 
z
" style="fill:#fca082;fill-opacity:0.5;stroke:#000000;stroke-linejoin:miter;stroke-width:0.8;"/>
   </g>
   <g id="patch_58">
    <path clip-path="url(#pea52aa6da6)" d="M 308.843545 224.64 
L 318.989 224.64 
L 318.989 221.352925 
L 308.843545 221.352925 
z
" style="fill:#fca082;fill-opacity:0.5;stroke:#000000;stroke-linejoin:miter;stroke-width:0.8;"/>
   </g>
   <g id="patch_59">
    <path clip-path="url(#pea52aa6da6)" d="M 318.989 224.64 
L 329.134455 224.64 
L 329.134455 224.64 
L 318.989 224.64 
z
" style="fill:#fca082;fill-opacity:0.5;stroke:#000000;stroke-linejoin:miter;stroke-width:0.8;"/>
   </g>
   <g id="patch_60">
    <path clip-path="url(#pea52aa6da6)" d="M 329.134455 224.64 
L 339.279909 224.64 
L 339.279909 224.64 
L 329.134455 224.64 
z
" style="fill:#fca082;fill-opacity:0.5;stroke:#000000;stroke-linejoin:miter;stroke-width:0.8;"/>
   </g>
   <g id="patch_61">
    <path clip-path="url(#pea52aa6da6)" d="M 339.279909 224.64 
L 349.425364 224.64 
L 349.425364 224.64 
L 339.279909 224.64 
z
" style="fill:#fca082;fill-opacity:0.5;stroke:#000000;stroke-linejoin:miter;stroke-width:0.8;"/>
   </g>
   <g id="patch_62">
    <path clip-path="url(#pea52aa6da6)" d="M 349.425364 224.64 
L 359.570818 224.64 
L 359.570818 221.352925 
L 349.425364 221.352925 
z
" style="fill:#fca082;fill-opacity:0.5;stroke:#000000;stroke-linejoin:miter;stroke-width:0.8;"/>
   </g>
   <g id="matplotlib.axis_1">
    <g id="xtick_1">
     <g id="line2d_1">
      <defs>
       <path d="M 0 0 
L 0 4.8 
" id="mfc7d65e049" style="stroke:#000000;"/>
      </defs>
      <g>
       <use style="stroke:#000000;" x="53.541881" xlink:href="#mfc7d65e049" y="224.64"/>
      </g>
     </g>
     <g id="text_1">
      <!-- 10 -->
      <g transform="translate(47.942881 239.626625)scale(0.088 -0.088)">
       <defs>
        <path d="M 794 531 
L 1825 531 
L 1825 4091 
L 703 3866 
L 703 4441 
L 1819 4666 
L 2450 4666 
L 2450 531 
L 3481 531 
L 3481 0 
L 794 0 
L 794 531 
z
" id="DejaVuSans-31" transform="scale(0.015625)"/>
        <path d="M 2034 4250 
Q 1547 4250 1301 3770 
Q 1056 3291 1056 2328 
Q 1056 1369 1301 889 
Q 1547 409 2034 409 
Q 2525 409 2770 889 
Q 3016 1369 3016 2328 
Q 3016 3291 2770 3770 
Q 2525 4250 2034 4250 
z
M 2034 4750 
Q 2819 4750 3233 4129 
Q 3647 3509 3647 2328 
Q 3647 1150 3233 529 
Q 2819 -91 2034 -91 
Q 1250 -91 836 529 
Q 422 1150 422 2328 
Q 422 3509 836 4129 
Q 1250 4750 2034 4750 
z
" id="DejaVuSans-30" transform="scale(0.015625)"/>
       </defs>
       <use xlink:href="#DejaVuSans-31"/>
       <use x="63.623047" xlink:href="#DejaVuSans-30"/>
      </g>
     </g>
    </g>
    <g id="xtick_2">
     <g id="line2d_2">
      <g>
       <use style="stroke:#000000;" x="96.849202" xlink:href="#mfc7d65e049" y="224.64"/>
      </g>
     </g>
     <g id="text_2">
      <!-- 20 -->
      <g transform="translate(91.250202 239.626625)scale(0.088 -0.088)">
       <defs>
        <path d="M 1228 531 
L 3431 531 
L 3431 0 
L 469 0 
L 469 531 
Q 828 903 1448 1529 
Q 2069 2156 2228 2338 
Q 2531 2678 2651 2914 
Q 2772 3150 2772 3378 
Q 2772 3750 2511 3984 
Q 2250 4219 1831 4219 
Q 1534 4219 1204 4116 
Q 875 4013 500 3803 
L 500 4441 
Q 881 4594 1212 4672 
Q 1544 4750 1819 4750 
Q 2544 4750 2975 4387 
Q 3406 4025 3406 3419 
Q 3406 3131 3298 2873 
Q 3191 2616 2906 2266 
Q 2828 2175 2409 1742 
Q 1991 1309 1228 531 
z
" id="DejaVuSans-32" transform="scale(0.015625)"/>
       </defs>
       <use xlink:href="#DejaVuSans-32"/>
       <use x="63.623047" xlink:href="#DejaVuSans-30"/>
      </g>
     </g>
    </g>
    <g id="xtick_3">
     <g id="line2d_3">
      <g>
       <use style="stroke:#000000;" x="140.156523" xlink:href="#mfc7d65e049" y="224.64"/>
      </g>
     </g>
     <g id="text_3">
      <!-- 30 -->
      <g transform="translate(134.557523 239.626625)scale(0.088 -0.088)">
       <defs>
        <path d="M 2597 2516 
Q 3050 2419 3304 2112 
Q 3559 1806 3559 1356 
Q 3559 666 3084 287 
Q 2609 -91 1734 -91 
Q 1441 -91 1130 -33 
Q 819 25 488 141 
L 488 750 
Q 750 597 1062 519 
Q 1375 441 1716 441 
Q 2309 441 2620 675 
Q 2931 909 2931 1356 
Q 2931 1769 2642 2001 
Q 2353 2234 1838 2234 
L 1294 2234 
L 1294 2753 
L 1863 2753 
Q 2328 2753 2575 2939 
Q 2822 3125 2822 3475 
Q 2822 3834 2567 4026 
Q 2313 4219 1838 4219 
Q 1578 4219 1281 4162 
Q 984 4106 628 3988 
L 628 4550 
Q 988 4650 1302 4700 
Q 1616 4750 1894 4750 
Q 2613 4750 3031 4423 
Q 3450 4097 3450 3541 
Q 3450 3153 3228 2886 
Q 3006 2619 2597 2516 
z
" id="DejaVuSans-33" transform="scale(0.015625)"/>
       </defs>
       <use xlink:href="#DejaVuSans-33"/>
       <use x="63.623047" xlink:href="#DejaVuSans-30"/>
      </g>
     </g>
    </g>
    <g id="xtick_4">
     <g id="line2d_4">
      <g>
       <use style="stroke:#000000;" x="183.463844" xlink:href="#mfc7d65e049" y="224.64"/>
      </g>
     </g>
     <g id="text_4">
      <!-- 40 -->
      <g transform="translate(177.864844 239.626625)scale(0.088 -0.088)">
       <defs>
        <path d="M 2419 4116 
L 825 1625 
L 2419 1625 
L 2419 4116 
z
M 2253 4666 
L 3047 4666 
L 3047 1625 
L 3713 1625 
L 3713 1100 
L 3047 1100 
L 3047 0 
L 2419 0 
L 2419 1100 
L 313 1100 
L 313 1709 
L 2253 4666 
z
" id="DejaVuSans-34" transform="scale(0.015625)"/>
       </defs>
       <use xlink:href="#DejaVuSans-34"/>
       <use x="63.623047" xlink:href="#DejaVuSans-30"/>
      </g>
     </g>
    </g>
    <g id="xtick_5">
     <g id="line2d_5">
      <g>
       <use style="stroke:#000000;" x="226.771165" xlink:href="#mfc7d65e049" y="224.64"/>
      </g>
     </g>
     <g id="text_5">
      <!-- 50 -->
      <g transform="translate(221.172165 239.626625)scale(0.088 -0.088)">
       <defs>
        <path d="M 691 4666 
L 3169 4666 
L 3169 4134 
L 1269 4134 
L 1269 2991 
Q 1406 3038 1543 3061 
Q 1681 3084 1819 3084 
Q 2600 3084 3056 2656 
Q 3513 2228 3513 1497 
Q 3513 744 3044 326 
Q 2575 -91 1722 -91 
Q 1428 -91 1123 -41 
Q 819 9 494 109 
L 494 744 
Q 775 591 1075 516 
Q 1375 441 1709 441 
Q 2250 441 2565 725 
Q 2881 1009 2881 1497 
Q 2881 1984 2565 2268 
Q 2250 2553 1709 2553 
Q 1456 2553 1204 2497 
Q 953 2441 691 2322 
L 691 4666 
z
" id="DejaVuSans-35" transform="scale(0.015625)"/>
       </defs>
       <use xlink:href="#DejaVuSans-35"/>
       <use x="63.623047" xlink:href="#DejaVuSans-30"/>
      </g>
     </g>
    </g>
    <g id="xtick_6">
     <g id="line2d_6">
      <g>
       <use style="stroke:#000000;" x="270.078486" xlink:href="#mfc7d65e049" y="224.64"/>
      </g>
     </g>
     <g id="text_6">
      <!-- 60 -->
      <g transform="translate(264.479486 239.626625)scale(0.088 -0.088)">
       <defs>
        <path d="M 2113 2584 
Q 1688 2584 1439 2293 
Q 1191 2003 1191 1497 
Q 1191 994 1439 701 
Q 1688 409 2113 409 
Q 2538 409 2786 701 
Q 3034 994 3034 1497 
Q 3034 2003 2786 2293 
Q 2538 2584 2113 2584 
z
M 3366 4563 
L 3366 3988 
Q 3128 4100 2886 4159 
Q 2644 4219 2406 4219 
Q 1781 4219 1451 3797 
Q 1122 3375 1075 2522 
Q 1259 2794 1537 2939 
Q 1816 3084 2150 3084 
Q 2853 3084 3261 2657 
Q 3669 2231 3669 1497 
Q 3669 778 3244 343 
Q 2819 -91 2113 -91 
Q 1303 -91 875 529 
Q 447 1150 447 2328 
Q 447 3434 972 4092 
Q 1497 4750 2381 4750 
Q 2619 4750 2861 4703 
Q 3103 4656 3366 4563 
z
" id="DejaVuSans-36" transform="scale(0.015625)"/>
       </defs>
       <use xlink:href="#DejaVuSans-36"/>
       <use x="63.623047" xlink:href="#DejaVuSans-30"/>
      </g>
     </g>
    </g>
    <g id="xtick_7">
     <g id="line2d_7">
      <g>
       <use style="stroke:#000000;" x="313.385807" xlink:href="#mfc7d65e049" y="224.64"/>
      </g>
     </g>
     <g id="text_7">
      <!-- 70 -->
      <g transform="translate(307.786807 239.626625)scale(0.088 -0.088)">
       <defs>
        <path d="M 525 4666 
L 3525 4666 
L 3525 4397 
L 1831 0 
L 1172 0 
L 2766 4134 
L 525 4134 
L 525 4666 
z
" id="DejaVuSans-37" transform="scale(0.015625)"/>
       </defs>
       <use xlink:href="#DejaVuSans-37"/>
       <use x="63.623047" xlink:href="#DejaVuSans-30"/>
      </g>
     </g>
    </g>
    <g id="xtick_8">
     <g id="line2d_8">
      <g>
       <use style="stroke:#000000;" x="356.693128" xlink:href="#mfc7d65e049" y="224.64"/>
      </g>
     </g>
     <g id="text_8">
      <!-- 80 -->
      <g transform="translate(351.094128 239.626625)scale(0.088 -0.088)">
       <defs>
        <path d="M 2034 2216 
Q 1584 2216 1326 1975 
Q 1069 1734 1069 1313 
Q 1069 891 1326 650 
Q 1584 409 2034 409 
Q 2484 409 2743 651 
Q 3003 894 3003 1313 
Q 3003 1734 2745 1975 
Q 2488 2216 2034 2216 
z
M 1403 2484 
Q 997 2584 770 2862 
Q 544 3141 544 3541 
Q 544 4100 942 4425 
Q 1341 4750 2034 4750 
Q 2731 4750 3128 4425 
Q 3525 4100 3525 3541 
Q 3525 3141 3298 2862 
Q 3072 2584 2669 2484 
Q 3125 2378 3379 2068 
Q 3634 1759 3634 1313 
Q 3634 634 3220 271 
Q 2806 -91 2034 -91 
Q 1263 -91 848 271 
Q 434 634 434 1313 
Q 434 1759 690 2068 
Q 947 2378 1403 2484 
z
M 1172 3481 
Q 1172 3119 1398 2916 
Q 1625 2713 2034 2713 
Q 2441 2713 2670 2916 
Q 2900 3119 2900 3481 
Q 2900 3844 2670 4047 
Q 2441 4250 2034 4250 
Q 1625 4250 1398 4047 
Q 1172 3844 1172 3481 
z
" id="DejaVuSans-38" transform="scale(0.015625)"/>
       </defs>
       <use xlink:href="#DejaVuSans-38"/>
       <use x="63.623047" xlink:href="#DejaVuSans-30"/>
      </g>
     </g>
    </g>
    <g id="text_9">
     <!-- MAE_Chunk -->
     <g transform="translate(179.27375 252.75125)scale(0.096 -0.096)">
      <defs>
       <path d="M 628 4666 
L 1569 4666 
L 2759 1491 
L 3956 4666 
L 4897 4666 
L 4897 0 
L 4281 0 
L 4281 4097 
L 3078 897 
L 2444 897 
L 1241 4097 
L 1241 0 
L 628 0 
L 628 4666 
z
" id="DejaVuSans-4d" transform="scale(0.015625)"/>
       <path d="M 2188 4044 
L 1331 1722 
L 3047 1722 
L 2188 4044 
z
M 1831 4666 
L 2547 4666 
L 4325 0 
L 3669 0 
L 3244 1197 
L 1141 1197 
L 716 0 
L 50 0 
L 1831 4666 
z
" id="DejaVuSans-41" transform="scale(0.015625)"/>
       <path d="M 628 4666 
L 3578 4666 
L 3578 4134 
L 1259 4134 
L 1259 2753 
L 3481 2753 
L 3481 2222 
L 1259 2222 
L 1259 531 
L 3634 531 
L 3634 0 
L 628 0 
L 628 4666 
z
" id="DejaVuSans-45" transform="scale(0.015625)"/>
       <path d="M 3263 -1063 
L 3263 -1509 
L -63 -1509 
L -63 -1063 
L 3263 -1063 
z
" id="DejaVuSans-5f" transform="scale(0.015625)"/>
       <path d="M 4122 4306 
L 4122 3641 
Q 3803 3938 3442 4084 
Q 3081 4231 2675 4231 
Q 1875 4231 1450 3742 
Q 1025 3253 1025 2328 
Q 1025 1406 1450 917 
Q 1875 428 2675 428 
Q 3081 428 3442 575 
Q 3803 722 4122 1019 
L 4122 359 
Q 3791 134 3420 21 
Q 3050 -91 2638 -91 
Q 1578 -91 968 557 
Q 359 1206 359 2328 
Q 359 3453 968 4101 
Q 1578 4750 2638 4750 
Q 3056 4750 3426 4639 
Q 3797 4528 4122 4306 
z
" id="DejaVuSans-43" transform="scale(0.015625)"/>
       <path d="M 3513 2113 
L 3513 0 
L 2938 0 
L 2938 2094 
Q 2938 2591 2744 2837 
Q 2550 3084 2163 3084 
Q 1697 3084 1428 2787 
Q 1159 2491 1159 1978 
L 1159 0 
L 581 0 
L 581 4863 
L 1159 4863 
L 1159 2956 
Q 1366 3272 1645 3428 
Q 1925 3584 2291 3584 
Q 2894 3584 3203 3211 
Q 3513 2838 3513 2113 
z
" id="DejaVuSans-68" transform="scale(0.015625)"/>
       <path d="M 544 1381 
L 544 3500 
L 1119 3500 
L 1119 1403 
Q 1119 906 1312 657 
Q 1506 409 1894 409 
Q 2359 409 2629 706 
Q 2900 1003 2900 1516 
L 2900 3500 
L 3475 3500 
L 3475 0 
L 2900 0 
L 2900 538 
Q 2691 219 2414 64 
Q 2138 -91 1772 -91 
Q 1169 -91 856 284 
Q 544 659 544 1381 
z
M 1991 3584 
L 1991 3584 
z
" id="DejaVuSans-75" transform="scale(0.015625)"/>
       <path d="M 3513 2113 
L 3513 0 
L 2938 0 
L 2938 2094 
Q 2938 2591 2744 2837 
Q 2550 3084 2163 3084 
Q 1697 3084 1428 2787 
Q 1159 2491 1159 1978 
L 1159 0 
L 581 0 
L 581 3500 
L 1159 3500 
L 1159 2956 
Q 1366 3272 1645 3428 
Q 1925 3584 2291 3584 
Q 2894 3584 3203 3211 
Q 3513 2838 3513 2113 
z
" id="DejaVuSans-6e" transform="scale(0.015625)"/>
       <path d="M 581 4863 
L 1159 4863 
L 1159 1991 
L 2875 3500 
L 3609 3500 
L 1753 1863 
L 3688 0 
L 2938 0 
L 1159 1709 
L 1159 0 
L 581 0 
L 581 4863 
z
" id="DejaVuSans-6b" transform="scale(0.015625)"/>
      </defs>
      <use xlink:href="#DejaVuSans-4d"/>
      <use x="86.279297" xlink:href="#DejaVuSans-41"/>
      <use x="154.6875" xlink:href="#DejaVuSans-45"/>
      <use x="217.871094" xlink:href="#DejaVuSans-5f"/>
      <use x="267.871094" xlink:href="#DejaVuSans-43"/>
      <use x="337.695312" xlink:href="#DejaVuSans-68"/>
      <use x="401.074219" xlink:href="#DejaVuSans-75"/>
      <use x="464.453125" xlink:href="#DejaVuSans-6e"/>
      <use x="527.832031" xlink:href="#DejaVuSans-6b"/>
     </g>
    </g>
   </g>
   <g id="matplotlib.axis_2">
    <g id="ytick_1">
     <g id="line2d_9">
      <defs>
       <path d="M 0 0 
L -4.8 0 
" id="m7e90627f8b" style="stroke:#000000;"/>
      </defs>
      <g>
       <use style="stroke:#000000;" x="39.989" xlink:href="#m7e90627f8b" y="224.64"/>
      </g>
     </g>
     <g id="text_10">
      <!-- 0 -->
      <g transform="translate(26.09 227.983312)scale(0.088 -0.088)">
       <use xlink:href="#DejaVuSans-30"/>
      </g>
     </g>
    </g>
    <g id="ytick_2">
     <g id="line2d_10">
      <g>
       <use style="stroke:#000000;" x="39.989" xlink:href="#m7e90627f8b" y="191.769252"/>
      </g>
     </g>
     <g id="text_11">
      <!-- 10 -->
      <g transform="translate(20.491 195.112564)scale(0.088 -0.088)">
       <use xlink:href="#DejaVuSans-31"/>
       <use x="63.623047" xlink:href="#DejaVuSans-30"/>
      </g>
     </g>
    </g>
    <g id="ytick_3">
     <g id="line2d_11">
      <g>
       <use style="stroke:#000000;" x="39.989" xlink:href="#m7e90627f8b" y="158.898503"/>
      </g>
     </g>
     <g id="text_12">
      <!-- 20 -->
      <g transform="translate(20.491 162.241816)scale(0.088 -0.088)">
       <use xlink:href="#DejaVuSans-32"/>
       <use x="63.623047" xlink:href="#DejaVuSans-30"/>
      </g>
     </g>
    </g>
    <g id="ytick_4">
     <g id="line2d_12">
      <g>
       <use style="stroke:#000000;" x="39.989" xlink:href="#m7e90627f8b" y="126.027755"/>
      </g>
     </g>
     <g id="text_13">
      <!-- 30 -->
      <g transform="translate(20.491 129.371068)scale(0.088 -0.088)">
       <use xlink:href="#DejaVuSans-33"/>
       <use x="63.623047" xlink:href="#DejaVuSans-30"/>
      </g>
     </g>
    </g>
    <g id="ytick_5">
     <g id="line2d_13">
      <g>
       <use style="stroke:#000000;" x="39.989" xlink:href="#m7e90627f8b" y="93.157007"/>
      </g>
     </g>
     <g id="text_14">
      <!-- 40 -->
      <g transform="translate(20.491 96.500319)scale(0.088 -0.088)">
       <use xlink:href="#DejaVuSans-34"/>
       <use x="63.623047" xlink:href="#DejaVuSans-30"/>
      </g>
     </g>
    </g>
    <g id="ytick_6">
     <g id="line2d_14">
      <g>
       <use style="stroke:#000000;" x="39.989" xlink:href="#m7e90627f8b" y="60.286259"/>
      </g>
     </g>
     <g id="text_15">
      <!-- 50 -->
      <g transform="translate(20.491 63.629571)scale(0.088 -0.088)">
       <use xlink:href="#DejaVuSans-35"/>
       <use x="63.623047" xlink:href="#DejaVuSans-30"/>
      </g>
     </g>
    </g>
    <g id="ytick_7">
     <g id="line2d_15">
      <g>
       <use style="stroke:#000000;" x="39.989" xlink:href="#m7e90627f8b" y="27.41551"/>
      </g>
     </g>
     <g id="text_16">
      <!-- 60 -->
      <g transform="translate(20.491 30.758823)scale(0.088 -0.088)">
       <use xlink:href="#DejaVuSans-36"/>
       <use x="63.623047" xlink:href="#DejaVuSans-30"/>
      </g>
     </g>
    </g>
    <g id="text_17">
     <!-- Count -->
     <g transform="translate(14.4945 130.1745)rotate(-90)scale(0.096 -0.096)">
      <defs>
       <path d="M 1959 3097 
Q 1497 3097 1228 2736 
Q 959 2375 959 1747 
Q 959 1119 1226 758 
Q 1494 397 1959 397 
Q 2419 397 2687 759 
Q 2956 1122 2956 1747 
Q 2956 2369 2687 2733 
Q 2419 3097 1959 3097 
z
M 1959 3584 
Q 2709 3584 3137 3096 
Q 3566 2609 3566 1747 
Q 3566 888 3137 398 
Q 2709 -91 1959 -91 
Q 1206 -91 779 398 
Q 353 888 353 1747 
Q 353 2609 779 3096 
Q 1206 3584 1959 3584 
z
" id="DejaVuSans-6f" transform="scale(0.015625)"/>
       <path d="M 1172 4494 
L 1172 3500 
L 2356 3500 
L 2356 3053 
L 1172 3053 
L 1172 1153 
Q 1172 725 1289 603 
Q 1406 481 1766 481 
L 2356 481 
L 2356 0 
L 1766 0 
Q 1100 0 847 248 
Q 594 497 594 1153 
L 594 3053 
L 172 3053 
L 172 3500 
L 594 3500 
L 594 4494 
L 1172 4494 
z
" id="DejaVuSans-74" transform="scale(0.015625)"/>
      </defs>
      <use xlink:href="#DejaVuSans-43"/>
      <use x="69.824219" xlink:href="#DejaVuSans-6f"/>
      <use x="131.005859" xlink:href="#DejaVuSans-75"/>
      <use x="194.384766" xlink:href="#DejaVuSans-6e"/>
      <use x="257.763672" xlink:href="#DejaVuSans-74"/>
     </g>
    </g>
   </g>
   <g id="line2d_16">
    <path clip-path="url(#pea52aa6da6)" d="M 55.207182 192.170007 
L 58.266113 182.926456 
L 62.854509 167.770418 
L 67.442906 152.492226 
L 70.501837 142.987659 
L 73.560768 134.383982 
L 76.619699 126.805884 
L 79.67863 120.240999 
L 82.737561 114.605679 
L 85.796492 109.822047 
L 87.325958 107.741576 
L 88.855423 105.874526 
L 90.384889 104.231195 
L 91.914354 102.825261 
L 93.44382 101.672126 
L 94.973285 100.787013 
L 96.502751 100.18305 
L 98.032216 99.869526 
L 99.561682 99.850484 
L 101.091147 100.123787 
L 102.620613 100.680711 
L 104.150078 101.506089 
L 105.679544 102.578953 
L 107.209009 103.873617 
L 108.738475 105.361052 
L 111.797406 108.790756 
L 114.856337 112.627461 
L 124.03313 124.839274 
L 130.150992 132.780788 
L 139.327785 144.257405 
L 143.916181 150.087412 
L 148.504578 156.313152 
L 151.563509 160.796703 
L 154.62244 165.572725 
L 159.210836 173.190538 
L 168.38763 188.723003 
L 171.446561 193.541027 
L 174.505492 198.033565 
L 177.564423 202.163884 
L 180.623354 205.920814 
L 183.682285 209.305126 
L 186.741216 212.317108 
L 189.800147 214.949689 
L 192.859078 217.188733 
L 195.918009 219.019232 
L 198.97694 220.434189 
L 202.035871 221.442611 
L 205.094802 222.073991 
L 208.153733 222.378242 
L 211.212664 222.421462 
L 215.80106 222.161577 
L 228.036784 221.131629 
L 232.625181 220.993158 
L 237.213577 221.044815 
L 243.331439 221.374688 
L 250.978767 222.079643 
L 261.685026 223.135678 
L 267.802888 223.495587 
L 273.92075 223.596563 
L 292.274336 223.624826 
L 301.451129 223.742584 
L 307.568991 223.542451 
L 315.216318 222.986966 
L 321.33418 222.597649 
L 325.922577 222.507505 
L 330.510974 222.614548 
L 348.86456 223.353788 
L 359.570818 223.605662 
L 359.570818 223.605662 
" style="fill:none;stroke:#e32f27;stroke-linecap:square;stroke-width:2;"/>
   </g>
   <g id="line2d_17">
    <path clip-path="url(#pea52aa6da6)" d="M 55.207182 205.913665 
L 56.736647 203.122516 
L 58.266113 200.074812 
L 61.325044 193.206034 
L 64.383975 185.324897 
L 67.442906 176.492738 
L 70.501837 166.823124 
L 75.090233 151.157287 
L 82.737561 124.447255 
L 85.796492 114.694289 
L 88.855423 106.087428 
L 90.384889 102.318808 
L 91.914354 98.947432 
L 93.44382 95.991891 
L 94.973285 93.46035 
L 96.502751 91.350509 
L 98.032216 89.650196 
L 99.561682 88.338586 
L 101.091147 87.387963 
L 102.620613 86.765936 
L 104.150078 86.437933 
L 105.679544 86.369811 
L 107.209009 86.530376 
L 108.738475 86.89363 
L 110.26794 87.440562 
L 111.797406 88.160359 
L 113.326871 89.050909 
L 114.856337 90.11859 
L 116.385802 91.377323 
L 117.915268 92.84698 
L 119.444733 94.551242 
L 120.974199 96.515092 
L 122.503664 98.762109 
L 124.03313 101.311769 
L 125.562595 104.176957 
L 127.092061 107.36187 
L 128.621526 110.860442 
L 131.680457 118.718191 
L 134.739388 127.479028 
L 142.386716 150.351744 
L 145.445647 158.539386 
L 146.975112 162.201568 
L 148.504578 165.523997 
L 150.034043 168.480722 
L 151.563509 171.056827 
L 153.092974 173.248413 
L 154.62244 175.062148 
L 156.151905 176.514484 
L 157.681371 177.630571 
L 159.210836 178.442958 
L 160.740302 178.990145 
L 162.269767 179.315048 
L 163.799233 179.463434 
L 166.858164 179.418797 
L 171.446561 179.171816 
L 174.505492 179.333168 
L 176.034957 179.596703 
L 177.564423 180.006022 
L 179.093888 180.571118 
L 180.623354 181.295742 
L 182.152819 182.177713 
L 183.682285 183.209407 
L 186.741216 185.668259 
L 189.800147 188.530103 
L 200.506405 199.197155 
L 203.565336 201.840617 
L 206.624267 204.170511 
L 209.683198 206.186546 
L 212.742129 207.915601 
L 215.80106 209.39421 
L 218.859991 210.653532 
L 221.918922 211.710652 
L 224.977853 212.567824 
L 228.036784 213.218776 
L 231.095715 213.659112 
L 234.154646 213.896822 
L 238.743043 213.938771 
L 252.508233 213.609348 
L 257.096629 213.915882 
L 261.685026 214.496343 
L 267.802888 215.547748 
L 284.627008 218.621395 
L 293.803801 220.021875 
L 306.039525 221.631258 
L 318.275249 223.045392 
L 325.922577 223.698475 
L 332.040439 224.002604 
L 338.158301 224.09498 
L 345.805629 223.982544 
L 359.570818 223.738323 
L 359.570818 223.738323 
" style="fill:none;stroke:#fca082;stroke-linecap:square;stroke-width:2;"/>
   </g>
   <g id="patch_63">
    <path d="M 39.989 224.64 
L 39.989 7.2 
" style="fill:none;stroke:#000000;stroke-linecap:square;stroke-linejoin:miter;"/>
   </g>
   <g id="patch_64">
    <path d="M 374.789 224.64 
L 374.789 7.2 
" style="fill:none;stroke:#000000;stroke-linecap:square;stroke-linejoin:miter;"/>
   </g>
   <g id="patch_65">
    <path d="M 39.989 224.64 
L 374.789 224.64 
" style="fill:none;stroke:#000000;stroke-linecap:square;stroke-linejoin:miter;"/>
   </g>
   <g id="patch_66">
    <path d="M 39.989 7.2 
L 374.789 7.2 
" style="fill:none;stroke:#000000;stroke-linecap:square;stroke-linejoin:miter;"/>
   </g>
   <g id="legend_1">
    <g id="patch_67">
     <path d="M 295.727875 53.7645 
L 368.629 53.7645 
Q 370.389 53.7645 370.389 52.0045 
L 370.389 13.36 
Q 370.389 11.6 368.629 11.6 
L 295.727875 11.6 
Q 293.967875 11.6 293.967875 13.36 
L 293.967875 52.0045 
Q 293.967875 53.7645 295.727875 53.7645 
z
" style="fill:#ffffff;opacity:0.8;stroke:#cccccc;stroke-linejoin:miter;stroke-width:0.8;"/>
    </g>
    <g id="text_18">
     <!-- Group -->
     <g transform="translate(317.567687 22.4145)scale(0.096 -0.096)">
      <defs>
       <path d="M 3809 666 
L 3809 1919 
L 2778 1919 
L 2778 2438 
L 4434 2438 
L 4434 434 
Q 4069 175 3628 42 
Q 3188 -91 2688 -91 
Q 1594 -91 976 548 
Q 359 1188 359 2328 
Q 359 3472 976 4111 
Q 1594 4750 2688 4750 
Q 3144 4750 3555 4637 
Q 3966 4525 4313 4306 
L 4313 3634 
Q 3963 3931 3569 4081 
Q 3175 4231 2741 4231 
Q 1884 4231 1454 3753 
Q 1025 3275 1025 2328 
Q 1025 1384 1454 906 
Q 1884 428 2741 428 
Q 3075 428 3337 486 
Q 3600 544 3809 666 
z
" id="DejaVuSans-47" transform="scale(0.015625)"/>
       <path d="M 2631 2963 
Q 2534 3019 2420 3045 
Q 2306 3072 2169 3072 
Q 1681 3072 1420 2755 
Q 1159 2438 1159 1844 
L 1159 0 
L 581 0 
L 581 3500 
L 1159 3500 
L 1159 2956 
Q 1341 3275 1631 3429 
Q 1922 3584 2338 3584 
Q 2397 3584 2469 3576 
Q 2541 3569 2628 3553 
L 2631 2963 
z
" id="DejaVuSans-72" transform="scale(0.015625)"/>
       <path d="M 1159 525 
L 1159 -1331 
L 581 -1331 
L 581 3500 
L 1159 3500 
L 1159 2969 
Q 1341 3281 1617 3432 
Q 1894 3584 2278 3584 
Q 2916 3584 3314 3078 
Q 3713 2572 3713 1747 
Q 3713 922 3314 415 
Q 2916 -91 2278 -91 
Q 1894 -91 1617 61 
Q 1341 213 1159 525 
z
M 3116 1747 
Q 3116 2381 2855 2742 
Q 2594 3103 2138 3103 
Q 1681 3103 1420 2742 
Q 1159 2381 1159 1747 
Q 1159 1113 1420 752 
Q 1681 391 2138 391 
Q 2594 391 2855 752 
Q 3116 1113 3116 1747 
z
" id="DejaVuSans-70" transform="scale(0.015625)"/>
      </defs>
      <use xlink:href="#DejaVuSans-47"/>
      <use x="77.490234" xlink:href="#DejaVuSans-72"/>
      <use x="116.353516" xlink:href="#DejaVuSans-6f"/>
      <use x="177.535156" xlink:href="#DejaVuSans-75"/>
      <use x="240.914062" xlink:href="#DejaVuSans-70"/>
     </g>
    </g>
    <g id="patch_68">
     <path d="M 297.487875 35.497625 
L 315.087875 35.497625 
L 315.087875 29.337625 
L 297.487875 29.337625 
z
" style="fill:#fca082;fill-opacity:0.5;stroke:#000000;stroke-linejoin:miter;stroke-width:0.8;"/>
    </g>
    <g id="text_19">
     <!-- NoReward -->
     <g transform="translate(322.127875 35.497625)scale(0.088 -0.088)">
      <defs>
       <path d="M 628 4666 
L 1478 4666 
L 3547 763 
L 3547 4666 
L 4159 4666 
L 4159 0 
L 3309 0 
L 1241 3903 
L 1241 0 
L 628 0 
L 628 4666 
z
" id="DejaVuSans-4e" transform="scale(0.015625)"/>
       <path d="M 2841 2188 
Q 3044 2119 3236 1894 
Q 3428 1669 3622 1275 
L 4263 0 
L 3584 0 
L 2988 1197 
Q 2756 1666 2539 1819 
Q 2322 1972 1947 1972 
L 1259 1972 
L 1259 0 
L 628 0 
L 628 4666 
L 2053 4666 
Q 2853 4666 3247 4331 
Q 3641 3997 3641 3322 
Q 3641 2881 3436 2590 
Q 3231 2300 2841 2188 
z
M 1259 4147 
L 1259 2491 
L 2053 2491 
Q 2509 2491 2742 2702 
Q 2975 2913 2975 3322 
Q 2975 3731 2742 3939 
Q 2509 4147 2053 4147 
L 1259 4147 
z
" id="DejaVuSans-52" transform="scale(0.015625)"/>
       <path d="M 3597 1894 
L 3597 1613 
L 953 1613 
Q 991 1019 1311 708 
Q 1631 397 2203 397 
Q 2534 397 2845 478 
Q 3156 559 3463 722 
L 3463 178 
Q 3153 47 2828 -22 
Q 2503 -91 2169 -91 
Q 1331 -91 842 396 
Q 353 884 353 1716 
Q 353 2575 817 3079 
Q 1281 3584 2069 3584 
Q 2775 3584 3186 3129 
Q 3597 2675 3597 1894 
z
M 3022 2063 
Q 3016 2534 2758 2815 
Q 2500 3097 2075 3097 
Q 1594 3097 1305 2825 
Q 1016 2553 972 2059 
L 3022 2063 
z
" id="DejaVuSans-65" transform="scale(0.015625)"/>
       <path d="M 269 3500 
L 844 3500 
L 1563 769 
L 2278 3500 
L 2956 3500 
L 3675 769 
L 4391 3500 
L 4966 3500 
L 4050 0 
L 3372 0 
L 2619 2869 
L 1863 0 
L 1184 0 
L 269 3500 
z
" id="DejaVuSans-77" transform="scale(0.015625)"/>
       <path d="M 2194 1759 
Q 1497 1759 1228 1600 
Q 959 1441 959 1056 
Q 959 750 1161 570 
Q 1363 391 1709 391 
Q 2188 391 2477 730 
Q 2766 1069 2766 1631 
L 2766 1759 
L 2194 1759 
z
M 3341 1997 
L 3341 0 
L 2766 0 
L 2766 531 
Q 2569 213 2275 61 
Q 1981 -91 1556 -91 
Q 1019 -91 701 211 
Q 384 513 384 1019 
Q 384 1609 779 1909 
Q 1175 2209 1959 2209 
L 2766 2209 
L 2766 2266 
Q 2766 2663 2505 2880 
Q 2244 3097 1772 3097 
Q 1472 3097 1187 3025 
Q 903 2953 641 2809 
L 641 3341 
Q 956 3463 1253 3523 
Q 1550 3584 1831 3584 
Q 2591 3584 2966 3190 
Q 3341 2797 3341 1997 
z
" id="DejaVuSans-61" transform="scale(0.015625)"/>
       <path d="M 2906 2969 
L 2906 4863 
L 3481 4863 
L 3481 0 
L 2906 0 
L 2906 525 
Q 2725 213 2448 61 
Q 2172 -91 1784 -91 
Q 1150 -91 751 415 
Q 353 922 353 1747 
Q 353 2572 751 3078 
Q 1150 3584 1784 3584 
Q 2172 3584 2448 3432 
Q 2725 3281 2906 2969 
z
M 947 1747 
Q 947 1113 1208 752 
Q 1469 391 1925 391 
Q 2381 391 2643 752 
Q 2906 1113 2906 1747 
Q 2906 2381 2643 2742 
Q 2381 3103 1925 3103 
Q 1469 3103 1208 2742 
Q 947 2381 947 1747 
z
" id="DejaVuSans-64" transform="scale(0.015625)"/>
      </defs>
      <use xlink:href="#DejaVuSans-4e"/>
      <use x="74.804688" xlink:href="#DejaVuSans-6f"/>
      <use x="135.986328" xlink:href="#DejaVuSans-52"/>
      <use x="200.96875" xlink:href="#DejaVuSans-65"/>
      <use x="262.492188" xlink:href="#DejaVuSans-77"/>
      <use x="344.279297" xlink:href="#DejaVuSans-61"/>
      <use x="405.558594" xlink:href="#DejaVuSans-72"/>
      <use x="444.921875" xlink:href="#DejaVuSans-64"/>
     </g>
    </g>
    <g id="patch_69">
     <path d="M 297.487875 48.414375 
L 315.087875 48.414375 
L 315.087875 42.254375 
L 297.487875 42.254375 
z
" style="fill:#e32f27;fill-opacity:0.5;stroke:#000000;stroke-linejoin:miter;stroke-width:0.8;"/>
    </g>
    <g id="text_20">
     <!-- Reward -->
     <g transform="translate(322.127875 48.414375)scale(0.088 -0.088)">
      <use xlink:href="#DejaVuSans-52"/>
      <use x="64.982422" xlink:href="#DejaVuSans-65"/>
      <use x="126.505859" xlink:href="#DejaVuSans-77"/>
      <use x="208.292969" xlink:href="#DejaVuSans-61"/>
      <use x="269.572266" xlink:href="#DejaVuSans-72"/>
      <use x="308.935547" xlink:href="#DejaVuSans-64"/>
     </g>
    </g>
   </g>
  </g>
 </g>
 <defs>
  <clipPath id="pea52aa6da6">
   <rect height="217.44" width="334.8" x="39.989" y="7.2"/>
  </clipPath>
 </defs>
</svg>
