<?xml version="1.0" encoding="utf-8" standalone="no"?>
<!DOCTYPE svg PUBLIC "-//W3C//DTD SVG 1.1//EN"
  "http://www.w3.org/Graphics/SVG/1.1/DTD/svg11.dtd">
<svg height="266.206125pt" version="1.1" viewBox="0 0 386.247375 266.206125" width="386.247375pt" xmlns="http://www.w3.org/2000/svg" xmlns:xlink="http://www.w3.org/1999/xlink">
 <metadata>
  <rdf:RDF xmlns:cc="http://creativecommons.org/ns#" xmlns:dc="http://purl.org/dc/elements/1.1/" xmlns:rdf="http://www.w3.org/1999/02/22-rdf-syntax-ns#">
   <cc:Work>
    <dc:type rdf:resource="http://purl.org/dc/dcmitype/StillImage"/>
    <dc:date>2022-04-29T16:04:30.226149</dc:date>
    <dc:format>image/svg+xml</dc:format>
    <dc:creator>
     <cc:Agent>
      <dc:title>Matplotlib v3.4.3, https://matplotlib.org/</dc:title>
     </cc:Agent>
    </dc:creator>
   </cc:Work>
  </rdf:RDF>
 </metadata>
 <defs>
  <style type="text/css">*{stroke-linecap:butt;stroke-linejoin:round;}</style>
 </defs>
 <g id="figure_1">
  <g id="patch_1">
   <path d="M 0 266.206125 
L 386.247375 266.206125 
L 386.247375 0 
L 0 0 
z
" style="fill:none;"/>
  </g>
  <g id="axes_1">
   <g id="patch_2">
    <path d="M 44.247375 224.64 
L 379.047375 224.64 
L 379.047375 7.2 
L 44.247375 7.2 
z
" style="fill:#ffffff;"/>
   </g>
   <g id="PolyCollection_1">
    <defs>
     <path d="M 59.465557 -159.322967 
L 59.465557 -138.328889 
L 65.10192 -109.258677 
L 70.738284 -118.200832 
L 76.374648 -101.003895 
L 82.011011 -94.077874 
L 87.647375 -97.836075 
L 93.283739 -95.908498 
L 98.920102 -102.382141 
L 104.556466 -99.502912 
L 110.19283 -104.680421 
L 115.829193 -104.661869 
L 121.465557 -105.096039 
L 127.10192 -192.164181 
L 132.738284 -155.953354 
L 138.374648 -184.754957 
L 144.011011 -163.997721 
L 149.647375 -153.26676 
L 155.283739 -165.17016 
L 160.920102 -163.575946 
L 166.556466 -168.02682 
L 172.19283 -139.165316 
L 177.829193 -140.085004 
L 183.465557 -123.31642 
L 189.10192 -135.847725 
L 194.738284 -123.782163 
L 200.374648 -115.724087 
L 206.011011 -134.053311 
L 211.647375 -122.223893 
L 217.283739 -122.000629 
L 222.920102 -167.894009 
L 228.556466 -152.630482 
L 234.19283 -139.194343 
L 239.829193 -145.759962 
L 245.465557 -132.617835 
L 251.10192 -126.935863 
L 256.738284 -129.79533 
L 262.374648 -126.923499 
L 268.011011 -134.165424 
L 273.647375 -140.916147 
L 279.283739 -140.813309 
L 284.920102 -133.733029 
L 290.556466 -112.289702 
L 296.19283 -112.015293 
L 301.829193 -101.010555 
L 307.465557 -100.095802 
L 313.10192 -82.635078 
L 318.738284 -85.177198 
L 324.374648 -86.324501 
L 330.011011 -84.083925 
L 335.647375 -80.628685 
L 341.283739 -80.211921 
L 346.920102 -70.130484 
L 352.556466 -87.592648 
L 358.19283 -69.120441 
L 363.829193 -51.449761 
L 363.829193 -89.496595 
L 363.829193 -89.496595 
L 358.19283 -85.911932 
L 352.556466 -132.42062 
L 346.920102 -127.269301 
L 341.283739 -132.713493 
L 335.647375 -137.461316 
L 330.011011 -137.696313 
L 324.374648 -142.770583 
L 318.738284 -148.775967 
L 313.10192 -152.033625 
L 307.465557 -150.366937 
L 301.829193 -159.099383 
L 296.19283 -161.528262 
L 290.556466 -150.240818 
L 284.920102 -170.327211 
L 279.283739 -196.888145 
L 273.647375 -191.054371 
L 268.011011 -190.122655 
L 262.374648 -183.52216 
L 256.738284 -159.707705 
L 251.10192 -163.734597 
L 245.465557 -163.908709 
L 239.829193 -195.5625 
L 234.19283 -184.709731 
L 228.556466 -195.480664 
L 222.920102 -217.20008 
L 217.283739 -171.060606 
L 211.647375 -154.825535 
L 206.011011 -168.609689 
L 200.374648 -144.773079 
L 194.738284 -153.912219 
L 189.10192 -169.071142 
L 183.465557 -164.068251 
L 177.829193 -169.081188 
L 172.19283 -165.846867 
L 166.556466 -249.122489 
L 160.920102 -213.848853 
L 155.283739 -207.70837 
L 149.647375 -181.464006 
L 144.011011 -216.86549 
L 138.374648 -225.716534 
L 132.738284 -185.878835 
L 127.10192 -222.536734 
L 121.465557 -141.54322 
L 115.829193 -144.190684 
L 110.19283 -140.479316 
L 104.556466 -130.499726 
L 98.920102 -127.885432 
L 93.283739 -107.534026 
L 87.647375 -115.983433 
L 82.011011 -102.352424 
L 76.374648 -124.114546 
L 70.738284 -132.334038 
L 65.10192 -126.004003 
L 59.465557 -159.322967 
z
" id="m3d3501c55f" style="stroke:#721f81;stroke-opacity:0.2;stroke-width:0.8;"/>
    </defs>
    <g clip-path="url(#p0c033cda81)">
     <use style="fill:#721f81;fill-opacity:0.2;stroke:#721f81;stroke-opacity:0.2;stroke-width:0.8;" x="0" xlink:href="#m3d3501c55f" y="266.206125"/>
    </g>
   </g>
   <g id="PolyCollection_2">
    <defs>
     <path d="M 59.465557 -182.23214 
L 59.465557 -155.395964 
L 65.10192 -117.087158 
L 70.738284 -100.814119 
L 76.374648 -119.056482 
L 82.011011 -103.331917 
L 87.647375 -112.184135 
L 93.283739 -101.322559 
L 98.920102 -89.34441 
L 104.556466 -89.183835 
L 110.19283 -85.931522 
L 115.829193 -86.704215 
L 121.465557 -84.753579 
L 127.10192 -197.975893 
L 132.738284 -149.134523 
L 138.374648 -142.42697 
L 144.011011 -134.380055 
L 149.647375 -154.755624 
L 155.283739 -128.663696 
L 160.920102 -148.823555 
L 166.556466 -128.432169 
L 172.19283 -115.659365 
L 177.829193 -121.0496 
L 183.465557 -116.935978 
L 189.10192 -126.840716 
L 194.738284 -127.859376 
L 200.374648 -110.817818 
L 206.011011 -117.895428 
L 211.647375 -115.532811 
L 217.283739 -105.841149 
L 222.920102 -110.119315 
L 228.556466 -110.167621 
L 234.19283 -113.04321 
L 239.829193 -105.269012 
L 245.465557 -112.741212 
L 251.10192 -129.657482 
L 256.738284 -98.973263 
L 262.374648 -114.519956 
L 268.011011 -116.904265 
L 273.647375 -123.61291 
L 279.283739 -120.864465 
L 284.920102 -121.520922 
L 290.556466 -106.141181 
L 296.19283 -113.425197 
L 301.829193 -88.752846 
L 307.465557 -78.856012 
L 313.10192 -70.712038 
L 318.738284 -77.80695 
L 324.374648 -77.995784 
L 330.011011 -69.100379 
L 335.647375 -81.369885 
L 341.283739 -71.381903 
L 346.920102 -71.655999 
L 352.556466 -68.800388 
L 358.19283 -71.780131 
L 358.19283 -90.364527 
L 358.19283 -90.364527 
L 352.556466 -82.100936 
L 346.920102 -83.257428 
L 341.283739 -83.594385 
L 335.647375 -98.20004 
L 330.011011 -79.754793 
L 324.374648 -95.641341 
L 318.738284 -95.530281 
L 313.10192 -82.88598 
L 307.465557 -89.472113 
L 301.829193 -109.076183 
L 296.19283 -153.489287 
L 290.556466 -163.442049 
L 284.920102 -154.020579 
L 279.283739 -148.82583 
L 273.647375 -207.177489 
L 268.011011 -141.84783 
L 262.374648 -139.496194 
L 256.738284 -148.166005 
L 251.10192 -165.281062 
L 245.465557 -140.768541 
L 239.829193 -131.442271 
L 234.19283 -140.000151 
L 228.556466 -147.705531 
L 222.920102 -143.595499 
L 217.283739 -134.916567 
L 211.647375 -145.675005 
L 206.011011 -206.168889 
L 200.374648 -144.056574 
L 194.738284 -157.135964 
L 189.10192 -155.376406 
L 183.465557 -141.218904 
L 177.829193 -151.823098 
L 172.19283 -144.370055 
L 166.556466 -153.823296 
L 160.920102 -213.578404 
L 155.283739 -181.645611 
L 149.647375 -207.512896 
L 144.011011 -159.995925 
L 138.374648 -168.393697 
L 132.738284 -182.22608 
L 127.10192 -244.929163 
L 121.465557 -96.757941 
L 115.829193 -116.60706 
L 110.19283 -104.981527 
L 104.556466 -105.514549 
L 98.920102 -104.750838 
L 93.283739 -140.231501 
L 87.647375 -151.837786 
L 82.011011 -124.088351 
L 76.374648 -149.609854 
L 70.738284 -119.372912 
L 65.10192 -131.630686 
L 59.465557 -182.23214 
z
" id="m352c7931cd" style="stroke:#f1605d;stroke-opacity:0.2;stroke-width:0.8;"/>
    </defs>
    <g clip-path="url(#p0c033cda81)">
     <use style="fill:#f1605d;fill-opacity:0.2;stroke:#f1605d;stroke-opacity:0.2;stroke-width:0.8;" x="0" xlink:href="#m352c7931cd" y="266.206125"/>
    </g>
   </g>
   <g id="matplotlib.axis_1">
    <g id="xtick_1">
     <g id="line2d_1">
      <defs>
       <path d="M 0 0 
L 0 4.8 
" id="m50600dc2ff" style="stroke:#000000;"/>
      </defs>
      <g>
       <use style="stroke:#000000;" x="59.465557" xlink:href="#m50600dc2ff" y="224.64"/>
      </g>
     </g>
     <g id="text_1">
      <!-- 0 -->
      <g transform="translate(56.666057 239.626625)scale(0.088 -0.088)">
       <defs>
        <path d="M 2034 4250 
Q 1547 4250 1301 3770 
Q 1056 3291 1056 2328 
Q 1056 1369 1301 889 
Q 1547 409 2034 409 
Q 2525 409 2770 889 
Q 3016 1369 3016 2328 
Q 3016 3291 2770 3770 
Q 2525 4250 2034 4250 
z
M 2034 4750 
Q 2819 4750 3233 4129 
Q 3647 3509 3647 2328 
Q 3647 1150 3233 529 
Q 2819 -91 2034 -91 
Q 1250 -91 836 529 
Q 422 1150 422 2328 
Q 422 3509 836 4129 
Q 1250 4750 2034 4750 
z
" id="DejaVuSans-30" transform="scale(0.015625)"/>
       </defs>
       <use xlink:href="#DejaVuSans-30"/>
      </g>
     </g>
    </g>
    <g id="xtick_2">
     <g id="line2d_2">
      <g>
       <use style="stroke:#000000;" x="115.829193" xlink:href="#m50600dc2ff" y="224.64"/>
      </g>
     </g>
     <g id="text_2">
      <!-- 10 -->
      <g transform="translate(110.230193 239.626625)scale(0.088 -0.088)">
       <defs>
        <path d="M 794 531 
L 1825 531 
L 1825 4091 
L 703 3866 
L 703 4441 
L 1819 4666 
L 2450 4666 
L 2450 531 
L 3481 531 
L 3481 0 
L 794 0 
L 794 531 
z
" id="DejaVuSans-31" transform="scale(0.015625)"/>
       </defs>
       <use xlink:href="#DejaVuSans-31"/>
       <use x="63.623047" xlink:href="#DejaVuSans-30"/>
      </g>
     </g>
    </g>
    <g id="xtick_3">
     <g id="line2d_3">
      <g>
       <use style="stroke:#000000;" x="172.19283" xlink:href="#m50600dc2ff" y="224.64"/>
      </g>
     </g>
     <g id="text_3">
      <!-- 20 -->
      <g transform="translate(166.59383 239.626625)scale(0.088 -0.088)">
       <defs>
        <path d="M 1228 531 
L 3431 531 
L 3431 0 
L 469 0 
L 469 531 
Q 828 903 1448 1529 
Q 2069 2156 2228 2338 
Q 2531 2678 2651 2914 
Q 2772 3150 2772 3378 
Q 2772 3750 2511 3984 
Q 2250 4219 1831 4219 
Q 1534 4219 1204 4116 
Q 875 4013 500 3803 
L 500 4441 
Q 881 4594 1212 4672 
Q 1544 4750 1819 4750 
Q 2544 4750 2975 4387 
Q 3406 4025 3406 3419 
Q 3406 3131 3298 2873 
Q 3191 2616 2906 2266 
Q 2828 2175 2409 1742 
Q 1991 1309 1228 531 
z
" id="DejaVuSans-32" transform="scale(0.015625)"/>
       </defs>
       <use xlink:href="#DejaVuSans-32"/>
       <use x="63.623047" xlink:href="#DejaVuSans-30"/>
      </g>
     </g>
    </g>
    <g id="xtick_4">
     <g id="line2d_4">
      <g>
       <use style="stroke:#000000;" x="228.556466" xlink:href="#m50600dc2ff" y="224.64"/>
      </g>
     </g>
     <g id="text_4">
      <!-- 30 -->
      <g transform="translate(222.957466 239.626625)scale(0.088 -0.088)">
       <defs>
        <path d="M 2597 2516 
Q 3050 2419 3304 2112 
Q 3559 1806 3559 1356 
Q 3559 666 3084 287 
Q 2609 -91 1734 -91 
Q 1441 -91 1130 -33 
Q 819 25 488 141 
L 488 750 
Q 750 597 1062 519 
Q 1375 441 1716 441 
Q 2309 441 2620 675 
Q 2931 909 2931 1356 
Q 2931 1769 2642 2001 
Q 2353 2234 1838 2234 
L 1294 2234 
L 1294 2753 
L 1863 2753 
Q 2328 2753 2575 2939 
Q 2822 3125 2822 3475 
Q 2822 3834 2567 4026 
Q 2313 4219 1838 4219 
Q 1578 4219 1281 4162 
Q 984 4106 628 3988 
L 628 4550 
Q 988 4650 1302 4700 
Q 1616 4750 1894 4750 
Q 2613 4750 3031 4423 
Q 3450 4097 3450 3541 
Q 3450 3153 3228 2886 
Q 3006 2619 2597 2516 
z
" id="DejaVuSans-33" transform="scale(0.015625)"/>
       </defs>
       <use xlink:href="#DejaVuSans-33"/>
       <use x="63.623047" xlink:href="#DejaVuSans-30"/>
      </g>
     </g>
    </g>
    <g id="xtick_5">
     <g id="line2d_5">
      <g>
       <use style="stroke:#000000;" x="284.920102" xlink:href="#m50600dc2ff" y="224.64"/>
      </g>
     </g>
     <g id="text_5">
      <!-- 40 -->
      <g transform="translate(279.321102 239.626625)scale(0.088 -0.088)">
       <defs>
        <path d="M 2419 4116 
L 825 1625 
L 2419 1625 
L 2419 4116 
z
M 2253 4666 
L 3047 4666 
L 3047 1625 
L 3713 1625 
L 3713 1100 
L 3047 1100 
L 3047 0 
L 2419 0 
L 2419 1100 
L 313 1100 
L 313 1709 
L 2253 4666 
z
" id="DejaVuSans-34" transform="scale(0.015625)"/>
       </defs>
       <use xlink:href="#DejaVuSans-34"/>
       <use x="63.623047" xlink:href="#DejaVuSans-30"/>
      </g>
     </g>
    </g>
    <g id="xtick_6">
     <g id="line2d_6">
      <g>
       <use style="stroke:#000000;" x="341.283739" xlink:href="#m50600dc2ff" y="224.64"/>
      </g>
     </g>
     <g id="text_6">
      <!-- 50 -->
      <g transform="translate(335.684739 239.626625)scale(0.088 -0.088)">
       <defs>
        <path d="M 691 4666 
L 3169 4666 
L 3169 4134 
L 1269 4134 
L 1269 2991 
Q 1406 3038 1543 3061 
Q 1681 3084 1819 3084 
Q 2600 3084 3056 2656 
Q 3513 2228 3513 1497 
Q 3513 744 3044 326 
Q 2575 -91 1722 -91 
Q 1428 -91 1123 -41 
Q 819 9 494 109 
L 494 744 
Q 775 591 1075 516 
Q 1375 441 1709 441 
Q 2250 441 2565 725 
Q 2881 1009 2881 1497 
Q 2881 1984 2565 2268 
Q 2250 2553 1709 2553 
Q 1456 2553 1204 2497 
Q 953 2441 691 2322 
L 691 4666 
z
" id="DejaVuSans-35" transform="scale(0.015625)"/>
       </defs>
       <use xlink:href="#DejaVuSans-35"/>
       <use x="63.623047" xlink:href="#DejaVuSans-30"/>
      </g>
     </g>
    </g>
    <g id="text_7">
     <!-- Trial -->
     <g transform="translate(197.347687 256.094562)scale(0.14 -0.14)">
      <defs>
       <path d="M -19 4666 
L 3928 4666 
L 3928 4134 
L 2272 4134 
L 2272 0 
L 1638 0 
L 1638 4134 
L -19 4134 
L -19 4666 
z
" id="DejaVuSans-54" transform="scale(0.015625)"/>
       <path d="M 2631 2963 
Q 2534 3019 2420 3045 
Q 2306 3072 2169 3072 
Q 1681 3072 1420 2755 
Q 1159 2438 1159 1844 
L 1159 0 
L 581 0 
L 581 3500 
L 1159 3500 
L 1159 2956 
Q 1341 3275 1631 3429 
Q 1922 3584 2338 3584 
Q 2397 3584 2469 3576 
Q 2541 3569 2628 3553 
L 2631 2963 
z
" id="DejaVuSans-72" transform="scale(0.015625)"/>
       <path d="M 603 3500 
L 1178 3500 
L 1178 0 
L 603 0 
L 603 3500 
z
M 603 4863 
L 1178 4863 
L 1178 4134 
L 603 4134 
L 603 4863 
z
" id="DejaVuSans-69" transform="scale(0.015625)"/>
       <path d="M 2194 1759 
Q 1497 1759 1228 1600 
Q 959 1441 959 1056 
Q 959 750 1161 570 
Q 1363 391 1709 391 
Q 2188 391 2477 730 
Q 2766 1069 2766 1631 
L 2766 1759 
L 2194 1759 
z
M 3341 1997 
L 3341 0 
L 2766 0 
L 2766 531 
Q 2569 213 2275 61 
Q 1981 -91 1556 -91 
Q 1019 -91 701 211 
Q 384 513 384 1019 
Q 384 1609 779 1909 
Q 1175 2209 1959 2209 
L 2766 2209 
L 2766 2266 
Q 2766 2663 2505 2880 
Q 2244 3097 1772 3097 
Q 1472 3097 1187 3025 
Q 903 2953 641 2809 
L 641 3341 
Q 956 3463 1253 3523 
Q 1550 3584 1831 3584 
Q 2591 3584 2966 3190 
Q 3341 2797 3341 1997 
z
" id="DejaVuSans-61" transform="scale(0.015625)"/>
       <path d="M 603 4863 
L 1178 4863 
L 1178 0 
L 603 0 
L 603 4863 
z
" id="DejaVuSans-6c" transform="scale(0.015625)"/>
      </defs>
      <use xlink:href="#DejaVuSans-54"/>
      <use x="46.333984" xlink:href="#DejaVuSans-72"/>
      <use x="87.447266" xlink:href="#DejaVuSans-69"/>
      <use x="115.230469" xlink:href="#DejaVuSans-61"/>
      <use x="176.509766" xlink:href="#DejaVuSans-6c"/>
     </g>
    </g>
   </g>
   <g id="matplotlib.axis_2">
    <g id="ytick_1">
     <g id="line2d_7">
      <defs>
       <path d="M 0 0 
L -4.8 0 
" id="mf2be583667" style="stroke:#000000;"/>
      </defs>
      <g>
       <use style="stroke:#000000;" x="44.247375" xlink:href="#mf2be583667" y="212.06961"/>
      </g>
     </g>
     <g id="text_8">
      <!-- 10 -->
      <g transform="translate(24.749375 215.412922)scale(0.088 -0.088)">
       <use xlink:href="#DejaVuSans-31"/>
       <use x="63.623047" xlink:href="#DejaVuSans-30"/>
      </g>
     </g>
    </g>
    <g id="ytick_2">
     <g id="line2d_8">
      <g>
       <use style="stroke:#000000;" x="44.247375" xlink:href="#mf2be583667" y="181.342528"/>
      </g>
     </g>
     <g id="text_9">
      <!-- 15 -->
      <g transform="translate(24.749375 184.68584)scale(0.088 -0.088)">
       <use xlink:href="#DejaVuSans-31"/>
       <use x="63.623047" xlink:href="#DejaVuSans-35"/>
      </g>
     </g>
    </g>
    <g id="ytick_3">
     <g id="line2d_9">
      <g>
       <use style="stroke:#000000;" x="44.247375" xlink:href="#mf2be583667" y="150.615446"/>
      </g>
     </g>
     <g id="text_10">
      <!-- 20 -->
      <g transform="translate(24.749375 153.958758)scale(0.088 -0.088)">
       <use xlink:href="#DejaVuSans-32"/>
       <use x="63.623047" xlink:href="#DejaVuSans-30"/>
      </g>
     </g>
    </g>
    <g id="ytick_4">
     <g id="line2d_10">
      <g>
       <use style="stroke:#000000;" x="44.247375" xlink:href="#mf2be583667" y="119.888364"/>
      </g>
     </g>
     <g id="text_11">
      <!-- 25 -->
      <g transform="translate(24.749375 123.231677)scale(0.088 -0.088)">
       <use xlink:href="#DejaVuSans-32"/>
       <use x="63.623047" xlink:href="#DejaVuSans-35"/>
      </g>
     </g>
    </g>
    <g id="ytick_5">
     <g id="line2d_11">
      <g>
       <use style="stroke:#000000;" x="44.247375" xlink:href="#mf2be583667" y="89.161282"/>
      </g>
     </g>
     <g id="text_12">
      <!-- 30 -->
      <g transform="translate(24.749375 92.504595)scale(0.088 -0.088)">
       <use xlink:href="#DejaVuSans-33"/>
       <use x="63.623047" xlink:href="#DejaVuSans-30"/>
      </g>
     </g>
    </g>
    <g id="ytick_6">
     <g id="line2d_12">
      <g>
       <use style="stroke:#000000;" x="44.247375" xlink:href="#mf2be583667" y="58.4342"/>
      </g>
     </g>
     <g id="text_13">
      <!-- 35 -->
      <g transform="translate(24.749375 61.777513)scale(0.088 -0.088)">
       <use xlink:href="#DejaVuSans-33"/>
       <use x="63.623047" xlink:href="#DejaVuSans-35"/>
      </g>
     </g>
    </g>
    <g id="ytick_7">
     <g id="line2d_13">
      <g>
       <use style="stroke:#000000;" x="44.247375" xlink:href="#mf2be583667" y="27.707118"/>
      </g>
     </g>
     <g id="text_14">
      <!-- 40 -->
      <g transform="translate(24.749375 31.050431)scale(0.088 -0.088)">
       <use xlink:href="#DejaVuSans-34"/>
       <use x="63.623047" xlink:href="#DejaVuSans-30"/>
      </g>
     </g>
    </g>
    <g id="text_15">
     <!-- Intercept -->
     <g transform="translate(17.837813 147.537031)rotate(-90)scale(0.14 -0.14)">
      <defs>
       <path d="M 628 4666 
L 1259 4666 
L 1259 0 
L 628 0 
L 628 4666 
z
" id="DejaVuSans-49" transform="scale(0.015625)"/>
       <path d="M 3513 2113 
L 3513 0 
L 2938 0 
L 2938 2094 
Q 2938 2591 2744 2837 
Q 2550 3084 2163 3084 
Q 1697 3084 1428 2787 
Q 1159 2491 1159 1978 
L 1159 0 
L 581 0 
L 581 3500 
L 1159 3500 
L 1159 2956 
Q 1366 3272 1645 3428 
Q 1925 3584 2291 3584 
Q 2894 3584 3203 3211 
Q 3513 2838 3513 2113 
z
" id="DejaVuSans-6e" transform="scale(0.015625)"/>
       <path d="M 1172 4494 
L 1172 3500 
L 2356 3500 
L 2356 3053 
L 1172 3053 
L 1172 1153 
Q 1172 725 1289 603 
Q 1406 481 1766 481 
L 2356 481 
L 2356 0 
L 1766 0 
Q 1100 0 847 248 
Q 594 497 594 1153 
L 594 3053 
L 172 3053 
L 172 3500 
L 594 3500 
L 594 4494 
L 1172 4494 
z
" id="DejaVuSans-74" transform="scale(0.015625)"/>
       <path d="M 3597 1894 
L 3597 1613 
L 953 1613 
Q 991 1019 1311 708 
Q 1631 397 2203 397 
Q 2534 397 2845 478 
Q 3156 559 3463 722 
L 3463 178 
Q 3153 47 2828 -22 
Q 2503 -91 2169 -91 
Q 1331 -91 842 396 
Q 353 884 353 1716 
Q 353 2575 817 3079 
Q 1281 3584 2069 3584 
Q 2775 3584 3186 3129 
Q 3597 2675 3597 1894 
z
M 3022 2063 
Q 3016 2534 2758 2815 
Q 2500 3097 2075 3097 
Q 1594 3097 1305 2825 
Q 1016 2553 972 2059 
L 3022 2063 
z
" id="DejaVuSans-65" transform="scale(0.015625)"/>
       <path d="M 3122 3366 
L 3122 2828 
Q 2878 2963 2633 3030 
Q 2388 3097 2138 3097 
Q 1578 3097 1268 2742 
Q 959 2388 959 1747 
Q 959 1106 1268 751 
Q 1578 397 2138 397 
Q 2388 397 2633 464 
Q 2878 531 3122 666 
L 3122 134 
Q 2881 22 2623 -34 
Q 2366 -91 2075 -91 
Q 1284 -91 818 406 
Q 353 903 353 1747 
Q 353 2603 823 3093 
Q 1294 3584 2113 3584 
Q 2378 3584 2631 3529 
Q 2884 3475 3122 3366 
z
" id="DejaVuSans-63" transform="scale(0.015625)"/>
       <path d="M 1159 525 
L 1159 -1331 
L 581 -1331 
L 581 3500 
L 1159 3500 
L 1159 2969 
Q 1341 3281 1617 3432 
Q 1894 3584 2278 3584 
Q 2916 3584 3314 3078 
Q 3713 2572 3713 1747 
Q 3713 922 3314 415 
Q 2916 -91 2278 -91 
Q 1894 -91 1617 61 
Q 1341 213 1159 525 
z
M 3116 1747 
Q 3116 2381 2855 2742 
Q 2594 3103 2138 3103 
Q 1681 3103 1420 2742 
Q 1159 2381 1159 1747 
Q 1159 1113 1420 752 
Q 1681 391 2138 391 
Q 2594 391 2855 752 
Q 3116 1113 3116 1747 
z
" id="DejaVuSans-70" transform="scale(0.015625)"/>
      </defs>
      <use xlink:href="#DejaVuSans-49"/>
      <use x="29.492188" xlink:href="#DejaVuSans-6e"/>
      <use x="92.871094" xlink:href="#DejaVuSans-74"/>
      <use x="132.080078" xlink:href="#DejaVuSans-65"/>
      <use x="193.603516" xlink:href="#DejaVuSans-72"/>
      <use x="232.466797" xlink:href="#DejaVuSans-63"/>
      <use x="287.447266" xlink:href="#DejaVuSans-65"/>
      <use x="348.970703" xlink:href="#DejaVuSans-70"/>
      <use x="412.447266" xlink:href="#DejaVuSans-74"/>
     </g>
    </g>
   </g>
   <g id="line2d_14">
    <path clip-path="url(#p0c033cda81)" d="M 59.465557 118.018839 
L 65.10192 148.544164 
L 70.738284 141.068593 
L 76.374648 153.61532 
L 82.011011 168.097907 
L 87.647375 159.502388 
L 93.283739 164.380235 
L 98.920102 150.944441 
L 104.556466 150.451089 
L 110.19283 143.137285 
L 115.829193 141.795935 
L 121.465557 142.403506 
L 127.10192 59.076599 
L 132.738284 95.777503 
L 138.374648 62.442471 
L 144.011011 75.152911 
L 149.647375 98.344969 
L 155.283739 79.926421 
L 160.920102 76.389264 
L 166.556466 59.270744 
L 172.19283 112.205768 
L 177.829193 111.548977 
L 183.465557 122.490406 
L 189.10192 114.100836 
L 194.738284 126.900323 
L 200.374648 136.44299 
L 206.011011 114.717532 
L 211.647375 127.113128 
L 217.283739 119.762336 
L 222.920102 74.102719 
L 228.556466 92.234126 
L 234.19283 104.280204 
L 239.829193 95.298545 
L 245.465557 117.72151 
L 251.10192 120.679746 
L 256.738284 122.071117 
L 262.374648 112.386752 
L 268.011011 102.697514 
L 273.647375 100.730081 
L 279.283739 96.324049 
L 284.920102 113.871198 
L 290.556466 133.524437 
L 296.19283 128.787053 
L 301.829193 135.042471 
L 307.465557 139.962074 
L 313.10192 148.611776 
L 318.738284 149.171982 
L 324.374648 150.98852 
L 330.011011 155.618058 
L 335.647375 157.209378 
L 341.283739 159.615195 
L 346.920102 167.612943 
L 352.556466 155.910645 
L 358.19283 188.689939 
L 363.829193 195.732947 
" style="fill:none;stroke:#721f81;stroke-linecap:square;stroke-width:2;"/>
   </g>
   <g id="line2d_15">
    <path clip-path="url(#p0c033cda81)" d="M 59.465557 98.445038 
L 65.10192 141.338459 
L 70.738284 155.732468 
L 76.374648 132.633991 
L 82.011011 152.402972 
L 87.647375 133.580332 
L 93.283739 145.342908 
L 98.920102 169.448279 
L 104.556466 168.302162 
L 110.19283 171.15617 
L 115.829193 164.350688 
L 121.465557 175.358226 
L 127.10192 44.970621 
L 132.738284 100.045297 
L 138.374648 111.278982 
L 144.011011 119.118807 
L 149.647375 87.506978 
L 155.283739 112.059911 
L 160.920102 86.018638 
L 166.556466 124.467629 
L 172.19283 136.149282 
L 177.829193 130.075605 
L 183.465557 137.727278 
L 189.10192 124.490901 
L 194.738284 123.898671 
L 200.374648 138.558236 
L 206.011011 103.163095 
L 211.647375 135.329793 
L 217.283739 145.812918 
L 222.920102 140.603929 
L 228.556466 137.763879 
L 234.19283 139.407649 
L 239.829193 147.527804 
L 245.465557 139.103901 
L 251.10192 118.403562 
L 256.738284 142.405844 
L 262.374648 139.314106 
L 268.011011 137.207345 
L 273.647375 102.133544 
L 279.283739 131.720234 
L 284.920102 128.047751 
L 290.556466 131.822527 
L 296.19283 134.062579 
L 301.829193 167.483861 
L 307.465557 181.937197 
L 313.10192 189.581356 
L 318.738284 179.427439 
L 324.374648 179.786835 
L 330.011011 191.800381 
L 335.647375 176.762275 
L 341.283739 188.583714 
L 346.920102 188.859906 
L 352.556466 190.858573 
L 358.19283 184.978049 
" style="fill:none;stroke:#f1605d;stroke-linecap:square;stroke-width:2;"/>
   </g>
   <g id="line2d_16"/>
   <g id="line2d_17"/>
   <g id="patch_3">
    <path d="M 44.247375 224.64 
L 44.247375 7.2 
" style="fill:none;stroke:#000000;stroke-linecap:square;stroke-linejoin:miter;"/>
   </g>
   <g id="patch_4">
    <path d="M 379.047375 224.64 
L 379.047375 7.2 
" style="fill:none;stroke:#000000;stroke-linecap:square;stroke-linejoin:miter;"/>
   </g>
   <g id="patch_5">
    <path d="M 44.247375 224.64 
L 379.047375 224.64 
" style="fill:none;stroke:#000000;stroke-linecap:square;stroke-linejoin:miter;"/>
   </g>
   <g id="patch_6">
    <path d="M 44.247375 7.2 
L 379.047375 7.2 
" style="fill:none;stroke:#000000;stroke-linecap:square;stroke-linejoin:miter;"/>
   </g>
   <g id="legend_1">
    <g id="patch_7">
     <path d="M 369.367375 18.64 
L 372.887375 18.64 
Q 374.647375 18.64 374.647375 16.88 
L 374.647375 13.36 
Q 374.647375 11.6 372.887375 11.6 
L 369.367375 11.6 
Q 367.607375 11.6 367.607375 13.36 
L 367.607375 16.88 
Q 367.607375 18.64 369.367375 18.64 
z
" style="fill:#ffffff;opacity:0.8;stroke:#cccccc;stroke-linejoin:miter;stroke-width:0.8;"/>
    </g>
   </g>
  </g>
 </g>
 <defs>
  <clipPath id="p0c033cda81">
   <rect height="217.44" width="334.8" x="44.247375" y="7.2"/>
  </clipPath>
 </defs>
</svg>
