<?xml version="1.0" encoding="utf-8" standalone="no"?>
<!DOCTYPE svg PUBLIC "-//W3C//DTD SVG 1.1//EN"
  "http://www.w3.org/Graphics/SVG/1.1/DTD/svg11.dtd">
<svg height="266.206125pt" version="1.1" viewBox="0 0 386.247375 266.206125" width="386.247375pt" xmlns="http://www.w3.org/2000/svg" xmlns:xlink="http://www.w3.org/1999/xlink">
 <metadata>
  <rdf:RDF xmlns:cc="http://creativecommons.org/ns#" xmlns:dc="http://purl.org/dc/elements/1.1/" xmlns:rdf="http://www.w3.org/1999/02/22-rdf-syntax-ns#">
   <cc:Work>
    <dc:type rdf:resource="http://purl.org/dc/dcmitype/StillImage"/>
    <dc:date>2022-04-29T17:11:14.251224</dc:date>
    <dc:format>image/svg+xml</dc:format>
    <dc:creator>
     <cc:Agent>
      <dc:title>Matplotlib v3.4.3, https://matplotlib.org/</dc:title>
     </cc:Agent>
    </dc:creator>
   </cc:Work>
  </rdf:RDF>
 </metadata>
 <defs>
  <style type="text/css">*{stroke-linecap:butt;stroke-linejoin:round;}</style>
 </defs>
 <g id="figure_1">
  <g id="patch_1">
   <path d="M 0 266.206125 
L 386.247375 266.206125 
L 386.247375 0 
L 0 0 
z
" style="fill:none;"/>
  </g>
  <g id="axes_1">
   <g id="patch_2">
    <path d="M 44.247375 224.64 
L 379.047375 224.64 
L 379.047375 7.2 
L 44.247375 7.2 
z
" style="fill:#ffffff;"/>
   </g>
   <g id="PolyCollection_1">
    <defs>
     <path d="M 59.465557 -160.645868 
L 59.465557 -138.702519 
L 65.10192 -109.326609 
L 70.738284 -118.651758 
L 76.374648 -101.534736 
L 82.011011 -93.719497 
L 87.647375 -97.904828 
L 93.283739 -96.54513 
L 98.920102 -102.853034 
L 104.556466 -99.992336 
L 110.19283 -106.24086 
L 115.829193 -105.948904 
L 121.465557 -104.011189 
L 127.10192 -193.370395 
L 132.738284 -156.291838 
L 138.374648 -184.748652 
L 144.011011 -167.02026 
L 149.647375 -152.288541 
L 155.283739 -164.865678 
L 160.920102 -166.63019 
L 166.556466 -170.03872 
L 172.19283 -141.333076 
L 177.829193 -141.003402 
L 183.465557 -124.620162 
L 189.10192 -136.400127 
L 194.738284 -124.519139 
L 200.374648 -116.146491 
L 206.011011 -133.761364 
L 211.647375 -122.17986 
L 217.283739 -122.698078 
L 222.920102 -165.783021 
L 228.556466 -153.349342 
L 234.19283 -139.40187 
L 239.829193 -148.059678 
L 245.465557 -133.186526 
L 251.10192 -126.90576 
L 256.738284 -129.692899 
L 262.374648 -129.140985 
L 268.011011 -134.883586 
L 273.647375 -140.569755 
L 279.283739 -144.572458 
L 284.920102 -135.751477 
L 290.556466 -114.800469 
L 296.19283 -113.094652 
L 301.829193 -103.420939 
L 307.465557 -99.854449 
L 313.10192 -82.504971 
L 318.738284 -85.362498 
L 324.374648 -85.835142 
L 330.011011 -84.889828 
L 335.647375 -80.687967 
L 341.283739 -80.514485 
L 346.920102 -69.660936 
L 352.556466 -88.080026 
L 358.19283 -69.245513 
L 363.829193 -51.449761 
L 363.829193 -89.765889 
L 363.829193 -89.765889 
L 358.19283 -86.155854 
L 352.556466 -132.094493 
L 346.920102 -126.927425 
L 341.283739 -133.797036 
L 335.647375 -138.133665 
L 330.011011 -137.482918 
L 324.374648 -143.846024 
L 318.738284 -149.090909 
L 313.10192 -152.325095 
L 307.465557 -151.659642 
L 301.829193 -160.041569 
L 296.19283 -162.719666 
L 290.556466 -151.663033 
L 284.920102 -173.167037 
L 279.283739 -199.145088 
L 273.647375 -191.332179 
L 268.011011 -192.295136 
L 262.374648 -184.525572 
L 256.738284 -158.300939 
L 251.10192 -167.872365 
L 245.465557 -165.469153 
L 239.829193 -196.319235 
L 234.19283 -185.966276 
L 228.556466 -195.930581 
L 222.920102 -218.128229 
L 217.283739 -169.00497 
L 211.647375 -156.281581 
L 206.011011 -170.210252 
L 200.374648 -145.228333 
L 194.738284 -154.888279 
L 189.10192 -167.575439 
L 183.465557 -166.436319 
L 177.829193 -170.434221 
L 172.19283 -168.24424 
L 166.556466 -249.122489 
L 160.920102 -217.533884 
L 155.283739 -209.662132 
L 149.647375 -182.730525 
L 144.011011 -220.206595 
L 138.374648 -226.66102 
L 132.738284 -186.572895 
L 127.10192 -222.584507 
L 121.465557 -143.051877 
L 115.829193 -142.117201 
L 110.19283 -141.963587 
L 104.556466 -132.347603 
L 98.920102 -130.096615 
L 93.283739 -108.379466 
L 87.647375 -115.978208 
L 82.011011 -102.589417 
L 76.374648 -125.200354 
L 70.738284 -133.306936 
L 65.10192 -127.503217 
L 59.465557 -160.645868 
z
" id="m21f8376225" style="stroke:#721f81;stroke-opacity:0.2;stroke-width:0.8;"/>
    </defs>
    <g clip-path="url(#pebb3362ebd)">
     <use style="fill:#721f81;fill-opacity:0.2;stroke:#721f81;stroke-opacity:0.2;stroke-width:0.8;" x="0" xlink:href="#m21f8376225" y="266.206125"/>
    </g>
   </g>
   <g id="PolyCollection_2">
    <defs>
     <path d="M 59.465557 -181.261452 
L 59.465557 -155.512959 
L 65.10192 -117.543141 
L 70.738284 -101.206296 
L 76.374648 -117.967847 
L 82.011011 -103.734004 
L 87.647375 -112.086576 
L 93.283739 -102.902296 
L 98.920102 -89.831422 
L 104.556466 -90.369078 
L 110.19283 -86.131527 
L 115.829193 -86.868339 
L 121.465557 -85.509086 
L 127.10192 -201.889561 
L 132.738284 -150.581492 
L 138.374648 -142.572055 
L 144.011011 -134.2592 
L 149.647375 -152.896541 
L 155.283739 -127.20007 
L 160.920102 -149.908864 
L 166.556466 -130.208371 
L 172.19283 -116.909137 
L 177.829193 -121.253876 
L 183.465557 -115.995701 
L 189.10192 -127.434688 
L 194.738284 -128.679238 
L 200.374648 -112.327299 
L 206.011011 -120.028346 
L 211.647375 -116.110873 
L 217.283739 -105.589541 
L 222.920102 -109.158729 
L 228.556466 -111.054167 
L 234.19283 -112.18325 
L 239.829193 -107.032706 
L 245.465557 -111.746832 
L 251.10192 -130.231984 
L 256.738284 -97.862012 
L 262.374648 -114.862976 
L 268.011011 -116.593525 
L 273.647375 -123.316153 
L 279.283739 -119.463962 
L 284.920102 -122.181186 
L 290.556466 -106.23968 
L 296.19283 -112.482567 
L 301.829193 -89.49875 
L 307.465557 -78.962789 
L 313.10192 -70.915826 
L 318.738284 -78.379822 
L 324.374648 -78.512672 
L 330.011011 -69.202638 
L 335.647375 -80.842313 
L 341.283739 -70.902878 
L 346.920102 -71.928414 
L 352.556466 -69.047642 
L 358.19283 -71.924029 
L 358.19283 -90.953663 
L 358.19283 -90.953663 
L 352.556466 -82.663673 
L 346.920102 -83.830299 
L 341.283739 -83.96684 
L 335.647375 -97.571642 
L 330.011011 -80.111973 
L 324.374648 -95.5062 
L 318.738284 -96.347889 
L 313.10192 -82.754532 
L 307.465557 -89.736745 
L 301.829193 -109.184644 
L 296.19283 -150.925697 
L 290.556466 -164.486857 
L 284.920102 -154.048433 
L 279.283739 -148.60736 
L 273.647375 -208.491029 
L 268.011011 -141.942845 
L 262.374648 -139.958459 
L 256.738284 -148.939374 
L 251.10192 -166.686492 
L 245.465557 -141.770569 
L 239.829193 -133.402764 
L 234.19283 -142.109946 
L 228.556466 -148.422324 
L 222.920102 -144.774517 
L 217.283739 -134.537791 
L 211.647375 -147.295322 
L 206.011011 -209.770143 
L 200.374648 -144.318171 
L 194.738284 -158.268276 
L 189.10192 -156.226201 
L 183.465557 -141.493404 
L 177.829193 -151.879783 
L 172.19283 -143.452125 
L 166.556466 -156.341583 
L 160.920102 -211.950669 
L 155.283739 -179.541262 
L 149.647375 -205.324308 
L 144.011011 -160.939816 
L 138.374648 -168.347638 
L 132.738284 -182.114692 
L 127.10192 -245.526166 
L 121.465557 -96.881212 
L 115.829193 -117.047108 
L 110.19283 -104.787014 
L 104.556466 -106.853745 
L 98.920102 -104.479224 
L 93.283739 -142.436184 
L 87.647375 -154.589816 
L 82.011011 -124.745847 
L 76.374648 -150.973607 
L 70.738284 -120.188946 
L 65.10192 -133.27145 
L 59.465557 -181.261452 
z
" id="m5ed6ce599d" style="stroke:#f1605d;stroke-opacity:0.2;stroke-width:0.8;"/>
    </defs>
    <g clip-path="url(#pebb3362ebd)">
     <use style="fill:#f1605d;fill-opacity:0.2;stroke:#f1605d;stroke-opacity:0.2;stroke-width:0.8;" x="0" xlink:href="#m5ed6ce599d" y="266.206125"/>
    </g>
   </g>
   <g id="matplotlib.axis_1">
    <g id="xtick_1">
     <g id="line2d_1">
      <defs>
       <path d="M 0 0 
L 0 4.8 
" id="m4ea10a3493" style="stroke:#000000;"/>
      </defs>
      <g>
       <use style="stroke:#000000;" x="59.465557" xlink:href="#m4ea10a3493" y="224.64"/>
      </g>
     </g>
     <g id="text_1">
      <!-- 0 -->
      <g transform="translate(56.666057 239.626625)scale(0.088 -0.088)">
       <defs>
        <path d="M 2034 4250 
Q 1547 4250 1301 3770 
Q 1056 3291 1056 2328 
Q 1056 1369 1301 889 
Q 1547 409 2034 409 
Q 2525 409 2770 889 
Q 3016 1369 3016 2328 
Q 3016 3291 2770 3770 
Q 2525 4250 2034 4250 
z
M 2034 4750 
Q 2819 4750 3233 4129 
Q 3647 3509 3647 2328 
Q 3647 1150 3233 529 
Q 2819 -91 2034 -91 
Q 1250 -91 836 529 
Q 422 1150 422 2328 
Q 422 3509 836 4129 
Q 1250 4750 2034 4750 
z
" id="DejaVuSans-30" transform="scale(0.015625)"/>
       </defs>
       <use xlink:href="#DejaVuSans-30"/>
      </g>
     </g>
    </g>
    <g id="xtick_2">
     <g id="line2d_2">
      <g>
       <use style="stroke:#000000;" x="115.829193" xlink:href="#m4ea10a3493" y="224.64"/>
      </g>
     </g>
     <g id="text_2">
      <!-- 10 -->
      <g transform="translate(110.230193 239.626625)scale(0.088 -0.088)">
       <defs>
        <path d="M 794 531 
L 1825 531 
L 1825 4091 
L 703 3866 
L 703 4441 
L 1819 4666 
L 2450 4666 
L 2450 531 
L 3481 531 
L 3481 0 
L 794 0 
L 794 531 
z
" id="DejaVuSans-31" transform="scale(0.015625)"/>
       </defs>
       <use xlink:href="#DejaVuSans-31"/>
       <use x="63.623047" xlink:href="#DejaVuSans-30"/>
      </g>
     </g>
    </g>
    <g id="xtick_3">
     <g id="line2d_3">
      <g>
       <use style="stroke:#000000;" x="172.19283" xlink:href="#m4ea10a3493" y="224.64"/>
      </g>
     </g>
     <g id="text_3">
      <!-- 20 -->
      <g transform="translate(166.59383 239.626625)scale(0.088 -0.088)">
       <defs>
        <path d="M 1228 531 
L 3431 531 
L 3431 0 
L 469 0 
L 469 531 
Q 828 903 1448 1529 
Q 2069 2156 2228 2338 
Q 2531 2678 2651 2914 
Q 2772 3150 2772 3378 
Q 2772 3750 2511 3984 
Q 2250 4219 1831 4219 
Q 1534 4219 1204 4116 
Q 875 4013 500 3803 
L 500 4441 
Q 881 4594 1212 4672 
Q 1544 4750 1819 4750 
Q 2544 4750 2975 4387 
Q 3406 4025 3406 3419 
Q 3406 3131 3298 2873 
Q 3191 2616 2906 2266 
Q 2828 2175 2409 1742 
Q 1991 1309 1228 531 
z
" id="DejaVuSans-32" transform="scale(0.015625)"/>
       </defs>
       <use xlink:href="#DejaVuSans-32"/>
       <use x="63.623047" xlink:href="#DejaVuSans-30"/>
      </g>
     </g>
    </g>
    <g id="xtick_4">
     <g id="line2d_4">
      <g>
       <use style="stroke:#000000;" x="228.556466" xlink:href="#m4ea10a3493" y="224.64"/>
      </g>
     </g>
     <g id="text_4">
      <!-- 30 -->
      <g transform="translate(222.957466 239.626625)scale(0.088 -0.088)">
       <defs>
        <path d="M 2597 2516 
Q 3050 2419 3304 2112 
Q 3559 1806 3559 1356 
Q 3559 666 3084 287 
Q 2609 -91 1734 -91 
Q 1441 -91 1130 -33 
Q 819 25 488 141 
L 488 750 
Q 750 597 1062 519 
Q 1375 441 1716 441 
Q 2309 441 2620 675 
Q 2931 909 2931 1356 
Q 2931 1769 2642 2001 
Q 2353 2234 1838 2234 
L 1294 2234 
L 1294 2753 
L 1863 2753 
Q 2328 2753 2575 2939 
Q 2822 3125 2822 3475 
Q 2822 3834 2567 4026 
Q 2313 4219 1838 4219 
Q 1578 4219 1281 4162 
Q 984 4106 628 3988 
L 628 4550 
Q 988 4650 1302 4700 
Q 1616 4750 1894 4750 
Q 2613 4750 3031 4423 
Q 3450 4097 3450 3541 
Q 3450 3153 3228 2886 
Q 3006 2619 2597 2516 
z
" id="DejaVuSans-33" transform="scale(0.015625)"/>
       </defs>
       <use xlink:href="#DejaVuSans-33"/>
       <use x="63.623047" xlink:href="#DejaVuSans-30"/>
      </g>
     </g>
    </g>
    <g id="xtick_5">
     <g id="line2d_5">
      <g>
       <use style="stroke:#000000;" x="284.920102" xlink:href="#m4ea10a3493" y="224.64"/>
      </g>
     </g>
     <g id="text_5">
      <!-- 40 -->
      <g transform="translate(279.321102 239.626625)scale(0.088 -0.088)">
       <defs>
        <path d="M 2419 4116 
L 825 1625 
L 2419 1625 
L 2419 4116 
z
M 2253 4666 
L 3047 4666 
L 3047 1625 
L 3713 1625 
L 3713 1100 
L 3047 1100 
L 3047 0 
L 2419 0 
L 2419 1100 
L 313 1100 
L 313 1709 
L 2253 4666 
z
" id="DejaVuSans-34" transform="scale(0.015625)"/>
       </defs>
       <use xlink:href="#DejaVuSans-34"/>
       <use x="63.623047" xlink:href="#DejaVuSans-30"/>
      </g>
     </g>
    </g>
    <g id="xtick_6">
     <g id="line2d_6">
      <g>
       <use style="stroke:#000000;" x="341.283739" xlink:href="#m4ea10a3493" y="224.64"/>
      </g>
     </g>
     <g id="text_6">
      <!-- 50 -->
      <g transform="translate(335.684739 239.626625)scale(0.088 -0.088)">
       <defs>
        <path d="M 691 4666 
L 3169 4666 
L 3169 4134 
L 1269 4134 
L 1269 2991 
Q 1406 3038 1543 3061 
Q 1681 3084 1819 3084 
Q 2600 3084 3056 2656 
Q 3513 2228 3513 1497 
Q 3513 744 3044 326 
Q 2575 -91 1722 -91 
Q 1428 -91 1123 -41 
Q 819 9 494 109 
L 494 744 
Q 775 591 1075 516 
Q 1375 441 1709 441 
Q 2250 441 2565 725 
Q 2881 1009 2881 1497 
Q 2881 1984 2565 2268 
Q 2250 2553 1709 2553 
Q 1456 2553 1204 2497 
Q 953 2441 691 2322 
L 691 4666 
z
" id="DejaVuSans-35" transform="scale(0.015625)"/>
       </defs>
       <use xlink:href="#DejaVuSans-35"/>
       <use x="63.623047" xlink:href="#DejaVuSans-30"/>
      </g>
     </g>
    </g>
    <g id="text_7">
     <!-- Trial -->
     <g transform="translate(197.347687 256.094562)scale(0.14 -0.14)">
      <defs>
       <path d="M -19 4666 
L 3928 4666 
L 3928 4134 
L 2272 4134 
L 2272 0 
L 1638 0 
L 1638 4134 
L -19 4134 
L -19 4666 
z
" id="DejaVuSans-54" transform="scale(0.015625)"/>
       <path d="M 2631 2963 
Q 2534 3019 2420 3045 
Q 2306 3072 2169 3072 
Q 1681 3072 1420 2755 
Q 1159 2438 1159 1844 
L 1159 0 
L 581 0 
L 581 3500 
L 1159 3500 
L 1159 2956 
Q 1341 3275 1631 3429 
Q 1922 3584 2338 3584 
Q 2397 3584 2469 3576 
Q 2541 3569 2628 3553 
L 2631 2963 
z
" id="DejaVuSans-72" transform="scale(0.015625)"/>
       <path d="M 603 3500 
L 1178 3500 
L 1178 0 
L 603 0 
L 603 3500 
z
M 603 4863 
L 1178 4863 
L 1178 4134 
L 603 4134 
L 603 4863 
z
" id="DejaVuSans-69" transform="scale(0.015625)"/>
       <path d="M 2194 1759 
Q 1497 1759 1228 1600 
Q 959 1441 959 1056 
Q 959 750 1161 570 
Q 1363 391 1709 391 
Q 2188 391 2477 730 
Q 2766 1069 2766 1631 
L 2766 1759 
L 2194 1759 
z
M 3341 1997 
L 3341 0 
L 2766 0 
L 2766 531 
Q 2569 213 2275 61 
Q 1981 -91 1556 -91 
Q 1019 -91 701 211 
Q 384 513 384 1019 
Q 384 1609 779 1909 
Q 1175 2209 1959 2209 
L 2766 2209 
L 2766 2266 
Q 2766 2663 2505 2880 
Q 2244 3097 1772 3097 
Q 1472 3097 1187 3025 
Q 903 2953 641 2809 
L 641 3341 
Q 956 3463 1253 3523 
Q 1550 3584 1831 3584 
Q 2591 3584 2966 3190 
Q 3341 2797 3341 1997 
z
" id="DejaVuSans-61" transform="scale(0.015625)"/>
       <path d="M 603 4863 
L 1178 4863 
L 1178 0 
L 603 0 
L 603 4863 
z
" id="DejaVuSans-6c" transform="scale(0.015625)"/>
      </defs>
      <use xlink:href="#DejaVuSans-54"/>
      <use x="46.333984" xlink:href="#DejaVuSans-72"/>
      <use x="87.447266" xlink:href="#DejaVuSans-69"/>
      <use x="115.230469" xlink:href="#DejaVuSans-61"/>
      <use x="176.509766" xlink:href="#DejaVuSans-6c"/>
     </g>
    </g>
   </g>
   <g id="matplotlib.axis_2">
    <g id="ytick_1">
     <g id="line2d_7">
      <defs>
       <path d="M 0 0 
L -4.8 0 
" id="mde36376878" style="stroke:#000000;"/>
      </defs>
      <g>
       <use style="stroke:#000000;" x="44.247375" xlink:href="#mde36376878" y="212.050593"/>
      </g>
     </g>
     <g id="text_8">
      <!-- 10 -->
      <g transform="translate(24.749375 215.393905)scale(0.088 -0.088)">
       <use xlink:href="#DejaVuSans-31"/>
       <use x="63.623047" xlink:href="#DejaVuSans-30"/>
      </g>
     </g>
    </g>
    <g id="ytick_2">
     <g id="line2d_8">
      <g>
       <use style="stroke:#000000;" x="44.247375" xlink:href="#mde36376878" y="181.106025"/>
      </g>
     </g>
     <g id="text_9">
      <!-- 15 -->
      <g transform="translate(24.749375 184.449338)scale(0.088 -0.088)">
       <use xlink:href="#DejaVuSans-31"/>
       <use x="63.623047" xlink:href="#DejaVuSans-35"/>
      </g>
     </g>
    </g>
    <g id="ytick_3">
     <g id="line2d_9">
      <g>
       <use style="stroke:#000000;" x="44.247375" xlink:href="#mde36376878" y="150.161458"/>
      </g>
     </g>
     <g id="text_10">
      <!-- 20 -->
      <g transform="translate(24.749375 153.504771)scale(0.088 -0.088)">
       <use xlink:href="#DejaVuSans-32"/>
       <use x="63.623047" xlink:href="#DejaVuSans-30"/>
      </g>
     </g>
    </g>
    <g id="ytick_4">
     <g id="line2d_10">
      <g>
       <use style="stroke:#000000;" x="44.247375" xlink:href="#mde36376878" y="119.216891"/>
      </g>
     </g>
     <g id="text_11">
      <!-- 25 -->
      <g transform="translate(24.749375 122.560203)scale(0.088 -0.088)">
       <use xlink:href="#DejaVuSans-32"/>
       <use x="63.623047" xlink:href="#DejaVuSans-35"/>
      </g>
     </g>
    </g>
    <g id="ytick_5">
     <g id="line2d_11">
      <g>
       <use style="stroke:#000000;" x="44.247375" xlink:href="#mde36376878" y="88.272324"/>
      </g>
     </g>
     <g id="text_12">
      <!-- 30 -->
      <g transform="translate(24.749375 91.615636)scale(0.088 -0.088)">
       <use xlink:href="#DejaVuSans-33"/>
       <use x="63.623047" xlink:href="#DejaVuSans-30"/>
      </g>
     </g>
    </g>
    <g id="ytick_6">
     <g id="line2d_12">
      <g>
       <use style="stroke:#000000;" x="44.247375" xlink:href="#mde36376878" y="57.327756"/>
      </g>
     </g>
     <g id="text_13">
      <!-- 35 -->
      <g transform="translate(24.749375 60.671069)scale(0.088 -0.088)">
       <use xlink:href="#DejaVuSans-33"/>
       <use x="63.623047" xlink:href="#DejaVuSans-35"/>
      </g>
     </g>
    </g>
    <g id="ytick_7">
     <g id="line2d_13">
      <g>
       <use style="stroke:#000000;" x="44.247375" xlink:href="#mde36376878" y="26.383189"/>
      </g>
     </g>
     <g id="text_14">
      <!-- 40 -->
      <g transform="translate(24.749375 29.726501)scale(0.088 -0.088)">
       <use xlink:href="#DejaVuSans-34"/>
       <use x="63.623047" xlink:href="#DejaVuSans-30"/>
      </g>
     </g>
    </g>
    <g id="text_15">
     <!-- MAE (Degrees) -->
     <g transform="translate(17.837813 167.980312)rotate(-90)scale(0.14 -0.14)">
      <defs>
       <path d="M 628 4666 
L 1569 4666 
L 2759 1491 
L 3956 4666 
L 4897 4666 
L 4897 0 
L 4281 0 
L 4281 4097 
L 3078 897 
L 2444 897 
L 1241 4097 
L 1241 0 
L 628 0 
L 628 4666 
z
" id="DejaVuSans-4d" transform="scale(0.015625)"/>
       <path d="M 2188 4044 
L 1331 1722 
L 3047 1722 
L 2188 4044 
z
M 1831 4666 
L 2547 4666 
L 4325 0 
L 3669 0 
L 3244 1197 
L 1141 1197 
L 716 0 
L 50 0 
L 1831 4666 
z
" id="DejaVuSans-41" transform="scale(0.015625)"/>
       <path d="M 628 4666 
L 3578 4666 
L 3578 4134 
L 1259 4134 
L 1259 2753 
L 3481 2753 
L 3481 2222 
L 1259 2222 
L 1259 531 
L 3634 531 
L 3634 0 
L 628 0 
L 628 4666 
z
" id="DejaVuSans-45" transform="scale(0.015625)"/>
       <path id="DejaVuSans-20" transform="scale(0.015625)"/>
       <path d="M 1984 4856 
Q 1566 4138 1362 3434 
Q 1159 2731 1159 2009 
Q 1159 1288 1364 580 
Q 1569 -128 1984 -844 
L 1484 -844 
Q 1016 -109 783 600 
Q 550 1309 550 2009 
Q 550 2706 781 3412 
Q 1013 4119 1484 4856 
L 1984 4856 
z
" id="DejaVuSans-28" transform="scale(0.015625)"/>
       <path d="M 1259 4147 
L 1259 519 
L 2022 519 
Q 2988 519 3436 956 
Q 3884 1394 3884 2338 
Q 3884 3275 3436 3711 
Q 2988 4147 2022 4147 
L 1259 4147 
z
M 628 4666 
L 1925 4666 
Q 3281 4666 3915 4102 
Q 4550 3538 4550 2338 
Q 4550 1131 3912 565 
Q 3275 0 1925 0 
L 628 0 
L 628 4666 
z
" id="DejaVuSans-44" transform="scale(0.015625)"/>
       <path d="M 3597 1894 
L 3597 1613 
L 953 1613 
Q 991 1019 1311 708 
Q 1631 397 2203 397 
Q 2534 397 2845 478 
Q 3156 559 3463 722 
L 3463 178 
Q 3153 47 2828 -22 
Q 2503 -91 2169 -91 
Q 1331 -91 842 396 
Q 353 884 353 1716 
Q 353 2575 817 3079 
Q 1281 3584 2069 3584 
Q 2775 3584 3186 3129 
Q 3597 2675 3597 1894 
z
M 3022 2063 
Q 3016 2534 2758 2815 
Q 2500 3097 2075 3097 
Q 1594 3097 1305 2825 
Q 1016 2553 972 2059 
L 3022 2063 
z
" id="DejaVuSans-65" transform="scale(0.015625)"/>
       <path d="M 2906 1791 
Q 2906 2416 2648 2759 
Q 2391 3103 1925 3103 
Q 1463 3103 1205 2759 
Q 947 2416 947 1791 
Q 947 1169 1205 825 
Q 1463 481 1925 481 
Q 2391 481 2648 825 
Q 2906 1169 2906 1791 
z
M 3481 434 
Q 3481 -459 3084 -895 
Q 2688 -1331 1869 -1331 
Q 1566 -1331 1297 -1286 
Q 1028 -1241 775 -1147 
L 775 -588 
Q 1028 -725 1275 -790 
Q 1522 -856 1778 -856 
Q 2344 -856 2625 -561 
Q 2906 -266 2906 331 
L 2906 616 
Q 2728 306 2450 153 
Q 2172 0 1784 0 
Q 1141 0 747 490 
Q 353 981 353 1791 
Q 353 2603 747 3093 
Q 1141 3584 1784 3584 
Q 2172 3584 2450 3431 
Q 2728 3278 2906 2969 
L 2906 3500 
L 3481 3500 
L 3481 434 
z
" id="DejaVuSans-67" transform="scale(0.015625)"/>
       <path d="M 2834 3397 
L 2834 2853 
Q 2591 2978 2328 3040 
Q 2066 3103 1784 3103 
Q 1356 3103 1142 2972 
Q 928 2841 928 2578 
Q 928 2378 1081 2264 
Q 1234 2150 1697 2047 
L 1894 2003 
Q 2506 1872 2764 1633 
Q 3022 1394 3022 966 
Q 3022 478 2636 193 
Q 2250 -91 1575 -91 
Q 1294 -91 989 -36 
Q 684 19 347 128 
L 347 722 
Q 666 556 975 473 
Q 1284 391 1588 391 
Q 1994 391 2212 530 
Q 2431 669 2431 922 
Q 2431 1156 2273 1281 
Q 2116 1406 1581 1522 
L 1381 1569 
Q 847 1681 609 1914 
Q 372 2147 372 2553 
Q 372 3047 722 3315 
Q 1072 3584 1716 3584 
Q 2034 3584 2315 3537 
Q 2597 3491 2834 3397 
z
" id="DejaVuSans-73" transform="scale(0.015625)"/>
       <path d="M 513 4856 
L 1013 4856 
Q 1481 4119 1714 3412 
Q 1947 2706 1947 2009 
Q 1947 1309 1714 600 
Q 1481 -109 1013 -844 
L 513 -844 
Q 928 -128 1133 580 
Q 1338 1288 1338 2009 
Q 1338 2731 1133 3434 
Q 928 4138 513 4856 
z
" id="DejaVuSans-29" transform="scale(0.015625)"/>
      </defs>
      <use xlink:href="#DejaVuSans-4d"/>
      <use x="86.279297" xlink:href="#DejaVuSans-41"/>
      <use x="154.6875" xlink:href="#DejaVuSans-45"/>
      <use x="217.871094" xlink:href="#DejaVuSans-20"/>
      <use x="249.658203" xlink:href="#DejaVuSans-28"/>
      <use x="288.671875" xlink:href="#DejaVuSans-44"/>
      <use x="365.673828" xlink:href="#DejaVuSans-65"/>
      <use x="427.197266" xlink:href="#DejaVuSans-67"/>
      <use x="490.673828" xlink:href="#DejaVuSans-72"/>
      <use x="529.537109" xlink:href="#DejaVuSans-65"/>
      <use x="591.060547" xlink:href="#DejaVuSans-65"/>
      <use x="652.583984" xlink:href="#DejaVuSans-73"/>
      <use x="704.683594" xlink:href="#DejaVuSans-29"/>
     </g>
    </g>
   </g>
   <g id="line2d_14">
    <path clip-path="url(#pebb3362ebd)" d="M 59.465557 117.334133 
L 65.10192 148.075516 
L 70.738284 140.547033 
L 76.374648 153.182566 
L 82.011011 167.767659 
L 87.647375 159.111302 
L 93.283739 164.023674 
L 98.920102 150.492782 
L 104.556466 149.995938 
L 110.19283 142.630367 
L 115.829193 141.279523 
L 121.465557 141.891395 
L 127.10192 57.974701 
L 132.738284 94.935374 
L 138.374648 61.364397 
L 144.011011 74.164801 
L 149.647375 97.521012 
L 155.283739 78.972098 
L 160.920102 75.409905 
L 166.556466 58.170221 
L 172.19283 111.479918 
L 177.829193 110.818478 
L 183.465557 121.83735 
L 189.10192 113.388398 
L 194.738284 126.27848 
L 200.374648 135.88869 
L 206.011011 114.00946 
L 211.647375 126.492791 
L 217.283739 119.08997 
L 222.920102 73.107176 
L 228.556466 91.366917 
L 234.19283 103.498257 
L 239.829193 94.453025 
L 245.465557 117.0347 
L 251.10192 120.013874 
L 256.738284 121.415094 
L 262.374648 111.662182 
L 268.011011 101.904365 
L 273.647375 99.923006 
L 279.283739 95.485789 
L 284.920102 113.157135 
L 290.556466 132.94948 
L 296.19283 128.178564 
L 301.829193 134.478259 
L 307.465557 139.432682 
L 313.10192 148.143607 
L 318.738284 148.707778 
L 324.374648 150.537173 
L 330.011011 155.199478 
L 335.647375 156.802062 
L 341.283739 159.224907 
L 346.920102 167.279263 
L 352.556466 155.494137 
L 358.19283 188.505441 
L 363.829193 195.5983 
" style="fill:none;stroke:#721f81;stroke-linecap:square;stroke-width:2;"/>
   </g>
   <g id="line2d_15">
    <path clip-path="url(#pebb3362ebd)" d="M 59.465557 97.62179 
L 65.10192 140.818809 
L 70.738284 155.314699 
L 76.374648 132.052731 
L 82.011011 151.961636 
L 87.647375 133.00577 
L 93.283739 144.851602 
L 98.920102 169.127589 
L 104.556466 167.973361 
L 110.19283 170.847569 
L 115.829193 163.993918 
L 121.465557 175.079367 
L 127.10192 43.768882 
L 132.738284 99.233375 
L 138.374648 110.546572 
L 144.011011 118.441887 
L 149.647375 86.606311 
L 155.283739 111.333028 
L 160.920102 85.107436 
L 166.556466 123.828568 
L 172.19283 135.592903 
L 177.829193 129.476237 
L 183.465557 137.182068 
L 189.10192 123.852004 
L 194.738284 123.255582 
L 200.374648 138.018908 
L 206.011011 102.373241 
L 211.647375 134.767614 
L 217.283739 145.324938 
L 222.920102 140.07908 
L 228.556466 137.218928 
L 234.19283 138.874333 
L 239.829193 147.051962 
L 245.465557 138.568435 
L 251.10192 117.72158 
L 256.738284 141.893749 
L 262.374648 138.780128 
L 268.011011 136.658455 
L 273.647375 101.336402 
L 279.283739 131.132506 
L 284.920102 127.434029 
L 290.556466 131.235524 
L 296.19283 133.491431 
L 301.829193 167.149267 
L 307.465557 181.704903 
L 313.10192 189.403168 
L 318.738284 179.177382 
L 324.374648 179.539321 
L 330.011011 191.637899 
L 335.647375 176.493354 
L 341.283739 188.398464 
L 346.920102 188.676611 
L 352.556466 190.689425 
L 358.19283 184.767279 
" style="fill:none;stroke:#f1605d;stroke-linecap:square;stroke-width:2;"/>
   </g>
   <g id="line2d_16"/>
   <g id="line2d_17"/>
   <g id="patch_3">
    <path d="M 44.247375 224.64 
L 44.247375 7.2 
" style="fill:none;stroke:#000000;stroke-linecap:square;stroke-linejoin:miter;"/>
   </g>
   <g id="patch_4">
    <path d="M 379.047375 224.64 
L 379.047375 7.2 
" style="fill:none;stroke:#000000;stroke-linecap:square;stroke-linejoin:miter;"/>
   </g>
   <g id="patch_5">
    <path d="M 44.247375 224.64 
L 379.047375 224.64 
" style="fill:none;stroke:#000000;stroke-linecap:square;stroke-linejoin:miter;"/>
   </g>
   <g id="patch_6">
    <path d="M 44.247375 7.2 
L 379.047375 7.2 
" style="fill:none;stroke:#000000;stroke-linecap:square;stroke-linejoin:miter;"/>
   </g>
   <g id="legend_1">
    <g id="patch_7">
     <path d="M 369.367375 18.64 
L 372.887375 18.64 
Q 374.647375 18.64 374.647375 16.88 
L 374.647375 13.36 
Q 374.647375 11.6 372.887375 11.6 
L 369.367375 11.6 
Q 367.607375 11.6 367.607375 13.36 
L 367.607375 16.88 
Q 367.607375 18.64 369.367375 18.64 
z
" style="fill:#ffffff;opacity:0.8;stroke:#cccccc;stroke-linejoin:miter;stroke-width:0.8;"/>
    </g>
   </g>
  </g>
 </g>
 <defs>
  <clipPath id="pebb3362ebd">
   <rect height="217.44" width="334.8" x="44.247375" y="7.2"/>
  </clipPath>
 </defs>
</svg>
