<?xml version="1.0" encoding="utf-8" standalone="no"?>
<!DOCTYPE svg PUBLIC "-//W3C//DTD SVG 1.1//EN"
  "http://www.w3.org/Graphics/SVG/1.1/DTD/svg11.dtd">
<svg height="266.206125pt" version="1.1" viewBox="0 0 394.643125 266.206125" width="394.643125pt" xmlns="http://www.w3.org/2000/svg" xmlns:xlink="http://www.w3.org/1999/xlink">
 <metadata>
  <rdf:RDF xmlns:cc="http://creativecommons.org/ns#" xmlns:dc="http://purl.org/dc/elements/1.1/" xmlns:rdf="http://www.w3.org/1999/02/22-rdf-syntax-ns#">
   <cc:Work>
    <dc:type rdf:resource="http://purl.org/dc/dcmitype/StillImage"/>
    <dc:date>2022-04-30T15:20:42.212398</dc:date>
    <dc:format>image/svg+xml</dc:format>
    <dc:creator>
     <cc:Agent>
      <dc:title>Matplotlib v3.4.3, https://matplotlib.org/</dc:title>
     </cc:Agent>
    </dc:creator>
   </cc:Work>
  </rdf:RDF>
 </metadata>
 <defs>
  <style type="text/css">*{stroke-linecap:butt;stroke-linejoin:round;}</style>
 </defs>
 <g id="figure_1">
  <g id="patch_1">
   <path d="M 0 266.206125 
L 394.643125 266.206125 
L 394.643125 0 
L 0 0 
z
" style="fill:none;"/>
  </g>
  <g id="axes_1">
   <g id="patch_2">
    <path d="M 52.643125 224.64 
L 387.443125 224.64 
L 387.443125 7.2 
L 52.643125 7.2 
z
" style="fill:#ffffff;"/>
   </g>
   <g id="PathCollection_1">
    <defs>
     <path d="M 0 4.511931 
C 1.196578 4.511931 2.344308 4.036525 3.190417 3.190417 
C 4.036525 2.344308 4.511931 1.196578 4.511931 0 
C 4.511931 -1.196578 4.036525 -2.344308 3.190417 -3.190417 
C 2.344308 -4.036525 1.196578 -4.511931 0 -4.511931 
C -1.196578 -4.511931 -2.344308 -4.036525 -3.190417 -3.190417 
C -4.036525 -2.344308 -4.511931 -1.196578 -4.511931 0 
C -4.511931 1.196578 -4.036525 2.344308 -3.190417 3.190417 
C -2.344308 4.036525 -1.196578 4.511931 0 4.511931 
z
" id="mc4353720c6" style="stroke:#fca082;stroke-width:2.7;"/>
    </defs>
    <g clip-path="url(#pdde0f47c19)">
     <use style="fill:#fca082;stroke:#fca082;stroke-width:2.7;" x="58.415539" xlink:href="#mc4353720c6" y="53.055693"/>
     <use style="fill:#fca082;stroke:#fca082;stroke-width:2.7;" x="69.960366" xlink:href="#mc4353720c6" y="71.11277"/>
     <use style="fill:#fca082;stroke:#fca082;stroke-width:2.7;" x="81.505194" xlink:href="#mc4353720c6" y="61.066944"/>
     <use style="fill:#fca082;stroke:#fca082;stroke-width:2.7;" x="93.050022" xlink:href="#mc4353720c6" y="64.25385"/>
     <use style="fill:#fca082;stroke:#fca082;stroke-width:2.7;" x="104.594849" xlink:href="#mc4353720c6" y="58.891489"/>
     <use style="fill:#fca082;stroke:#fca082;stroke-width:2.7;" x="116.139677" xlink:href="#mc4353720c6" y="58.509182"/>
     <use style="fill:#fca082;stroke:#fca082;stroke-width:2.7;" x="127.684504" xlink:href="#mc4353720c6" y="59.224421"/>
     <use style="fill:#fca082;stroke:#fca082;stroke-width:2.7;" x="139.229332" xlink:href="#mc4353720c6" y="121.856287"/>
     <use style="fill:#fca082;stroke:#fca082;stroke-width:2.7;" x="150.774159" xlink:href="#mc4353720c6" y="130.488913"/>
     <use style="fill:#fca082;stroke:#fca082;stroke-width:2.7;" x="162.318987" xlink:href="#mc4353720c6" y="137.198159"/>
     <use style="fill:#fca082;stroke:#fca082;stroke-width:2.7;" x="173.863815" xlink:href="#mc4353720c6" y="142.598695"/>
     <use style="fill:#fca082;stroke:#fca082;stroke-width:2.7;" x="185.408642" xlink:href="#mc4353720c6" y="141.368101"/>
     <use style="fill:#fca082;stroke:#fca082;stroke-width:2.7;" x="196.95347" xlink:href="#mc4353720c6" y="149.935625"/>
     <use style="fill:#fca082;stroke:#fca082;stroke-width:2.7;" x="208.498297" xlink:href="#mc4353720c6" y="144.541884"/>
     <use style="fill:#fca082;stroke:#fca082;stroke-width:2.7;" x="220.043125" xlink:href="#mc4353720c6" y="124.409437"/>
     <use style="fill:#fca082;stroke:#fca082;stroke-width:2.7;" x="231.587953" xlink:href="#mc4353720c6" y="119.594323"/>
     <use style="fill:#fca082;stroke:#fca082;stroke-width:2.7;" x="243.13278" xlink:href="#mc4353720c6" y="101.345898"/>
     <use style="fill:#fca082;stroke:#fca082;stroke-width:2.7;" x="254.677608" xlink:href="#mc4353720c6" y="93.044135"/>
     <use style="fill:#fca082;stroke:#fca082;stroke-width:2.7;" x="266.222435" xlink:href="#mc4353720c6" y="113.407512"/>
     <use style="fill:#fca082;stroke:#fca082;stroke-width:2.7;" x="277.767263" xlink:href="#mc4353720c6" y="118.266859"/>
     <use style="fill:#fca082;stroke:#fca082;stroke-width:2.7;" x="289.312091" xlink:href="#mc4353720c6" y="136.476827"/>
     <use style="fill:#fca082;stroke:#fca082;stroke-width:2.7;" x="300.856918" xlink:href="#mc4353720c6" y="140.735459"/>
     <use style="fill:#fca082;stroke:#fca082;stroke-width:2.7;" x="312.401746" xlink:href="#mc4353720c6" y="133.95717"/>
     <use style="fill:#fca082;stroke:#fca082;stroke-width:2.7;" x="323.946573" xlink:href="#mc4353720c6" y="132.597436"/>
     <use style="fill:#fca082;stroke:#fca082;stroke-width:2.7;" x="335.491401" xlink:href="#mc4353720c6" y="123.259175"/>
     <use style="fill:#fca082;stroke:#fca082;stroke-width:2.7;" x="347.036228" xlink:href="#mc4353720c6" y="132.506246"/>
     <use style="fill:#fca082;stroke:#fca082;stroke-width:2.7;" x="358.581056" xlink:href="#mc4353720c6" y="137.878359"/>
     <use style="fill:#fca082;stroke:#fca082;stroke-width:2.7;" x="370.125884" xlink:href="#mc4353720c6" y="143.480686"/>
     <use style="fill:#fca082;stroke:#fca082;stroke-width:2.7;" x="381.670711" xlink:href="#mc4353720c6" y="158.234435"/>
    </g>
   </g>
   <g id="line2d_1">
    <path clip-path="url(#pdde0f47c19)" d="M 58.415539 53.055693 
L 69.960366 71.11277 
L 81.505194 61.066944 
L 93.050022 64.25385 
L 104.594849 58.891489 
L 116.139677 58.509182 
L 127.684504 59.224421 
L 139.229332 121.856287 
L 150.774159 130.488913 
L 162.318987 137.198159 
L 173.863815 142.598695 
L 185.408642 141.368101 
L 196.95347 149.935625 
L 208.498297 144.541884 
L 220.043125 124.409437 
L 231.587953 119.594323 
L 243.13278 101.345898 
L 254.677608 93.044135 
L 266.222435 113.407512 
L 277.767263 118.266859 
L 289.312091 136.476827 
L 300.856918 140.735459 
L 312.401746 133.95717 
L 323.946573 132.597436 
L 335.491401 123.259175 
L 347.036228 132.506246 
L 358.581056 137.878359 
L 370.125884 143.480686 
L 381.670711 158.234435 
" style="fill:none;stroke:#fca082;stroke-linecap:square;stroke-width:3.6;"/>
   </g>
   <g id="line2d_2">
    <path clip-path="url(#pdde0f47c19)" d="M 58.415539 79.653984 
L 58.415539 28.083416 
" style="fill:none;stroke:#fca082;stroke-linecap:square;stroke-width:3.6;"/>
   </g>
   <g id="line2d_3">
    <path clip-path="url(#pdde0f47c19)" d="M 69.960366 105.85761 
L 69.960366 40.534269 
" style="fill:none;stroke:#fca082;stroke-linecap:square;stroke-width:3.6;"/>
   </g>
   <g id="line2d_4">
    <path clip-path="url(#pdde0f47c19)" d="M 81.505194 95.920542 
L 81.505194 24.238711 
" style="fill:none;stroke:#fca082;stroke-linecap:square;stroke-width:3.6;"/>
   </g>
   <g id="line2d_5">
    <path clip-path="url(#pdde0f47c19)" d="M 93.050022 95.814631 
L 93.050022 30.508853 
" style="fill:none;stroke:#fca082;stroke-linecap:square;stroke-width:3.6;"/>
   </g>
   <g id="line2d_6">
    <path clip-path="url(#pdde0f47c19)" d="M 104.594849 93.234261 
L 104.594849 26.399328 
" style="fill:none;stroke:#fca082;stroke-linecap:square;stroke-width:3.6;"/>
   </g>
   <g id="line2d_7">
    <path clip-path="url(#pdde0f47c19)" d="M 116.139677 102.101567 
L 116.139677 21.541303 
" style="fill:none;stroke:#fca082;stroke-linecap:square;stroke-width:3.6;"/>
   </g>
   <g id="line2d_8">
    <path clip-path="url(#pdde0f47c19)" d="M 127.684504 105.897675 
L 127.684504 17.083636 
" style="fill:none;stroke:#fca082;stroke-linecap:square;stroke-width:3.6;"/>
   </g>
   <g id="line2d_9">
    <path clip-path="url(#pdde0f47c19)" d="M 139.229332 147.220499 
L 139.229332 100.416715 
" style="fill:none;stroke:#fca082;stroke-linecap:square;stroke-width:3.6;"/>
   </g>
   <g id="line2d_10">
    <path clip-path="url(#pdde0f47c19)" d="M 150.774159 153.238133 
L 150.774159 106.411935 
" style="fill:none;stroke:#fca082;stroke-linecap:square;stroke-width:3.6;"/>
   </g>
   <g id="line2d_11">
    <path clip-path="url(#pdde0f47c19)" d="M 162.318987 163.297737 
L 162.318987 110.481594 
" style="fill:none;stroke:#fca082;stroke-linecap:square;stroke-width:3.6;"/>
   </g>
   <g id="line2d_12">
    <path clip-path="url(#pdde0f47c19)" d="M 173.863815 166.504783 
L 173.863815 116.628974 
" style="fill:none;stroke:#fca082;stroke-linecap:square;stroke-width:3.6;"/>
   </g>
   <g id="line2d_13">
    <path clip-path="url(#pdde0f47c19)" d="M 185.408642 164.994086 
L 185.408642 118.778366 
" style="fill:none;stroke:#fca082;stroke-linecap:square;stroke-width:3.6;"/>
   </g>
   <g id="line2d_14">
    <path clip-path="url(#pdde0f47c19)" d="M 196.95347 172.930789 
L 196.95347 126.055779 
" style="fill:none;stroke:#fca082;stroke-linecap:square;stroke-width:3.6;"/>
   </g>
   <g id="line2d_15">
    <path clip-path="url(#pdde0f47c19)" d="M 208.498297 168.909254 
L 208.498297 119.833814 
" style="fill:none;stroke:#fca082;stroke-linecap:square;stroke-width:3.6;"/>
   </g>
   <g id="line2d_16">
    <path clip-path="url(#pdde0f47c19)" d="M 220.043125 154.308155 
L 220.043125 97.589992 
" style="fill:none;stroke:#fca082;stroke-linecap:square;stroke-width:3.6;"/>
   </g>
   <g id="line2d_17">
    <path clip-path="url(#pdde0f47c19)" d="M 231.587953 152.474733 
L 231.587953 86.385536 
" style="fill:none;stroke:#fca082;stroke-linecap:square;stroke-width:3.6;"/>
   </g>
   <g id="line2d_18">
    <path clip-path="url(#pdde0f47c19)" d="M 243.13278 133.134398 
L 243.13278 66.746721 
" style="fill:none;stroke:#fca082;stroke-linecap:square;stroke-width:3.6;"/>
   </g>
   <g id="line2d_19">
    <path clip-path="url(#pdde0f47c19)" d="M 254.677608 126.538334 
L 254.677608 59.691772 
" style="fill:none;stroke:#fca082;stroke-linecap:square;stroke-width:3.6;"/>
   </g>
   <g id="line2d_20">
    <path clip-path="url(#pdde0f47c19)" d="M 266.222435 140.721537 
L 266.222435 84.731871 
" style="fill:none;stroke:#fca082;stroke-linecap:square;stroke-width:3.6;"/>
   </g>
   <g id="line2d_21">
    <path clip-path="url(#pdde0f47c19)" d="M 277.767263 145.774039 
L 277.767263 87.771373 
" style="fill:none;stroke:#fca082;stroke-linecap:square;stroke-width:3.6;"/>
   </g>
   <g id="line2d_22">
    <path clip-path="url(#pdde0f47c19)" d="M 289.312091 166.303256 
L 289.312091 106.497432 
" style="fill:none;stroke:#fca082;stroke-linecap:square;stroke-width:3.6;"/>
   </g>
   <g id="line2d_23">
    <path clip-path="url(#pdde0f47c19)" d="M 300.856918 173.750733 
L 300.856918 107.926278 
" style="fill:none;stroke:#fca082;stroke-linecap:square;stroke-width:3.6;"/>
   </g>
   <g id="line2d_24">
    <path clip-path="url(#pdde0f47c19)" d="M 312.401746 171.057704 
L 312.401746 93.162377 
" style="fill:none;stroke:#fca082;stroke-linecap:square;stroke-width:3.6;"/>
   </g>
   <g id="line2d_25">
    <path clip-path="url(#pdde0f47c19)" d="M 323.946573 172.060851 
L 323.946573 95.167598 
" style="fill:none;stroke:#fca082;stroke-linecap:square;stroke-width:3.6;"/>
   </g>
   <g id="line2d_26">
    <path clip-path="url(#pdde0f47c19)" d="M 335.491401 170.978619 
L 335.491401 82.896991 
" style="fill:none;stroke:#fca082;stroke-linecap:square;stroke-width:3.6;"/>
   </g>
   <g id="line2d_27">
    <path clip-path="url(#pdde0f47c19)" d="M 347.036228 176.355271 
L 347.036228 91.537689 
" style="fill:none;stroke:#fca082;stroke-linecap:square;stroke-width:3.6;"/>
   </g>
   <g id="line2d_28">
    <path clip-path="url(#pdde0f47c19)" d="M 358.581056 175.31997 
L 358.581056 101.329879 
" style="fill:none;stroke:#fca082;stroke-linecap:square;stroke-width:3.6;"/>
   </g>
   <g id="line2d_29">
    <path clip-path="url(#pdde0f47c19)" d="M 370.125884 180.130212 
L 370.125884 108.918367 
" style="fill:none;stroke:#fca082;stroke-linecap:square;stroke-width:3.6;"/>
   </g>
   <g id="line2d_30">
    <path clip-path="url(#pdde0f47c19)" d="M 381.670711 197.196907 
L 381.670711 122.032991 
" style="fill:none;stroke:#fca082;stroke-linecap:square;stroke-width:3.6;"/>
   </g>
   <g id="matplotlib.axis_1">
    <g id="xtick_1">
     <g id="line2d_31">
      <defs>
       <path d="M 0 0 
L 0 4.8 
" id="m0436eb0a14" style="stroke:#000000;"/>
      </defs>
      <g>
       <use style="stroke:#000000;" x="58.415539" xlink:href="#m0436eb0a14" y="224.64"/>
      </g>
     </g>
     <g id="text_1">
      <!-- 14 -->
      <g transform="translate(52.816539 239.626625)scale(0.088 -0.088)">
       <defs>
        <path d="M 794 531 
L 1825 531 
L 1825 4091 
L 703 3866 
L 703 4441 
L 1819 4666 
L 2450 4666 
L 2450 531 
L 3481 531 
L 3481 0 
L 794 0 
L 794 531 
z
" id="DejaVuSans-31" transform="scale(0.015625)"/>
        <path d="M 2419 4116 
L 825 1625 
L 2419 1625 
L 2419 4116 
z
M 2253 4666 
L 3047 4666 
L 3047 1625 
L 3713 1625 
L 3713 1100 
L 3047 1100 
L 3047 0 
L 2419 0 
L 2419 1100 
L 313 1100 
L 313 1709 
L 2253 4666 
z
" id="DejaVuSans-34" transform="scale(0.015625)"/>
       </defs>
       <use xlink:href="#DejaVuSans-31"/>
       <use x="63.623047" xlink:href="#DejaVuSans-34"/>
      </g>
     </g>
    </g>
    <g id="xtick_2">
     <g id="line2d_32">
      <g>
       <use style="stroke:#000000;" x="69.960366" xlink:href="#m0436eb0a14" y="224.64"/>
      </g>
     </g>
     <g id="text_2">
      <!-- 15 -->
      <g transform="translate(64.361366 239.626625)scale(0.088 -0.088)">
       <defs>
        <path d="M 691 4666 
L 3169 4666 
L 3169 4134 
L 1269 4134 
L 1269 2991 
Q 1406 3038 1543 3061 
Q 1681 3084 1819 3084 
Q 2600 3084 3056 2656 
Q 3513 2228 3513 1497 
Q 3513 744 3044 326 
Q 2575 -91 1722 -91 
Q 1428 -91 1123 -41 
Q 819 9 494 109 
L 494 744 
Q 775 591 1075 516 
Q 1375 441 1709 441 
Q 2250 441 2565 725 
Q 2881 1009 2881 1497 
Q 2881 1984 2565 2268 
Q 2250 2553 1709 2553 
Q 1456 2553 1204 2497 
Q 953 2441 691 2322 
L 691 4666 
z
" id="DejaVuSans-35" transform="scale(0.015625)"/>
       </defs>
       <use xlink:href="#DejaVuSans-31"/>
       <use x="63.623047" xlink:href="#DejaVuSans-35"/>
      </g>
     </g>
    </g>
    <g id="xtick_3">
     <g id="line2d_33">
      <g>
       <use style="stroke:#000000;" x="81.505194" xlink:href="#m0436eb0a14" y="224.64"/>
      </g>
     </g>
     <g id="text_3">
      <!-- 16 -->
      <g transform="translate(75.906194 239.626625)scale(0.088 -0.088)">
       <defs>
        <path d="M 2113 2584 
Q 1688 2584 1439 2293 
Q 1191 2003 1191 1497 
Q 1191 994 1439 701 
Q 1688 409 2113 409 
Q 2538 409 2786 701 
Q 3034 994 3034 1497 
Q 3034 2003 2786 2293 
Q 2538 2584 2113 2584 
z
M 3366 4563 
L 3366 3988 
Q 3128 4100 2886 4159 
Q 2644 4219 2406 4219 
Q 1781 4219 1451 3797 
Q 1122 3375 1075 2522 
Q 1259 2794 1537 2939 
Q 1816 3084 2150 3084 
Q 2853 3084 3261 2657 
Q 3669 2231 3669 1497 
Q 3669 778 3244 343 
Q 2819 -91 2113 -91 
Q 1303 -91 875 529 
Q 447 1150 447 2328 
Q 447 3434 972 4092 
Q 1497 4750 2381 4750 
Q 2619 4750 2861 4703 
Q 3103 4656 3366 4563 
z
" id="DejaVuSans-36" transform="scale(0.015625)"/>
       </defs>
       <use xlink:href="#DejaVuSans-31"/>
       <use x="63.623047" xlink:href="#DejaVuSans-36"/>
      </g>
     </g>
    </g>
    <g id="xtick_4">
     <g id="line2d_34">
      <g>
       <use style="stroke:#000000;" x="93.050022" xlink:href="#m0436eb0a14" y="224.64"/>
      </g>
     </g>
     <g id="text_4">
      <!-- 17 -->
      <g transform="translate(87.451022 239.626625)scale(0.088 -0.088)">
       <defs>
        <path d="M 525 4666 
L 3525 4666 
L 3525 4397 
L 1831 0 
L 1172 0 
L 2766 4134 
L 525 4134 
L 525 4666 
z
" id="DejaVuSans-37" transform="scale(0.015625)"/>
       </defs>
       <use xlink:href="#DejaVuSans-31"/>
       <use x="63.623047" xlink:href="#DejaVuSans-37"/>
      </g>
     </g>
    </g>
    <g id="xtick_5">
     <g id="line2d_35">
      <g>
       <use style="stroke:#000000;" x="104.594849" xlink:href="#m0436eb0a14" y="224.64"/>
      </g>
     </g>
     <g id="text_5">
      <!-- 18 -->
      <g transform="translate(98.995849 239.626625)scale(0.088 -0.088)">
       <defs>
        <path d="M 2034 2216 
Q 1584 2216 1326 1975 
Q 1069 1734 1069 1313 
Q 1069 891 1326 650 
Q 1584 409 2034 409 
Q 2484 409 2743 651 
Q 3003 894 3003 1313 
Q 3003 1734 2745 1975 
Q 2488 2216 2034 2216 
z
M 1403 2484 
Q 997 2584 770 2862 
Q 544 3141 544 3541 
Q 544 4100 942 4425 
Q 1341 4750 2034 4750 
Q 2731 4750 3128 4425 
Q 3525 4100 3525 3541 
Q 3525 3141 3298 2862 
Q 3072 2584 2669 2484 
Q 3125 2378 3379 2068 
Q 3634 1759 3634 1313 
Q 3634 634 3220 271 
Q 2806 -91 2034 -91 
Q 1263 -91 848 271 
Q 434 634 434 1313 
Q 434 1759 690 2068 
Q 947 2378 1403 2484 
z
M 1172 3481 
Q 1172 3119 1398 2916 
Q 1625 2713 2034 2713 
Q 2441 2713 2670 2916 
Q 2900 3119 2900 3481 
Q 2900 3844 2670 4047 
Q 2441 4250 2034 4250 
Q 1625 4250 1398 4047 
Q 1172 3844 1172 3481 
z
" id="DejaVuSans-38" transform="scale(0.015625)"/>
       </defs>
       <use xlink:href="#DejaVuSans-31"/>
       <use x="63.623047" xlink:href="#DejaVuSans-38"/>
      </g>
     </g>
    </g>
    <g id="xtick_6">
     <g id="line2d_36">
      <g>
       <use style="stroke:#000000;" x="116.139677" xlink:href="#m0436eb0a14" y="224.64"/>
      </g>
     </g>
     <g id="text_6">
      <!-- 19 -->
      <g transform="translate(110.540677 239.626625)scale(0.088 -0.088)">
       <defs>
        <path d="M 703 97 
L 703 672 
Q 941 559 1184 500 
Q 1428 441 1663 441 
Q 2288 441 2617 861 
Q 2947 1281 2994 2138 
Q 2813 1869 2534 1725 
Q 2256 1581 1919 1581 
Q 1219 1581 811 2004 
Q 403 2428 403 3163 
Q 403 3881 828 4315 
Q 1253 4750 1959 4750 
Q 2769 4750 3195 4129 
Q 3622 3509 3622 2328 
Q 3622 1225 3098 567 
Q 2575 -91 1691 -91 
Q 1453 -91 1209 -44 
Q 966 3 703 97 
z
M 1959 2075 
Q 2384 2075 2632 2365 
Q 2881 2656 2881 3163 
Q 2881 3666 2632 3958 
Q 2384 4250 1959 4250 
Q 1534 4250 1286 3958 
Q 1038 3666 1038 3163 
Q 1038 2656 1286 2365 
Q 1534 2075 1959 2075 
z
" id="DejaVuSans-39" transform="scale(0.015625)"/>
       </defs>
       <use xlink:href="#DejaVuSans-31"/>
       <use x="63.623047" xlink:href="#DejaVuSans-39"/>
      </g>
     </g>
    </g>
    <g id="xtick_7">
     <g id="line2d_37">
      <g>
       <use style="stroke:#000000;" x="127.684504" xlink:href="#m0436eb0a14" y="224.64"/>
      </g>
     </g>
     <g id="text_7">
      <!-- 20 -->
      <g transform="translate(122.085504 239.626625)scale(0.088 -0.088)">
       <defs>
        <path d="M 1228 531 
L 3431 531 
L 3431 0 
L 469 0 
L 469 531 
Q 828 903 1448 1529 
Q 2069 2156 2228 2338 
Q 2531 2678 2651 2914 
Q 2772 3150 2772 3378 
Q 2772 3750 2511 3984 
Q 2250 4219 1831 4219 
Q 1534 4219 1204 4116 
Q 875 4013 500 3803 
L 500 4441 
Q 881 4594 1212 4672 
Q 1544 4750 1819 4750 
Q 2544 4750 2975 4387 
Q 3406 4025 3406 3419 
Q 3406 3131 3298 2873 
Q 3191 2616 2906 2266 
Q 2828 2175 2409 1742 
Q 1991 1309 1228 531 
z
" id="DejaVuSans-32" transform="scale(0.015625)"/>
        <path d="M 2034 4250 
Q 1547 4250 1301 3770 
Q 1056 3291 1056 2328 
Q 1056 1369 1301 889 
Q 1547 409 2034 409 
Q 2525 409 2770 889 
Q 3016 1369 3016 2328 
Q 3016 3291 2770 3770 
Q 2525 4250 2034 4250 
z
M 2034 4750 
Q 2819 4750 3233 4129 
Q 3647 3509 3647 2328 
Q 3647 1150 3233 529 
Q 2819 -91 2034 -91 
Q 1250 -91 836 529 
Q 422 1150 422 2328 
Q 422 3509 836 4129 
Q 1250 4750 2034 4750 
z
" id="DejaVuSans-30" transform="scale(0.015625)"/>
       </defs>
       <use xlink:href="#DejaVuSans-32"/>
       <use x="63.623047" xlink:href="#DejaVuSans-30"/>
      </g>
     </g>
    </g>
    <g id="xtick_8">
     <g id="line2d_38">
      <g>
       <use style="stroke:#000000;" x="139.229332" xlink:href="#m0436eb0a14" y="224.64"/>
      </g>
     </g>
     <g id="text_8">
      <!-- 21 -->
      <g transform="translate(133.630332 239.626625)scale(0.088 -0.088)">
       <use xlink:href="#DejaVuSans-32"/>
       <use x="63.623047" xlink:href="#DejaVuSans-31"/>
      </g>
     </g>
    </g>
    <g id="xtick_9">
     <g id="line2d_39">
      <g>
       <use style="stroke:#000000;" x="150.774159" xlink:href="#m0436eb0a14" y="224.64"/>
      </g>
     </g>
     <g id="text_9">
      <!-- 22 -->
      <g transform="translate(145.175159 239.626625)scale(0.088 -0.088)">
       <use xlink:href="#DejaVuSans-32"/>
       <use x="63.623047" xlink:href="#DejaVuSans-32"/>
      </g>
     </g>
    </g>
    <g id="xtick_10">
     <g id="line2d_40">
      <g>
       <use style="stroke:#000000;" x="162.318987" xlink:href="#m0436eb0a14" y="224.64"/>
      </g>
     </g>
     <g id="text_10">
      <!-- 23 -->
      <g transform="translate(156.719987 239.626625)scale(0.088 -0.088)">
       <defs>
        <path d="M 2597 2516 
Q 3050 2419 3304 2112 
Q 3559 1806 3559 1356 
Q 3559 666 3084 287 
Q 2609 -91 1734 -91 
Q 1441 -91 1130 -33 
Q 819 25 488 141 
L 488 750 
Q 750 597 1062 519 
Q 1375 441 1716 441 
Q 2309 441 2620 675 
Q 2931 909 2931 1356 
Q 2931 1769 2642 2001 
Q 2353 2234 1838 2234 
L 1294 2234 
L 1294 2753 
L 1863 2753 
Q 2328 2753 2575 2939 
Q 2822 3125 2822 3475 
Q 2822 3834 2567 4026 
Q 2313 4219 1838 4219 
Q 1578 4219 1281 4162 
Q 984 4106 628 3988 
L 628 4550 
Q 988 4650 1302 4700 
Q 1616 4750 1894 4750 
Q 2613 4750 3031 4423 
Q 3450 4097 3450 3541 
Q 3450 3153 3228 2886 
Q 3006 2619 2597 2516 
z
" id="DejaVuSans-33" transform="scale(0.015625)"/>
       </defs>
       <use xlink:href="#DejaVuSans-32"/>
       <use x="63.623047" xlink:href="#DejaVuSans-33"/>
      </g>
     </g>
    </g>
    <g id="xtick_11">
     <g id="line2d_41">
      <g>
       <use style="stroke:#000000;" x="173.863815" xlink:href="#m0436eb0a14" y="224.64"/>
      </g>
     </g>
     <g id="text_11">
      <!-- 24 -->
      <g transform="translate(168.264815 239.626625)scale(0.088 -0.088)">
       <use xlink:href="#DejaVuSans-32"/>
       <use x="63.623047" xlink:href="#DejaVuSans-34"/>
      </g>
     </g>
    </g>
    <g id="xtick_12">
     <g id="line2d_42">
      <g>
       <use style="stroke:#000000;" x="185.408642" xlink:href="#m0436eb0a14" y="224.64"/>
      </g>
     </g>
     <g id="text_12">
      <!-- 25 -->
      <g transform="translate(179.809642 239.626625)scale(0.088 -0.088)">
       <use xlink:href="#DejaVuSans-32"/>
       <use x="63.623047" xlink:href="#DejaVuSans-35"/>
      </g>
     </g>
    </g>
    <g id="xtick_13">
     <g id="line2d_43">
      <g>
       <use style="stroke:#000000;" x="196.95347" xlink:href="#m0436eb0a14" y="224.64"/>
      </g>
     </g>
     <g id="text_13">
      <!-- 26 -->
      <g transform="translate(191.35447 239.626625)scale(0.088 -0.088)">
       <use xlink:href="#DejaVuSans-32"/>
       <use x="63.623047" xlink:href="#DejaVuSans-36"/>
      </g>
     </g>
    </g>
    <g id="xtick_14">
     <g id="line2d_44">
      <g>
       <use style="stroke:#000000;" x="208.498297" xlink:href="#m0436eb0a14" y="224.64"/>
      </g>
     </g>
     <g id="text_14">
      <!-- 27 -->
      <g transform="translate(202.899297 239.626625)scale(0.088 -0.088)">
       <use xlink:href="#DejaVuSans-32"/>
       <use x="63.623047" xlink:href="#DejaVuSans-37"/>
      </g>
     </g>
    </g>
    <g id="xtick_15">
     <g id="line2d_45">
      <g>
       <use style="stroke:#000000;" x="220.043125" xlink:href="#m0436eb0a14" y="224.64"/>
      </g>
     </g>
     <g id="text_15">
      <!-- 28 -->
      <g transform="translate(214.444125 239.626625)scale(0.088 -0.088)">
       <use xlink:href="#DejaVuSans-32"/>
       <use x="63.623047" xlink:href="#DejaVuSans-38"/>
      </g>
     </g>
    </g>
    <g id="xtick_16">
     <g id="line2d_46">
      <g>
       <use style="stroke:#000000;" x="231.587953" xlink:href="#m0436eb0a14" y="224.64"/>
      </g>
     </g>
     <g id="text_16">
      <!-- 29 -->
      <g transform="translate(225.988953 239.626625)scale(0.088 -0.088)">
       <use xlink:href="#DejaVuSans-32"/>
       <use x="63.623047" xlink:href="#DejaVuSans-39"/>
      </g>
     </g>
    </g>
    <g id="xtick_17">
     <g id="line2d_47">
      <g>
       <use style="stroke:#000000;" x="243.13278" xlink:href="#m0436eb0a14" y="224.64"/>
      </g>
     </g>
     <g id="text_17">
      <!-- 30 -->
      <g transform="translate(237.53378 239.626625)scale(0.088 -0.088)">
       <use xlink:href="#DejaVuSans-33"/>
       <use x="63.623047" xlink:href="#DejaVuSans-30"/>
      </g>
     </g>
    </g>
    <g id="xtick_18">
     <g id="line2d_48">
      <g>
       <use style="stroke:#000000;" x="254.677608" xlink:href="#m0436eb0a14" y="224.64"/>
      </g>
     </g>
     <g id="text_18">
      <!-- 31 -->
      <g transform="translate(249.078608 239.626625)scale(0.088 -0.088)">
       <use xlink:href="#DejaVuSans-33"/>
       <use x="63.623047" xlink:href="#DejaVuSans-31"/>
      </g>
     </g>
    </g>
    <g id="xtick_19">
     <g id="line2d_49">
      <g>
       <use style="stroke:#000000;" x="266.222435" xlink:href="#m0436eb0a14" y="224.64"/>
      </g>
     </g>
     <g id="text_19">
      <!-- 32 -->
      <g transform="translate(260.623435 239.626625)scale(0.088 -0.088)">
       <use xlink:href="#DejaVuSans-33"/>
       <use x="63.623047" xlink:href="#DejaVuSans-32"/>
      </g>
     </g>
    </g>
    <g id="xtick_20">
     <g id="line2d_50">
      <g>
       <use style="stroke:#000000;" x="277.767263" xlink:href="#m0436eb0a14" y="224.64"/>
      </g>
     </g>
     <g id="text_20">
      <!-- 33 -->
      <g transform="translate(272.168263 239.626625)scale(0.088 -0.088)">
       <use xlink:href="#DejaVuSans-33"/>
       <use x="63.623047" xlink:href="#DejaVuSans-33"/>
      </g>
     </g>
    </g>
    <g id="xtick_21">
     <g id="line2d_51">
      <g>
       <use style="stroke:#000000;" x="289.312091" xlink:href="#m0436eb0a14" y="224.64"/>
      </g>
     </g>
     <g id="text_21">
      <!-- 34 -->
      <g transform="translate(283.713091 239.626625)scale(0.088 -0.088)">
       <use xlink:href="#DejaVuSans-33"/>
       <use x="63.623047" xlink:href="#DejaVuSans-34"/>
      </g>
     </g>
    </g>
    <g id="xtick_22">
     <g id="line2d_52">
      <g>
       <use style="stroke:#000000;" x="300.856918" xlink:href="#m0436eb0a14" y="224.64"/>
      </g>
     </g>
     <g id="text_22">
      <!-- 35 -->
      <g transform="translate(295.257918 239.626625)scale(0.088 -0.088)">
       <use xlink:href="#DejaVuSans-33"/>
       <use x="63.623047" xlink:href="#DejaVuSans-35"/>
      </g>
     </g>
    </g>
    <g id="xtick_23">
     <g id="line2d_53">
      <g>
       <use style="stroke:#000000;" x="312.401746" xlink:href="#m0436eb0a14" y="224.64"/>
      </g>
     </g>
     <g id="text_23">
      <!-- 36 -->
      <g transform="translate(306.802746 239.626625)scale(0.088 -0.088)">
       <use xlink:href="#DejaVuSans-33"/>
       <use x="63.623047" xlink:href="#DejaVuSans-36"/>
      </g>
     </g>
    </g>
    <g id="xtick_24">
     <g id="line2d_54">
      <g>
       <use style="stroke:#000000;" x="323.946573" xlink:href="#m0436eb0a14" y="224.64"/>
      </g>
     </g>
     <g id="text_24">
      <!-- 37 -->
      <g transform="translate(318.347573 239.626625)scale(0.088 -0.088)">
       <use xlink:href="#DejaVuSans-33"/>
       <use x="63.623047" xlink:href="#DejaVuSans-37"/>
      </g>
     </g>
    </g>
    <g id="xtick_25">
     <g id="line2d_55">
      <g>
       <use style="stroke:#000000;" x="335.491401" xlink:href="#m0436eb0a14" y="224.64"/>
      </g>
     </g>
     <g id="text_25">
      <!-- 38 -->
      <g transform="translate(329.892401 239.626625)scale(0.088 -0.088)">
       <use xlink:href="#DejaVuSans-33"/>
       <use x="63.623047" xlink:href="#DejaVuSans-38"/>
      </g>
     </g>
    </g>
    <g id="xtick_26">
     <g id="line2d_56">
      <g>
       <use style="stroke:#000000;" x="347.036228" xlink:href="#m0436eb0a14" y="224.64"/>
      </g>
     </g>
     <g id="text_26">
      <!-- 39 -->
      <g transform="translate(341.437228 239.626625)scale(0.088 -0.088)">
       <use xlink:href="#DejaVuSans-33"/>
       <use x="63.623047" xlink:href="#DejaVuSans-39"/>
      </g>
     </g>
    </g>
    <g id="xtick_27">
     <g id="line2d_57">
      <g>
       <use style="stroke:#000000;" x="358.581056" xlink:href="#m0436eb0a14" y="224.64"/>
      </g>
     </g>
     <g id="text_27">
      <!-- 40 -->
      <g transform="translate(352.982056 239.626625)scale(0.088 -0.088)">
       <use xlink:href="#DejaVuSans-34"/>
       <use x="63.623047" xlink:href="#DejaVuSans-30"/>
      </g>
     </g>
    </g>
    <g id="xtick_28">
     <g id="line2d_58">
      <g>
       <use style="stroke:#000000;" x="370.125884" xlink:href="#m0436eb0a14" y="224.64"/>
      </g>
     </g>
     <g id="text_28">
      <!-- 41 -->
      <g transform="translate(364.526884 239.626625)scale(0.088 -0.088)">
       <use xlink:href="#DejaVuSans-34"/>
       <use x="63.623047" xlink:href="#DejaVuSans-31"/>
      </g>
     </g>
    </g>
    <g id="xtick_29">
     <g id="line2d_59">
      <g>
       <use style="stroke:#000000;" x="381.670711" xlink:href="#m0436eb0a14" y="224.64"/>
      </g>
     </g>
     <g id="text_29">
      <!-- 42 -->
      <g transform="translate(376.071711 239.626625)scale(0.088 -0.088)">
       <use xlink:href="#DejaVuSans-34"/>
       <use x="63.623047" xlink:href="#DejaVuSans-32"/>
      </g>
     </g>
    </g>
    <g id="text_30">
     <!-- Adaptation Stage -->
     <g transform="translate(159.303906 256.094562)scale(0.14 -0.14)">
      <defs>
       <path d="M 2188 4044 
L 1331 1722 
L 3047 1722 
L 2188 4044 
z
M 1831 4666 
L 2547 4666 
L 4325 0 
L 3669 0 
L 3244 1197 
L 1141 1197 
L 716 0 
L 50 0 
L 1831 4666 
z
" id="DejaVuSans-41" transform="scale(0.015625)"/>
       <path d="M 2906 2969 
L 2906 4863 
L 3481 4863 
L 3481 0 
L 2906 0 
L 2906 525 
Q 2725 213 2448 61 
Q 2172 -91 1784 -91 
Q 1150 -91 751 415 
Q 353 922 353 1747 
Q 353 2572 751 3078 
Q 1150 3584 1784 3584 
Q 2172 3584 2448 3432 
Q 2725 3281 2906 2969 
z
M 947 1747 
Q 947 1113 1208 752 
Q 1469 391 1925 391 
Q 2381 391 2643 752 
Q 2906 1113 2906 1747 
Q 2906 2381 2643 2742 
Q 2381 3103 1925 3103 
Q 1469 3103 1208 2742 
Q 947 2381 947 1747 
z
" id="DejaVuSans-64" transform="scale(0.015625)"/>
       <path d="M 2194 1759 
Q 1497 1759 1228 1600 
Q 959 1441 959 1056 
Q 959 750 1161 570 
Q 1363 391 1709 391 
Q 2188 391 2477 730 
Q 2766 1069 2766 1631 
L 2766 1759 
L 2194 1759 
z
M 3341 1997 
L 3341 0 
L 2766 0 
L 2766 531 
Q 2569 213 2275 61 
Q 1981 -91 1556 -91 
Q 1019 -91 701 211 
Q 384 513 384 1019 
Q 384 1609 779 1909 
Q 1175 2209 1959 2209 
L 2766 2209 
L 2766 2266 
Q 2766 2663 2505 2880 
Q 2244 3097 1772 3097 
Q 1472 3097 1187 3025 
Q 903 2953 641 2809 
L 641 3341 
Q 956 3463 1253 3523 
Q 1550 3584 1831 3584 
Q 2591 3584 2966 3190 
Q 3341 2797 3341 1997 
z
" id="DejaVuSans-61" transform="scale(0.015625)"/>
       <path d="M 1159 525 
L 1159 -1331 
L 581 -1331 
L 581 3500 
L 1159 3500 
L 1159 2969 
Q 1341 3281 1617 3432 
Q 1894 3584 2278 3584 
Q 2916 3584 3314 3078 
Q 3713 2572 3713 1747 
Q 3713 922 3314 415 
Q 2916 -91 2278 -91 
Q 1894 -91 1617 61 
Q 1341 213 1159 525 
z
M 3116 1747 
Q 3116 2381 2855 2742 
Q 2594 3103 2138 3103 
Q 1681 3103 1420 2742 
Q 1159 2381 1159 1747 
Q 1159 1113 1420 752 
Q 1681 391 2138 391 
Q 2594 391 2855 752 
Q 3116 1113 3116 1747 
z
" id="DejaVuSans-70" transform="scale(0.015625)"/>
       <path d="M 1172 4494 
L 1172 3500 
L 2356 3500 
L 2356 3053 
L 1172 3053 
L 1172 1153 
Q 1172 725 1289 603 
Q 1406 481 1766 481 
L 2356 481 
L 2356 0 
L 1766 0 
Q 1100 0 847 248 
Q 594 497 594 1153 
L 594 3053 
L 172 3053 
L 172 3500 
L 594 3500 
L 594 4494 
L 1172 4494 
z
" id="DejaVuSans-74" transform="scale(0.015625)"/>
       <path d="M 603 3500 
L 1178 3500 
L 1178 0 
L 603 0 
L 603 3500 
z
M 603 4863 
L 1178 4863 
L 1178 4134 
L 603 4134 
L 603 4863 
z
" id="DejaVuSans-69" transform="scale(0.015625)"/>
       <path d="M 1959 3097 
Q 1497 3097 1228 2736 
Q 959 2375 959 1747 
Q 959 1119 1226 758 
Q 1494 397 1959 397 
Q 2419 397 2687 759 
Q 2956 1122 2956 1747 
Q 2956 2369 2687 2733 
Q 2419 3097 1959 3097 
z
M 1959 3584 
Q 2709 3584 3137 3096 
Q 3566 2609 3566 1747 
Q 3566 888 3137 398 
Q 2709 -91 1959 -91 
Q 1206 -91 779 398 
Q 353 888 353 1747 
Q 353 2609 779 3096 
Q 1206 3584 1959 3584 
z
" id="DejaVuSans-6f" transform="scale(0.015625)"/>
       <path d="M 3513 2113 
L 3513 0 
L 2938 0 
L 2938 2094 
Q 2938 2591 2744 2837 
Q 2550 3084 2163 3084 
Q 1697 3084 1428 2787 
Q 1159 2491 1159 1978 
L 1159 0 
L 581 0 
L 581 3500 
L 1159 3500 
L 1159 2956 
Q 1366 3272 1645 3428 
Q 1925 3584 2291 3584 
Q 2894 3584 3203 3211 
Q 3513 2838 3513 2113 
z
" id="DejaVuSans-6e" transform="scale(0.015625)"/>
       <path id="DejaVuSans-20" transform="scale(0.015625)"/>
       <path d="M 3425 4513 
L 3425 3897 
Q 3066 4069 2747 4153 
Q 2428 4238 2131 4238 
Q 1616 4238 1336 4038 
Q 1056 3838 1056 3469 
Q 1056 3159 1242 3001 
Q 1428 2844 1947 2747 
L 2328 2669 
Q 3034 2534 3370 2195 
Q 3706 1856 3706 1288 
Q 3706 609 3251 259 
Q 2797 -91 1919 -91 
Q 1588 -91 1214 -16 
Q 841 59 441 206 
L 441 856 
Q 825 641 1194 531 
Q 1563 422 1919 422 
Q 2459 422 2753 634 
Q 3047 847 3047 1241 
Q 3047 1584 2836 1778 
Q 2625 1972 2144 2069 
L 1759 2144 
Q 1053 2284 737 2584 
Q 422 2884 422 3419 
Q 422 4038 858 4394 
Q 1294 4750 2059 4750 
Q 2388 4750 2728 4690 
Q 3069 4631 3425 4513 
z
" id="DejaVuSans-53" transform="scale(0.015625)"/>
       <path d="M 2906 1791 
Q 2906 2416 2648 2759 
Q 2391 3103 1925 3103 
Q 1463 3103 1205 2759 
Q 947 2416 947 1791 
Q 947 1169 1205 825 
Q 1463 481 1925 481 
Q 2391 481 2648 825 
Q 2906 1169 2906 1791 
z
M 3481 434 
Q 3481 -459 3084 -895 
Q 2688 -1331 1869 -1331 
Q 1566 -1331 1297 -1286 
Q 1028 -1241 775 -1147 
L 775 -588 
Q 1028 -725 1275 -790 
Q 1522 -856 1778 -856 
Q 2344 -856 2625 -561 
Q 2906 -266 2906 331 
L 2906 616 
Q 2728 306 2450 153 
Q 2172 0 1784 0 
Q 1141 0 747 490 
Q 353 981 353 1791 
Q 353 2603 747 3093 
Q 1141 3584 1784 3584 
Q 2172 3584 2450 3431 
Q 2728 3278 2906 2969 
L 2906 3500 
L 3481 3500 
L 3481 434 
z
" id="DejaVuSans-67" transform="scale(0.015625)"/>
       <path d="M 3597 1894 
L 3597 1613 
L 953 1613 
Q 991 1019 1311 708 
Q 1631 397 2203 397 
Q 2534 397 2845 478 
Q 3156 559 3463 722 
L 3463 178 
Q 3153 47 2828 -22 
Q 2503 -91 2169 -91 
Q 1331 -91 842 396 
Q 353 884 353 1716 
Q 353 2575 817 3079 
Q 1281 3584 2069 3584 
Q 2775 3584 3186 3129 
Q 3597 2675 3597 1894 
z
M 3022 2063 
Q 3016 2534 2758 2815 
Q 2500 3097 2075 3097 
Q 1594 3097 1305 2825 
Q 1016 2553 972 2059 
L 3022 2063 
z
" id="DejaVuSans-65" transform="scale(0.015625)"/>
      </defs>
      <use xlink:href="#DejaVuSans-41"/>
      <use x="66.658203" xlink:href="#DejaVuSans-64"/>
      <use x="130.134766" xlink:href="#DejaVuSans-61"/>
      <use x="191.414062" xlink:href="#DejaVuSans-70"/>
      <use x="254.890625" xlink:href="#DejaVuSans-74"/>
      <use x="294.099609" xlink:href="#DejaVuSans-61"/>
      <use x="355.378906" xlink:href="#DejaVuSans-74"/>
      <use x="394.587891" xlink:href="#DejaVuSans-69"/>
      <use x="422.371094" xlink:href="#DejaVuSans-6f"/>
      <use x="483.552734" xlink:href="#DejaVuSans-6e"/>
      <use x="546.931641" xlink:href="#DejaVuSans-20"/>
      <use x="578.71875" xlink:href="#DejaVuSans-53"/>
      <use x="642.195312" xlink:href="#DejaVuSans-74"/>
      <use x="681.404297" xlink:href="#DejaVuSans-61"/>
      <use x="742.683594" xlink:href="#DejaVuSans-67"/>
      <use x="806.160156" xlink:href="#DejaVuSans-65"/>
     </g>
    </g>
   </g>
   <g id="matplotlib.axis_2">
    <g id="ytick_1">
     <g id="line2d_60">
      <defs>
       <path d="M 0 0 
L -4.8 0 
" id="m7a237e754a" style="stroke:#000000;"/>
      </defs>
      <g>
       <use style="stroke:#000000;" x="52.643125" xlink:href="#m7a237e754a" y="219.009029"/>
      </g>
     </g>
     <g id="text_31">
      <!-- 17.5 -->
      <g transform="translate(24.749375 222.352342)scale(0.088 -0.088)">
       <defs>
        <path d="M 684 794 
L 1344 794 
L 1344 0 
L 684 0 
L 684 794 
z
" id="DejaVuSans-2e" transform="scale(0.015625)"/>
       </defs>
       <use xlink:href="#DejaVuSans-31"/>
       <use x="63.623047" xlink:href="#DejaVuSans-37"/>
       <use x="127.246094" xlink:href="#DejaVuSans-2e"/>
       <use x="159.033203" xlink:href="#DejaVuSans-35"/>
      </g>
     </g>
    </g>
    <g id="ytick_2">
     <g id="line2d_61">
      <g>
       <use style="stroke:#000000;" x="52.643125" xlink:href="#m7a237e754a" y="192.079294"/>
      </g>
     </g>
     <g id="text_32">
      <!-- 20.0 -->
      <g transform="translate(24.749375 195.422607)scale(0.088 -0.088)">
       <use xlink:href="#DejaVuSans-32"/>
       <use x="63.623047" xlink:href="#DejaVuSans-30"/>
       <use x="127.246094" xlink:href="#DejaVuSans-2e"/>
       <use x="159.033203" xlink:href="#DejaVuSans-30"/>
      </g>
     </g>
    </g>
    <g id="ytick_3">
     <g id="line2d_62">
      <g>
       <use style="stroke:#000000;" x="52.643125" xlink:href="#m7a237e754a" y="165.149559"/>
      </g>
     </g>
     <g id="text_33">
      <!-- 22.5 -->
      <g transform="translate(24.749375 168.492872)scale(0.088 -0.088)">
       <use xlink:href="#DejaVuSans-32"/>
       <use x="63.623047" xlink:href="#DejaVuSans-32"/>
       <use x="127.246094" xlink:href="#DejaVuSans-2e"/>
       <use x="159.033203" xlink:href="#DejaVuSans-35"/>
      </g>
     </g>
    </g>
    <g id="ytick_4">
     <g id="line2d_63">
      <g>
       <use style="stroke:#000000;" x="52.643125" xlink:href="#m7a237e754a" y="138.219824"/>
      </g>
     </g>
     <g id="text_34">
      <!-- 25.0 -->
      <g transform="translate(24.749375 141.563137)scale(0.088 -0.088)">
       <use xlink:href="#DejaVuSans-32"/>
       <use x="63.623047" xlink:href="#DejaVuSans-35"/>
       <use x="127.246094" xlink:href="#DejaVuSans-2e"/>
       <use x="159.033203" xlink:href="#DejaVuSans-30"/>
      </g>
     </g>
    </g>
    <g id="ytick_5">
     <g id="line2d_64">
      <g>
       <use style="stroke:#000000;" x="52.643125" xlink:href="#m7a237e754a" y="111.290089"/>
      </g>
     </g>
     <g id="text_35">
      <!-- 27.5 -->
      <g transform="translate(24.749375 114.633402)scale(0.088 -0.088)">
       <use xlink:href="#DejaVuSans-32"/>
       <use x="63.623047" xlink:href="#DejaVuSans-37"/>
       <use x="127.246094" xlink:href="#DejaVuSans-2e"/>
       <use x="159.033203" xlink:href="#DejaVuSans-35"/>
      </g>
     </g>
    </g>
    <g id="ytick_6">
     <g id="line2d_65">
      <g>
       <use style="stroke:#000000;" x="52.643125" xlink:href="#m7a237e754a" y="84.360354"/>
      </g>
     </g>
     <g id="text_36">
      <!-- 30.0 -->
      <g transform="translate(24.749375 87.703666)scale(0.088 -0.088)">
       <use xlink:href="#DejaVuSans-33"/>
       <use x="63.623047" xlink:href="#DejaVuSans-30"/>
       <use x="127.246094" xlink:href="#DejaVuSans-2e"/>
       <use x="159.033203" xlink:href="#DejaVuSans-30"/>
      </g>
     </g>
    </g>
    <g id="ytick_7">
     <g id="line2d_66">
      <g>
       <use style="stroke:#000000;" x="52.643125" xlink:href="#m7a237e754a" y="57.430619"/>
      </g>
     </g>
     <g id="text_37">
      <!-- 32.5 -->
      <g transform="translate(24.749375 60.773931)scale(0.088 -0.088)">
       <use xlink:href="#DejaVuSans-33"/>
       <use x="63.623047" xlink:href="#DejaVuSans-32"/>
       <use x="127.246094" xlink:href="#DejaVuSans-2e"/>
       <use x="159.033203" xlink:href="#DejaVuSans-35"/>
      </g>
     </g>
    </g>
    <g id="ytick_8">
     <g id="line2d_67">
      <g>
       <use style="stroke:#000000;" x="52.643125" xlink:href="#m7a237e754a" y="30.500884"/>
      </g>
     </g>
     <g id="text_38">
      <!-- 35.0 -->
      <g transform="translate(24.749375 33.844196)scale(0.088 -0.088)">
       <use xlink:href="#DejaVuSans-33"/>
       <use x="63.623047" xlink:href="#DejaVuSans-35"/>
       <use x="127.246094" xlink:href="#DejaVuSans-2e"/>
       <use x="159.033203" xlink:href="#DejaVuSans-30"/>
      </g>
     </g>
    </g>
    <g id="text_39">
     <!-- MAE (Degrees) -->
     <g transform="translate(17.837812 167.980312)rotate(-90)scale(0.14 -0.14)">
      <defs>
       <path d="M 628 4666 
L 1569 4666 
L 2759 1491 
L 3956 4666 
L 4897 4666 
L 4897 0 
L 4281 0 
L 4281 4097 
L 3078 897 
L 2444 897 
L 1241 4097 
L 1241 0 
L 628 0 
L 628 4666 
z
" id="DejaVuSans-4d" transform="scale(0.015625)"/>
       <path d="M 628 4666 
L 3578 4666 
L 3578 4134 
L 1259 4134 
L 1259 2753 
L 3481 2753 
L 3481 2222 
L 1259 2222 
L 1259 531 
L 3634 531 
L 3634 0 
L 628 0 
L 628 4666 
z
" id="DejaVuSans-45" transform="scale(0.015625)"/>
       <path d="M 1984 4856 
Q 1566 4138 1362 3434 
Q 1159 2731 1159 2009 
Q 1159 1288 1364 580 
Q 1569 -128 1984 -844 
L 1484 -844 
Q 1016 -109 783 600 
Q 550 1309 550 2009 
Q 550 2706 781 3412 
Q 1013 4119 1484 4856 
L 1984 4856 
z
" id="DejaVuSans-28" transform="scale(0.015625)"/>
       <path d="M 1259 4147 
L 1259 519 
L 2022 519 
Q 2988 519 3436 956 
Q 3884 1394 3884 2338 
Q 3884 3275 3436 3711 
Q 2988 4147 2022 4147 
L 1259 4147 
z
M 628 4666 
L 1925 4666 
Q 3281 4666 3915 4102 
Q 4550 3538 4550 2338 
Q 4550 1131 3912 565 
Q 3275 0 1925 0 
L 628 0 
L 628 4666 
z
" id="DejaVuSans-44" transform="scale(0.015625)"/>
       <path d="M 2631 2963 
Q 2534 3019 2420 3045 
Q 2306 3072 2169 3072 
Q 1681 3072 1420 2755 
Q 1159 2438 1159 1844 
L 1159 0 
L 581 0 
L 581 3500 
L 1159 3500 
L 1159 2956 
Q 1341 3275 1631 3429 
Q 1922 3584 2338 3584 
Q 2397 3584 2469 3576 
Q 2541 3569 2628 3553 
L 2631 2963 
z
" id="DejaVuSans-72" transform="scale(0.015625)"/>
       <path d="M 2834 3397 
L 2834 2853 
Q 2591 2978 2328 3040 
Q 2066 3103 1784 3103 
Q 1356 3103 1142 2972 
Q 928 2841 928 2578 
Q 928 2378 1081 2264 
Q 1234 2150 1697 2047 
L 1894 2003 
Q 2506 1872 2764 1633 
Q 3022 1394 3022 966 
Q 3022 478 2636 193 
Q 2250 -91 1575 -91 
Q 1294 -91 989 -36 
Q 684 19 347 128 
L 347 722 
Q 666 556 975 473 
Q 1284 391 1588 391 
Q 1994 391 2212 530 
Q 2431 669 2431 922 
Q 2431 1156 2273 1281 
Q 2116 1406 1581 1522 
L 1381 1569 
Q 847 1681 609 1914 
Q 372 2147 372 2553 
Q 372 3047 722 3315 
Q 1072 3584 1716 3584 
Q 2034 3584 2315 3537 
Q 2597 3491 2834 3397 
z
" id="DejaVuSans-73" transform="scale(0.015625)"/>
       <path d="M 513 4856 
L 1013 4856 
Q 1481 4119 1714 3412 
Q 1947 2706 1947 2009 
Q 1947 1309 1714 600 
Q 1481 -109 1013 -844 
L 513 -844 
Q 928 -128 1133 580 
Q 1338 1288 1338 2009 
Q 1338 2731 1133 3434 
Q 928 4138 513 4856 
z
" id="DejaVuSans-29" transform="scale(0.015625)"/>
      </defs>
      <use xlink:href="#DejaVuSans-4d"/>
      <use x="86.279297" xlink:href="#DejaVuSans-41"/>
      <use x="154.6875" xlink:href="#DejaVuSans-45"/>
      <use x="217.871094" xlink:href="#DejaVuSans-20"/>
      <use x="249.658203" xlink:href="#DejaVuSans-28"/>
      <use x="288.671875" xlink:href="#DejaVuSans-44"/>
      <use x="365.673828" xlink:href="#DejaVuSans-65"/>
      <use x="427.197266" xlink:href="#DejaVuSans-67"/>
      <use x="490.673828" xlink:href="#DejaVuSans-72"/>
      <use x="529.537109" xlink:href="#DejaVuSans-65"/>
      <use x="591.060547" xlink:href="#DejaVuSans-65"/>
      <use x="652.583984" xlink:href="#DejaVuSans-73"/>
      <use x="704.683594" xlink:href="#DejaVuSans-29"/>
     </g>
    </g>
   </g>
   <g id="PathCollection_2">
    <defs>
     <path d="M 0 4.511931 
C 1.196578 4.511931 2.344308 4.036525 3.190417 3.190417 
C 4.036525 2.344308 4.511931 1.196578 4.511931 0 
C 4.511931 -1.196578 4.036525 -2.344308 3.190417 -3.190417 
C 2.344308 -4.036525 1.196578 -4.511931 0 -4.511931 
C -1.196578 -4.511931 -2.344308 -4.036525 -3.190417 -3.190417 
C -4.036525 -2.344308 -4.511931 -1.196578 -4.511931 0 
C -4.511931 1.196578 -4.036525 2.344308 -3.190417 3.190417 
C -2.344308 4.036525 -1.196578 4.511931 0 4.511931 
z
" id="mc463ee1089" style="stroke:#e32f27;stroke-width:2.7;"/>
    </defs>
    <g clip-path="url(#pdde0f47c19)">
     <use style="fill:#e32f27;stroke:#e32f27;stroke-width:2.7;" x="58.415539" xlink:href="#mc463ee1089" y="88.780573"/>
     <use style="fill:#e32f27;stroke:#e32f27;stroke-width:2.7;" x="69.960366" xlink:href="#mc463ee1089" y="102.655229"/>
     <use style="fill:#e32f27;stroke:#e32f27;stroke-width:2.7;" x="81.505194" xlink:href="#mc463ee1089" y="100.386766"/>
     <use style="fill:#e32f27;stroke:#e32f27;stroke-width:2.7;" x="93.050022" xlink:href="#mc463ee1089" y="88.849297"/>
     <use style="fill:#e32f27;stroke:#e32f27;stroke-width:2.7;" x="104.594849" xlink:href="#mc463ee1089" y="83.743869"/>
     <use style="fill:#e32f27;stroke:#e32f27;stroke-width:2.7;" x="116.139677" xlink:href="#mc463ee1089" y="96.611168"/>
     <use style="fill:#e32f27;stroke:#e32f27;stroke-width:2.7;" x="127.684504" xlink:href="#mc463ee1089" y="146.161464"/>
     <use style="fill:#e32f27;stroke:#e32f27;stroke-width:2.7;" x="139.229332" xlink:href="#mc463ee1089" y="158.678602"/>
     <use style="fill:#e32f27;stroke:#e32f27;stroke-width:2.7;" x="150.774159" xlink:href="#mc463ee1089" y="163.710001"/>
     <use style="fill:#e32f27;stroke:#e32f27;stroke-width:2.7;" x="162.318987" xlink:href="#mc463ee1089" y="160.193758"/>
     <use style="fill:#e32f27;stroke:#e32f27;stroke-width:2.7;" x="173.863815" xlink:href="#mc463ee1089" y="147.119755"/>
     <use style="fill:#e32f27;stroke:#e32f27;stroke-width:2.7;" x="185.408642" xlink:href="#mc463ee1089" y="134.874321"/>
     <use style="fill:#e32f27;stroke:#e32f27;stroke-width:2.7;" x="196.95347" xlink:href="#mc463ee1089" y="135.275064"/>
     <use style="fill:#e32f27;stroke:#e32f27;stroke-width:2.7;" x="208.498297" xlink:href="#mc463ee1089" y="140.259047"/>
     <use style="fill:#e32f27;stroke:#e32f27;stroke-width:2.7;" x="220.043125" xlink:href="#mc463ee1089" y="157.133702"/>
     <use style="fill:#e32f27;stroke:#e32f27;stroke-width:2.7;" x="231.587953" xlink:href="#mc463ee1089" y="171.076867"/>
     <use style="fill:#e32f27;stroke:#e32f27;stroke-width:2.7;" x="243.13278" xlink:href="#mc463ee1089" y="166.343798"/>
     <use style="fill:#e32f27;stroke:#e32f27;stroke-width:2.7;" x="254.677608" xlink:href="#mc463ee1089" y="173.815922"/>
     <use style="fill:#e32f27;stroke:#e32f27;stroke-width:2.7;" x="266.222435" xlink:href="#mc463ee1089" y="179.415164"/>
     <use style="fill:#e32f27;stroke:#e32f27;stroke-width:2.7;" x="277.767263" xlink:href="#mc463ee1089" y="176.115497"/>
     <use style="fill:#e32f27;stroke:#e32f27;stroke-width:2.7;" x="289.312091" xlink:href="#mc463ee1089" y="188.732772"/>
     <use style="fill:#e32f27;stroke:#e32f27;stroke-width:2.7;" x="300.856918" xlink:href="#mc463ee1089" y="184.062374"/>
     <use style="fill:#e32f27;stroke:#e32f27;stroke-width:2.7;" x="312.401746" xlink:href="#mc463ee1089" y="169.177675"/>
     <use style="fill:#e32f27;stroke:#e32f27;stroke-width:2.7;" x="323.946573" xlink:href="#mc463ee1089" y="173.163447"/>
     <use style="fill:#e32f27;stroke:#e32f27;stroke-width:2.7;" x="335.491401" xlink:href="#mc463ee1089" y="162.743579"/>
     <use style="fill:#e32f27;stroke:#e32f27;stroke-width:2.7;" x="347.036228" xlink:href="#mc463ee1089" y="156.103281"/>
     <use style="fill:#e32f27;stroke:#e32f27;stroke-width:2.7;" x="358.581056" xlink:href="#mc463ee1089" y="169.098533"/>
     <use style="fill:#e32f27;stroke:#e32f27;stroke-width:2.7;" x="370.125884" xlink:href="#mc463ee1089" y="171.9686"/>
     <use style="fill:#e32f27;stroke:#e32f27;stroke-width:2.7;" x="381.670711" xlink:href="#mc463ee1089" y="192.985841"/>
    </g>
   </g>
   <g id="line2d_68">
    <path clip-path="url(#pdde0f47c19)" d="M 58.415539 88.780573 
L 69.960366 102.655229 
L 81.505194 100.386766 
L 93.050022 88.849297 
L 104.594849 83.743869 
L 116.139677 96.611168 
L 127.684504 146.161464 
L 139.229332 158.678602 
L 150.774159 163.710001 
L 162.318987 160.193758 
L 173.863815 147.119755 
L 185.408642 134.874321 
L 196.95347 135.275064 
L 208.498297 140.259047 
L 220.043125 157.133702 
L 231.587953 171.076867 
L 243.13278 166.343798 
L 254.677608 173.815922 
L 266.222435 179.415164 
L 277.767263 176.115497 
L 289.312091 188.732772 
L 300.856918 184.062374 
L 312.401746 169.177675 
L 323.946573 173.163447 
L 335.491401 162.743579 
L 347.036228 156.103281 
L 358.581056 169.098533 
L 370.125884 171.9686 
L 381.670711 192.985841 
" style="fill:none;stroke:#e32f27;stroke-linecap:square;stroke-width:3.6;"/>
   </g>
   <g id="line2d_69">
    <path clip-path="url(#pdde0f47c19)" d="M 58.415539 109.242939 
L 58.415539 65.850989 
" style="fill:none;stroke:#e32f27;stroke-linecap:square;stroke-width:3.6;"/>
   </g>
   <g id="line2d_70">
    <path clip-path="url(#pdde0f47c19)" d="M 69.960366 129.595511 
L 69.960366 77.909483 
" style="fill:none;stroke:#e32f27;stroke-linecap:square;stroke-width:3.6;"/>
   </g>
   <g id="line2d_71">
    <path clip-path="url(#pdde0f47c19)" d="M 81.505194 134.324899 
L 81.505194 67.365489 
" style="fill:none;stroke:#e32f27;stroke-linecap:square;stroke-width:3.6;"/>
   </g>
   <g id="line2d_72">
    <path clip-path="url(#pdde0f47c19)" d="M 93.050022 129.763055 
L 93.050022 51.714711 
" style="fill:none;stroke:#e32f27;stroke-linecap:square;stroke-width:3.6;"/>
   </g>
   <g id="line2d_73">
    <path clip-path="url(#pdde0f47c19)" d="M 104.594849 125.69372 
L 104.594849 43.554892 
" style="fill:none;stroke:#e32f27;stroke-linecap:square;stroke-width:3.6;"/>
   </g>
   <g id="line2d_74">
    <path clip-path="url(#pdde0f47c19)" d="M 116.139677 150.132395 
L 116.139677 44.335826 
" style="fill:none;stroke:#e32f27;stroke-linecap:square;stroke-width:3.6;"/>
   </g>
   <g id="line2d_75">
    <path clip-path="url(#pdde0f47c19)" d="M 127.684504 168.119523 
L 127.684504 124.75561 
" style="fill:none;stroke:#e32f27;stroke-linecap:square;stroke-width:3.6;"/>
   </g>
   <g id="line2d_76">
    <path clip-path="url(#pdde0f47c19)" d="M 139.229332 178.547315 
L 139.229332 137.049028 
" style="fill:none;stroke:#e32f27;stroke-linecap:square;stroke-width:3.6;"/>
   </g>
   <g id="line2d_77">
    <path clip-path="url(#pdde0f47c19)" d="M 150.774159 183.229701 
L 150.774159 145.574262 
" style="fill:none;stroke:#e32f27;stroke-linecap:square;stroke-width:3.6;"/>
   </g>
   <g id="line2d_78">
    <path clip-path="url(#pdde0f47c19)" d="M 162.318987 178.586464 
L 162.318987 139.837652 
" style="fill:none;stroke:#e32f27;stroke-linecap:square;stroke-width:3.6;"/>
   </g>
   <g id="line2d_79">
    <path clip-path="url(#pdde0f47c19)" d="M 173.863815 171.438821 
L 173.863815 122.895815 
" style="fill:none;stroke:#e32f27;stroke-linecap:square;stroke-width:3.6;"/>
   </g>
   <g id="line2d_80">
    <path clip-path="url(#pdde0f47c19)" d="M 185.408642 163.379586 
L 185.408642 107.045477 
" style="fill:none;stroke:#e32f27;stroke-linecap:square;stroke-width:3.6;"/>
   </g>
   <g id="line2d_81">
    <path clip-path="url(#pdde0f47c19)" d="M 196.95347 164.086685 
L 196.95347 103.543893 
" style="fill:none;stroke:#e32f27;stroke-linecap:square;stroke-width:3.6;"/>
   </g>
   <g id="line2d_82">
    <path clip-path="url(#pdde0f47c19)" d="M 208.498297 170.937106 
L 208.498297 105.918583 
" style="fill:none;stroke:#e32f27;stroke-linecap:square;stroke-width:3.6;"/>
   </g>
   <g id="line2d_83">
    <path clip-path="url(#pdde0f47c19)" d="M 220.043125 183.322846 
L 220.043125 130.315949 
" style="fill:none;stroke:#e32f27;stroke-linecap:square;stroke-width:3.6;"/>
   </g>
   <g id="line2d_84">
    <path clip-path="url(#pdde0f47c19)" d="M 231.587953 194.674755 
L 231.587953 147.118439 
" style="fill:none;stroke:#e32f27;stroke-linecap:square;stroke-width:3.6;"/>
   </g>
   <g id="line2d_85">
    <path clip-path="url(#pdde0f47c19)" d="M 243.13278 191.622459 
L 243.13278 143.037907 
" style="fill:none;stroke:#e32f27;stroke-linecap:square;stroke-width:3.6;"/>
   </g>
   <g id="line2d_86">
    <path clip-path="url(#pdde0f47c19)" d="M 254.677608 194.89066 
L 254.677608 153.47738 
" style="fill:none;stroke:#e32f27;stroke-linecap:square;stroke-width:3.6;"/>
   </g>
   <g id="line2d_87">
    <path clip-path="url(#pdde0f47c19)" d="M 266.222435 198.367557 
L 266.222435 159.449971 
" style="fill:none;stroke:#e32f27;stroke-linecap:square;stroke-width:3.6;"/>
   </g>
   <g id="line2d_88">
    <path clip-path="url(#pdde0f47c19)" d="M 277.767263 197.418685 
L 277.767263 153.133538 
" style="fill:none;stroke:#e32f27;stroke-linecap:square;stroke-width:3.6;"/>
   </g>
   <g id="line2d_89">
    <path clip-path="url(#pdde0f47c19)" d="M 289.312091 210.219102 
L 289.312091 169.641934 
" style="fill:none;stroke:#e32f27;stroke-linecap:square;stroke-width:3.6;"/>
   </g>
   <g id="line2d_90">
    <path clip-path="url(#pdde0f47c19)" d="M 300.856918 205.693177 
L 300.856918 163.849029 
" style="fill:none;stroke:#e32f27;stroke-linecap:square;stroke-width:3.6;"/>
   </g>
   <g id="line2d_91">
    <path clip-path="url(#pdde0f47c19)" d="M 312.401746 196.923428 
L 312.401746 142.738463 
" style="fill:none;stroke:#e32f27;stroke-linecap:square;stroke-width:3.6;"/>
   </g>
   <g id="line2d_92">
    <path clip-path="url(#pdde0f47c19)" d="M 323.946573 202.932722 
L 323.946573 142.099396 
" style="fill:none;stroke:#e32f27;stroke-linecap:square;stroke-width:3.6;"/>
   </g>
   <g id="line2d_93">
    <path clip-path="url(#pdde0f47c19)" d="M 335.491401 194.57247 
L 335.491401 131.544372 
" style="fill:none;stroke:#e32f27;stroke-linecap:square;stroke-width:3.6;"/>
   </g>
   <g id="line2d_94">
    <path clip-path="url(#pdde0f47c19)" d="M 347.036228 195.085882 
L 347.036228 118.549488 
" style="fill:none;stroke:#e32f27;stroke-linecap:square;stroke-width:3.6;"/>
   </g>
   <g id="line2d_95">
    <path clip-path="url(#pdde0f47c19)" d="M 358.581056 196.646168 
L 358.581056 137.785486 
" style="fill:none;stroke:#e32f27;stroke-linecap:square;stroke-width:3.6;"/>
   </g>
   <g id="line2d_96">
    <path clip-path="url(#pdde0f47c19)" d="M 370.125884 197.020148 
L 370.125884 142.386058 
" style="fill:none;stroke:#e32f27;stroke-linecap:square;stroke-width:3.6;"/>
   </g>
   <g id="line2d_97">
    <path clip-path="url(#pdde0f47c19)" d="M 381.670711 214.756364 
L 381.670711 169.396608 
" style="fill:none;stroke:#e32f27;stroke-linecap:square;stroke-width:3.6;"/>
   </g>
   <g id="patch_3">
    <path d="M 52.643125 224.64 
L 52.643125 7.2 
" style="fill:none;stroke:#000000;stroke-linecap:square;stroke-linejoin:miter;"/>
   </g>
   <g id="patch_4">
    <path d="M 387.443125 224.64 
L 387.443125 7.2 
" style="fill:none;stroke:#000000;stroke-linecap:square;stroke-linejoin:miter;"/>
   </g>
   <g id="patch_5">
    <path d="M 52.643125 224.64 
L 387.443125 224.64 
" style="fill:none;stroke:#000000;stroke-linecap:square;stroke-linejoin:miter;"/>
   </g>
   <g id="patch_6">
    <path d="M 52.643125 7.2 
L 387.443125 7.2 
" style="fill:none;stroke:#000000;stroke-linecap:square;stroke-linejoin:miter;"/>
   </g>
   <g id="legend_1">
    <g id="patch_7">
     <path d="M 308.382 53.7645 
L 381.283125 53.7645 
Q 383.043125 53.7645 383.043125 52.0045 
L 383.043125 13.36 
Q 383.043125 11.6 381.283125 11.6 
L 308.382 11.6 
Q 306.622 11.6 306.622 13.36 
L 306.622 52.0045 
Q 306.622 53.7645 308.382 53.7645 
z
" style="fill:#ffffff;opacity:0.8;stroke:#cccccc;stroke-linejoin:miter;stroke-width:0.8;"/>
    </g>
    <g id="text_40">
     <!-- Group -->
     <g transform="translate(330.221812 22.4145)scale(0.096 -0.096)">
      <defs>
       <path d="M 3809 666 
L 3809 1919 
L 2778 1919 
L 2778 2438 
L 4434 2438 
L 4434 434 
Q 4069 175 3628 42 
Q 3188 -91 2688 -91 
Q 1594 -91 976 548 
Q 359 1188 359 2328 
Q 359 3472 976 4111 
Q 1594 4750 2688 4750 
Q 3144 4750 3555 4637 
Q 3966 4525 4313 4306 
L 4313 3634 
Q 3963 3931 3569 4081 
Q 3175 4231 2741 4231 
Q 1884 4231 1454 3753 
Q 1025 3275 1025 2328 
Q 1025 1384 1454 906 
Q 1884 428 2741 428 
Q 3075 428 3337 486 
Q 3600 544 3809 666 
z
" id="DejaVuSans-47" transform="scale(0.015625)"/>
       <path d="M 544 1381 
L 544 3500 
L 1119 3500 
L 1119 1403 
Q 1119 906 1312 657 
Q 1506 409 1894 409 
Q 2359 409 2629 706 
Q 2900 1003 2900 1516 
L 2900 3500 
L 3475 3500 
L 3475 0 
L 2900 0 
L 2900 538 
Q 2691 219 2414 64 
Q 2138 -91 1772 -91 
Q 1169 -91 856 284 
Q 544 659 544 1381 
z
M 1991 3584 
L 1991 3584 
z
" id="DejaVuSans-75" transform="scale(0.015625)"/>
      </defs>
      <use xlink:href="#DejaVuSans-47"/>
      <use x="77.490234" xlink:href="#DejaVuSans-72"/>
      <use x="116.353516" xlink:href="#DejaVuSans-6f"/>
      <use x="177.535156" xlink:href="#DejaVuSans-75"/>
      <use x="240.914062" xlink:href="#DejaVuSans-70"/>
     </g>
    </g>
    <g id="PathCollection_3">
     <g>
      <use style="fill:#fca082;stroke:#fca082;stroke-width:2.7;" x="318.942" xlink:href="#mc4353720c6" y="33.187625"/>
     </g>
    </g>
    <g id="text_41">
     <!-- NoReward -->
     <g transform="translate(334.782 35.497625)scale(0.088 -0.088)">
      <defs>
       <path d="M 628 4666 
L 1478 4666 
L 3547 763 
L 3547 4666 
L 4159 4666 
L 4159 0 
L 3309 0 
L 1241 3903 
L 1241 0 
L 628 0 
L 628 4666 
z
" id="DejaVuSans-4e" transform="scale(0.015625)"/>
       <path d="M 2841 2188 
Q 3044 2119 3236 1894 
Q 3428 1669 3622 1275 
L 4263 0 
L 3584 0 
L 2988 1197 
Q 2756 1666 2539 1819 
Q 2322 1972 1947 1972 
L 1259 1972 
L 1259 0 
L 628 0 
L 628 4666 
L 2053 4666 
Q 2853 4666 3247 4331 
Q 3641 3997 3641 3322 
Q 3641 2881 3436 2590 
Q 3231 2300 2841 2188 
z
M 1259 4147 
L 1259 2491 
L 2053 2491 
Q 2509 2491 2742 2702 
Q 2975 2913 2975 3322 
Q 2975 3731 2742 3939 
Q 2509 4147 2053 4147 
L 1259 4147 
z
" id="DejaVuSans-52" transform="scale(0.015625)"/>
       <path d="M 269 3500 
L 844 3500 
L 1563 769 
L 2278 3500 
L 2956 3500 
L 3675 769 
L 4391 3500 
L 4966 3500 
L 4050 0 
L 3372 0 
L 2619 2869 
L 1863 0 
L 1184 0 
L 269 3500 
z
" id="DejaVuSans-77" transform="scale(0.015625)"/>
      </defs>
      <use xlink:href="#DejaVuSans-4e"/>
      <use x="74.804688" xlink:href="#DejaVuSans-6f"/>
      <use x="135.986328" xlink:href="#DejaVuSans-52"/>
      <use x="200.96875" xlink:href="#DejaVuSans-65"/>
      <use x="262.492188" xlink:href="#DejaVuSans-77"/>
      <use x="344.279297" xlink:href="#DejaVuSans-61"/>
      <use x="405.558594" xlink:href="#DejaVuSans-72"/>
      <use x="444.921875" xlink:href="#DejaVuSans-64"/>
     </g>
    </g>
    <g id="PathCollection_4">
     <g>
      <use style="fill:#e32f27;stroke:#e32f27;stroke-width:2.7;" x="318.942" xlink:href="#mc463ee1089" y="46.104375"/>
     </g>
    </g>
    <g id="text_42">
     <!-- Reward -->
     <g transform="translate(334.782 48.414375)scale(0.088 -0.088)">
      <use xlink:href="#DejaVuSans-52"/>
      <use x="64.982422" xlink:href="#DejaVuSans-65"/>
      <use x="126.505859" xlink:href="#DejaVuSans-77"/>
      <use x="208.292969" xlink:href="#DejaVuSans-61"/>
      <use x="269.572266" xlink:href="#DejaVuSans-72"/>
      <use x="308.935547" xlink:href="#DejaVuSans-64"/>
     </g>
    </g>
   </g>
  </g>
 </g>
 <defs>
  <clipPath id="pdde0f47c19">
   <rect height="217.44" width="334.8" x="52.643125" y="7.2"/>
  </clipPath>
 </defs>
</svg>
