<?xml version="1.0" encoding="utf-8" standalone="no"?>
<!DOCTYPE svg PUBLIC "-//W3C//DTD SVG 1.1//EN"
  "http://www.w3.org/Graphics/SVG/1.1/DTD/svg11.dtd">
<svg height="642.031563pt" version="1.1" viewBox="0 0 902.14375 642.031563" width="902.14375pt" xmlns="http://www.w3.org/2000/svg" xmlns:xlink="http://www.w3.org/1999/xlink">
 <metadata>
  <rdf:RDF xmlns:cc="http://creativecommons.org/ns#" xmlns:dc="http://purl.org/dc/elements/1.1/" xmlns:rdf="http://www.w3.org/1999/02/22-rdf-syntax-ns#">
   <cc:Work>
    <dc:type rdf:resource="http://purl.org/dc/dcmitype/StillImage"/>
    <dc:date>2022-06-23T11:02:32.686563</dc:date>
    <dc:format>image/svg+xml</dc:format>
    <dc:creator>
     <cc:Agent>
      <dc:title>Matplotlib v3.4.3, https://matplotlib.org/</dc:title>
     </cc:Agent>
    </dc:creator>
   </cc:Work>
  </rdf:RDF>
 </metadata>
 <defs>
  <style type="text/css">*{stroke-linecap:butt;stroke-linejoin:round;}</style>
 </defs>
 <g id="figure_1">
  <g id="patch_1">
   <path d="M -0 642.031563 
L 902.14375 642.031563 
L 902.14375 0 
L -0 0 
z
" style="fill:none;"/>
  </g>
  <g id="axes_1">
   <g id="patch_2">
    <path d="M 57.94375 588.658125 
L 894.94375 588.658125 
L 894.94375 45.058125 
L 57.94375 45.058125 
z
" style="fill:#ffffff;"/>
   </g>
   <g id="PolyCollection_1">
    <defs>
     <path d="M 328.867674 -93.514916 
L 205.519826 -93.514916 
L 199.464854 -98.350768 
L 193.658144 -103.186621 
L 188.255241 -108.022474 
L 183.409008 -112.858327 
L 179.262311 -117.69418 
L 175.940843 -122.530033 
L 173.546592 -127.365885 
L 172.152428 -132.201738 
L 171.798236 -137.037591 
L 172.488872 -141.873444 
L 174.194106 -146.709297 
L 176.850537 -151.54515 
L 180.365341 -156.381002 
L 184.621524 -161.216855 
L 189.484293 -166.052708 
L 194.80805 -170.888561 
L 200.443522 -175.724414 
L 206.244534 -180.560267 
L 212.074024 -185.396119 
L 217.808963 -190.231972 
L 223.343987 -195.067825 
L 228.593647 -199.903678 
L 233.493308 -204.739531 
L 237.998808 -209.575384 
L 242.085103 -214.411236 
L 245.744112 -219.247089 
L 248.982052 -224.082942 
L 251.816503 -228.918795 
L 254.273453 -233.754648 
L 256.384491 -238.590501 
L 258.184312 -243.426354 
L 259.708607 -248.262206 
L 260.992393 -253.098059 
L 262.068783 -257.933912 
L 262.968159 -262.769765 
L 263.717709 -267.605618 
L 264.341248 -272.441471 
L 264.859277 -277.277323 
L 265.289185 -282.113176 
L 265.645558 -286.949029 
L 265.940534 -291.784882 
L 266.184166 -296.620735 
L 266.384765 -301.456588 
L 266.54921 -306.29244 
L 266.683208 -311.128293 
L 266.791503 -315.964146 
L 266.878046 -320.799999 
L 266.946117 -325.635852 
L 266.998416 -330.471705 
L 267.037124 -335.307557 
L 267.063956 -340.14341 
L 267.080185 -344.979263 
L 267.086675 -349.815116 
L 267.083902 -354.650969 
L 267.071977 -359.486822 
L 267.050677 -364.322675 
L 267.019473 -369.158527 
L 266.977564 -373.99438 
L 266.923917 -378.830233 
L 266.857302 -383.666086 
L 266.776342 -388.501939 
L 266.679551 -393.337792 
L 266.565383 -398.173644 
L 266.43228 -403.009497 
L 266.278721 -407.84535 
L 266.103287 -412.681203 
L 265.90472 -417.517056 
L 265.682011 -422.352909 
L 265.434486 -427.188761 
L 265.161916 -432.024614 
L 264.86463 -436.860467 
L 264.543642 -441.69632 
L 264.200761 -446.532173 
L 263.8387 -451.368026 
L 263.461142 -456.203878 
L 263.072765 -461.039731 
L 262.679214 -465.875584 
L 262.286998 -470.711437 
L 261.903321 -475.54729 
L 261.535851 -480.383143 
L 261.192422 -485.218995 
L 260.880709 -490.054848 
L 260.60789 -494.890701 
L 260.380311 -499.726554 
L 260.203205 -504.562407 
L 260.080465 -509.39826 
L 260.0145 -514.234113 
L 260.006178 -519.069965 
L 260.05486 -523.905818 
L 260.15851 -528.741671 
L 260.31387 -533.577524 
L 260.516676 -538.413377 
L 260.761895 -543.24923 
L 261.043954 -548.085082 
L 261.356962 -552.920935 
L 261.694894 -557.756788 
L 262.051738 -562.592641 
L 262.421616 -567.428494 
L 262.798868 -572.264347 
L 271.588632 -572.264347 
L 271.588632 -572.264347 
L 271.965884 -567.428494 
L 272.335762 -562.592641 
L 272.692606 -557.756788 
L 273.030538 -552.920935 
L 273.343546 -548.085082 
L 273.625605 -543.24923 
L 273.870824 -538.413377 
L 274.07363 -533.577524 
L 274.22899 -528.741671 
L 274.33264 -523.905818 
L 274.381322 -519.069965 
L 274.373 -514.234113 
L 274.307035 -509.39826 
L 274.184295 -504.562407 
L 274.007189 -499.726554 
L 273.77961 -494.890701 
L 273.506791 -490.054848 
L 273.195078 -485.218995 
L 272.851649 -480.383143 
L 272.484179 -475.54729 
L 272.100502 -470.711437 
L 271.708286 -465.875584 
L 271.314735 -461.039731 
L 270.926358 -456.203878 
L 270.5488 -451.368026 
L 270.186739 -446.532173 
L 269.843858 -441.69632 
L 269.52287 -436.860467 
L 269.225584 -432.024614 
L 268.953014 -427.188761 
L 268.705489 -422.352909 
L 268.48278 -417.517056 
L 268.284213 -412.681203 
L 268.108779 -407.84535 
L 267.95522 -403.009497 
L 267.822117 -398.173644 
L 267.707949 -393.337792 
L 267.611158 -388.501939 
L 267.530198 -383.666086 
L 267.463583 -378.830233 
L 267.409936 -373.99438 
L 267.368027 -369.158527 
L 267.336823 -364.322675 
L 267.315523 -359.486822 
L 267.303598 -354.650969 
L 267.300825 -349.815116 
L 267.307315 -344.979263 
L 267.323544 -340.14341 
L 267.350376 -335.307557 
L 267.389084 -330.471705 
L 267.441383 -325.635852 
L 267.509454 -320.799999 
L 267.595997 -315.964146 
L 267.704292 -311.128293 
L 267.83829 -306.29244 
L 268.002735 -301.456588 
L 268.203334 -296.620735 
L 268.446966 -291.784882 
L 268.741942 -286.949029 
L 269.098315 -282.113176 
L 269.528223 -277.277323 
L 270.046252 -272.441471 
L 270.669791 -267.605618 
L 271.419341 -262.769765 
L 272.318717 -257.933912 
L 273.395107 -253.098059 
L 274.678893 -248.262206 
L 276.203188 -243.426354 
L 278.003009 -238.590501 
L 280.114047 -233.754648 
L 282.570997 -228.918795 
L 285.405448 -224.082942 
L 288.643388 -219.247089 
L 292.302397 -214.411236 
L 296.388692 -209.575384 
L 300.894192 -204.739531 
L 305.793853 -199.903678 
L 311.043513 -195.067825 
L 316.578537 -190.231972 
L 322.313476 -185.396119 
L 328.142966 -180.560267 
L 333.943978 -175.724414 
L 339.57945 -170.888561 
L 344.903207 -166.052708 
L 349.765976 -161.216855 
L 354.022159 -156.381002 
L 357.536963 -151.54515 
L 360.193394 -146.709297 
L 361.898628 -141.873444 
L 362.589264 -137.037591 
L 362.235072 -132.201738 
L 360.840908 -127.365885 
L 358.446657 -122.530033 
L 355.125189 -117.69418 
L 350.978492 -112.858327 
L 346.132259 -108.022474 
L 340.729356 -103.186621 
L 334.922646 -98.350768 
L 328.867674 -93.514916 
z
" id="m638dc144b8" style="stroke:#303030;stroke-width:2;"/>
    </defs>
    <g clip-path="url(#pa0ca46e398)">
     <use style="fill:#692c75;stroke:#303030;stroke-width:2;" x="0" xlink:href="#m638dc144b8" y="642.031563"/>
    </g>
   </g>
   <g id="PolyCollection_2">
    <defs>
     <path d="M 711.032984 -78.082528 
L 660.354516 -78.082528 
L 656.237116 -79.509321 
L 651.788371 -80.936114 
L 647.056613 -82.362907 
L 642.104713 -83.789699 
L 637.007447 -85.216492 
L 631.847482 -86.643285 
L 626.710233 -88.070078 
L 621.678018 -89.49687 
L 616.824078 -90.923663 
L 612.207105 -92.350456 
L 607.866885 -93.777249 
L 603.821573 -95.204041 
L 600.066931 -96.630834 
L 596.57762 -98.057627 
L 593.310392 -99.48442 
L 590.208782 -100.911212 
L 587.208746 -102.338005 
L 584.244586 -103.764798 
L 581.254519 -105.191591 
L 578.185335 -106.618383 
L 574.995784 -108.045176 
L 571.658525 -109.471969 
L 568.160696 -110.898762 
L 564.503349 -112.325554 
L 560.700126 -113.752347 
L 556.775574 -115.17914 
L 552.763481 -116.605933 
L 548.705495 -118.032725 
L 544.650155 -119.459518 
L 540.652274 -120.886311 
L 536.772514 -122.313104 
L 533.076867 -123.739896 
L 529.635745 -125.166689 
L 526.522447 -126.593482 
L 523.810852 -128.020275 
L 521.572348 -129.447067 
L 519.872181 -130.87386 
L 518.765535 -132.300653 
L 518.29375 -133.727446 
L 518.481126 -135.154238 
L 519.332707 -136.581031 
L 520.833343 -138.007824 
L 522.948173 -139.434617 
L 525.624509 -140.861409 
L 528.794938 -142.288202 
L 532.381328 -143.714995 
L 536.299376 -145.141788 
L 540.463288 -146.56858 
L 544.790232 -147.995373 
L 549.204259 -149.422166 
L 553.639487 -150.848959 
L 558.042411 -152.275752 
L 562.373282 -153.702544 
L 566.606559 -155.129337 
L 570.730468 -156.55613 
L 574.745747 -157.982923 
L 578.663673 -159.409715 
L 582.503518 -160.836508 
L 586.289597 -162.263301 
L 590.048146 -163.690094 
L 593.804259 -165.116886 
L 597.579147 -166.543679 
L 601.387968 -167.970472 
L 605.238388 -169.397265 
L 609.130017 -170.824057 
L 613.054689 -172.25085 
L 616.997515 -173.677643 
L 620.93851 -175.104436 
L 624.854538 -176.531228 
L 628.721308 -177.958021 
L 632.51516 -179.384814 
L 636.21443 -180.811607 
L 639.800302 -182.238399 
L 643.2571 -183.665192 
L 646.572111 -185.091985 
L 649.735065 -186.518778 
L 652.737475 -187.94557 
L 655.57199 -189.372363 
L 658.231941 -190.799156 
L 660.711166 -192.225949 
L 663.004153 -193.652741 
L 665.106452 -195.079534 
L 667.01528 -196.506327 
L 668.730198 -197.93312 
L 670.253712 -199.359912 
L 671.591717 -200.786705 
L 672.753676 -202.213498 
L 673.752521 -203.640291 
L 674.604271 -205.067083 
L 675.327419 -206.493876 
L 675.942149 -207.920669 
L 676.469458 -209.347462 
L 676.93026 -210.774254 
L 677.344527 -212.201047 
L 677.730521 -213.62784 
L 678.104145 -215.054633 
L 678.478436 -216.481425 
L 678.863223 -217.908218 
L 679.264959 -219.335011 
L 692.122541 -219.335011 
L 692.122541 -219.335011 
L 692.524277 -217.908218 
L 692.909064 -216.481425 
L 693.283355 -215.054633 
L 693.656979 -213.62784 
L 694.042973 -212.201047 
L 694.45724 -210.774254 
L 694.918042 -209.347462 
L 695.445351 -207.920669 
L 696.060081 -206.493876 
L 696.783229 -205.067083 
L 697.634979 -203.640291 
L 698.633824 -202.213498 
L 699.795783 -200.786705 
L 701.133788 -199.359912 
L 702.657302 -197.93312 
L 704.37222 -196.506327 
L 706.281048 -195.079534 
L 708.383347 -193.652741 
L 710.676334 -192.225949 
L 713.155559 -190.799156 
L 715.81551 -189.372363 
L 718.650025 -187.94557 
L 721.652435 -186.518778 
L 724.815389 -185.091985 
L 728.1304 -183.665192 
L 731.587198 -182.238399 
L 735.17307 -180.811607 
L 738.87234 -179.384814 
L 742.666192 -177.958021 
L 746.532962 -176.531228 
L 750.44899 -175.104436 
L 754.389985 -173.677643 
L 758.332811 -172.25085 
L 762.257483 -170.824057 
L 766.149112 -169.397265 
L 769.999532 -167.970472 
L 773.808353 -166.543679 
L 777.583241 -165.116886 
L 781.339354 -163.690094 
L 785.097903 -162.263301 
L 788.883982 -160.836508 
L 792.723827 -159.409715 
L 796.641753 -157.982923 
L 800.657032 -156.55613 
L 804.780941 -155.129337 
L 809.014218 -153.702544 
L 813.345089 -152.275752 
L 817.748013 -150.848959 
L 822.183241 -149.422166 
L 826.597268 -147.995373 
L 830.924212 -146.56858 
L 835.088124 -145.141788 
L 839.006172 -143.714995 
L 842.592562 -142.288202 
L 845.762991 -140.861409 
L 848.439327 -139.434617 
L 850.554157 -138.007824 
L 852.054793 -136.581031 
L 852.906374 -135.154238 
L 853.09375 -133.727446 
L 852.621965 -132.300653 
L 851.515319 -130.87386 
L 849.815152 -129.447067 
L 847.576648 -128.020275 
L 844.865053 -126.593482 
L 841.751755 -125.166689 
L 838.310633 -123.739896 
L 834.614986 -122.313104 
L 830.735226 -120.886311 
L 826.737345 -119.459518 
L 822.682005 -118.032725 
L 818.624019 -116.605933 
L 814.611926 -115.17914 
L 810.687374 -113.752347 
L 806.884151 -112.325554 
L 803.226804 -110.898762 
L 799.728975 -109.471969 
L 796.391716 -108.045176 
L 793.202165 -106.618383 
L 790.132981 -105.191591 
L 787.142914 -103.764798 
L 784.178754 -102.338005 
L 781.178718 -100.911212 
L 778.077108 -99.48442 
L 774.80988 -98.057627 
L 771.320569 -96.630834 
L 767.565927 -95.204041 
L 763.520615 -93.777249 
L 759.180395 -92.350456 
L 754.563422 -90.923663 
L 749.709482 -89.49687 
L 744.677267 -88.070078 
L 739.540018 -86.643285 
L 734.380053 -85.216492 
L 729.282787 -83.789699 
L 724.330887 -82.362907 
L 719.599129 -80.936114 
L 715.150384 -79.509321 
L 711.032984 -78.082528 
z
" id="m1014974812" style="stroke:#303030;stroke-width:2;"/>
    </defs>
    <g clip-path="url(#p53baf382e2)">
     <use style="fill:#de7270;stroke:#303030;stroke-width:2;" x="0" xlink:href="#m1014974812" y="642.031563"/>
    </g>
   </g>
   <g id="PathCollection_1"/>
   <g id="PathCollection_2"/>
   <g id="PathCollection_3"/>
   <g id="PathCollection_4"/>
   <g id="PathCollection_5"/>
   <g id="PathCollection_6"/>
   <g id="PathCollection_7"/>
   <g id="PathCollection_8"/>
   <g id="PathCollection_9"/>
   <g id="PathCollection_10"/>
   <g id="PathCollection_11"/>
   <g id="PathCollection_12"/>
   <g id="PathCollection_13"/>
   <g id="PathCollection_14"/>
   <g id="PathCollection_15"/>
   <g id="PathCollection_16"/>
   <g id="PathCollection_17"/>
   <g id="PathCollection_18"/>
   <g id="PathCollection_19"/>
   <g id="PathCollection_20"/>
   <g id="PathCollection_21"/>
   <g id="PathCollection_22"/>
   <g id="matplotlib.axis_1">
    <g id="xtick_1">
     <g id="line2d_1">
      <defs>
       <path d="M 0 0 
L 0 4.8 
" id="mc147fc8ae9" style="stroke:#000000;"/>
      </defs>
      <g>
       <use style="stroke:#000000;" x="267.19375" xlink:href="#mc147fc8ae9" y="588.658125"/>
      </g>
     </g>
     <g id="text_1">
      <!-- NoReward -->
      <g transform="translate(229.062109 608.355781)scale(0.15 -0.15)">
       <defs>
        <path d="M 628 4666 
L 1478 4666 
L 3547 763 
L 3547 4666 
L 4159 4666 
L 4159 0 
L 3309 0 
L 1241 3903 
L 1241 0 
L 628 0 
L 628 4666 
z
" id="DejaVuSans-4e" transform="scale(0.015625)"/>
        <path d="M 1959 3097 
Q 1497 3097 1228 2736 
Q 959 2375 959 1747 
Q 959 1119 1226 758 
Q 1494 397 1959 397 
Q 2419 397 2687 759 
Q 2956 1122 2956 1747 
Q 2956 2369 2687 2733 
Q 2419 3097 1959 3097 
z
M 1959 3584 
Q 2709 3584 3137 3096 
Q 3566 2609 3566 1747 
Q 3566 888 3137 398 
Q 2709 -91 1959 -91 
Q 1206 -91 779 398 
Q 353 888 353 1747 
Q 353 2609 779 3096 
Q 1206 3584 1959 3584 
z
" id="DejaVuSans-6f" transform="scale(0.015625)"/>
        <path d="M 2841 2188 
Q 3044 2119 3236 1894 
Q 3428 1669 3622 1275 
L 4263 0 
L 3584 0 
L 2988 1197 
Q 2756 1666 2539 1819 
Q 2322 1972 1947 1972 
L 1259 1972 
L 1259 0 
L 628 0 
L 628 4666 
L 2053 4666 
Q 2853 4666 3247 4331 
Q 3641 3997 3641 3322 
Q 3641 2881 3436 2590 
Q 3231 2300 2841 2188 
z
M 1259 4147 
L 1259 2491 
L 2053 2491 
Q 2509 2491 2742 2702 
Q 2975 2913 2975 3322 
Q 2975 3731 2742 3939 
Q 2509 4147 2053 4147 
L 1259 4147 
z
" id="DejaVuSans-52" transform="scale(0.015625)"/>
        <path d="M 3597 1894 
L 3597 1613 
L 953 1613 
Q 991 1019 1311 708 
Q 1631 397 2203 397 
Q 2534 397 2845 478 
Q 3156 559 3463 722 
L 3463 178 
Q 3153 47 2828 -22 
Q 2503 -91 2169 -91 
Q 1331 -91 842 396 
Q 353 884 353 1716 
Q 353 2575 817 3079 
Q 1281 3584 2069 3584 
Q 2775 3584 3186 3129 
Q 3597 2675 3597 1894 
z
M 3022 2063 
Q 3016 2534 2758 2815 
Q 2500 3097 2075 3097 
Q 1594 3097 1305 2825 
Q 1016 2553 972 2059 
L 3022 2063 
z
" id="DejaVuSans-65" transform="scale(0.015625)"/>
        <path d="M 269 3500 
L 844 3500 
L 1563 769 
L 2278 3500 
L 2956 3500 
L 3675 769 
L 4391 3500 
L 4966 3500 
L 4050 0 
L 3372 0 
L 2619 2869 
L 1863 0 
L 1184 0 
L 269 3500 
z
" id="DejaVuSans-77" transform="scale(0.015625)"/>
        <path d="M 2194 1759 
Q 1497 1759 1228 1600 
Q 959 1441 959 1056 
Q 959 750 1161 570 
Q 1363 391 1709 391 
Q 2188 391 2477 730 
Q 2766 1069 2766 1631 
L 2766 1759 
L 2194 1759 
z
M 3341 1997 
L 3341 0 
L 2766 0 
L 2766 531 
Q 2569 213 2275 61 
Q 1981 -91 1556 -91 
Q 1019 -91 701 211 
Q 384 513 384 1019 
Q 384 1609 779 1909 
Q 1175 2209 1959 2209 
L 2766 2209 
L 2766 2266 
Q 2766 2663 2505 2880 
Q 2244 3097 1772 3097 
Q 1472 3097 1187 3025 
Q 903 2953 641 2809 
L 641 3341 
Q 956 3463 1253 3523 
Q 1550 3584 1831 3584 
Q 2591 3584 2966 3190 
Q 3341 2797 3341 1997 
z
" id="DejaVuSans-61" transform="scale(0.015625)"/>
        <path d="M 2631 2963 
Q 2534 3019 2420 3045 
Q 2306 3072 2169 3072 
Q 1681 3072 1420 2755 
Q 1159 2438 1159 1844 
L 1159 0 
L 581 0 
L 581 3500 
L 1159 3500 
L 1159 2956 
Q 1341 3275 1631 3429 
Q 1922 3584 2338 3584 
Q 2397 3584 2469 3576 
Q 2541 3569 2628 3553 
L 2631 2963 
z
" id="DejaVuSans-72" transform="scale(0.015625)"/>
        <path d="M 2906 2969 
L 2906 4863 
L 3481 4863 
L 3481 0 
L 2906 0 
L 2906 525 
Q 2725 213 2448 61 
Q 2172 -91 1784 -91 
Q 1150 -91 751 415 
Q 353 922 353 1747 
Q 353 2572 751 3078 
Q 1150 3584 1784 3584 
Q 2172 3584 2448 3432 
Q 2725 3281 2906 2969 
z
M 947 1747 
Q 947 1113 1208 752 
Q 1469 391 1925 391 
Q 2381 391 2643 752 
Q 2906 1113 2906 1747 
Q 2906 2381 2643 2742 
Q 2381 3103 1925 3103 
Q 1469 3103 1208 2742 
Q 947 2381 947 1747 
z
" id="DejaVuSans-64" transform="scale(0.015625)"/>
       </defs>
       <use xlink:href="#DejaVuSans-4e"/>
       <use x="74.804688" xlink:href="#DejaVuSans-6f"/>
       <use x="135.986328" xlink:href="#DejaVuSans-52"/>
       <use x="200.96875" xlink:href="#DejaVuSans-65"/>
       <use x="262.492188" xlink:href="#DejaVuSans-77"/>
       <use x="344.279297" xlink:href="#DejaVuSans-61"/>
       <use x="405.558594" xlink:href="#DejaVuSans-72"/>
       <use x="444.921875" xlink:href="#DejaVuSans-64"/>
      </g>
     </g>
    </g>
    <g id="xtick_2">
     <g id="line2d_2">
      <g>
       <use style="stroke:#000000;" x="685.69375" xlink:href="#mc147fc8ae9" y="588.658125"/>
      </g>
     </g>
     <g id="text_2">
      <!-- Reward -->
      <g transform="translate(657.762109 608.355781)scale(0.15 -0.15)">
       <use xlink:href="#DejaVuSans-52"/>
       <use x="64.982422" xlink:href="#DejaVuSans-65"/>
       <use x="126.505859" xlink:href="#DejaVuSans-77"/>
       <use x="208.292969" xlink:href="#DejaVuSans-61"/>
       <use x="269.572266" xlink:href="#DejaVuSans-72"/>
       <use x="308.935547" xlink:href="#DejaVuSans-64"/>
      </g>
     </g>
    </g>
    <g id="text_3">
     <!-- Group -->
     <g transform="translate(446.004688 630.672188)scale(0.2 -0.2)">
      <defs>
       <path d="M 3809 666 
L 3809 1919 
L 2778 1919 
L 2778 2438 
L 4434 2438 
L 4434 434 
Q 4069 175 3628 42 
Q 3188 -91 2688 -91 
Q 1594 -91 976 548 
Q 359 1188 359 2328 
Q 359 3472 976 4111 
Q 1594 4750 2688 4750 
Q 3144 4750 3555 4637 
Q 3966 4525 4313 4306 
L 4313 3634 
Q 3963 3931 3569 4081 
Q 3175 4231 2741 4231 
Q 1884 4231 1454 3753 
Q 1025 3275 1025 2328 
Q 1025 1384 1454 906 
Q 1884 428 2741 428 
Q 3075 428 3337 486 
Q 3600 544 3809 666 
z
" id="DejaVuSans-47" transform="scale(0.015625)"/>
       <path d="M 544 1381 
L 544 3500 
L 1119 3500 
L 1119 1403 
Q 1119 906 1312 657 
Q 1506 409 1894 409 
Q 2359 409 2629 706 
Q 2900 1003 2900 1516 
L 2900 3500 
L 3475 3500 
L 3475 0 
L 2900 0 
L 2900 538 
Q 2691 219 2414 64 
Q 2138 -91 1772 -91 
Q 1169 -91 856 284 
Q 544 659 544 1381 
z
M 1991 3584 
L 1991 3584 
z
" id="DejaVuSans-75" transform="scale(0.015625)"/>
       <path d="M 1159 525 
L 1159 -1331 
L 581 -1331 
L 581 3500 
L 1159 3500 
L 1159 2969 
Q 1341 3281 1617 3432 
Q 1894 3584 2278 3584 
Q 2916 3584 3314 3078 
Q 3713 2572 3713 1747 
Q 3713 922 3314 415 
Q 2916 -91 2278 -91 
Q 1894 -91 1617 61 
Q 1341 213 1159 525 
z
M 3116 1747 
Q 3116 2381 2855 2742 
Q 2594 3103 2138 3103 
Q 1681 3103 1420 2742 
Q 1159 2381 1159 1747 
Q 1159 1113 1420 752 
Q 1681 391 2138 391 
Q 2594 391 2855 752 
Q 3116 1113 3116 1747 
z
" id="DejaVuSans-70" transform="scale(0.015625)"/>
      </defs>
      <use xlink:href="#DejaVuSans-47"/>
      <use x="77.490234" xlink:href="#DejaVuSans-72"/>
      <use x="116.353516" xlink:href="#DejaVuSans-6f"/>
      <use x="177.535156" xlink:href="#DejaVuSans-75"/>
      <use x="240.914062" xlink:href="#DejaVuSans-70"/>
     </g>
    </g>
   </g>
   <g id="matplotlib.axis_2">
    <g id="ytick_1">
     <g id="line2d_3">
      <defs>
       <path d="M 0 0 
L -4.8 0 
" id="m5f5cacb7a2" style="stroke:#000000;"/>
      </defs>
      <g>
       <use style="stroke:#000000;" x="57.94375" xlink:href="#m5f5cacb7a2" y="539.732035"/>
      </g>
     </g>
     <g id="text_4">
      <!-- 10 -->
      <g transform="translate(30.55625 545.430863)scale(0.15 -0.15)">
       <defs>
        <path d="M 794 531 
L 1825 531 
L 1825 4091 
L 703 3866 
L 703 4441 
L 1819 4666 
L 2450 4666 
L 2450 531 
L 3481 531 
L 3481 0 
L 794 0 
L 794 531 
z
" id="DejaVuSans-31" transform="scale(0.015625)"/>
        <path d="M 2034 4250 
Q 1547 4250 1301 3770 
Q 1056 3291 1056 2328 
Q 1056 1369 1301 889 
Q 1547 409 2034 409 
Q 2525 409 2770 889 
Q 3016 1369 3016 2328 
Q 3016 3291 2770 3770 
Q 2525 4250 2034 4250 
z
M 2034 4750 
Q 2819 4750 3233 4129 
Q 3647 3509 3647 2328 
Q 3647 1150 3233 529 
Q 2819 -91 2034 -91 
Q 1250 -91 836 529 
Q 422 1150 422 2328 
Q 422 3509 836 4129 
Q 1250 4750 2034 4750 
z
" id="DejaVuSans-30" transform="scale(0.015625)"/>
       </defs>
       <use xlink:href="#DejaVuSans-31"/>
       <use x="63.623047" xlink:href="#DejaVuSans-30"/>
      </g>
     </g>
    </g>
    <g id="ytick_2">
     <g id="line2d_4">
      <g>
       <use style="stroke:#000000;" x="57.94375" xlink:href="#m5f5cacb7a2" y="468.933374"/>
      </g>
     </g>
     <g id="text_5">
      <!-- 20 -->
      <g transform="translate(30.55625 474.632202)scale(0.15 -0.15)">
       <defs>
        <path d="M 1228 531 
L 3431 531 
L 3431 0 
L 469 0 
L 469 531 
Q 828 903 1448 1529 
Q 2069 2156 2228 2338 
Q 2531 2678 2651 2914 
Q 2772 3150 2772 3378 
Q 2772 3750 2511 3984 
Q 2250 4219 1831 4219 
Q 1534 4219 1204 4116 
Q 875 4013 500 3803 
L 500 4441 
Q 881 4594 1212 4672 
Q 1544 4750 1819 4750 
Q 2544 4750 2975 4387 
Q 3406 4025 3406 3419 
Q 3406 3131 3298 2873 
Q 3191 2616 2906 2266 
Q 2828 2175 2409 1742 
Q 1991 1309 1228 531 
z
" id="DejaVuSans-32" transform="scale(0.015625)"/>
       </defs>
       <use xlink:href="#DejaVuSans-32"/>
       <use x="63.623047" xlink:href="#DejaVuSans-30"/>
      </g>
     </g>
    </g>
    <g id="ytick_3">
     <g id="line2d_5">
      <g>
       <use style="stroke:#000000;" x="57.94375" xlink:href="#m5f5cacb7a2" y="398.134712"/>
      </g>
     </g>
     <g id="text_6">
      <!-- 30 -->
      <g transform="translate(30.55625 403.83354)scale(0.15 -0.15)">
       <defs>
        <path d="M 2597 2516 
Q 3050 2419 3304 2112 
Q 3559 1806 3559 1356 
Q 3559 666 3084 287 
Q 2609 -91 1734 -91 
Q 1441 -91 1130 -33 
Q 819 25 488 141 
L 488 750 
Q 750 597 1062 519 
Q 1375 441 1716 441 
Q 2309 441 2620 675 
Q 2931 909 2931 1356 
Q 2931 1769 2642 2001 
Q 2353 2234 1838 2234 
L 1294 2234 
L 1294 2753 
L 1863 2753 
Q 2328 2753 2575 2939 
Q 2822 3125 2822 3475 
Q 2822 3834 2567 4026 
Q 2313 4219 1838 4219 
Q 1578 4219 1281 4162 
Q 984 4106 628 3988 
L 628 4550 
Q 988 4650 1302 4700 
Q 1616 4750 1894 4750 
Q 2613 4750 3031 4423 
Q 3450 4097 3450 3541 
Q 3450 3153 3228 2886 
Q 3006 2619 2597 2516 
z
" id="DejaVuSans-33" transform="scale(0.015625)"/>
       </defs>
       <use xlink:href="#DejaVuSans-33"/>
       <use x="63.623047" xlink:href="#DejaVuSans-30"/>
      </g>
     </g>
    </g>
    <g id="ytick_4">
     <g id="line2d_6">
      <g>
       <use style="stroke:#000000;" x="57.94375" xlink:href="#m5f5cacb7a2" y="327.336051"/>
      </g>
     </g>
     <g id="text_7">
      <!-- 40 -->
      <g transform="translate(30.55625 333.034879)scale(0.15 -0.15)">
       <defs>
        <path d="M 2419 4116 
L 825 1625 
L 2419 1625 
L 2419 4116 
z
M 2253 4666 
L 3047 4666 
L 3047 1625 
L 3713 1625 
L 3713 1100 
L 3047 1100 
L 3047 0 
L 2419 0 
L 2419 1100 
L 313 1100 
L 313 1709 
L 2253 4666 
z
" id="DejaVuSans-34" transform="scale(0.015625)"/>
       </defs>
       <use xlink:href="#DejaVuSans-34"/>
       <use x="63.623047" xlink:href="#DejaVuSans-30"/>
      </g>
     </g>
    </g>
    <g id="ytick_5">
     <g id="line2d_7">
      <g>
       <use style="stroke:#000000;" x="57.94375" xlink:href="#m5f5cacb7a2" y="256.53739"/>
      </g>
     </g>
     <g id="text_8">
      <!-- 50 -->
      <g transform="translate(30.55625 262.236218)scale(0.15 -0.15)">
       <defs>
        <path d="M 691 4666 
L 3169 4666 
L 3169 4134 
L 1269 4134 
L 1269 2991 
Q 1406 3038 1543 3061 
Q 1681 3084 1819 3084 
Q 2600 3084 3056 2656 
Q 3513 2228 3513 1497 
Q 3513 744 3044 326 
Q 2575 -91 1722 -91 
Q 1428 -91 1123 -41 
Q 819 9 494 109 
L 494 744 
Q 775 591 1075 516 
Q 1375 441 1709 441 
Q 2250 441 2565 725 
Q 2881 1009 2881 1497 
Q 2881 1984 2565 2268 
Q 2250 2553 1709 2553 
Q 1456 2553 1204 2497 
Q 953 2441 691 2322 
L 691 4666 
z
" id="DejaVuSans-35" transform="scale(0.015625)"/>
       </defs>
       <use xlink:href="#DejaVuSans-35"/>
       <use x="63.623047" xlink:href="#DejaVuSans-30"/>
      </g>
     </g>
    </g>
    <g id="ytick_6">
     <g id="line2d_8">
      <g>
       <use style="stroke:#000000;" x="57.94375" xlink:href="#m5f5cacb7a2" y="185.738728"/>
      </g>
     </g>
     <g id="text_9">
      <!-- 60 -->
      <g transform="translate(30.55625 191.437556)scale(0.15 -0.15)">
       <defs>
        <path d="M 2113 2584 
Q 1688 2584 1439 2293 
Q 1191 2003 1191 1497 
Q 1191 994 1439 701 
Q 1688 409 2113 409 
Q 2538 409 2786 701 
Q 3034 994 3034 1497 
Q 3034 2003 2786 2293 
Q 2538 2584 2113 2584 
z
M 3366 4563 
L 3366 3988 
Q 3128 4100 2886 4159 
Q 2644 4219 2406 4219 
Q 1781 4219 1451 3797 
Q 1122 3375 1075 2522 
Q 1259 2794 1537 2939 
Q 1816 3084 2150 3084 
Q 2853 3084 3261 2657 
Q 3669 2231 3669 1497 
Q 3669 778 3244 343 
Q 2819 -91 2113 -91 
Q 1303 -91 875 529 
Q 447 1150 447 2328 
Q 447 3434 972 4092 
Q 1497 4750 2381 4750 
Q 2619 4750 2861 4703 
Q 3103 4656 3366 4563 
z
" id="DejaVuSans-36" transform="scale(0.015625)"/>
       </defs>
       <use xlink:href="#DejaVuSans-36"/>
       <use x="63.623047" xlink:href="#DejaVuSans-30"/>
      </g>
     </g>
    </g>
    <g id="ytick_7">
     <g id="line2d_9">
      <g>
       <use style="stroke:#000000;" x="57.94375" xlink:href="#m5f5cacb7a2" y="114.940067"/>
      </g>
     </g>
     <g id="text_10">
      <!-- 70 -->
      <g transform="translate(30.55625 120.638895)scale(0.15 -0.15)">
       <defs>
        <path d="M 525 4666 
L 3525 4666 
L 3525 4397 
L 1831 0 
L 1172 0 
L 2766 4134 
L 525 4134 
L 525 4666 
z
" id="DejaVuSans-37" transform="scale(0.015625)"/>
       </defs>
       <use xlink:href="#DejaVuSans-37"/>
       <use x="63.623047" xlink:href="#DejaVuSans-30"/>
      </g>
     </g>
    </g>
    <g id="text_11">
     <!-- MeanAbsErr (Degrees) -->
     <g transform="translate(22.396875 429.453438)rotate(-90)scale(0.2 -0.2)">
      <defs>
       <path d="M 628 4666 
L 1569 4666 
L 2759 1491 
L 3956 4666 
L 4897 4666 
L 4897 0 
L 4281 0 
L 4281 4097 
L 3078 897 
L 2444 897 
L 1241 4097 
L 1241 0 
L 628 0 
L 628 4666 
z
" id="DejaVuSans-4d" transform="scale(0.015625)"/>
       <path d="M 3513 2113 
L 3513 0 
L 2938 0 
L 2938 2094 
Q 2938 2591 2744 2837 
Q 2550 3084 2163 3084 
Q 1697 3084 1428 2787 
Q 1159 2491 1159 1978 
L 1159 0 
L 581 0 
L 581 3500 
L 1159 3500 
L 1159 2956 
Q 1366 3272 1645 3428 
Q 1925 3584 2291 3584 
Q 2894 3584 3203 3211 
Q 3513 2838 3513 2113 
z
" id="DejaVuSans-6e" transform="scale(0.015625)"/>
       <path d="M 2188 4044 
L 1331 1722 
L 3047 1722 
L 2188 4044 
z
M 1831 4666 
L 2547 4666 
L 4325 0 
L 3669 0 
L 3244 1197 
L 1141 1197 
L 716 0 
L 50 0 
L 1831 4666 
z
" id="DejaVuSans-41" transform="scale(0.015625)"/>
       <path d="M 3116 1747 
Q 3116 2381 2855 2742 
Q 2594 3103 2138 3103 
Q 1681 3103 1420 2742 
Q 1159 2381 1159 1747 
Q 1159 1113 1420 752 
Q 1681 391 2138 391 
Q 2594 391 2855 752 
Q 3116 1113 3116 1747 
z
M 1159 2969 
Q 1341 3281 1617 3432 
Q 1894 3584 2278 3584 
Q 2916 3584 3314 3078 
Q 3713 2572 3713 1747 
Q 3713 922 3314 415 
Q 2916 -91 2278 -91 
Q 1894 -91 1617 61 
Q 1341 213 1159 525 
L 1159 0 
L 581 0 
L 581 4863 
L 1159 4863 
L 1159 2969 
z
" id="DejaVuSans-62" transform="scale(0.015625)"/>
       <path d="M 2834 3397 
L 2834 2853 
Q 2591 2978 2328 3040 
Q 2066 3103 1784 3103 
Q 1356 3103 1142 2972 
Q 928 2841 928 2578 
Q 928 2378 1081 2264 
Q 1234 2150 1697 2047 
L 1894 2003 
Q 2506 1872 2764 1633 
Q 3022 1394 3022 966 
Q 3022 478 2636 193 
Q 2250 -91 1575 -91 
Q 1294 -91 989 -36 
Q 684 19 347 128 
L 347 722 
Q 666 556 975 473 
Q 1284 391 1588 391 
Q 1994 391 2212 530 
Q 2431 669 2431 922 
Q 2431 1156 2273 1281 
Q 2116 1406 1581 1522 
L 1381 1569 
Q 847 1681 609 1914 
Q 372 2147 372 2553 
Q 372 3047 722 3315 
Q 1072 3584 1716 3584 
Q 2034 3584 2315 3537 
Q 2597 3491 2834 3397 
z
" id="DejaVuSans-73" transform="scale(0.015625)"/>
       <path d="M 628 4666 
L 3578 4666 
L 3578 4134 
L 1259 4134 
L 1259 2753 
L 3481 2753 
L 3481 2222 
L 1259 2222 
L 1259 531 
L 3634 531 
L 3634 0 
L 628 0 
L 628 4666 
z
" id="DejaVuSans-45" transform="scale(0.015625)"/>
       <path id="DejaVuSans-20" transform="scale(0.015625)"/>
       <path d="M 1984 4856 
Q 1566 4138 1362 3434 
Q 1159 2731 1159 2009 
Q 1159 1288 1364 580 
Q 1569 -128 1984 -844 
L 1484 -844 
Q 1016 -109 783 600 
Q 550 1309 550 2009 
Q 550 2706 781 3412 
Q 1013 4119 1484 4856 
L 1984 4856 
z
" id="DejaVuSans-28" transform="scale(0.015625)"/>
       <path d="M 1259 4147 
L 1259 519 
L 2022 519 
Q 2988 519 3436 956 
Q 3884 1394 3884 2338 
Q 3884 3275 3436 3711 
Q 2988 4147 2022 4147 
L 1259 4147 
z
M 628 4666 
L 1925 4666 
Q 3281 4666 3915 4102 
Q 4550 3538 4550 2338 
Q 4550 1131 3912 565 
Q 3275 0 1925 0 
L 628 0 
L 628 4666 
z
" id="DejaVuSans-44" transform="scale(0.015625)"/>
       <path d="M 2906 1791 
Q 2906 2416 2648 2759 
Q 2391 3103 1925 3103 
Q 1463 3103 1205 2759 
Q 947 2416 947 1791 
Q 947 1169 1205 825 
Q 1463 481 1925 481 
Q 2391 481 2648 825 
Q 2906 1169 2906 1791 
z
M 3481 434 
Q 3481 -459 3084 -895 
Q 2688 -1331 1869 -1331 
Q 1566 -1331 1297 -1286 
Q 1028 -1241 775 -1147 
L 775 -588 
Q 1028 -725 1275 -790 
Q 1522 -856 1778 -856 
Q 2344 -856 2625 -561 
Q 2906 -266 2906 331 
L 2906 616 
Q 2728 306 2450 153 
Q 2172 0 1784 0 
Q 1141 0 747 490 
Q 353 981 353 1791 
Q 353 2603 747 3093 
Q 1141 3584 1784 3584 
Q 2172 3584 2450 3431 
Q 2728 3278 2906 2969 
L 2906 3500 
L 3481 3500 
L 3481 434 
z
" id="DejaVuSans-67" transform="scale(0.015625)"/>
       <path d="M 513 4856 
L 1013 4856 
Q 1481 4119 1714 3412 
Q 1947 2706 1947 2009 
Q 1947 1309 1714 600 
Q 1481 -109 1013 -844 
L 513 -844 
Q 928 -128 1133 580 
Q 1338 1288 1338 2009 
Q 1338 2731 1133 3434 
Q 928 4138 513 4856 
z
" id="DejaVuSans-29" transform="scale(0.015625)"/>
      </defs>
      <use xlink:href="#DejaVuSans-4d"/>
      <use x="86.279297" xlink:href="#DejaVuSans-65"/>
      <use x="147.802734" xlink:href="#DejaVuSans-61"/>
      <use x="209.082031" xlink:href="#DejaVuSans-6e"/>
      <use x="272.460938" xlink:href="#DejaVuSans-41"/>
      <use x="340.869141" xlink:href="#DejaVuSans-62"/>
      <use x="404.345703" xlink:href="#DejaVuSans-73"/>
      <use x="456.445312" xlink:href="#DejaVuSans-45"/>
      <use x="519.628906" xlink:href="#DejaVuSans-72"/>
      <use x="558.992188" xlink:href="#DejaVuSans-72"/>
      <use x="600.105469" xlink:href="#DejaVuSans-20"/>
      <use x="631.892578" xlink:href="#DejaVuSans-28"/>
      <use x="670.90625" xlink:href="#DejaVuSans-44"/>
      <use x="747.908203" xlink:href="#DejaVuSans-65"/>
      <use x="809.431641" xlink:href="#DejaVuSans-67"/>
      <use x="872.908203" xlink:href="#DejaVuSans-72"/>
      <use x="911.771484" xlink:href="#DejaVuSans-65"/>
      <use x="973.294922" xlink:href="#DejaVuSans-65"/>
      <use x="1034.818359" xlink:href="#DejaVuSans-73"/>
      <use x="1086.917969" xlink:href="#DejaVuSans-29"/>
     </g>
    </g>
   </g>
   <g id="line2d_10">
    <path clip-path="url(#p0d62f866ee)" d="M 267.19375 518.63757 
L 267.19375 548.516647 
" style="fill:none;stroke:#3f3f3f;stroke-linecap:square;stroke-width:3;"/>
   </g>
   <g id="line2d_11">
    <path clip-path="url(#p0d62f866ee)" d="M 267.19375 483.329448 
L 267.19375 441.47062 
" style="fill:none;stroke:#3f3f3f;stroke-linecap:square;stroke-width:3;"/>
   </g>
   <g id="line2d_12">
    <path clip-path="url(#p0d62f866ee)" d="M 241.0375 548.516647 
L 293.35 548.516647 
" style="fill:none;stroke:#3f3f3f;stroke-linecap:square;stroke-width:3;"/>
   </g>
   <g id="line2d_13">
    <path clip-path="url(#p0d62f866ee)" d="M 241.0375 441.47062 
L 293.35 441.47062 
" style="fill:none;stroke:#3f3f3f;stroke-linecap:square;stroke-width:3;"/>
   </g>
   <g id="line2d_14">
    <path clip-path="url(#p0d62f866ee)" d="M 685.69375 527.401049 
L 685.69375 563.949034 
" style="fill:none;stroke:#3f3f3f;stroke-linecap:square;stroke-width:3;"/>
   </g>
   <g id="line2d_15">
    <path clip-path="url(#p0d62f866ee)" d="M 685.69375 489.165996 
L 685.69375 436.60155 
" style="fill:none;stroke:#3f3f3f;stroke-linecap:square;stroke-width:3;"/>
   </g>
   <g id="line2d_16">
    <path clip-path="url(#p0d62f866ee)" d="M 659.5375 563.949034 
L 711.85 563.949034 
" style="fill:none;stroke:#3f3f3f;stroke-linecap:square;stroke-width:3;"/>
   </g>
   <g id="line2d_17">
    <path clip-path="url(#p0d62f866ee)" d="M 659.5375 436.60155 
L 711.85 436.60155 
" style="fill:none;stroke:#3f3f3f;stroke-linecap:square;stroke-width:3;"/>
   </g>
   <g id="line2d_18">
    <path d="M 267.19375 28.750125 
L 267.19375 17.878125 
L 685.69375 17.878125 
L 685.69375 28.750125 
" style="fill:none;stroke:#333333;stroke-linecap:square;stroke-width:1.5;"/>
   </g>
   <g id="line2d_19">
    <path clip-path="url(#p0d62f866ee)" d="M 214.88125 504.054501 
L 319.50625 504.054501 
" style="fill:none;stroke:#3f3f3f;stroke-linecap:square;stroke-width:3;"/>
   </g>
   <g id="line2d_20">
    <path clip-path="url(#p0d62f866ee)" d="M 633.38125 507.483966 
L 738.00625 507.483966 
" style="fill:none;stroke:#3f3f3f;stroke-linecap:square;stroke-width:3;"/>
   </g>
   <g id="patch_3">
    <path d="M 57.94375 588.658125 
L 57.94375 45.058125 
" style="fill:none;stroke:#000000;stroke-linecap:square;stroke-linejoin:miter;"/>
   </g>
   <g id="patch_4">
    <path d="M 57.94375 588.658125 
L 894.94375 588.658125 
" style="fill:none;stroke:#000000;stroke-linecap:square;stroke-linejoin:miter;"/>
   </g>
   <g id="PathCollection_23">
    <defs>
     <path d="M 0 3.5 
C 0.928211 3.5 1.81853 3.131218 2.474874 2.474874 
C 3.131218 1.81853 3.5 0.928211 3.5 -0 
C 3.5 -0.928211 3.131218 -1.81853 2.474874 -2.474874 
C 1.81853 -3.131218 0.928211 -3.5 0 -3.5 
C -0.928211 -3.5 -1.81853 -3.131218 -2.474874 -2.474874 
C -3.131218 -1.81853 -3.5 -0.928211 -3.5 0 
C -3.5 0.928211 -3.131218 1.81853 -2.474874 2.474874 
C -1.81853 3.131218 -0.928211 3.5 0 3.5 
z
" id="C0_0_95957df4a6"/>
    </defs>
    <g clip-path="url(#p0d62f866ee)">
     <use style="fill:#0000ff;fill-opacity:0.4;" x="308.481564" xlink:href="#C0_0_95957df4a6" y="549.647407"/>
    </g>
    <g clip-path="url(#p0d62f866ee)">
     <use style="fill:#0000ff;fill-opacity:0.4;" x="327.650268" xlink:href="#C0_0_95957df4a6" y="546.862446"/>
    </g>
    <g clip-path="url(#p0d62f866ee)">
     <use style="fill:#0000ff;fill-opacity:0.4;" x="344.612756" xlink:href="#C0_0_95957df4a6" y="549.176256"/>
    </g>
    <g clip-path="url(#p0d62f866ee)">
     <use style="fill:#0000ff;fill-opacity:0.4;" x="331.825669" xlink:href="#C0_0_95957df4a6" y="547.436126"/>
    </g>
    <g clip-path="url(#p0d62f866ee)">
     <use style="fill:#0000ff;fill-opacity:0.4;" x="359.618538" xlink:href="#C0_0_95957df4a6" y="543.110524"/>
    </g>
    <g clip-path="url(#p0d62f866ee)">
     <use style="fill:#0000ff;fill-opacity:0.4;" x="338.220233" xlink:href="#C0_0_95957df4a6" y="539.178601"/>
    </g>
    <g clip-path="url(#p0d62f866ee)">
     <use style="fill:#0000ff;fill-opacity:0.4;" x="339.250502" xlink:href="#C0_0_95957df4a6" y="552.044641"/>
    </g>
    <g clip-path="url(#p0d62f866ee)">
     <use style="fill:#0000ff;fill-opacity:0.4;" x="308.52362" xlink:href="#C0_0_95957df4a6" y="562.887054"/>
    </g>
    <g clip-path="url(#p0d62f866ee)">
     <use style="fill:#0000ff;fill-opacity:0.4;" x="319.148306" xlink:href="#C0_0_95957df4a6" y="549.595977"/>
    </g>
    <g clip-path="url(#p0d62f866ee)">
     <use style="fill:#0000ff;fill-opacity:0.4;" x="340.58821" xlink:href="#C0_0_95957df4a6" y="545.616616"/>
    </g>
    <g clip-path="url(#p0d62f866ee)">
     <use style="fill:#00bfff;fill-opacity:0.4;" x="363.893716" xlink:href="#C0_0_95957df4a6" y="477.840439"/>
    </g>
    <g clip-path="url(#p0d62f866ee)">
     <use style="fill:#00bfff;fill-opacity:0.4;" x="358.233937" xlink:href="#C0_0_95957df4a6" y="482.756694"/>
    </g>
    <g clip-path="url(#p0d62f866ee)">
     <use style="fill:#00bfff;fill-opacity:0.4;" x="316.2352" xlink:href="#C0_0_95957df4a6" y="472.443994"/>
    </g>
    <g clip-path="url(#p0d62f866ee)">
     <use style="fill:#00bfff;fill-opacity:0.4;" x="324.818656" xlink:href="#C0_0_95957df4a6" y="462.691725"/>
    </g>
    <g clip-path="url(#p0d62f866ee)">
     <use style="fill:#00bfff;fill-opacity:0.4;" x="330.294208" xlink:href="#C0_0_95957df4a6" y="526.206242"/>
    </g>
    <g clip-path="url(#p0d62f866ee)">
     <use style="fill:#00bfff;fill-opacity:0.4;" x="344.217359" xlink:href="#C0_0_95957df4a6" y="514.702705"/>
    </g>
    <g clip-path="url(#p0d62f866ee)">
     <use style="fill:#00bfff;fill-opacity:0.4;" x="320.864808" xlink:href="#C0_0_95957df4a6" y="487.840019"/>
    </g>
    <g clip-path="url(#p0d62f866ee)">
     <use style="fill:#00bfff;fill-opacity:0.4;" x="298.504003" xlink:href="#C0_0_95957df4a6" y="476.411557"/>
    </g>
    <g clip-path="url(#p0d62f866ee)">
     <use style="fill:#00bfff;fill-opacity:0.4;" x="311.555565" xlink:href="#C0_0_95957df4a6" y="487.627334"/>
    </g>
    <g clip-path="url(#p0d62f866ee)">
     <use style="fill:#00bfff;fill-opacity:0.4;" x="330.121702" xlink:href="#C0_0_95957df4a6" y="490.313685"/>
    </g>
    <g clip-path="url(#p0d62f866ee)">
     <use style="fill:#00bfff;fill-opacity:0.4;" x="358.525845" xlink:href="#C0_0_95957df4a6" y="421.634572"/>
    </g>
    <g clip-path="url(#p0d62f866ee)">
     <use style="fill:#00bfff;fill-opacity:0.4;" x="358.428273" xlink:href="#C0_0_95957df4a6" y="497.687174"/>
    </g>
    <g clip-path="url(#p0d62f866ee)">
     <use style="fill:#00bfff;fill-opacity:0.4;" x="302.228782" xlink:href="#C0_0_95957df4a6" y="515.223383"/>
    </g>
    <g clip-path="url(#p0d62f866ee)">
     <use style="fill:#00bfff;fill-opacity:0.4;" x="289.563902" xlink:href="#C0_0_95957df4a6" y="520.87886"/>
    </g>
    <g clip-path="url(#p0d62f866ee)">
     <use style="fill:#00bfff;fill-opacity:0.4;" x="328.910576" xlink:href="#C0_0_95957df4a6" y="529.953138"/>
    </g>
    <g clip-path="url(#p0d62f866ee)">
     <use style="fill:#00bfff;fill-opacity:0.4;" x="315.783503" xlink:href="#C0_0_95957df4a6" y="527.849335"/>
    </g>
    <g clip-path="url(#p0d62f866ee)">
     <use style="fill:#00bfff;fill-opacity:0.4;" x="331.616863" xlink:href="#C0_0_95957df4a6" y="508.962022"/>
    </g>
    <g clip-path="url(#p0d62f866ee)">
     <use style="fill:#00bfff;fill-opacity:0.4;" x="339.475066" xlink:href="#C0_0_95957df4a6" y="516.730637"/>
    </g>
    <g clip-path="url(#p0d62f866ee)">
     <use style="fill:#00bfff;fill-opacity:0.4;" x="333.928983" xlink:href="#C0_0_95957df4a6" y="519.683333"/>
    </g>
    <g clip-path="url(#p0d62f866ee)">
     <use style="fill:#00bfff;fill-opacity:0.4;" x="322.124061" xlink:href="#C0_0_95957df4a6" y="526.917407"/>
    </g>
    <g clip-path="url(#p0d62f866ee)">
     <use style="fill:#00bfff;fill-opacity:0.4;" x="299.516387" xlink:href="#C0_0_95957df4a6" y="499.916597"/>
    </g>
    <g clip-path="url(#p0d62f866ee)">
     <use style="fill:#0000ff;fill-opacity:0.4;" x="320.224855" xlink:href="#C0_0_95957df4a6" y="519.779693"/>
    </g>
    <g clip-path="url(#p0d62f866ee)">
     <use style="fill:#0000ff;fill-opacity:0.4;" x="354.239463" xlink:href="#C0_0_95957df4a6" y="491.772458"/>
    </g>
    <g clip-path="url(#p0d62f866ee)">
     <use style="fill:#0000ff;fill-opacity:0.4;" x="292.303118" xlink:href="#C0_0_95957df4a6" y="507.491046"/>
    </g>
    <g clip-path="url(#p0d62f866ee)">
     <use style="fill:#0000ff;fill-opacity:0.4;" x="343.393631" xlink:href="#C0_0_95957df4a6" y="506.92721"/>
    </g>
    <g clip-path="url(#p0d62f866ee)">
     <use style="fill:#0000ff;fill-opacity:0.4;" x="333.943011" xlink:href="#C0_0_95957df4a6" y="435.53957"/>
    </g>
    <g clip-path="url(#p0d62f866ee)">
     <use style="fill:#0000ff;fill-opacity:0.4;" x="352.455658" xlink:href="#C0_0_95957df4a6" y="549.247852"/>
    </g>
    <g clip-path="url(#p0d62f866ee)">
     <use style="fill:#0000ff;fill-opacity:0.4;" x="314.681026" xlink:href="#C0_0_95957df4a6" y="471.480796"/>
    </g>
    <g clip-path="url(#p0d62f866ee)">
     <use style="fill:#0000ff;fill-opacity:0.4;" x="347.035868" xlink:href="#C0_0_95957df4a6" y="531.240675"/>
    </g>
    <g clip-path="url(#p0d62f866ee)">
     <use style="fill:#0000ff;fill-opacity:0.4;" x="310.667184" xlink:href="#C0_0_95957df4a6" y="506.05658"/>
    </g>
    <g clip-path="url(#p0d62f866ee)">
     <use style="fill:#0000ff;fill-opacity:0.4;" x="303.825787" xlink:href="#C0_0_95957df4a6" y="508.515278"/>
    </g>
    <g clip-path="url(#p0d62f866ee)">
     <use style="fill:#0000ff;fill-opacity:0.4;" x="323.783102" xlink:href="#C0_0_95957df4a6" y="478.173194"/>
    </g>
    <g clip-path="url(#p0d62f866ee)">
     <use style="fill:#0000ff;fill-opacity:0.4;" x="333.7658" xlink:href="#C0_0_95957df4a6" y="488.112841"/>
    </g>
    <g clip-path="url(#p0d62f866ee)">
     <use style="fill:#0000ff;fill-opacity:0.4;" x="322.816288" xlink:href="#C0_0_95957df4a6" y="502.63144"/>
    </g>
    <g clip-path="url(#p0d62f866ee)">
     <use style="fill:#0000ff;fill-opacity:0.4;" x="350.489446" xlink:href="#C0_0_95957df4a6" y="520.785883"/>
    </g>
    <g clip-path="url(#p0d62f866ee)">
     <use style="fill:#0000ff;fill-opacity:0.4;" x="307.413135" xlink:href="#C0_0_95957df4a6" y="512.01687"/>
    </g>
    <g clip-path="url(#p0d62f866ee)">
     <use style="fill:#0000ff;fill-opacity:0.4;" x="303.520279" xlink:href="#C0_0_95957df4a6" y="489.931842"/>
    </g>
    <g clip-path="url(#p0d62f866ee)">
     <use style="fill:#0000ff;fill-opacity:0.4;" x="312.578853" xlink:href="#C0_0_95957df4a6" y="465.195893"/>
    </g>
    <g clip-path="url(#p0d62f866ee)">
     <use style="fill:#0000ff;fill-opacity:0.4;" x="317.077591" xlink:href="#C0_0_95957df4a6" y="487.303107"/>
    </g>
    <g clip-path="url(#p0d62f866ee)">
     <use style="fill:#0000ff;fill-opacity:0.4;" x="293.063834" xlink:href="#C0_0_95957df4a6" y="504.898546"/>
    </g>
    <g clip-path="url(#p0d62f866ee)">
     <use style="fill:#0000ff;fill-opacity:0.4;" x="353.254672" xlink:href="#C0_0_95957df4a6" y="502.498777"/>
    </g>
    <g clip-path="url(#p0d62f866ee)">
     <use style="fill:#0000ff;fill-opacity:0.4;" x="358.212808" xlink:href="#C0_0_95957df4a6" y="525.379355"/>
    </g>
    <g clip-path="url(#p0d62f866ee)">
     <use style="fill:#0000ff;fill-opacity:0.4;" x="304.414975" xlink:href="#C0_0_95957df4a6" y="499.089993"/>
    </g>
    <g clip-path="url(#p0d62f866ee)">
     <use style="fill:#0000ff;fill-opacity:0.4;" x="327.616253" xlink:href="#C0_0_95957df4a6" y="542.160421"/>
    </g>
    <g clip-path="url(#p0d62f866ee)">
     <use style="fill:#0000ff;fill-opacity:0.4;" x="326.86617" xlink:href="#C0_0_95957df4a6" y="534.658431"/>
    </g>
    <g clip-path="url(#p0d62f866ee)">
     <use style="fill:#0000ff;fill-opacity:0.4;" x="331.977981" xlink:href="#C0_0_95957df4a6" y="513.718118"/>
    </g>
    <g clip-path="url(#p0d62f866ee)">
     <use style="fill:#0000ff;fill-opacity:0.4;" x="305.893009" xlink:href="#C0_0_95957df4a6" y="491.563943"/>
    </g>
    <g clip-path="url(#p0d62f866ee)">
     <use style="fill:#0000ff;fill-opacity:0.4;" x="290.433139" xlink:href="#C0_0_95957df4a6" y="477.377668"/>
    </g>
    <g clip-path="url(#p0d62f866ee)">
     <use style="fill:#0000ff;fill-opacity:0.4;" x="330.890367" xlink:href="#C0_0_95957df4a6" y="521.517648"/>
    </g>
    <g clip-path="url(#p0d62f866ee)">
     <use style="fill:#0000ff;fill-opacity:0.4;" x="367.484374" xlink:href="#C0_0_95957df4a6" y="494.372421"/>
    </g>
    <g clip-path="url(#p0d62f866ee)">
     <use style="fill:#0000ff;fill-opacity:0.4;" x="290.64176" xlink:href="#C0_0_95957df4a6" y="536.959481"/>
    </g>
    <g clip-path="url(#p0d62f866ee)">
     <use style="fill:#0000ff;fill-opacity:0.4;" x="338.442674" xlink:href="#C0_0_95957df4a6" y="451.430844"/>
    </g>
    <g clip-path="url(#p0d62f866ee)">
     <use style="fill:#0000ff;fill-opacity:0.4;" x="344.378865" xlink:href="#C0_0_95957df4a6" y="511.631474"/>
    </g>
    <g clip-path="url(#p0d62f866ee)">
     <use style="fill:#0000ff;fill-opacity:0.4;" x="310.561447" xlink:href="#C0_0_95957df4a6" y="494.765551"/>
    </g>
    <g clip-path="url(#p0d62f866ee)">
     <use style="fill:#0000ff;fill-opacity:0.4;" x="291.14432" xlink:href="#C0_0_95957df4a6" y="452.100829"/>
    </g>
    <g clip-path="url(#p0d62f866ee)">
     <use style="fill:#0000ff;fill-opacity:0.4;" x="349.78104" xlink:href="#C0_0_95957df4a6" y="479.471645"/>
    </g>
    <g clip-path="url(#p0d62f866ee)">
     <use style="fill:#0000ff;fill-opacity:0.4;" x="337.24425" xlink:href="#C0_0_95957df4a6" y="492.72451"/>
    </g>
    <g clip-path="url(#p0d62f866ee)">
     <use style="fill:#0000ff;fill-opacity:0.4;" x="352.884169" xlink:href="#C0_0_95957df4a6" y="466.022778"/>
    </g>
    <g clip-path="url(#p0d62f866ee)">
     <use style="fill:#0000ff;fill-opacity:0.4;" x="349.993957" xlink:href="#C0_0_95957df4a6" y="504.148362"/>
    </g>
    <g clip-path="url(#p0d62f866ee)">
     <use style="fill:#0000ff;fill-opacity:0.4;" x="308.632094" xlink:href="#C0_0_95957df4a6" y="501.651371"/>
    </g>
    <g clip-path="url(#p0d62f866ee)">
     <use style="fill:#0000ff;fill-opacity:0.4;" x="368.956353" xlink:href="#C0_0_95957df4a6" y="508.844987"/>
    </g>
    <g clip-path="url(#p0d62f866ee)">
     <use style="fill:#0000ff;fill-opacity:0.4;" x="305.340807" xlink:href="#C0_0_95957df4a6" y="475.523072"/>
    </g>
    <g clip-path="url(#p0d62f866ee)">
     <use style="fill:#00bfff;fill-opacity:0.4;" x="299.383482" xlink:href="#C0_0_95957df4a6" y="504.445044"/>
    </g>
    <g clip-path="url(#p0d62f866ee)">
     <use style="fill:#00bfff;fill-opacity:0.4;" x="308.704061" xlink:href="#C0_0_95957df4a6" y="505.787652"/>
    </g>
    <g clip-path="url(#p0d62f866ee)">
     <use style="fill:#00bfff;fill-opacity:0.4;" x="370.201776" xlink:href="#C0_0_95957df4a6" y="520.636134"/>
    </g>
    <g clip-path="url(#p0d62f866ee)">
     <use style="fill:#00bfff;fill-opacity:0.4;" x="289.641057" xlink:href="#C0_0_95957df4a6" y="512.416449"/>
    </g>
    <g clip-path="url(#p0d62f866ee)">
     <use style="fill:#00bfff;fill-opacity:0.4;" x="300.260627" xlink:href="#C0_0_95957df4a6" y="503.487697"/>
    </g>
    <g clip-path="url(#p0d62f866ee)">
     <use style="fill:#00bfff;fill-opacity:0.4;" x="315.992574" xlink:href="#C0_0_95957df4a6" y="530.283238"/>
    </g>
    <g clip-path="url(#p0d62f866ee)">
     <use style="fill:#00bfff;fill-opacity:0.4;" x="333.025739" xlink:href="#C0_0_95957df4a6" y="542.032671"/>
    </g>
    <g clip-path="url(#p0d62f866ee)">
     <use style="fill:#00bfff;fill-opacity:0.4;" x="346.573407" xlink:href="#C0_0_95957df4a6" y="509.652403"/>
    </g>
    <g clip-path="url(#p0d62f866ee)">
     <use style="fill:#00bfff;fill-opacity:0.4;" x="328.662741" xlink:href="#C0_0_95957df4a6" y="543.476025"/>
    </g>
    <g clip-path="url(#p0d62f866ee)">
     <use style="fill:#00bfff;fill-opacity:0.4;" x="291.800716" xlink:href="#C0_0_95957df4a6" y="547.186071"/>
    </g>
    <g clip-path="url(#p0d62f866ee)">
     <use style="fill:#00bfff;fill-opacity:0.4;" x="319.030349" xlink:href="#C0_0_95957df4a6" y="536.770633"/>
    </g>
    <g clip-path="url(#p0d62f866ee)">
     <use style="fill:#00bfff;fill-opacity:0.4;" x="343.668307" xlink:href="#C0_0_95957df4a6" y="473.123671"/>
    </g>
    <g clip-path="url(#p0d62f866ee)">
     <use style="fill:#00bfff;fill-opacity:0.4;" x="367.870205" xlink:href="#C0_0_95957df4a6" y="526.737547"/>
    </g>
    <g clip-path="url(#p0d62f866ee)">
     <use style="fill:#00bfff;fill-opacity:0.4;" x="294.837522" xlink:href="#C0_0_95957df4a6" y="526.847834"/>
    </g>
    <g clip-path="url(#p0d62f866ee)">
     <use style="fill:#00bfff;fill-opacity:0.4;" x="313.739104" xlink:href="#C0_0_95957df4a6" y="497.923227"/>
    </g>
    <g clip-path="url(#p0d62f866ee)">
     <use style="fill:#00bfff;fill-opacity:0.4;" x="341.770574" xlink:href="#C0_0_95957df4a6" y="512.0021"/>
    </g>
    <g clip-path="url(#p0d62f866ee)">
     <use style="fill:#00bfff;fill-opacity:0.4;" x="320.790181" xlink:href="#C0_0_95957df4a6" y="515.623101"/>
    </g>
    <g clip-path="url(#p0d62f866ee)">
     <use style="fill:#00bfff;fill-opacity:0.4;" x="349.254453" xlink:href="#C0_0_95957df4a6" y="530.131518"/>
    </g>
    <g clip-path="url(#p0d62f866ee)">
     <use style="fill:#00bfff;fill-opacity:0.4;" x="335.882197" xlink:href="#C0_0_95957df4a6" y="502.944097"/>
    </g>
    <g clip-path="url(#p0d62f866ee)">
     <use style="fill:#00bfff;fill-opacity:0.4;" x="337.754015" xlink:href="#C0_0_95957df4a6" y="523.872546"/>
    </g>
    <g clip-path="url(#p0d62f866ee)">
     <use style="fill:#00bfff;fill-opacity:0.4;" x="340.635178" xlink:href="#C0_0_95957df4a6" y="506.787392"/>
    </g>
    <g clip-path="url(#p0d62f866ee)">
     <use style="fill:#00bfff;fill-opacity:0.4;" x="331.146322" xlink:href="#C0_0_95957df4a6" y="517.625897"/>
    </g>
    <g clip-path="url(#p0d62f866ee)">
     <use style="fill:#00bfff;fill-opacity:0.4;" x="367.311985" xlink:href="#C0_0_95957df4a6" y="471.593369"/>
    </g>
    <g clip-path="url(#p0d62f866ee)">
     <use style="fill:#00bfff;fill-opacity:0.4;" x="338.692091" xlink:href="#C0_0_95957df4a6" y="489.119887"/>
    </g>
    <g clip-path="url(#p0d62f866ee)">
     <use style="fill:#00bfff;fill-opacity:0.4;" x="371.316794" xlink:href="#C0_0_95957df4a6" y="496.24713"/>
    </g>
    <g clip-path="url(#p0d62f866ee)">
     <use style="fill:#00bfff;fill-opacity:0.4;" x="319.576082" xlink:href="#C0_0_95957df4a6" y="454.825602"/>
    </g>
    <g clip-path="url(#p0d62f866ee)">
     <use style="fill:#00bfff;fill-opacity:0.4;" x="288.906332" xlink:href="#C0_0_95957df4a6" y="459.278877"/>
    </g>
    <g clip-path="url(#p0d62f866ee)">
     <use style="fill:#00bfff;fill-opacity:0.4;" x="324.569062" xlink:href="#C0_0_95957df4a6" y="502.082479"/>
    </g>
    <g clip-path="url(#p0d62f866ee)">
     <use style="fill:#00bfff;fill-opacity:0.4;" x="299.812211" xlink:href="#C0_0_95957df4a6" y="478.852149"/>
    </g>
    <g clip-path="url(#p0d62f866ee)">
     <use style="fill:#00bfff;fill-opacity:0.4;" x="331.86266" xlink:href="#C0_0_95957df4a6" y="503.294248"/>
    </g>
    <g clip-path="url(#p0d62f866ee)">
     <use style="fill:#00bfff;fill-opacity:0.4;" x="320.659158" xlink:href="#C0_0_95957df4a6" y="488.077543"/>
    </g>
    <g clip-path="url(#p0d62f866ee)">
     <use style="fill:#00bfff;fill-opacity:0.4;" x="348.88531" xlink:href="#C0_0_95957df4a6" y="468.697759"/>
    </g>
   </g>
   <g id="PathCollection_24">
    <defs>
     <path d="M 0 3.5 
C 0.928211 3.5 1.81853 3.131218 2.474874 2.474874 
C 3.131218 1.81853 3.5 0.928211 3.5 -0 
C 3.5 -0.928211 3.131218 -1.81853 2.474874 -2.474874 
C 1.81853 -3.131218 0.928211 -3.5 0 -3.5 
C -0.928211 -3.5 -1.81853 -3.131218 -2.474874 -2.474874 
C -3.131218 -1.81853 -3.5 -0.928211 -3.5 0 
C -3.5 0.928211 -3.131218 1.81853 -2.474874 2.474874 
C -1.81853 3.131218 -0.928211 3.5 0 3.5 
z
" id="C1_0_f7854ab06e"/>
    </defs>
    <g clip-path="url(#p0d62f866ee)">
     <use style="fill:#0000ff;fill-opacity:0.4;" x="707.626517" xlink:href="#C1_0_f7854ab06e" y="484.356065"/>
    </g>
    <g clip-path="url(#p0d62f866ee)">
     <use style="fill:#0000ff;fill-opacity:0.4;" x="748.835129" xlink:href="#C1_0_f7854ab06e" y="509.693477"/>
    </g>
    <g clip-path="url(#p0d62f866ee)">
     <use style="fill:#0000ff;fill-opacity:0.4;" x="726.579268" xlink:href="#C1_0_f7854ab06e" y="477.243728"/>
    </g>
    <g clip-path="url(#p0d62f866ee)">
     <use style="fill:#0000ff;fill-opacity:0.4;" x="732.75681" xlink:href="#C1_0_f7854ab06e" y="496.612451"/>
    </g>
    <g clip-path="url(#p0d62f866ee)">
     <use style="fill:#0000ff;fill-opacity:0.4;" x="745.868386" xlink:href="#C1_0_f7854ab06e" y="527.645703"/>
    </g>
    <g clip-path="url(#p0d62f866ee)">
     <use style="fill:#0000ff;fill-opacity:0.4;" x="711.910313" xlink:href="#C1_0_f7854ab06e" y="524.053308"/>
    </g>
    <g clip-path="url(#p0d62f866ee)">
     <use style="fill:#0000ff;fill-opacity:0.4;" x="712.772578" xlink:href="#C1_0_f7854ab06e" y="473.67848"/>
    </g>
    <g clip-path="url(#p0d62f866ee)">
     <use style="fill:#0000ff;fill-opacity:0.4;" x="727.93443" xlink:href="#C1_0_f7854ab06e" y="510.084244"/>
    </g>
    <g clip-path="url(#p0d62f866ee)">
     <use style="fill:#0000ff;fill-opacity:0.4;" x="716.494558" xlink:href="#C1_0_f7854ab06e" y="498.643879"/>
    </g>
    <g clip-path="url(#p0d62f866ee)">
     <use style="fill:#0000ff;fill-opacity:0.4;" x="723.079097" xlink:href="#C1_0_f7854ab06e" y="481.834071"/>
    </g>
    <g clip-path="url(#p0d62f866ee)">
     <use style="fill:#00bfff;fill-opacity:0.4;" x="775.874071" xlink:href="#C1_0_f7854ab06e" y="468.895534"/>
    </g>
    <g clip-path="url(#p0d62f866ee)">
     <use style="fill:#00bfff;fill-opacity:0.4;" x="772.842559" xlink:href="#C1_0_f7854ab06e" y="440.40864"/>
    </g>
    <g clip-path="url(#p0d62f866ee)">
     <use style="fill:#00bfff;fill-opacity:0.4;" x="716.94525" xlink:href="#C1_0_f7854ab06e" y="482.267468"/>
    </g>
    <g clip-path="url(#p0d62f866ee)">
     <use style="fill:#00bfff;fill-opacity:0.4;" x="780.856993" xlink:href="#C1_0_f7854ab06e" y="480.683769"/>
    </g>
    <g clip-path="url(#p0d62f866ee)">
     <use style="fill:#00bfff;fill-opacity:0.4;" x="707.178401" xlink:href="#C1_0_f7854ab06e" y="504.20851"/>
    </g>
    <g clip-path="url(#p0d62f866ee)">
     <use style="fill:#00bfff;fill-opacity:0.4;" x="761.323053" xlink:href="#C1_0_f7854ab06e" y="487.81763"/>
    </g>
    <g clip-path="url(#p0d62f866ee)">
     <use style="fill:#00bfff;fill-opacity:0.4;" x="772.577275" xlink:href="#C1_0_f7854ab06e" y="485.526796"/>
    </g>
    <g clip-path="url(#p0d62f866ee)">
     <use style="fill:#00bfff;fill-opacity:0.4;" x="737.344933" xlink:href="#C1_0_f7854ab06e" y="479.939393"/>
    </g>
    <g clip-path="url(#p0d62f866ee)">
     <use style="fill:#00bfff;fill-opacity:0.4;" x="753.873267" xlink:href="#C1_0_f7854ab06e" y="505.467102"/>
    </g>
    <g clip-path="url(#p0d62f866ee)">
     <use style="fill:#00bfff;fill-opacity:0.4;" x="775.168199" xlink:href="#C1_0_f7854ab06e" y="475.2703"/>
    </g>
    <g clip-path="url(#p0d62f866ee)">
     <use style="fill:#0000ff;fill-opacity:0.4;" x="734.261412" xlink:href="#C1_0_f7854ab06e" y="512.157498"/>
    </g>
    <g clip-path="url(#p0d62f866ee)">
     <use style="fill:#0000ff;fill-opacity:0.4;" x="749.795419" xlink:href="#C1_0_f7854ab06e" y="498.638794"/>
    </g>
    <g clip-path="url(#p0d62f866ee)">
     <use style="fill:#0000ff;fill-opacity:0.4;" x="726.761581" xlink:href="#C1_0_f7854ab06e" y="517.57559"/>
    </g>
    <g clip-path="url(#p0d62f866ee)">
     <use style="fill:#0000ff;fill-opacity:0.4;" x="776.012356" xlink:href="#C1_0_f7854ab06e" y="527.561675"/>
    </g>
    <g clip-path="url(#p0d62f866ee)">
     <use style="fill:#0000ff;fill-opacity:0.4;" x="786.360455" xlink:href="#C1_0_f7854ab06e" y="496.507888"/>
    </g>
    <g clip-path="url(#p0d62f866ee)">
     <use style="fill:#0000ff;fill-opacity:0.4;" x="782.491236" xlink:href="#C1_0_f7854ab06e" y="495.678691"/>
    </g>
    <g clip-path="url(#p0d62f866ee)">
     <use style="fill:#0000ff;fill-opacity:0.4;" x="790.249891" xlink:href="#C1_0_f7854ab06e" y="511.810514"/>
    </g>
    <g clip-path="url(#p0d62f866ee)">
     <use style="fill:#0000ff;fill-opacity:0.4;" x="737.049011" xlink:href="#C1_0_f7854ab06e" y="518.205276"/>
    </g>
    <g clip-path="url(#p0d62f866ee)">
     <use style="fill:#0000ff;fill-opacity:0.4;" x="784.190195" xlink:href="#C1_0_f7854ab06e" y="547.454667"/>
    </g>
    <g clip-path="url(#p0d62f866ee)">
     <use style="fill:#0000ff;fill-opacity:0.4;" x="709.317352" xlink:href="#C1_0_f7854ab06e" y="508.88225"/>
    </g>
    <g clip-path="url(#p0d62f866ee)">
     <use style="fill:#00bfff;fill-opacity:0.4;" x="747.257626" xlink:href="#C1_0_f7854ab06e" y="493.067495"/>
    </g>
    <g clip-path="url(#p0d62f866ee)">
     <use style="fill:#00bfff;fill-opacity:0.4;" x="738.365433" xlink:href="#C1_0_f7854ab06e" y="500.058405"/>
    </g>
    <g clip-path="url(#p0d62f866ee)">
     <use style="fill:#00bfff;fill-opacity:0.4;" x="756.753846" xlink:href="#C1_0_f7854ab06e" y="510.260618"/>
    </g>
    <g clip-path="url(#p0d62f866ee)">
     <use style="fill:#00bfff;fill-opacity:0.4;" x="762.99206" xlink:href="#C1_0_f7854ab06e" y="517.804172"/>
    </g>
    <g clip-path="url(#p0d62f866ee)">
     <use style="fill:#00bfff;fill-opacity:0.4;" x="719.412778" xlink:href="#C1_0_f7854ab06e" y="493.489385"/>
    </g>
    <g clip-path="url(#p0d62f866ee)">
     <use style="fill:#00bfff;fill-opacity:0.4;" x="762.692051" xlink:href="#C1_0_f7854ab06e" y="518.760955"/>
    </g>
    <g clip-path="url(#p0d62f866ee)">
     <use style="fill:#00bfff;fill-opacity:0.4;" x="719.396697" xlink:href="#C1_0_f7854ab06e" y="507.848574"/>
    </g>
    <g clip-path="url(#p0d62f866ee)">
     <use style="fill:#00bfff;fill-opacity:0.4;" x="726.690987" xlink:href="#C1_0_f7854ab06e" y="503.549609"/>
    </g>
    <g clip-path="url(#p0d62f866ee)">
     <use style="fill:#00bfff;fill-opacity:0.4;" x="780.212519" xlink:href="#C1_0_f7854ab06e" y="500.801166"/>
    </g>
    <g clip-path="url(#p0d62f866ee)">
     <use style="fill:#00bfff;fill-opacity:0.4;" x="754.655923" xlink:href="#C1_0_f7854ab06e" y="467.986487"/>
    </g>
    <g clip-path="url(#p0d62f866ee)">
     <use style="fill:#00bfff;fill-opacity:0.4;" x="708.464332" xlink:href="#C1_0_f7854ab06e" y="460.480823"/>
    </g>
    <g clip-path="url(#p0d62f866ee)">
     <use style="fill:#00bfff;fill-opacity:0.4;" x="721.883445" xlink:href="#C1_0_f7854ab06e" y="467.489614"/>
    </g>
    <g clip-path="url(#p0d62f866ee)">
     <use style="fill:#00bfff;fill-opacity:0.4;" x="729.139661" xlink:href="#C1_0_f7854ab06e" y="499.464667"/>
    </g>
    <g clip-path="url(#p0d62f866ee)">
     <use style="fill:#00bfff;fill-opacity:0.4;" x="789.797859" xlink:href="#C1_0_f7854ab06e" y="476.840686"/>
    </g>
    <g clip-path="url(#p0d62f866ee)">
     <use style="fill:#00bfff;fill-opacity:0.4;" x="781.873102" xlink:href="#C1_0_f7854ab06e" y="470.715886"/>
    </g>
    <g clip-path="url(#p0d62f866ee)">
     <use style="fill:#00bfff;fill-opacity:0.4;" x="724.92933" xlink:href="#C1_0_f7854ab06e" y="499.075707"/>
    </g>
    <g clip-path="url(#p0d62f866ee)">
     <use style="fill:#00bfff;fill-opacity:0.4;" x="711.86751" xlink:href="#C1_0_f7854ab06e" y="490.921518"/>
    </g>
    <g clip-path="url(#p0d62f866ee)">
     <use style="fill:#00bfff;fill-opacity:0.4;" x="741.080371" xlink:href="#C1_0_f7854ab06e" y="491.116026"/>
    </g>
    <g clip-path="url(#p0d62f866ee)">
     <use style="fill:#00bfff;fill-opacity:0.4;" x="748.592536" xlink:href="#C1_0_f7854ab06e" y="514.409943"/>
    </g>
    <g clip-path="url(#p0d62f866ee)">
     <use style="fill:#00bfff;fill-opacity:0.4;" x="763.717098" xlink:href="#C1_0_f7854ab06e" y="495.305867"/>
    </g>
    <g clip-path="url(#p0d62f866ee)">
     <use style="fill:#00bfff;fill-opacity:0.4;" x="726.107186" xlink:href="#C1_0_f7854ab06e" y="522.775435"/>
    </g>
    <g clip-path="url(#p0d62f866ee)">
     <use style="fill:#00bfff;fill-opacity:0.4;" x="718.488638" xlink:href="#C1_0_f7854ab06e" y="520.174722"/>
    </g>
    <g clip-path="url(#p0d62f866ee)">
     <use style="fill:#00bfff;fill-opacity:0.4;" x="777.542458" xlink:href="#C1_0_f7854ab06e" y="518.0979"/>
    </g>
    <g clip-path="url(#p0d62f866ee)">
     <use style="fill:#00bfff;fill-opacity:0.4;" x="749.922935" xlink:href="#C1_0_f7854ab06e" y="531.122003"/>
    </g>
    <g clip-path="url(#p0d62f866ee)">
     <use style="fill:#00bfff;fill-opacity:0.4;" x="770.421635" xlink:href="#C1_0_f7854ab06e" y="522.71275"/>
    </g>
    <g clip-path="url(#p0d62f866ee)">
     <use style="fill:#00bfff;fill-opacity:0.4;" x="782.055692" xlink:href="#C1_0_f7854ab06e" y="505.560531"/>
    </g>
    <g clip-path="url(#p0d62f866ee)">
     <use style="fill:#00bfff;fill-opacity:0.4;" x="732.752975" xlink:href="#C1_0_f7854ab06e" y="534.963069"/>
    </g>
    <g clip-path="url(#p0d62f866ee)">
     <use style="fill:#00bfff;fill-opacity:0.4;" x="762.397258" xlink:href="#C1_0_f7854ab06e" y="503.815976"/>
    </g>
    <g clip-path="url(#p0d62f866ee)">
     <use style="fill:#00bfff;fill-opacity:0.4;" x="739.671486" xlink:href="#C1_0_f7854ab06e" y="546.635931"/>
    </g>
    <g clip-path="url(#p0d62f866ee)">
     <use style="fill:#00bfff;fill-opacity:0.4;" x="733.508443" xlink:href="#C1_0_f7854ab06e" y="519.245601"/>
    </g>
    <g clip-path="url(#p0d62f866ee)">
     <use style="fill:#00bfff;fill-opacity:0.4;" x="722.893201" xlink:href="#C1_0_f7854ab06e" y="484.685188"/>
    </g>
    <g clip-path="url(#p0d62f866ee)">
     <use style="fill:#00bfff;fill-opacity:0.4;" x="756.950937" xlink:href="#C1_0_f7854ab06e" y="490.409346"/>
    </g>
    <g clip-path="url(#p0d62f866ee)">
     <use style="fill:#00bfff;fill-opacity:0.4;" x="730.768329" xlink:href="#C1_0_f7854ab06e" y="523.450784"/>
    </g>
    <g clip-path="url(#p0d62f866ee)">
     <use style="fill:#00bfff;fill-opacity:0.4;" x="737.932387" xlink:href="#C1_0_f7854ab06e" y="519.14189"/>
    </g>
    <g clip-path="url(#p0d62f866ee)">
     <use style="fill:#00bfff;fill-opacity:0.4;" x="773.000196" xlink:href="#C1_0_f7854ab06e" y="514.834731"/>
    </g>
    <g clip-path="url(#p0d62f866ee)">
     <use style="fill:#00bfff;fill-opacity:0.4;" x="763.082287" xlink:href="#C1_0_f7854ab06e" y="504.772304"/>
    </g>
    <g clip-path="url(#p0d62f866ee)">
     <use style="fill:#00bfff;fill-opacity:0.4;" x="773.088048" xlink:href="#C1_0_f7854ab06e" y="533.548962"/>
    </g>
    <g clip-path="url(#p0d62f866ee)">
     <use style="fill:#00bfff;fill-opacity:0.4;" x="717.134123" xlink:href="#C1_0_f7854ab06e" y="510.924701"/>
    </g>
    <g clip-path="url(#p0d62f866ee)">
     <use style="fill:#00bfff;fill-opacity:0.4;" x="724.415864" xlink:href="#C1_0_f7854ab06e" y="501.887714"/>
    </g>
    <g clip-path="url(#p0d62f866ee)">
     <use style="fill:#00bfff;fill-opacity:0.4;" x="722.006217" xlink:href="#C1_0_f7854ab06e" y="507.657652"/>
    </g>
    <g clip-path="url(#p0d62f866ee)">
     <use style="fill:#0000ff;fill-opacity:0.4;" x="731.109416" xlink:href="#C1_0_f7854ab06e" y="489.755675"/>
    </g>
    <g clip-path="url(#p0d62f866ee)">
     <use style="fill:#0000ff;fill-opacity:0.4;" x="730.470579" xlink:href="#C1_0_f7854ab06e" y="507.093007"/>
    </g>
    <g clip-path="url(#p0d62f866ee)">
     <use style="fill:#0000ff;fill-opacity:0.4;" x="712.440673" xlink:href="#C1_0_f7854ab06e" y="512.430413"/>
    </g>
    <g clip-path="url(#p0d62f866ee)">
     <use style="fill:#0000ff;fill-opacity:0.4;" x="737.838856" xlink:href="#C1_0_f7854ab06e" y="495.782315"/>
    </g>
    <g clip-path="url(#p0d62f866ee)">
     <use style="fill:#0000ff;fill-opacity:0.4;" x="724.287672" xlink:href="#C1_0_f7854ab06e" y="520.639928"/>
    </g>
    <g clip-path="url(#p0d62f866ee)">
     <use style="fill:#0000ff;fill-opacity:0.4;" x="779.488164" xlink:href="#C1_0_f7854ab06e" y="502.992521"/>
    </g>
    <g clip-path="url(#p0d62f866ee)">
     <use style="fill:#0000ff;fill-opacity:0.4;" x="753.436999" xlink:href="#C1_0_f7854ab06e" y="495.101521"/>
    </g>
    <g clip-path="url(#p0d62f866ee)">
     <use style="fill:#0000ff;fill-opacity:0.4;" x="713.817433" xlink:href="#C1_0_f7854ab06e" y="517.410649"/>
    </g>
    <g clip-path="url(#p0d62f866ee)">
     <use style="fill:#0000ff;fill-opacity:0.4;" x="708.352202" xlink:href="#C1_0_f7854ab06e" y="537.436414"/>
    </g>
    <g clip-path="url(#p0d62f866ee)">
     <use style="fill:#0000ff;fill-opacity:0.4;" x="772.978704" xlink:href="#C1_0_f7854ab06e" y="523.014695"/>
    </g>
    <g clip-path="url(#p0d62f866ee)">
     <use style="fill:#0000ff;fill-opacity:0.4;" x="711.680317" xlink:href="#C1_0_f7854ab06e" y="503.41948"/>
    </g>
    <g clip-path="url(#p0d62f866ee)">
     <use style="fill:#0000ff;fill-opacity:0.4;" x="726.034953" xlink:href="#C1_0_f7854ab06e" y="512.146784"/>
    </g>
    <g clip-path="url(#p0d62f866ee)">
     <use style="fill:#0000ff;fill-opacity:0.4;" x="765.267796" xlink:href="#C1_0_f7854ab06e" y="490.546406"/>
    </g>
    <g clip-path="url(#p0d62f866ee)">
     <use style="fill:#0000ff;fill-opacity:0.4;" x="744.739904" xlink:href="#C1_0_f7854ab06e" y="515.44616"/>
    </g>
    <g clip-path="url(#p0d62f866ee)">
     <use style="fill:#0000ff;fill-opacity:0.4;" x="775.452402" xlink:href="#C1_0_f7854ab06e" y="508.804292"/>
    </g>
    <g clip-path="url(#p0d62f866ee)">
     <use style="fill:#0000ff;fill-opacity:0.4;" x="716.813272" xlink:href="#C1_0_f7854ab06e" y="531.420608"/>
    </g>
    <g clip-path="url(#p0d62f866ee)">
     <use style="fill:#0000ff;fill-opacity:0.4;" x="736.727976" xlink:href="#C1_0_f7854ab06e" y="542.607085"/>
    </g>
    <g clip-path="url(#p0d62f866ee)">
     <use style="fill:#0000ff;fill-opacity:0.4;" x="718.396431" xlink:href="#C1_0_f7854ab06e" y="529.746841"/>
    </g>
    <g clip-path="url(#p0d62f866ee)">
     <use style="fill:#0000ff;fill-opacity:0.4;" x="721.192235" xlink:href="#C1_0_f7854ab06e" y="543.810012"/>
    </g>
    <g clip-path="url(#p0d62f866ee)">
     <use style="fill:#0000ff;fill-opacity:0.4;" x="775.953825" xlink:href="#C1_0_f7854ab06e" y="534.753584"/>
    </g>
    <g clip-path="url(#p0d62f866ee)">
     <use style="fill:#0000ff;fill-opacity:0.4;" x="716.254147" xlink:href="#C1_0_f7854ab06e" y="540.075394"/>
    </g>
    <g clip-path="url(#p0d62f866ee)">
     <use style="fill:#0000ff;fill-opacity:0.4;" x="734.909873" xlink:href="#C1_0_f7854ab06e" y="542.10897"/>
    </g>
    <g clip-path="url(#p0d62f866ee)">
     <use style="fill:#0000ff;fill-opacity:0.4;" x="750.591213" xlink:href="#C1_0_f7854ab06e" y="541.765347"/>
    </g>
    <g clip-path="url(#p0d62f866ee)">
     <use style="fill:#00bfff;fill-opacity:0.4;" x="781.481044" xlink:href="#C1_0_f7854ab06e" y="421.246963"/>
    </g>
    <g clip-path="url(#p0d62f866ee)">
     <use style="fill:#00bfff;fill-opacity:0.4;" x="714.07054" xlink:href="#C1_0_f7854ab06e" y="391.850487"/>
    </g>
    <g clip-path="url(#p0d62f866ee)">
     <use style="fill:#00bfff;fill-opacity:0.4;" x="757.452407" xlink:href="#C1_0_f7854ab06e" y="476.970194"/>
    </g>
    <g clip-path="url(#p0d62f866ee)">
     <use style="fill:#00bfff;fill-opacity:0.4;" x="749.04172" xlink:href="#C1_0_f7854ab06e" y="429.292141"/>
    </g>
    <g clip-path="url(#p0d62f866ee)">
     <use style="fill:#00bfff;fill-opacity:0.4;" x="750.369022" xlink:href="#C1_0_f7854ab06e" y="477.467736"/>
    </g>
    <g clip-path="url(#p0d62f866ee)">
     <use style="fill:#00bfff;fill-opacity:0.4;" x="788.812511" xlink:href="#C1_0_f7854ab06e" y="507.574547"/>
    </g>
    <g clip-path="url(#p0d62f866ee)">
     <use style="fill:#00bfff;fill-opacity:0.4;" x="785.561401" xlink:href="#C1_0_f7854ab06e" y="499.982569"/>
    </g>
    <g clip-path="url(#p0d62f866ee)">
     <use style="fill:#00bfff;fill-opacity:0.4;" x="717.054688" xlink:href="#C1_0_f7854ab06e" y="520.039501"/>
    </g>
    <g clip-path="url(#p0d62f866ee)">
     <use style="fill:#00bfff;fill-opacity:0.4;" x="759.598708" xlink:href="#C1_0_f7854ab06e" y="453.307818"/>
    </g>
    <g clip-path="url(#p0d62f866ee)">
     <use style="fill:#00bfff;fill-opacity:0.4;" x="748.500212" xlink:href="#C1_0_f7854ab06e" y="492.428972"/>
    </g>
    <g clip-path="url(#p0d62f866ee)">
     <use style="fill:#00bfff;fill-opacity:0.4;" x="758.142505" xlink:href="#C1_0_f7854ab06e" y="497.93325"/>
    </g>
    <g clip-path="url(#p0d62f866ee)">
     <use style="fill:#0000ff;fill-opacity:0.4;" x="743.373586" xlink:href="#C1_0_f7854ab06e" y="100.490842"/>
    </g>
    <g clip-path="url(#p0d62f866ee)">
     <use style="fill:#0000ff;fill-opacity:0.4;" x="765.812724" xlink:href="#C1_0_f7854ab06e" y="140.725775"/>
    </g>
    <g clip-path="url(#p0d62f866ee)">
     <use style="fill:#0000ff;fill-opacity:0.4;" x="709.988351" xlink:href="#C1_0_f7854ab06e" y="68.705236"/>
    </g>
    <g clip-path="url(#p0d62f866ee)">
     <use style="fill:#0000ff;fill-opacity:0.4;" x="738.689181" xlink:href="#C1_0_f7854ab06e" y="73.273351"/>
    </g>
    <g clip-path="url(#p0d62f866ee)">
     <use style="fill:#0000ff;fill-opacity:0.4;" x="775.178809" xlink:href="#C1_0_f7854ab06e" y="109.116795"/>
    </g>
    <g clip-path="url(#p0d62f866ee)">
     <use style="fill:#0000ff;fill-opacity:0.4;" x="766.297043" xlink:href="#C1_0_f7854ab06e" y="146.121057"/>
    </g>
    <g clip-path="url(#p0d62f866ee)">
     <use style="fill:#0000ff;fill-opacity:0.4;" x="713.923732" xlink:href="#C1_0_f7854ab06e" y="123.804732"/>
    </g>
    <g clip-path="url(#p0d62f866ee)">
     <use style="fill:#0000ff;fill-opacity:0.4;" x="708.443484" xlink:href="#C1_0_f7854ab06e" y="147.462336"/>
    </g>
    <g clip-path="url(#p0d62f866ee)">
     <use style="fill:#0000ff;fill-opacity:0.4;" x="741.676875" xlink:href="#C1_0_f7854ab06e" y="130.284155"/>
    </g>
    <g clip-path="url(#p0d62f866ee)">
     <use style="fill:#0000ff;fill-opacity:0.4;" x="750.558785" xlink:href="#C1_0_f7854ab06e" y="191.403239"/>
    </g>
    <g clip-path="url(#p0d62f866ee)">
     <use style="fill:#0000ff;fill-opacity:0.4;" x="712.474861" xlink:href="#C1_0_f7854ab06e" y="449.10709"/>
    </g>
    <g clip-path="url(#p0d62f866ee)">
     <use style="fill:#0000ff;fill-opacity:0.4;" x="751.083161" xlink:href="#C1_0_f7854ab06e" y="510.088626"/>
    </g>
    <g clip-path="url(#p0d62f866ee)">
     <use style="fill:#0000ff;fill-opacity:0.4;" x="709.613447" xlink:href="#C1_0_f7854ab06e" y="496.251023"/>
    </g>
    <g clip-path="url(#p0d62f866ee)">
     <use style="fill:#0000ff;fill-opacity:0.4;" x="718.249196" xlink:href="#C1_0_f7854ab06e" y="489.904514"/>
    </g>
    <g clip-path="url(#p0d62f866ee)">
     <use style="fill:#0000ff;fill-opacity:0.4;" x="708.247909" xlink:href="#C1_0_f7854ab06e" y="499.030032"/>
    </g>
    <g clip-path="url(#p0d62f866ee)">
     <use style="fill:#0000ff;fill-opacity:0.4;" x="730.581439" xlink:href="#C1_0_f7854ab06e" y="478.708691"/>
    </g>
    <g clip-path="url(#p0d62f866ee)">
     <use style="fill:#0000ff;fill-opacity:0.4;" x="714.929685" xlink:href="#C1_0_f7854ab06e" y="511.090156"/>
    </g>
    <g clip-path="url(#p0d62f866ee)">
     <use style="fill:#0000ff;fill-opacity:0.4;" x="754.984396" xlink:href="#C1_0_f7854ab06e" y="512.574558"/>
    </g>
    <g clip-path="url(#p0d62f866ee)">
     <use style="fill:#0000ff;fill-opacity:0.4;" x="761.975995" xlink:href="#C1_0_f7854ab06e" y="511.62757"/>
    </g>
    <g clip-path="url(#p0d62f866ee)">
     <use style="fill:#0000ff;fill-opacity:0.4;" x="773.582507" xlink:href="#C1_0_f7854ab06e" y="523.677773"/>
    </g>
    <g clip-path="url(#p0d62f866ee)">
     <use style="fill:#0000ff;fill-opacity:0.4;" x="737.02684" xlink:href="#C1_0_f7854ab06e" y="508.984004"/>
    </g>
   </g>
   <g id="line2d_21">
    <defs>
     <path d="M 0 5 
C 1.326016 5 2.597899 4.473168 3.535534 3.535534 
C 4.473168 2.597899 5 1.326016 5 0 
C 5 -1.326016 4.473168 -2.597899 3.535534 -3.535534 
C 2.597899 -4.473168 1.326016 -5 0 -5 
C -1.326016 -5 -2.597899 -4.473168 -3.535534 -3.535534 
C -4.473168 -2.597899 -5 -1.326016 -5 0 
C -5 1.326016 -4.473168 2.597899 -3.535534 3.535534 
C -2.597899 4.473168 -1.326016 5 0 5 
z
" id="mdd73a0870f" style="stroke:#2ca02c;"/>
    </defs>
    <g clip-path="url(#p0d62f866ee)">
     <use style="fill:#ff8c00;stroke:#2ca02c;" x="267.19375" xlink:href="#mdd73a0870f" y="472.689996"/>
    </g>
   </g>
   <g id="line2d_22">
    <g clip-path="url(#p0d62f866ee)">
     <use style="fill:#ff8c00;stroke:#2ca02c;" x="685.69375" xlink:href="#mdd73a0870f" y="506.892758"/>
    </g>
   </g>
   <g id="text_12">
    <!-- ns -->
    <g transform="translate(470.670313 14.798437)scale(0.1 -0.1)">
     <use xlink:href="#DejaVuSans-6e"/>
     <use x="63.378906" xlink:href="#DejaVuSans-73"/>
    </g>
   </g>
   <g id="patch_5">
    <path clip-path="url(#p0d62f866ee)" d="M 214.88125 518.63757 
L 319.50625 518.63757 
L 319.50625 483.329448 
L 214.88125 483.329448 
L 214.88125 518.63757 
z
" style="fill:none;stroke:#3f3f3f;stroke-linejoin:miter;stroke-width:3;"/>
   </g>
   <g id="patch_6">
    <path clip-path="url(#p0d62f866ee)" d="M 633.38125 527.401049 
L 738.00625 527.401049 
L 738.00625 489.165996 
L 633.38125 489.165996 
L 633.38125 527.401049 
z
" style="fill:none;stroke:#3f3f3f;stroke-linejoin:miter;stroke-width:3;"/>
   </g>
  </g>
 </g>
 <defs>
  <clipPath id="pa0ca46e398">
   <rect height="478.749431" width="95.395514" x="171.798236" y="69.767216"/>
  </clipPath>
  <clipPath id="p53baf382e2">
   <rect height="141.252482" width="167.4" x="518.29375" y="422.696552"/>
  </clipPath>
  <clipPath id="p0d62f866ee">
   <rect height="543.6" width="837" x="57.94375" y="45.058125"/>
  </clipPath>
 </defs>
</svg>
