<?xml version="1.0" encoding="utf-8" standalone="no"?>
<!DOCTYPE svg PUBLIC "-//W3C//DTD SVG 1.1//EN"
  "http://www.w3.org/Graphics/SVG/1.1/DTD/svg11.dtd">
<svg height="642.031563pt" version="1.1" viewBox="0 0 906.910937 642.031563" width="906.910937pt" xmlns="http://www.w3.org/2000/svg" xmlns:xlink="http://www.w3.org/1999/xlink">
 <metadata>
  <rdf:RDF xmlns:cc="http://creativecommons.org/ns#" xmlns:dc="http://purl.org/dc/elements/1.1/" xmlns:rdf="http://www.w3.org/1999/02/22-rdf-syntax-ns#">
   <cc:Work>
    <dc:type rdf:resource="http://purl.org/dc/dcmitype/StillImage"/>
    <dc:date>2022-06-23T11:04:02.911527</dc:date>
    <dc:format>image/svg+xml</dc:format>
    <dc:creator>
     <cc:Agent>
      <dc:title>Matplotlib v3.4.3, https://matplotlib.org/</dc:title>
     </cc:Agent>
    </dc:creator>
   </cc:Work>
  </rdf:RDF>
 </metadata>
 <defs>
  <style type="text/css">*{stroke-linecap:butt;stroke-linejoin:round;}</style>
 </defs>
 <g id="figure_1">
  <g id="patch_1">
   <path d="M 0 642.031563 
L 906.910937 642.031563 
L 906.910937 0 
L 0 0 
z
" style="fill:none;"/>
  </g>
  <g id="axes_1">
   <g id="patch_2">
    <path d="M 62.710938 588.658125 
L 899.710938 588.658125 
L 899.710938 45.058125 
L 62.710938 45.058125 
z
" style="fill:#ffffff;"/>
   </g>
   <g id="PolyCollection_1">
    <defs>
     <path d="M 283.553133 -78.082528 
L 260.368742 -78.082528 
L 260.395938 -83.074264 
L 260.572409 -88.065999 
L 260.891344 -93.057735 
L 261.340612 -98.049471 
L 261.903528 -103.041206 
L 262.559882 -108.032942 
L 263.287139 -113.024677 
L 264.061716 -118.016413 
L 264.86023 -123.008148 
L 265.660635 -127.999884 
L 266.443165 -132.991619 
L 267.191038 -137.983355 
L 267.890902 -142.97509 
L 268.533007 -147.966826 
L 269.111146 -152.958561 
L 269.622391 -157.950297 
L 270.066676 -162.942033 
L 270.446284 -167.933768 
L 270.765294 -172.925504 
L 271.029022 -177.917239 
L 271.243509 -182.908975 
L 271.415071 -187.90071 
L 271.549932 -192.892446 
L 271.653942 -197.884181 
L 271.732379 -202.875917 
L 271.789829 -207.867652 
L 271.830122 -212.859388 
L 271.85633 -217.851123 
L 271.870784 -222.842859 
L 271.875133 -227.834595 
L 271.870399 -232.82633 
L 271.857055 -237.818066 
L 271.835091 -242.809801 
L 271.804085 -247.801537 
L 271.763265 -252.793272 
L 271.71157 -257.785008 
L 271.647694 -262.776743 
L 271.570131 -267.768479 
L 271.477201 -272.760214 
L 271.367063 -277.75195 
L 271.237711 -282.743685 
L 271.086939 -287.735421 
L 270.912284 -292.727157 
L 270.710929 -297.718892 
L 270.479562 -302.710628 
L 270.2142 -307.702363 
L 269.909956 -312.694099 
L 269.560768 -317.685834 
L 269.159087 -322.67757 
L 268.695533 -327.669305 
L 268.158541 -332.661041 
L 267.534014 -337.652776 
L 266.805016 -342.644512 
L 265.951543 -347.636247 
L 264.95041 -352.627983 
L 263.775309 -357.619718 
L 262.397072 -362.611454 
L 260.784199 -367.60319 
L 258.903665 -372.594925 
L 256.722061 -377.586661 
L 254.207026 -382.578396 
L 251.329 -387.570132 
L 248.063203 -392.561867 
L 244.391798 -397.553603 
L 240.306115 -402.545338 
L 235.808814 -407.537074 
L 230.915848 -412.528809 
L 225.658063 -417.520545 
L 220.082302 -422.51228 
L 214.251869 -427.504016 
L 208.246249 -432.495752 
L 202.160018 -437.487487 
L 196.100906 -442.479223 
L 190.187057 -447.470958 
L 184.543537 -452.462694 
L 179.298235 -457.454429 
L 174.577315 -462.446165 
L 170.500442 -467.4379 
L 167.17599 -472.429636 
L 164.696509 -477.421371 
L 163.134675 -482.413107 
L 162.539962 -487.404842 
L 162.936237 -492.396578 
L 164.32043 -497.388314 
L 166.662371 -502.380049 
L 169.905842 -507.371785 
L 173.970787 -512.36352 
L 178.756582 -517.355256 
L 184.146184 -522.346991 
L 190.010935 -527.338727 
L 196.21574 -532.330462 
L 202.624337 -537.322198 
L 209.104357 -542.313933 
L 215.531921 -547.305669 
L 221.795521 -552.297404 
L 227.799038 -557.28914 
L 233.463781 -562.280876 
L 238.729511 -567.272611 
L 243.55451 -572.264347 
L 300.367365 -572.264347 
L 300.367365 -572.264347 
L 305.192364 -567.272611 
L 310.458094 -562.280876 
L 316.122837 -557.28914 
L 322.126354 -552.297404 
L 328.389954 -547.305669 
L 334.817518 -542.313933 
L 341.297538 -537.322198 
L 347.706135 -532.330462 
L 353.91094 -527.338727 
L 359.775691 -522.346991 
L 365.165293 -517.355256 
L 369.951088 -512.36352 
L 374.016033 -507.371785 
L 377.259504 -502.380049 
L 379.601445 -497.388314 
L 380.985638 -492.396578 
L 381.381913 -487.404842 
L 380.7872 -482.413107 
L 379.225366 -477.421371 
L 376.745885 -472.429636 
L 373.421433 -467.4379 
L 369.34456 -462.446165 
L 364.62364 -457.454429 
L 359.378338 -452.462694 
L 353.734818 -447.470958 
L 347.820969 -442.479223 
L 341.761857 -437.487487 
L 335.675626 -432.495752 
L 329.670006 -427.504016 
L 323.839573 -422.51228 
L 318.263812 -417.520545 
L 313.006027 -412.528809 
L 308.113061 -407.537074 
L 303.61576 -402.545338 
L 299.530077 -397.553603 
L 295.858672 -392.561867 
L 292.592875 -387.570132 
L 289.714849 -382.578396 
L 287.199814 -377.586661 
L 285.01821 -372.594925 
L 283.137676 -367.60319 
L 281.524803 -362.611454 
L 280.146566 -357.619718 
L 278.971465 -352.627983 
L 277.970332 -347.636247 
L 277.116859 -342.644512 
L 276.387861 -337.652776 
L 275.763334 -332.661041 
L 275.226342 -327.669305 
L 274.762788 -322.67757 
L 274.361107 -317.685834 
L 274.011919 -312.694099 
L 273.707675 -307.702363 
L 273.442313 -302.710628 
L 273.210946 -297.718892 
L 273.009591 -292.727157 
L 272.834936 -287.735421 
L 272.684164 -282.743685 
L 272.554812 -277.75195 
L 272.444674 -272.760214 
L 272.351744 -267.768479 
L 272.274181 -262.776743 
L 272.210305 -257.785008 
L 272.15861 -252.793272 
L 272.11779 -247.801537 
L 272.086784 -242.809801 
L 272.06482 -237.818066 
L 272.051476 -232.82633 
L 272.046742 -227.834595 
L 272.051091 -222.842859 
L 272.065545 -217.851123 
L 272.091753 -212.859388 
L 272.132046 -207.867652 
L 272.189496 -202.875917 
L 272.267933 -197.884181 
L 272.371943 -192.892446 
L 272.506804 -187.90071 
L 272.678366 -182.908975 
L 272.892853 -177.917239 
L 273.156581 -172.925504 
L 273.475591 -167.933768 
L 273.855199 -162.942033 
L 274.299484 -157.950297 
L 274.810729 -152.958561 
L 275.388868 -147.966826 
L 276.030973 -142.97509 
L 276.730837 -137.983355 
L 277.47871 -132.991619 
L 278.26124 -127.999884 
L 279.061645 -123.008148 
L 279.860159 -118.016413 
L 280.634736 -113.024677 
L 281.361993 -108.032942 
L 282.018347 -103.041206 
L 282.581263 -98.049471 
L 283.030531 -93.057735 
L 283.349466 -88.065999 
L 283.525937 -83.074264 
L 283.553133 -78.082528 
z
" id="me43ba2426d" style="stroke:#303030;stroke-width:2;"/>
    </defs>
    <g clip-path="url(#p49184f1ccb)">
     <use style="fill:#692c75;stroke:#303030;stroke-width:2;" x="0" xlink:href="#me43ba2426d" y="642.031563"/>
    </g>
   </g>
   <g id="PolyCollection_2">
    <defs>
     <path d="M 694.872909 -350.075507 
L 686.048966 -350.075507 
L 686.01333 -352.155673 
L 686.032795 -354.23584 
L 686.090944 -356.316006 
L 686.165882 -358.396172 
L 686.231743 -360.476338 
L 686.260577 -362.556504 
L 686.224387 -364.63667 
L 686.097088 -366.716837 
L 685.856132 -368.797003 
L 685.483637 -370.877169 
L 684.966861 -372.957335 
L 684.297995 -375.037501 
L 683.473318 -377.117667 
L 682.491851 -379.197833 
L 681.35374 -381.278 
L 680.058646 -383.358166 
L 678.60443 -385.438332 
L 676.986404 -387.518498 
L 675.197312 -389.598664 
L 673.228101 -391.67883 
L 671.069355 -393.758997 
L 668.713162 -395.839163 
L 666.155027 -397.919329 
L 663.395452 -399.999495 
L 660.440794 -402.079661 
L 657.303202 -404.159827 
L 653.999568 -406.239993 
L 650.549686 -408.32016 
L 646.973961 -410.400326 
L 643.291162 -412.480492 
L 639.516657 -414.560658 
L 635.661528 -416.640824 
L 631.732703 -418.72099 
L 627.734023 -420.801157 
L 623.66794 -422.881323 
L 619.537352 -424.961489 
L 615.347076 -427.041655 
L 611.104515 -429.121821 
L 606.819296 -431.201987 
L 602.501915 -433.282154 
L 598.161687 -435.36232 
L 593.804509 -437.442486 
L 589.431062 -439.522652 
L 585.03602 -441.602818 
L 580.608679 -443.682984 
L 576.135178 -445.76315 
L 571.602147 -447.843317 
L 567.001385 -449.923483 
L 562.334889 -452.003649 
L 557.619516 -454.083815 
L 552.890506 -456.163981 
L 548.20326 -458.244147 
L 543.632958 -460.324314 
L 539.271861 -462.40448 
L 535.224429 -464.484646 
L 531.600621 -466.564812 
L 528.50798 -468.644978 
L 526.043226 -470.725144 
L 524.2842 -472.80531 
L 523.282978 -474.885477 
L 523.060938 -476.965643 
L 523.606401 -479.045809 
L 524.87528 -481.125975 
L 526.79481 -483.206141 
L 529.270159 -485.286307 
L 532.193292 -487.366474 
L 535.453146 -489.44664 
L 538.945949 -491.526806 
L 542.584398 -493.606972 
L 546.304549 -495.687138 
L 550.06956 -497.767304 
L 553.869866 -499.84747 
L 557.719942 -501.927637 
L 561.652298 -504.007803 
L 565.70975 -506.087969 
L 569.937227 -508.168135 
L 574.374321 -510.248301 
L 579.049523 -512.328467 
L 583.97669 -514.408634 
L 589.153819 -516.4888 
L 594.563781 -518.568966 
L 600.176399 -520.649132 
L 605.951156 -522.729298 
L 611.839912 -524.809464 
L 617.789211 -526.88963 
L 623.742061 -528.969797 
L 629.639293 -531.049963 
L 635.420789 -533.130129 
L 641.026877 -535.210295 
L 646.400136 -537.290461 
L 651.487637 -539.370627 
L 656.243502 -541.450794 
L 660.631435 -543.53096 
L 664.626851 -545.611126 
L 668.218193 -547.691292 
L 671.407185 -549.771458 
L 674.207902 -551.851624 
L 676.644784 -553.931791 
L 678.749862 -556.011957 
L 702.172013 -556.011957 
L 702.172013 -556.011957 
L 704.277091 -553.931791 
L 706.713973 -551.851624 
L 709.51469 -549.771458 
L 712.703682 -547.691292 
L 716.295024 -545.611126 
L 720.29044 -543.53096 
L 724.678373 -541.450794 
L 729.434238 -539.370627 
L 734.521739 -537.290461 
L 739.894998 -535.210295 
L 745.501086 -533.130129 
L 751.282582 -531.049963 
L 757.179814 -528.969797 
L 763.132664 -526.88963 
L 769.081963 -524.809464 
L 774.970719 -522.729298 
L 780.745476 -520.649132 
L 786.358094 -518.568966 
L 791.768056 -516.4888 
L 796.945185 -514.408634 
L 801.872352 -512.328467 
L 806.547554 -510.248301 
L 810.984648 -508.168135 
L 815.212125 -506.087969 
L 819.269577 -504.007803 
L 823.201933 -501.927637 
L 827.052009 -499.84747 
L 830.852315 -497.767304 
L 834.617326 -495.687138 
L 838.337477 -493.606972 
L 841.975926 -491.526806 
L 845.468729 -489.44664 
L 848.728583 -487.366474 
L 851.651716 -485.286307 
L 854.127065 -483.206141 
L 856.046595 -481.125975 
L 857.315474 -479.045809 
L 857.860937 -476.965643 
L 857.638897 -474.885477 
L 856.637675 -472.80531 
L 854.878649 -470.725144 
L 852.413895 -468.644978 
L 849.321254 -466.564812 
L 845.697446 -464.484646 
L 841.650014 -462.40448 
L 837.288917 -460.324314 
L 832.718615 -458.244147 
L 828.031369 -456.163981 
L 823.302359 -454.083815 
L 818.586986 -452.003649 
L 813.92049 -449.923483 
L 809.319728 -447.843317 
L 804.786697 -445.76315 
L 800.313196 -443.682984 
L 795.885855 -441.602818 
L 791.490813 -439.522652 
L 787.117366 -437.442486 
L 782.760188 -435.36232 
L 778.41996 -433.282154 
L 774.102579 -431.201987 
L 769.81736 -429.121821 
L 765.574799 -427.041655 
L 761.384523 -424.961489 
L 757.253935 -422.881323 
L 753.187852 -420.801157 
L 749.189172 -418.72099 
L 745.260347 -416.640824 
L 741.405218 -414.560658 
L 737.630713 -412.480492 
L 733.947914 -410.400326 
L 730.372189 -408.32016 
L 726.922307 -406.239993 
L 723.618673 -404.159827 
L 720.481081 -402.079661 
L 717.526423 -399.999495 
L 714.766848 -397.919329 
L 712.208713 -395.839163 
L 709.85252 -393.758997 
L 707.693774 -391.67883 
L 705.724563 -389.598664 
L 703.935471 -387.518498 
L 702.317445 -385.438332 
L 700.863229 -383.358166 
L 699.568135 -381.278 
L 698.430024 -379.197833 
L 697.448557 -377.117667 
L 696.62388 -375.037501 
L 695.955014 -372.957335 
L 695.438238 -370.877169 
L 695.065743 -368.797003 
L 694.824787 -366.716837 
L 694.697488 -364.63667 
L 694.661298 -362.556504 
L 694.690132 -360.476338 
L 694.755993 -358.396172 
L 694.830931 -356.316006 
L 694.88908 -354.23584 
L 694.908545 -352.155673 
L 694.872909 -350.075507 
z
" id="m2f54424297" style="stroke:#303030;stroke-width:2;"/>
    </defs>
    <g clip-path="url(#p05e84f92d6)">
     <use style="fill:#de7270;stroke:#303030;stroke-width:2;" x="0" xlink:href="#m2f54424297" y="642.031563"/>
    </g>
   </g>
   <g id="PathCollection_1"/>
   <g id="PathCollection_2"/>
   <g id="PathCollection_3"/>
   <g id="PathCollection_4"/>
   <g id="PathCollection_5"/>
   <g id="PathCollection_6"/>
   <g id="PathCollection_7"/>
   <g id="PathCollection_8"/>
   <g id="PathCollection_9"/>
   <g id="PathCollection_10"/>
   <g id="PathCollection_11"/>
   <g id="PathCollection_12"/>
   <g id="PathCollection_13"/>
   <g id="PathCollection_14"/>
   <g id="PathCollection_15"/>
   <g id="PathCollection_16"/>
   <g id="PathCollection_17"/>
   <g id="PathCollection_18"/>
   <g id="PathCollection_19"/>
   <g id="PathCollection_20"/>
   <g id="PathCollection_21"/>
   <g id="PathCollection_22"/>
   <g id="matplotlib.axis_1">
    <g id="xtick_1">
     <g id="line2d_1">
      <defs>
       <path d="M 0 0 
L 0 4.8 
" id="mb088d6f22b" style="stroke:#000000;"/>
      </defs>
      <g>
       <use style="stroke:#000000;" x="271.960938" xlink:href="#mb088d6f22b" y="588.658125"/>
      </g>
     </g>
     <g id="text_1">
      <!-- NoReward -->
      <g transform="translate(233.829297 608.355781)scale(0.15 -0.15)">
       <defs>
        <path d="M 628 4666 
L 1478 4666 
L 3547 763 
L 3547 4666 
L 4159 4666 
L 4159 0 
L 3309 0 
L 1241 3903 
L 1241 0 
L 628 0 
L 628 4666 
z
" id="DejaVuSans-4e" transform="scale(0.015625)"/>
        <path d="M 1959 3097 
Q 1497 3097 1228 2736 
Q 959 2375 959 1747 
Q 959 1119 1226 758 
Q 1494 397 1959 397 
Q 2419 397 2687 759 
Q 2956 1122 2956 1747 
Q 2956 2369 2687 2733 
Q 2419 3097 1959 3097 
z
M 1959 3584 
Q 2709 3584 3137 3096 
Q 3566 2609 3566 1747 
Q 3566 888 3137 398 
Q 2709 -91 1959 -91 
Q 1206 -91 779 398 
Q 353 888 353 1747 
Q 353 2609 779 3096 
Q 1206 3584 1959 3584 
z
" id="DejaVuSans-6f" transform="scale(0.015625)"/>
        <path d="M 2841 2188 
Q 3044 2119 3236 1894 
Q 3428 1669 3622 1275 
L 4263 0 
L 3584 0 
L 2988 1197 
Q 2756 1666 2539 1819 
Q 2322 1972 1947 1972 
L 1259 1972 
L 1259 0 
L 628 0 
L 628 4666 
L 2053 4666 
Q 2853 4666 3247 4331 
Q 3641 3997 3641 3322 
Q 3641 2881 3436 2590 
Q 3231 2300 2841 2188 
z
M 1259 4147 
L 1259 2491 
L 2053 2491 
Q 2509 2491 2742 2702 
Q 2975 2913 2975 3322 
Q 2975 3731 2742 3939 
Q 2509 4147 2053 4147 
L 1259 4147 
z
" id="DejaVuSans-52" transform="scale(0.015625)"/>
        <path d="M 3597 1894 
L 3597 1613 
L 953 1613 
Q 991 1019 1311 708 
Q 1631 397 2203 397 
Q 2534 397 2845 478 
Q 3156 559 3463 722 
L 3463 178 
Q 3153 47 2828 -22 
Q 2503 -91 2169 -91 
Q 1331 -91 842 396 
Q 353 884 353 1716 
Q 353 2575 817 3079 
Q 1281 3584 2069 3584 
Q 2775 3584 3186 3129 
Q 3597 2675 3597 1894 
z
M 3022 2063 
Q 3016 2534 2758 2815 
Q 2500 3097 2075 3097 
Q 1594 3097 1305 2825 
Q 1016 2553 972 2059 
L 3022 2063 
z
" id="DejaVuSans-65" transform="scale(0.015625)"/>
        <path d="M 269 3500 
L 844 3500 
L 1563 769 
L 2278 3500 
L 2956 3500 
L 3675 769 
L 4391 3500 
L 4966 3500 
L 4050 0 
L 3372 0 
L 2619 2869 
L 1863 0 
L 1184 0 
L 269 3500 
z
" id="DejaVuSans-77" transform="scale(0.015625)"/>
        <path d="M 2194 1759 
Q 1497 1759 1228 1600 
Q 959 1441 959 1056 
Q 959 750 1161 570 
Q 1363 391 1709 391 
Q 2188 391 2477 730 
Q 2766 1069 2766 1631 
L 2766 1759 
L 2194 1759 
z
M 3341 1997 
L 3341 0 
L 2766 0 
L 2766 531 
Q 2569 213 2275 61 
Q 1981 -91 1556 -91 
Q 1019 -91 701 211 
Q 384 513 384 1019 
Q 384 1609 779 1909 
Q 1175 2209 1959 2209 
L 2766 2209 
L 2766 2266 
Q 2766 2663 2505 2880 
Q 2244 3097 1772 3097 
Q 1472 3097 1187 3025 
Q 903 2953 641 2809 
L 641 3341 
Q 956 3463 1253 3523 
Q 1550 3584 1831 3584 
Q 2591 3584 2966 3190 
Q 3341 2797 3341 1997 
z
" id="DejaVuSans-61" transform="scale(0.015625)"/>
        <path d="M 2631 2963 
Q 2534 3019 2420 3045 
Q 2306 3072 2169 3072 
Q 1681 3072 1420 2755 
Q 1159 2438 1159 1844 
L 1159 0 
L 581 0 
L 581 3500 
L 1159 3500 
L 1159 2956 
Q 1341 3275 1631 3429 
Q 1922 3584 2338 3584 
Q 2397 3584 2469 3576 
Q 2541 3569 2628 3553 
L 2631 2963 
z
" id="DejaVuSans-72" transform="scale(0.015625)"/>
        <path d="M 2906 2969 
L 2906 4863 
L 3481 4863 
L 3481 0 
L 2906 0 
L 2906 525 
Q 2725 213 2448 61 
Q 2172 -91 1784 -91 
Q 1150 -91 751 415 
Q 353 922 353 1747 
Q 353 2572 751 3078 
Q 1150 3584 1784 3584 
Q 2172 3584 2448 3432 
Q 2725 3281 2906 2969 
z
M 947 1747 
Q 947 1113 1208 752 
Q 1469 391 1925 391 
Q 2381 391 2643 752 
Q 2906 1113 2906 1747 
Q 2906 2381 2643 2742 
Q 2381 3103 1925 3103 
Q 1469 3103 1208 2742 
Q 947 2381 947 1747 
z
" id="DejaVuSans-64" transform="scale(0.015625)"/>
       </defs>
       <use xlink:href="#DejaVuSans-4e"/>
       <use x="74.804688" xlink:href="#DejaVuSans-6f"/>
       <use x="135.986328" xlink:href="#DejaVuSans-52"/>
       <use x="200.96875" xlink:href="#DejaVuSans-65"/>
       <use x="262.492188" xlink:href="#DejaVuSans-77"/>
       <use x="344.279297" xlink:href="#DejaVuSans-61"/>
       <use x="405.558594" xlink:href="#DejaVuSans-72"/>
       <use x="444.921875" xlink:href="#DejaVuSans-64"/>
      </g>
     </g>
    </g>
    <g id="xtick_2">
     <g id="line2d_2">
      <g>
       <use style="stroke:#000000;" x="690.460938" xlink:href="#mb088d6f22b" y="588.658125"/>
      </g>
     </g>
     <g id="text_2">
      <!-- Reward -->
      <g transform="translate(662.529297 608.355781)scale(0.15 -0.15)">
       <use xlink:href="#DejaVuSans-52"/>
       <use x="64.982422" xlink:href="#DejaVuSans-65"/>
       <use x="126.505859" xlink:href="#DejaVuSans-77"/>
       <use x="208.292969" xlink:href="#DejaVuSans-61"/>
       <use x="269.572266" xlink:href="#DejaVuSans-72"/>
       <use x="308.935547" xlink:href="#DejaVuSans-64"/>
      </g>
     </g>
    </g>
    <g id="text_3">
     <!-- Group -->
     <g transform="translate(450.771875 630.672188)scale(0.2 -0.2)">
      <defs>
       <path d="M 3809 666 
L 3809 1919 
L 2778 1919 
L 2778 2438 
L 4434 2438 
L 4434 434 
Q 4069 175 3628 42 
Q 3188 -91 2688 -91 
Q 1594 -91 976 548 
Q 359 1188 359 2328 
Q 359 3472 976 4111 
Q 1594 4750 2688 4750 
Q 3144 4750 3555 4637 
Q 3966 4525 4313 4306 
L 4313 3634 
Q 3963 3931 3569 4081 
Q 3175 4231 2741 4231 
Q 1884 4231 1454 3753 
Q 1025 3275 1025 2328 
Q 1025 1384 1454 906 
Q 1884 428 2741 428 
Q 3075 428 3337 486 
Q 3600 544 3809 666 
z
" id="DejaVuSans-47" transform="scale(0.015625)"/>
       <path d="M 544 1381 
L 544 3500 
L 1119 3500 
L 1119 1403 
Q 1119 906 1312 657 
Q 1506 409 1894 409 
Q 2359 409 2629 706 
Q 2900 1003 2900 1516 
L 2900 3500 
L 3475 3500 
L 3475 0 
L 2900 0 
L 2900 538 
Q 2691 219 2414 64 
Q 2138 -91 1772 -91 
Q 1169 -91 856 284 
Q 544 659 544 1381 
z
M 1991 3584 
L 1991 3584 
z
" id="DejaVuSans-75" transform="scale(0.015625)"/>
       <path d="M 1159 525 
L 1159 -1331 
L 581 -1331 
L 581 3500 
L 1159 3500 
L 1159 2969 
Q 1341 3281 1617 3432 
Q 1894 3584 2278 3584 
Q 2916 3584 3314 3078 
Q 3713 2572 3713 1747 
Q 3713 922 3314 415 
Q 2916 -91 2278 -91 
Q 1894 -91 1617 61 
Q 1341 213 1159 525 
z
M 3116 1747 
Q 3116 2381 2855 2742 
Q 2594 3103 2138 3103 
Q 1681 3103 1420 2742 
Q 1159 2381 1159 1747 
Q 1159 1113 1420 752 
Q 1681 391 2138 391 
Q 2594 391 2855 752 
Q 3116 1113 3116 1747 
z
" id="DejaVuSans-70" transform="scale(0.015625)"/>
      </defs>
      <use xlink:href="#DejaVuSans-47"/>
      <use x="77.490234" xlink:href="#DejaVuSans-72"/>
      <use x="116.353516" xlink:href="#DejaVuSans-6f"/>
      <use x="177.535156" xlink:href="#DejaVuSans-75"/>
      <use x="240.914062" xlink:href="#DejaVuSans-70"/>
     </g>
    </g>
   </g>
   <g id="matplotlib.axis_2">
    <g id="ytick_1">
     <g id="line2d_3">
      <defs>
       <path d="M 0 0 
L -4.8 0 
" id="m612c9eaa6e" style="stroke:#000000;"/>
      </defs>
      <g>
       <use style="stroke:#000000;" x="62.710938" xlink:href="#m612c9eaa6e" y="561.467227"/>
      </g>
     </g>
     <g id="text_4">
      <!-- 0.0 -->
      <g transform="translate(30.55625 567.166055)scale(0.15 -0.15)">
       <defs>
        <path d="M 2034 4250 
Q 1547 4250 1301 3770 
Q 1056 3291 1056 2328 
Q 1056 1369 1301 889 
Q 1547 409 2034 409 
Q 2525 409 2770 889 
Q 3016 1369 3016 2328 
Q 3016 3291 2770 3770 
Q 2525 4250 2034 4250 
z
M 2034 4750 
Q 2819 4750 3233 4129 
Q 3647 3509 3647 2328 
Q 3647 1150 3233 529 
Q 2819 -91 2034 -91 
Q 1250 -91 836 529 
Q 422 1150 422 2328 
Q 422 3509 836 4129 
Q 1250 4750 2034 4750 
z
" id="DejaVuSans-30" transform="scale(0.015625)"/>
        <path d="M 684 794 
L 1344 794 
L 1344 0 
L 684 0 
L 684 794 
z
" id="DejaVuSans-2e" transform="scale(0.015625)"/>
       </defs>
       <use xlink:href="#DejaVuSans-30"/>
       <use x="63.623047" xlink:href="#DejaVuSans-2e"/>
       <use x="95.410156" xlink:href="#DejaVuSans-30"/>
      </g>
     </g>
    </g>
    <g id="ytick_2">
     <g id="line2d_4">
      <g>
       <use style="stroke:#000000;" x="62.710938" xlink:href="#m612c9eaa6e" y="476.277962"/>
      </g>
     </g>
     <g id="text_5">
      <!-- 0.2 -->
      <g transform="translate(30.55625 481.97679)scale(0.15 -0.15)">
       <defs>
        <path d="M 1228 531 
L 3431 531 
L 3431 0 
L 469 0 
L 469 531 
Q 828 903 1448 1529 
Q 2069 2156 2228 2338 
Q 2531 2678 2651 2914 
Q 2772 3150 2772 3378 
Q 2772 3750 2511 3984 
Q 2250 4219 1831 4219 
Q 1534 4219 1204 4116 
Q 875 4013 500 3803 
L 500 4441 
Q 881 4594 1212 4672 
Q 1544 4750 1819 4750 
Q 2544 4750 2975 4387 
Q 3406 4025 3406 3419 
Q 3406 3131 3298 2873 
Q 3191 2616 2906 2266 
Q 2828 2175 2409 1742 
Q 1991 1309 1228 531 
z
" id="DejaVuSans-32" transform="scale(0.015625)"/>
       </defs>
       <use xlink:href="#DejaVuSans-30"/>
       <use x="63.623047" xlink:href="#DejaVuSans-2e"/>
       <use x="95.410156" xlink:href="#DejaVuSans-32"/>
      </g>
     </g>
    </g>
    <g id="ytick_3">
     <g id="line2d_5">
      <g>
       <use style="stroke:#000000;" x="62.710938" xlink:href="#m612c9eaa6e" y="391.088697"/>
      </g>
     </g>
     <g id="text_6">
      <!-- 0.4 -->
      <g transform="translate(30.55625 396.787525)scale(0.15 -0.15)">
       <defs>
        <path d="M 2419 4116 
L 825 1625 
L 2419 1625 
L 2419 4116 
z
M 2253 4666 
L 3047 4666 
L 3047 1625 
L 3713 1625 
L 3713 1100 
L 3047 1100 
L 3047 0 
L 2419 0 
L 2419 1100 
L 313 1100 
L 313 1709 
L 2253 4666 
z
" id="DejaVuSans-34" transform="scale(0.015625)"/>
       </defs>
       <use xlink:href="#DejaVuSans-30"/>
       <use x="63.623047" xlink:href="#DejaVuSans-2e"/>
       <use x="95.410156" xlink:href="#DejaVuSans-34"/>
      </g>
     </g>
    </g>
    <g id="ytick_4">
     <g id="line2d_6">
      <g>
       <use style="stroke:#000000;" x="62.710938" xlink:href="#m612c9eaa6e" y="305.899431"/>
      </g>
     </g>
     <g id="text_7">
      <!-- 0.6 -->
      <g transform="translate(30.55625 311.598259)scale(0.15 -0.15)">
       <defs>
        <path d="M 2113 2584 
Q 1688 2584 1439 2293 
Q 1191 2003 1191 1497 
Q 1191 994 1439 701 
Q 1688 409 2113 409 
Q 2538 409 2786 701 
Q 3034 994 3034 1497 
Q 3034 2003 2786 2293 
Q 2538 2584 2113 2584 
z
M 3366 4563 
L 3366 3988 
Q 3128 4100 2886 4159 
Q 2644 4219 2406 4219 
Q 1781 4219 1451 3797 
Q 1122 3375 1075 2522 
Q 1259 2794 1537 2939 
Q 1816 3084 2150 3084 
Q 2853 3084 3261 2657 
Q 3669 2231 3669 1497 
Q 3669 778 3244 343 
Q 2819 -91 2113 -91 
Q 1303 -91 875 529 
Q 447 1150 447 2328 
Q 447 3434 972 4092 
Q 1497 4750 2381 4750 
Q 2619 4750 2861 4703 
Q 3103 4656 3366 4563 
z
" id="DejaVuSans-36" transform="scale(0.015625)"/>
       </defs>
       <use xlink:href="#DejaVuSans-30"/>
       <use x="63.623047" xlink:href="#DejaVuSans-2e"/>
       <use x="95.410156" xlink:href="#DejaVuSans-36"/>
      </g>
     </g>
    </g>
    <g id="ytick_5">
     <g id="line2d_7">
      <g>
       <use style="stroke:#000000;" x="62.710938" xlink:href="#m612c9eaa6e" y="220.710166"/>
      </g>
     </g>
     <g id="text_8">
      <!-- 0.8 -->
      <g transform="translate(30.55625 226.408994)scale(0.15 -0.15)">
       <defs>
        <path d="M 2034 2216 
Q 1584 2216 1326 1975 
Q 1069 1734 1069 1313 
Q 1069 891 1326 650 
Q 1584 409 2034 409 
Q 2484 409 2743 651 
Q 3003 894 3003 1313 
Q 3003 1734 2745 1975 
Q 2488 2216 2034 2216 
z
M 1403 2484 
Q 997 2584 770 2862 
Q 544 3141 544 3541 
Q 544 4100 942 4425 
Q 1341 4750 2034 4750 
Q 2731 4750 3128 4425 
Q 3525 4100 3525 3541 
Q 3525 3141 3298 2862 
Q 3072 2584 2669 2484 
Q 3125 2378 3379 2068 
Q 3634 1759 3634 1313 
Q 3634 634 3220 271 
Q 2806 -91 2034 -91 
Q 1263 -91 848 271 
Q 434 634 434 1313 
Q 434 1759 690 2068 
Q 947 2378 1403 2484 
z
M 1172 3481 
Q 1172 3119 1398 2916 
Q 1625 2713 2034 2713 
Q 2441 2713 2670 2916 
Q 2900 3119 2900 3481 
Q 2900 3844 2670 4047 
Q 2441 4250 2034 4250 
Q 1625 4250 1398 4047 
Q 1172 3844 1172 3481 
z
" id="DejaVuSans-38" transform="scale(0.015625)"/>
       </defs>
       <use xlink:href="#DejaVuSans-30"/>
       <use x="63.623047" xlink:href="#DejaVuSans-2e"/>
       <use x="95.410156" xlink:href="#DejaVuSans-38"/>
      </g>
     </g>
    </g>
    <g id="ytick_6">
     <g id="line2d_8">
      <g>
       <use style="stroke:#000000;" x="62.710938" xlink:href="#m612c9eaa6e" y="135.520901"/>
      </g>
     </g>
     <g id="text_9">
      <!-- 1.0 -->
      <g transform="translate(30.55625 141.219729)scale(0.15 -0.15)">
       <defs>
        <path d="M 794 531 
L 1825 531 
L 1825 4091 
L 703 3866 
L 703 4441 
L 1819 4666 
L 2450 4666 
L 2450 531 
L 3481 531 
L 3481 0 
L 794 0 
L 794 531 
z
" id="DejaVuSans-31" transform="scale(0.015625)"/>
       </defs>
       <use xlink:href="#DejaVuSans-31"/>
       <use x="63.623047" xlink:href="#DejaVuSans-2e"/>
       <use x="95.410156" xlink:href="#DejaVuSans-30"/>
      </g>
     </g>
    </g>
    <g id="ytick_7">
     <g id="line2d_9">
      <g>
       <use style="stroke:#000000;" x="62.710938" xlink:href="#m612c9eaa6e" y="50.331636"/>
      </g>
     </g>
     <g id="text_10">
      <!-- 1.2 -->
      <g transform="translate(30.55625 56.030464)scale(0.15 -0.15)">
       <use xlink:href="#DejaVuSans-31"/>
       <use x="63.623047" xlink:href="#DejaVuSans-2e"/>
       <use x="95.410156" xlink:href="#DejaVuSans-32"/>
      </g>
     </g>
    </g>
    <g id="text_11">
     <!-- Slope (Degrees) -->
     <g transform="translate(22.396875 397.189375)rotate(-90)scale(0.2 -0.2)">
      <defs>
       <path d="M 3425 4513 
L 3425 3897 
Q 3066 4069 2747 4153 
Q 2428 4238 2131 4238 
Q 1616 4238 1336 4038 
Q 1056 3838 1056 3469 
Q 1056 3159 1242 3001 
Q 1428 2844 1947 2747 
L 2328 2669 
Q 3034 2534 3370 2195 
Q 3706 1856 3706 1288 
Q 3706 609 3251 259 
Q 2797 -91 1919 -91 
Q 1588 -91 1214 -16 
Q 841 59 441 206 
L 441 856 
Q 825 641 1194 531 
Q 1563 422 1919 422 
Q 2459 422 2753 634 
Q 3047 847 3047 1241 
Q 3047 1584 2836 1778 
Q 2625 1972 2144 2069 
L 1759 2144 
Q 1053 2284 737 2584 
Q 422 2884 422 3419 
Q 422 4038 858 4394 
Q 1294 4750 2059 4750 
Q 2388 4750 2728 4690 
Q 3069 4631 3425 4513 
z
" id="DejaVuSans-53" transform="scale(0.015625)"/>
       <path d="M 603 4863 
L 1178 4863 
L 1178 0 
L 603 0 
L 603 4863 
z
" id="DejaVuSans-6c" transform="scale(0.015625)"/>
       <path id="DejaVuSans-20" transform="scale(0.015625)"/>
       <path d="M 1984 4856 
Q 1566 4138 1362 3434 
Q 1159 2731 1159 2009 
Q 1159 1288 1364 580 
Q 1569 -128 1984 -844 
L 1484 -844 
Q 1016 -109 783 600 
Q 550 1309 550 2009 
Q 550 2706 781 3412 
Q 1013 4119 1484 4856 
L 1984 4856 
z
" id="DejaVuSans-28" transform="scale(0.015625)"/>
       <path d="M 1259 4147 
L 1259 519 
L 2022 519 
Q 2988 519 3436 956 
Q 3884 1394 3884 2338 
Q 3884 3275 3436 3711 
Q 2988 4147 2022 4147 
L 1259 4147 
z
M 628 4666 
L 1925 4666 
Q 3281 4666 3915 4102 
Q 4550 3538 4550 2338 
Q 4550 1131 3912 565 
Q 3275 0 1925 0 
L 628 0 
L 628 4666 
z
" id="DejaVuSans-44" transform="scale(0.015625)"/>
       <path d="M 2906 1791 
Q 2906 2416 2648 2759 
Q 2391 3103 1925 3103 
Q 1463 3103 1205 2759 
Q 947 2416 947 1791 
Q 947 1169 1205 825 
Q 1463 481 1925 481 
Q 2391 481 2648 825 
Q 2906 1169 2906 1791 
z
M 3481 434 
Q 3481 -459 3084 -895 
Q 2688 -1331 1869 -1331 
Q 1566 -1331 1297 -1286 
Q 1028 -1241 775 -1147 
L 775 -588 
Q 1028 -725 1275 -790 
Q 1522 -856 1778 -856 
Q 2344 -856 2625 -561 
Q 2906 -266 2906 331 
L 2906 616 
Q 2728 306 2450 153 
Q 2172 0 1784 0 
Q 1141 0 747 490 
Q 353 981 353 1791 
Q 353 2603 747 3093 
Q 1141 3584 1784 3584 
Q 2172 3584 2450 3431 
Q 2728 3278 2906 2969 
L 2906 3500 
L 3481 3500 
L 3481 434 
z
" id="DejaVuSans-67" transform="scale(0.015625)"/>
       <path d="M 2834 3397 
L 2834 2853 
Q 2591 2978 2328 3040 
Q 2066 3103 1784 3103 
Q 1356 3103 1142 2972 
Q 928 2841 928 2578 
Q 928 2378 1081 2264 
Q 1234 2150 1697 2047 
L 1894 2003 
Q 2506 1872 2764 1633 
Q 3022 1394 3022 966 
Q 3022 478 2636 193 
Q 2250 -91 1575 -91 
Q 1294 -91 989 -36 
Q 684 19 347 128 
L 347 722 
Q 666 556 975 473 
Q 1284 391 1588 391 
Q 1994 391 2212 530 
Q 2431 669 2431 922 
Q 2431 1156 2273 1281 
Q 2116 1406 1581 1522 
L 1381 1569 
Q 847 1681 609 1914 
Q 372 2147 372 2553 
Q 372 3047 722 3315 
Q 1072 3584 1716 3584 
Q 2034 3584 2315 3537 
Q 2597 3491 2834 3397 
z
" id="DejaVuSans-73" transform="scale(0.015625)"/>
       <path d="M 513 4856 
L 1013 4856 
Q 1481 4119 1714 3412 
Q 1947 2706 1947 2009 
Q 1947 1309 1714 600 
Q 1481 -109 1013 -844 
L 513 -844 
Q 928 -128 1133 580 
Q 1338 1288 1338 2009 
Q 1338 2731 1133 3434 
Q 928 4138 513 4856 
z
" id="DejaVuSans-29" transform="scale(0.015625)"/>
      </defs>
      <use xlink:href="#DejaVuSans-53"/>
      <use x="63.476562" xlink:href="#DejaVuSans-6c"/>
      <use x="91.259766" xlink:href="#DejaVuSans-6f"/>
      <use x="152.441406" xlink:href="#DejaVuSans-70"/>
      <use x="215.917969" xlink:href="#DejaVuSans-65"/>
      <use x="277.441406" xlink:href="#DejaVuSans-20"/>
      <use x="309.228516" xlink:href="#DejaVuSans-28"/>
      <use x="348.242188" xlink:href="#DejaVuSans-44"/>
      <use x="425.244141" xlink:href="#DejaVuSans-65"/>
      <use x="486.767578" xlink:href="#DejaVuSans-67"/>
      <use x="550.244141" xlink:href="#DejaVuSans-72"/>
      <use x="589.107422" xlink:href="#DejaVuSans-65"/>
      <use x="650.630859" xlink:href="#DejaVuSans-65"/>
      <use x="712.154297" xlink:href="#DejaVuSans-73"/>
      <use x="764.253906" xlink:href="#DejaVuSans-29"/>
     </g>
    </g>
   </g>
   <g id="line2d_10">
    <path clip-path="url(#pc612ff1aec)" d="M 271.960938 180.048427 
L 271.960938 244.973109 
" style="fill:none;stroke:#3f3f3f;stroke-linecap:square;stroke-width:3;"/>
   </g>
   <g id="line2d_11">
    <path clip-path="url(#pc612ff1aec)" d="M 271.960938 135.844941 
L 271.960938 69.767216 
" style="fill:none;stroke:#3f3f3f;stroke-linecap:square;stroke-width:3;"/>
   </g>
   <g id="line2d_12">
    <path clip-path="url(#pc612ff1aec)" d="M 245.804688 244.973109 
L 298.117188 244.973109 
" style="fill:none;stroke:#3f3f3f;stroke-linecap:square;stroke-width:3;"/>
   </g>
   <g id="line2d_13">
    <path clip-path="url(#pc612ff1aec)" d="M 245.804688 69.767216 
L 298.117188 69.767216 
" style="fill:none;stroke:#3f3f3f;stroke-linecap:square;stroke-width:3;"/>
   </g>
   <g id="line2d_14">
    <path clip-path="url(#pc612ff1aec)" d="M 690.460938 191.299202 
L 690.460938 254.285856 
" style="fill:none;stroke:#3f3f3f;stroke-linecap:square;stroke-width:3;"/>
   </g>
   <g id="line2d_15">
    <path clip-path="url(#pc612ff1aec)" d="M 690.460938 139.6214 
L 690.460938 86.019606 
" style="fill:none;stroke:#3f3f3f;stroke-linecap:square;stroke-width:3;"/>
   </g>
   <g id="line2d_16">
    <path clip-path="url(#pc612ff1aec)" d="M 664.304688 254.285856 
L 716.617188 254.285856 
" style="fill:none;stroke:#3f3f3f;stroke-linecap:square;stroke-width:3;"/>
   </g>
   <g id="line2d_17">
    <path clip-path="url(#pc612ff1aec)" d="M 664.304688 86.019606 
L 716.617188 86.019606 
" style="fill:none;stroke:#3f3f3f;stroke-linecap:square;stroke-width:3;"/>
   </g>
   <g id="line2d_18">
    <path d="M 271.960938 28.750125 
L 271.960938 17.878125 
L 690.460938 17.878125 
L 690.460938 28.750125 
" style="fill:none;stroke:#333333;stroke-linecap:square;stroke-width:1.5;"/>
   </g>
   <g id="line2d_19">
    <path clip-path="url(#pc612ff1aec)" d="M 219.648438 155.781768 
L 324.273438 155.781768 
" style="fill:none;stroke:#3f3f3f;stroke-linecap:square;stroke-width:3;"/>
   </g>
   <g id="line2d_20">
    <path clip-path="url(#pc612ff1aec)" d="M 638.148438 166.582363 
L 742.773438 166.582363 
" style="fill:none;stroke:#3f3f3f;stroke-linecap:square;stroke-width:3;"/>
   </g>
   <g id="patch_3">
    <path d="M 62.710938 588.658125 
L 62.710938 45.058125 
" style="fill:none;stroke:#000000;stroke-linecap:square;stroke-linejoin:miter;"/>
   </g>
   <g id="patch_4">
    <path d="M 62.710938 588.658125 
L 899.710938 588.658125 
" style="fill:none;stroke:#000000;stroke-linecap:square;stroke-linejoin:miter;"/>
   </g>
   <g id="PathCollection_23">
    <defs>
     <path d="M 0 3.5 
C 0.928211 3.5 1.81853 3.131218 2.474874 2.474874 
C 3.131218 1.81853 3.5 0.928211 3.5 -0 
C 3.5 -0.928211 3.131218 -1.81853 2.474874 -2.474874 
C 1.81853 -3.131218 0.928211 -3.5 0 -3.5 
C -0.928211 -3.5 -1.81853 -3.131218 -2.474874 -2.474874 
C -3.131218 -1.81853 -3.5 -0.928211 -3.5 0 
C -3.5 0.928211 -3.131218 1.81853 -2.474874 2.474874 
C -1.81853 3.131218 -0.928211 3.5 0 3.5 
z
" id="C0_0_632fb70469"/>
    </defs>
    <g clip-path="url(#pc612ff1aec)">
     <use style="fill:#0000ff;fill-opacity:0.4;" x="319.063532" xlink:href="#C0_0_632fb70469" y="73.956951"/>
    </g>
    <g clip-path="url(#pc612ff1aec)">
     <use style="fill:#0000ff;fill-opacity:0.4;" x="356.148839" xlink:href="#C0_0_632fb70469" y="80.311965"/>
    </g>
    <g clip-path="url(#pc612ff1aec)">
     <use style="fill:#0000ff;fill-opacity:0.4;" x="308.793611" xlink:href="#C0_0_632fb70469" y="69.434102"/>
    </g>
    <g clip-path="url(#pc612ff1aec)">
     <use style="fill:#0000ff;fill-opacity:0.4;" x="367.637867" xlink:href="#C0_0_632fb70469" y="57.3779"/>
    </g>
    <g clip-path="url(#pc612ff1aec)">
     <use style="fill:#0000ff;fill-opacity:0.4;" x="348.592596" xlink:href="#C0_0_632fb70469" y="91.896446"/>
    </g>
    <g clip-path="url(#pc612ff1aec)">
     <use style="fill:#0000ff;fill-opacity:0.4;" x="365.873773" xlink:href="#C0_0_632fb70469" y="107.546962"/>
    </g>
    <g clip-path="url(#pc612ff1aec)">
     <use style="fill:#0000ff;fill-opacity:0.4;" x="293.551035" xlink:href="#C0_0_632fb70469" y="67.228933"/>
    </g>
    <g clip-path="url(#pc612ff1aec)">
     <use style="fill:#0000ff;fill-opacity:0.4;" x="351.68824" xlink:href="#C0_0_632fb70469" y="48.616895"/>
    </g>
    <g clip-path="url(#pc612ff1aec)">
     <use style="fill:#0000ff;fill-opacity:0.4;" x="345.098477" xlink:href="#C0_0_632fb70469" y="68.574533"/>
    </g>
    <g clip-path="url(#pc612ff1aec)">
     <use style="fill:#0000ff;fill-opacity:0.4;" x="332.98839" xlink:href="#C0_0_632fb70469" y="112.621202"/>
    </g>
    <g clip-path="url(#pc612ff1aec)">
     <use style="fill:#00bfff;fill-opacity:0.4;" x="329.055247" xlink:href="#C0_0_632fb70469" y="48.014283"/>
    </g>
    <g clip-path="url(#pc612ff1aec)">
     <use style="fill:#00bfff;fill-opacity:0.4;" x="372.759471" xlink:href="#C0_0_632fb70469" y="22.127657"/>
    </g>
    <g clip-path="url(#pc612ff1aec)">
     <use style="fill:#00bfff;fill-opacity:0.4;" x="319.083614" xlink:href="#C0_0_632fb70469" y="127.239369"/>
    </g>
    <g clip-path="url(#pc612ff1aec)">
     <use style="fill:#00bfff;fill-opacity:0.4;" x="313.238662" xlink:href="#C0_0_632fb70469" y="71.130608"/>
    </g>
    <g clip-path="url(#pc612ff1aec)">
     <use style="fill:#00bfff;fill-opacity:0.4;" x="325.024332" xlink:href="#C0_0_632fb70469" y="51.899686"/>
    </g>
    <g clip-path="url(#pc612ff1aec)">
     <use style="fill:#00bfff;fill-opacity:0.4;" x="370.161798" xlink:href="#C0_0_632fb70469" y="86.419232"/>
    </g>
    <g clip-path="url(#pc612ff1aec)">
     <use style="fill:#00bfff;fill-opacity:0.4;" x="351.95273" xlink:href="#C0_0_632fb70469" y="117.054971"/>
    </g>
    <g clip-path="url(#pc612ff1aec)">
     <use style="fill:#00bfff;fill-opacity:0.4;" x="334.217541" xlink:href="#C0_0_632fb70469" y="122.91828"/>
    </g>
    <g clip-path="url(#pc612ff1aec)">
     <use style="fill:#00bfff;fill-opacity:0.4;" x="293.695635" xlink:href="#C0_0_632fb70469" y="148.758302"/>
    </g>
    <g clip-path="url(#pc612ff1aec)">
     <use style="fill:#00bfff;fill-opacity:0.4;" x="295.889895" xlink:href="#C0_0_632fb70469" y="88.93085"/>
    </g>
    <g clip-path="url(#pc612ff1aec)">
     <use style="fill:#00bfff;fill-opacity:0.4;" x="323.573113" xlink:href="#C0_0_632fb70469" y="127.910903"/>
    </g>
    <g clip-path="url(#pc612ff1aec)">
     <use style="fill:#00bfff;fill-opacity:0.4;" x="372.710905" xlink:href="#C0_0_632fb70469" y="140.827844"/>
    </g>
    <g clip-path="url(#pc612ff1aec)">
     <use style="fill:#00bfff;fill-opacity:0.4;" x="343.142476" xlink:href="#C0_0_632fb70469" y="137.849063"/>
    </g>
    <g clip-path="url(#pc612ff1aec)">
     <use style="fill:#00bfff;fill-opacity:0.4;" x="372.241213" xlink:href="#C0_0_632fb70469" y="140.841478"/>
    </g>
    <g clip-path="url(#pc612ff1aec)">
     <use style="fill:#00bfff;fill-opacity:0.4;" x="294.507438" xlink:href="#C0_0_632fb70469" y="137.814576"/>
    </g>
    <g clip-path="url(#pc612ff1aec)">
     <use style="fill:#00bfff;fill-opacity:0.4;" x="297.699846" xlink:href="#C0_0_632fb70469" y="69.993413"/>
    </g>
    <g clip-path="url(#pc612ff1aec)">
     <use style="fill:#00bfff;fill-opacity:0.4;" x="344.556426" xlink:href="#C0_0_632fb70469" y="106.216754"/>
    </g>
    <g clip-path="url(#pc612ff1aec)">
     <use style="fill:#00bfff;fill-opacity:0.4;" x="365.71382" xlink:href="#C0_0_632fb70469" y="96.435835"/>
    </g>
    <g clip-path="url(#pc612ff1aec)">
     <use style="fill:#00bfff;fill-opacity:0.4;" x="339.119001" xlink:href="#C0_0_632fb70469" y="59.502676"/>
    </g>
    <g clip-path="url(#pc612ff1aec)">
     <use style="fill:#00bfff;fill-opacity:0.4;" x="307.107042" xlink:href="#C0_0_632fb70469" y="134.168643"/>
    </g>
    <g clip-path="url(#pc612ff1aec)">
     <use style="fill:#00bfff;fill-opacity:0.4;" x="305.931658" xlink:href="#C0_0_632fb70469" y="80.157132"/>
    </g>
    <g clip-path="url(#pc612ff1aec)">
     <use style="fill:#0000ff;fill-opacity:0.4;" x="352.961218" xlink:href="#C0_0_632fb70469" y="54.474807"/>
    </g>
    <g clip-path="url(#pc612ff1aec)">
     <use style="fill:#0000ff;fill-opacity:0.4;" x="310.755182" xlink:href="#C0_0_632fb70469" y="120.489958"/>
    </g>
    <g clip-path="url(#pc612ff1aec)">
     <use style="fill:#0000ff;fill-opacity:0.4;" x="352.641419" xlink:href="#C0_0_632fb70469" y="99.020545"/>
    </g>
    <g clip-path="url(#pc612ff1aec)">
     <use style="fill:#0000ff;fill-opacity:0.4;" x="319.522106" xlink:href="#C0_0_632fb70469" y="74.638054"/>
    </g>
    <g clip-path="url(#pc612ff1aec)">
     <use style="fill:#0000ff;fill-opacity:0.4;" x="336.39426" xlink:href="#C0_0_632fb70469" y="228.064106"/>
    </g>
    <g clip-path="url(#pc612ff1aec)">
     <use style="fill:#0000ff;fill-opacity:0.4;" x="321.398604" xlink:href="#C0_0_632fb70469" y="108.63258"/>
    </g>
    <g clip-path="url(#pc612ff1aec)">
     <use style="fill:#0000ff;fill-opacity:0.4;" x="363.125948" xlink:href="#C0_0_632fb70469" y="157.387267"/>
    </g>
    <g clip-path="url(#pc612ff1aec)">
     <use style="fill:#0000ff;fill-opacity:0.4;" x="317.755557" xlink:href="#C0_0_632fb70469" y="92.5717"/>
    </g>
    <g clip-path="url(#pc612ff1aec)">
     <use style="fill:#0000ff;fill-opacity:0.4;" x="306.579437" xlink:href="#C0_0_632fb70469" y="147.978252"/>
    </g>
    <g clip-path="url(#pc612ff1aec)">
     <use style="fill:#0000ff;fill-opacity:0.4;" x="317.617558" xlink:href="#C0_0_632fb70469" y="113.700457"/>
    </g>
    <g clip-path="url(#pc612ff1aec)">
     <use style="fill:#0000ff;fill-opacity:0.4;" x="299.131012" xlink:href="#C0_0_632fb70469" y="91.070655"/>
    </g>
    <g clip-path="url(#pc612ff1aec)">
     <use style="fill:#0000ff;fill-opacity:0.4;" x="330.203561" xlink:href="#C0_0_632fb70469" y="134.263452"/>
    </g>
    <g clip-path="url(#pc612ff1aec)">
     <use style="fill:#0000ff;fill-opacity:0.4;" x="306.638389" xlink:href="#C0_0_632fb70469" y="108.381074"/>
    </g>
    <g clip-path="url(#pc612ff1aec)">
     <use style="fill:#0000ff;fill-opacity:0.4;" x="334.341031" xlink:href="#C0_0_632fb70469" y="106.611679"/>
    </g>
    <g clip-path="url(#pc612ff1aec)">
     <use style="fill:#0000ff;fill-opacity:0.4;" x="331.94007" xlink:href="#C0_0_632fb70469" y="110.935129"/>
    </g>
    <g clip-path="url(#pc612ff1aec)">
     <use style="fill:#0000ff;fill-opacity:0.4;" x="347.09608" xlink:href="#C0_0_632fb70469" y="145.888854"/>
    </g>
    <g clip-path="url(#pc612ff1aec)">
     <use style="fill:#0000ff;fill-opacity:0.4;" x="329.871504" xlink:href="#C0_0_632fb70469" y="162.691186"/>
    </g>
    <g clip-path="url(#pc612ff1aec)">
     <use style="fill:#0000ff;fill-opacity:0.4;" x="342.048298" xlink:href="#C0_0_632fb70469" y="102.610958"/>
    </g>
    <g clip-path="url(#pc612ff1aec)">
     <use style="fill:#0000ff;fill-opacity:0.4;" x="321.893937" xlink:href="#C0_0_632fb70469" y="104.968929"/>
    </g>
    <g clip-path="url(#pc612ff1aec)">
     <use style="fill:#0000ff;fill-opacity:0.4;" x="373.804489" xlink:href="#C0_0_632fb70469" y="124.824944"/>
    </g>
    <g clip-path="url(#pc612ff1aec)">
     <use style="fill:#0000ff;fill-opacity:0.4;" x="356.049981" xlink:href="#C0_0_632fb70469" y="106.646887"/>
    </g>
    <g clip-path="url(#pc612ff1aec)">
     <use style="fill:#0000ff;fill-opacity:0.4;" x="362.304751" xlink:href="#C0_0_632fb70469" y="110.144712"/>
    </g>
    <g clip-path="url(#pc612ff1aec)">
     <use style="fill:#0000ff;fill-opacity:0.4;" x="324.582975" xlink:href="#C0_0_632fb70469" y="95.530744"/>
    </g>
    <g clip-path="url(#pc612ff1aec)">
     <use style="fill:#0000ff;fill-opacity:0.4;" x="370.202924" xlink:href="#C0_0_632fb70469" y="94.863452"/>
    </g>
    <g clip-path="url(#pc612ff1aec)">
     <use style="fill:#0000ff;fill-opacity:0.4;" x="336.910658" xlink:href="#C0_0_632fb70469" y="72.651258"/>
    </g>
    <g clip-path="url(#pc612ff1aec)">
     <use style="fill:#0000ff;fill-opacity:0.4;" x="303.771324" xlink:href="#C0_0_632fb70469" y="99.435591"/>
    </g>
    <g clip-path="url(#pc612ff1aec)">
     <use style="fill:#0000ff;fill-opacity:0.4;" x="360.84232" xlink:href="#C0_0_632fb70469" y="131.534241"/>
    </g>
    <g clip-path="url(#pc612ff1aec)">
     <use style="fill:#0000ff;fill-opacity:0.4;" x="326.128595" xlink:href="#C0_0_632fb70469" y="67.704584"/>
    </g>
    <g clip-path="url(#pc612ff1aec)">
     <use style="fill:#0000ff;fill-opacity:0.4;" x="323.321647" xlink:href="#C0_0_632fb70469" y="132.139947"/>
    </g>
    <g clip-path="url(#pc612ff1aec)">
     <use style="fill:#0000ff;fill-opacity:0.4;" x="315.789832" xlink:href="#C0_0_632fb70469" y="71.662252"/>
    </g>
    <g clip-path="url(#pc612ff1aec)">
     <use style="fill:#0000ff;fill-opacity:0.4;" x="309.818219" xlink:href="#C0_0_632fb70469" y="140.855401"/>
    </g>
    <g clip-path="url(#pc612ff1aec)">
     <use style="fill:#0000ff;fill-opacity:0.4;" x="311.399987" xlink:href="#C0_0_632fb70469" y="41.935815"/>
    </g>
    <g clip-path="url(#pc612ff1aec)">
     <use style="fill:#0000ff;fill-opacity:0.4;" x="321.431091" xlink:href="#C0_0_632fb70469" y="55.125316"/>
    </g>
    <g clip-path="url(#pc612ff1aec)">
     <use style="fill:#0000ff;fill-opacity:0.4;" x="372.687073" xlink:href="#C0_0_632fb70469" y="150.731719"/>
    </g>
    <g clip-path="url(#pc612ff1aec)">
     <use style="fill:#0000ff;fill-opacity:0.4;" x="331.52952" xlink:href="#C0_0_632fb70469" y="120.093734"/>
    </g>
    <g clip-path="url(#pc612ff1aec)">
     <use style="fill:#0000ff;fill-opacity:0.4;" x="351.834875" xlink:href="#C0_0_632fb70469" y="112.582888"/>
    </g>
    <g clip-path="url(#pc612ff1aec)">
     <use style="fill:#0000ff;fill-opacity:0.4;" x="340.883545" xlink:href="#C0_0_632fb70469" y="75.405157"/>
    </g>
    <g clip-path="url(#pc612ff1aec)">
     <use style="fill:#0000ff;fill-opacity:0.4;" x="304.184912" xlink:href="#C0_0_632fb70469" y="43.303204"/>
    </g>
    <g clip-path="url(#pc612ff1aec)">
     <use style="fill:#0000ff;fill-opacity:0.4;" x="335.787879" xlink:href="#C0_0_632fb70469" y="83.639212"/>
    </g>
    <g clip-path="url(#pc612ff1aec)">
     <use style="fill:#0000ff;fill-opacity:0.4;" x="362.953223" xlink:href="#C0_0_632fb70469" y="63.180129"/>
    </g>
    <g clip-path="url(#pc612ff1aec)">
     <use style="fill:#0000ff;fill-opacity:0.4;" x="320.880578" xlink:href="#C0_0_632fb70469" y="69.994887"/>
    </g>
    <g clip-path="url(#pc612ff1aec)">
     <use style="fill:#00bfff;fill-opacity:0.4;" x="346.81691" xlink:href="#C0_0_632fb70469" y="92.174354"/>
    </g>
    <g clip-path="url(#pc612ff1aec)">
     <use style="fill:#00bfff;fill-opacity:0.4;" x="328.804539" xlink:href="#C0_0_632fb70469" y="86.337512"/>
    </g>
    <g clip-path="url(#pc612ff1aec)">
     <use style="fill:#00bfff;fill-opacity:0.4;" x="365.363546" xlink:href="#C0_0_632fb70469" y="88.155519"/>
    </g>
    <g clip-path="url(#pc612ff1aec)">
     <use style="fill:#00bfff;fill-opacity:0.4;" x="331.141195" xlink:href="#C0_0_632fb70469" y="96.904988"/>
    </g>
    <g clip-path="url(#pc612ff1aec)">
     <use style="fill:#00bfff;fill-opacity:0.4;" x="293.8668" xlink:href="#C0_0_632fb70469" y="111.28658"/>
    </g>
    <g clip-path="url(#pc612ff1aec)">
     <use style="fill:#00bfff;fill-opacity:0.4;" x="376.391745" xlink:href="#C0_0_632fb70469" y="47.532686"/>
    </g>
    <g clip-path="url(#pc612ff1aec)">
     <use style="fill:#00bfff;fill-opacity:0.4;" x="315.716759" xlink:href="#C0_0_632fb70469" y="60.748009"/>
    </g>
    <g clip-path="url(#pc612ff1aec)">
     <use style="fill:#00bfff;fill-opacity:0.4;" x="359.420969" xlink:href="#C0_0_632fb70469" y="116.858923"/>
    </g>
    <g clip-path="url(#pc612ff1aec)">
     <use style="fill:#00bfff;fill-opacity:0.4;" x="299.537252" xlink:href="#C0_0_632fb70469" y="83.399651"/>
    </g>
    <g clip-path="url(#pc612ff1aec)">
     <use style="fill:#00bfff;fill-opacity:0.4;" x="311.462478" xlink:href="#C0_0_632fb70469" y="68.634201"/>
    </g>
    <g clip-path="url(#pc612ff1aec)">
     <use style="fill:#00bfff;fill-opacity:0.4;" x="303.958541" xlink:href="#C0_0_632fb70469" y="96.178819"/>
    </g>
    <g clip-path="url(#pc612ff1aec)">
     <use style="fill:#00bfff;fill-opacity:0.4;" x="308.90413" xlink:href="#C0_0_632fb70469" y="123.035005"/>
    </g>
    <g clip-path="url(#pc612ff1aec)">
     <use style="fill:#00bfff;fill-opacity:0.4;" x="340.746269" xlink:href="#C0_0_632fb70469" y="124.656156"/>
    </g>
    <g clip-path="url(#pc612ff1aec)">
     <use style="fill:#00bfff;fill-opacity:0.4;" x="342.524237" xlink:href="#C0_0_632fb70469" y="94.129631"/>
    </g>
    <g clip-path="url(#pc612ff1aec)">
     <use style="fill:#00bfff;fill-opacity:0.4;" x="300.072071" xlink:href="#C0_0_632fb70469" y="136.45474"/>
    </g>
    <g clip-path="url(#pc612ff1aec)">
     <use style="fill:#00bfff;fill-opacity:0.4;" x="332.899605" xlink:href="#C0_0_632fb70469" y="102.769871"/>
    </g>
    <g clip-path="url(#pc612ff1aec)">
     <use style="fill:#00bfff;fill-opacity:0.4;" x="352.522613" xlink:href="#C0_0_632fb70469" y="114.780762"/>
    </g>
    <g clip-path="url(#pc612ff1aec)">
     <use style="fill:#00bfff;fill-opacity:0.4;" x="293.081463" xlink:href="#C0_0_632fb70469" y="75.83755"/>
    </g>
    <g clip-path="url(#pc612ff1aec)">
     <use style="fill:#00bfff;fill-opacity:0.4;" x="354.588683" xlink:href="#C0_0_632fb70469" y="95.170699"/>
    </g>
    <g clip-path="url(#pc612ff1aec)">
     <use style="fill:#00bfff;fill-opacity:0.4;" x="372.359109" xlink:href="#C0_0_632fb70469" y="106.890069"/>
    </g>
    <g clip-path="url(#pc612ff1aec)">
     <use style="fill:#00bfff;fill-opacity:0.4;" x="294.761635" xlink:href="#C0_0_632fb70469" y="101.057223"/>
    </g>
    <g clip-path="url(#pc612ff1aec)">
     <use style="fill:#00bfff;fill-opacity:0.4;" x="330.369365" xlink:href="#C0_0_632fb70469" y="93.522162"/>
    </g>
    <g clip-path="url(#pc612ff1aec)">
     <use style="fill:#00bfff;fill-opacity:0.4;" x="315.183422" xlink:href="#C0_0_632fb70469" y="190.393907"/>
    </g>
    <g clip-path="url(#pc612ff1aec)">
     <use style="fill:#00bfff;fill-opacity:0.4;" x="343.530774" xlink:href="#C0_0_632fb70469" y="182.98649"/>
    </g>
    <g clip-path="url(#pc612ff1aec)">
     <use style="fill:#00bfff;fill-opacity:0.4;" x="347.559893" xlink:href="#C0_0_632fb70469" y="156.867445"/>
    </g>
    <g clip-path="url(#pc612ff1aec)">
     <use style="fill:#00bfff;fill-opacity:0.4;" x="374.659922" xlink:href="#C0_0_632fb70469" y="162.969664"/>
    </g>
    <g clip-path="url(#pc612ff1aec)">
     <use style="fill:#00bfff;fill-opacity:0.4;" x="295.955109" xlink:href="#C0_0_632fb70469" y="101.149475"/>
    </g>
    <g clip-path="url(#pc612ff1aec)">
     <use style="fill:#00bfff;fill-opacity:0.4;" x="314.810289" xlink:href="#C0_0_632fb70469" y="142.224029"/>
    </g>
    <g clip-path="url(#pc612ff1aec)">
     <use style="fill:#00bfff;fill-opacity:0.4;" x="298.662621" xlink:href="#C0_0_632fb70469" y="166.186247"/>
    </g>
    <g clip-path="url(#pc612ff1aec)">
     <use style="fill:#00bfff;fill-opacity:0.4;" x="294.908541" xlink:href="#C0_0_632fb70469" y="121.220961"/>
    </g>
    <g clip-path="url(#pc612ff1aec)">
     <use style="fill:#00bfff;fill-opacity:0.4;" x="347.610788" xlink:href="#C0_0_632fb70469" y="166.716596"/>
    </g>
    <g clip-path="url(#pc612ff1aec)">
     <use style="fill:#00bfff;fill-opacity:0.4;" x="309.636283" xlink:href="#C0_0_632fb70469" y="167.539481"/>
    </g>
   </g>
   <g id="PathCollection_24">
    <defs>
     <path d="M 0 3.5 
C 0.928211 3.5 1.81853 3.131218 2.474874 2.474874 
C 3.131218 1.81853 3.5 0.928211 3.5 -0 
C 3.5 -0.928211 3.131218 -1.81853 2.474874 -2.474874 
C 1.81853 -3.131218 0.928211 -3.5 0 -3.5 
C -0.928211 -3.5 -1.81853 -3.131218 -2.474874 -2.474874 
C -3.131218 -1.81853 -3.5 -0.928211 -3.5 0 
C -3.5 0.928211 -3.131218 1.81853 -2.474874 2.474874 
C -1.81853 3.131218 -0.928211 3.5 0 3.5 
z
" id="C1_0_39d9cdb104"/>
    </defs>
    <g clip-path="url(#pc612ff1aec)">
     <use style="fill:#0000ff;fill-opacity:0.4;" x="769.12587" xlink:href="#C1_0_39d9cdb104" y="106.851707"/>
    </g>
    <g clip-path="url(#pc612ff1aec)">
     <use style="fill:#0000ff;fill-opacity:0.4;" x="780.341266" xlink:href="#C1_0_39d9cdb104" y="114.314584"/>
    </g>
    <g clip-path="url(#pc612ff1aec)">
     <use style="fill:#0000ff;fill-opacity:0.4;" x="739.644468" xlink:href="#C1_0_39d9cdb104" y="105.915502"/>
    </g>
    <g clip-path="url(#pc612ff1aec)">
     <use style="fill:#0000ff;fill-opacity:0.4;" x="720.88697" xlink:href="#C1_0_39d9cdb104" y="58.000757"/>
    </g>
    <g clip-path="url(#pc612ff1aec)">
     <use style="fill:#0000ff;fill-opacity:0.4;" x="716.374446" xlink:href="#C1_0_39d9cdb104" y="75.375445"/>
    </g>
    <g clip-path="url(#pc612ff1aec)">
     <use style="fill:#0000ff;fill-opacity:0.4;" x="727.986364" xlink:href="#C1_0_39d9cdb104" y="5.875267"/>
    </g>
    <g clip-path="url(#pc612ff1aec)">
     <use style="fill:#0000ff;fill-opacity:0.4;" x="728.221354" xlink:href="#C1_0_39d9cdb104" y="125.928749"/>
    </g>
    <g clip-path="url(#pc612ff1aec)">
     <use style="fill:#0000ff;fill-opacity:0.4;" x="794.571566" xlink:href="#C1_0_39d9cdb104" y="103.580921"/>
    </g>
    <g clip-path="url(#pc612ff1aec)">
     <use style="fill:#0000ff;fill-opacity:0.4;" x="733.877501" xlink:href="#C1_0_39d9cdb104" y="125.383231"/>
    </g>
    <g clip-path="url(#pc612ff1aec)">
     <use style="fill:#0000ff;fill-opacity:0.4;" x="749.470215" xlink:href="#C1_0_39d9cdb104" y="63.019141"/>
    </g>
    <g clip-path="url(#pc612ff1aec)">
     <use style="fill:#00bfff;fill-opacity:0.4;" x="768.631851" xlink:href="#C1_0_39d9cdb104" y="140.947754"/>
    </g>
    <g clip-path="url(#pc612ff1aec)">
     <use style="fill:#00bfff;fill-opacity:0.4;" x="757.026175" xlink:href="#C1_0_39d9cdb104" y="120.994431"/>
    </g>
    <g clip-path="url(#pc612ff1aec)">
     <use style="fill:#00bfff;fill-opacity:0.4;" x="794.007058" xlink:href="#C1_0_39d9cdb104" y="117.051463"/>
    </g>
    <g clip-path="url(#pc612ff1aec)">
     <use style="fill:#00bfff;fill-opacity:0.4;" x="768.385246" xlink:href="#C1_0_39d9cdb104" y="142.996382"/>
    </g>
    <g clip-path="url(#pc612ff1aec)">
     <use style="fill:#00bfff;fill-opacity:0.4;" x="790.276354" xlink:href="#C1_0_39d9cdb104" y="116.156479"/>
    </g>
    <g clip-path="url(#pc612ff1aec)">
     <use style="fill:#00bfff;fill-opacity:0.4;" x="750.88928" xlink:href="#C1_0_39d9cdb104" y="91.716913"/>
    </g>
    <g clip-path="url(#pc612ff1aec)">
     <use style="fill:#00bfff;fill-opacity:0.4;" x="744.058478" xlink:href="#C1_0_39d9cdb104" y="108.64428"/>
    </g>
    <g clip-path="url(#pc612ff1aec)">
     <use style="fill:#00bfff;fill-opacity:0.4;" x="784.654701" xlink:href="#C1_0_39d9cdb104" y="134.411207"/>
    </g>
    <g clip-path="url(#pc612ff1aec)">
     <use style="fill:#00bfff;fill-opacity:0.4;" x="740.320471" xlink:href="#C1_0_39d9cdb104" y="136.638494"/>
    </g>
    <g clip-path="url(#pc612ff1aec)">
     <use style="fill:#00bfff;fill-opacity:0.4;" x="745.168984" xlink:href="#C1_0_39d9cdb104" y="135.454873"/>
    </g>
    <g clip-path="url(#pc612ff1aec)">
     <use style="fill:#0000ff;fill-opacity:0.4;" x="749.967541" xlink:href="#C1_0_39d9cdb104" y="66.951153"/>
    </g>
    <g clip-path="url(#pc612ff1aec)">
     <use style="fill:#0000ff;fill-opacity:0.4;" x="737.614385" xlink:href="#C1_0_39d9cdb104" y="87.968441"/>
    </g>
    <g clip-path="url(#pc612ff1aec)">
     <use style="fill:#0000ff;fill-opacity:0.4;" x="776.535036" xlink:href="#C1_0_39d9cdb104" y="69.881108"/>
    </g>
    <g clip-path="url(#pc612ff1aec)">
     <use style="fill:#0000ff;fill-opacity:0.4;" x="773.65079" xlink:href="#C1_0_39d9cdb104" y="68.999019"/>
    </g>
    <g clip-path="url(#pc612ff1aec)">
     <use style="fill:#0000ff;fill-opacity:0.4;" x="714.040711" xlink:href="#C1_0_39d9cdb104" y="71.952992"/>
    </g>
    <g clip-path="url(#pc612ff1aec)">
     <use style="fill:#0000ff;fill-opacity:0.4;" x="754.100772" xlink:href="#C1_0_39d9cdb104" y="82.299621"/>
    </g>
    <g clip-path="url(#pc612ff1aec)">
     <use style="fill:#0000ff;fill-opacity:0.4;" x="759.435147" xlink:href="#C1_0_39d9cdb104" y="68.586494"/>
    </g>
    <g clip-path="url(#pc612ff1aec)">
     <use style="fill:#0000ff;fill-opacity:0.4;" x="778.159578" xlink:href="#C1_0_39d9cdb104" y="100.756865"/>
    </g>
    <g clip-path="url(#pc612ff1aec)">
     <use style="fill:#0000ff;fill-opacity:0.4;" x="746.347535" xlink:href="#C1_0_39d9cdb104" y="61.377847"/>
    </g>
    <g clip-path="url(#pc612ff1aec)">
     <use style="fill:#0000ff;fill-opacity:0.4;" x="784.255648" xlink:href="#C1_0_39d9cdb104" y="112.376669"/>
    </g>
    <g clip-path="url(#pc612ff1aec)">
     <use style="fill:#00bfff;fill-opacity:0.4;" x="790.382512" xlink:href="#C1_0_39d9cdb104" y="88.528885"/>
    </g>
    <g clip-path="url(#pc612ff1aec)">
     <use style="fill:#00bfff;fill-opacity:0.4;" x="721.557233" xlink:href="#C1_0_39d9cdb104" y="113.064016"/>
    </g>
    <g clip-path="url(#pc612ff1aec)">
     <use style="fill:#00bfff;fill-opacity:0.4;" x="720.85252" xlink:href="#C1_0_39d9cdb104" y="115.138127"/>
    </g>
    <g clip-path="url(#pc612ff1aec)">
     <use style="fill:#00bfff;fill-opacity:0.4;" x="787.382739" xlink:href="#C1_0_39d9cdb104" y="79.165334"/>
    </g>
    <g clip-path="url(#pc612ff1aec)">
     <use style="fill:#00bfff;fill-opacity:0.4;" x="777.541072" xlink:href="#C1_0_39d9cdb104" y="73.964386"/>
    </g>
    <g clip-path="url(#pc612ff1aec)">
     <use style="fill:#00bfff;fill-opacity:0.4;" x="789.052994" xlink:href="#C1_0_39d9cdb104" y="88.392912"/>
    </g>
    <g clip-path="url(#pc612ff1aec)">
     <use style="fill:#00bfff;fill-opacity:0.4;" x="747.788165" xlink:href="#C1_0_39d9cdb104" y="112.008399"/>
    </g>
    <g clip-path="url(#pc612ff1aec)">
     <use style="fill:#00bfff;fill-opacity:0.4;" x="754.457442" xlink:href="#C1_0_39d9cdb104" y="111.247925"/>
    </g>
    <g clip-path="url(#pc612ff1aec)">
     <use style="fill:#00bfff;fill-opacity:0.4;" x="783.313843" xlink:href="#C1_0_39d9cdb104" y="87.672666"/>
    </g>
    <g clip-path="url(#pc612ff1aec)">
     <use style="fill:#00bfff;fill-opacity:0.4;" x="719.106283" xlink:href="#C1_0_39d9cdb104" y="145.981002"/>
    </g>
    <g clip-path="url(#pc612ff1aec)">
     <use style="fill:#00bfff;fill-opacity:0.4;" x="775.610273" xlink:href="#C1_0_39d9cdb104" y="63.176204"/>
    </g>
    <g clip-path="url(#pc612ff1aec)">
     <use style="fill:#00bfff;fill-opacity:0.4;" x="766.756149" xlink:href="#C1_0_39d9cdb104" y="108.751928"/>
    </g>
    <g clip-path="url(#pc612ff1aec)">
     <use style="fill:#00bfff;fill-opacity:0.4;" x="772.790175" xlink:href="#C1_0_39d9cdb104" y="105.247714"/>
    </g>
    <g clip-path="url(#pc612ff1aec)">
     <use style="fill:#00bfff;fill-opacity:0.4;" x="748.754451" xlink:href="#C1_0_39d9cdb104" y="83.482375"/>
    </g>
    <g clip-path="url(#pc612ff1aec)">
     <use style="fill:#00bfff;fill-opacity:0.4;" x="789.820071" xlink:href="#C1_0_39d9cdb104" y="106.049725"/>
    </g>
    <g clip-path="url(#pc612ff1aec)">
     <use style="fill:#00bfff;fill-opacity:0.4;" x="776.50324" xlink:href="#C1_0_39d9cdb104" y="60.794314"/>
    </g>
    <g clip-path="url(#pc612ff1aec)">
     <use style="fill:#00bfff;fill-opacity:0.4;" x="734.715747" xlink:href="#C1_0_39d9cdb104" y="69.089011"/>
    </g>
    <g clip-path="url(#pc612ff1aec)">
     <use style="fill:#00bfff;fill-opacity:0.4;" x="742.922723" xlink:href="#C1_0_39d9cdb104" y="89.085677"/>
    </g>
    <g clip-path="url(#pc612ff1aec)">
     <use style="fill:#00bfff;fill-opacity:0.4;" x="720.976739" xlink:href="#C1_0_39d9cdb104" y="115.453674"/>
    </g>
    <g clip-path="url(#pc612ff1aec)">
     <use style="fill:#00bfff;fill-opacity:0.4;" x="737.700968" xlink:href="#C1_0_39d9cdb104" y="73.512434"/>
    </g>
    <g clip-path="url(#pc612ff1aec)">
     <use style="fill:#00bfff;fill-opacity:0.4;" x="768.946256" xlink:href="#C1_0_39d9cdb104" y="71.071294"/>
    </g>
    <g clip-path="url(#pc612ff1aec)">
     <use style="fill:#00bfff;fill-opacity:0.4;" x="716.276592" xlink:href="#C1_0_39d9cdb104" y="74.150294"/>
    </g>
    <g clip-path="url(#pc612ff1aec)">
     <use style="fill:#00bfff;fill-opacity:0.4;" x="763.933063" xlink:href="#C1_0_39d9cdb104" y="81.79858"/>
    </g>
    <g clip-path="url(#pc612ff1aec)">
     <use style="fill:#00bfff;fill-opacity:0.4;" x="731.922169" xlink:href="#C1_0_39d9cdb104" y="91.359367"/>
    </g>
    <g clip-path="url(#pc612ff1aec)">
     <use style="fill:#00bfff;fill-opacity:0.4;" x="752.30036" xlink:href="#C1_0_39d9cdb104" y="130.279973"/>
    </g>
    <g clip-path="url(#pc612ff1aec)">
     <use style="fill:#00bfff;fill-opacity:0.4;" x="756.626195" xlink:href="#C1_0_39d9cdb104" y="114.139162"/>
    </g>
    <g clip-path="url(#pc612ff1aec)">
     <use style="fill:#00bfff;fill-opacity:0.4;" x="771.335037" xlink:href="#C1_0_39d9cdb104" y="112.178166"/>
    </g>
    <g clip-path="url(#pc612ff1aec)">
     <use style="fill:#00bfff;fill-opacity:0.4;" x="735.179622" xlink:href="#C1_0_39d9cdb104" y="121.004985"/>
    </g>
    <g clip-path="url(#pc612ff1aec)">
     <use style="fill:#00bfff;fill-opacity:0.4;" x="788.921809" xlink:href="#C1_0_39d9cdb104" y="195.927671"/>
    </g>
    <g clip-path="url(#pc612ff1aec)">
     <use style="fill:#00bfff;fill-opacity:0.4;" x="736.394701" xlink:href="#C1_0_39d9cdb104" y="86.626676"/>
    </g>
    <g clip-path="url(#pc612ff1aec)">
     <use style="fill:#00bfff;fill-opacity:0.4;" x="767.762761" xlink:href="#C1_0_39d9cdb104" y="47.354922"/>
    </g>
    <g clip-path="url(#pc612ff1aec)">
     <use style="fill:#00bfff;fill-opacity:0.4;" x="790.434005" xlink:href="#C1_0_39d9cdb104" y="68.439168"/>
    </g>
    <g clip-path="url(#pc612ff1aec)">
     <use style="fill:#00bfff;fill-opacity:0.4;" x="773.755782" xlink:href="#C1_0_39d9cdb104" y="62.251667"/>
    </g>
    <g clip-path="url(#pc612ff1aec)">
     <use style="fill:#00bfff;fill-opacity:0.4;" x="736.215196" xlink:href="#C1_0_39d9cdb104" y="72.213616"/>
    </g>
    <g clip-path="url(#pc612ff1aec)">
     <use style="fill:#00bfff;fill-opacity:0.4;" x="748.060285" xlink:href="#C1_0_39d9cdb104" y="109.945321"/>
    </g>
    <g clip-path="url(#pc612ff1aec)">
     <use style="fill:#00bfff;fill-opacity:0.4;" x="738.114241" xlink:href="#C1_0_39d9cdb104" y="78.774944"/>
    </g>
    <g clip-path="url(#pc612ff1aec)">
     <use style="fill:#00bfff;fill-opacity:0.4;" x="787.59632" xlink:href="#C1_0_39d9cdb104" y="53.126296"/>
    </g>
    <g clip-path="url(#pc612ff1aec)">
     <use style="fill:#00bfff;fill-opacity:0.4;" x="793.367992" xlink:href="#C1_0_39d9cdb104" y="58.52942"/>
    </g>
    <g clip-path="url(#pc612ff1aec)">
     <use style="fill:#00bfff;fill-opacity:0.4;" x="719.38883" xlink:href="#C1_0_39d9cdb104" y="90.043157"/>
    </g>
    <g clip-path="url(#pc612ff1aec)">
     <use style="fill:#00bfff;fill-opacity:0.4;" x="760.224993" xlink:href="#C1_0_39d9cdb104" y="69.797623"/>
    </g>
    <g clip-path="url(#pc612ff1aec)">
     <use style="fill:#0000ff;fill-opacity:0.4;" x="727.072105" xlink:href="#C1_0_39d9cdb104" y="124.380196"/>
    </g>
    <g clip-path="url(#pc612ff1aec)">
     <use style="fill:#0000ff;fill-opacity:0.4;" x="775.925536" xlink:href="#C1_0_39d9cdb104" y="53.43104"/>
    </g>
    <g clip-path="url(#pc612ff1aec)">
     <use style="fill:#0000ff;fill-opacity:0.4;" x="754.511535" xlink:href="#C1_0_39d9cdb104" y="63.65822"/>
    </g>
    <g clip-path="url(#pc612ff1aec)">
     <use style="fill:#0000ff;fill-opacity:0.4;" x="743.823568" xlink:href="#C1_0_39d9cdb104" y="89.65388"/>
    </g>
    <g clip-path="url(#pc612ff1aec)">
     <use style="fill:#0000ff;fill-opacity:0.4;" x="749.928295" xlink:href="#C1_0_39d9cdb104" y="55.438992"/>
    </g>
    <g clip-path="url(#pc612ff1aec)">
     <use style="fill:#0000ff;fill-opacity:0.4;" x="753.980531" xlink:href="#C1_0_39d9cdb104" y="49.411357"/>
    </g>
    <g clip-path="url(#pc612ff1aec)">
     <use style="fill:#0000ff;fill-opacity:0.4;" x="762.328686" xlink:href="#C1_0_39d9cdb104" y="81.668507"/>
    </g>
    <g clip-path="url(#pc612ff1aec)">
     <use style="fill:#0000ff;fill-opacity:0.4;" x="743.065199" xlink:href="#C1_0_39d9cdb104" y="81.926372"/>
    </g>
    <g clip-path="url(#pc612ff1aec)">
     <use style="fill:#0000ff;fill-opacity:0.4;" x="781.916118" xlink:href="#C1_0_39d9cdb104" y="44.8348"/>
    </g>
    <g clip-path="url(#pc612ff1aec)">
     <use style="fill:#0000ff;fill-opacity:0.4;" x="789.749084" xlink:href="#C1_0_39d9cdb104" y="91.351936"/>
    </g>
    <g clip-path="url(#pc612ff1aec)">
     <use style="fill:#0000ff;fill-opacity:0.4;" x="756.486729" xlink:href="#C1_0_39d9cdb104" y="45.725747"/>
    </g>
    <g clip-path="url(#pc612ff1aec)">
     <use style="fill:#0000ff;fill-opacity:0.4;" x="768.342623" xlink:href="#C1_0_39d9cdb104" y="70.413685"/>
    </g>
    <g clip-path="url(#pc612ff1aec)">
     <use style="fill:#0000ff;fill-opacity:0.4;" x="715.577592" xlink:href="#C1_0_39d9cdb104" y="73.784105"/>
    </g>
    <g clip-path="url(#pc612ff1aec)">
     <use style="fill:#0000ff;fill-opacity:0.4;" x="793.061617" xlink:href="#C1_0_39d9cdb104" y="100.256443"/>
    </g>
    <g clip-path="url(#pc612ff1aec)">
     <use style="fill:#0000ff;fill-opacity:0.4;" x="777.198228" xlink:href="#C1_0_39d9cdb104" y="52.262429"/>
    </g>
    <g clip-path="url(#pc612ff1aec)">
     <use style="fill:#0000ff;fill-opacity:0.4;" x="727.853114" xlink:href="#C1_0_39d9cdb104" y="96.495824"/>
    </g>
    <g clip-path="url(#pc612ff1aec)">
     <use style="fill:#0000ff;fill-opacity:0.4;" x="767.686134" xlink:href="#C1_0_39d9cdb104" y="111.071908"/>
    </g>
    <g clip-path="url(#pc612ff1aec)">
     <use style="fill:#0000ff;fill-opacity:0.4;" x="741.134829" xlink:href="#C1_0_39d9cdb104" y="85.859176"/>
    </g>
    <g clip-path="url(#pc612ff1aec)">
     <use style="fill:#0000ff;fill-opacity:0.4;" x="719.717401" xlink:href="#C1_0_39d9cdb104" y="76.021963"/>
    </g>
    <g clip-path="url(#pc612ff1aec)">
     <use style="fill:#0000ff;fill-opacity:0.4;" x="767.603594" xlink:href="#C1_0_39d9cdb104" y="52.208686"/>
    </g>
    <g clip-path="url(#pc612ff1aec)">
     <use style="fill:#0000ff;fill-opacity:0.4;" x="729.654776" xlink:href="#C1_0_39d9cdb104" y="100.708428"/>
    </g>
    <g clip-path="url(#pc612ff1aec)">
     <use style="fill:#0000ff;fill-opacity:0.4;" x="719.24026" xlink:href="#C1_0_39d9cdb104" y="84.152525"/>
    </g>
    <g clip-path="url(#pc612ff1aec)">
     <use style="fill:#0000ff;fill-opacity:0.4;" x="746.604653" xlink:href="#C1_0_39d9cdb104" y="83.549531"/>
    </g>
    <g clip-path="url(#pc612ff1aec)">
     <use style="fill:#00bfff;fill-opacity:0.4;" x="748.487694" xlink:href="#C1_0_39d9cdb104" y="192.676394"/>
    </g>
    <g clip-path="url(#pc612ff1aec)">
     <use style="fill:#00bfff;fill-opacity:0.4;" x="761.67446" xlink:href="#C1_0_39d9cdb104" y="238.342253"/>
    </g>
    <g clip-path="url(#pc612ff1aec)">
     <use style="fill:#00bfff;fill-opacity:0.4;" x="777.72768" xlink:href="#C1_0_39d9cdb104" y="107.0758"/>
    </g>
    <g clip-path="url(#pc612ff1aec)">
     <use style="fill:#00bfff;fill-opacity:0.4;" x="749.001149" xlink:href="#C1_0_39d9cdb104" y="99.64682"/>
    </g>
    <g clip-path="url(#pc612ff1aec)">
     <use style="fill:#00bfff;fill-opacity:0.4;" x="757.269698" xlink:href="#C1_0_39d9cdb104" y="48.131876"/>
    </g>
    <g clip-path="url(#pc612ff1aec)">
     <use style="fill:#00bfff;fill-opacity:0.4;" x="725.625406" xlink:href="#C1_0_39d9cdb104" y="115.693947"/>
    </g>
    <g clip-path="url(#pc612ff1aec)">
     <use style="fill:#00bfff;fill-opacity:0.4;" x="753.629287" xlink:href="#C1_0_39d9cdb104" y="78.359877"/>
    </g>
    <g clip-path="url(#pc612ff1aec)">
     <use style="fill:#00bfff;fill-opacity:0.4;" x="777.335441" xlink:href="#C1_0_39d9cdb104" y="61.231727"/>
    </g>
    <g clip-path="url(#pc612ff1aec)">
     <use style="fill:#00bfff;fill-opacity:0.4;" x="763.5478" xlink:href="#C1_0_39d9cdb104" y="110.20708"/>
    </g>
    <g clip-path="url(#pc612ff1aec)">
     <use style="fill:#00bfff;fill-opacity:0.4;" x="748.417758" xlink:href="#C1_0_39d9cdb104" y="93.465344"/>
    </g>
    <g clip-path="url(#pc612ff1aec)">
     <use style="fill:#00bfff;fill-opacity:0.4;" x="784.283731" xlink:href="#C1_0_39d9cdb104" y="142.744874"/>
    </g>
    <g clip-path="url(#pc612ff1aec)">
     <use style="fill:#0000ff;fill-opacity:0.4;" x="722.21972" xlink:href="#C1_0_39d9cdb104" y="497.800454"/>
    </g>
    <g clip-path="url(#pc612ff1aec)">
     <use style="fill:#0000ff;fill-opacity:0.4;" x="760.978925" xlink:href="#C1_0_39d9cdb104" y="500.057085"/>
    </g>
    <g clip-path="url(#pc612ff1aec)">
     <use style="fill:#0000ff;fill-opacity:0.4;" x="787.133532" xlink:href="#C1_0_39d9cdb104" y="498.9248"/>
    </g>
    <g clip-path="url(#pc612ff1aec)">
     <use style="fill:#0000ff;fill-opacity:0.4;" x="772.242007" xlink:href="#C1_0_39d9cdb104" y="497.685821"/>
    </g>
    <g clip-path="url(#pc612ff1aec)">
     <use style="fill:#0000ff;fill-opacity:0.4;" x="753.594406" xlink:href="#C1_0_39d9cdb104" y="499.196858"/>
    </g>
    <g clip-path="url(#pc612ff1aec)">
     <use style="fill:#0000ff;fill-opacity:0.4;" x="766.72189" xlink:href="#C1_0_39d9cdb104" y="494.797774"/>
    </g>
    <g clip-path="url(#pc612ff1aec)">
     <use style="fill:#0000ff;fill-opacity:0.4;" x="790.7614" xlink:href="#C1_0_39d9cdb104" y="499.939656"/>
    </g>
    <g clip-path="url(#pc612ff1aec)">
     <use style="fill:#0000ff;fill-opacity:0.4;" x="728.563132" xlink:href="#C1_0_39d9cdb104" y="498.566358"/>
    </g>
    <g clip-path="url(#pc612ff1aec)">
     <use style="fill:#0000ff;fill-opacity:0.4;" x="757.452031" xlink:href="#C1_0_39d9cdb104" y="498.120198"/>
    </g>
    <g clip-path="url(#pc612ff1aec)">
     <use style="fill:#0000ff;fill-opacity:0.4;" x="719.972786" xlink:href="#C1_0_39d9cdb104" y="499.51197"/>
    </g>
    <g clip-path="url(#pc612ff1aec)">
     <use style="fill:#0000ff;fill-opacity:0.4;" x="794.211029" xlink:href="#C1_0_39d9cdb104" y="181.08116"/>
    </g>
    <g clip-path="url(#pc612ff1aec)">
     <use style="fill:#0000ff;fill-opacity:0.4;" x="717.136166" xlink:href="#C1_0_39d9cdb104" y="91.889819"/>
    </g>
    <g clip-path="url(#pc612ff1aec)">
     <use style="fill:#0000ff;fill-opacity:0.4;" x="761.731244" xlink:href="#C1_0_39d9cdb104" y="64.797856"/>
    </g>
    <g clip-path="url(#pc612ff1aec)">
     <use style="fill:#0000ff;fill-opacity:0.4;" x="723.317044" xlink:href="#C1_0_39d9cdb104" y="104.017012"/>
    </g>
    <g clip-path="url(#pc612ff1aec)">
     <use style="fill:#0000ff;fill-opacity:0.4;" x="731.948426" xlink:href="#C1_0_39d9cdb104" y="125.666392"/>
    </g>
    <g clip-path="url(#pc612ff1aec)">
     <use style="fill:#0000ff;fill-opacity:0.4;" x="771.796194" xlink:href="#C1_0_39d9cdb104" y="150.281121"/>
    </g>
    <g clip-path="url(#pc612ff1aec)">
     <use style="fill:#0000ff;fill-opacity:0.4;" x="754.307076" xlink:href="#C1_0_39d9cdb104" y="126.982321"/>
    </g>
    <g clip-path="url(#pc612ff1aec)">
     <use style="fill:#0000ff;fill-opacity:0.4;" x="722.674729" xlink:href="#C1_0_39d9cdb104" y="76.000676"/>
    </g>
    <g clip-path="url(#pc612ff1aec)">
     <use style="fill:#0000ff;fill-opacity:0.4;" x="786.984113" xlink:href="#C1_0_39d9cdb104" y="98.664762"/>
    </g>
    <g clip-path="url(#pc612ff1aec)">
     <use style="fill:#0000ff;fill-opacity:0.4;" x="718.490816" xlink:href="#C1_0_39d9cdb104" y="66.386042"/>
    </g>
    <g clip-path="url(#pc612ff1aec)">
     <use style="fill:#0000ff;fill-opacity:0.4;" x="789.727888" xlink:href="#C1_0_39d9cdb104" y="95.348576"/>
    </g>
   </g>
   <g id="line2d_21">
    <defs>
     <path d="M 0 5 
C 1.326016 5 2.597899 4.473168 3.535534 3.535534 
C 4.473168 2.597899 5 1.326016 5 0 
C 5 -1.326016 4.473168 -2.597899 3.535534 -3.535534 
C 2.597899 -4.473168 1.326016 -5 0 -5 
C -1.326016 -5 -2.597899 -4.473168 -3.535534 -3.535534 
C -4.473168 -2.597899 -5 -1.326016 -5 0 
C -5 1.326016 -4.473168 2.597899 -3.535534 3.535534 
C -2.597899 4.473168 -1.326016 5 0 5 
z
" id="mcb5d87f7bf" style="stroke:#2ca02c;"/>
    </defs>
    <g clip-path="url(#pc612ff1aec)">
     <use style="fill:#ff8c00;stroke:#2ca02c;" x="271.960938" xlink:href="#mcb5d87f7bf" y="190.458231"/>
    </g>
   </g>
   <g id="line2d_22">
    <g clip-path="url(#pc612ff1aec)">
     <use style="fill:#ff8c00;stroke:#2ca02c;" x="690.460938" xlink:href="#mcb5d87f7bf" y="168.669954"/>
    </g>
   </g>
   <g id="text_12">
    <!-- ns -->
    <g transform="translate(475.4375 14.798438)scale(0.1 -0.1)">
     <defs>
      <path d="M 3513 2113 
L 3513 0 
L 2938 0 
L 2938 2094 
Q 2938 2591 2744 2837 
Q 2550 3084 2163 3084 
Q 1697 3084 1428 2787 
Q 1159 2491 1159 1978 
L 1159 0 
L 581 0 
L 581 3500 
L 1159 3500 
L 1159 2956 
Q 1366 3272 1645 3428 
Q 1925 3584 2291 3584 
Q 2894 3584 3203 3211 
Q 3513 2838 3513 2113 
z
" id="DejaVuSans-6e" transform="scale(0.015625)"/>
     </defs>
     <use xlink:href="#DejaVuSans-6e"/>
     <use x="63.378906" xlink:href="#DejaVuSans-73"/>
    </g>
   </g>
   <g id="patch_5">
    <path clip-path="url(#pc612ff1aec)" d="M 219.648438 180.048427 
L 324.273438 180.048427 
L 324.273438 135.844941 
L 219.648438 135.844941 
L 219.648438 180.048427 
z
" style="fill:none;stroke:#3f3f3f;stroke-linejoin:miter;stroke-width:3;"/>
   </g>
   <g id="patch_6">
    <path clip-path="url(#pc612ff1aec)" d="M 638.148438 191.299202 
L 742.773438 191.299202 
L 742.773438 139.6214 
L 638.148438 139.6214 
L 638.148438 191.299202 
z
" style="fill:none;stroke:#3f3f3f;stroke-linejoin:miter;stroke-width:3;"/>
   </g>
  </g>
 </g>
 <defs>
  <clipPath id="p49184f1ccb">
   <rect height="494.181818" width="109.420976" x="162.539962" y="69.767216"/>
  </clipPath>
  <clipPath id="p05e84f92d6">
   <rect height="205.936449" width="167.4" x="523.060938" y="86.019606"/>
  </clipPath>
  <clipPath id="pc612ff1aec">
   <rect height="543.6" width="837" x="62.710938" y="45.058125"/>
  </clipPath>
 </defs>
</svg>
